<svg width="308" height="189" viewBox="0 0 308 189" fill="none" xmlns="http://www.w3.org/2000/svg">
<rect width="308" height="189" rx="20" fill="#C5DF95"/>
<path d="M76.2432 144V131.203H80.6289C82.0762 131.203 83.1777 131.493 83.9336 132.073C84.6895 132.653 85.0674 133.518 85.0674 134.666C85.0674 135.252 84.9092 135.779 84.5928 136.248C84.2764 136.717 83.8135 137.08 83.2041 137.338C83.8955 137.525 84.4287 137.88 84.8037 138.401C85.1846 138.917 85.375 139.538 85.375 140.265C85.375 141.466 84.9883 142.389 84.2148 143.033C83.4473 143.678 82.3457 144 80.9102 144H76.2432ZM78.4668 138.226V142.225H80.9365C81.6338 142.225 82.1787 142.052 82.5713 141.706C82.9639 141.36 83.1602 140.88 83.1602 140.265C83.1602 138.935 82.4805 138.255 81.1211 138.226H78.4668ZM78.4668 136.591H80.6465C81.3379 136.591 81.877 136.436 82.2637 136.125C82.6562 135.809 82.8525 135.363 82.8525 134.789C82.8525 134.156 82.6709 133.699 82.3076 133.418C81.9502 133.137 81.3906 132.996 80.6289 132.996H78.4668V136.591ZM93.0742 144C92.9805 143.818 92.8984 143.522 92.8281 143.112C92.1484 143.821 91.3164 144.176 90.332 144.176C89.377 144.176 88.5977 143.903 87.9941 143.358C87.3906 142.813 87.0889 142.14 87.0889 141.337C87.0889 140.323 87.4639 139.547 88.2139 139.008C88.9697 138.463 90.0479 138.19 91.4482 138.19H92.7578V137.566C92.7578 137.074 92.6201 136.682 92.3447 136.389C92.0693 136.09 91.6504 135.94 91.0879 135.94C90.6016 135.94 90.2031 136.063 89.8926 136.31C89.582 136.55 89.4268 136.857 89.4268 137.232H87.291C87.291 136.711 87.4639 136.225 87.8096 135.773C88.1553 135.316 88.624 134.959 89.2158 134.701C89.8135 134.443 90.4785 134.314 91.2109 134.314C92.3242 134.314 93.2119 134.596 93.874 135.158C94.5361 135.715 94.876 136.5 94.8936 137.514V141.803C94.8936 142.658 95.0137 143.341 95.2539 143.851V144H93.0742ZM90.7275 142.462C91.1494 142.462 91.5449 142.359 91.9141 142.154C92.2891 141.949 92.5703 141.674 92.7578 141.328V139.535H91.6064C90.8154 139.535 90.2207 139.673 89.8223 139.948C89.4238 140.224 89.2246 140.613 89.2246 141.117C89.2246 141.527 89.3594 141.855 89.6289 142.102C89.9043 142.342 90.2705 142.462 90.7275 142.462ZM99.3496 134.49V142.295H102.32V134.49H104.456V142.295H107.436V134.49H109.562V144H97.2139V134.49H99.3496ZM117.561 144C117.467 143.818 117.385 143.522 117.314 143.112C116.635 143.821 115.803 144.176 114.818 144.176C113.863 144.176 113.084 143.903 112.48 143.358C111.877 142.813 111.575 142.14 111.575 141.337C111.575 140.323 111.95 139.547 112.7 139.008C113.456 138.463 114.534 138.19 115.935 138.19H117.244V137.566C117.244 137.074 117.106 136.682 116.831 136.389C116.556 136.09 116.137 135.94 115.574 135.94C115.088 135.94 114.689 136.063 114.379 136.31C114.068 136.55 113.913 136.857 113.913 137.232H111.777C111.777 136.711 111.95 136.225 112.296 135.773C112.642 135.316 113.11 134.959 113.702 134.701C114.3 134.443 114.965 134.314 115.697 134.314C116.811 134.314 117.698 134.596 118.36 135.158C119.022 135.715 119.362 136.5 119.38 137.514V141.803C119.38 142.658 119.5 143.341 119.74 143.851V144H117.561ZM115.214 142.462C115.636 142.462 116.031 142.359 116.4 142.154C116.775 141.949 117.057 141.674 117.244 141.328V139.535H116.093C115.302 139.535 114.707 139.673 114.309 139.948C113.91 140.224 113.711 140.613 113.711 141.117C113.711 141.527 113.846 141.855 114.115 142.102C114.391 142.342 114.757 142.462 115.214 142.462ZM126.262 144V134.49H130.12C131.421 134.49 132.411 134.719 133.091 135.176C133.771 135.627 134.11 136.277 134.11 137.127C134.11 137.566 133.973 137.962 133.697 138.313C133.428 138.659 133.026 138.926 132.493 139.113C133.114 139.242 133.606 139.503 133.97 139.896C134.333 140.288 134.515 140.751 134.515 141.284C134.515 142.169 134.187 142.843 133.53 143.306C132.88 143.769 131.942 144 130.718 144H126.262ZM128.397 139.948V142.312H130.735C131.831 142.312 132.379 141.92 132.379 141.135C132.379 140.344 131.822 139.948 130.709 139.948H128.397ZM128.397 138.419H130.155C131.368 138.419 131.975 138.062 131.975 137.347C131.975 136.597 131.4 136.21 130.252 136.187H128.397V138.419ZM140.553 144.176C139.199 144.176 138.101 143.751 137.257 142.901C136.419 142.046 136 140.909 136 139.491V139.228C136 138.278 136.182 137.432 136.545 136.688C136.914 135.938 137.43 135.354 138.092 134.938C138.754 134.522 139.492 134.314 140.307 134.314C141.602 134.314 142.601 134.728 143.304 135.554C144.013 136.38 144.367 137.549 144.367 139.061V139.922H138.153C138.218 140.707 138.479 141.328 138.936 141.785C139.398 142.242 139.979 142.471 140.676 142.471C141.654 142.471 142.451 142.075 143.066 141.284L144.218 142.383C143.837 142.951 143.327 143.394 142.688 143.71C142.056 144.021 141.344 144.176 140.553 144.176ZM140.298 136.028C139.712 136.028 139.237 136.233 138.874 136.644C138.517 137.054 138.288 137.625 138.188 138.357H142.258V138.199C142.211 137.484 142.021 136.945 141.687 136.582C141.353 136.213 140.89 136.028 140.298 136.028ZM154.36 139.342C154.36 140.812 154.026 141.987 153.358 142.866C152.69 143.739 151.794 144.176 150.669 144.176C149.626 144.176 148.791 143.833 148.164 143.147V147.656H146.028V134.49H147.997L148.085 135.457C148.712 134.695 149.564 134.314 150.643 134.314C151.803 134.314 152.711 134.748 153.367 135.615C154.029 136.477 154.36 137.675 154.36 139.21V139.342ZM152.233 139.157C152.233 138.208 152.043 137.455 151.662 136.898C151.287 136.342 150.748 136.063 150.045 136.063C149.172 136.063 148.545 136.424 148.164 137.145V141.363C148.551 142.102 149.184 142.471 150.062 142.471C150.742 142.471 151.272 142.198 151.653 141.653C152.04 141.103 152.233 140.271 152.233 139.157ZM155.775 139.157C155.775 138.226 155.96 137.388 156.329 136.644C156.698 135.894 157.217 135.319 157.885 134.921C158.553 134.517 159.32 134.314 160.188 134.314C161.471 134.314 162.511 134.728 163.308 135.554C164.11 136.38 164.544 137.476 164.608 138.841L164.617 139.342C164.617 140.279 164.436 141.117 164.072 141.855C163.715 142.594 163.199 143.165 162.525 143.569C161.857 143.974 161.084 144.176 160.205 144.176C158.863 144.176 157.788 143.73 156.979 142.84C156.177 141.943 155.775 140.751 155.775 139.263V139.157ZM157.911 139.342C157.911 140.32 158.113 141.088 158.518 141.645C158.922 142.195 159.484 142.471 160.205 142.471C160.926 142.471 161.485 142.189 161.884 141.627C162.288 141.064 162.49 140.241 162.49 139.157C162.49 138.196 162.282 137.435 161.866 136.872C161.456 136.31 160.896 136.028 160.188 136.028C159.49 136.028 158.937 136.307 158.526 136.863C158.116 137.414 157.911 138.24 157.911 139.342ZM174.039 134.49V144H171.912V140.511H169.917L167.887 144H165.672L167.913 140.159C167.327 139.913 166.876 139.562 166.56 139.104C166.249 138.647 166.094 138.123 166.094 137.531C166.094 136.646 166.434 135.923 167.113 135.36C167.799 134.792 168.722 134.502 169.882 134.49H174.039ZM168.229 137.584C168.229 137.982 168.376 138.308 168.669 138.56C168.968 138.806 169.349 138.929 169.812 138.929H171.912V136.187H169.943C169.422 136.187 169.006 136.318 168.695 136.582C168.385 136.846 168.229 137.18 168.229 137.584ZM183.892 136.187H180.807V144H178.671V136.187H175.621V134.49H183.892V136.187ZM193.375 144H191.239V140.159H187.539V144H185.403V134.49H187.539V138.454H191.239V134.49H193.375V144ZM195.256 139.157C195.256 138.226 195.44 137.388 195.81 136.644C196.179 135.894 196.697 135.319 197.365 134.921C198.033 134.517 198.801 134.314 199.668 134.314C200.951 134.314 201.991 134.728 202.788 135.554C203.591 136.38 204.024 137.476 204.089 138.841L204.098 139.342C204.098 140.279 203.916 141.117 203.553 141.855C203.195 142.594 202.68 143.165 202.006 143.569C201.338 143.974 200.564 144.176 199.686 144.176C198.344 144.176 197.269 143.73 196.46 142.84C195.657 141.943 195.256 140.751 195.256 139.263V139.157ZM197.392 139.342C197.392 140.32 197.594 141.088 197.998 141.645C198.402 142.195 198.965 142.471 199.686 142.471C200.406 142.471 200.966 142.189 201.364 141.627C201.769 141.064 201.971 140.241 201.971 139.157C201.971 138.196 201.763 137.435 201.347 136.872C200.937 136.31 200.377 136.028 199.668 136.028C198.971 136.028 198.417 136.307 198.007 136.863C197.597 137.414 197.392 138.24 197.392 139.342ZM209.811 142.471C210.344 142.471 210.786 142.315 211.138 142.005C211.489 141.694 211.677 141.311 211.7 140.854H213.713C213.689 141.445 213.505 141.999 213.159 142.515C212.813 143.024 212.345 143.429 211.753 143.728C211.161 144.026 210.522 144.176 209.837 144.176C208.507 144.176 207.452 143.745 206.673 142.884C205.894 142.022 205.504 140.833 205.504 139.315V139.096C205.504 137.648 205.891 136.491 206.664 135.624C207.438 134.751 208.492 134.314 209.828 134.314C210.959 134.314 211.879 134.646 212.588 135.308C213.303 135.964 213.678 136.828 213.713 137.9H211.7C211.677 137.355 211.489 136.907 211.138 136.556C210.792 136.204 210.35 136.028 209.811 136.028C209.119 136.028 208.586 136.28 208.211 136.784C207.836 137.282 207.646 138.041 207.64 139.061V139.403C207.64 140.435 207.824 141.205 208.193 141.715C208.568 142.219 209.107 142.471 209.811 142.471ZM222.81 136.187H219.725V144H217.589V136.187H214.539V134.49H222.81V136.187ZM226.536 137.514H228.628C229.407 137.514 230.087 137.648 230.667 137.918C231.247 138.188 231.687 138.565 231.985 139.052C232.29 139.538 232.442 140.104 232.442 140.748C232.442 141.727 232.097 142.512 231.405 143.104C230.714 143.695 229.794 143.994 228.646 144H224.4V134.49H226.536V137.514ZM226.536 139.228V142.295H228.619C229.141 142.295 229.551 142.166 229.85 141.908C230.154 141.645 230.307 141.272 230.307 140.792C230.307 140.312 230.157 139.934 229.858 139.658C229.565 139.377 229.167 139.233 228.663 139.228H226.536ZM114.01 161.092C114.01 161.514 113.881 161.903 113.623 162.261C113.371 162.612 113.014 162.894 112.551 163.104C113.641 163.485 114.186 164.221 114.186 165.311C114.186 166.184 113.831 166.881 113.122 167.402C112.413 167.918 111.464 168.176 110.274 168.176C109.548 168.176 108.886 168.056 108.288 167.815C107.69 167.569 107.225 167.224 106.891 166.778C106.557 166.327 106.39 165.794 106.39 165.179H108.517C108.517 165.565 108.689 165.891 109.035 166.154C109.381 166.412 109.817 166.541 110.345 166.541C110.866 166.541 111.279 166.421 111.584 166.181C111.895 165.935 112.05 165.615 112.05 165.223C112.05 164.76 111.915 164.426 111.646 164.221C111.376 164.016 110.96 163.913 110.397 163.913H108.868V162.375H110.45C111.405 162.363 111.883 161.971 111.883 161.197C111.883 160.811 111.745 160.509 111.47 160.292C111.194 160.075 110.816 159.967 110.336 159.967C109.867 159.967 109.472 160.084 109.149 160.318C108.827 160.547 108.666 160.837 108.666 161.188H106.539C106.539 160.351 106.891 159.665 107.594 159.132C108.297 158.593 109.19 158.323 110.274 158.323C111.452 158.323 112.369 158.563 113.025 159.044C113.682 159.524 114.01 160.207 114.01 161.092ZM121.683 168C121.589 167.818 121.507 167.522 121.437 167.112C120.757 167.821 119.925 168.176 118.94 168.176C117.985 168.176 117.206 167.903 116.603 167.358C115.999 166.813 115.697 166.14 115.697 165.337C115.697 164.323 116.072 163.547 116.822 163.008C117.578 162.463 118.656 162.19 120.057 162.19H121.366V161.566C121.366 161.074 121.229 160.682 120.953 160.389C120.678 160.09 120.259 159.94 119.696 159.94C119.21 159.94 118.812 160.063 118.501 160.31C118.19 160.55 118.035 160.857 118.035 161.232H115.899C115.899 160.711 116.072 160.225 116.418 159.773C116.764 159.316 117.232 158.959 117.824 158.701C118.422 158.443 119.087 158.314 119.819 158.314C120.933 158.314 121.82 158.596 122.482 159.158C123.145 159.715 123.484 160.5 123.502 161.514V165.803C123.502 166.658 123.622 167.341 123.862 167.851V168H121.683ZM119.336 166.462C119.758 166.462 120.153 166.359 120.522 166.154C120.897 165.949 121.179 165.674 121.366 165.328V163.535H120.215C119.424 163.535 118.829 163.673 118.431 163.948C118.032 164.224 117.833 164.613 117.833 165.117C117.833 165.527 117.968 165.855 118.237 166.102C118.513 166.342 118.879 166.462 119.336 166.462ZM134.066 163.342C134.066 164.812 133.732 165.987 133.064 166.866C132.396 167.739 131.5 168.176 130.375 168.176C129.332 168.176 128.497 167.833 127.87 167.147V171.656H125.734V158.49H127.703L127.791 159.457C128.418 158.695 129.271 158.314 130.349 158.314C131.509 158.314 132.417 158.748 133.073 159.615C133.735 160.477 134.066 161.675 134.066 163.21V163.342ZM131.939 163.157C131.939 162.208 131.749 161.455 131.368 160.898C130.993 160.342 130.454 160.063 129.751 160.063C128.878 160.063 128.251 160.424 127.87 161.145V165.363C128.257 166.102 128.89 166.471 129.769 166.471C130.448 166.471 130.979 166.198 131.359 165.653C131.746 165.103 131.939 164.271 131.939 163.157ZM141.563 168C141.47 167.818 141.388 167.522 141.317 167.112C140.638 167.821 139.806 168.176 138.821 168.176C137.866 168.176 137.087 167.903 136.483 167.358C135.88 166.813 135.578 166.14 135.578 165.337C135.578 164.323 135.953 163.547 136.703 163.008C137.459 162.463 138.537 162.19 139.938 162.19H141.247V161.566C141.247 161.074 141.109 160.682 140.834 160.389C140.559 160.09 140.14 159.94 139.577 159.94C139.091 159.94 138.692 160.063 138.382 160.31C138.071 160.55 137.916 160.857 137.916 161.232H135.78C135.78 160.711 135.953 160.225 136.299 159.773C136.645 159.316 137.113 158.959 137.705 158.701C138.303 158.443 138.968 158.314 139.7 158.314C140.813 158.314 141.701 158.596 142.363 159.158C143.025 159.715 143.365 160.5 143.383 161.514V165.803C143.383 166.658 143.503 167.341 143.743 167.851V168H141.563ZM139.217 166.462C139.639 166.462 140.034 166.359 140.403 166.154C140.778 165.949 141.06 165.674 141.247 165.328V163.535H140.096C139.305 163.535 138.71 163.673 138.312 163.948C137.913 164.224 137.714 164.613 137.714 165.117C137.714 165.527 137.849 165.855 138.118 166.102C138.394 166.342 138.76 166.462 139.217 166.462ZM152.822 161.092C152.822 161.514 152.693 161.903 152.436 162.261C152.184 162.612 151.826 162.894 151.363 163.104C152.453 163.485 152.998 164.221 152.998 165.311C152.998 166.184 152.644 166.881 151.935 167.402C151.226 167.918 150.276 168.176 149.087 168.176C148.36 168.176 147.698 168.056 147.101 167.815C146.503 167.569 146.037 167.224 145.703 166.778C145.369 166.327 145.202 165.794 145.202 165.179H147.329C147.329 165.565 147.502 165.891 147.848 166.154C148.193 166.412 148.63 166.541 149.157 166.541C149.679 166.541 150.092 166.421 150.396 166.181C150.707 165.935 150.862 165.615 150.862 165.223C150.862 164.76 150.728 164.426 150.458 164.221C150.188 164.016 149.772 163.913 149.21 163.913H147.681V162.375H149.263C150.218 162.363 150.695 161.971 150.695 161.197C150.695 160.811 150.558 160.509 150.282 160.292C150.007 160.075 149.629 159.967 149.148 159.967C148.68 159.967 148.284 160.084 147.962 160.318C147.64 160.547 147.479 160.837 147.479 161.188H145.352C145.352 160.351 145.703 159.665 146.406 159.132C147.109 158.593 148.003 158.323 149.087 158.323C150.265 158.323 151.182 158.563 151.838 159.044C152.494 159.524 152.822 160.207 152.822 161.092ZM160.75 158.49H162.877V168H160.75V161.654L157.023 168H154.896V158.49H157.023V164.836L160.75 158.49ZM172.633 160.187H169.548V168H167.412V160.187H164.362V158.49H172.633V160.187ZM176.359 161.514H178.451C179.23 161.514 179.91 161.648 180.49 161.918C181.07 162.188 181.51 162.565 181.809 163.052C182.113 163.538 182.266 164.104 182.266 164.748C182.266 165.727 181.92 166.512 181.229 167.104C180.537 167.695 179.617 167.994 178.469 168H174.224V158.49H176.359V161.514ZM176.359 163.228V166.295H178.442C178.964 166.295 179.374 166.166 179.673 165.908C179.978 165.645 180.13 165.272 180.13 164.792C180.13 164.312 179.98 163.934 179.682 163.658C179.389 163.377 178.99 163.233 178.486 163.228H176.359ZM187.882 166.471C188.415 166.471 188.857 166.315 189.209 166.005C189.561 165.694 189.748 165.311 189.771 164.854H191.784C191.761 165.445 191.576 165.999 191.23 166.515C190.885 167.024 190.416 167.429 189.824 167.728C189.232 168.026 188.594 168.176 187.908 168.176C186.578 168.176 185.523 167.745 184.744 166.884C183.965 166.022 183.575 164.833 183.575 163.315V163.096C183.575 161.648 183.962 160.491 184.735 159.624C185.509 158.751 186.563 158.314 187.899 158.314C189.03 158.314 189.95 158.646 190.659 159.308C191.374 159.964 191.749 160.828 191.784 161.9H189.771C189.748 161.355 189.561 160.907 189.209 160.556C188.863 160.204 188.421 160.028 187.882 160.028C187.19 160.028 186.657 160.28 186.282 160.784C185.907 161.282 185.717 162.041 185.711 163.061V163.403C185.711 164.435 185.896 165.205 186.265 165.715C186.64 166.219 187.179 166.471 187.882 166.471ZM201.013 158.49V168H198.886V164.511H196.891L194.86 168H192.646L194.887 164.159C194.301 163.913 193.85 163.562 193.533 163.104C193.223 162.647 193.067 162.123 193.067 161.531C193.067 160.646 193.407 159.923 194.087 159.36C194.772 158.792 195.695 158.502 196.855 158.49H201.013ZM195.203 161.584C195.203 161.982 195.35 162.308 195.643 162.56C195.941 162.806 196.322 162.929 196.785 162.929H198.886V160.187H196.917C196.396 160.187 195.979 160.318 195.669 160.582C195.358 160.846 195.203 161.18 195.203 161.584Z" fill="black"/>
<path d="M123.773 98H117V71.8906L108.914 74.3984V68.8906L123.047 63.8281H123.773V98ZM157.852 83.8906C157.852 88.6094 156.875 92.2188 154.922 94.7188C152.969 97.2188 150.109 98.4688 146.344 98.4688C142.625 98.4688 139.781 97.2422 137.812 94.7891C135.844 92.3359 134.836 88.8203 134.789 84.2422V77.9609C134.789 73.1953 135.773 69.5781 137.742 67.1094C139.727 64.6406 142.578 63.4062 146.297 63.4062C150.016 63.4062 152.859 64.6328 154.828 67.0859C156.797 69.5234 157.805 73.0312 157.852 77.6094V83.8906ZM151.078 77C151.078 74.1719 150.688 72.1172 149.906 70.8359C149.141 69.5391 147.938 68.8906 146.297 68.8906C144.703 68.8906 143.523 69.5078 142.758 70.7422C142.008 71.9609 141.609 73.875 141.562 76.4844V84.7812C141.562 87.5625 141.938 89.6328 142.688 90.9922C143.453 92.3359 144.672 93.0078 146.344 93.0078C148 93.0078 149.195 92.3594 149.93 91.0625C150.664 89.7656 151.047 87.7812 151.078 85.1094V77ZM162.352 70.4375C162.352 68.3438 163.031 66.6484 164.391 65.3516C165.75 64.0391 167.531 63.3828 169.734 63.3828C171.969 63.3828 173.766 64.0312 175.125 65.3281C176.484 66.6094 177.164 68.3516 177.164 70.5547V72.2422C177.164 74.3516 176.484 76.0469 175.125 77.3281C173.766 78.6094 171.984 79.25 169.781 79.25C167.562 79.25 165.766 78.6094 164.391 77.3281C163.031 76.0312 162.352 74.2891 162.352 72.1016V70.4375ZM166.852 72.2422C166.852 73.1797 167.117 73.9375 167.648 74.5156C168.195 75.0781 168.906 75.3594 169.781 75.3594C170.656 75.3594 171.352 75.0703 171.867 74.4922C172.383 73.9141 172.641 73.1406 172.641 72.1719V70.4375C172.641 69.5 172.383 68.7422 171.867 68.1641C171.352 67.5859 170.641 67.2969 169.734 67.2969C168.875 67.2969 168.18 67.5859 167.648 68.1641C167.117 68.7266 166.852 69.5156 166.852 70.5312V72.2422ZM178.664 89.6328C178.664 87.5234 179.352 85.8281 180.727 84.5469C182.102 83.25 183.883 82.6016 186.07 82.6016C188.289 82.6016 190.078 83.2422 191.438 84.5234C192.812 85.7891 193.5 87.5391 193.5 89.7734V91.4609C193.5 93.5547 192.828 95.25 191.484 96.5469C190.141 97.8281 188.352 98.4688 186.117 98.4688C183.867 98.4688 182.062 97.8203 180.703 96.5234C179.344 95.2266 178.664 93.5078 178.664 91.3672V89.6328ZM183.164 91.4609C183.164 92.3203 183.445 93.0547 184.008 93.6641C184.57 94.2734 185.273 94.5781 186.117 94.5781C188.023 94.5781 188.977 93.5234 188.977 91.4141V89.6328C188.977 88.6953 188.711 87.9453 188.18 87.3828C187.648 86.8047 186.945 86.5156 186.07 86.5156C185.195 86.5156 184.492 86.8047 183.961 87.3828C183.43 87.9453 183.164 88.7188 183.164 89.7031V91.4609ZM171.117 95.4453L167.812 93.6641L184.477 66.9922L187.781 68.7734L171.117 95.4453Z" fill="black"/>
</svg>
