<svg width="308" height="235" viewBox="0 0 308 235" fill="none" xmlns="http://www.w3.org/2000/svg">
<rect width="308" height="235" rx="20" fill="#E85D52"/>
<path d="M158.183 91.9658C159.576 93.3506 161.145 94.5466 162.85 95.523V98.5001C162.85 99.3455 163.185 100.156 163.783 100.754C164.381 101.352 165.192 101.688 166.037 101.688C166.882 101.688 167.693 101.352 168.291 100.754C168.889 100.156 169.225 99.3455 169.225 98.5001V97.9838C170.78 98.3232 172.366 98.4963 173.958 98.5001H175.6C176.445 98.5001 177.256 98.1643 177.853 97.5665C178.451 96.9688 178.787 96.158 178.787 95.3126C178.787 94.4673 178.451 93.6565 177.853 93.0587C177.256 92.461 176.445 92.1251 175.6 92.1251H173.958C171.865 92.1309 169.791 91.7214 167.857 90.9204C165.923 90.1194 164.167 88.9428 162.69 87.4586L161.916 86.6841C161.314 86.1034 160.509 85.7822 159.673 85.7894C158.838 85.7967 158.038 86.1319 157.447 86.7229C156.856 87.3139 156.521 88.1134 156.514 88.9491C156.507 89.7849 156.828 90.59 157.408 91.1912L158.183 91.9658Z" fill="white"/>
<path d="M62.5358 200.5C61.6996 200.387 60.8528 200.608 60.1778 201.114C59.5028 201.621 59.0538 202.372 58.9275 203.206L58.0319 209.517C57.9127 210.354 58.1308 211.204 58.6383 211.88C59.1458 212.556 59.9011 213.003 60.738 213.122C60.888 213.144 61.0392 213.154 61.1907 213.154C61.9576 213.153 62.6986 212.876 63.2776 212.373C63.8567 211.87 64.235 211.175 64.3431 210.416L65.242 204.105C65.3612 203.268 65.143 202.418 64.6355 201.742C64.128 201.066 63.3727 200.619 62.5358 200.5Z" fill="white"/>
<path d="M71.7661 174.13C72.6527 172.353 73.6558 170.636 74.7687 168.992C75.2425 168.291 75.4187 167.431 75.2585 166.601C75.0983 165.771 74.6148 165.038 73.9144 164.564C73.2141 164.09 72.3541 163.914 71.5238 164.074C70.6935 164.235 69.9608 164.718 69.487 165.418C68.2169 167.297 67.0722 169.257 66.0605 171.287C65.87 171.662 65.7556 172.071 65.7239 172.49C65.6922 172.91 65.7439 173.331 65.8759 173.731C66.0079 174.13 66.2177 174.499 66.4931 174.817C66.7686 175.135 67.1042 175.395 67.4807 175.583C67.8572 175.771 68.2671 175.882 68.6868 175.91C69.1064 175.939 69.5276 175.884 69.926 175.749C70.3243 175.614 70.692 175.401 71.0078 175.123C71.3237 174.845 71.5814 174.508 71.7661 174.13Z" fill="white"/>
<path d="M80.612 160.921C81.3706 160.92 82.1041 160.649 82.6807 160.156C84.1873 158.869 85.7782 157.683 87.4428 156.608C87.8059 156.387 88.121 156.095 88.3696 155.75C88.6181 155.404 88.795 155.013 88.8899 154.598C88.9848 154.184 88.9958 153.754 88.9221 153.335C88.8485 152.916 88.6917 152.516 88.4611 152.159C88.2305 151.802 87.9307 151.494 87.5793 151.254C87.228 151.014 86.8322 150.848 86.4153 150.763C85.9984 150.679 85.5688 150.679 85.1519 150.763C84.7349 150.847 84.3391 151.014 83.9876 151.253C82.0819 152.483 80.2609 153.84 78.537 155.314C78.0427 155.738 77.6902 156.303 77.5268 156.934C77.3634 157.564 77.397 158.229 77.623 158.84C77.849 159.451 78.2566 159.977 78.791 160.349C79.3254 160.721 79.9609 160.921 80.612 160.921Z" fill="white"/>
<path d="M94.1745 149.5C94.3779 150.146 94.782 150.711 95.3283 151.113C95.8745 151.514 96.5345 151.731 97.2122 151.731C97.5368 151.731 97.8594 151.68 98.1685 151.581C100.06 150.986 101.99 150.518 103.944 150.179C104.777 150.035 105.519 149.566 106.006 148.874C106.493 148.183 106.686 147.327 106.542 146.494C106.398 145.661 105.929 144.919 105.238 144.432C104.547 143.945 103.69 143.752 102.857 143.896C100.623 144.279 98.4162 144.812 96.2528 145.49C95.8526 145.616 95.4812 145.82 95.16 146.09C94.8388 146.36 94.574 146.691 94.3809 147.063C94.1879 147.436 94.0702 147.843 94.0348 148.261C93.9994 148.679 94.0469 149.1 94.1745 149.5Z" fill="white"/>
<path d="M65.4393 181.614C64.6104 181.45 63.7503 181.622 63.048 182.092C62.3457 182.561 61.8587 183.291 61.694 184.12C61.3752 185.643 61.1553 187.208 61.0055 188.652L60.7281 190.593C60.609 191.43 60.8271 192.28 61.3346 192.956C61.8421 193.632 62.5974 194.079 63.4343 194.198C63.5842 194.22 63.7355 194.231 63.887 194.23C64.6534 194.229 65.3936 193.951 65.9719 193.448C66.5503 192.945 66.9281 192.251 67.0362 191.492L67.3295 189.436C67.4761 188.056 67.6833 186.695 67.9478 185.363C68.0295 184.952 68.0294 184.529 67.9475 184.118C67.8656 183.707 67.7035 183.317 67.4705 182.968C67.2376 182.62 66.9382 182.321 66.5897 182.089C66.2412 181.857 65.8502 181.695 65.4393 181.614Z" fill="white"/>
<path d="M112.921 146.312C112.921 147.158 113.257 147.969 113.854 148.566C114.452 149.164 115.263 149.5 116.108 149.5H122.483C123.329 149.5 124.14 149.164 124.737 148.566C125.335 147.969 125.671 147.158 125.671 146.312C125.671 145.467 125.335 144.656 124.737 144.059C124.14 143.461 123.329 143.125 122.483 143.125H116.108C115.263 143.125 114.452 143.461 113.854 144.059C113.257 144.656 112.921 145.467 112.921 146.312Z" fill="white"/>
<path d="M200.676 149.867C202.643 150.12 204.592 150.503 206.509 151.014C207.326 151.232 208.196 151.116 208.927 150.692C209.659 150.268 210.192 149.571 210.41 148.754C210.628 147.937 210.512 147.067 210.088 146.336C209.664 145.604 208.967 145.07 208.15 144.853C205.961 144.271 203.735 143.834 201.488 143.546C201.068 143.481 200.639 143.5 200.226 143.604C199.813 143.707 199.425 143.892 199.085 144.148C198.745 144.403 198.459 144.725 198.245 145.092C198.031 145.46 197.893 145.867 197.839 146.289C197.784 146.711 197.815 147.14 197.929 147.55C198.043 147.96 198.238 148.343 198.502 148.676C198.767 149.01 199.095 149.287 199.469 149.491C199.842 149.696 200.252 149.823 200.676 149.867Z" fill="white"/>
<path d="M217.452 155.576C219.165 156.575 220.809 157.69 222.37 158.913C223.037 159.434 223.883 159.668 224.723 159.565C225.562 159.462 226.326 159.03 226.847 158.363C227.368 157.696 227.602 156.85 227.499 156.011C227.396 155.171 226.964 154.407 226.297 153.886C224.509 152.488 222.629 151.21 220.671 150.061C219.941 149.634 219.072 149.515 218.254 149.729C217.436 149.943 216.736 150.474 216.309 151.204C215.882 151.934 215.763 152.804 215.977 153.622C216.191 154.44 216.722 155.139 217.452 155.566V155.576Z" fill="white"/>
<path d="M242.742 192.114C243.581 192.022 244.349 191.602 244.878 190.944C245.408 190.287 245.655 189.447 245.566 188.607C245.322 186.353 244.931 184.117 244.396 181.914C244.298 181.506 244.121 181.121 243.874 180.781C243.627 180.442 243.316 180.154 242.957 179.935C242.599 179.717 242.201 179.571 241.786 179.506C241.372 179.442 240.948 179.46 240.54 179.559C240.133 179.659 239.749 179.838 239.41 180.086C239.072 180.334 238.786 180.647 238.568 181.006C238.351 181.365 238.207 181.764 238.144 182.179C238.081 182.594 238.101 183.017 238.203 183.425C238.671 185.354 239.014 187.312 239.229 189.286C239.32 190.125 239.741 190.894 240.398 191.423C241.055 191.953 241.896 192.2 242.735 192.111L242.742 192.114Z" fill="white"/>
<path d="M239.461 169.291C238.362 167.308 237.131 165.401 235.777 163.582C235.269 162.906 234.514 162.459 233.677 162.339C232.84 162.22 231.99 162.438 231.314 162.945C230.638 163.452 230.191 164.207 230.071 165.044C229.952 165.881 230.169 166.731 230.677 167.407C231.86 168.996 232.936 170.663 233.896 172.396C234.306 173.136 234.992 173.682 235.805 173.916C236.618 174.149 237.49 174.05 238.229 173.641C238.969 173.231 239.516 172.544 239.749 171.732C239.983 170.919 239.884 170.047 239.474 169.307L239.461 169.291Z" fill="white"/>
<path d="M247.344 201.116C247.225 200.279 246.778 199.524 246.101 199.016C245.425 198.509 244.575 198.291 243.738 198.411C242.901 198.531 242.146 198.978 241.638 199.654C241.131 200.331 240.913 201.181 241.033 202.018L241.932 208.329C242.041 209.088 242.419 209.782 242.998 210.284C243.577 210.786 244.318 211.063 245.084 211.064C245.236 211.064 245.387 211.054 245.537 211.035C245.952 210.976 246.351 210.837 246.712 210.623C247.073 210.41 247.388 210.128 247.64 209.793C247.892 209.458 248.075 209.076 248.179 208.67C248.283 208.264 248.306 207.842 248.246 207.427L247.344 201.116Z" fill="white"/>
<path d="M188.35 143.125H181.975C181.129 143.125 180.318 143.461 179.721 144.059C179.123 144.656 178.787 145.467 178.787 146.312C178.787 147.158 179.123 147.969 179.721 148.566C180.318 149.164 181.129 149.5 181.975 149.5H188.35C189.195 149.5 190.006 149.164 190.604 148.566C191.201 147.969 191.537 147.158 191.537 146.312C191.537 145.467 191.201 144.656 190.604 144.059C190.006 143.461 189.195 143.125 188.35 143.125Z" fill="white"/>
<path d="M232.944 190.332C232.024 180.883 227.614 172.117 220.576 165.745C213.539 159.373 204.378 155.854 194.885 155.875H175.6C174.755 155.875 173.944 155.539 173.346 154.941C172.749 154.344 172.413 153.533 172.413 152.688V144.336C176.793 141.783 180.628 138.391 183.696 134.355C186.764 130.318 189.007 125.716 190.295 120.812H194.725C197.259 120.805 199.687 119.795 201.479 118.003C203.27 116.212 204.28 113.784 204.288 111.25V101.688C204.283 100.35 203.997 99.029 203.448 97.8097C202.899 96.5905 202.099 95.5006 201.1 94.6113V63.4375C201.089 55.8327 198.062 48.5428 192.685 43.1654C187.308 37.788 180.018 34.7618 172.413 34.75H146.913C144.111 34.7497 141.36 35.4895 138.936 36.8944C136.512 38.2993 134.503 40.3195 133.111 42.7506C131.538 41.6919 129.684 41.1259 127.788 41.125H121.413C117.186 41.125 113.132 42.8041 110.143 45.793C107.155 48.7818 105.475 52.8356 105.475 57.0625V94.6113C104.477 95.5006 103.677 96.5905 103.128 97.8097C102.578 99.029 102.292 100.35 102.288 101.688V111.25C102.295 113.784 103.305 116.212 105.097 118.003C106.889 119.795 109.317 120.805 111.85 120.812H116.281C117.569 125.716 119.811 130.318 122.88 134.355C125.948 138.391 129.782 141.783 134.163 144.336V152.688C134.163 153.533 133.827 154.344 133.229 154.941C132.632 155.539 131.821 155.875 130.975 155.875H111.691C102.228 155.842 93.0922 159.332 86.0624 165.667C79.0327 172.001 74.6129 180.726 73.6641 190.141L70.4448 209.553C70.38 210.01 70.4118 210.476 70.5381 210.921C70.6643 211.366 70.8823 211.779 71.1779 212.134C71.4787 212.482 71.8505 212.762 72.2683 212.955C72.6862 213.147 73.1404 213.248 73.6004 213.25H232.975C233.435 213.248 233.89 213.147 234.307 212.955C234.725 212.762 235.097 212.482 235.398 212.134C235.693 211.779 235.911 211.366 236.038 210.921C236.164 210.476 236.196 210.01 236.131 209.553L232.944 190.332ZM197.913 101.688V111.25C197.913 112.095 197.577 112.906 196.979 113.504C196.382 114.102 195.571 114.438 194.725 114.438H191.379C191.474 113.386 191.538 112.334 191.538 111.25V98.5H194.725C195.571 98.5 196.382 98.8358 196.979 99.4336C197.577 100.031 197.913 100.842 197.913 101.688ZM111.85 114.438C111.005 114.438 110.194 114.102 109.596 113.504C108.999 112.906 108.663 112.095 108.663 111.25V101.688C108.663 100.842 108.999 100.031 109.596 99.4336C110.194 98.8358 111.005 98.5 111.85 98.5H115.038V111.25C115.038 112.334 115.102 113.386 115.197 114.438H111.85ZM115.038 82.5625V92.125H111.85V57.0625C111.858 54.5287 112.868 52.1008 114.66 50.3091C116.451 48.5175 118.879 47.5076 121.413 47.5H127.788C128.633 47.5 129.444 47.8358 130.042 48.4336C130.64 49.0314 130.975 49.8421 130.975 50.6875C130.975 51.5329 131.311 52.3436 131.909 52.9414C132.507 53.5392 133.318 53.875 134.163 53.875C135.008 53.875 135.819 53.5392 136.417 52.9414C137.015 52.3436 137.35 51.5329 137.35 50.6875C137.358 48.1537 138.368 45.7258 140.16 43.9341C141.951 42.1425 144.379 41.1326 146.913 41.125H172.413C178.328 41.1317 184 43.4847 188.183 47.6676C192.366 51.8506 194.719 57.5219 194.725 63.4375V92.125H191.538V82.5625C191.538 78.3356 189.859 74.2818 186.87 71.293C183.881 68.3041 179.827 66.625 175.6 66.625H130.975C126.749 66.625 122.695 68.3041 119.706 71.293C116.717 74.2818 115.038 78.3356 115.038 82.5625ZM121.413 111.25V82.5625C121.42 80.0287 122.43 77.6008 124.222 75.8092C126.014 74.0175 128.442 73.0076 130.975 73H175.6C178.134 73.0076 180.562 74.0175 182.354 75.8092C184.145 77.6008 185.155 80.0287 185.163 82.5625V111.25C185.163 119.704 181.805 127.811 175.827 133.789C169.849 139.767 161.742 143.125 153.288 143.125C144.834 143.125 136.727 139.767 130.749 133.789C124.771 127.811 121.413 119.704 121.413 111.25ZM171.552 161.326C170.393 165.272 167.988 168.736 164.695 171.201C161.403 173.665 157.401 174.997 153.288 174.997C149.175 174.997 145.173 173.665 141.881 171.201C138.588 168.736 136.182 165.272 135.024 161.326C136.668 160.557 138.059 159.337 139.036 157.808C140.012 156.278 140.533 154.502 140.538 152.688V147.269C148.778 150.244 157.798 150.244 166.038 147.269V152.688C166.043 154.502 166.564 156.278 167.54 157.808C168.517 159.337 169.908 160.557 171.552 161.326ZM197.913 206.875V197.312C197.913 196.467 197.577 195.656 196.979 195.059C196.382 194.461 195.571 194.125 194.725 194.125C193.88 194.125 193.069 194.461 192.471 195.059C191.874 195.656 191.538 196.467 191.538 197.312V206.875H115.038V197.312C115.038 196.467 114.702 195.656 114.104 195.059C113.507 194.461 112.696 194.125 111.85 194.125C111.005 194.125 110.194 194.461 109.596 195.059C108.999 195.656 108.663 196.467 108.663 197.312V206.875H77.3616L79.9754 190.969C80.7387 183.094 84.4122 175.786 90.2775 170.474C96.1428 165.163 103.778 162.231 111.691 162.25H128.649C130.048 167.722 133.23 172.572 137.691 176.035C142.153 179.499 147.64 181.379 153.288 181.379C158.936 181.379 164.423 179.499 168.884 176.035C173.346 172.572 176.527 167.722 177.927 162.25H194.885C202.826 162.239 210.485 165.199 216.354 170.549C222.223 175.899 225.878 183.252 226.6 191.161L229.214 206.875H197.913Z" fill="white"/>
<path d="M178.421 28.8881C180.34 29.2184 182.227 29.7099 184.063 30.3575C184.861 30.6386 185.737 30.5913 186.5 30.2261C187.263 29.8608 187.849 29.2075 188.13 28.4099C188.411 27.6123 188.364 26.7357 187.999 25.9729C187.634 25.2102 186.98 24.6238 186.183 24.3427C184.009 23.5775 181.776 22.9964 179.505 22.6055C178.672 22.4618 177.816 22.6549 177.125 23.1424C176.434 23.6299 175.966 24.3718 175.822 25.2049C175.678 26.038 175.871 26.8941 176.359 27.5848C176.846 28.2756 177.588 28.7443 178.421 28.8881Z" fill="white"/>
<path d="M206.541 55.3509C206.705 56.0495 207.101 56.6722 207.663 57.1182C208.225 57.5642 208.921 57.8074 209.639 57.8084C209.886 57.8095 210.132 57.7806 210.372 57.7224C211.193 57.5284 211.904 57.0169 212.348 56.2999C212.793 55.5829 212.935 54.719 212.744 53.8974C212.215 51.653 211.498 49.4574 210.599 47.3343C210.252 46.582 209.627 45.994 208.854 45.6949C208.082 45.3958 207.224 45.409 206.461 45.7317C205.698 46.0545 205.091 46.6614 204.768 47.424C204.445 48.1866 204.432 49.045 204.73 49.8174C205.486 51.6086 206.091 53.4595 206.541 55.3509Z" fill="white"/>
<path d="M198.486 39.9967C199.055 40.6107 199.842 40.9764 200.678 41.0149C201.514 41.0534 202.332 40.7616 202.954 40.2025C203.577 39.6435 203.955 38.862 204.006 38.0267C204.058 37.1915 203.779 36.3695 203.229 35.7382C201.692 34.0232 200.012 32.4409 198.209 31.008C197.546 30.4999 196.711 30.2722 195.882 30.3738C195.053 30.4754 194.297 30.8983 193.776 31.5515C193.256 32.2046 193.013 33.0359 193.099 33.8665C193.185 34.6972 193.594 35.4608 194.237 35.9932C195.762 37.2082 197.183 38.5473 198.486 39.9967Z" fill="white"/>
<path d="M195.193 140.288C196.182 138.87 197.096 137.402 197.931 135.889C198.139 135.523 198.273 135.119 198.323 134.7C198.374 134.282 198.341 133.857 198.227 133.452C198.113 133.046 197.919 132.667 197.657 132.336C197.395 132.006 197.071 131.731 196.702 131.527C196.333 131.323 195.927 131.194 195.508 131.148C195.089 131.102 194.665 131.139 194.261 131.258C193.857 131.377 193.48 131.574 193.152 131.84C192.825 132.105 192.553 132.433 192.353 132.804C191.622 134.125 190.824 135.408 189.962 136.648C189.71 136.991 189.528 137.381 189.429 137.795C189.329 138.209 189.314 138.639 189.383 139.059C189.453 139.479 189.606 139.881 189.833 140.241C190.061 140.601 190.358 140.912 190.708 141.155C191.057 141.399 191.452 141.569 191.869 141.658C192.285 141.746 192.715 141.75 193.133 141.669C193.552 141.588 193.949 141.424 194.303 141.187C194.657 140.95 194.959 140.644 195.193 140.288Z" fill="white"/>
<path d="M210.662 105.194V111.521C210.656 111.939 210.732 112.355 210.887 112.744C211.041 113.133 211.271 113.488 211.562 113.789C211.854 114.089 212.202 114.329 212.586 114.495C212.97 114.661 213.384 114.75 213.802 114.756H213.85C214.687 114.756 215.491 114.427 216.087 113.839C216.684 113.252 217.025 112.453 217.037 111.616V105.194C217.037 104.348 216.702 103.537 216.104 102.94C215.506 102.342 214.695 102.006 213.85 102.006C213.005 102.006 212.194 102.342 211.596 102.94C210.998 103.537 210.662 104.348 210.662 105.194Z" fill="white"/>
<path d="M211.57 120.847C211.246 120.583 210.872 120.385 210.472 120.265C210.071 120.144 209.65 120.104 209.233 120.146C208.817 120.189 208.413 120.313 208.044 120.511C207.676 120.71 207.35 120.979 207.085 121.303C205.963 122.683 204.62 123.868 203.111 124.809C202.755 125.03 202.446 125.319 202.202 125.659C201.957 125.999 201.782 126.383 201.687 126.791C201.591 127.198 201.577 127.621 201.644 128.034C201.712 128.447 201.86 128.843 202.081 129.199C202.302 129.554 202.59 129.863 202.93 130.108C203.27 130.352 203.655 130.527 204.062 130.622C204.47 130.718 204.892 130.732 205.306 130.665C205.719 130.597 206.114 130.449 206.47 130.228C208.58 128.919 210.458 127.267 212.026 125.342C212.292 125.017 212.491 124.643 212.612 124.241C212.734 123.839 212.774 123.418 212.732 123C212.689 122.582 212.565 122.177 212.366 121.808C212.166 121.438 211.896 121.112 211.57 120.847Z" fill="white"/>
<path d="M159.872 28.375H166.247C167.092 28.375 167.903 28.0392 168.501 27.4414C169.099 26.8436 169.435 26.0329 169.435 25.1875C169.435 24.3421 169.099 23.5314 168.501 22.9336C167.903 22.3358 167.092 22 166.247 22H159.872C159.027 22 158.216 22.3358 157.618 22.9336C157.02 23.5314 156.685 24.3421 156.685 25.1875C156.685 26.0329 157.02 26.8436 157.618 27.4414C158.216 28.0392 159.027 28.375 159.872 28.375Z" fill="white"/>
<path d="M210.519 83.235C210.102 83.2787 209.698 83.4041 209.33 83.6041C208.962 83.804 208.637 84.0745 208.374 84.4001C208.11 84.7258 207.913 85.1001 207.795 85.5018C207.676 85.9035 207.638 86.3247 207.682 86.7412C207.93 89.0109 208.347 91.259 208.928 93.4669C209.105 94.1503 209.505 94.7557 210.063 95.1878C210.621 95.6199 211.308 95.8543 212.014 95.8543C212.283 95.8541 212.552 95.8209 212.814 95.7555C213.219 95.6508 213.6 95.4672 213.935 95.2152C214.269 94.9632 214.551 94.6478 214.763 94.2869C214.976 93.9261 215.115 93.5269 215.173 93.1122C215.231 92.6975 215.207 92.2753 215.102 91.8699C214.597 89.9671 214.236 88.0289 214.022 86.0719C213.933 85.2311 213.515 84.46 212.858 83.9279C212.201 83.3959 211.359 83.1467 210.519 83.235Z" fill="white"/>
<path d="M207.475 67.2879V73.6629C207.475 74.5082 207.81 75.319 208.408 75.9168C209.006 76.5146 209.817 76.8504 210.662 76.8504C211.507 76.8504 212.318 76.5146 212.916 75.9168C213.514 75.319 213.85 74.5082 213.85 73.6629V67.2879C213.85 66.4425 213.514 65.6317 212.916 65.0339C212.318 64.4362 211.507 64.1003 210.662 64.1003C209.817 64.1003 209.006 64.4362 208.408 65.0339C207.81 65.6317 207.475 66.4425 207.475 67.2879Z" fill="white"/>
<path d="M140.805 29.1146C141.064 29.1153 141.322 29.0842 141.573 29.0221C143.383 28.5792 145.24 28.3618 147.103 28.3751C147.518 28.3756 147.929 28.293 148.311 28.1319C148.693 27.9708 149.039 27.7347 149.328 27.4374C149.617 27.1402 149.844 26.7878 149.995 26.4014C150.145 26.0149 150.217 25.6021 150.205 25.1875C150.181 24.3313 149.824 23.5182 149.208 22.9224C148.593 22.3267 147.768 21.9956 146.912 22H146.89C144.581 22.0001 142.281 22.2794 140.04 22.832C139.283 23.0182 138.621 23.4749 138.179 24.1158C137.736 24.7567 137.544 25.5375 137.637 26.3107C137.731 27.084 138.105 27.7961 138.688 28.3127C139.271 28.8292 140.023 29.1145 140.802 29.1146H140.805Z" fill="white"/>
<path d="M112.783 129.977C112.606 129.597 112.357 129.256 112.048 128.973C111.74 128.689 111.378 128.47 110.985 128.326C110.592 128.183 110.174 128.118 109.755 128.136C109.337 128.154 108.926 128.254 108.547 128.431C108.167 128.607 107.826 128.857 107.543 129.165C107.26 129.474 107.04 129.835 106.896 130.229C106.753 130.622 106.688 131.04 106.706 131.458C106.724 131.876 106.824 132.287 107.001 132.667C107.955 134.72 109.042 136.709 110.255 138.621C110.71 139.334 111.429 139.837 112.255 140.019C113.08 140.201 113.944 140.048 114.657 139.593C115.37 139.138 115.873 138.419 116.055 137.594C116.237 136.768 116.084 135.904 115.629 135.191C114.567 133.517 113.616 131.775 112.783 129.977Z" fill="white"/>
<path d="M95.9121 75.7221C96.7575 75.7221 97.5682 75.3863 98.166 74.7885C98.7638 74.1908 99.0996 73.38 99.0996 72.5346V66.1597C99.0996 65.3143 98.7638 64.5035 98.166 63.9058C97.5682 63.308 96.7575 62.9722 95.9121 62.9722C95.0667 62.9722 94.256 63.308 93.6582 63.9058C93.0604 64.5035 92.7246 65.3143 92.7246 66.1597V72.5346C92.7246 73.38 93.0604 74.1908 93.6582 74.7885C94.256 75.3863 95.0667 75.7221 95.9121 75.7221Z" fill="white"/>
<path d="M92.7246 111.362C93.57 111.362 94.3807 111.026 94.9785 110.428C95.5763 109.83 95.9121 109.019 95.9121 108.174V101.799C95.9121 100.954 95.5763 100.143 94.9785 99.5452C94.3807 98.9474 93.57 98.6116 92.7246 98.6116C91.8792 98.6116 91.0685 98.9474 90.4707 99.5452C89.8729 100.143 89.5371 100.954 89.5371 101.799V108.174C89.5371 109.019 89.8729 109.83 90.4707 110.428C91.0685 111.026 91.8792 111.362 92.7246 111.362Z" fill="white"/>
<path d="M123.245 34.7502H127.787C128.28 34.746 128.773 34.7695 129.263 34.8203C129.382 34.833 129.501 34.8394 129.62 34.8394C130.431 34.8331 131.208 34.5181 131.795 33.9586C132.382 33.3991 132.733 32.6371 132.778 31.8277C132.822 31.0183 132.557 30.2223 132.036 29.6016C131.514 28.9809 130.776 28.5823 129.971 28.4867C129.246 28.4075 128.517 28.3703 127.787 28.3752H123.245C122.4 28.3752 121.589 28.711 120.991 29.3088C120.393 29.9066 120.058 30.7173 120.058 31.5627C120.058 32.4081 120.393 33.2188 120.991 33.8166C121.589 34.4144 122.4 34.7502 123.245 34.7502Z" fill="white"/>
<path d="M95.9121 94.8472C96.7575 94.8472 97.5682 94.5113 98.166 93.9136C98.7638 93.3158 99.0996 92.505 99.0996 91.6597V85.2847C99.0996 84.4393 98.7638 83.6285 98.166 83.0308C97.5682 82.433 96.7575 82.0972 95.9121 82.0972C95.0667 82.0972 94.256 82.433 93.6582 83.0308C93.0604 83.6285 92.7246 84.4393 92.7246 85.2847V91.6597C92.7246 92.505 93.0604 93.3158 93.6582 93.9136C94.256 94.5113 95.0667 94.8472 95.9121 94.8472Z" fill="white"/>
<path d="M105.423 40.3855C106.15 40.3854 106.855 40.1369 107.421 39.681C108.875 38.5115 110.47 37.5285 112.167 36.7549C112.548 36.5808 112.891 36.3333 113.176 36.0268C113.461 35.7202 113.683 35.3605 113.829 34.9682C113.975 34.5758 114.042 34.1586 114.027 33.7402C114.012 33.3218 113.915 32.9106 113.74 32.5299C113.566 32.1492 113.319 31.8065 113.012 31.5214C112.706 31.2363 112.346 31.0144 111.954 30.8683C111.561 30.7222 111.144 30.6549 110.726 30.6701C110.307 30.6853 109.896 30.7827 109.515 30.9568C107.341 31.9525 105.299 33.2149 103.437 34.7149C102.923 35.1287 102.55 35.6919 102.369 36.3267C102.189 36.9615 102.21 37.6367 102.43 38.259C102.65 38.8813 103.057 39.4201 103.596 39.801C104.135 40.1819 104.779 40.3861 105.439 40.3855H105.423Z" fill="white"/>
<path d="M95.7173 56.578C96.5538 56.6972 97.4033 56.4795 98.0793 55.9727C98.7553 55.4658 99.2024 54.7113 99.3224 53.875C99.588 52.0325 100.083 50.2303 100.795 48.5104C100.966 48.122 101.058 47.7034 101.065 47.2792C101.072 46.8549 100.994 46.4335 100.836 46.0397C100.678 45.6458 100.443 45.2875 100.144 44.9858C99.8461 44.684 99.4906 44.4448 99.0986 44.2822C98.7067 44.1197 98.2862 44.037 97.8619 44.0391C97.4375 44.0412 97.0179 44.128 96.6275 44.2944C96.2372 44.4608 95.884 44.7035 95.5887 45.0082C95.2934 45.3129 95.0618 45.6735 94.9077 46.0688C93.989 48.2815 93.3529 50.6011 93.0143 52.9729C92.8951 53.8094 93.1128 54.6589 93.6197 55.3349C94.1265 56.0109 94.881 56.458 95.7173 56.578Z" fill="white"/>
<path d="M93.5687 117.727C93.2026 117.93 92.8801 118.203 92.6196 118.531C92.3591 118.859 92.1658 119.235 92.0506 119.638C91.9355 120.04 91.9008 120.462 91.9485 120.878C91.9962 121.294 92.1254 121.696 92.3288 122.062C93.5345 124.232 95.0932 126.186 96.9411 127.844C97.57 128.409 98.3977 128.701 99.2421 128.656C100.086 128.611 100.878 128.233 101.443 127.604C102.009 126.975 102.301 126.147 102.256 125.303C102.21 124.458 101.832 123.666 101.203 123.101C99.8796 121.914 98.7646 120.513 97.9037 118.957C97.4918 118.22 96.8038 117.676 95.9909 117.445C95.178 117.214 94.3068 117.316 93.5687 117.727Z" fill="white"/>
<path d="M143.725 98.5001V95.523C145.429 94.5466 146.998 93.3506 148.391 91.9658L149.166 91.1912C149.746 90.59 150.068 89.7849 150.06 88.9491C150.053 88.1134 149.718 87.3139 149.127 86.7229C148.536 86.1319 147.736 85.7967 146.901 85.7894C146.065 85.7822 145.26 86.1034 144.659 86.6841L143.884 87.4586C142.408 88.9428 140.652 90.1194 138.717 90.9204C136.783 91.7214 134.71 92.1309 132.616 92.1251H130.975C130.129 92.1251 129.318 92.461 128.721 93.0587C128.123 93.6565 127.787 94.4673 127.787 95.3126C127.787 96.158 128.123 96.9688 128.721 97.5665C129.318 98.1643 130.129 98.5001 130.975 98.5001H132.616C134.208 98.4963 135.795 98.3232 137.35 97.9838V98.5001C137.35 99.3455 137.685 100.156 138.283 100.754C138.881 101.352 139.692 101.688 140.537 101.688C141.382 101.688 142.193 101.352 142.791 100.754C143.389 100.156 143.725 99.3455 143.725 98.5001Z" fill="white"/>
<path d="M160.051 132.084L160.596 132.629C161.197 133.209 162.002 133.531 162.838 133.523C163.674 133.516 164.473 133.181 165.064 132.59C165.655 131.999 165.99 131.199 165.998 130.364C166.005 129.528 165.684 128.723 165.103 128.122L164.558 127.576C163.078 126.096 161.321 124.922 159.387 124.121C157.453 123.319 155.38 122.907 153.287 122.907C151.194 122.907 149.121 123.319 147.187 124.121C145.253 124.922 143.496 126.096 142.016 127.576L141.471 128.122C140.89 128.723 140.569 129.528 140.576 130.364C140.584 131.199 140.919 131.999 141.51 132.59C142.101 133.181 142.9 133.516 143.736 133.523C144.572 133.531 145.377 133.209 145.978 132.629L146.523 132.084C147.411 131.195 148.466 130.49 149.626 130.009C150.787 129.528 152.031 129.281 153.287 129.281C154.543 129.281 155.787 129.528 156.948 130.009C158.108 130.49 159.163 131.195 160.051 132.084Z" fill="white"/>
<path d="M147.588 116.398C147.886 116.78 148.267 117.089 148.703 117.301C149.138 117.514 149.616 117.625 150.1 117.625H156.475C157.32 117.625 158.131 117.289 158.729 116.691C159.327 116.093 159.663 115.283 159.663 114.437C159.663 113.592 159.327 112.781 158.729 112.183C158.131 111.586 157.32 111.25 156.475 111.25H154.183L156.379 102.462C156.485 102.055 156.508 101.631 156.449 101.215C156.389 100.798 156.248 100.398 156.033 100.036C155.818 99.675 155.534 99.3596 155.197 99.1085C154.859 98.8574 154.476 98.6755 154.068 98.5733C153.66 98.4711 153.236 98.4507 152.82 98.5131C152.404 98.5755 152.005 98.7196 151.645 98.9371C151.285 99.1546 150.972 99.4411 150.723 99.7802C150.474 100.119 150.295 100.504 150.196 100.913L147.008 113.663C146.891 114.133 146.882 114.623 146.982 115.097C147.083 115.571 147.29 116.016 147.588 116.398Z" fill="white"/>
</svg>
