<svg width="332" height="448" viewBox="0 0 332 448" fill="none" xmlns="http://www.w3.org/2000/svg">
<rect y="0.586426" width="332" height="446.827" rx="12" fill="white"/>
<path d="M237.066 11.2812C239.746 9.68195 243.365 13.2136 241.632 16.0788C240.713 18.7516 236.624 18.722 235.565 16.2047C234.71 14.4796 235.39 12.1178 237.066 11.2812Z" fill="#F4515E"/>
<path d="M62.4784 17.9601C66.3008 16.9236 70.046 21.166 69.1132 25.127C68.3697 29.3472 62.8992 31.3536 59.9184 28.3328C56.3415 25.4602 58.0669 18.6857 62.4784 17.9601Z" fill="#F2515C"/>
<path d="M38.6894 18.714C40.7864 17.7145 43.143 19.8024 42.4557 22.1494C42.0629 24.7629 38.1073 25.0147 37.2656 22.6528C36.7817 21.2313 37.1324 19.1879 38.6894 18.714Z" fill="#F3505D"/>
<path d="M117.871 18.6993C119.134 18.218 120.649 19.0399 120.2 20.6095C120.256 22.3271 117.864 22.5715 117.135 21.3128C116.342 20.5872 116.959 18.9066 117.871 18.6993Z" fill="#F14E5B"/>
<path d="M102.541 21.6988C104.792 20.3068 107.969 22.4317 107.738 25.1711C107.934 27.9476 104.757 29.9762 102.484 28.6287C99.8123 27.4663 99.8754 22.8241 102.541 21.6988Z" fill="#971B30"/>
<path d="M216.644 24.1494C217.107 24.216 218.04 24.3493 218.509 24.416C218.944 25.3488 218.145 26.2965 218.004 27.222C218.685 27.1035 220.045 26.8814 220.726 26.763C220.564 27.5329 220.249 29.0729 220.088 29.8355C220.719 29.2432 221.35 28.6435 221.981 28.0438L222.044 28.3844C222.114 28.7916 222.262 29.606 222.332 30.0132C222.739 30.1539 223.559 30.4204 223.973 30.5611C222.963 30.7462 222.465 31.2941 222.479 32.2047C223.37 32.4491 224.099 32.1455 224.674 31.2867L224.864 31.9678C224.962 32.3824 225.165 33.2043 225.27 33.6115C225.677 33.6041 226.498 33.5967 226.905 33.5967C226.947 33.7818 227.024 34.1519 227.066 34.3444C225.832 34.5518 224.597 34.7887 223.37 35.0552C224.997 36.3435 226.968 35.7067 228.763 35.2477C228.749 35.8474 228.714 37.0616 228.693 37.6687C227.683 37.3134 226.729 36.5952 225.628 36.6544C224.464 37.691 226.175 38.8756 226.61 39.8307C225.453 39.1273 224.211 38.5794 222.865 38.5054C224.141 40.0009 225.789 41.1041 227.767 41.1041C227.354 41.7853 226.94 42.459 226.533 43.1327C225.628 42.385 225.018 40.6081 223.692 40.8154C222.185 41.5705 224.12 42.7848 224.296 43.7547C223.11 42.9477 222.023 42 220.845 41.193C221.56 42.9106 222.654 44.3914 223.671 45.9166C223.11 46.3756 222.528 46.7976 221.953 47.227C222.044 45.5908 221.343 41.4595 219.477 44.3174C219.751 44.6431 220.298 45.2873 220.571 45.613C220.088 45.6426 219.611 45.6797 219.134 45.7167C219.106 44.5173 218.909 43.3475 217.885 42.6441C217.724 44.4802 218.047 46.2794 218.573 48.0193C217.78 47.9008 216.995 47.7749 216.209 47.6491C216.651 46.5163 217.016 45.3465 217.303 44.1545C216.202 43.9027 215.143 43.4955 214.161 42.9254C213.565 44.1249 213.158 45.4131 212.864 46.731C212.19 46.3386 211.524 45.9536 210.858 45.5538C211.84 44.6579 212.807 43.7547 213.761 42.8218C213.2 42.6219 212.078 42.2295 211.517 42.0296C211.44 42.4812 211.286 43.3845 211.208 43.8361C209.862 42.7774 211.412 41.3114 211.847 40.2305C212.576 39.5863 213.298 38.9348 214.007 38.2536C212.885 38.5794 211.762 38.9126 210.731 39.4901C209.245 38.6757 208.992 37.6687 209.981 36.4767C208.796 36.5434 207.624 36.7285 206.495 37.0913C206.411 36.3583 206.334 35.6327 206.257 34.8997C207.54 35.2477 208.873 35.5291 210.191 35.1811C211.307 35.2403 212.513 35.0922 213.544 35.6549C214.757 36.9654 215.452 39.0162 217.247 39.5863C218.916 38.8534 220.382 37.7058 221.89 36.6692C221.217 35.344 220.564 34.0113 219.947 32.6564C219.042 32.3084 218.145 31.953 217.247 31.605L217.254 31.0942C217.563 28.7472 217.135 26.4298 216.644 24.1494Z" fill="#B21431"/>
<path d="M211.601 25.7683C212.204 25.6202 212.807 25.4795 213.417 25.3389C213.466 26.2643 213.523 27.1972 213.579 28.1301L213.193 28.2856C212.506 27.8932 211.825 27.4786 211.166 27.0417C211.271 26.7234 211.489 26.0866 211.601 25.7683Z" fill="#DF293D"/>
<path d="M221.841 25.3679C222.9 25.5752 223.896 26.012 224.289 27.1448C223.819 27.3966 222.872 27.8926 222.402 28.1443C223.159 28.6034 223.938 29.018 224.73 29.4104C224.751 29.7732 224.801 30.4914 224.822 30.8541C225.488 30.2618 226.231 29.8398 227.059 29.5955C227.36 30.3063 227.655 31.0318 227.929 31.7722C226.905 31.8685 225.881 31.9351 224.864 31.9647L224.674 31.2836L224.534 30.7505L223.973 30.558C223.559 30.4173 222.739 30.1508 222.332 30.0101C222.262 29.6029 222.114 28.7885 222.044 28.3813C221.995 27.6261 221.89 26.1157 221.841 25.3679Z" fill="#DF293D"/>
<path d="M92.2307 32.9C93.8018 32.4336 94.987 33.7663 95.983 34.825C94.7907 35.7949 93.6545 36.9203 92.2448 37.5274C91.9923 37.5792 91.5013 37.6829 91.2559 37.7347C91.4943 37.0091 91.7398 36.291 91.9853 35.5654C91.8871 34.6399 91.9712 33.7514 92.2307 32.9Z" fill="#DF293D"/>
<path d="M296.05 74.0338C297.425 74.2707 298.154 72.9528 298.926 72.0051C299.08 73.0343 299.263 74.0634 299.466 75.0851C297.902 74.3595 298.365 77.0027 299.592 75.7292L300.083 75.4997C300.279 76.1661 300.483 76.8398 300.686 77.5061C300.055 77.4025 298.793 77.1952 298.161 77.0915C298.218 77.6246 298.316 78.6834 298.372 79.209C297.558 78.9721 296.752 78.7278 295.952 78.4909C296.639 77.3433 297.369 76.2105 297.762 74.9C297.509 74.9148 296.997 74.937 296.738 74.9444C296.562 75.1814 296.212 75.6552 296.043 75.8921C295.63 75.9143 294.816 75.9662 294.409 75.9884C294.97 75.3813 295.132 74.1448 296.05 74.0338Z" fill="#DF293D"/>
<path d="M63.285 76.804C64.323 77.0335 65.2488 77.5147 65.7608 78.5438C64.863 79.1954 63.9793 79.8839 63.3621 80.8538C64.4001 80.9131 65.4311 80.9649 66.4621 81.0019C66.1956 81.6608 66.3078 83.0972 65.2768 82.4308C64.33 81.7867 63.4323 81.0759 62.5205 80.3726C62.773 79.1806 63.0255 77.996 63.285 76.804Z" fill="#DF293D"/>
<path d="M60.971 91.6919C61.4409 92.3508 61.9108 93.0172 62.3737 93.6909C62.549 96.0897 63.7624 98.1184 65.7191 99.3548C64.8424 99.8879 63.9377 100.384 63.0189 100.828C62.7314 99.3844 63.0189 97.5853 61.7845 96.5636C61.4269 96.7635 60.7045 97.1707 60.3468 97.3706C60.7536 98.0666 61.1603 98.7625 61.5671 99.4659C61.0972 99.5251 60.1574 99.6584 59.6875 99.7176C59.7156 98.8588 59.7436 97.9999 59.7576 97.1411C60.3608 96.8449 60.9569 96.5488 61.5601 96.2526C61.3567 94.7349 61.1603 93.2097 60.971 91.6919Z" fill="#DF293D"/>
<path d="M296.317 118.592C297.72 118.258 299.144 117.955 300.568 117.696C300.42 118.666 300.28 119.643 300.126 120.62C298.983 120.043 297.825 119.48 296.717 118.836L296.317 118.592Z" fill="#DF293D"/>
<path d="M18.1533 136.944C19.044 137.144 19.9348 137.351 20.8255 137.544C21.1621 137.455 21.8354 137.277 22.1721 137.181C23.161 137.388 24.1499 137.588 25.1388 137.796C24.9354 138.077 24.5286 138.647 24.3252 138.928C23.6449 138.869 22.9646 138.81 22.2843 138.758C22.2843 139.75 22.2913 140.75 22.2843 141.757C23.4415 140.883 24.8021 140.542 26.1908 140.387C25.3913 141.105 24.5777 141.801 23.7501 142.49C22.4456 143.148 21.2884 144.044 20.2223 145.073C19.8085 144.326 19.4298 143.556 19.1001 142.763C19.8646 142.652 21.4076 142.43 22.1791 142.319C21.5619 141.734 20.9237 141.172 20.2854 140.624C20.7904 139.883 21.3024 139.143 21.8144 138.403C20.7133 138.721 19.6191 139.069 18.5391 139.439C18.4058 138.61 18.2796 137.773 18.1533 136.944Z" fill="#DF293D"/>
<path d="M25.3072 144.621C25.9103 143.695 26.4855 142.763 27.0536 141.822C27.1658 143.244 27.285 144.665 27.4323 146.087C27.4814 146.538 27.5726 147.434 27.6217 147.879C27.2079 147.849 26.3732 147.79 25.9594 147.76C26.2821 146.775 26.7169 145.791 26.6748 144.725C25.4124 145.761 25.3072 147.442 25.0617 148.974C24.3113 148.686 23.5889 148.338 22.8945 147.93C23.645 146.783 24.5567 145.761 25.3072 144.621Z" fill="#DF293D"/>
<path d="M36.3118 142.009C37.476 142.46 38.6543 142.89 39.8256 143.327C39.3977 143.971 38.9839 144.63 38.4509 145.192C37.455 144.482 36.7116 143.475 36.0312 142.453L36.3118 142.009Z" fill="#DF293D"/>
<path d="M253.275 27.9849C254.377 26.8151 255.73 25.9192 257.371 26.3116C258.409 27.9404 257.154 29.9247 257.357 31.7164L257.617 32.2791C259.139 34.3225 259.181 36.899 258.963 39.3793C258.655 39.4608 258.038 39.6236 257.729 39.7051C257.273 38.4464 256.817 37.1952 256.347 35.9514C256.698 32.8566 255.632 29.8876 253.275 27.9849Z" fill="#F21B42"/>
<path d="M263.326 26.3633C264.742 26.4521 266.58 26.1708 267.555 27.5553C267.702 29.4655 265.647 30.4576 264.763 31.9013C264.644 32.0494 264.399 32.3456 264.28 32.4936C264.076 34.463 263.873 36.4399 263.501 38.3796C263.024 38.2538 262.077 37.9946 261.607 37.8614C261.951 36.8248 262.302 35.7957 262.666 34.7666C263.943 32.116 264.273 29.1989 263.326 26.3633Z" fill="#F21837"/>
<path d="M213.579 28.132C214.498 27.6803 215.402 27.1843 216.286 26.6438C216.3 27.1769 216.328 28.2504 216.342 28.7835L217.114 29.4572C217.149 29.8644 217.219 30.6789 217.254 31.0935L217.247 31.6043C218.145 31.9523 219.042 32.3077 219.947 32.6557C220.564 34.0106 221.216 35.3433 221.89 36.6685C220.382 37.7051 218.916 38.8527 217.247 39.5856C215.451 39.0155 214.757 36.9647 213.544 35.6542C212.513 35.0915 211.306 35.2396 210.191 35.1804L209.041 33.6774C209.392 33.6108 210.107 33.4775 210.465 33.4109C211.664 33.5145 212.849 33.7292 214.042 33.9291C213.2 32.7964 212.365 31.6562 211.615 30.4493C211.741 30.1014 211.994 29.4054 212.12 29.0574C212.555 29.361 213.424 29.9755 213.859 30.2791C213.635 29.6127 213.41 28.9538 213.193 28.2874L213.579 28.132ZM216.77 34.2327C215.76 34.9731 216.882 36.8684 217.92 36.0244C218.93 35.2914 217.801 33.3961 216.77 34.2327Z" fill="#911428"/>
<path d="M210.639 28.8364C211.067 28.7253 211.937 28.518 212.365 28.407L212.119 29.0585C211.993 29.4065 211.74 30.1025 211.614 30.4504C212.365 31.6573 213.199 32.7974 214.041 33.9302C212.848 33.7303 211.663 33.5156 210.464 33.412C210.106 33.4786 209.391 33.6119 209.04 33.6785C208.774 33.7229 208.241 33.8192 207.974 33.871C208.619 32.9973 209.538 32.4495 210.436 31.909C209.412 31.7461 208.395 31.5758 207.378 31.3907C207.715 30.5171 208.135 29.6804 208.64 28.903C209.412 29.7915 210.197 30.68 211.025 31.5314C210.899 30.6281 210.765 29.7323 210.639 28.8364Z" fill="#E62F44"/>
<path d="M53.7119 95.5818C54.4694 94.1973 55.4583 92.9757 56.4823 91.8059C56.2158 93.5162 55.9142 95.219 55.6196 96.9293C56.1877 96.9811 57.3379 97.0848 57.906 97.1366C57.8569 95.1894 58.1024 93.2496 58.5372 91.3542L59.1123 92.4722C59.1755 93.5458 59.1755 94.6267 59.1825 95.7077C58.7617 97.7289 58.958 99.7724 59.4911 101.757C58.5583 101.72 57.6255 101.697 56.6927 101.705C57.1906 100.305 57.7587 98.8987 57.8219 97.3883C57.4081 97.3661 56.5664 97.3143 56.1526 97.2847C56.1877 98.2102 56.7207 99.5206 55.3461 99.6391C54.1117 98.8691 55.3671 97.1662 55.2619 96.0112C53.7891 97.1144 53.4033 98.8321 53.4594 100.661C52.4214 100.328 51.4536 99.802 50.8574 98.8099C52.0918 98.0325 53.1368 96.9959 53.7119 95.5818Z" fill="#E62F44"/>
<path d="M292.901 106.8C293.925 107.088 294.802 107.681 295.503 108.517C294.704 109.235 293.904 109.946 293.105 110.642C294.353 110.746 295.714 110.753 296.675 111.775C296.212 111.938 295.286 112.256 294.823 112.412C294.045 111.731 293.301 111.02 292.551 110.316C292.656 109.139 292.768 107.969 292.901 106.8Z" fill="#E62F44"/>
<path d="M259.517 30.879C258.171 28.7319 261.467 28.4284 262.765 29.0651C263.073 29.9165 262.779 30.7606 262.512 31.5676C261.509 31.3307 260.513 31.1011 259.517 30.879Z" fill="#FF5863"/>
<path d="M40.9054 120.109C46.7266 117.562 53.8804 122.915 53.5648 129.527C53.67 133.628 51.1802 137.567 47.5753 139.063C45.2748 139.981 42.771 139.603 40.4004 139.241C40.4215 138.759 40.4565 137.804 40.4706 137.323C39.1029 136.864 38.086 138.382 39.3835 139.389C38.8645 139.344 37.8265 139.27 37.3075 139.233C36.9357 138.981 36.1993 138.471 35.8346 138.219L35.9609 137.619C36.3606 137.619 37.1602 137.612 37.5599 137.612C37.4828 137.345 37.3355 136.805 37.2654 136.538L37.2093 136.42C37.069 135.975 36.7814 135.08 36.6342 134.628C37.7774 134.361 38.9136 134.043 40.0497 133.732C39.5097 133.11 39.3835 131.844 38.5068 131.674C37.6722 132.207 36.9287 132.888 36.2063 133.577C35.8416 133.969 35.1192 134.769 34.7545 135.168C34.5792 134.783 34.2285 134.028 34.0602 133.643C34.3968 133.384 35.0842 132.866 35.4278 132.607C34.9509 131.829 34.474 131.052 33.9971 130.282C34.7686 129.704 35.54 129.134 36.3185 128.564C35.7855 128.468 34.7195 128.268 34.1864 128.172C35.4138 124.744 37.3425 121.197 40.9054 120.109Z" fill="#F2525F"/>
<path d="M113.734 29.8857C115.908 28.9602 118.153 31.8106 116.841 33.8837C116.091 36.2751 112.212 35.705 111.939 33.247C111.532 31.8773 112.416 30.2262 113.734 29.8857Z" fill="#F1545C"/>
<path d="M250.988 32.5012C251.788 31.2944 252.938 30.5614 254.299 30.3022C254.544 31.0796 254.804 31.857 255.049 32.6344C254.158 33.0268 253.268 33.4044 252.405 33.8413C252.047 33.5081 251.346 32.8343 250.988 32.5012Z" fill="#FF4B62"/>
<path d="M83.498 31.1962C84.3467 30.7075 85.2514 30.5372 86.2053 30.6927C88.695 31.3517 86.0369 33.9652 85.8756 35.52C85.4969 37.5486 87.0749 40.9174 84.6623 41.7022C84.2064 40.8285 83.8277 39.9104 83.5261 38.9628C85.8756 36.9711 84.2204 33.6246 83.498 31.1962Z" fill="#EF1D32"/>
<path d="M245.644 34.6842C245.307 32.626 246.962 31.4488 248.281 30.3308C249.571 31.9004 249.361 34.4991 251.121 35.6319C251.479 35.78 252.18 36.0836 252.531 36.239C251.276 37.4755 253.892 38.0974 253.113 36.4241C254.256 37.9641 255.266 39.6226 256.122 41.3625C255.701 41.4587 254.853 41.6512 254.432 41.7475C253.492 40.9627 252.545 40.1779 251.718 39.2672C250.392 36.9054 248.512 34.551 245.644 34.6842Z" fill="#EE1C40"/>
<path d="M257.357 31.7163C258.065 31.4127 258.788 31.1314 259.517 30.8796C260.513 31.1018 261.509 31.3313 262.512 31.5682C262.14 32.4196 261.776 33.2637 261.418 34.1151C261.727 34.278 262.358 34.6037 262.666 34.7666C262.302 35.7958 261.951 36.8249 261.607 37.8614C262.077 37.9947 263.024 38.2538 263.501 38.3797C263.873 36.4399 264.076 34.4631 264.279 32.4937C264.399 32.3456 264.644 32.0494 264.763 31.9014C265.556 31.9532 266.32 32.1383 267.064 32.4566C267.758 33.16 268.417 33.9004 269.084 34.6408C268.27 35.1146 267.457 35.5885 266.65 36.0697C267.246 36.5584 267.842 37.047 268.453 37.5357C268.845 37.1136 269.624 36.2696 270.01 35.8476C270.486 36.0031 271.44 36.2992 271.91 36.4547C272.107 36.8989 272.499 37.7874 272.696 38.2316C272.864 39.0905 272.962 39.9567 273.081 40.8303L272.324 40.6601C270.178 39.6605 268.312 41.4967 266.839 42.9034C266.671 42.6739 266.327 42.2223 266.152 41.9927C263.985 41.2227 262.049 39.9419 260.387 38.2908C259.545 39.5717 259.566 41.0154 260.001 42.4518C259.833 42.7775 259.51 43.4365 259.342 43.7622C258.886 42.8294 258.437 41.8891 257.995 40.9562C257.525 41.0599 256.586 41.2598 256.123 41.3634C255.267 39.6235 254.257 37.9651 253.114 36.4251L252.532 36.24C252.181 36.0845 251.48 35.781 251.122 35.6329C251.445 35.1812 252.083 34.2928 252.406 33.8412C253.268 33.4043 254.159 33.0267 255.05 32.6343C255.428 33.7597 255.835 34.8851 256.347 35.9512C256.817 37.1951 257.273 38.4463 257.729 39.705C258.037 39.6235 258.655 39.4606 258.963 39.3792C259.181 36.8989 259.139 34.3224 257.617 32.279L257.357 31.7163Z" fill="#A21832"/>
<path d="M267.063 32.4552C267.225 32.0258 267.561 31.167 267.73 30.7375C268.915 31.3447 270.661 31.5446 270.935 33.203C270.521 33.9434 269.722 34.2025 269.083 34.6393C268.417 33.899 267.758 33.1586 267.063 32.4552Z" fill="#E85D64"/>
<path d="M272.345 30.9602C273.986 31.1749 275.642 32.093 275.866 34.0106C275.074 35.3136 273.32 35.247 272.142 35.9356C271.756 35.5283 271.384 35.1211 271.013 34.6991C271.707 33.5663 272.023 32.2485 272.345 30.9602Z" fill="#F02134"/>
<path d="M13.6153 41.0074C16.4698 36.5725 20.187 31.5454 25.8259 31.6786C32.3204 30.5162 39.0113 33.848 42.455 39.7192C40.947 41.7626 40.7928 44.5983 41.7115 46.9527C42.4199 48.4556 43.9559 49.196 45.3235 49.8772C44.5941 50.2918 44.1592 50.9285 44.012 51.7948C42.8688 55.7188 41.2065 59.8723 37.7769 62.1527C32.2853 66.2766 24.2759 66.4691 18.8123 62.1749C15.6352 59.9537 13.8538 56.163 12.6755 52.4537C11.9952 48.663 12.437 44.6427 13.6153 41.0074ZM34.6699 56.7109C33.6179 58.5026 36.1849 60.5164 37.5946 59.0431C38.6466 58.1546 37.7489 56.7109 37.5455 55.6373C36.5355 55.8298 35.0978 55.3856 34.6699 56.7109Z" fill="#F69898"/>
<path d="M74.9912 34.6778C75.931 33.36 77.2075 32.5233 78.8066 32.6196C78.9609 34.1003 78.5401 35.8402 79.571 37.047C80.6301 38.9128 83.3724 41.3709 81.3104 43.4735C80.6511 42.7109 80.041 41.9039 79.4448 41.0895C79.2274 40.3047 78.9889 39.5273 78.7364 38.7647C78.2525 36.7805 76.4079 35.818 74.9912 34.6778Z" fill="#E11834"/>
<path d="M291.968 126.721H292.403C293.392 127.506 294.247 128.461 295.152 129.349C294.871 129.653 294.31 130.253 294.03 130.556C293.714 130.586 293.076 130.645 292.753 130.675C292.515 129.349 292.255 128.031 291.968 126.721Z" fill="#E11834"/>
<path d="M88.8771 34.1956C89.5785 34.4917 90.7006 34.3584 90.8339 35.395C90.0484 36.7054 89.0805 37.8975 88.4423 39.2968C87.9794 40.5184 87.6287 41.7845 87.271 43.0431C89.2699 42.3694 91.2056 41.0589 91.1074 38.5638L91.2547 37.7346C91.5002 37.6827 91.9911 37.5791 92.2436 37.5273C92.5171 37.8308 93.0572 38.4231 93.3307 38.7193C93.9339 39.43 94.502 40.163 95.0981 40.8812C94.2004 41.2144 93.2886 41.5031 92.3558 41.74C91.2196 42.4878 90.3079 43.5392 89.3751 44.5387C88.5124 43.7613 87.3482 43.8575 86.2961 43.7242C85.195 43.317 83.7081 41.592 82.7262 43.0727C81.6392 44.1092 83.5609 45.242 84.2552 45.8491L83.7713 46.8264C82.7894 46.2119 81.8355 45.5456 80.8747 44.8941C80.4188 45.9972 79.1143 47.2411 80.2224 48.3738C81.2113 48.3812 82.1932 48.2184 83.1681 48.1073C83.8204 48.8329 84.4656 49.5584 85.1108 50.2914C84.8513 51.2687 84.5918 52.2534 84.3394 53.2381C85.3774 53.2011 86.4154 53.1715 87.4604 53.1419C87.0045 52.1794 86.5556 51.2169 86.1489 50.2322L86.1418 49.3289C86.8712 49.8176 87.6077 50.3062 88.3721 50.7431C88.5966 50.8541 89.0314 51.0836 89.2558 51.2021C90.911 52.5274 92.1665 54.7559 94.4809 54.7929L95.6241 55.015C95.3716 55.5037 95.1121 55.9998 94.8526 56.4958C94.5511 57.0215 93.9479 58.0876 93.6463 58.6207C93.4008 58.5541 92.9029 58.406 92.6574 58.3319C92.2927 58.0358 91.5633 57.4361 91.1986 57.1399C90.4341 56.5328 89.5294 56.1552 88.6807 55.7184C89.1436 56.9548 89.6346 58.1913 90.1746 59.3981C90.2938 59.6646 90.5253 60.1977 90.6445 60.4716C89.838 60.7678 89.0384 61.0862 88.2459 61.4341L87.4884 61.8043C87.2359 61.2713 86.731 60.2125 86.4785 59.6868L86.8222 59.2648C87.0115 59.0205 87.3973 58.517 87.5936 58.2727C87.1939 56.4958 86.2541 54.9632 85.1249 53.6231C84.9075 54.8448 84.69 56.0664 84.5498 57.3028C84.5919 58.6873 84.7602 60.057 84.8584 61.4415C83.7152 61.449 82.579 61.4638 81.4358 61.4786C81.2534 61.0417 80.8817 60.1681 80.6993 59.7239L81.5129 58.7984C83.2593 57.5249 82.9086 55.1409 83.091 53.2011C81.2183 55.0299 79.479 57.0807 78.5813 59.6498L77.4801 58.7614C76.7086 58.095 76.2948 57.1399 75.874 56.2145C77.6765 55.2224 79.3387 53.9711 80.7625 52.4385C78.3709 51.5427 76.2387 52.942 74.6046 54.6893C74.296 54.2747 73.6648 53.438 73.3492 53.0234C73.3562 52.0091 73.3912 50.9948 73.4403 49.9879C75.6356 50.3951 77.8729 50.21 80.0471 49.7658C78.7776 48.5071 77.0944 47.7815 75.334 48.0333C74.6186 48.0703 73.9173 48.1517 73.2159 48.2776C73.1037 47.8334 72.8933 46.9301 72.7881 46.4859C73.0055 45.8047 73.265 45.1384 73.5455 44.4868L74.289 43.7168C75.6075 45.5752 77.7116 45.9084 79.7525 45.4641C78.441 43.6798 76.7086 42.3397 74.6467 41.6956L75.1937 40.8294C75.7197 40.0149 76.3019 39.2375 77.0102 38.6008C77.8799 39.3634 78.6654 40.2223 79.4439 41.0885C80.0401 41.9029 80.6502 42.7099 81.3095 43.4725C83.3715 41.3698 80.6292 38.9118 79.5702 37.046C80.6993 36.0095 81.8425 34.8027 83.4767 34.9804C83.4346 36.3056 83.4486 37.6383 83.5258 38.9636C83.8274 39.9113 84.2061 40.8294 84.662 41.703C87.0746 40.9182 85.4966 37.5495 85.8753 35.5208C86.9694 35.3061 88.3651 35.5282 88.8771 34.1956ZM80.1593 50.3284C80.7204 51.7055 81.6812 52.7273 83.1681 52.8235C83.2593 51.6389 83.3505 50.4469 83.4416 49.2623C82.3475 49.6177 81.2534 49.9731 80.1593 50.3284Z" fill="#9C172E"/>
<path d="M216.769 34.2313C217.8 33.3947 218.929 35.2901 217.919 36.023C216.881 36.8671 215.759 34.9717 216.769 34.2313Z" fill="#5F0003"/>
<path d="M245.448 39.4081C245.596 37.646 246.472 36.143 248.268 35.9209C248.373 36.4688 248.576 37.5719 248.674 38.1272C248.401 38.8898 248.127 39.6598 247.903 40.4446C247.082 40.0966 246.262 39.7561 245.448 39.4081Z" fill="#FF4E5B"/>
<path d="M252.531 36.2385L253.114 36.4236C253.892 38.0969 251.276 37.475 252.531 36.2385Z" fill="#F0586D"/>
<path d="M73.876 39.0014C74.5493 38.2388 75.0052 36.8395 76.2045 36.9284C77.1303 37.3948 77.9789 38.0315 78.7364 38.7645C78.9888 39.5271 79.2273 40.3045 79.4447 41.0893C78.6662 40.223 77.8807 39.3642 77.011 38.6016C76.3027 39.2383 75.7205 40.0157 75.1945 40.8302C74.8649 40.3711 74.2056 39.4605 73.876 39.0014Z" fill="#E7666F"/>
<path d="M272.695 38.2315C273.067 37.8687 273.81 37.1505 274.182 36.7952C275.676 37.5504 276.125 39.1422 276.027 40.7858C275.038 40.808 274.056 40.8228 273.081 40.8302C272.962 39.9566 272.864 39.0904 272.695 38.2315Z" fill="#EC5962"/>
<path d="M42.4557 39.7183C45.5767 35.8461 52.3588 37.697 52.8287 42.9019C53.8035 47.2998 49.3149 51.4237 45.3242 49.8763C43.9566 49.1951 42.4206 48.4547 41.7122 46.9518C40.7935 44.5974 40.9478 41.7617 42.4557 39.7183Z" fill="#F2515F"/>
<path d="M93.3311 38.7209C94.0184 38.3359 94.6987 37.9435 95.386 37.5437C96.3398 38.3729 97.6023 39.3206 96.943 40.831C96.4871 40.8458 95.5613 40.868 95.0985 40.8828C94.5023 40.1646 93.9342 39.4317 93.3311 38.7209Z" fill="#EC5A6B"/>
<path d="M248.675 38.1261C249.018 37.9484 249.706 37.6005 250.049 37.4302C250.589 38.0595 251.143 38.674 251.719 39.2663C252.546 40.177 253.493 40.9618 254.433 41.7466C254.854 41.6503 255.702 41.4578 256.123 41.3616C256.586 41.2579 257.526 41.058 257.996 40.9544C258.438 41.8873 258.886 42.8275 259.342 43.7604C259.118 44.027 258.669 44.5674 258.445 44.8414C255.436 44.9969 252.82 43.3976 250.127 42.2649C249.369 41.9835 248.591 41.9613 247.791 42.1834C247.819 41.754 247.875 40.8803 247.903 40.4435C248.128 39.6587 248.401 38.8887 248.675 38.1261Z" fill="#8C1122"/>
<path d="M69.6399 42.4209C69.3033 40.5773 70.1379 38.9337 71.8352 38.3118C72.6487 39.526 73.1116 41.3103 74.6476 41.6953C76.7096 42.3394 78.4419 43.6795 79.7534 45.4638C77.7125 45.9081 75.6084 45.5749 74.2899 43.7165C73.1888 42.1025 71.3021 42.3246 69.6399 42.4209Z" fill="#EA2447"/>
<path d="M88.4427 39.2967C89.3264 39.0524 90.2172 38.808 91.1079 38.5637C91.2061 41.0588 89.2703 42.3693 87.2715 43.043C87.6292 41.7844 87.9799 40.5183 88.4427 39.2967Z" fill="#CE203F"/>
<path d="M210.731 39.4896C211.762 38.9121 212.884 38.5789 214.006 38.2532C213.298 38.9343 212.575 39.5859 211.846 40.23C210.611 41.0666 209.475 42.0365 208.241 42.8657C207.631 42.2734 207.75 41.3109 207.525 40.5484C208.662 40.4447 209.763 40.1634 210.731 39.4896Z" fill="#E0213F"/>
<path d="M78.5814 59.6506C79.4792 57.0815 81.2185 55.0306 83.0911 53.2019C82.9088 55.1417 83.2595 57.5257 81.5131 58.7992C81.3097 58.9102 80.9169 59.1249 80.7206 59.236C79.1916 61.2054 78.1746 63.5524 78.4832 66.1586C76.8701 66.0845 75.4253 65.396 74.6328 63.8634C76.2109 62.7676 78.0484 61.7311 78.5814 59.6506Z" fill="#E0213F"/>
<path d="M288.917 65.5512C289.198 64.7961 289.233 63.8039 290.06 63.4412C290.698 63.8854 291.344 64.337 291.975 64.8035L292.739 64.9515C293.995 65.1366 295.201 65.5957 296.225 66.4027C295.026 66.5359 293.826 66.6618 292.634 66.7581C292.676 67.1949 292.76 68.0611 292.802 68.498C294.051 68.4017 295.292 68.298 296.541 68.1944C295.482 69.1939 294.402 70.1786 293.497 71.341C293.006 71.9629 292.543 72.5997 292.073 73.2364C291.982 72.8292 291.8 72.0222 291.701 71.6224C292.122 71.2522 292.964 70.5266 293.378 70.1638C292.073 70.5414 290.853 71.1411 289.604 71.6742C289.457 71.1041 289.155 69.9713 289.001 69.4012C290.341 69.3494 291.687 69.2976 293.034 69.1791C292.368 68.2758 291.498 67.7206 290.418 67.5132C290.586 67.0098 290.755 66.4989 290.93 65.9955C290.425 65.8844 289.422 65.6623 288.917 65.5512Z" fill="#E0213F"/>
<path d="M68.1099 81.1211C68.7622 81.6394 69.3162 82.2539 69.7721 82.9572C69.1619 84.2455 67.5909 83.9641 66.5108 84.4232L66.2373 83.8531C66.8054 82.898 67.4647 82.017 68.1099 81.1211Z" fill="#E0213F"/>
<path d="M297.845 111.084C298.61 111.78 299.101 112.698 299.374 113.727C298.35 114.12 295.145 113.587 296.422 115.645C296.934 115.712 297.965 115.837 298.477 115.897C298.414 116.267 298.301 117.007 298.238 117.385C297.642 117.289 297.046 117.2 296.45 117.104C296.26 115.963 296.071 114.823 295.889 113.69C296.548 112.824 297.193 111.95 297.845 111.084Z" fill="#E0213F"/>
<path d="M287.754 127.336L288.273 127.239C288.399 128.624 288.693 129.979 289.002 131.326C288.7 132.429 286.744 132.466 286.61 131.245C286.891 129.912 287.284 128.609 287.754 127.336Z" fill="#E0213F"/>
<path d="M260 42.4507C259.565 41.0144 259.544 39.5707 260.386 38.2898C262.048 39.9408 263.984 41.2217 266.151 41.9917C266.326 42.2212 266.67 42.6728 266.838 42.9024C266.698 43.2207 266.417 43.8649 266.277 44.1832C264.979 44.8496 263.626 45.39 262.293 45.9527C263.394 46.049 264.503 46.1452 265.604 46.2489C265.842 47.1447 266.074 48.0406 266.312 48.9365C265.407 49.0623 264.299 50.1137 263.556 49.1364C262.875 48.4848 262.272 47.7593 261.648 47.0485C261.936 46.1378 262.237 45.2272 262.462 44.2943C261.767 43.5095 260.848 43.006 260 42.4507Z" fill="#800C1E"/>
<path d="M33.7158 141.663C34.333 141.744 34.9502 141.825 35.5674 141.907L36.3108 142.011L36.0303 142.455C35.4902 143.247 34.7608 143.862 34.0875 144.513L33.828 143.092C33.786 142.618 33.7509 142.136 33.7158 141.663Z" fill="#800C1E"/>
<path d="M95.4143 42.6442C97.1958 41.8445 97.9252 39.7789 99.4682 38.772C100.927 39.4827 101.397 41.1708 101.109 42.733C99.384 42.8811 95.9474 42.3184 97.0976 45.3688C97.82 45.0874 98.5494 44.8283 99.2928 44.6062C100.205 45.2947 100.071 46.7162 99.882 47.7454C98.339 47.5899 96.796 47.3678 95.246 47.2863C95.3793 47.7306 95.6388 48.6116 95.772 49.0558C94.9374 49.1817 94.1098 49.352 93.2822 49.5149C94.187 48.3969 95.0707 47.2641 96.0245 46.1906L97.0836 46.161C96.9223 45.0504 96.7609 43.9398 96.5786 42.8441C96.284 42.7922 95.7019 42.6886 95.4143 42.6442Z" fill="#F03456"/>
<path d="M241.527 44.1835C241.281 42.5991 240.755 40.2891 242.509 39.4229C243.715 39.5487 244.374 40.8222 245.335 41.4737C246.654 42.6953 248.519 42.451 250.125 42.2659C252.819 43.3987 255.435 44.9979 258.443 44.8424L258.836 45.3237C255.014 45.3385 250.771 46.5971 247.341 44.2205C245.56 42.7694 243.427 43.4135 241.527 44.1835Z" fill="#E41A3C"/>
<path d="M266.839 42.9034C268.312 41.4967 270.178 39.6606 272.324 40.6601C271.98 40.7785 271.286 41.0303 270.942 41.1561C270.963 41.5115 271.012 42.2297 271.033 42.5925C271.475 42.6517 272.366 42.7701 272.808 42.8294C271.398 45.2948 268.502 44.1769 266.278 44.1843C266.419 43.8659 266.699 43.2218 266.839 42.9034Z" fill="#CA0537"/>
<path d="M274.693 42.6512C276.012 41.585 277.26 40.4226 278.46 39.2158C279.848 40.5633 280.409 42.4587 279.624 44.3393C278.733 44.0505 277.842 43.7395 276.966 43.4138C276.208 43.1472 275.458 42.8807 274.693 42.6512Z" fill="#E81D36"/>
<path d="M89.376 44.5389C90.3088 43.5394 91.2205 42.488 92.3567 41.7402C93.037 42.4066 93.6963 43.0877 94.3626 43.7689C93.4649 45.2941 91.8377 45.7013 90.2527 45.183L89.376 44.5389Z" fill="#CA072E"/>
<path d="M82.7265 43.0736C83.7084 41.5929 85.1952 43.318 86.2964 43.7252C87.3484 43.8584 88.5126 43.7622 89.3753 44.5396L90.252 45.1837C91.8371 45.702 93.4642 45.2948 94.3619 43.7696C94.6284 43.4883 95.1474 42.9256 95.414 42.6442C95.7015 42.6886 96.2836 42.7923 96.5782 42.8441C96.7606 43.9399 96.9219 45.0505 97.0832 46.161L96.0241 46.1906C94.0042 46.1018 92.0475 46.6719 90.1608 47.3678C90.4343 48.3081 90.7079 49.2484 90.9884 50.1887C90.5536 50.4404 89.6839 50.9439 89.2561 51.203C89.0316 51.0845 88.5968 50.855 88.3724 50.744C87.6079 50.3071 86.8715 49.8185 86.1421 49.3298C86.1841 48.4266 86.2402 47.5159 86.3104 46.6201C85.6231 46.3683 84.9357 46.1092 84.2554 45.8501C83.5611 45.243 81.6394 44.1102 82.7265 43.0736Z" fill="#880F25"/>
<path d="M273.214 42.3621C273.586 42.4361 274.322 42.5768 274.694 42.6508C275.459 42.8803 276.209 43.1469 276.967 43.4134C276.391 43.406 275.234 43.3838 274.652 43.369C274.687 44.4721 274.715 45.5753 274.75 46.6785C274.442 46.8784 273.824 47.293 273.516 47.5003C273.025 47.1967 272.043 46.5896 271.559 46.2935C269.778 45.8493 267.961 46.2194 266.215 46.6415C267.758 48.0926 269.308 50.3508 271.65 49.9213L272.744 49.8473C273.2 49.8473 274.119 49.8547 274.575 49.8547L274.364 50.2767C274.182 50.6247 274.007 50.9801 273.838 51.3355C273.404 52.2165 272.976 53.105 272.555 53.9934C272.106 53.9712 271.208 53.9268 270.76 53.9046C270.563 53.5862 270.17 52.9495 269.974 52.6311C269.069 51.0245 267.456 49.6326 265.57 50.2249C265.612 51.4761 265.808 52.9939 266.986 53.6306C267.905 54.2674 268.859 54.8671 269.757 55.5408C269.785 55.9999 269.848 56.9179 269.876 57.3696C269.132 57.799 268.396 58.221 267.667 58.643C267.316 58.8503 266.615 59.2501 266.264 59.45C266.082 58.8651 265.717 57.6805 265.534 57.0956C266.601 55.2521 264.637 53.1938 263.564 51.8537C261.775 52.2387 262.378 54.7708 262.245 56.1924C262.021 57.5991 263.332 58.1692 264.174 58.9095C264.356 59.7388 264.567 60.5606 264.805 61.375C264.279 60.4273 263.346 60.2052 262.378 60.2867L261.074 60.5754C260.709 60.6568 259.987 60.8197 259.629 60.9012C259.51 60.2348 259.278 58.8947 259.159 58.2284C259.44 57.9915 259.994 57.525 260.274 57.2955C260.078 55.5038 259.889 53.7121 259.65 51.9278C260.281 51.8759 261.551 51.7649 262.182 51.7057C261.88 50.4914 261.565 49.2846 261.347 48.0482C261.425 47.7964 261.579 47.3004 261.649 47.0487C262.273 47.7594 262.876 48.485 263.557 49.1365C264.3 50.1138 265.408 49.0625 266.313 48.9366C266.075 48.0408 265.843 47.1449 265.605 46.2491C264.503 46.1454 263.395 46.0492 262.294 45.9529C263.627 45.3902 264.98 44.8497 266.278 44.1834C268.501 44.176 271.398 45.294 272.807 42.8285L273.214 42.3621Z" fill="#9B1B2F"/>
<path d="M260 42.4507C260.849 43.006 261.768 43.5094 262.462 44.2942C262.238 45.2271 261.936 46.1378 261.649 47.0484C261.578 47.3002 261.424 47.7962 261.347 48.048C261.564 49.2844 261.88 50.4912 262.182 51.7054C261.55 51.7647 260.281 51.8757 259.65 51.9275L259.187 51.9572C259.068 51.1798 258.941 50.4024 258.808 49.625C259.236 49.0253 259.671 48.4255 260.106 47.8332C259.93 47.4631 259.573 46.7301 259.39 46.3599C259.25 46.1008 258.976 45.5825 258.836 45.3234L258.443 44.8421C258.668 44.5682 259.117 44.0277 259.341 43.7612C259.509 43.4354 259.832 42.7765 260 42.4507Z" fill="#78091B"/>
<path d="M70.46 46.6554C70.5301 45.2265 70.8667 43.8716 71.9609 42.9387C72.3606 43.3237 73.1532 44.0937 73.5459 44.4861C73.2654 45.1376 73.0059 45.804 72.7885 46.4851C72.2063 46.5222 71.0421 46.611 70.46 46.6554Z" fill="#E85C63"/>
<path d="M214.49 44.6488C215.486 44.3675 215.83 44.7377 215.514 45.752C214.511 46.0333 214.168 45.6631 214.49 44.6488Z" fill="#DB5865"/>
<path d="M243.82 44.072C244.851 44.5088 245.882 44.9457 246.913 45.3899C246.843 45.8711 246.71 46.8262 246.64 47.3075C245.63 47.7147 244.528 48.8919 243.547 47.7887C243.35 46.5449 243.652 45.3011 243.82 44.072Z" fill="#F5566A"/>
<path d="M247.342 44.2207C250.772 46.5973 255.015 45.3387 258.837 45.3239C258.977 45.583 259.251 46.1013 259.391 46.3604C258.501 47.5894 257.61 48.8185 256.719 50.0549C256.347 49.6921 255.59 48.9739 255.211 48.6186C254.938 48.352 254.398 47.819 254.124 47.5598C251.803 47.5228 249.348 47.582 247.545 49.3515C247.321 48.8407 246.865 47.8189 246.641 47.3081C246.711 46.8268 246.844 45.8717 246.914 45.3905C247.019 45.1018 247.237 44.5169 247.342 44.2207Z" fill="#831522"/>
<path d="M80.2231 48.3736C79.115 47.2408 80.4195 45.997 80.8754 44.8938C81.8363 45.5453 82.7901 46.2117 83.772 46.8262C83.6247 47.1446 83.3231 47.7887 83.1688 48.107C82.1939 48.2181 81.212 48.381 80.2231 48.3736Z" fill="#85081B"/>
<path d="M84.256 45.8491C84.9363 46.1083 85.6237 46.3674 86.311 46.6191C86.2409 47.515 86.1848 48.4256 86.1427 49.3289L86.1497 50.2322C86.5565 51.2169 87.0053 52.1794 87.4612 53.1419C86.4162 53.1715 85.3782 53.2011 84.3402 53.2381C84.5927 52.2534 84.8522 51.2687 85.1117 50.2914C84.4664 49.5584 83.8212 48.8329 83.1689 48.1073C83.3232 47.7889 83.6248 47.1448 83.7721 46.8264L84.256 45.8491Z" fill="#620510"/>
<path d="M90.1611 47.3673C92.0478 46.6713 94.0045 46.1012 96.0244 46.1901C95.0706 47.2636 94.1869 48.3964 93.2821 49.5144C94.1097 49.3515 94.9373 49.1812 95.7719 49.0553C96.1998 49.0035 97.0624 48.9147 97.4973 48.8702C97.5534 49.1516 97.6656 49.7217 97.7217 50.0104C97.5534 50.5287 97.2027 51.5652 97.0344 52.0835C96.838 52.4241 96.4523 53.0978 96.2629 53.431L96.1156 53.6827C95.8842 53.431 95.4072 52.9275 95.1688 52.6758C94.0747 51.3579 92.5668 50.6175 90.9887 50.1881C90.7082 49.2478 90.4347 48.3075 90.1611 47.3673Z" fill="#A31235"/>
<path d="M266.215 46.6415C267.961 46.2195 269.778 45.8493 271.559 46.2935C271.531 47.5004 271.538 48.7146 271.65 49.9214C269.308 50.3508 267.758 48.0927 266.215 46.6415Z" fill="#C40E3B"/>
<path d="M274.751 46.6791C275.515 46.1682 276.287 45.6722 277.072 45.1909C277.514 46.5384 278.131 48.5078 276.778 49.4999C275.179 48.7744 273.601 47.9599 271.847 47.7452C272.072 48.2709 272.521 49.3222 272.745 49.8479L271.651 49.9219C271.539 48.7151 271.532 47.5009 271.56 46.2941C272.044 46.5902 273.026 47.1974 273.517 47.5009C273.825 47.2936 274.442 46.879 274.751 46.6791Z" fill="#FB505C"/>
<path d="M256.719 50.0548C257.609 48.8184 258.5 47.5894 259.391 46.3604C259.573 46.7305 259.931 47.4635 260.106 47.8337C259.671 48.426 259.237 49.0257 258.809 49.6254C258.942 50.4028 259.068 51.1802 259.187 51.9576C258.725 54.586 256.733 56.6887 256.908 59.4725C256.487 59.4577 255.646 59.4281 255.225 59.4133C254.881 59.354 254.194 59.243 253.857 59.1837C253.717 59.0135 253.45 58.6655 253.31 58.4952L252.707 57.7104C252.973 57.281 253.521 56.4073 253.787 55.9779C254.411 55.0968 254.748 54.0529 254.797 52.9571C252.77 52.4981 251.886 54.6748 250.757 55.9705C250.385 55.5707 249.642 54.7785 249.27 54.3787C249.081 54.1047 248.695 53.5494 248.506 53.2755C248.555 52.7424 248.667 51.6911 248.723 51.1654C251.066 50.9359 253.191 49.8179 255.211 48.6185C255.59 48.9739 256.347 49.6921 256.719 50.0548Z" fill="#9E1631"/>
<path d="M67.5778 50.2834C67.2482 49.1802 67.5778 46.2483 69.219 47.4329C71.0215 48.9507 73.2658 48.6768 75.3348 48.0326C77.0952 47.7809 78.7784 48.5065 80.0479 49.7651C77.8737 50.2093 75.6364 50.3944 73.4412 49.9872C72.3541 49.8392 71.2179 49.6985 70.1728 50.1575C69.2891 50.9127 68.1109 52.164 67.5778 50.2834Z" fill="#F41640"/>
<path d="M97.4971 48.87C99.1663 48.8996 100.688 48.2036 102.196 47.5447C103.339 48.5516 103.669 50.8246 102.203 51.6834C100.695 51.1799 99.2084 50.595 97.7215 50.0101C97.6654 49.7214 97.5532 49.1513 97.4971 48.87Z" fill="#F71946"/>
<path d="M247.545 49.3511C249.347 47.5816 251.802 47.5223 254.124 47.5593C254.397 47.8185 254.937 48.3516 255.211 48.6181C253.191 49.8175 251.066 50.9355 248.723 51.165C248.029 51.276 247.341 51.3945 246.654 51.513C244.978 51.8684 244.045 53.5564 242.621 54.3856C241.057 53.4083 240.98 51.3871 241.226 49.699C243.295 49.9064 245.735 50.9577 247.545 49.3511Z" fill="#ED173D"/>
<path d="M70.1729 50.1569C71.2179 49.6979 72.3541 49.8386 73.4412 49.9867C73.3921 50.9936 73.357 52.0079 73.35 53.0222C72.7328 53.6145 72.1226 54.2068 71.5054 54.7991C70.6007 53.7478 70.236 52.4595 70.3482 51.0528C71.302 50.8529 73.1185 52.0967 73.2939 50.2754C72.2559 50.231 71.2109 50.1866 70.1729 50.1569Z" fill="#EC5865"/>
<path d="M80.1602 50.3286C81.2543 49.9732 82.3484 49.6178 83.4425 49.2625C83.3513 50.4471 83.2601 51.6391 83.169 52.8237C81.6821 52.7274 80.7212 51.7057 80.1602 50.3286Z" fill="#81091B"/>
<path d="M89.2559 51.2028C89.6837 50.9437 90.5534 50.4402 90.9882 50.1885C92.5662 50.6179 94.0742 51.3583 95.1683 52.6762C94.9017 52.8761 94.3827 53.2685 94.1162 53.4684C94.2074 53.8015 94.3898 54.4679 94.4809 54.7937C92.1665 54.7566 90.9111 52.5281 89.2559 51.2028Z" fill="#C20B33"/>
<path d="M265.569 50.2251C267.456 49.6328 269.069 51.0247 269.974 52.6313C269.756 53.1274 269.315 54.1121 269.097 54.6082C268.382 54.2898 267.68 53.9862 266.986 53.6309C265.808 52.9941 265.611 51.4764 265.569 50.2251Z" fill="#C00E3C"/>
<path d="M273.839 51.3357C274.007 50.9803 274.183 50.6249 274.365 50.2769C276.209 50.7804 278.005 49.8179 279.828 50.0548C279.969 51.1728 279.941 52.2908 279.744 53.4087C279.387 53.6679 278.657 54.201 278.292 54.4601C277.03 53.0904 275.599 51.8836 273.839 51.3357Z" fill="#F11337"/>
<path d="M246.654 51.5142C247.342 51.3958 248.029 51.2773 248.723 51.1663C248.667 51.6919 248.555 52.7433 248.506 53.2763C248.695 53.5503 249.081 54.1056 249.27 54.3795C248.211 55.1643 246.963 57.7927 245.742 55.8825C244.887 55.2606 244.501 52.958 246.079 53.1579C246.717 52.8617 248.927 53.2986 248.204 51.914C247.818 51.8178 247.04 51.6179 246.654 51.5142Z" fill="#FF4A60"/>
<path d="M74.6048 54.6908C76.2389 52.9435 78.371 51.5442 80.7626 52.44C79.3389 53.9726 77.6767 55.2239 75.8742 56.216L75.8672 56.2234C73.9244 56.6602 72.4235 57.9855 71.7783 59.9771C70.1792 59.8068 68.9659 58.104 69.5199 56.4455C71.2593 56.0235 73.3213 56.2752 74.6048 54.6908Z" fill="#EF153A"/>
<path d="M96.2627 53.4303C96.4521 53.0971 96.8378 52.4233 97.0342 52.0828C97.988 52.1716 98.9419 52.2679 99.8957 52.3789C100.029 53.7856 99.5871 55.0739 98.7455 56.1697C97.8969 55.2812 97.0693 54.3631 96.2627 53.4303Z" fill="#E75F6D"/>
<path d="M256.908 59.4727C256.732 56.6889 258.724 54.5862 259.187 51.9578L259.65 51.9282C259.889 53.7125 260.078 55.5043 260.274 57.296C259.994 57.5255 259.44 57.9919 259.159 58.2289C256.999 60.5018 257.153 64.0112 257.714 66.9357C256.319 68.1129 254.257 67.2763 253.338 65.8622C254.656 64.1519 256.059 62.4712 256.508 60.2427C256.185 60.0354 255.547 59.6208 255.225 59.4135C255.645 59.4283 256.487 59.4579 256.908 59.4727Z" fill="#F0163A"/>
<path d="M262.245 56.1914C262.378 54.7699 261.775 52.2378 263.564 51.8528C264.637 53.1929 266.601 55.2511 265.535 57.0947C265.191 57.5463 264.511 58.457 264.174 58.9086C263.332 58.1682 262.021 57.5981 262.245 56.1914Z" fill="#C01140"/>
<path d="M273.838 51.3352C275.598 51.8831 277.029 53.0899 278.291 54.4596C278.656 54.2005 279.385 53.6674 279.743 53.4083C280.248 55.311 281.524 56.7992 282.359 58.5317C282.745 61.1897 283.222 64.5362 281.209 66.6166C279.652 68.3269 277.611 69.5856 275.423 70.0964C272.491 70.2593 269.552 68.6675 267.806 66.202C266.593 64.7509 265.533 63.1517 264.804 61.3748C264.566 60.5603 264.355 59.7385 264.173 58.9093C264.51 58.4577 265.19 57.547 265.533 57.0954C265.716 57.6803 266.081 58.8649 266.263 59.4498C266.41 60.7232 266.487 62.0041 266.578 63.2849C267.771 63.1961 269.033 63.0332 269.861 61.9893C269.573 60.6122 268.458 59.6941 267.666 58.6427C268.395 58.2207 269.131 57.7987 269.875 57.3693C270.92 59.3239 271.839 61.3599 272.68 63.4182C274.006 62.4631 275.163 61.2785 276.145 59.9384C273.683 59.0574 271.523 57.547 269.756 55.5406C268.858 54.8668 267.904 54.2671 266.985 53.6304C267.68 53.9858 268.381 54.2893 269.096 54.6077C269.314 54.1116 269.756 53.1269 269.973 52.6309C270.169 52.9492 270.562 53.586 270.759 53.9043C271.495 55.126 272.245 56.3402 273.003 57.547C273.452 57.5544 274.349 57.5692 274.798 57.5766C275.051 56.4364 275.296 55.3036 275.556 54.1709C274.553 54.1042 273.55 54.045 272.554 53.9932C272.975 53.1047 273.403 52.2163 273.838 51.3352Z" fill="#F69899"/>
<path d="M49.1944 157.136C50.6112 155.922 52.2523 154.382 54.2372 154.752C54.8263 154.87 56.0046 155.107 56.6007 155.218C56.2641 156.136 55.9344 157.054 55.5978 157.972C58.298 158.195 60.9 159.735 63.6353 159.039L64.8767 158.831C64.9328 160.201 64.1333 161.097 63.1023 161.748C62.8077 163.503 62.8428 165.361 62.1344 167.005C61.0052 168.782 59.322 170.041 57.8842 171.514C55.3663 171.521 52.5399 172.01 50.4358 170.189C46.1646 167.664 45.351 160.423 49.1944 157.136Z" fill="#F69899"/>
<path d="M250.757 55.9719C251.886 54.6762 252.769 52.4995 254.796 52.9585C254.747 54.0543 254.411 55.0982 253.786 55.9793C252.166 57.0824 250.644 58.3559 249.424 59.9551C249.143 60.851 249.389 62.0578 248.639 62.7167C246.738 62.9906 245.532 61.0805 245.328 59.3184C247.411 58.7557 249.592 58.0523 250.757 55.9719Z" fill="#ED1836"/>
<path d="M85.1259 53.623C86.2551 54.9631 87.1949 56.4957 87.5947 58.2726C87.3983 58.517 87.0125 59.0204 86.8232 59.2647C86.0657 58.6132 85.3082 57.9543 84.5508 57.3027C84.6911 56.0663 84.9085 54.8447 85.1259 53.623Z" fill="#BC1439"/>
<path d="M270.76 53.905C271.209 53.9272 272.106 53.9717 272.555 53.9939C273.551 54.0457 274.554 54.1049 275.557 54.1716C275.298 55.3043 275.052 56.4371 274.8 57.5773C274.351 57.5699 273.453 57.5551 273.004 57.5477C272.247 56.3409 271.496 55.1267 270.76 53.905Z" fill="#F34F65"/>
<path d="M95.625 55.0144C97.161 56.3101 99.0266 56.7247 100.948 56.8061C101.474 58.4942 100.093 59.9231 98.7811 60.6043C97.8343 58.8866 96.7963 57.0579 94.8535 56.4952C95.113 55.9991 95.3725 55.5031 95.625 55.0144Z" fill="#F4224A"/>
<path d="M269.757 55.5417C271.524 57.5482 273.684 59.0585 276.146 59.9396C275.164 61.2797 274.007 62.4643 272.681 63.4194C271.84 61.3611 270.921 59.3251 269.876 57.3705C269.848 56.9189 269.785 56.0008 269.757 55.5417Z" fill="#F22B47"/>
<path d="M75.8678 56.2225L75.8748 56.2151C76.2956 57.1406 76.7094 58.0957 77.4809 58.762C76.7866 59.5468 76.1624 60.4056 75.5031 61.2275C74.1706 61.072 73.7497 59.643 73.1816 58.5917C74.2758 58.0734 75.5452 57.607 75.8678 56.2225Z" fill="#E95E6C"/>
<path d="M88.6816 55.7178C89.5303 56.1546 90.435 56.5322 91.1995 57.1393C91.1574 59.8787 92.525 62.8106 95.2182 63.4992C95.2814 65.5944 93.3597 66.5717 91.6273 66.2016C91.5782 64.2544 91.5431 62.2331 90.6454 60.471C90.5262 60.1971 90.2947 59.664 90.1755 59.3975C89.6355 58.1906 89.1445 56.9542 88.6816 55.7178Z" fill="#E91F3A"/>
<path d="M296.429 55.9702L296.493 56.5107C296.205 57.5694 297.741 59.1612 298.197 57.5694C298.085 57.2585 297.853 56.644 297.741 56.3404L298.597 56.1997C298.583 56.8142 298.562 58.0507 298.548 58.6652C299.088 58.1988 299.635 57.7249 300.189 57.2585C300.427 57.3473 300.904 57.525 301.143 57.6139C301.276 56.0517 302.573 55.8888 303.794 56.1627C304.593 57.451 303.296 58.3913 302.601 59.2501C302.033 59.8794 301.451 60.5013 300.89 61.1381C300.799 60.5976 300.631 59.5166 300.539 58.9762C299.761 58.9688 298.975 58.991 298.204 59.0354C298.19 59.6869 298.162 60.9826 298.148 61.6341C297.446 60.953 296.752 60.2644 296.058 59.5907C295.721 60.146 295.055 61.2565 294.725 61.8118C294.543 61.4564 294.185 60.7383 294.003 60.3829C293.912 60.1978 293.722 59.8276 293.624 59.6425C294.396 59.2427 295.174 58.8429 295.953 58.4431C296.072 57.8212 296.31 56.5847 296.429 55.9702Z" fill="#EA6775"/>
<path d="M296.492 56.5099C296.8 56.4655 297.431 56.384 297.74 56.3396C297.852 56.6432 298.084 57.2577 298.196 57.5686C297.74 59.1605 296.204 57.5686 296.492 56.5099Z" fill="#EA283E"/>
<path d="M84.8589 61.4415C84.7608 60.057 84.5924 58.6872 84.5503 57.3027C85.3078 57.9543 86.0653 58.6132 86.8227 59.2647L86.4791 59.6868C86.3318 59.8719 86.0232 60.2346 85.8689 60.4197C85.5673 62.7667 85.9741 65.0619 86.7315 67.2608C86.3879 69.0378 83.9261 68.0679 82.832 67.52C83.344 66.6611 83.842 65.7875 84.3259 64.9138C84.5854 63.7662 84.7467 62.6039 84.8589 61.4415Z" fill="#F61733"/>
<path d="M92.6582 58.3323C92.9037 58.4063 93.4016 58.5544 93.6471 58.621C94.6991 58.8802 95.7371 59.2207 96.726 59.702C95.8774 60.4053 95.0849 62.7746 93.7453 61.6492C93.2544 60.5904 92.9668 59.4577 92.6582 58.3323Z" fill="#FD4A51"/>
<path d="M253.31 58.4946C253.45 58.6649 253.716 59.0129 253.857 59.1832C253.906 60.4418 253.78 61.6931 253.702 62.9443C252.047 62.811 250.448 62.0781 250.224 60.1531C251.248 59.5978 252.279 59.0499 253.31 58.4946Z" fill="#F95267"/>
<path d="M266.264 59.4501C266.614 59.2502 267.316 58.8504 267.666 58.6431C268.459 59.6944 269.574 60.6125 269.862 61.9896C269.034 63.0335 267.772 63.1964 266.579 63.2852C266.488 62.0044 266.411 60.7235 266.264 59.4501Z" fill="#F05665"/>
<path d="M291.583 60.2134C292.053 59.6285 292.53 59.0436 293.021 58.4661L293.624 59.6433C293.723 59.8284 293.912 60.1986 294.003 60.3836C294.185 60.739 294.543 61.4572 294.726 61.8126C295.055 61.2573 295.721 60.1467 296.058 59.5914C296.752 60.2652 297.447 60.9537 298.148 61.6349C298.162 60.9834 298.19 59.6877 298.204 59.0362C298.976 58.9917 299.761 58.9695 300.54 58.9769C300.631 59.5174 300.799 60.5984 300.89 61.1388C301.452 60.5021 302.034 59.8802 302.602 59.2509C303.17 59.3397 304.306 59.5248 304.867 59.6137C304.432 60.628 303.99 61.6497 303.801 62.7455C304.727 62.0421 305.646 61.3091 306.543 60.5539C306.466 61.7904 306.831 62.8565 307.658 63.745C307.231 63.9153 306.375 64.241 305.947 64.4039C305.26 64.6853 304.573 64.9814 303.899 65.2776C303.773 66.4251 303.647 67.5727 303.528 68.7203C302.623 69.1497 301.725 69.5792 300.827 70.0012C300.82 71.6596 300.911 73.3107 301.136 74.9469C300.848 74.9099 300.273 74.8433 299.986 74.8062C299.902 73.4661 299.824 72.1187 299.747 70.7786C299.467 71.1858 299.193 71.6004 298.927 72.0076C298.155 72.9553 297.426 74.2732 296.051 74.0362L295.623 73.6068C296.521 72.3408 297.299 70.9859 298.008 69.5866C296.682 70.4898 295.49 71.556 294.368 72.7184C294.15 72.3704 293.716 71.6892 293.498 71.3413C294.403 70.1789 295.483 69.1942 296.542 68.1946C295.294 68.2983 294.052 68.402 292.804 68.4982C292.762 68.0614 292.678 67.1951 292.635 66.7583C293.828 66.6621 295.027 66.5362 296.226 66.4029C295.202 65.5959 293.996 65.1369 292.741 64.9518C292.783 64.5742 292.853 63.8264 292.895 63.4488C292.551 63.2341 291.871 62.7973 291.527 62.5826C292.123 62.553 293.302 62.4937 293.898 62.4641C293.617 61.2795 292.446 60.8131 291.583 60.2134ZM300.084 65.3146C298.793 65.5441 299.221 67.9059 300.533 67.3432C301.662 67.01 301.269 64.9962 300.084 65.3146Z" fill="#9F152B"/>
<path d="M262.378 60.2867C263.346 60.2053 264.279 60.4274 264.805 61.3751C265.534 63.152 266.593 64.7512 267.806 66.2024C266.467 66.965 265.036 68.0311 263.458 67.35C263.044 65.0178 265.071 61.8415 262.378 60.2867Z" fill="#E91B38"/>
<path d="M259.63 60.9017C259.987 60.8203 260.71 60.6574 261.074 60.5759C261.004 61.9604 261.502 63.2487 262.035 64.4851C260.815 64.7517 258.62 65.6327 258.213 63.8188C258.599 62.8045 259.132 61.8642 259.63 60.9017Z" fill="#FB4E5C"/>
<path d="M81.4361 61.4792C82.5793 61.4643 83.7155 61.4495 84.8587 61.4421C84.7465 62.6045 84.5852 63.7669 84.3257 64.9145C84.3958 63.1894 84.6132 61.1682 82.2917 61.5162C82.3619 62.6934 82.425 63.8706 82.4951 65.0552C81.3519 64.8257 79.8651 65.0922 79.332 63.6929C79.5074 62.5823 80.5313 61.8938 81.4361 61.4792Z" fill="#FE5264"/>
<path d="M87.4891 61.8048L88.2465 61.4346C88.9619 62.3897 89.6703 63.3522 90.3787 64.3221C89.1934 64.8847 87.959 65.329 86.6475 65.329C86.8929 64.1518 86.8649 62.8487 87.4891 61.8048Z" fill="#EF5969"/>
<path d="M306.03 65.6025C307.559 65.0694 309.06 64.4327 310.491 63.6331C310.68 64.3142 310.87 64.9879 311.066 65.6617C310.014 65.6247 308.969 65.5877 307.924 65.5506C308.015 66.7426 308.661 67.7125 309.278 68.6676C308.359 68.3863 307.433 68.1123 306.521 67.8458C306.101 68.2234 305.694 68.601 305.28 68.9712C307.251 69.2747 309.215 69.6227 311.192 69.9485C310.891 70.4964 310.575 71.0443 310.26 71.5773C308.934 70.8444 307.054 69.4746 306.479 71.9179C307.005 72.0067 308.064 72.1844 308.59 72.2733C308.282 72.4954 307.672 72.947 307.37 73.1691C306.402 72.066 305.182 71.333 303.765 71.1479C305.175 72.6361 306.613 74.1909 308.541 74.9238C308.008 75.5606 307.482 76.1973 306.963 76.8488C306.255 75.5384 306.066 73.2358 304.116 73.7392C304.347 74.7536 304.656 75.7901 304.445 76.8488C303.779 75.6124 303.127 74.376 302.447 73.1617C302.404 73.68 302.306 74.7165 302.257 75.2274C301.71 75.3014 300.623 75.4347 300.083 75.5013L299.592 75.7309L299.466 75.0867C299.262 74.065 299.08 73.0359 298.926 72.0067C299.192 71.5995 299.466 71.1849 299.746 70.7777C299.824 72.1178 299.901 73.4653 299.985 74.8054C300.272 74.8424 300.847 74.909 301.135 74.9461C300.911 73.3098 300.819 71.6588 300.826 70.0003C301.724 69.5783 302.622 69.1489 303.527 68.7195C303.646 67.5719 303.772 66.4243 303.898 65.2767C304.572 64.9805 305.259 64.6844 305.946 64.4031L306.03 65.6025Z" fill="#B11233"/>
<path d="M300.083 65.3138C301.269 64.9954 301.661 67.0092 300.532 67.3424C299.221 67.9051 298.793 65.5433 300.083 65.3138Z" fill="#600004"/>
<path d="M294.367 72.7175C295.49 71.5551 296.682 70.489 298.007 69.5857C297.299 70.985 296.521 72.3399 295.623 73.606C294.29 74.2057 293.68 75.605 292.972 76.834C292.635 76.4638 291.955 75.7234 291.618 75.3533C291.878 74.0206 293.617 73.7614 294.367 72.7175Z" fill="#D63248"/>
<path d="M299.592 75.7318C298.365 77.0052 297.902 74.3621 299.466 75.0876L299.592 75.7318Z" fill="#FFA5AD"/>
<path d="M57.4434 75.5974C58.278 75.6789 59.1126 75.7677 59.9542 75.8565C59.4843 76.8709 59.0144 77.8852 58.5725 78.9143C59.7648 78.6182 60.9501 78.285 62.1424 77.9592C61.0553 79.6621 61.406 81.6685 61.0132 83.5269C60.8239 83.8452 60.4452 84.4968 60.2558 84.8152C59.8209 83.8601 59.3931 82.9124 59.0004 81.9351C58.804 81.2317 58.6076 80.5209 58.4182 79.8102C58.0465 78.4183 57.7379 77.0115 57.4434 75.5974Z" fill="#9E1026"/>
<path d="M301.921 75.3091C302.763 76.3234 303.576 77.3821 304.25 78.5297C303.331 78.8185 302.405 79.0924 301.486 79.359C301.606 78.0041 301.746 76.6566 301.921 75.3091Z" fill="#D74851"/>
<path d="M51.1309 78.5815C51.5797 77.2785 52.6388 76.664 53.9222 76.5603C53.9643 77.7227 54.0134 78.8925 54.0555 80.0549C54.6096 79.3589 55.1566 78.6556 55.6967 77.9522C56.0473 77.9226 56.7417 77.856 57.0924 77.8263C57.0924 78.8111 57.0994 79.8032 57.1064 80.7953C57.429 80.5509 58.0883 80.0549 58.4179 79.8106C58.6073 80.5213 58.8037 81.2321 59 81.9355C58.7265 82.3279 58.1724 83.0978 57.8919 83.4902C57.401 82.0169 56.924 80.5361 56.4541 79.0628C56.0824 79.2553 55.353 79.6551 54.9813 79.855C55.3179 81.4172 55.6406 82.9868 55.9351 84.5564C55.0584 83.7198 54.1888 82.8683 53.3261 82.0169C53.6417 82.0391 54.2729 82.0835 54.5885 82.1057C53.9784 81.1506 53.3682 80.1882 52.6668 79.2997C52.2811 79.122 51.5096 78.7592 51.1309 78.5815Z" fill="#D83C50"/>
<path d="M274.834 81.2832C273.151 81.0092 273.207 78.0181 274.778 77.6627C276.258 76.8409 276.882 78.7881 277.577 79.7358C276.756 80.3207 275.992 82.0532 274.834 81.2832Z" fill="#A32037"/>
<path d="M26.7586 79.368C28.5541 79.257 30.3215 79.5087 30.9176 81.5669C30.6301 82.3443 30.3495 83.1291 30.069 83.9139C28.505 84.1361 26.9129 84.1435 25.4541 83.4179C25.4962 82.4036 25.5383 81.3893 25.5803 80.3749C25.8749 80.1232 26.4641 79.6197 26.7586 79.368Z" fill="#AB1A34"/>
<path d="M52.6663 79.301C53.3676 80.1895 53.9778 81.152 54.588 82.1071C54.2724 82.0848 53.6412 82.0404 53.3256 82.0182C53.0661 81.7739 52.5471 81.2926 52.2876 81.0483C51.8457 81.7369 51.4039 82.418 50.969 83.1066C50.8077 82.344 50.6885 81.574 50.6113 80.7966C51.0953 80.0562 51.986 79.7897 52.6663 79.301Z" fill="#EA6673"/>
<path d="M54.981 79.8535C55.3528 79.6536 56.0822 79.2538 56.4539 79.0613C56.9238 80.5346 57.4007 82.0154 57.8917 83.4888C58.1722 83.0964 58.7263 82.3264 58.9998 81.934C59.3926 82.9113 59.8204 83.8589 60.2552 84.814C60.4446 84.4957 60.8233 83.8441 61.0127 83.5258C61.6299 82.5411 62.0717 81.4453 62.5206 80.3718C63.4323 81.0751 64.3301 81.7859 65.2769 82.43C64.8421 82.6521 63.9654 83.1038 63.5235 83.3333C62.7731 83.9552 62.0787 84.6438 61.3774 85.3175C62.5346 85.547 63.6918 85.7691 64.8491 85.9838C63.9233 86.4355 62.9975 86.8945 62.0787 87.3609C63.4323 88.738 65.3681 88.7677 67.1144 89.0786C67.0163 89.7079 66.8339 90.9592 66.7427 91.5811C66.1045 91.4849 64.828 91.2924 64.1898 91.2035C64.7719 91.8625 65.347 92.5214 65.9151 93.1951C65.7749 93.2766 65.4943 93.4395 65.3611 93.5209C65.0525 94.054 64.4493 95.1201 64.1407 95.6532C64.6036 95.6976 65.5294 95.7865 65.9993 95.8309C64.7719 98.1853 63.3201 94.5722 62.3733 93.6912C61.9104 93.0174 61.4405 92.3511 60.9706 91.6922C61.16 93.21 61.3563 94.7351 61.5597 96.2529C60.9566 96.5491 60.3604 96.8452 59.7572 97.1414L59.1821 95.705C59.1751 94.6241 59.1751 93.5431 59.112 92.4696C59.0559 91.1739 59.0068 89.8856 58.9577 88.59C59.7011 88.938 60.4446 89.2933 61.188 89.6413C61.3633 88.9528 61.5387 88.2716 61.714 87.5831C61.0057 87.7163 60.2973 87.8422 59.5889 87.9755C59.0278 86.6798 58.5088 85.3619 58.053 84.0144C57.7163 83.9182 57.036 83.7183 56.6993 83.622C56.8607 84.6067 57.029 85.5914 57.1973 86.5761C56.5801 86.3762 55.9699 86.1763 55.3598 85.9764C55.0933 86.3022 54.5672 86.9537 54.3077 87.2869C55.3808 87.6793 56.6783 87.7607 57.5059 88.664C57.9127 89.5303 58.2073 90.4483 58.5369 91.3516C58.1021 93.247 57.8566 95.1868 57.9057 97.134C57.3376 97.0821 56.1874 96.9785 55.6193 96.9267C55.9138 95.2164 56.2154 93.5135 56.4819 91.8032C55.458 92.973 54.4691 94.1947 53.7116 95.5792C53.1014 95.4237 51.8811 95.1053 51.2709 94.9498C51.4462 94.5426 51.7969 93.7282 51.9722 93.321C53.2417 92.514 54.3638 91.4923 55.3878 90.3669C53.7958 90.7445 52.2177 91.2479 50.5976 91.5071C50.4012 91.0777 50.0155 90.2262 49.8191 89.8042C51.3059 89.3822 52.7928 88.9454 54.2306 88.3605C52.898 87.9088 51.5164 87.5238 50.1066 87.6645C49.4614 86.9537 48.8161 86.2578 48.1709 85.5544C48.7811 85.4286 49.9944 85.1842 50.6046 85.0584C51.7478 85.7987 53.0944 85.9394 54.3989 86.0801C53.5503 84.74 52.2808 83.8589 50.9693 83.1038C51.4041 82.4152 51.846 81.7341 52.2878 81.0455C52.5473 81.2898 53.0663 81.7711 53.3258 82.0154C54.1885 82.8668 55.0582 83.7183 55.9349 84.5549C55.6403 82.9853 55.3177 81.4157 54.981 79.8535Z" fill="#9F152C"/>
<path d="M47.6454 81.3215C49.0832 80.3812 49.7916 82.6394 50.9698 83.1058C52.2814 83.861 53.5508 84.742 54.3995 86.0821C53.0949 85.9415 51.7483 85.8008 50.6051 85.0604C50.4088 84.7865 50.016 84.2386 49.8126 83.9646C48.9219 83.861 48.0382 83.7721 47.1475 83.6833C47.2737 83.091 47.5192 81.9138 47.6454 81.3215Z" fill="#DE354B"/>
<path d="M61.377 85.3206C62.0783 84.6469 62.7726 83.9583 63.5231 83.3364C64.0842 83.6696 64.6523 84.0028 65.2204 84.3359C65.3326 85.1504 65.4939 85.95 65.6342 86.757C65.5991 87.0827 65.529 87.7343 65.4939 88.06C66.5459 88.1785 67.5909 88.3044 68.643 88.4228C68.664 88.6449 68.6991 89.0966 68.7201 89.3187C68.3133 89.2595 67.5138 89.141 67.114 89.0818C65.3677 88.7708 63.4319 88.7412 62.0783 87.3641C62.9971 86.8976 63.9229 86.4386 64.8487 85.987C63.6914 85.7723 62.5342 85.5502 61.377 85.3206Z" fill="#C2263F"/>
<path d="M56.6992 83.6238C57.0359 83.72 57.7162 83.9199 58.0528 84.0162C58.5087 85.3637 59.0277 86.6815 59.5888 87.9772C60.2972 87.8439 61.0055 87.7181 61.7139 87.5848C61.5386 88.2734 61.3632 88.9545 61.1879 89.6431C60.4445 89.2951 59.701 88.9397 58.9576 88.5917C59.0067 89.8874 59.0558 91.1756 59.1119 92.4713L58.5368 91.3533C58.2071 90.4501 57.9126 89.532 57.5058 88.6658C56.6782 87.7625 55.3807 87.6811 54.3076 87.2887C54.5671 86.9555 55.0931 86.304 55.3596 85.9782C55.9698 86.1781 56.58 86.378 57.1972 86.5779C57.0289 85.5932 56.8605 84.6085 56.6992 83.6238Z" fill="#7C0516"/>
<path d="M65.2207 84.3343C65.4732 84.2158 65.9852 83.9715 66.2377 83.853L66.5112 84.4231C67.0302 85.1635 66.932 87.392 65.6345 86.7553C65.4942 85.9483 65.3329 85.1487 65.2207 84.3343Z" fill="#9E2028"/>
<path d="M45.8145 87.2659C47.2101 87.6731 48.6549 87.9174 50.1067 87.6657C51.5165 87.525 52.8981 87.91 54.2307 88.3616C52.7929 88.9465 51.3061 89.3834 49.8192 89.8054C50.0156 90.2274 50.4013 91.0788 50.5977 91.5083C52.2178 91.2491 53.7959 90.7457 55.3879 90.3681C54.364 91.4934 53.2418 92.5152 51.9723 93.3222C50.4785 93.8108 49.3212 94.877 48.4796 96.2467C47.6099 95.6544 47.2101 94.6697 46.9156 93.6554C48.0658 93.5147 49.23 93.3814 50.3662 93.1297C50.1909 92.8261 49.8332 92.2264 49.6579 91.9229C49.3493 91.9599 48.7251 92.0265 48.4095 92.0635C48.4235 91.7378 48.4586 91.0788 48.4726 90.7531C49.1108 90.2274 49.5457 89.5611 49.7841 88.7466C48.5848 89.0576 47.4346 89.5166 46.3335 90.0867C46.109 89.1538 45.9407 88.2136 45.8145 87.2659Z" fill="#E0203C"/>
<path d="M68.6436 88.4222C69.0363 87.1191 71.4069 86.9636 70.9791 88.7553C71.3578 90.5026 69.1766 90.8062 68.7207 89.318C68.6997 89.0959 68.6646 88.6443 68.6436 88.4222Z" fill="#E82F54"/>
<path d="M311.361 90.5018C313.016 89.3394 315.513 91.1977 315.232 93.2264C315.59 95.9139 311.564 97.1282 310.301 94.907C309.263 93.5373 309.712 91.0793 311.361 90.5018Z" fill="#F3515B"/>
<path d="M266.664 91.9902C268.901 90.391 272.225 92.5751 271.72 95.47C271.755 98.9276 267.098 99.8013 265.429 97.1581C264.875 95.4034 264.854 92.9379 266.664 91.9902Z" fill="#F2535D"/>
<path d="M65.3613 93.5218C65.4946 93.4404 65.7751 93.2775 65.9154 93.196C67.1919 93.3515 68.4403 93.6699 69.6957 93.9438C69.3099 94.9433 68.798 95.8836 68.2018 96.7721C67.3181 95.6245 66.3853 94.5213 65.3613 93.5218Z" fill="#D83A45"/>
<path d="M286.8 105.939C287.677 105.465 288.546 105.472 289.416 105.961C289.114 106.99 288.701 107.982 288.322 108.989C289.381 108.997 290.426 109.011 291.492 109.026C291.064 109.959 290.657 110.907 290.272 111.862C291.127 111.521 291.857 110.929 292.551 110.314C293.301 111.018 294.045 111.729 294.823 112.41C294.073 113.394 293.336 114.394 292.586 115.379C293.673 114.786 294.774 114.231 295.889 113.691C296.072 114.823 296.261 115.964 296.45 117.104C295.09 117.044 293.701 117.104 292.46 117.763C293.386 118.34 294.634 119.932 294.992 117.807C295.321 118.007 295.988 118.399 296.317 118.592L296.717 118.836C296.71 119.443 296.696 120.65 296.689 121.25C296.969 121.176 297.538 121.013 297.818 120.939C297.769 121.428 297.664 122.412 297.615 122.901C296.647 122.249 295.693 121.568 294.788 120.828C293.729 120.413 292.621 120.139 291.534 119.858C292.411 121.124 293.407 122.294 294.494 123.375C294.171 123.967 293.848 124.559 293.533 125.152C293.077 124.967 292.172 124.582 291.723 124.389C291.948 125.166 292.179 125.944 292.404 126.721H291.969C291.534 126.736 290.678 126.766 290.251 126.788C290.405 127.669 290.573 128.55 290.748 129.431C290.538 129.438 290.11 129.446 289.9 129.453C289.76 128.424 289.598 127.402 289.423 126.388C289.213 125.189 288.939 124.004 288.665 122.819C288.125 123.552 287.585 124.285 287.052 125.026C287.298 125.477 287.803 126.381 288.048 126.832L288.273 127.24L287.754 127.336C287.08 127.417 285.734 127.587 285.061 127.669L285.152 126.07C285.201 125.1 285.257 124.13 285.313 123.167C284.675 124.063 284.044 124.974 283.419 125.885C283.013 125.714 282.199 125.381 281.792 125.211C281.582 125.877 281.252 126.433 280.796 126.884C280.375 126.403 279.969 125.907 279.576 125.403C280.018 125.396 280.908 125.381 281.357 125.374C281.392 124.885 281.456 123.915 281.491 123.427C282.409 122.745 283.307 122.049 284.191 121.316C282.83 121.316 281.498 121.568 280.382 122.434C279.26 121.516 279.288 120.065 279.246 118.718C278.033 119.11 276.827 119.51 275.613 119.888C275.704 118.992 275.803 118.096 275.915 117.207C276.707 117.6 277.521 117.94 278.363 118.214C280.495 119.014 278.573 115.823 278.384 115.031C278.91 115.045 279.955 115.075 280.481 115.09C279.99 113.357 278.012 113.713 276.721 113.328C277.114 112.439 277.619 111.603 278.377 111.018C279.015 111.906 279.429 113.076 280.404 113.631C280.901 112.913 280.733 111.181 281.883 111.284C282.388 111.292 283.405 111.314 283.917 111.321C283.125 110.055 281.287 109.226 281.315 107.538C281.862 107.368 282.949 107.035 283.497 106.864C283.447 107.619 283.356 109.137 283.314 109.9C284.247 109.537 285.187 109.204 286.141 108.893C286.632 109.693 287.115 110.5 287.585 111.321C287.649 110.248 287.712 109.174 287.768 108.101C287.417 107.39 287.094 106.672 286.8 105.939ZM287.494 115.645C287.073 116.704 286.667 117.77 286.267 118.836C285.86 119.021 285.054 119.391 284.654 119.584C284.934 120.154 285.229 120.717 285.544 121.279C286.155 120.776 286.498 120.036 286.926 119.369C287.656 119.095 288.385 118.807 289.107 118.51C289.213 117.23 288.266 116.423 287.494 115.645Z" fill="#A2142D"/>
<path d="M43.6407 108.381C44.5665 108.011 46.0464 108.241 45.9903 109.566C46.5654 111.091 44.7489 112.698 43.5005 111.55C42.1539 110.973 42.3292 108.877 43.6407 108.381Z" fill="#F25160"/>
<path d="M58.1871 111.788C60.7541 110.196 64.5063 112.203 64.1767 115.497C64.345 118.726 60.2491 120.643 57.9837 118.585C55.7674 116.986 56.0901 113.328 58.1871 111.788Z" fill="#9D1A2E"/>
<path d="M287.494 115.646C288.265 116.424 289.212 117.231 289.107 118.512C288.385 118.808 287.655 119.096 286.926 119.37C286.498 120.037 286.154 120.777 285.544 121.281C285.228 120.718 284.934 120.155 284.653 119.585C285.053 119.393 285.86 119.022 286.266 118.837C286.666 117.771 287.073 116.705 287.494 115.646Z" fill="#75030F"/>
<path d="M291.533 119.858C292.62 120.139 293.728 120.413 294.787 120.828C293.974 123.397 297.579 123.952 299.297 124.071C298.94 125.048 298.491 125.988 297.663 126.618C296.885 125.655 296.33 124.374 295.215 123.797C294.837 124.137 294.072 124.826 293.693 125.166C294.233 125.403 295.321 125.877 295.868 126.114C295.313 126.536 294.759 126.958 294.212 127.38C294.016 126.877 293.623 125.855 293.427 125.352L293.532 125.152C293.848 124.559 294.17 123.967 294.493 123.375C293.406 122.294 292.41 121.124 291.533 119.858Z" fill="#D12030"/>
<path d="M280.382 122.435C281.497 121.568 282.83 121.317 284.191 121.317C283.307 122.05 282.409 122.746 281.49 123.427C280.053 124.241 278.776 125.3 277.647 126.544C277.289 125.589 276.932 124.641 276.588 123.686C277.92 123.53 279.281 123.316 280.382 122.435Z" fill="#DD3449"/>
<path d="M287.052 125.026C287.585 124.285 288.125 123.552 288.665 122.819C288.938 124.004 289.212 125.189 289.422 126.388C289.079 126.499 288.391 126.721 288.048 126.832C287.802 126.381 287.297 125.477 287.052 125.026Z" fill="#CB233F"/>
<path d="M283.419 125.885C284.043 124.975 284.674 124.064 285.312 123.168C285.256 124.131 285.2 125.101 285.151 126.07C283.587 126.929 283.398 128.743 283.082 130.372C281.897 130.92 281.174 129.869 280.424 129.121C281.56 128.195 282.64 127.174 283.419 125.885Z" fill="#DE3749"/>
<path d="M28.4841 126.685C29.2275 126.581 29.9779 126.485 30.7214 126.381C30.4619 127.41 30.1954 128.439 29.9359 129.468C30.6232 129.328 31.9978 129.054 32.6852 128.921C32.2363 130.298 31.8856 131.719 31.7454 133.178C32.8395 131.697 34.0037 130.098 33.9827 128.128L34.1861 128.173C34.7191 128.269 35.7851 128.469 36.3182 128.565C35.5397 129.135 34.7682 129.705 33.9967 130.283C34.4736 131.053 34.9505 131.83 35.4275 132.608C35.0838 132.867 34.3965 133.385 34.0598 133.644C33.3935 134.103 32.7132 134.548 32.0329 134.97C30.6863 134.533 29.3327 134.148 27.9721 133.778C28.3578 136.169 28.7576 138.568 29.1574 140.959C29.494 141.026 30.1673 141.159 30.504 141.226C30.6021 140.796 30.8126 139.945 30.9178 139.515C31.6261 139.412 32.3415 139.301 33.0499 139.182C32.061 140.374 31.5279 141.855 31.1352 143.365C31.7033 143.75 32.8395 144.52 33.4005 144.905C32.9517 145.024 32.0399 145.261 31.584 145.379C31.6892 146.216 31.7874 147.053 31.8996 147.897C31.7103 147.919 31.3316 147.956 31.1422 147.978C31.0089 147.282 30.7424 145.898 30.6162 145.202C30.3076 144.313 29.9499 143.447 29.6062 142.581C29.3888 143.573 29.1924 144.572 28.996 145.572L28.9259 145.905L27.432 146.09C27.2847 144.669 27.1655 143.247 27.0533 141.825C26.4852 142.766 25.9101 143.699 25.3069 144.624C24.844 144.417 23.9112 144.01 23.4413 143.81C23.3852 144.35 23.259 145.424 23.2029 145.964C22.9293 145.313 22.6348 144.683 22.3262 144.054C22.5857 143.98 23.0907 143.824 23.3431 143.75L23.7499 142.492C24.5775 141.803 25.3911 141.107 26.1906 140.389C24.802 140.545 23.4413 140.885 22.2841 141.759C22.2911 140.752 22.2841 139.752 22.2841 138.76C22.9644 138.812 23.6447 138.871 24.325 138.931C24.5284 138.649 24.9352 138.079 25.1386 137.798C24.1497 137.59 23.1608 137.391 22.1719 137.183L21.0146 136.243C21.4705 136.013 22.3823 135.547 22.8382 135.318C23.9112 135.628 24.9983 135.895 26.0854 136.147C25.2368 135.11 24.3952 134.051 23.3922 133.17L22.775 132.608C23.1327 132.371 23.8411 131.897 24.1988 131.653C24.7248 131.964 25.7698 132.578 26.2958 132.882C26.0083 132.089 25.7207 131.297 25.4262 130.512C26.1275 130.179 26.8289 129.846 27.5232 129.513C28.2035 130.831 28.8979 132.149 29.6273 133.437C29.6553 131.453 29.9148 129.313 28.947 127.499L28.4841 126.685Z" fill="#9C112A"/>
<path d="M23.4633 130.156C22.6848 128.631 23.6737 126.839 25.378 127.572C25.5323 127.994 25.8479 128.846 26.0093 129.268C26.9771 128.668 27.959 128.076 28.9479 127.498C29.9158 129.312 29.6563 131.452 29.6282 133.436C28.8988 132.148 28.2045 130.83 27.5242 129.512C26.8298 129.845 26.1285 130.179 25.4271 130.512C25.7217 131.297 26.0093 132.089 26.2968 132.881C25.7708 132.577 24.7258 131.963 24.1998 131.652C23.8421 131.896 23.1337 132.37 22.776 132.607C22.6989 132.237 22.5516 131.482 22.4814 131.111C22.7269 130.867 23.2179 130.393 23.4633 130.156Z" fill="#E55D6E"/>
<path d="M293.561 133.835C296.759 131.103 300.701 128.815 304.951 129.222C310.393 128.83 315.394 132.154 318.662 136.508C321.811 141.698 322.127 148.887 319.202 154.262C315.534 162.325 304.888 165.449 297.664 160.918C293.449 159.089 289.781 154.921 289.851 149.886C290.11 148.043 290.145 146.088 288.96 144.578C289.612 140.676 291.085 136.833 293.561 133.835Z" fill="#F59797"/>
<path d="M19.1074 132.954C19.7246 132.251 20.3699 131.584 21.0642 130.977C21.2746 131.436 21.6814 132.347 21.8848 132.806C22.2635 132.895 23.014 133.08 23.3927 133.169C24.3956 134.05 25.2372 135.109 26.0859 136.145C24.9988 135.893 23.9117 135.627 22.8386 135.316C22.0882 133.798 20.5242 133.406 19.1074 132.954Z" fill="#DE3950"/>
<path d="M36.2061 133.577C36.9284 132.888 37.6719 132.207 38.5065 131.674C39.3832 131.844 39.5094 133.11 40.0495 133.732C38.9133 134.043 37.7771 134.362 36.6339 134.628C36.5287 134.369 36.3183 133.836 36.2061 133.577Z" fill="#E52841"/>
<path d="M19.1074 132.955C20.5242 133.406 22.0882 133.799 22.8386 135.316C22.3827 135.546 21.471 136.012 21.0151 136.242C19.4651 136.982 20.461 134.939 20.6013 134.184C20.2226 133.873 19.4791 133.258 19.1074 132.955Z" fill="#EA6571"/>
<path d="M27.9717 133.777C29.3323 134.147 30.6859 134.532 32.0325 134.969C32.3902 136.642 33.2108 138.086 34.6836 138.907C34.1366 138.989 33.5965 139.085 33.0495 139.181C32.3411 139.3 31.6257 139.411 30.9174 139.515C30.8122 139.944 30.6018 140.795 30.5036 141.225C30.1669 141.158 29.4936 141.025 29.157 140.958C28.7572 138.567 28.3574 136.168 27.9717 133.777Z" fill="#890623"/>
<path d="M32.0325 134.97C32.7128 134.548 33.3931 134.104 34.0594 133.645C34.2277 134.03 34.5784 134.785 34.7537 135.17C34.6485 135.385 34.4522 135.814 34.347 136.029C35.3008 136.147 36.2546 136.273 37.2085 136.421L37.2646 136.54C36.935 136.814 36.2827 137.354 35.9601 137.621L35.8338 138.22C35.6795 139.153 36.0933 139.686 37.0682 139.812C37.6994 140.412 38.1413 141.182 38.5691 141.944C37.482 141.3 36.3388 140.797 35.1325 140.471C35.2377 140.826 35.4551 141.552 35.5673 141.907C34.9501 141.826 34.3329 141.745 33.7157 141.663C33.7508 142.137 33.7859 142.618 33.828 143.092C33.7228 143.551 33.5124 144.454 33.4001 144.906C32.8391 144.521 31.7029 143.751 31.1348 143.366C31.5275 141.856 32.0606 140.375 33.0495 139.183C33.5965 139.087 34.1366 138.99 34.6836 138.909C33.2108 138.087 32.3902 136.643 32.0325 134.97Z" fill="#C5133E"/>
<path d="M34.7544 135.168C35.1191 134.768 35.8415 133.969 36.2062 133.576C36.3185 133.836 36.5289 134.369 36.6341 134.628C36.7813 135.079 37.0689 135.975 37.2092 136.419C36.2553 136.271 35.3015 136.146 34.3477 136.027C34.4529 135.812 34.6492 135.383 34.7544 135.168Z" fill="#9F0D1B"/>
<path d="M35.9609 137.619C36.2836 137.353 36.9358 136.812 37.2655 136.538C37.3356 136.805 37.4829 137.345 37.56 137.612C37.1603 137.612 36.3607 137.619 35.9609 137.619Z" fill="#FD97A0"/>
<path d="M39.3833 139.388C38.0858 138.381 39.1027 136.864 40.4704 137.323C40.4563 137.804 40.4213 138.759 40.4002 139.24C40.1477 139.277 39.6357 139.351 39.3833 139.388Z" fill="#E2223A"/>
<path d="M35.8342 138.219C36.1989 138.471 36.9353 138.982 37.307 139.234L37.0686 139.811C36.0937 139.685 35.6799 139.152 35.8342 138.219Z" fill="#880811"/>
<path d="M28.9957 145.57C29.1921 144.571 29.3885 143.571 29.6059 142.579C29.9496 143.445 30.3073 144.312 30.6159 145.2C30.0408 146.866 30.3494 148.635 30.4265 150.353C29.8444 150.294 28.6731 150.175 28.084 150.109C28.4206 148.724 28.6801 147.31 28.9256 145.903L28.9957 145.57Z" fill="#E44256"/>
<path d="M35.6663 144.379C36.564 144.89 36.543 145.386 35.6032 145.882C34.7055 145.371 34.7265 144.867 35.6663 144.379Z" fill="#C95D60"/>
<path d="M282.871 147.998C282.458 144.585 286.476 142.786 288.959 144.577C290.144 146.088 290.109 148.042 289.85 149.886C287.893 152.67 282.97 151.7 282.871 147.998Z" fill="#9B1B2E"/>
<path d="M33.4286 148.036C32.8535 146.925 33.7793 146.118 34.2492 145.274C34.8243 146.267 35.4064 147.251 35.9886 148.243C35.2311 148.421 33.1761 149.946 33.4286 148.036Z" fill="#D53E50"/>
<path d="M59.3443 153.137C60.3893 151.96 61.9743 152.234 63.335 152.197C63.1386 153.537 63.7137 155.425 62.2829 156.18C60.6207 158.002 58.0888 154.922 59.3443 153.137Z" fill="#860B1D"/>
<path d="M277.851 156.498C279.176 155.225 281.329 156.024 281.961 157.683C282.992 159.852 280.319 162.444 278.335 161.274C276.588 160.489 276.245 157.624 277.851 156.498Z" fill="#F24F59"/>
<path d="M289.766 164.072C288.321 162.932 290.264 160.408 291.632 161.259C293.21 161.6 292.593 163.436 292.628 164.635C291.667 164.532 290.397 165.131 289.766 164.072Z" fill="#FF4E5C"/>
</svg>
