<svg width="240" height="240" viewBox="0 0 240 240" fill="none" xmlns="http://www.w3.org/2000/svg">
<g clip-path="url(#clip0)">
<path d="M214.985 168.779C207.459 168.616 200.282 165.572 194.935 160.275C191.429 156.769 186.122 162.067 189.631 165.578C200.474 176.422 214.435 176.225 214.638 176.271C230.562 177.002 238.645 196.622 227.008 208.259C215.42 219.847 195.756 211.896 195.021 195.894C194.811 186.491 190.981 177.532 184.329 170.882L174.276 160.828C173.909 160.461 173.47 160.174 172.986 159.985C172.502 159.797 171.984 159.711 171.466 159.733C170.947 159.755 170.438 159.885 169.972 160.113C169.506 160.342 169.093 160.665 168.758 161.062C154.602 177.853 144.79 175.343 146.047 181.38C151.691 208.473 161.25 213.486 161.25 221.25C161.257 222.794 160.942 224.323 160.326 225.739C159.711 227.155 158.807 228.428 157.674 229.476C150.759 235.931 139.409 231.434 138.777 222.036C138.487 217.745 143.247 204.715 139.236 185.462C139.164 185.116 139.377 185.864 134.827 171.375C133.34 166.647 126.183 168.888 127.672 173.625L131.931 187.172C135.686 205.451 130.862 216.141 131.293 222.541C131.625 227.393 133.829 231.927 137.439 235.185C141.05 238.443 145.786 240.17 150.646 240.002C155.506 239.835 160.112 237.785 163.489 234.286C166.867 230.788 168.753 226.113 168.75 221.25C168.75 210.127 160.105 208.462 154.005 182.625C160.619 179.036 166.619 174.415 171.779 168.937L179.026 176.184C187.775 184.933 187.473 195.98 187.528 196.229C188.553 218.534 216.021 229.851 232.311 213.56C248.414 197.459 237.535 169.815 214.985 168.779Z" fill="#E85D52"/>
<path d="M120 183.75C104.824 183.749 90.147 178.334 78.6062 168.48C77.8887 167.866 76.9663 167.546 76.0231 167.583C75.0799 167.62 74.1854 168.011 73.518 168.679C67.698 175.84 53.2708 183.679 52.488 203.119L52.4791 203.311C51.8116 216.078 36.0377 222.386 26.8159 213.028C18.167 204.252 23.2919 189.54 35.1259 187.687L35.2839 187.663C41.7673 186.762 47.7827 183.78 52.4247 179.165C55.9305 175.66 50.6327 170.353 47.1217 173.862C41.4002 179.581 34.1697 180.216 33.9733 180.276C16.3066 183.041 8.42314 205.05 21.4741 218.291C35.1058 232.125 58.9459 223.276 59.9688 203.704L59.9814 203.423C60.5992 188.088 71.8745 181.988 76.4298 176.372C80.4236 179.458 84.7345 182.11 89.2895 184.284L82.8962 197.071C82.611 197.642 82.4764 198.277 82.5052 198.916C82.534 199.554 82.7253 200.174 83.0609 200.718C83.3964 201.262 83.8652 201.711 84.4228 202.023C84.9804 202.334 85.6084 202.499 86.2473 202.5C90.2205 202.5 90.0287 198.216 96.2359 187.163C101.236 188.932 106.417 190.138 111.685 190.758L105.089 220.436C104.013 225.277 111.334 226.909 112.411 222.062L119.26 191.242C125.531 191.306 124.715 183.75 120 183.75Z" fill="#E85D52"/>
<path d="M49.1449 127.52C49.8423 134.164 51.4758 140.676 53.9969 146.862L36.1071 154.018C35.1836 154.387 34.4447 155.108 34.0529 156.023C33.6611 156.937 33.6485 157.969 34.0179 158.893C34.3872 159.816 35.1083 160.555 36.0224 160.947C36.9366 161.339 37.9689 161.351 38.8924 160.982L57.1961 153.66C58.8727 156.787 60.78 159.784 62.9022 162.627C65.8085 166.514 71.9093 162.149 68.9088 158.135C61.393 148.101 57.0222 136.064 56.3496 123.545C56.11 119.174 50.891 120.092 50.5549 120C32.3121 120 24.919 127.5 18.7497 127.5C17.2055 127.507 15.6768 127.192 14.2606 126.576C12.8444 125.961 11.5717 125.058 10.5232 123.924C2.13255 114.934 12.505 100.615 23.7175 106.154C39.4736 113.935 51.2613 112.281 53.4363 112.5C54.3233 112.5 55.1816 112.186 55.8587 111.613C56.5358 111.04 56.9879 110.245 57.1347 109.371C58.6075 100.726 61.843 92.4767 66.64 85.1359C71.437 77.795 77.6929 71.5196 85.0188 66.6998C85.4839 66.3938 85.8751 65.9881 86.1639 65.5122C86.4527 65.0362 86.632 64.5019 86.6886 63.948C86.7451 63.3942 86.6777 62.8347 86.4911 62.3101C86.3046 61.7855 86.0035 61.3091 85.6099 60.9154L80.3599 55.6654C69.4943 44.7998 55.5597 45.0248 55.3572 44.9779C39.4361 44.2467 31.3549 24.6253 42.9935 12.9895C54.5749 1.41135 74.245 9.34353 74.9796 25.3673C75.1893 34.7651 79.0178 43.7194 85.6671 50.3638C89.1729 53.8696 94.4796 48.5713 90.9705 45.0609C82.2241 36.3145 82.5269 25.2707 82.4716 25.0209C81.4516 2.77588 54.0147 -8.63537 37.6905 7.68556C35.0943 10.2881 33.0717 13.4054 31.7531 16.8369C30.4345 20.2683 29.8491 23.9379 30.0344 27.6093C30.7099 40.9363 41.6833 51.8568 55.0099 52.4695C62.5337 52.6381 69.7079 55.6793 75.0607 60.9693L77.1597 63.0684C74.0094 65.4462 71.0617 68.0813 68.3472 70.9467L54.7497 60.7499C50.7846 57.7753 46.2771 63.7706 50.2497 66.7499L63.4685 76.6631C60.5071 80.526 57.947 84.6805 55.8279 89.0624L28.2372 71.8199C24.0344 69.1949 20.051 75.5479 24.2622 78.1799L52.8869 96.0707C51.8421 98.9879 50.9907 101.971 50.3383 105C49.9699 104.956 39.4633 105.567 27.0415 99.4298C8.45317 90.2484 -9.00026 113.996 5.0402 129.041C6.79702 130.918 8.91991 132.416 11.2778 133.44C13.6358 134.465 16.1787 134.996 18.7497 135C27.6222 135 32.3946 128.004 49.1449 127.52Z" fill="#E85D52"/>
<path d="M98.3676 60.0164C104.186 57.9198 110.28 56.6844 116.455 56.3494C120.825 56.1108 119.908 50.8912 120 50.5551C120 41.5514 117.844 32.4792 113.592 23.5903C112.561 21.4315 112.246 19 112.693 16.6497C113.14 14.2994 114.325 12.1531 116.077 10.5234C125.066 2.13279 139.385 12.5053 133.846 23.7178C129.635 32.242 127.5 40.9908 127.5 49.7208C127.744 51.0333 126.287 56.408 130.629 57.1369C155.771 61.3556 160.131 75.3839 164.858 69.4266C165.476 68.6474 165.76 67.6547 165.646 66.6667C165.532 65.6787 165.03 64.7764 164.251 64.1583C160.069 60.8434 155.528 58.0094 150.712 55.7095L157.104 42.9272C159.321 38.4933 152.616 35.1323 150.396 39.5728L143.766 52.8314C140.9 51.813 137.972 50.9804 135 50.3386V49.7208C135 32.002 143.146 27.6019 142.453 17.4483C142.132 12.9431 140.198 8.70453 137.006 5.50879C133.815 2.31304 129.578 0.374025 125.074 0.0468545C110.594 -0.954395 100.709 14.0372 106.828 26.8265C110.369 34.2276 112.266 41.729 112.482 49.1456C106.796 49.7412 101.203 51.0223 95.8246 52.9612C91.1517 54.6459 93.7031 61.6987 98.3676 60.0164Z" fill="#E85D52"/>
<path d="M186.563 112.5C188.056 112.346 201.662 113.147 216.411 106.092C218.57 105.061 221.001 104.746 223.351 105.193C225.702 105.64 227.848 106.825 229.478 108.577C237.737 117.426 227.79 131.636 216.569 126.483C207.429 122.231 197.474 120.019 187.395 120C180.474 120 186.837 129.397 176.768 149.038C174.505 153.454 181.179 156.874 183.443 152.46C185.039 149.345 186.404 146.115 187.524 142.799C205.855 150.028 204.961 150 206.25 150C210.354 150 211.47 144.298 207.644 142.767L189.555 135.532C190.136 132.914 190.568 130.264 190.849 127.597C209.449 128.656 212.885 135.613 222.553 134.956C238.22 133.891 245.722 114.988 234.961 103.46C232.238 100.547 228.659 98.5763 224.742 97.8335C220.825 97.0907 216.773 97.6142 213.174 99.3282C205.797 102.785 197.791 104.696 189.649 104.944C189.01 101.99 188.183 99.0809 187.173 96.233L207.927 85.8558C212.362 83.6386 209.015 76.9285 204.573 79.148L184.292 89.2885C182.397 85.3229 180.138 81.5411 177.545 77.9916C186.311 70.479 190.779 60.7477 203.867 59.9625L204.124 59.9457C208.444 59.633 212.581 58.0804 216.04 55.4742C219.499 52.8681 222.132 49.3192 223.623 45.2535C225.115 41.1877 225.401 36.778 224.448 32.5534C223.495 28.3289 221.343 24.4691 218.251 21.4374C215.158 18.4057 211.257 16.3309 207.014 15.462C202.772 14.593 198.368 14.967 194.333 16.5388C190.298 18.1107 186.802 20.8138 184.265 24.3235C181.728 27.8333 180.258 32.0006 180.031 36.3254C179.905 41.1258 177.961 45.6995 174.593 49.1222C171.087 52.6271 176.385 57.9347 179.896 54.4252C187.534 46.7879 187.492 36.8283 187.52 36.7064C188.176 24.0057 203.829 17.6161 213.107 26.8965C222.148 35.9391 216.403 51.5527 203.591 52.463L203.423 52.4738C186.318 53.5008 180.369 66.1261 169.916 75.0118C169.261 75.6661 168.872 76.5393 168.823 77.4634C168.773 78.3874 169.067 79.2972 169.648 80.0175C185.672 99.8841 179.612 112.5 186.563 112.5Z" fill="#E85D52"/>
<path d="M142.501 120C147.472 119.994 152.238 118.017 155.753 114.502C159.268 110.987 161.245 106.221 161.251 101.25C161.251 83.8126 138.751 77.7015 138.751 86.2501C138.751 87.2446 139.146 88.1985 139.849 88.9017C140.552 89.605 141.506 90.0001 142.501 90.0001C144.726 90.0001 146.901 90.6599 148.751 91.896C150.601 93.1322 152.043 94.8892 152.894 96.9449C153.746 99.0006 153.969 101.263 153.535 103.445C153.1 105.627 152.029 107.632 150.456 109.205C148.882 110.778 146.878 111.85 144.696 112.284C142.513 112.718 140.251 112.495 138.196 111.644C136.14 110.792 134.383 109.35 133.147 107.5C131.911 105.65 131.251 103.475 131.251 101.25C131.251 100.256 130.856 99.3017 130.152 98.5984C129.449 97.8952 128.495 97.5001 127.501 97.5001C118.953 97.5001 125.067 120 142.501 120Z" fill="#E85D52"/>
<path d="M93.75 135C93.75 135.995 94.1451 136.948 94.8483 137.652C95.5516 138.355 96.5054 138.75 97.5 138.75C98.9834 138.75 100.433 139.19 101.667 140.014C102.9 140.838 103.861 142.009 104.429 143.38C104.997 144.75 105.145 146.258 104.856 147.713C104.567 149.168 103.852 150.504 102.803 151.553C101.754 152.602 100.418 153.317 98.9632 153.606C97.5083 153.895 96.0003 153.747 94.6299 153.179C93.2594 152.612 92.0881 151.65 91.264 150.417C90.4399 149.183 90 147.733 90 146.25C90 141.293 82.5 141.285 82.5 146.25C82.5 150.228 84.0804 154.044 86.8934 156.857C89.7064 159.67 93.5218 161.25 97.5 161.25C101.478 161.25 105.294 159.67 108.107 156.857C110.92 154.044 112.5 150.228 112.5 146.25C112.5 131.946 93.75 127.125 93.75 135Z" fill="#E85D52"/>
<path d="M86.2508 95.625C86.2508 94.6304 85.8557 93.6766 85.1525 92.9733C84.4492 92.2701 83.4954 91.875 82.5008 91.875C74.8949 91.875 79.2022 108.75 91.8758 108.75C95.3568 108.75 98.6952 107.367 101.157 104.906C103.618 102.444 105.001 99.106 105.001 95.625C105.001 92.144 103.618 88.8056 101.157 86.3442C98.6952 83.8828 95.3568 82.5 91.8758 82.5C86.9183 82.5 86.9108 90 91.8758 90C93.3672 90.0016 94.797 90.5948 95.8515 91.6493C96.9061 92.7039 97.4992 94.1337 97.5008 95.625C97.5008 103.07 86.2508 103.061 86.2508 95.625Z" fill="#E85D52"/>
<path d="M151.876 153.75C155.357 153.75 158.695 152.367 161.157 149.906C163.618 147.444 165.001 144.106 165.001 140.625C165.001 137.144 163.618 133.806 161.157 131.344C158.695 128.883 155.357 127.5 151.876 127.5C146.918 127.5 146.911 135 151.876 135C159.321 135 159.312 146.25 151.876 146.25C150.384 146.248 148.955 145.655 147.9 144.601C146.846 143.546 146.252 142.116 146.251 140.625C146.251 139.63 145.856 138.677 145.152 137.973C144.449 137.27 143.495 136.875 142.501 136.875C134.895 136.875 139.202 153.75 151.876 153.75Z" fill="#E85D52"/>
<path d="M18.75 67.5002C18.75 62.5422 11.25 62.5352 11.25 67.5002C11.25 72.4581 18.75 72.4652 18.75 67.5002Z" fill="#E85D52"/>
<path d="M213.75 75.0002C213.75 79.9581 221.25 79.9651 221.25 75.0002C221.25 70.0422 213.75 70.0352 213.75 75.0002Z" fill="#E85D52"/>
<path d="M221.25 187.5C216.292 187.5 216.285 195 221.25 195C226.215 195 226.215 187.5 221.25 187.5Z" fill="#E85D52"/>
<path d="M210 206.25C214.958 206.25 214.965 198.75 210 198.75C205.035 198.75 205.035 206.25 210 206.25Z" fill="#E85D52"/>
<path d="M202.5 187.5C202.5 192.458 210 192.465 210 187.5C210 182.535 202.5 182.535 202.5 187.5Z" fill="#E85D52"/>
<path d="M206.25 37.5002C206.25 32.5422 198.75 32.5352 198.75 37.5002C198.75 42.4581 206.25 42.4652 206.25 37.5002Z" fill="#E85D52"/>
<path d="M120 142.5C120 147.458 127.5 147.465 127.5 142.5C127.5 137.535 120 137.535 120 142.5Z" fill="#E85D52"/>
<path d="M131.25 67.5C126.292 67.5 126.285 75 131.25 75C136.215 75 136.215 67.5 131.25 67.5Z" fill="#E85D52"/>
<path d="M52.5004 15C47.5424 15 47.5354 22.5 52.5004 22.5C57.4584 22.5 57.4654 15 52.5004 15Z" fill="#E85D52"/>
<path d="M60.0004 37.5C64.9584 37.5 64.9654 30 60.0004 30C55.0424 30 55.0354 37.5 60.0004 37.5Z" fill="#E85D52"/>
<path d="M101.25 123.75C106.208 123.75 106.215 116.25 101.25 116.25C96.2924 116.25 96.2854 123.75 101.25 123.75Z" fill="#E85D52"/>
<path d="M108.75 172.5C113.708 172.5 113.715 165 108.75 165C103.792 165 103.785 172.5 108.75 172.5Z" fill="#E85D52"/>
<path d="M116.25 78.7502C116.25 73.7922 108.75 73.7852 108.75 78.7502C108.75 83.7081 116.25 83.7152 116.25 78.7502Z" fill="#E85D52"/>
<path d="M157.5 33.75C162.458 33.75 162.465 26.25 157.5 26.25C152.535 26.25 152.535 33.75 157.5 33.75Z" fill="#E85D52"/>
<path d="M101.25 232.5C101.25 237.458 108.75 237.465 108.75 232.5C108.75 227.535 101.25 227.535 101.25 232.5Z" fill="#E85D52"/>
<path d="M37.5 198.75C37.5 203.708 45 203.715 45 198.75C45 193.785 37.5 193.785 37.5 198.75Z" fill="#E85D52"/>
<path d="M22.5 168.75C24.5711 168.75 26.25 167.071 26.25 165C26.25 162.929 24.5711 161.25 22.5 161.25C20.4289 161.25 18.75 162.929 18.75 165C18.75 167.071 20.4289 168.75 22.5 168.75Z" fill="#E85D52"/>
</g>
<defs>
<clipPath id="clip0">
<rect width="240" height="240" fill="white"/>
</clipPath>
</defs>
</svg>
