<svg width="104" height="99" viewBox="0 0 104 99" fill="none" xmlns="http://www.w3.org/2000/svg">
<path d="M104 59.4247V50.9355L74.0338 62.8204L84.6101 64.5182L104 59.4247Z" fill="#E8C8B3"/>
<path d="M47.5918 50.0225C49.4813 50.0222 51.3363 50.5096 52.9639 51.4341C54.5914 52.3586 55.932 53.6864 56.846 55.2792C57.8466 54.3661 59.1031 53.7556 60.4601 53.523C61.8171 53.2905 63.2151 53.4461 64.4812 53.9707C65.7474 54.4952 66.8261 55.3657 67.5841 56.4745C68.3421 57.5833 68.7461 58.8818 68.7461 60.2094C68.7461 61.537 68.3421 62.8354 67.5841 63.9442C66.8261 65.053 65.7474 65.9235 64.4812 66.4481C63.2151 66.9726 61.8171 67.1283 60.4601 66.8957C59.1031 66.6632 57.8466 66.0526 56.846 65.1396C55.9435 66.7114 54.6256 68.0255 53.0258 68.9485C51.4261 69.8715 49.6014 70.3708 47.7367 70.3955C45.8721 70.4203 44.0338 69.9698 42.4082 69.0896C40.7826 68.2094 39.4275 66.9309 38.4803 65.3837C37.5331 63.8364 37.0275 62.0754 37.0148 60.2793C37.002 58.4831 37.4825 56.7157 38.4076 55.1561C39.3326 53.5964 40.6694 52.3002 42.2823 51.3986C43.8952 50.4971 45.7269 50.0223 47.5918 50.0225Z" fill="#63D5EE"/>
<path d="M104 59.424L86.3728 62.8197L83.4864 59.4828C79.6247 55.0195 74.4576 51.779 68.6575 50.1831C67.6914 49.9172 66.6592 49.985 65.7394 50.3747C64.8197 50.7643 64.0703 51.4515 63.621 52.3171C63.368 52.8045 63.2171 53.3351 63.177 53.8786C63.1369 54.4221 63.2083 54.968 63.3872 55.4849C63.566 56.0018 63.8489 56.4798 64.2196 56.8914C64.5902 57.3031 65.0414 57.6404 65.5474 57.8841C67.6232 58.8836 69.3063 60.5048 70.344 62.5041L70.5084 62.8197H65.2202V89.9851H82.5389C83.7542 89.9852 84.9577 89.7547 86.0805 89.3068C87.2034 88.8589 88.2236 88.2024 89.083 87.3747L93.4237 83.1938L104 79.7981V59.424Z" fill="#F5D3BD"/>
<path d="M47.5935 69.6119H65.2207V62.8206H47.5935C46.6585 62.8206 45.7618 63.1783 45.1007 63.8151C44.4395 64.4519 44.0681 65.3156 44.0681 66.2162C44.0681 67.1168 44.4395 67.9805 45.1007 68.6173C45.7618 69.2542 46.6585 69.6119 47.5935 69.6119Z" fill="#F5D3BD"/>
<path d="M44.5387 67.9141C44.6928 68.1713 44.8809 68.4081 45.0984 68.6187C45.4259 68.934 45.8148 69.1841 46.2428 69.3545C46.6708 69.5249 47.1295 69.6124 47.5926 69.6119H61.6943V67.9141H44.5387Z" fill="#F5D3BD"/>
<path d="M44.0681 76.4024H65.2207V69.6111H44.0681C43.1331 69.6111 42.2364 69.9688 41.5752 70.6057C40.9141 71.2425 40.5427 72.1062 40.5427 73.0068C40.5427 73.9073 40.9141 74.7711 41.5752 75.4079C42.2364 76.0447 43.1331 76.4024 44.0681 76.4024Z" fill="#F5D3BD"/>
<path d="M47.5935 83.1939H65.2207V76.4026H47.5935C46.6585 76.4026 45.7618 76.7603 45.1007 77.3972C44.4395 78.034 44.0681 78.8977 44.0681 79.7983C44.0681 80.6989 44.4395 81.5626 45.1007 82.1994C45.7618 82.8362 46.6585 83.1939 47.5935 83.1939Z" fill="#F5D3BD"/>
<path d="M51.119 89.9857H65.2207V83.1943H51.119C50.184 83.1943 49.2873 83.5521 48.6261 84.1889C47.965 84.8257 47.5935 85.6894 47.5935 86.59C47.5935 87.4906 47.965 88.3543 48.6261 88.9911C49.2873 89.6279 50.184 89.9857 51.119 89.9857Z" fill="#F5D3BD"/>
<path d="M58.1696 78.1008C59.1046 78.1008 60.0013 78.4586 60.6625 79.0954C61.3236 79.7322 61.695 80.5959 61.695 81.4965C61.695 80.5959 62.0665 79.7322 62.7276 79.0954C63.3888 78.4586 64.2855 78.1008 65.2205 78.1008C66.1555 78.1008 67.0522 78.4586 67.7133 79.0954C68.3745 79.7322 68.7459 80.5959 68.7459 81.4965V83.1943C68.7459 82.2938 69.1173 81.43 69.7785 80.7932C70.4396 80.1564 71.3363 79.7987 72.2714 79.7987C73.2064 79.7987 74.1031 80.1564 74.7642 80.7932C75.4254 81.43 75.7968 82.2938 75.7968 83.1943V84.8922C75.7968 83.9916 76.1682 83.1279 76.8294 82.4911C77.4905 81.8543 78.3872 81.4965 79.3222 81.4965C80.2572 81.4965 81.1539 81.8543 81.8151 82.4911C82.4762 83.1279 82.8477 83.9916 82.8477 84.8922V93.3814C82.8477 94.282 82.4762 95.1457 81.8151 95.7825C81.1539 96.4193 80.2572 96.777 79.3222 96.777C78.3872 96.777 77.4905 96.4193 76.8294 95.7825C76.1682 95.1457 75.7968 94.282 75.7968 93.3814V91.6835C75.7968 92.5841 75.4254 93.4478 74.7642 94.0846C74.1031 94.7214 73.2064 95.0792 72.2714 95.0792C71.3363 95.0792 70.4396 94.7214 69.7785 94.0846C69.1173 93.4478 68.7459 92.5841 68.7459 91.6835V89.9857C68.7459 90.8863 68.3745 91.75 67.7133 92.3868C67.0522 93.0236 66.1555 93.3814 65.2205 93.3814C64.2855 93.3814 63.3888 93.0236 62.7276 92.3868C62.0665 91.75 61.695 90.8863 61.695 89.9857V88.2879C61.695 89.1884 61.3236 90.0521 60.6625 90.689C60.0013 91.3258 59.1046 91.6835 58.1696 91.6835C57.2346 91.6835 56.3379 91.3258 55.6768 90.689C55.0156 90.0521 54.6442 89.1884 54.6442 88.2879V81.4965C54.6442 80.5959 55.0156 79.7322 55.6768 79.0954C56.3379 78.4586 57.2346 78.1008 58.1696 78.1008Z" fill="#E8C8B3"/>
<path d="M8.8133 11.8849H22.915V2.97122C22.915 2.1832 22.59 1.42746 22.0115 0.870249C21.433 0.313038 20.6484 0 19.8303 0H11.8981C11.0799 0 10.2953 0.313038 9.7168 0.870249C9.1383 1.42746 8.8133 2.1832 8.8133 2.97122V11.8849Z" fill="#E4E4E2"/>
<path d="M22.9159 3.39526H38.7803V3.43028L48.1152 13.5823L42.3058 17.4307L35.2549 10.1866H22.9159V3.39526Z" fill="#E4E4E2"/>
<path d="M19.3896 11.885H12.3388V25.4677H19.3896V11.885Z" fill="#C3C3C3"/>
<path d="M19.3896 11.885H12.3388V15.2807H19.3896V11.885Z" fill="#A8A8A8"/>
<path d="M24.6777 25.4673H7.05056V32.2586H24.6777V25.4673Z" fill="#E4E4E2"/>
<path d="M24.6767 32.2588H7.04952C5.64701 32.2588 4.30195 32.7954 3.31023 33.7506C2.31851 34.7059 1.76137 36.0014 1.76137 37.3523V83.1939H29.9648V37.3523C29.9648 36.0014 29.4077 34.7059 28.416 33.7506C27.4243 32.7954 26.0792 32.2588 24.6767 32.2588Z" fill="#0C82ED"/>
<path d="M49.7686 32.5596C49.1243 32.9734 48.3672 33.1942 47.5927 33.1942C46.8183 33.1942 46.0612 32.9734 45.4169 32.5596C44.578 32.0211 43.9866 31.1922 43.7654 30.2448C43.5443 29.2975 43.7103 28.3045 44.229 27.472L47.5927 22.072L50.9564 27.472C51.4752 28.3045 51.6412 29.2975 51.42 30.2448C51.1989 31.1922 50.6075 32.0211 49.7686 32.5596Z" fill="#009CF7"/>
<path d="M61.6953 44.1436C59.7482 44.1436 58.1698 42.6233 58.1698 40.748C58.1698 38.8726 59.7482 37.3523 61.6953 37.3523C63.6423 37.3523 65.2207 38.8726 65.2207 40.748C65.2207 42.6233 63.6423 44.1436 61.6953 44.1436Z" fill="#63D5EE"/>
<path d="M77.5595 35.6543C74.6389 35.6543 72.2714 33.3739 72.2714 30.5608C72.2714 27.7477 74.6389 25.4673 77.5595 25.4673C80.4801 25.4673 82.8477 27.7477 82.8477 30.5608C82.8477 33.3739 80.4801 35.6543 77.5595 35.6543Z" fill="#63D5EE"/>
<path d="M31.7294 89.9856C28.8089 89.9856 26.4413 87.7052 26.4413 84.8921C26.4413 82.079 28.8089 79.7986 31.7294 79.7986C34.65 79.7986 37.0176 82.079 37.0176 84.8921C37.0176 87.7052 34.65 89.9856 31.7294 89.9856Z" fill="#63D5EE"/>
<path d="M31.7285 88.2874C29.7814 88.2874 28.203 86.7671 28.203 84.8918C28.203 83.0164 29.7814 81.4961 31.7285 81.4961C33.6755 81.4961 35.2539 83.0164 35.2539 84.8918C35.2539 86.7671 33.6755 88.2874 31.7285 88.2874Z" fill="#6AE4FF"/>
<path d="M77.5585 33.9566C75.6115 33.9566 74.0331 32.4363 74.0331 30.561C74.0331 28.6856 75.6115 27.1653 77.5585 27.1653C79.5056 27.1653 81.084 28.6856 81.084 30.561C81.084 32.4363 79.5056 33.9566 77.5585 33.9566Z" fill="#6AE4FF"/>
<path d="M61.6938 42.4472C60.72 42.4472 59.9305 41.6868 59.9305 40.7489C59.9305 39.8109 60.72 39.0505 61.6938 39.0505C62.6676 39.0505 63.457 39.8109 63.457 40.7489C63.457 41.6868 62.6676 42.4472 61.6938 42.4472Z" fill="#6AE4FF"/>
<path d="M42.6053 60.2105C42.9699 60.2105 43.3256 60.1016 43.6232 59.8988C43.9209 59.6959 44.1459 59.4092 44.2673 59.0781C44.4605 58.5524 44.7851 58.0806 45.2124 57.7043C45.6397 57.3281 46.1566 57.0589 46.7174 56.9206C47.2783 56.7823 47.8658 56.7791 48.4283 56.9113C48.9907 57.0435 49.5107 57.307 49.9424 57.6786C50.1149 57.8273 50.3161 57.9419 50.5345 58.0157C50.7529 58.0895 50.9843 58.1212 51.2154 58.1089C51.4466 58.0966 51.6729 58.0405 51.8816 57.944C52.0902 57.8474 52.2771 57.7122 52.4315 57.5461C52.5859 57.38 52.7048 57.1862 52.7814 56.9758C52.8581 56.7654 52.8909 56.5425 52.8782 56.3199C52.8654 56.0973 52.8072 55.8793 52.707 55.6783C52.6067 55.4773 52.4663 55.2973 52.2939 55.1486C51.4307 54.405 50.3908 53.8775 49.2658 53.6128C48.1409 53.3481 46.9655 53.3542 45.8436 53.6308C44.7217 53.9073 43.6878 54.4457 42.8332 55.1984C41.9785 55.951 41.3294 56.8949 40.9433 57.9464C40.8496 58.2026 40.821 58.4766 40.8599 58.7455C40.8987 59.0145 41.004 59.2705 41.1667 59.4923C41.3295 59.714 41.5451 59.8949 41.7954 60.0199C42.0456 60.1448 42.3234 60.2102 42.6053 60.2105Z" fill="#6AE4FF"/>
<path d="M21.1523 45.842H1.76245V69.6118H21.1523V45.842Z" fill="#009CF7"/>
<path d="M21.1513 40.749H22.9145C23.3821 40.749 23.8306 40.57 24.1613 40.2515C24.492 39.933 24.6777 39.5011 24.6777 39.0506C24.6777 38.6002 24.492 38.1682 24.1613 37.8497C23.8306 37.5312 23.3821 37.3523 22.9145 37.3523H21.1513C20.6836 37.3523 20.2351 37.5312 19.9045 37.8497C19.5738 38.1682 19.388 38.6002 19.388 39.0506C19.388 39.5011 19.5738 39.933 19.9045 40.2515C20.2351 40.57 20.6836 40.749 21.1513 40.749Z" fill="#009CF7"/>
<path d="M8.81339 40.748H14.1015C14.569 40.748 15.0174 40.5691 15.348 40.2507C15.6785 39.9323 15.8643 39.5004 15.8643 39.0501C15.8643 38.5998 15.6785 38.168 15.348 37.8496C15.0174 37.5312 14.569 37.3523 14.1015 37.3523H8.81339C8.34589 37.3523 7.89753 37.5312 7.56696 37.8496C7.23639 38.168 7.05067 38.5998 7.05067 39.0501C7.05067 39.5004 7.23639 39.9323 7.56696 40.2507C7.89753 40.5691 8.34589 40.748 8.81339 40.748Z" fill="#009CF7"/>
<path d="M1.76247 78.1008H17.6269C18.0944 78.1008 18.5428 77.9219 18.8734 77.6035C19.2039 77.2851 19.3896 76.8532 19.3896 76.4029C19.3896 75.9526 19.2039 75.5208 18.8734 75.2024C18.5428 74.884 18.0944 74.7051 17.6269 74.7051H1.76247C1.29497 74.7051 0.846617 74.884 0.516045 75.2024C0.185471 75.5208 -0.000242233 75.9526 -0.000242233 76.4029C-0.000242233 76.8532 0.185471 77.2851 0.516045 77.6035C0.846617 77.9219 1.29497 78.1008 1.76247 78.1008Z" fill="#009CF7"/>
<path d="M24.6776 78.1008H29.9658C30.4333 78.1008 30.8817 77.9219 31.2122 77.6035C31.5428 77.2851 31.7285 76.8532 31.7285 76.4029C31.7285 75.9526 31.5428 75.5208 31.2122 75.2024C30.8817 74.884 30.4333 74.7051 29.9658 74.7051H24.6776C24.2101 74.7051 23.7618 74.884 23.4312 75.2024C23.1006 75.5208 22.9149 75.9526 22.9149 76.4029C22.9149 76.8532 23.1006 77.2851 23.4312 77.6035C23.7618 77.9219 24.2101 78.1008 24.6776 78.1008Z" fill="#009CF7"/>
<path d="M26.4404 3.39526H22.915V10.1866H26.4404V3.39526Z" fill="#C3C3C3"/>
<path d="M44.5387 67.9141C44.6928 68.1713 44.8809 68.4081 45.0984 68.6187C45.4259 68.934 45.8148 69.1841 46.2428 69.3545C46.6708 69.5249 47.1295 69.6124 47.5926 69.6119H60.813C61.0467 69.6119 61.2709 69.5225 61.4362 69.3633C61.6015 69.2041 61.6943 68.9881 61.6943 68.763C61.6943 68.5378 61.6015 68.3219 61.4362 68.1627C61.2709 68.0035 61.0467 67.9141 60.813 67.9141H44.5387Z" fill="#E8C8B3"/>
<path d="M41.0133 74.7051C41.1673 74.9623 41.3555 75.1992 41.5729 75.4097C41.9005 75.725 42.2894 75.9751 42.7174 76.1455C43.1454 76.3159 43.604 76.4034 44.0672 76.4029H60.813C61.0467 76.4029 61.2709 76.3135 61.4362 76.1543C61.6015 75.9951 61.6943 75.7791 61.6943 75.554C61.6943 75.3288 61.6015 75.1129 61.4362 74.9537C61.2709 74.7945 61.0467 74.7051 60.813 74.7051H41.0133Z" fill="#E8C8B3"/>
<path d="M44.5396 81.4961C44.6937 81.7533 44.8818 81.9902 45.0993 82.2007C45.4268 82.5161 45.8157 82.7661 46.2437 82.9365C46.6717 83.107 47.1304 83.1944 47.5935 83.1939H65.2207V81.4961H44.5396Z" fill="#E8C8B3"/>
<path d="M48.064 88.2876C48.2181 88.5448 48.4062 88.7817 48.6237 88.9922C48.9513 89.3076 49.3402 89.5576 49.7681 89.728C50.1961 89.8985 50.6548 89.9859 51.1179 89.9854H68.7451V88.2876H48.064Z" fill="#E8C8B3"/>
<path d="M58.1696 79.7986C59.1046 79.7986 60.0013 80.1563 60.6625 80.7932C61.3236 81.43 61.695 82.2937 61.695 83.1943C61.695 82.2937 62.0665 81.43 62.7276 80.7932C63.3888 80.1563 64.2855 79.7986 65.2205 79.7986C66.1555 79.7986 67.0522 80.1563 67.7133 80.7932C68.3745 81.43 68.7459 82.2937 68.7459 83.1943V84.8921C68.7459 83.9915 69.1173 83.1278 69.7785 82.491C70.4396 81.8542 71.3363 81.4964 72.2714 81.4964C73.2064 81.4964 74.1031 81.8542 74.7642 82.491C75.4254 83.1278 75.7968 83.9915 75.7968 84.8921V86.5899C75.7968 85.6893 76.1682 84.8256 76.8294 84.1888C77.4905 83.552 78.3872 83.1943 79.3222 83.1943C80.2572 83.1943 81.1539 83.552 81.8151 84.1888C82.4762 84.8256 82.8477 85.6893 82.8477 86.5899V95.0791C82.8477 95.9797 82.4762 96.8434 81.8151 97.4802C81.1539 98.117 80.2572 98.4748 79.3222 98.4748C78.3872 98.4748 77.4905 98.117 76.8294 97.4802C76.1682 96.8434 75.7968 95.9797 75.7968 95.0791V93.3813C75.7968 94.2819 75.4254 95.1456 74.7642 95.7824C74.1031 96.4192 73.2064 96.777 72.2714 96.777C71.3363 96.777 70.4396 96.4192 69.7785 95.7824C69.1173 95.1456 68.7459 94.2819 68.7459 93.3813V91.6834C68.7459 92.584 68.3745 93.4477 67.7133 94.0846C67.0522 94.7214 66.1555 95.0791 65.2205 95.0791C64.2855 95.0791 63.3888 94.7214 62.7276 94.0846C62.0665 93.4477 61.695 92.584 61.695 91.6834V89.9856C61.695 90.8862 61.3236 91.7499 60.6625 92.3867C60.0013 93.0235 59.1046 93.3813 58.1696 93.3813C57.2346 93.3813 56.3379 93.0235 55.6768 92.3867C55.0156 91.7499 54.6442 90.8862 54.6442 89.9856V83.1943C54.6442 82.2937 55.0156 81.43 55.6768 80.7932C56.3379 80.1563 57.2346 79.7986 58.1696 79.7986Z" fill="#F5D3BD"/>
</svg>
