<svg width="30" height="31" viewBox="0 0 30 31" fill="none" xmlns="http://www.w3.org/2000/svg">
<path d="M15 0.636475C6.72496 0.636475 0 7.36144 0 15.6365C0 23.9115 6.72496 30.6365 15 30.6365C23.275 30.6365 30 23.9115 30 15.6365C30 7.36144 23.275 0.636475 15 0.636475ZM15 2.00011C18.5263 2.00011 21.7223 3.3451 24.1406 5.53704L22.223 7.45466C20.3001 5.7581 17.7672 4.72738 15 4.72738C12.1103 4.72738 9.54812 5.83001 7.60653 7.62511C7.36151 7.52124 7.09783 7.45466 6.81818 7.45466C5.69691 7.45466 4.77273 8.37884 4.77273 9.50011C4.77273 9.99017 4.94851 10.4456 5.24148 10.7998C4.47976 12.2593 4.09091 13.892 4.09091 15.6365C4.09091 21.0164 7.96609 25.4403 13.0185 26.3325C13.2342 27.2274 14.0412 27.9092 15 27.9092C15.9641 27.9092 16.7711 27.2167 16.9815 26.3112C22.0659 25.3977 25.9091 20.9951 25.9091 15.6365C25.9091 12.8693 24.8784 10.3364 23.1818 8.41346L25.0994 6.49585C27.2914 8.91417 28.6364 12.1102 28.6364 15.6365C28.6364 23.1764 22.54 29.2728 15 29.2728C7.46005 29.2728 1.36364 23.1764 1.36364 15.6365C1.36364 8.09652 7.46005 2.00011 15 2.00011ZM15 6.09102C17.4023 6.09102 19.5703 6.98324 21.2429 8.43477L19.3253 10.3737C19.32 10.371 19.3093 10.3764 19.304 10.3737C18.1268 9.40689 16.638 8.81829 15 8.81829C11.242 8.81829 8.18182 11.8785 8.18182 15.6365C8.18182 19.3945 11.242 22.4547 15 22.4547C16.899 22.4547 18.6195 21.669 19.858 20.4092C20.5717 20.3639 21.1364 19.77 21.1364 19.0456C21.1364 18.9204 21.1257 18.7979 21.0938 18.6833C21.5572 17.7645 21.8182 16.7338 21.8182 15.6365C21.8182 13.9985 21.2296 12.5097 20.2628 11.3325C20.2601 11.3272 20.2654 11.3165 20.2628 11.3112L22.2017 9.39358C23.6532 11.0662 24.5455 13.2341 24.5455 15.6365C24.5455 20.308 21.2349 24.1299 16.8324 24.9689C16.4968 24.2897 15.8017 23.8183 15 23.8183C14.193 23.8183 13.4979 24.303 13.1676 24.9902C8.79705 24.1778 5.45455 20.332 5.45455 15.6365C5.45455 14.1157 5.7848 12.7387 6.41335 11.503C6.54652 11.5296 6.67702 11.5456 6.81818 11.5456C7.93945 11.5456 8.86364 10.6214 8.86364 9.50011C8.86364 9.15388 8.76243 8.82895 8.60795 8.5413C10.3018 7.00988 12.4964 6.09102 15 6.09102ZM6.81818 8.81829C7.2017 8.81829 7.5 9.11659 7.5 9.50011C7.5 9.88363 7.2017 10.1819 6.81818 10.1819C6.43466 10.1819 6.13636 9.88363 6.13636 9.50011C6.13636 9.11659 6.43466 8.81829 6.81818 8.81829ZM15 10.1819C16.2651 10.1819 17.421 10.6134 18.3452 11.3325L15.8736 13.8041C15.6072 13.6762 15.3143 13.591 15 13.591C13.8787 13.591 12.9545 14.5152 12.9545 15.6365C12.9545 16.7577 13.8787 17.6819 15 17.6819C16.1213 17.6819 17.0455 16.7577 17.0455 15.6365C17.0455 15.3222 16.9602 15.0292 16.8324 14.7629L19.304 12.2913C20.0231 13.2155 20.4545 14.3714 20.4545 15.6365C20.4545 16.3689 20.3081 17.0667 20.0497 17.7032C19.9618 17.6846 19.8659 17.6819 19.7727 17.6819C19.019 17.6819 18.4091 18.2918 18.4091 19.0456C18.4091 19.2933 18.4837 19.5276 18.6009 19.7274C17.6394 20.5743 16.3849 21.091 15 21.091C11.9798 21.091 9.54545 18.6567 9.54545 15.6365C9.54545 12.6162 11.9798 10.1819 15 10.1819ZM15 14.9547C15.3835 14.9547 15.6818 15.253 15.6818 15.6365C15.6818 16.02 15.3835 16.3183 15 16.3183C14.6165 16.3183 14.3182 16.02 14.3182 15.6365C14.3182 15.253 14.6165 14.9547 15 14.9547ZM15 25.1819C15.3835 25.1819 15.6818 25.4802 15.6818 25.8637C15.6818 26.2473 15.3835 26.5456 15 26.5456C14.6165 26.5456 14.3182 26.2473 14.3182 25.8637C14.3182 25.4802 14.6165 25.1819 15 25.1819Z" fill="#C9C9C9"/>
</svg>
