<svg width="30" height="30" viewBox="0 0 30 30" fill="none" xmlns="http://www.w3.org/2000/svg">
<path d="M15 0C6.72496 0 0 6.72496 0 15C0 23.275 6.72496 30 15 30C23.275 30 30 23.275 30 15C30 6.72496 23.275 0 15 0ZM15 1.36364C18.5263 1.36364 21.7223 2.70863 24.1406 4.90057L22.223 6.81818C20.3001 5.12163 17.7672 4.09091 15 4.09091C12.1103 4.09091 9.54812 5.19354 7.60653 6.98864C7.36151 6.88477 7.09783 6.81818 6.81818 6.81818C5.69691 6.81818 4.77273 7.74237 4.77273 8.86364C4.77273 9.35369 4.94851 9.80913 5.24148 10.1634C4.47976 11.6229 4.09091 13.2555 4.09091 15C4.09091 20.38 7.96609 24.8038 13.0185 25.696C13.2342 26.5909 14.0412 27.2727 15 27.2727C15.9641 27.2727 16.7711 26.5803 16.9815 25.6747C22.0659 24.7612 25.9091 20.3587 25.9091 15C25.9091 12.2328 24.8784 9.69993 23.1818 7.77699L25.0994 5.85938C27.2914 8.2777 28.6364 11.4737 28.6364 15C28.6364 22.54 22.54 28.6364 15 28.6364C7.46005 28.6364 1.36364 22.54 1.36364 15C1.36364 7.46005 7.46005 1.36364 15 1.36364ZM15 5.45455C17.4023 5.45455 19.5703 6.34677 21.2429 7.7983L19.3253 9.73722C19.32 9.73455 19.3093 9.73988 19.304 9.73722C18.1268 8.77042 16.638 8.18182 15 8.18182C11.242 8.18182 8.18182 11.242 8.18182 15C8.18182 18.758 11.242 21.8182 15 21.8182C16.899 21.8182 18.6195 21.0325 19.858 19.7727C20.5717 19.7275 21.1364 19.1335 21.1364 18.4091C21.1364 18.2839 21.1257 18.1614 21.0938 18.0469C21.5572 17.128 21.8182 16.0973 21.8182 15C21.8182 13.362 21.2296 11.8732 20.2628 10.696C20.2601 10.6907 20.2654 10.68 20.2628 10.6747L22.2017 8.7571C23.6532 10.4297 24.5455 12.5977 24.5455 15C24.5455 19.6715 21.2349 23.4934 16.8324 24.3324C16.4968 23.6532 15.8017 23.1818 15 23.1818C14.193 23.1818 13.4979 23.6665 13.1676 24.3537C8.79705 23.5414 5.45455 19.6955 5.45455 15C5.45455 13.4792 5.7848 12.1023 6.41335 10.8665C6.54652 10.8931 6.67702 10.9091 6.81818 10.9091C7.93945 10.9091 8.86364 9.98491 8.86364 8.86364C8.86364 8.5174 8.76243 8.19247 8.60795 7.90483C10.3018 6.3734 12.4964 5.45455 15 5.45455ZM6.81818 8.18182C7.2017 8.18182 7.5 8.48011 7.5 8.86364C7.5 9.24716 7.2017 9.54545 6.81818 9.54545C6.43466 9.54545 6.13636 9.24716 6.13636 8.86364C6.13636 8.48011 6.43466 8.18182 6.81818 8.18182ZM15 9.54545C16.2651 9.54545 17.421 9.97692 18.3452 10.696L15.8736 13.1676C15.6072 13.0398 15.3143 12.9545 15 12.9545C13.8787 12.9545 12.9545 13.8787 12.9545 15C12.9545 16.1213 13.8787 17.0455 15 17.0455C16.1213 17.0455 17.0455 16.1213 17.0455 15C17.0455 14.6857 16.9602 14.3928 16.8324 14.1264L19.304 11.6548C20.0231 12.579 20.4545 13.7349 20.4545 15C20.4545 15.7324 20.3081 16.4302 20.0497 17.0668C19.9618 17.0481 19.8659 17.0455 19.7727 17.0455C19.019 17.0455 18.4091 17.6554 18.4091 18.4091C18.4091 18.6568 18.4837 18.8912 18.6009 19.0909C17.6394 19.9379 16.3849 20.4545 15 20.4545C11.9798 20.4545 9.54545 18.0202 9.54545 15C9.54545 11.9798 11.9798 9.54545 15 9.54545ZM15 14.3182C15.3835 14.3182 15.6818 14.6165 15.6818 15C15.6818 15.3835 15.3835 15.6818 15 15.6818C14.6165 15.6818 14.3182 15.3835 14.3182 15C14.3182 14.6165 14.6165 14.3182 15 14.3182ZM15 24.5455C15.3835 24.5455 15.6818 24.8438 15.6818 25.2273C15.6818 25.6108 15.3835 25.9091 15 25.9091C14.6165 25.9091 14.3182 25.6108 14.3182 25.2273C14.3182 24.8438 14.6165 24.5455 15 24.5455Z" fill="#E85D52"/>
</svg>
