<svg width="308" height="235" viewBox="0 0 308 235" fill="none" xmlns="http://www.w3.org/2000/svg">
<rect width="308" height="235" rx="20" fill="#E85D52"/>
<path d="M128.408 130.658C121.649 130.658 116.138 136.253 116.138 143.113C116.138 149.973 121.649 155.567 128.408 155.567C135.167 155.567 140.678 149.973 140.678 143.113C140.678 136.253 135.167 130.658 128.408 130.658ZM128.408 149.033C125.19 149.033 122.575 146.379 122.575 143.113C122.575 139.846 125.19 137.192 128.408 137.192C131.626 137.192 134.241 139.846 134.241 143.113C134.241 146.379 131.626 149.033 128.408 149.033ZM172.46 135.15C169.563 135.15 167.23 137.518 167.23 140.458C167.23 143.398 169.563 145.767 172.46 145.767C175.356 145.767 177.69 143.398 177.69 140.458C177.69 137.518 175.356 135.15 172.46 135.15ZM158.782 164.958C153.029 164.958 148.322 169.736 148.322 175.575C148.322 181.414 153.029 186.192 158.782 186.192C164.534 186.192 169.241 181.414 169.241 175.575C169.241 169.736 164.534 164.958 158.782 164.958ZM158.782 179.658C156.569 179.658 154.759 177.821 154.759 175.575C154.759 173.329 156.569 171.492 158.782 171.492C160.994 171.492 162.805 173.329 162.805 175.575C162.805 177.821 160.994 179.658 158.782 179.658ZM131.425 189.458C128.971 189.458 127 191.459 127 193.95C127 196.441 128.971 198.442 131.425 198.442C133.879 198.442 135.851 196.441 135.851 193.95C135.851 191.459 133.879 189.458 131.425 189.458ZM151.943 116.367C151.943 113.876 149.971 111.875 147.517 111.875C145.063 111.875 143.092 113.876 143.092 116.367C143.092 118.857 145.063 120.858 147.517 120.858C149.971 120.858 151.943 118.857 151.943 116.367ZM160.994 34.0058C160.994 32.2092 162.443 30.7392 164.213 30.7392C171.414 30.7392 177.287 36.7008 177.287 44.01V95.7867C177.287 97.5833 175.839 99.0533 174.069 99.0533C172.299 99.0533 170.851 97.5833 170.851 95.7867V44.01C170.851 40.2942 167.874 37.2725 164.213 37.2725C162.443 37.2725 160.994 35.8025 160.994 34.0058ZM114.931 122.247C113.161 122.247 111.713 120.777 111.713 118.98C111.713 116.938 111.713 100.605 111.713 98.6042C111.713 94.8883 108.736 91.8667 105.075 91.8667C101.414 91.8667 98.4368 94.8883 98.4368 98.6042V142.214C98.4368 146.583 100.529 150.667 104.029 153.198C109.218 156.955 112.316 163.039 112.316 169.491V212.733C112.316 214.53 110.868 216 109.098 216C107.328 216 105.879 214.53 105.879 212.733V169.532C105.879 165.163 103.787 161.079 100.287 158.548C95.0977 154.791 92 148.707 92 142.255V98.6042C92 88.355 103.023 81.9442 111.713 87.1708V44.01C111.713 33.7608 122.776 27.35 131.425 32.5767C131.787 25.5942 137.54 20 144.5 20C151.701 20 157.575 25.9617 157.575 33.2708V99.3392C157.575 101.136 156.126 102.606 154.356 102.606C152.586 102.606 151.138 101.136 151.138 99.3392V33.2708C151.138 29.555 148.161 26.5333 144.5 26.5333C140.839 26.5333 137.862 29.555 137.862 33.2708V99.3392C137.862 101.136 136.414 102.606 134.644 102.606C132.874 102.606 131.425 101.136 131.425 99.3392V44.01C131.425 40.2942 128.448 37.2725 124.787 37.2725C121.126 37.2725 118.149 40.2942 118.149 44.01V118.98C118.149 120.777 116.701 122.247 114.931 122.247ZM188.552 180.475V212.733C188.552 214.53 187.103 216 185.333 216C183.563 216 182.115 214.53 182.115 212.733V180.475C182.115 178.678 183.563 177.208 185.333 177.208C187.103 177.208 188.552 178.678 188.552 180.475ZM197 58.0975V142.663C197 147.482 195.19 152.014 191.851 155.444C189.718 157.649 188.552 160.589 188.552 163.652C188.552 165.652 187.023 167 185.333 167C183.644 167 182.115 165.652 182.115 163.652C182.115 158.833 183.925 154.301 187.264 150.871C189.397 148.666 190.563 145.726 190.563 142.663V58.0975C190.563 54.5042 187.667 51.5642 184.126 51.5642C182.356 51.5642 180.908 50.0942 180.908 48.2975C180.908 46.5008 182.356 45.0308 184.126 45.0308C191.207 45.0308 197 50.87 197 58.0975Z" fill="white"/>
</svg>
