<svg width="308" height="235" viewBox="0 0 308 235" fill="none" xmlns="http://www.w3.org/2000/svg">
<rect width="308" height="235" rx="20" fill="#E85D52"/>
<path d="M146.551 127.081C142.548 128.218 144.173 134.384 148.293 133.213C158.429 130.334 161.333 120.794 158.397 110.463C152.88 91.0423 131.423 97.1687 136.063 113.495C137.215 117.548 143.349 115.812 142.196 111.752C139.837 103.451 149.12 101.14 152.265 112.204C153.312 115.891 154.853 124.723 146.551 127.081Z" fill="white"/>
<path d="M179.312 187.362C173.423 187.396 167.788 189.764 163.643 193.947C159.497 198.13 157.18 203.786 157.198 209.674V213.021C157.198 217.235 163.573 217.242 163.573 213.021V209.662C163.565 207.576 163.968 205.509 164.76 203.579C165.552 201.649 166.716 199.894 168.187 198.415C169.658 196.936 171.406 195.761 173.331 194.959C175.257 194.156 177.321 193.741 179.407 193.737C188.222 193.737 195.412 200.807 195.448 209.515V212.862C195.448 217.076 201.823 217.082 201.823 212.862V209.502C201.772 197.14 191.544 187.287 179.312 187.362Z" fill="white"/>
<path d="M183.145 162.576L179.218 148.755C186.433 130.797 190.245 112.561 190.245 95.9482C190.245 91.7343 183.87 91.728 183.87 95.9482C183.87 111.377 180.391 128.341 173.795 145.146C167.449 144.266 162.11 141.98 157.534 138.193C154.288 135.505 150.217 140.413 153.469 143.104C159.017 147.696 165.707 150.515 173.375 151.511L176.776 163.48C172.186 167.772 156.429 181.775 138.977 188.986C141.281 180.022 141.813 180.38 141.378 178.848C136.785 163.783 137.525 162.729 135.508 161.604C133.463 160.464 133.738 161.472 110.088 167.856C108.055 168.431 105.878 168.176 104.033 167.147C102.188 166.118 100.826 164.4 100.247 162.368C96.2028 149.818 97.0786 147.207 94.125 146.374L85.8383 144.04C92.3766 125.766 92.8109 137.373 86.1542 112.781C95.9088 113.638 101.805 110.063 126.6 103.521C130.659 102.367 128.911 96.2363 124.857 97.3885L96.3311 105.493C78.1484 110.314 66.5682 97.3945 60.2801 79.5047C76.8595 82.899 103.354 56.6942 128.575 46.895C132.502 45.369 130.202 39.4251 126.266 40.9523C99.3302 51.4189 68.1425 81.7587 57.5393 71.3431C55.4646 68.9401 51.387 70.8447 52.0779 74.1593C52.3381 75.4052 58.5298 103.995 79.0919 111.254L84.5107 130.315C76.3897 151.747 74.4701 146.896 90.6793 152.026C93.8859 160.776 93.1373 168.377 100.926 172.719C109.152 177.305 115.335 172.065 131.761 168.326L134.981 179.661C132.122 188.764 128.962 203.697 127.563 212.352C126.89 216.513 133.181 217.535 133.856 213.368C134.85 207.223 136.036 201.665 137.196 196.483C152.642 191.13 168.757 179.655 180.586 168.654C219.459 199.155 209.912 218.44 218.329 215.914C218.73 215.794 219.104 215.596 219.428 215.331C219.752 215.066 220.021 214.74 220.219 214.371C220.417 214.003 220.541 213.599 220.583 213.182C220.625 212.766 220.585 212.345 220.464 211.944C214.965 193.647 203.092 177.938 183.145 162.576Z" fill="white"/>
<path d="M141.124 67.1612L151.062 34.3618H168.639C172.333 34.3618 171.991 29.6392 173.027 27.0748C174.111 23.0024 167.95 21.3576 166.867 25.4364L166.189 27.9864C151.179 28.6718 146.839 26.3202 145.648 30.2496L135.023 65.3121C133.799 69.3514 139.895 71.2173 141.124 67.1612Z" fill="white"/>
<path d="M164.702 90.7715L176.159 78.9869C198.442 78.4933 199.941 80.1026 201.601 77.5255L207.116 68.9627C209.397 65.4201 204.041 61.9625 201.756 65.511L197.183 72.6119C174.402 72.9418 174.187 71.8708 172.527 73.5774L160.131 86.3273C157.188 89.3551 161.801 93.7554 164.702 90.7715Z" fill="white"/>
<path d="M225.116 29.2252L215.553 44.0838C215.245 44.5654 215.072 45.1209 215.052 45.6924C215.032 46.2638 215.165 46.8302 215.439 47.3322C215.713 47.8343 216.116 48.2537 216.607 48.5465C217.098 48.8393 217.659 48.9949 218.231 48.9969C221.299 48.9969 221.022 46.4557 230.477 32.6757C232.758 29.1304 227.401 25.676 225.116 29.2252Z" fill="white"/>
<path d="M141.584 87.625C141.441 88.1011 141.41 88.6043 141.496 89.0943C141.581 89.5843 141.78 90.0475 142.076 90.447C142.372 90.8465 142.758 91.1712 143.202 91.3952C143.646 91.6191 144.136 91.7361 144.634 91.7368C147.159 91.7368 146.207 90.9965 170.774 66.2368H191.967C195.035 66.2368 193.924 64.9475 214.026 36.1484C214.484 35.4722 214.665 34.6461 214.531 33.8404C214.398 33.0348 213.96 32.3111 213.309 31.8186C187.351 12.8378 187.912 11.2313 185.033 12.2234C182.172 13.21 183.468 14.5404 175.993 40.7368H158.158C153.667 40.7368 155.387 44.9603 141.584 87.625ZM178.443 47.1118C179.146 47.1119 179.829 46.8797 180.386 46.4514C180.943 46.0231 181.343 45.4227 181.524 44.7435L187.934 20.638L207.05 35.0806L190.276 59.8634C169.172 60.1897 168.798 59.1267 167.143 60.8288L151.487 76.9309L160.523 47.1118H178.443Z" fill="white"/>
<path d="M208.384 56.6742C208.384 60.8885 214.759 60.8944 214.759 56.6742C214.759 52.4599 208.384 52.4539 208.384 56.6742Z" fill="white"/>
<path d="M175.665 15.2369C175.665 11.0226 169.29 11.0167 169.29 15.2369C169.29 19.4572 175.665 19.4572 175.665 15.2369Z" fill="white"/>
</svg>
