<svg width="301" height="73" viewBox="0 0 301 73" fill="none" xmlns="http://www.w3.org/2000/svg">
<rect x="1" y="1" width="298.837" height="71" rx="6" fill="#FFE5E7" stroke="#FFE5E7" stroke-width="2"/>
<path d="M18.7764 31.9277L20.4873 27.4688H22.1338L19.1631 34.5469L18.8936 35.0801C18.5029 35.7754 17.8701 36.123 16.9951 36.123L16.3857 36.0879L16.3975 34.916C16.4912 34.9316 16.6572 34.9395 16.8955 34.9395C17.3174 34.9395 17.6143 34.7598 17.7861 34.4004L18.0908 33.6797L15.1729 27.4688H16.79L18.7764 31.9277ZM23.0479 36V29.6602H25.6201C26.4873 29.6602 27.1475 29.8125 27.6006 30.1172C28.0537 30.418 28.2803 30.8516 28.2803 31.418C28.2803 31.7109 28.1885 31.9746 28.0049 32.209C27.8252 32.4395 27.5576 32.6172 27.2021 32.7422C27.6162 32.8281 27.9443 33.002 28.1865 33.2637C28.4287 33.5254 28.5498 33.834 28.5498 34.1895C28.5498 34.7793 28.3311 35.2285 27.8936 35.5371C27.46 35.8457 26.835 36 26.0186 36H23.0479ZM24.4717 33.2988V34.875H26.0303C26.7607 34.875 27.126 34.6133 27.126 34.0898C27.126 33.5625 26.7549 33.2988 26.0127 33.2988H24.4717ZM24.4717 32.2793H25.6436C26.4521 32.2793 26.8564 32.041 26.8564 31.5645C26.8564 31.0645 26.4736 30.8066 25.708 30.791H24.4717V32.2793ZM33.5713 36C33.5088 35.8789 33.4541 35.6816 33.4072 35.4082C32.9541 35.8809 32.3994 36.1172 31.7432 36.1172C31.1064 36.1172 30.5869 35.9355 30.1846 35.5723C29.7822 35.209 29.5811 34.7598 29.5811 34.2246C29.5811 33.5488 29.8311 33.0312 30.3311 32.6719C30.835 32.3086 31.5537 32.127 32.4873 32.127H33.3604V31.7109C33.3604 31.3828 33.2686 31.1211 33.085 30.9258C32.9014 30.7266 32.6221 30.627 32.2471 30.627C31.9229 30.627 31.6572 30.709 31.4502 30.873C31.2432 31.0332 31.1396 31.2383 31.1396 31.4883H29.7158C29.7158 31.1406 29.8311 30.8164 30.0615 30.5156C30.292 30.2109 30.6045 29.9727 30.999 29.8008C31.3975 29.6289 31.8408 29.543 32.3291 29.543C33.0713 29.543 33.6631 29.7305 34.1045 30.1055C34.5459 30.4766 34.7725 31 34.7842 31.6758V34.5352C34.7842 35.1055 34.8643 35.5605 35.0244 35.9004V36H33.5713ZM32.0068 34.9746C32.2881 34.9746 32.5518 34.9062 32.7979 34.7695C33.0479 34.6328 33.2354 34.4492 33.3604 34.2188V33.0234H32.5928C32.0654 33.0234 31.6689 33.1152 31.4033 33.2988C31.1377 33.4824 31.0049 33.7422 31.0049 34.0781C31.0049 34.3516 31.0947 34.5703 31.2744 34.7344C31.458 34.8945 31.7021 34.9746 32.0068 34.9746ZM41.8564 33.4512H41.1006V36H39.6768V33.4512H38.9268L37.4678 36H35.7217L37.8252 32.7012L35.833 29.6602H37.5732L39.0088 32.1504H39.6768V29.6602H41.1006V32.1504H41.7744L43.2158 29.6602H44.9561L42.9697 32.6836L45.085 36H43.3154L41.8564 33.4512ZM49.7549 36C49.6924 35.8789 49.6377 35.6816 49.5908 35.4082C49.1377 35.8809 48.583 36.1172 47.9268 36.1172C47.29 36.1172 46.7705 35.9355 46.3682 35.5723C45.9658 35.209 45.7646 34.7598 45.7646 34.2246C45.7646 33.5488 46.0146 33.0312 46.5146 32.6719C47.0186 32.3086 47.7373 32.127 48.6709 32.127H49.5439V31.7109C49.5439 31.3828 49.4521 31.1211 49.2686 30.9258C49.085 30.7266 48.8057 30.627 48.4307 30.627C48.1064 30.627 47.8408 30.709 47.6338 30.873C47.4268 31.0332 47.3232 31.2383 47.3232 31.4883H45.8994C45.8994 31.1406 46.0146 30.8164 46.2451 30.5156C46.4756 30.2109 46.7881 29.9727 47.1826 29.8008C47.5811 29.6289 48.0244 29.543 48.5127 29.543C49.2549 29.543 49.8467 29.7305 50.2881 30.1055C50.7295 30.4766 50.9561 31 50.9678 31.6758V34.5352C50.9678 35.1055 51.0479 35.5605 51.208 35.9004V36H49.7549ZM48.1904 34.9746C48.4717 34.9746 48.7354 34.9062 48.9814 34.7695C49.2314 34.6328 49.4189 34.4492 49.5439 34.2188V33.0234H48.7764C48.249 33.0234 47.8525 33.1152 47.5869 33.2988C47.3213 33.4824 47.1885 33.7422 47.1885 34.0781C47.1885 34.3516 47.2783 34.5703 47.458 34.7344C47.6416 34.8945 47.8857 34.9746 48.1904 34.9746ZM56.417 29.6602H57.835V36H56.417V31.7695L53.9326 36H52.5146V29.6602H53.9326V33.8906L56.417 29.6602ZM57.085 27.2285C57.085 27.7207 56.9131 28.1191 56.5693 28.4238C56.2256 28.7285 55.7666 28.8809 55.1924 28.8809C54.6182 28.8809 54.1592 28.7285 53.8154 28.4238C53.4717 28.1191 53.2998 27.7207 53.2998 27.2285H54.3662C54.3662 27.4863 54.4385 27.6875 54.583 27.832C54.7314 27.9727 54.9346 28.043 55.1924 28.043C55.4502 28.043 55.6514 27.9727 55.7959 27.832C55.9404 27.6875 56.0127 27.4863 56.0127 27.2285H57.085ZM64.3389 30.791H62.2822V36H60.8584V30.791H58.8252V29.6602H64.3389V30.791ZM67.708 36.1172C66.8057 36.1172 66.0732 35.834 65.5107 35.2676C64.9521 34.6973 64.6729 33.9395 64.6729 32.9941V32.8184C64.6729 32.1855 64.7939 31.6211 65.0361 31.125C65.2822 30.625 65.626 30.2363 66.0674 29.959C66.5088 29.6816 67.001 29.543 67.5439 29.543C68.4072 29.543 69.0732 29.8184 69.542 30.3691C70.0146 30.9199 70.251 31.6992 70.251 32.707V33.2812H66.1084C66.1514 33.8047 66.3252 34.2188 66.6299 34.5234C66.9385 34.8281 67.3252 34.9805 67.79 34.9805C68.4424 34.9805 68.9736 34.7168 69.3838 34.1895L70.1514 34.9219C69.8975 35.3008 69.5576 35.5957 69.1318 35.8066C68.71 36.0137 68.2354 36.1172 67.708 36.1172ZM67.5381 30.6855C67.1475 30.6855 66.8311 30.8223 66.5889 31.0957C66.3506 31.3691 66.1982 31.75 66.1318 32.2383H68.8447V32.1328C68.8135 31.6562 68.6865 31.2969 68.4639 31.0547C68.2412 30.8086 67.9326 30.6855 67.5381 30.6855ZM76.9541 34.9805C77.3096 34.9805 77.6045 34.877 77.8389 34.6699C78.0732 34.4629 78.1982 34.207 78.2139 33.9023H79.5557C79.54 34.2969 79.417 34.666 79.1865 35.0098C78.9561 35.3496 78.6436 35.6191 78.249 35.8184C77.8545 36.0176 77.4287 36.1172 76.9717 36.1172C76.085 36.1172 75.3818 35.8301 74.8623 35.2559C74.3428 34.6816 74.083 33.8887 74.083 32.877V32.7305C74.083 31.7656 74.3408 30.9941 74.8564 30.416C75.3721 29.834 76.0752 29.543 76.9658 29.543C77.7197 29.543 78.333 29.7637 78.8057 30.2051C79.2822 30.6426 79.5322 31.2188 79.5557 31.9336H78.2139C78.1982 31.5703 78.0732 31.2715 77.8389 31.0371C77.6084 30.8027 77.3135 30.6855 76.9541 30.6855C76.4932 30.6855 76.1377 30.8535 75.8877 31.1895C75.6377 31.5215 75.5107 32.0273 75.5068 32.707V32.9355C75.5068 33.623 75.6299 34.1367 75.876 34.4766C76.126 34.8125 76.4854 34.9805 76.9541 34.9805ZM80.7393 36V29.6602H83.3115C84.1787 29.6602 84.8389 29.8125 85.292 30.1172C85.7451 30.418 85.9717 30.8516 85.9717 31.418C85.9717 31.7109 85.8799 31.9746 85.6963 32.209C85.5166 32.4395 85.249 32.6172 84.8936 32.7422C85.3076 32.8281 85.6357 33.002 85.8779 33.2637C86.1201 33.5254 86.2412 33.834 86.2412 34.1895C86.2412 34.7793 86.0225 35.2285 85.585 35.5371C85.1514 35.8457 84.5264 36 83.71 36H80.7393ZM82.1631 33.2988V34.875H83.7217C84.4521 34.875 84.8174 34.6133 84.8174 34.0898C84.8174 33.5625 84.4463 33.2988 83.7041 33.2988H82.1631ZM82.1631 32.2793H83.335C84.1436 32.2793 84.5479 32.041 84.5479 31.5645C84.5479 31.0645 84.165 30.8066 83.3994 30.791H82.1631V32.2793ZM87.208 32.7715C87.208 32.1504 87.3311 31.5918 87.5771 31.0957C87.8232 30.5957 88.1689 30.2129 88.6143 29.9473C89.0596 29.6777 89.5713 29.543 90.1494 29.543C91.0049 29.543 91.6982 29.8184 92.2295 30.3691C92.7646 30.9199 93.0537 31.6504 93.0967 32.5605L93.1025 32.8945C93.1025 33.5195 92.9814 34.0781 92.7393 34.5703C92.501 35.0625 92.1572 35.4434 91.708 35.7129C91.2627 35.9824 90.7471 36.1172 90.1611 36.1172C89.2666 36.1172 88.5498 35.8203 88.0107 35.2266C87.4756 34.6289 87.208 33.834 87.208 32.8418V32.7715ZM88.6318 32.8945C88.6318 33.5469 88.7666 34.0586 89.0361 34.4297C89.3057 34.7969 89.6807 34.9805 90.1611 34.9805C90.6416 34.9805 91.0146 34.793 91.2803 34.418C91.5498 34.043 91.6846 33.4941 91.6846 32.7715C91.6846 32.1309 91.5459 31.623 91.2686 31.248C90.9951 30.873 90.6221 30.6855 90.1494 30.6855C89.6846 30.6855 89.3154 30.8711 89.042 31.2422C88.7686 31.6094 88.6318 32.1602 88.6318 32.8945ZM97.0986 36.1172C96.1963 36.1172 95.4639 35.834 94.9014 35.2676C94.3428 34.6973 94.0635 33.9395 94.0635 32.9941V32.8184C94.0635 32.1855 94.1846 31.6211 94.4268 31.125C94.6729 30.625 95.0166 30.2363 95.458 29.959C95.8994 29.6816 96.3916 29.543 96.9346 29.543C97.7979 29.543 98.4639 29.8184 98.9326 30.3691C99.4053 30.9199 99.6416 31.6992 99.6416 32.707V33.2812H95.499C95.542 33.8047 95.7158 34.2188 96.0205 34.5234C96.3291 34.8281 96.7158 34.9805 97.1807 34.9805C97.833 34.9805 98.3643 34.7168 98.7744 34.1895L99.542 34.9219C99.2881 35.3008 98.9482 35.5957 98.5225 35.8066C98.1006 36.0137 97.626 36.1172 97.0986 36.1172ZM96.9287 30.6855C96.5381 30.6855 96.2217 30.8223 95.9795 31.0957C95.7412 31.3691 95.5889 31.75 95.5225 32.2383H98.2354V32.1328C98.2041 31.6562 98.0771 31.2969 97.8545 31.0547C97.6318 30.8086 97.3232 30.6855 96.9287 30.6855ZM108.542 31.3945C108.542 31.6758 108.456 31.9355 108.284 32.1738C108.116 32.4082 107.878 32.5957 107.569 32.7363C108.296 32.9902 108.659 33.4805 108.659 34.207C108.659 34.7891 108.423 35.2539 107.95 35.6016C107.478 35.9453 106.845 36.1172 106.052 36.1172C105.567 36.1172 105.126 36.0371 104.728 35.877C104.329 35.7129 104.019 35.4824 103.796 35.1855C103.573 34.8848 103.462 34.5293 103.462 34.1191H104.88C104.88 34.377 104.995 34.5938 105.226 34.7695C105.456 34.9414 105.747 35.0273 106.099 35.0273C106.446 35.0273 106.722 34.9473 106.925 34.7871C107.132 34.623 107.235 34.4102 107.235 34.1484C107.235 33.8398 107.146 33.6172 106.966 33.4805C106.786 33.3438 106.509 33.2754 106.134 33.2754H105.114V32.25H106.169C106.806 32.2422 107.124 31.9805 107.124 31.4648C107.124 31.207 107.032 31.0059 106.849 30.8613C106.665 30.7168 106.413 30.6445 106.093 30.6445C105.78 30.6445 105.517 30.7227 105.302 30.8789C105.087 31.0312 104.979 31.2246 104.979 31.459H103.562C103.562 30.9004 103.796 30.4434 104.265 30.0879C104.733 29.7285 105.329 29.5488 106.052 29.5488C106.837 29.5488 107.448 29.709 107.886 30.0293C108.323 30.3496 108.542 30.8047 108.542 31.3945ZM109.896 34.8633C110.29 34.4219 110.554 34.0039 110.687 33.6094C110.823 33.2109 110.905 32.7031 110.933 32.0859L111.015 29.6602H115.415V34.8633H116.294V37.8867H114.876V36H110.81V37.8867H109.368L109.374 34.8633H109.896ZM111.565 34.8633H113.997V30.8848H112.397L112.356 32.0977C112.302 33.2617 112.038 34.1836 111.565 34.8633ZM117.044 32.7715C117.044 32.1504 117.167 31.5918 117.413 31.0957C117.659 30.5957 118.005 30.2129 118.45 29.9473C118.896 29.6777 119.407 29.543 119.985 29.543C120.841 29.543 121.534 29.8184 122.065 30.3691C122.601 30.9199 122.89 31.6504 122.933 32.5605L122.938 32.8945C122.938 33.5195 122.817 34.0781 122.575 34.5703C122.337 35.0625 121.993 35.4434 121.544 35.7129C121.099 35.9824 120.583 36.1172 119.997 36.1172C119.103 36.1172 118.386 35.8203 117.847 35.2266C117.312 34.6289 117.044 33.834 117.044 32.8418V32.7715ZM118.468 32.8945C118.468 33.5469 118.603 34.0586 118.872 34.4297C119.142 34.7969 119.517 34.9805 119.997 34.9805C120.478 34.9805 120.851 34.793 121.116 34.418C121.386 34.043 121.521 33.4941 121.521 32.7715C121.521 32.1309 121.382 31.623 121.104 31.248C120.831 30.873 120.458 30.6855 119.985 30.6855C119.521 30.6855 119.151 30.8711 118.878 31.2422C118.604 31.6094 118.468 32.1602 118.468 32.8945ZM129.694 32.8945C129.694 33.875 129.472 34.6582 129.026 35.2441C128.581 35.8262 127.983 36.1172 127.233 36.1172C126.538 36.1172 125.981 35.8887 125.563 35.4316V38.4375H124.14V29.6602H125.452L125.511 30.3047C125.929 29.7969 126.497 29.543 127.216 29.543C127.989 29.543 128.595 29.832 129.032 30.4102C129.474 30.9844 129.694 31.7832 129.694 32.8066V32.8945ZM128.276 32.7715C128.276 32.1387 128.149 31.6367 127.896 31.2656C127.646 30.8945 127.286 30.709 126.817 30.709C126.235 30.709 125.817 30.9492 125.563 31.4297V34.2422C125.821 34.7344 126.243 34.9805 126.829 34.9805C127.282 34.9805 127.636 34.7988 127.89 34.4355C128.147 34.0684 128.276 33.5137 128.276 32.7715ZM130.638 32.7715C130.638 32.1504 130.761 31.5918 131.007 31.0957C131.253 30.5957 131.599 30.2129 132.044 29.9473C132.489 29.6777 133.001 29.543 133.579 29.543C134.435 29.543 135.128 29.8184 135.659 30.3691C136.194 30.9199 136.483 31.6504 136.526 32.5605L136.532 32.8945C136.532 33.5195 136.411 34.0781 136.169 34.5703C135.931 35.0625 135.587 35.4434 135.138 35.7129C134.692 35.9824 134.177 36.1172 133.591 36.1172C132.696 36.1172 131.979 35.8203 131.44 35.2266C130.905 34.6289 130.638 33.834 130.638 32.8418V32.7715ZM132.062 32.8945C132.062 33.5469 132.196 34.0586 132.466 34.4297C132.735 34.7969 133.11 34.9805 133.591 34.9805C134.071 34.9805 134.444 34.793 134.71 34.418C134.979 34.043 135.114 33.4941 135.114 32.7715C135.114 32.1309 134.976 31.623 134.698 31.248C134.425 30.873 134.052 30.6855 133.579 30.6855C133.114 30.6855 132.745 30.8711 132.472 31.2422C132.198 31.6094 132.062 32.1602 132.062 32.8945ZM137.845 36V29.6602H140.417C141.284 29.6602 141.944 29.8125 142.397 30.1172C142.851 30.418 143.077 30.8516 143.077 31.418C143.077 31.7109 142.985 31.9746 142.802 32.209C142.622 32.4395 142.354 32.6172 141.999 32.7422C142.413 32.8281 142.741 33.002 142.983 33.2637C143.226 33.5254 143.347 33.834 143.347 34.1895C143.347 34.7793 143.128 35.2285 142.69 35.5371C142.257 35.8457 141.632 36 140.815 36H137.845ZM139.269 33.2988V34.875H140.827C141.558 34.875 141.923 34.6133 141.923 34.0898C141.923 33.5625 141.552 33.2988 140.81 33.2988H139.269ZM139.269 32.2793H140.44C141.249 32.2793 141.653 32.041 141.653 31.5645C141.653 31.0645 141.271 30.8066 140.505 30.791H139.269V32.2793ZM146.042 31.6758H147.437C147.956 31.6758 148.409 31.7656 148.796 31.9453C149.183 32.125 149.476 32.377 149.675 32.7012C149.878 33.0254 149.979 33.4023 149.979 33.832C149.979 34.4844 149.749 35.0078 149.288 35.4023C148.827 35.7969 148.214 35.9961 147.448 36H144.618V29.6602H146.042V31.6758ZM146.042 32.8184V34.8633H147.431C147.778 34.8633 148.052 34.7773 148.251 34.6055C148.454 34.4297 148.556 34.1816 148.556 33.8613C148.556 33.541 148.456 33.2891 148.257 33.1055C148.062 32.918 147.796 32.8223 147.46 32.8184H146.042ZM153.911 36.1172C153.009 36.1172 152.276 35.834 151.714 35.2676C151.155 34.6973 150.876 33.9395 150.876 32.9941V32.8184C150.876 32.1855 150.997 31.6211 151.239 31.125C151.485 30.625 151.829 30.2363 152.271 29.959C152.712 29.6816 153.204 29.543 153.747 29.543C154.61 29.543 155.276 29.8184 155.745 30.3691C156.218 30.9199 156.454 31.6992 156.454 32.707V33.2812H152.312C152.354 33.8047 152.528 34.2188 152.833 34.5234C153.142 34.8281 153.528 34.9805 153.993 34.9805C154.646 34.9805 155.177 34.7168 155.587 34.1895L156.354 34.9219C156.101 35.3008 155.761 35.5957 155.335 35.8066C154.913 36.0137 154.438 36.1172 153.911 36.1172ZM153.741 30.6855C153.351 30.6855 153.034 30.8223 152.792 31.0957C152.554 31.3691 152.401 31.75 152.335 32.2383H155.048V32.1328C155.017 31.6562 154.89 31.2969 154.667 31.0547C154.444 30.8086 154.136 30.6855 153.741 30.6855ZM28.626 48.9805C28.9814 48.9805 29.2764 48.877 29.5107 48.6699C29.7451 48.4629 29.8701 48.207 29.8857 47.9023H31.2275C31.2119 48.2969 31.0889 48.666 30.8584 49.0098C30.6279 49.3496 30.3154 49.6191 29.9209 49.8184C29.5264 50.0176 29.1006 50.1172 28.6436 50.1172C27.7568 50.1172 27.0537 49.8301 26.5342 49.2559C26.0146 48.6816 25.7549 47.8887 25.7549 46.877V46.7305C25.7549 45.7656 26.0127 44.9941 26.5283 44.416C27.0439 43.834 27.7471 43.543 28.6377 43.543C29.3916 43.543 30.0049 43.7637 30.4775 44.2051C30.9541 44.6426 31.2041 45.2188 31.2275 45.9336H29.8857C29.8701 45.5703 29.7451 45.2715 29.5107 45.0371C29.2803 44.8027 28.9854 44.6855 28.626 44.6855C28.165 44.6855 27.8096 44.8535 27.5596 45.1895C27.3096 45.5215 27.1826 46.0273 27.1787 46.707V46.9355C27.1787 47.623 27.3018 48.1367 27.5479 48.4766C27.7979 48.8125 28.1572 48.9805 28.626 48.9805ZM35.0947 50.1172C34.1924 50.1172 33.46 49.834 32.8975 49.2676C32.3389 48.6973 32.0596 47.9395 32.0596 46.9941V46.8184C32.0596 46.1855 32.1807 45.6211 32.4229 45.125C32.6689 44.625 33.0127 44.2363 33.4541 43.959C33.8955 43.6816 34.3877 43.543 34.9307 43.543C35.7939 43.543 36.46 43.8184 36.9287 44.3691C37.4014 44.9199 37.6377 45.6992 37.6377 46.707V47.2812H33.4951C33.5381 47.8047 33.7119 48.2188 34.0166 48.5234C34.3252 48.8281 34.7119 48.9805 35.1768 48.9805C35.8291 48.9805 36.3604 48.7168 36.7705 48.1895L37.5381 48.9219C37.2842 49.3008 36.9443 49.5957 36.5186 49.8066C36.0967 50.0137 35.6221 50.1172 35.0947 50.1172ZM34.9248 44.6855C34.5342 44.6855 34.2178 44.8223 33.9756 45.0957C33.7373 45.3691 33.585 45.75 33.5186 46.2383H36.2314V46.1328C36.2002 45.6562 36.0732 45.2969 35.8506 45.0547C35.6279 44.8086 35.3193 44.6855 34.9248 44.6855ZM41.7334 44.0117C42.5303 44.0117 43.1689 44.2793 43.6494 44.8145C44.1299 45.3457 44.3701 46.0684 44.3701 46.9824V47.0527C44.3701 47.9668 44.1084 48.707 43.585 49.2734C43.0654 49.8398 42.3584 50.123 41.4639 50.123C40.5928 50.123 39.8896 49.834 39.3545 49.2559C38.8193 48.6777 38.5518 47.8887 38.5518 46.8887V46.4785C38.5518 45.1113 38.7939 44.0293 39.2783 43.2324C39.7627 42.4355 40.4854 41.9375 41.4463 41.7383C41.9854 41.6289 42.333 41.5137 42.4893 41.3926C42.6494 41.2676 42.7295 41.0996 42.7295 40.8887H43.8779C43.8779 41.2832 43.8135 41.6035 43.6846 41.8496C43.5557 42.0957 43.3584 42.2969 43.0928 42.4531C42.8271 42.6055 42.3701 42.75 41.7217 42.8867C41.1279 43.0117 40.6748 43.2344 40.3623 43.5547C40.0537 43.875 39.8467 44.3184 39.7412 44.8848C40.3076 44.3027 40.9717 44.0117 41.7334 44.0117ZM41.4521 45.1543C40.9912 45.1543 40.6299 45.3105 40.3682 45.623C40.1064 45.9316 39.9756 46.4082 39.9756 47.0527C39.9756 47.6621 40.1045 48.1367 40.3623 48.4766C40.6201 48.8164 40.9873 48.9863 41.4639 48.9863C41.9365 48.9863 42.3018 48.8164 42.5596 48.4766C42.8213 48.1328 42.9521 47.6172 42.9521 46.9297C42.9521 46.3828 42.8213 45.9512 42.5596 45.6348C42.3018 45.3145 41.9326 45.1543 41.4521 45.1543ZM50.5635 43.6602V50H49.1455V47.6738H47.8154L46.4619 50H44.9854L46.4795 47.4395C46.0889 47.2754 45.7881 47.041 45.5771 46.7363C45.3701 46.4316 45.2666 46.082 45.2666 45.6875C45.2666 45.0977 45.4932 44.6152 45.9463 44.2402C46.4033 43.8613 47.0186 43.668 47.792 43.6602H50.5635ZM46.6904 45.7227C46.6904 45.9883 46.7881 46.2051 46.9834 46.373C47.1826 46.5371 47.4365 46.6191 47.7451 46.6191H49.1455V44.791H47.833C47.4854 44.791 47.208 44.8789 47.001 45.0547C46.7939 45.2305 46.6904 45.4531 46.6904 45.7227ZM59.0889 43.6602H60.5068V50H59.0889V45.7695L56.6045 50H55.1865V43.6602H56.6045V47.8906L59.0889 43.6602ZM67.6143 48.9805C67.9697 48.9805 68.2646 48.877 68.499 48.6699C68.7334 48.4629 68.8584 48.207 68.874 47.9023H70.2158C70.2002 48.2969 70.0771 48.666 69.8467 49.0098C69.6162 49.3496 69.3037 49.6191 68.9092 49.8184C68.5146 50.0176 68.0889 50.1172 67.6318 50.1172C66.7451 50.1172 66.042 49.8301 65.5225 49.2559C65.0029 48.6816 64.7432 47.8887 64.7432 46.877V46.7305C64.7432 45.7656 65.001 44.9941 65.5166 44.416C66.0322 43.834 66.7354 43.543 67.626 43.543C68.3799 43.543 68.9932 43.7637 69.4658 44.2051C69.9424 44.6426 70.1924 45.2188 70.2158 45.9336H68.874C68.8584 45.5703 68.7334 45.2715 68.499 45.0371C68.2686 44.8027 67.9736 44.6855 67.6143 44.6855C67.1533 44.6855 66.7979 44.8535 66.5479 45.1895C66.2979 45.5215 66.1709 46.0273 66.167 46.707V46.9355C66.167 47.623 66.29 48.1367 66.5361 48.4766C66.7861 48.8125 67.1455 48.9805 67.6143 48.9805ZM71.3994 50V43.6602H73.9717C74.8389 43.6602 75.499 43.8125 75.9521 44.1172C76.4053 44.418 76.6318 44.8516 76.6318 45.418C76.6318 45.7109 76.54 45.9746 76.3564 46.209C76.1768 46.4395 75.9092 46.6172 75.5537 46.7422C75.9678 46.8281 76.2959 47.002 76.5381 47.2637C76.7803 47.5254 76.9014 47.834 76.9014 48.1895C76.9014 48.7793 76.6826 49.2285 76.2451 49.5371C75.8115 49.8457 75.1865 50 74.3701 50H71.3994ZM72.8232 47.2988V48.875H74.3818C75.1123 48.875 75.4775 48.6133 75.4775 48.0898C75.4775 47.5625 75.1064 47.2988 74.3643 47.2988H72.8232ZM72.8232 46.2793H73.9951C74.8037 46.2793 75.208 46.041 75.208 45.5645C75.208 45.0645 74.8252 44.8066 74.0596 44.791H72.8232V46.2793ZM77.8682 46.7715C77.8682 46.1504 77.9912 45.5918 78.2373 45.0957C78.4834 44.5957 78.8291 44.2129 79.2744 43.9473C79.7197 43.6777 80.2314 43.543 80.8096 43.543C81.665 43.543 82.3584 43.8184 82.8896 44.3691C83.4248 44.9199 83.7139 45.6504 83.7568 46.5605L83.7627 46.8945C83.7627 47.5195 83.6416 48.0781 83.3994 48.5703C83.1611 49.0625 82.8174 49.4434 82.3682 49.7129C81.9229 49.9824 81.4072 50.1172 80.8213 50.1172C79.9268 50.1172 79.21 49.8203 78.6709 49.2266C78.1357 48.6289 77.8682 47.834 77.8682 46.8418V46.7715ZM79.292 46.8945C79.292 47.5469 79.4268 48.0586 79.6963 48.4297C79.9658 48.7969 80.3408 48.9805 80.8213 48.9805C81.3018 48.9805 81.6748 48.793 81.9404 48.418C82.21 48.043 82.3447 47.4941 82.3447 46.7715C82.3447 46.1309 82.2061 45.623 81.9287 45.248C81.6553 44.873 81.2822 44.6855 80.8096 44.6855C80.3447 44.6855 79.9756 44.8711 79.7021 45.2422C79.4287 45.6094 79.292 46.1602 79.292 46.8945ZM88.9248 43.6602H90.3428V50H88.9248V45.7695L86.4404 50H85.0225V43.6602H86.4404V47.8906L88.9248 43.6602ZM94.1338 45.7461L95.3408 43.6602H96.9229L94.9834 46.7832L96.9873 50H95.417L94.1514 47.832L92.8916 50H91.3096L93.3135 46.7832L91.3799 43.6602H92.9502L94.1338 45.7461ZM103.866 44.0117C104.663 44.0117 105.302 44.2793 105.782 44.8145C106.263 45.3457 106.503 46.0684 106.503 46.9824V47.0527C106.503 47.9668 106.241 48.707 105.718 49.2734C105.198 49.8398 104.491 50.123 103.597 50.123C102.726 50.123 102.022 49.834 101.487 49.2559C100.952 48.6777 100.685 47.8887 100.685 46.8887V46.4785C100.685 45.1113 100.927 44.0293 101.411 43.2324C101.896 42.4355 102.618 41.9375 103.579 41.7383C104.118 41.6289 104.466 41.5137 104.622 41.3926C104.782 41.2676 104.862 41.0996 104.862 40.8887H106.011C106.011 41.2832 105.946 41.6035 105.817 41.8496C105.688 42.0957 105.491 42.2969 105.226 42.4531C104.96 42.6055 104.503 42.75 103.854 42.8867C103.261 43.0117 102.808 43.2344 102.495 43.5547C102.187 43.875 101.979 44.3184 101.874 44.8848C102.44 44.3027 103.104 44.0117 103.866 44.0117ZM103.585 45.1543C103.124 45.1543 102.763 45.3105 102.501 45.623C102.239 45.9316 102.108 46.4082 102.108 47.0527C102.108 47.6621 102.237 48.1367 102.495 48.4766C102.753 48.8164 103.12 48.9863 103.597 48.9863C104.069 48.9863 104.435 48.8164 104.692 48.4766C104.954 48.1328 105.085 47.6172 105.085 46.9297C105.085 46.3828 104.954 45.9512 104.692 45.6348C104.435 45.3145 104.065 45.1543 103.585 45.1543ZM113.007 43.6602V50H111.583V44.8086H109.79L109.673 47.0176C109.599 48.0801 109.394 48.8438 109.058 49.3086C108.726 49.7695 108.216 50 107.528 50H107.089L107.083 48.8164L107.376 48.7871C107.688 48.7441 107.915 48.5547 108.056 48.2188C108.2 47.8789 108.292 47.2617 108.331 46.3672L108.448 43.6602H113.007ZM118.479 43.6602H119.897V50H118.479V45.7695L115.995 50H114.577V43.6602H115.995V47.8906L118.479 43.6602ZM126.214 45.3945C126.214 45.6758 126.128 45.9355 125.956 46.1738C125.788 46.4082 125.55 46.5957 125.241 46.7363C125.968 46.9902 126.331 47.4805 126.331 48.207C126.331 48.7891 126.095 49.2539 125.622 49.6016C125.149 49.9453 124.517 50.1172 123.724 50.1172C123.239 50.1172 122.798 50.0371 122.399 49.877C122.001 49.7129 121.69 49.4824 121.468 49.1855C121.245 48.8848 121.134 48.5293 121.134 48.1191H122.552C122.552 48.377 122.667 48.5938 122.897 48.7695C123.128 48.9414 123.419 49.0273 123.771 49.0273C124.118 49.0273 124.394 48.9473 124.597 48.7871C124.804 48.623 124.907 48.4102 124.907 48.1484C124.907 47.8398 124.817 47.6172 124.638 47.4805C124.458 47.3438 124.181 47.2754 123.806 47.2754H122.786V46.25H123.841C124.478 46.2422 124.796 45.9805 124.796 45.4648C124.796 45.207 124.704 45.0059 124.521 44.8613C124.337 44.7168 124.085 44.6445 123.765 44.6445C123.452 44.6445 123.188 44.7227 122.974 44.8789C122.759 45.0312 122.651 45.2246 122.651 45.459H121.233C121.233 44.9004 121.468 44.4434 121.937 44.0879C122.405 43.7285 123.001 43.5488 123.724 43.5488C124.509 43.5488 125.12 43.709 125.558 44.0293C125.995 44.3496 126.214 44.8047 126.214 45.3945ZM129.794 47.4922H129.073V50H127.649V43.6602H129.073V46.1914H129.7L131.452 43.6602H133.21L130.919 46.6953L133.403 50H131.552L129.794 47.4922ZM138.144 43.6602H139.562V50H138.144V45.7695L135.659 50H134.241V43.6602H135.659V47.8906L138.144 43.6602ZM143.353 45.7461L144.56 43.6602H146.142L144.202 46.7832L146.206 50H144.636L143.37 47.832L142.11 50H140.528L142.532 46.7832L140.599 43.6602H142.169L143.353 45.7461Z" fill="#2F3646"/>
<path d="M263.478 7.12425C264.258 6.62666 265.313 7.7255 264.808 8.61701C264.541 9.44863 263.349 9.43942 263.04 8.65618C262.791 8.11943 262.989 7.38456 263.478 7.12425Z" fill="#F4515E"/>
<path d="M212.606 9.20211C213.72 8.87959 214.811 10.1996 214.539 11.432C214.322 12.7451 212.728 13.3694 211.86 12.4295C210.818 11.5357 211.32 9.42786 212.606 9.20211Z" fill="#F2515C"/>
<path d="M205.674 9.43691C206.285 9.12592 206.972 9.77555 206.771 10.5058C206.657 11.319 205.504 11.3973 205.259 10.6625C205.118 10.2202 205.22 9.58434 205.674 9.43691Z" fill="#F3505D"/>
<path d="M228.747 9.43228C229.114 9.28254 229.556 9.53825 229.425 10.0266C229.441 10.5611 228.744 10.6371 228.532 10.2455C228.301 10.0197 228.481 9.49678 228.747 9.43228Z" fill="#F14E5B"/>
<path d="M224.279 10.3658C224.935 9.93275 225.861 10.5939 225.793 11.4462C225.851 12.3101 224.925 12.9413 224.263 12.5221C223.484 12.1604 223.502 10.716 224.279 10.3658Z" fill="#971B30"/>
<path d="M257.528 11.1282C257.663 11.1489 257.934 11.1904 258.071 11.2111C258.198 11.5014 257.965 11.7962 257.924 12.0842C258.122 12.0473 258.519 11.9782 258.717 11.9414C258.67 12.1809 258.578 12.6601 258.531 12.8974C258.715 12.7131 258.899 12.5265 259.083 12.3399L259.101 12.4459C259.122 12.5726 259.165 12.826 259.185 12.9527C259.304 12.9964 259.543 13.0794 259.663 13.1231C259.369 13.1807 259.224 13.3512 259.228 13.6345C259.487 13.7106 259.7 13.6161 259.868 13.3489L259.923 13.5608C259.951 13.6898 260.011 13.9455 260.041 14.0722C260.16 14.0699 260.399 14.0676 260.518 14.0676C260.53 14.1252 260.552 14.2404 260.565 14.3003C260.205 14.3648 259.845 14.4385 259.487 14.5214C259.962 14.9223 260.536 14.7242 261.059 14.5813C261.055 14.7679 261.045 15.1457 261.039 15.3346C260.744 15.2241 260.466 15.0006 260.146 15.019C259.806 15.3415 260.305 15.7101 260.432 16.0073C260.094 15.7885 259.733 15.618 259.34 15.595C259.712 16.0603 260.193 16.4035 260.769 16.4035C260.648 16.6155 260.528 16.8251 260.409 17.0347C260.146 16.8021 259.968 16.2492 259.582 16.3137C259.142 16.5487 259.706 16.9265 259.757 17.2282C259.412 16.9771 259.095 16.6823 258.752 16.4312C258.96 16.9656 259.279 17.4264 259.575 17.9009C259.412 18.0437 259.242 18.175 259.075 18.3086C259.101 17.7995 258.897 16.5141 258.353 17.4033C258.433 17.5047 258.592 17.7051 258.672 17.8065C258.531 17.8157 258.392 17.8272 258.253 17.8387C258.245 17.4655 258.188 17.1015 257.889 16.8827C257.842 17.454 257.936 18.0138 258.09 18.5551C257.859 18.5183 257.63 18.4791 257.401 18.44C257.53 18.0875 257.636 17.7235 257.72 17.3526C257.399 17.2743 257.09 17.1476 256.804 16.9702C256.63 17.3434 256.512 17.7443 256.426 18.1543C256.23 18.0322 256.036 17.9124 255.842 17.788C256.128 17.5093 256.41 17.2282 256.688 16.938C256.524 16.8758 256.197 16.7537 256.034 16.6915C256.011 16.832 255.966 17.1131 255.944 17.2536C255.551 16.9242 256.003 16.468 256.13 16.1317C256.342 15.9313 256.553 15.7286 256.759 15.5166C256.432 15.618 256.105 15.7217 255.805 15.9013C255.372 15.6479 255.298 15.3346 255.586 14.9638C255.241 14.9845 254.899 15.0421 254.57 15.155C254.546 14.9269 254.523 14.7011 254.501 14.4731C254.875 14.5813 255.263 14.6689 255.647 14.5606C255.972 14.579 256.324 14.533 256.624 14.708C256.978 15.1158 257.18 15.7539 257.703 15.9313C258.19 15.7032 258.617 15.3462 259.056 15.0236C258.86 14.6113 258.67 14.1966 258.49 13.7751C258.227 13.6668 257.965 13.5562 257.703 13.4479L257.705 13.289C257.795 12.5587 257.671 11.8377 257.528 11.1282Z" fill="#B21431"/>
<path d="M256.058 11.6317C256.234 11.5856 256.41 11.5418 256.588 11.498C256.602 11.786 256.618 12.0763 256.635 12.3665L256.522 12.4149C256.322 12.2928 256.124 12.1638 255.932 12.0279C255.962 11.9288 256.026 11.7307 256.058 11.6317Z" fill="#DF293D"/>
<path d="M259.042 11.5071C259.351 11.5716 259.641 11.7075 259.755 12.06C259.618 12.1383 259.342 12.2926 259.205 12.3709C259.426 12.5138 259.653 12.6428 259.884 12.7649C259.89 12.8778 259.904 13.1012 259.911 13.2141C260.105 13.0298 260.321 12.8985 260.562 12.8225C260.65 13.0436 260.736 13.2694 260.816 13.4997C260.518 13.5297 260.219 13.5504 259.923 13.5596L259.868 13.3477L259.827 13.1818L259.663 13.1219C259.543 13.0782 259.304 12.9952 259.185 12.9515C259.165 12.8248 259.122 12.5714 259.101 12.4447C259.087 12.2097 259.056 11.7397 259.042 11.5071Z" fill="#DF293D"/>
<path d="M221.275 13.8501C221.733 13.705 222.078 14.1197 222.369 14.4491C222.021 14.7509 221.69 15.101 221.279 15.2899C221.206 15.306 221.063 15.3383 220.991 15.3544C221.061 15.1286 221.132 14.9052 221.204 14.6794C221.175 14.3915 221.2 14.115 221.275 13.8501Z" fill="#DF293D"/>
<path d="M280.666 26.649C281.066 26.7227 281.279 26.3127 281.504 26.0178C281.549 26.338 281.602 26.6582 281.661 26.9761C281.205 26.7504 281.34 27.5728 281.698 27.1766L281.841 27.1051C281.898 27.3125 281.957 27.5221 282.017 27.7294C281.833 27.6972 281.465 27.6327 281.281 27.6004C281.297 27.7663 281.326 28.0957 281.342 28.2593C281.105 28.1856 280.87 28.1095 280.637 28.0358C280.837 27.6788 281.05 27.3263 281.164 26.9186C281.091 26.9232 280.942 26.9301 280.866 26.9324C280.815 27.0061 280.713 27.1535 280.664 27.2272C280.543 27.2341 280.306 27.2503 280.188 27.2572C280.351 27.0683 280.398 26.6836 280.666 26.649Z" fill="#DF293D"/>
<path d="M212.841 27.5115C213.143 27.5829 213.413 27.7326 213.562 28.0528C213.301 28.2556 213.043 28.4698 212.863 28.7716C213.166 28.79 213.466 28.8061 213.767 28.8176C213.689 29.0227 213.722 29.4696 213.421 29.2622C213.145 29.0618 212.884 28.8407 212.618 28.6218C212.692 28.2509 212.765 27.8824 212.841 27.5115Z" fill="#DF293D"/>
<path d="M212.166 32.1436C212.303 32.3486 212.44 32.5559 212.575 32.7655C212.626 33.5119 212.979 34.1431 213.55 34.5278C213.294 34.6937 213.03 34.848 212.763 34.9863C212.679 34.537 212.763 33.9773 212.403 33.6594C212.299 33.7216 212.088 33.8483 211.984 33.9105C212.103 34.127 212.221 34.3435 212.34 34.5624C212.203 34.5808 211.929 34.6223 211.792 34.6407C211.8 34.3735 211.808 34.1063 211.812 33.839C211.988 33.7469 212.162 33.6547 212.338 33.5626C212.278 33.0904 212.221 32.6158 212.166 32.1436Z" fill="#DF293D"/>
<path d="M280.743 40.5129C281.152 40.4092 281.567 40.3148 281.982 40.2341C281.939 40.5359 281.898 40.84 281.853 41.1441C281.52 40.9644 281.183 40.7893 280.86 40.5889L280.743 40.5129Z" fill="#DF293D"/>
<path d="M199.689 46.2239C199.949 46.2861 200.209 46.3506 200.468 46.4105C200.566 46.3828 200.762 46.3275 200.86 46.2976C201.149 46.3621 201.437 46.4243 201.725 46.4888C201.666 46.5763 201.547 46.7537 201.488 46.8413C201.29 46.8228 201.091 46.8044 200.893 46.7883C200.893 47.097 200.895 47.408 200.893 47.7213C201.23 47.4494 201.627 47.3435 202.031 47.2951C201.799 47.5185 201.561 47.7351 201.32 47.9493C200.94 48.1543 200.603 48.4331 200.292 48.7533C200.172 48.5206 200.061 48.281 199.965 48.0345C200.188 48 200.638 47.9309 200.863 47.8963C200.683 47.7143 200.497 47.5393 200.311 47.3688C200.458 47.1384 200.607 46.9081 200.756 46.6777C200.435 46.7768 200.117 46.885 199.802 47.0002C199.763 46.7422 199.726 46.4819 199.689 46.2239Z" fill="#DF293D"/>
<path d="M201.774 48.612C201.95 48.324 202.118 48.0338 202.283 47.7412C202.316 48.1835 202.351 48.6258 202.394 49.0681C202.408 49.2086 202.434 49.4874 202.449 49.6256C202.328 49.6164 202.085 49.598 201.964 49.5887C202.058 49.2824 202.185 48.976 202.173 48.6442C201.805 48.9668 201.774 49.4897 201.703 49.9665C201.484 49.8767 201.274 49.7684 201.071 49.6417C201.29 49.2847 201.556 48.9668 201.774 48.612Z" fill="#DF293D"/>
<path d="M204.98 47.7988C205.319 47.9394 205.663 48.073 206.004 48.2089C205.879 48.4093 205.759 48.6143 205.603 48.7894C205.313 48.5683 205.097 48.255 204.898 47.937L204.98 47.7988Z" fill="#DF293D"/>
<path d="M268.201 12.3215C268.522 11.9575 268.916 11.6788 269.395 11.8008C269.697 12.3077 269.331 12.925 269.391 13.4825L269.466 13.6576C269.91 14.2934 269.922 15.0951 269.859 15.8668C269.769 15.8921 269.589 15.9428 269.499 15.9682C269.366 15.5765 269.233 15.1872 269.096 14.8002C269.198 13.8373 268.888 12.9135 268.201 12.3215Z" fill="#F21B42"/>
<path d="M271.13 11.8169C271.542 11.8445 272.078 11.757 272.362 12.1878C272.405 12.7821 271.806 13.0908 271.549 13.54C271.514 13.5861 271.442 13.6782 271.408 13.7243C271.348 14.3371 271.289 14.9522 271.181 15.5557C271.042 15.5166 270.766 15.4359 270.629 15.3945C270.729 15.072 270.831 14.7517 270.937 14.4315C271.309 13.6068 271.405 12.6992 271.13 11.8169Z" fill="#F21837"/>
<path d="M256.634 12.3673C256.901 12.2268 257.165 12.0725 257.423 11.9043C257.427 12.0702 257.435 12.4042 257.439 12.5701L257.664 12.7797C257.674 12.9064 257.694 13.1598 257.705 13.2888L257.703 13.4477C257.964 13.556 258.226 13.6666 258.489 13.7749C258.669 14.1964 258.859 14.6111 259.055 15.0234C258.616 15.3459 258.189 15.703 257.703 15.9311C257.179 15.7537 256.977 15.1156 256.624 14.7078C256.323 14.5328 255.972 14.5788 255.647 14.5604L255.312 14.0928C255.414 14.072 255.622 14.0306 255.726 14.0098C256.076 14.0421 256.421 14.1089 256.769 14.1711C256.523 13.8186 256.28 13.4639 256.062 13.0884C256.098 12.9801 256.172 12.7636 256.209 12.6553C256.335 12.7497 256.589 12.9409 256.716 13.0354C256.65 12.8281 256.585 12.623 256.521 12.4157L256.634 12.3673ZM257.564 14.2655C257.269 14.4959 257.596 15.0856 257.899 14.823C258.193 14.595 257.864 14.0052 257.564 14.2655Z" fill="#911428"/>
<path d="M255.777 12.586C255.902 12.5514 256.156 12.4869 256.28 12.4524L256.209 12.6551C256.172 12.7634 256.098 12.9799 256.062 13.0882C256.28 13.4637 256.523 13.8185 256.769 14.1709C256.421 14.1087 256.076 14.0419 255.726 14.0097C255.622 14.0304 255.414 14.0719 255.311 14.0926C255.234 14.1064 255.079 14.1364 255.001 14.1525C255.189 13.8807 255.457 13.7102 255.718 13.542C255.42 13.4913 255.123 13.4384 254.827 13.3808C254.925 13.1089 255.048 12.8486 255.195 12.6067C255.42 12.8832 255.649 13.1596 255.89 13.4245C255.853 13.1435 255.814 12.8647 255.777 12.586Z" fill="#E62F44"/>
<path d="M210.051 33.3537C210.271 32.9229 210.559 32.5428 210.858 32.1789C210.78 32.711 210.692 33.2408 210.606 33.773C210.772 33.7891 211.107 33.8214 211.273 33.8375C211.258 33.2316 211.33 32.6281 211.457 32.0383L211.624 32.3862C211.643 32.7202 211.643 33.0565 211.645 33.3929C211.522 34.0218 211.579 34.6576 211.734 35.275C211.463 35.2634 211.191 35.2565 210.919 35.2588C211.064 34.8234 211.23 34.3857 211.248 33.9158C211.128 33.9089 210.882 33.8928 210.762 33.8836C210.772 34.1715 210.927 34.5793 210.527 34.6161C210.167 34.3765 210.533 33.8467 210.502 33.4873C210.073 33.8306 209.961 34.365 209.977 34.934C209.674 34.8304 209.392 34.6668 209.219 34.3581C209.578 34.1162 209.883 33.7937 210.051 33.3537Z" fill="#E62F44"/>
<path d="M279.748 36.8433C280.046 36.9331 280.302 37.1174 280.506 37.3777C280.273 37.6012 280.04 37.8223 279.807 38.0389C280.171 38.0711 280.567 38.0734 280.847 38.3913C280.712 38.442 280.443 38.5411 280.308 38.5894C280.081 38.3775 279.864 38.1563 279.646 37.9375C279.676 37.5712 279.709 37.2072 279.748 36.8433Z" fill="#E62F44"/>
<path d="M270.02 13.2218C269.628 12.5537 270.588 12.4593 270.966 12.6574C271.056 12.9223 270.97 13.1849 270.893 13.436C270.601 13.3623 270.31 13.2909 270.02 13.2218Z" fill="#FF5863"/>
<path d="M281.285 12.72C282.595 12.3145 284.066 13.183 284.446 14.6643C284.941 16.316 283.796 18.2787 282.243 18.3847C280.643 18.6565 279.172 16.8689 279.458 15.0927C279.57 13.9893 280.351 13.031 281.285 12.72Z" fill="#F2525F"/>
<path d="M206.32 40.9857C208.016 40.1933 210.1 41.8588 210.008 43.916C210.039 45.1922 209.314 46.4177 208.263 46.8831C207.593 47.1687 206.863 47.0512 206.172 46.9383C206.179 46.7886 206.189 46.4914 206.193 46.3417C205.794 46.1989 205.498 46.6711 205.876 46.9844C205.725 46.9706 205.422 46.9476 205.271 46.936C205.163 46.8577 204.948 46.6988 204.842 46.6204L204.879 46.4338C204.995 46.4338 205.228 46.4315 205.345 46.4315C205.322 46.3486 205.279 46.1804 205.259 46.0975L205.243 46.0607C205.202 45.9224 205.118 45.6437 205.075 45.5032C205.408 45.4202 205.739 45.3212 206.07 45.2244C205.913 45.0309 205.876 44.637 205.621 44.584C205.378 44.7499 205.161 44.9618 204.95 45.1761C204.844 45.2981 204.634 45.5469 204.527 45.6713C204.476 45.5516 204.374 45.3166 204.325 45.1968C204.423 45.1162 204.623 44.9549 204.724 44.8743C204.585 44.6324 204.446 44.3905 204.307 44.1509C204.531 43.9712 204.756 43.7939 204.983 43.6165C204.828 43.5865 204.517 43.5243 204.362 43.4944C204.719 42.4278 205.281 41.3244 206.32 40.9857Z" fill="#F2525F"/>
<path d="M227.541 12.9131C228.174 12.6251 228.828 13.512 228.446 14.157C228.227 14.9011 227.097 14.7237 227.017 13.9589C226.899 13.5327 227.156 13.019 227.541 12.9131Z" fill="#F1545C"/>
<path d="M267.535 13.7272C267.768 13.3517 268.103 13.1236 268.5 13.043C268.571 13.2849 268.647 13.5267 268.718 13.7686C268.459 13.8907 268.199 14.0082 267.948 14.1441C267.844 14.0404 267.639 13.8308 267.535 13.7272Z" fill="#FF4B62"/>
<path d="M218.73 13.3212C218.978 13.1692 219.241 13.1162 219.519 13.1646C220.245 13.3696 219.47 14.1828 219.423 14.6665C219.313 15.2977 219.773 16.3459 219.07 16.5901C218.937 16.3183 218.827 16.0326 218.739 15.7377C219.423 15.1181 218.941 14.0768 218.73 13.3212Z" fill="#EF1D32"/>
<path d="M265.978 14.4063C265.88 13.7659 266.362 13.3996 266.746 13.0518C267.122 13.5401 267.061 14.3487 267.574 14.7012C267.678 14.7472 267.882 14.8417 267.985 14.8901C267.619 15.2748 268.381 15.4683 268.154 14.9477C268.487 15.4268 268.782 15.9428 269.031 16.4842C268.908 16.5141 268.661 16.574 268.538 16.604C268.265 16.3598 267.989 16.1156 267.748 15.8323C267.361 15.0974 266.814 14.3648 265.978 14.4063Z" fill="#EE1C40"/>
<path d="M269.391 13.4822C269.597 13.3878 269.808 13.3002 270.02 13.2219C270.311 13.291 270.601 13.3624 270.893 13.4362C270.785 13.7011 270.679 13.9637 270.574 14.2286C270.664 14.2793 270.848 14.3807 270.938 14.4313C270.832 14.7515 270.73 15.0718 270.629 15.3943C270.766 15.4357 271.042 15.5164 271.181 15.5555C271.29 14.952 271.349 14.3369 271.408 13.7241C271.443 13.678 271.514 13.5859 271.549 13.5398C271.78 13.556 272.003 13.6135 272.219 13.7126C272.422 13.9314 272.614 14.1618 272.808 14.3922C272.571 14.5396 272.334 14.687 272.099 14.8368C272.273 14.9888 272.446 15.1409 272.624 15.2929C272.739 15.1616 272.965 14.899 273.078 14.7677C273.217 14.816 273.495 14.9082 273.632 14.9566C273.689 15.0948 273.803 15.3712 273.861 15.5094C273.91 15.7767 273.938 16.0462 273.973 16.318L273.752 16.265C273.127 15.9541 272.583 16.5254 272.154 16.9631C272.105 16.8916 272.005 16.7511 271.954 16.6797C271.322 16.4401 270.758 16.0416 270.274 15.5279C270.029 15.9264 270.035 16.3756 270.161 16.8225C270.112 16.9239 270.018 17.1289 269.969 17.2303C269.837 16.94 269.706 16.6475 269.577 16.3572C269.44 16.3894 269.166 16.4516 269.031 16.4839C268.782 15.9425 268.488 15.4265 268.155 14.9474L267.985 14.8898C267.883 14.8414 267.678 14.7469 267.574 14.7009C267.668 14.5603 267.854 14.2839 267.948 14.1434C268.2 14.0075 268.459 13.89 268.719 13.7679C268.829 14.118 268.948 14.4682 269.097 14.7999C269.234 15.1869 269.367 15.5763 269.499 15.9679C269.589 15.9425 269.769 15.8919 269.859 15.8665C269.922 15.0948 269.91 14.2931 269.467 13.6573L269.391 13.4822Z" fill="#A21832"/>
<path d="M272.219 13.7127C272.266 13.5791 272.364 13.3118 272.413 13.1782C272.758 13.3671 273.267 13.4293 273.347 13.9453C273.226 14.1757 272.993 14.2563 272.807 14.3922C272.613 14.1619 272.421 13.9315 272.219 13.7127Z" fill="#E85D64"/>
<path d="M273.757 13.2471C274.236 13.3139 274.718 13.5995 274.783 14.1962C274.552 14.6016 274.042 14.5809 273.698 14.7951C273.586 14.6684 273.477 14.5417 273.369 14.4104C273.571 14.058 273.663 13.6479 273.757 13.2471Z" fill="#F02134"/>
<path d="M198.367 16.3735C199.199 14.9937 200.282 13.4295 201.925 13.4709C203.818 13.1093 205.767 14.1459 206.771 15.9727C206.332 16.6085 206.287 17.4908 206.554 18.2234C206.761 18.691 207.208 18.9214 207.607 19.1333C207.394 19.2623 207.268 19.4604 207.225 19.73C206.891 20.9509 206.407 22.2432 205.408 22.9528C203.808 24.2359 201.474 24.2958 199.882 22.9597C198.956 22.2686 198.437 21.0891 198.094 19.935C197.895 18.7555 198.024 17.5046 198.367 16.3735ZM204.502 21.2596C204.196 21.8171 204.944 22.4437 205.355 21.9852C205.661 21.7088 205.4 21.2596 205.34 20.9256C205.046 20.9855 204.627 20.8472 204.502 21.2596Z" fill="#F69898"/>
<path d="M216.252 14.404C216.526 13.9939 216.898 13.7336 217.364 13.7636C217.409 14.2243 217.286 14.7657 217.586 15.1412C217.895 15.7217 218.694 16.4865 218.093 17.1407C217.901 16.9034 217.723 16.6523 217.55 16.3989C217.486 16.1548 217.417 15.9129 217.343 15.6756C217.202 15.0582 216.665 14.7587 216.252 14.404Z" fill="#E11834"/>
<path d="M279.477 43.0425H279.603C279.891 43.2867 280.141 43.5838 280.404 43.8603C280.323 43.9547 280.159 44.1413 280.077 44.2358C279.985 44.245 279.799 44.2634 279.705 44.2726C279.636 43.8603 279.56 43.4502 279.477 43.0425Z" fill="#E11834"/>
<path d="M220.298 14.2539C220.502 14.3461 220.829 14.3046 220.868 14.6271C220.639 15.0348 220.357 15.4057 220.171 15.8411C220.036 16.2212 219.934 16.6151 219.83 17.0068C220.412 16.7971 220.976 16.3894 220.947 15.6131L220.99 15.3551C221.062 15.3389 221.205 15.3067 221.278 15.2905C221.358 15.385 221.516 15.5693 221.595 15.6614C221.771 15.8826 221.937 16.1106 222.11 16.3341C221.849 16.4378 221.583 16.5276 221.311 16.6013C220.98 16.834 220.714 17.1611 220.443 17.4721C220.191 17.2302 219.852 17.2602 219.545 17.2187C219.225 17.092 218.791 16.5553 218.505 17.016C218.188 17.3385 218.748 17.691 218.951 17.8799L218.81 18.1839C218.524 17.9927 218.246 17.7854 217.966 17.5827C217.833 17.9259 217.453 18.3129 217.776 18.6654C218.064 18.6677 218.35 18.617 218.634 18.5825C218.824 18.8082 219.012 19.034 219.2 19.262C219.124 19.5661 219.049 19.8725 218.975 20.1789C219.278 20.1674 219.58 20.1582 219.885 20.1489C219.752 19.8495 219.621 19.55 219.503 19.2436L219.5 18.9626C219.713 19.1146 219.928 19.2667 220.15 19.4026C220.216 19.4371 220.342 19.5085 220.408 19.5454C220.89 19.9577 221.256 20.6511 221.93 20.6627L222.264 20.7318C222.19 20.8838 222.114 21.0382 222.039 21.1925C221.951 21.3561 221.775 21.6878 221.687 21.8536C221.616 21.8329 221.471 21.7868 221.399 21.7638C221.293 21.6717 221.08 21.4851 220.974 21.3929C220.751 21.204 220.488 21.0865 220.24 20.9506C220.375 21.3353 220.518 21.72 220.676 22.0955C220.71 22.1785 220.778 22.3443 220.813 22.4296C220.578 22.5217 220.345 22.6208 220.114 22.729L219.893 22.8442C219.819 22.6784 219.672 22.3489 219.599 22.1854L219.699 22.0541C219.754 21.978 219.866 21.8214 219.924 21.7454C219.807 21.1925 219.533 20.7156 219.204 20.2987C219.141 20.6788 219.077 21.0589 219.037 21.4436C219.049 21.8744 219.098 22.3006 219.127 22.7313C218.793 22.7336 218.462 22.7383 218.129 22.7429C218.076 22.6069 217.968 22.3351 217.915 22.1969L218.152 21.9089C218.661 21.5127 218.558 20.7709 218.612 20.1674C218.066 20.7364 217.559 21.3745 217.297 22.1739L216.977 21.8974C216.752 21.6901 216.631 21.3929 216.509 21.105C217.034 20.7963 217.518 20.407 217.933 19.9301C217.236 19.6514 216.615 20.0868 216.139 20.6304C216.049 20.5014 215.865 20.2411 215.773 20.1121C215.775 19.7965 215.785 19.4809 215.799 19.1676C216.439 19.2943 217.091 19.2367 217.725 19.0985C217.355 18.7069 216.864 18.4811 216.351 18.5594C216.143 18.5709 215.938 18.5963 215.734 18.6354C215.701 18.4972 215.64 18.2162 215.609 18.078C215.673 17.866 215.748 17.6587 215.83 17.456L216.047 17.2164C216.431 17.7946 217.044 17.8983 217.639 17.7601C217.257 17.2049 216.752 16.7879 216.151 16.5875L216.31 16.318C216.464 16.0646 216.633 15.8227 216.84 15.6246C217.093 15.8619 217.322 16.1291 217.549 16.3986C217.723 16.652 217.9 16.9031 218.092 17.1404C218.693 16.4861 217.894 15.7213 217.586 15.1408C217.915 14.8183 218.248 14.4428 218.724 14.4981C218.712 14.9104 218.716 15.3251 218.738 15.7375C218.826 16.0323 218.936 16.318 219.069 16.5898C219.772 16.3456 219.312 15.2975 219.423 14.6663C219.742 14.5995 220.148 14.6686 220.298 14.2539ZM217.757 19.2736C217.921 19.702 218.201 20.0199 218.634 20.0499C218.661 19.6813 218.687 19.3104 218.714 18.9418C218.395 19.0524 218.076 19.163 217.757 19.2736Z" fill="#9C172E"/>
<path d="M257.564 14.265C257.865 14.0047 258.194 14.5944 257.9 14.8225C257.597 15.0851 257.27 14.4954 257.564 14.265Z" fill="#5F0003"/>
<path d="M265.921 15.876C265.964 15.3278 266.219 14.8601 266.742 14.791C266.773 14.9615 266.832 15.3047 266.861 15.4775C266.781 15.7148 266.702 15.9544 266.636 16.1985C266.397 16.0903 266.158 15.9843 265.921 15.876Z" fill="#FF4E5B"/>
<path d="M267.985 14.8894L268.154 14.947C268.381 15.4676 267.619 15.2741 267.985 14.8894Z" fill="#F0586D"/>
<path d="M215.927 15.7495C216.123 15.5123 216.256 15.0769 216.605 15.1045C216.875 15.2497 217.122 15.4478 217.343 15.6758C217.417 15.9131 217.486 16.155 217.549 16.3992C217.323 16.1297 217.094 15.8624 216.84 15.6252C216.634 15.8233 216.464 16.0651 216.311 16.3186C216.215 16.1757 216.023 15.8924 215.927 15.7495Z" fill="#E7666F"/>
<path d="M273.86 15.5094C273.969 15.3965 274.185 15.1731 274.294 15.0625C274.729 15.2975 274.86 15.7928 274.831 16.3042C274.543 16.3111 274.257 16.3157 273.973 16.318C273.938 16.0462 273.909 15.7766 273.86 15.5094Z" fill="#EC5962"/>
<path d="M206.771 15.9723C207.681 14.7675 209.657 15.3434 209.794 16.9628C210.078 18.3312 208.77 19.6143 207.607 19.1329C207.209 18.9209 206.761 18.6906 206.555 18.2229C206.287 17.4904 206.332 16.6081 206.771 15.9723Z" fill="#F2515F"/>
<path d="M221.596 15.6619C221.796 15.5421 221.994 15.4201 222.194 15.2957C222.472 15.5537 222.84 15.8485 222.648 16.3185C222.515 16.3231 222.246 16.33 222.111 16.3346C221.937 16.1111 221.771 15.8831 221.596 15.6619Z" fill="#EC5A6B"/>
<path d="M266.861 15.4773C266.961 15.422 267.161 15.3137 267.262 15.2607C267.419 15.4566 267.58 15.6478 267.748 15.832C267.989 16.1154 268.265 16.3596 268.539 16.6038C268.661 16.5738 268.909 16.5139 269.031 16.484C269.166 16.4517 269.44 16.3895 269.577 16.3573C269.706 16.6475 269.837 16.9401 269.969 17.2304C269.904 17.3133 269.773 17.4815 269.708 17.5667C268.831 17.6151 268.069 17.1175 267.284 16.765C267.063 16.6775 266.836 16.6706 266.604 16.7397C266.612 16.6061 266.628 16.3342 266.636 16.1983C266.702 15.9541 266.781 15.7146 266.861 15.4773Z" fill="#8C1122"/>
<path d="M214.692 16.8132C214.594 16.2396 214.837 15.7282 215.332 15.5347C215.569 15.9125 215.704 16.4676 216.151 16.5874C216.752 16.7879 217.257 17.2048 217.639 17.76C217.045 17.8982 216.431 17.7945 216.047 17.2163C215.726 16.7141 215.177 16.7832 214.692 16.8132Z" fill="#EA2447"/>
<path d="M220.171 15.8411C220.429 15.7651 220.688 15.6891 220.948 15.613C220.977 16.3894 220.413 16.7971 219.83 17.0067C219.934 16.6151 220.036 16.2212 220.171 15.8411Z" fill="#CE203F"/>
<path d="M255.805 15.9008C256.105 15.7211 256.432 15.6175 256.759 15.5161C256.553 15.728 256.343 15.9308 256.13 16.1312C255.77 16.3915 255.439 16.6933 255.08 16.9513C254.902 16.767 254.936 16.4675 254.871 16.2302C255.202 16.198 255.523 16.1105 255.805 15.9008Z" fill="#E0213F"/>
<path d="M217.298 22.1737C217.56 21.3743 218.066 20.7362 218.612 20.1672C218.559 20.7708 218.661 21.5126 218.152 21.9088C218.093 21.9434 217.979 22.0102 217.921 22.0447C217.476 22.6575 217.18 23.3877 217.269 24.1986C216.799 24.1756 216.378 23.9613 216.147 23.4845C216.607 23.1436 217.143 22.821 217.298 22.1737Z" fill="#E0213F"/>
<path d="M278.587 24.0096C278.669 23.7746 278.679 23.4659 278.92 23.353C279.106 23.4912 279.294 23.6318 279.478 23.7769L279.701 23.823C280.067 23.8806 280.418 24.0234 280.716 24.2745C280.367 24.316 280.017 24.3551 279.67 24.3851C279.682 24.521 279.707 24.7905 279.719 24.9264C280.083 24.8965 280.445 24.8642 280.808 24.832C280.5 25.143 280.185 25.4493 279.921 25.811C279.778 26.0045 279.643 26.2026 279.507 26.4008C279.48 26.2741 279.427 26.023 279.398 25.8986C279.521 25.7834 279.766 25.5576 279.887 25.4447C279.507 25.5622 279.151 25.7488 278.787 25.9147C278.744 25.7373 278.656 25.3848 278.611 25.2075C279.002 25.1913 279.394 25.1752 279.787 25.1384C279.592 24.8573 279.339 24.6845 279.024 24.62C279.073 24.4634 279.122 24.3044 279.173 24.1478C279.026 24.1132 278.734 24.0441 278.587 24.0096Z" fill="#E0213F"/>
<path d="M214.247 28.8542C214.437 29.0155 214.598 29.2067 214.731 29.4256C214.553 29.8264 214.096 29.7388 213.781 29.8817L213.701 29.7043C213.867 29.4071 214.059 29.133 214.247 28.8542Z" fill="#E0213F"/>
<path d="M281.189 38.1775C281.412 38.394 281.555 38.6797 281.635 38.9999C281.336 39.122 280.403 38.9561 280.774 39.5965C280.924 39.6173 281.224 39.6564 281.373 39.6749C281.355 39.79 281.322 40.0204 281.304 40.1379C281.13 40.1079 280.956 40.0803 280.783 40.0504C280.727 39.6956 280.672 39.3408 280.619 38.9884C280.811 38.7188 280.999 38.447 281.189 38.1775Z" fill="#E0213F"/>
<path d="M278.248 43.2338L278.399 43.2039C278.436 43.6346 278.522 44.0562 278.612 44.4755C278.524 44.8187 277.954 44.8302 277.915 44.4501C277.997 44.0355 278.111 43.63 278.248 43.2338Z" fill="#E0213F"/>
<path d="M270.161 16.8225C270.035 16.3756 270.029 15.9264 270.274 15.5278C270.758 16.0415 271.322 16.4401 271.954 16.6797C272.005 16.7511 272.105 16.8916 272.154 16.963C272.113 17.0621 272.031 17.2625 271.99 17.3615C271.612 17.5689 271.218 17.737 270.83 17.9121C271.15 17.9421 271.473 17.972 271.794 18.0043C271.864 18.283 271.931 18.5617 272.001 18.8405C271.737 18.8796 271.414 19.2068 271.197 18.9027C270.999 18.7 270.824 18.4742 270.642 18.2531C270.725 17.9697 270.813 17.6864 270.879 17.3961C270.676 17.1519 270.409 16.9953 270.161 16.8225Z" fill="#800C1E"/>
<path d="M204.225 47.6917C204.404 47.717 204.584 47.7423 204.764 47.7677L204.981 47.7999L204.899 47.9381C204.742 48.1846 204.529 48.3758 204.333 48.5786L204.257 48.1363C204.245 47.9888 204.235 47.8391 204.225 47.6917Z" fill="#800C1E"/>
<path d="M222.202 16.8828C222.721 16.634 222.934 15.9913 223.384 15.678C223.809 15.8991 223.946 16.4244 223.862 16.9104C223.359 16.9565 222.358 16.7814 222.693 17.7305C222.903 17.643 223.116 17.5624 223.332 17.4933C223.598 17.7075 223.559 18.1498 223.504 18.47C223.055 18.4216 222.605 18.3525 222.153 18.3272C222.192 18.4654 222.268 18.7395 222.307 18.8777C222.063 18.9169 221.822 18.9699 221.581 19.0206C221.845 18.6727 222.102 18.3203 222.38 17.9862L222.689 17.977C222.642 17.6315 222.595 17.2859 222.542 16.945C222.456 16.9289 222.286 16.8966 222.202 16.8828Z" fill="#F03456"/>
<path d="M264.778 17.3621C264.706 16.8691 264.553 16.1504 265.064 15.8809C265.415 15.92 265.607 16.3162 265.887 16.519C266.271 16.8991 266.815 16.8231 267.283 16.7655C268.068 17.1179 268.83 17.6155 269.707 17.5671L269.821 17.7169C268.708 17.7215 267.471 18.1131 266.472 17.3736C265.953 16.9221 265.331 17.1225 264.778 17.3621Z" fill="#E41A3C"/>
<path d="M272.154 16.9636C272.583 16.5259 273.127 15.9546 273.752 16.2656C273.652 16.3025 273.449 16.3808 273.349 16.42C273.355 16.5305 273.37 16.754 273.376 16.8669C273.505 16.8853 273.764 16.9221 273.893 16.9406C273.482 17.7077 272.638 17.3598 271.99 17.3621C272.031 17.2631 272.113 17.0627 272.154 16.9636Z" fill="#CA0537"/>
<path d="M274.442 16.8846C274.827 16.5528 275.19 16.1912 275.54 15.8157C275.944 16.2349 276.108 16.8247 275.879 17.4098C275.62 17.32 275.36 17.2232 275.105 17.1218C274.884 17.0389 274.665 16.956 274.442 16.8846Z" fill="#E81D36"/>
<path d="M220.442 17.4721C220.714 17.1611 220.98 16.834 221.311 16.6013C221.509 16.8086 221.701 17.0206 221.895 17.2325C221.634 17.7071 221.16 17.8338 220.698 17.6725L220.442 17.4721Z" fill="#CA072E"/>
<path d="M218.505 17.0165C218.791 16.5558 219.225 17.0925 219.545 17.2192C219.852 17.2607 220.191 17.2307 220.443 17.4726L220.698 17.673C221.16 17.8343 221.634 17.7076 221.896 17.233C221.973 17.1455 222.124 16.9704 222.202 16.8829C222.286 16.8967 222.456 16.929 222.541 16.9451C222.595 17.286 222.642 17.6316 222.689 17.9771L222.38 17.9863C221.791 17.9587 221.221 18.1361 220.671 18.3526C220.751 18.6452 220.831 18.9377 220.913 19.2303C220.786 19.3086 220.532 19.4653 220.408 19.5459C220.342 19.5091 220.216 19.4376 220.15 19.4031C219.928 19.2672 219.713 19.1151 219.5 18.9631C219.513 18.682 219.529 18.3987 219.549 18.12C219.349 18.0416 219.149 17.961 218.951 17.8804C218.748 17.6915 218.188 17.339 218.505 17.0165Z" fill="#880F25"/>
<path d="M274.012 16.7952C274.12 16.8182 274.334 16.862 274.443 16.885C274.665 16.9564 274.884 17.0394 275.105 17.1223C274.937 17.12 274.6 17.1131 274.43 17.1085C274.441 17.4517 274.449 17.795 274.459 18.1382C274.369 18.2004 274.189 18.3294 274.099 18.3939C273.956 18.2994 273.67 18.1106 273.529 18.0184C273.01 17.8802 272.481 17.9954 271.972 18.1267C272.422 18.5782 272.873 19.2808 273.556 19.1472L273.875 19.1242C274.007 19.1242 274.275 19.1265 274.408 19.1265L274.347 19.2578C274.294 19.366 274.242 19.4766 274.193 19.5872C274.067 19.8613 273.942 20.1378 273.819 20.4142C273.689 20.4073 273.427 20.3935 273.296 20.3866C273.239 20.2875 273.125 20.0894 273.067 19.9903C272.804 19.4904 272.334 19.0574 271.784 19.2416C271.796 19.631 271.853 20.1032 272.197 20.3013C272.464 20.4994 272.742 20.686 273.004 20.8957C273.012 21.0385 273.031 21.3241 273.039 21.4647C272.822 21.5983 272.608 21.7296 272.395 21.8609C272.293 21.9254 272.088 22.0498 271.986 22.112C271.933 21.93 271.827 21.5614 271.774 21.3794C272.084 20.8058 271.512 20.1654 271.199 19.7484C270.678 19.8682 270.854 20.6561 270.815 21.0984C270.75 21.5361 271.132 21.7135 271.377 21.9438C271.43 22.2018 271.492 22.4575 271.561 22.7109C271.408 22.4161 271.136 22.347 270.854 22.3723L270.474 22.4621C270.368 22.4875 270.157 22.5382 270.053 22.5635C270.018 22.3562 269.951 21.9392 269.916 21.7319C269.998 21.6582 270.159 21.513 270.241 21.4416C270.184 20.8841 270.129 20.3267 270.059 19.7715C270.243 19.7554 270.613 19.7208 270.797 19.7024C270.709 19.3246 270.617 18.9491 270.554 18.5644C270.576 18.486 270.621 18.3317 270.642 18.2534C270.823 18.4745 270.999 18.7003 271.197 18.903C271.414 19.2071 271.737 18.88 272.001 18.8408C271.931 18.5621 271.864 18.2833 271.794 18.0046C271.473 17.9723 271.15 17.9424 270.83 17.9124C271.218 17.7374 271.612 17.5692 271.99 17.3619C272.638 17.3596 273.482 17.7074 273.893 16.9403L274.012 16.7952Z" fill="#9B1B2F"/>
<path d="M270.162 16.8225C270.409 16.9953 270.677 17.1519 270.879 17.3961C270.814 17.6864 270.726 17.9697 270.642 18.2531C270.622 18.3314 270.577 18.4857 270.554 18.5641C270.617 18.9488 270.709 19.3243 270.797 19.7021C270.613 19.7205 270.243 19.7551 270.06 19.7712L269.925 19.7804C269.89 19.5385 269.853 19.2966 269.814 19.0547C269.939 18.8681 270.066 18.6816 270.192 18.4973C270.141 18.3821 270.037 18.154 269.984 18.0388C269.943 17.9582 269.863 17.797 269.822 17.7163L269.708 17.5666C269.773 17.4814 269.904 17.3132 269.97 17.2303C270.019 17.1289 270.113 16.9239 270.162 16.8225Z" fill="#78091B"/>
<path d="M214.932 18.1308C214.952 17.6862 215.05 17.2646 215.369 16.9744C215.485 17.0942 215.716 17.3337 215.831 17.4558C215.749 17.6585 215.673 17.8659 215.61 18.0778C215.441 18.0893 215.101 18.117 214.932 18.1308Z" fill="#E85C63"/>
<path d="M256.899 17.5064C257.19 17.4189 257.29 17.534 257.198 17.8496C256.906 17.9372 256.805 17.822 256.899 17.5064Z" fill="#DB5865"/>
<path d="M265.446 17.3271C265.746 17.4631 266.047 17.599 266.347 17.7372C266.327 17.8869 266.288 18.1841 266.268 18.3338C265.973 18.4605 265.652 18.8268 265.366 18.4836C265.309 18.0966 265.397 17.7096 265.446 17.3271Z" fill="#F5566A"/>
<path d="M266.472 17.3738C267.471 18.1133 268.708 17.7216 269.822 17.717C269.862 17.7977 269.942 17.9589 269.983 18.0395C269.723 18.4219 269.464 18.8043 269.204 19.1891C269.096 19.0762 268.875 18.8527 268.765 18.7421C268.685 18.6592 268.528 18.4934 268.448 18.4127C267.772 18.4012 267.056 18.4196 266.531 18.9702C266.466 18.8113 266.333 18.4934 266.268 18.3344C266.288 18.1847 266.327 17.8875 266.347 17.7378C266.378 17.6479 266.441 17.4659 266.472 17.3738Z" fill="#831522"/>
<path d="M217.776 18.6657C217.453 18.3133 217.833 17.9263 217.966 17.583C218.246 17.7857 218.524 17.9931 218.81 18.1843C218.767 18.2833 218.679 18.4837 218.635 18.5828C218.35 18.6173 218.064 18.668 217.776 18.6657Z" fill="#85081B"/>
<path d="M218.952 17.8799C219.15 17.9605 219.35 18.0411 219.55 18.1195C219.53 18.3982 219.514 18.6816 219.501 18.9626L219.503 19.2436C219.622 19.55 219.753 19.8495 219.885 20.149C219.581 20.1582 219.279 20.1674 218.976 20.1789C219.05 19.8725 219.125 19.5662 219.201 19.2621C219.013 19.034 218.825 18.8083 218.635 18.5825C218.68 18.4834 218.768 18.283 218.811 18.184L218.952 17.8799Z" fill="#620510"/>
<path d="M220.672 18.3525C221.222 18.136 221.792 17.9586 222.38 17.9862C222.102 18.3203 221.845 18.6727 221.581 19.0206C221.822 18.9699 222.064 18.9169 222.307 18.8778C222.431 18.8616 222.683 18.834 222.81 18.8202C222.826 18.9077 222.859 19.0851 222.875 19.1749C222.826 19.3362 222.724 19.6587 222.675 19.8199C222.617 19.9259 222.505 20.1355 222.45 20.2392L222.407 20.3175C222.339 20.2392 222.201 20.0826 222.131 20.0042C221.812 19.5942 221.373 19.3638 220.913 19.2302C220.831 18.9377 220.752 18.6451 220.672 18.3525Z" fill="#A31235"/>
<path d="M271.972 18.1269C272.481 17.9956 273.01 17.8805 273.529 18.0187C273.521 18.3942 273.523 18.772 273.556 19.1475C272.873 19.2811 272.421 18.5785 271.972 18.1269Z" fill="#C40E3B"/>
<path d="M274.459 18.1378C274.682 17.9789 274.907 17.8245 275.136 17.6748C275.265 18.0941 275.444 18.7068 275.05 19.0155C274.584 18.7898 274.124 18.5364 273.613 18.4696C273.679 18.6331 273.809 18.9602 273.875 19.1238L273.556 19.1468C273.523 18.7713 273.521 18.3935 273.529 18.018C273.67 18.1102 273.957 18.2991 274.1 18.3935C274.19 18.329 274.369 18.2 274.459 18.1378Z" fill="#FB505C"/>
<path d="M269.205 19.1883C269.464 18.8036 269.724 18.4212 269.983 18.0388C270.036 18.154 270.141 18.3821 270.192 18.4972C270.065 18.6815 269.938 18.8681 269.814 19.0547C269.852 19.2966 269.889 19.5385 269.924 19.7804C269.789 20.5982 269.209 21.2524 269.26 22.1186C269.137 22.114 268.892 22.1048 268.769 22.1002C268.669 22.0817 268.469 22.0472 268.371 22.0287C268.33 21.9758 268.252 21.8675 268.211 21.8145L268.036 21.5703C268.113 21.4367 268.273 21.1649 268.35 21.0313C268.532 20.7571 268.63 20.4323 268.645 20.0914C268.054 19.9485 267.797 20.6258 267.468 21.029C267.359 20.9046 267.143 20.6581 267.034 20.5337C266.979 20.4484 266.867 20.2757 266.812 20.1904C266.826 20.0246 266.859 19.6974 266.875 19.5339C267.557 19.4625 268.177 19.1146 268.765 18.7414C268.876 18.852 269.096 19.0755 269.205 19.1883Z" fill="#9E1631"/>
<path d="M214.091 19.2597C213.995 18.9164 214.091 18.0042 214.569 18.3728C215.095 18.845 215.749 18.7598 216.351 18.5594C216.864 18.4811 217.355 18.7068 217.725 19.0984C217.091 19.2367 216.439 19.2942 215.8 19.1675C215.483 19.1215 215.152 19.0777 214.847 19.2205C214.59 19.4555 214.246 19.8448 214.091 19.2597Z" fill="#F41640"/>
<path d="M222.81 18.8196C223.296 18.8288 223.739 18.6123 224.179 18.4072C224.512 18.7205 224.608 19.4277 224.181 19.695C223.741 19.5383 223.308 19.3563 222.875 19.1743C222.859 19.0845 222.826 18.9071 222.81 18.8196Z" fill="#F71946"/>
<path d="M266.531 18.9697C267.057 18.4191 267.772 18.4007 268.448 18.4122C268.528 18.4928 268.685 18.6587 268.765 18.7416C268.176 19.1148 267.557 19.4627 266.875 19.5341C266.672 19.5686 266.472 19.6055 266.272 19.6424C265.783 19.7529 265.511 20.2782 265.097 20.5362C264.641 20.2321 264.618 19.6032 264.69 19.078C265.293 19.1425 266.004 19.4696 266.531 18.9697Z" fill="#ED173D"/>
<path d="M214.848 19.2202C215.152 19.0773 215.483 19.1211 215.8 19.1672C215.786 19.4805 215.775 19.7961 215.773 20.1117C215.594 20.296 215.416 20.4803 215.236 20.6646C214.972 20.3374 214.866 19.9366 214.899 19.4989C215.177 19.4367 215.706 19.8237 215.757 19.257C215.455 19.2432 215.15 19.2294 214.848 19.2202Z" fill="#EC5865"/>
<path d="M217.758 19.2739C218.077 19.1633 218.395 19.0527 218.714 18.9421C218.688 19.3107 218.661 19.6816 218.635 20.0502C218.201 20.0202 217.921 19.7023 217.758 19.2739Z" fill="#81091B"/>
<path d="M220.408 19.5456C220.533 19.465 220.786 19.3083 220.913 19.23C221.373 19.3636 221.812 19.594 222.131 20.004C222.053 20.0662 221.902 20.1883 221.824 20.2505C221.851 20.3542 221.904 20.5615 221.931 20.6629C221.256 20.6513 220.891 19.9579 220.408 19.5456Z" fill="#C20B33"/>
<path d="M271.784 19.2415C272.334 19.0573 272.804 19.4903 273.068 19.9902C273.004 20.1446 272.875 20.451 272.812 20.6053C272.604 20.5062 272.399 20.4118 272.197 20.3012C271.854 20.1031 271.796 19.6309 271.784 19.2415Z" fill="#C00E3C"/>
<path d="M274.193 19.5872C274.242 19.4766 274.293 19.366 274.347 19.2578C274.884 19.4144 275.407 19.1149 275.939 19.1886C275.98 19.5365 275.971 19.8844 275.914 20.2322C275.81 20.3128 275.597 20.4787 275.491 20.5593C275.123 20.1331 274.706 19.7577 274.193 19.5872Z" fill="#F11337"/>
<path d="M266.272 19.6422C266.472 19.6053 266.672 19.5685 266.875 19.5339C266.858 19.6975 266.825 20.0246 266.811 20.1905C266.866 20.2757 266.979 20.4485 267.034 20.5337C266.725 20.7779 266.362 21.5957 266.006 21.0014C265.757 20.8079 265.644 20.0914 266.104 20.1536C266.29 20.0615 266.934 20.1974 266.723 19.7666C266.611 19.7367 266.384 19.6745 266.272 19.6422Z" fill="#FF4A60"/>
<path d="M216.139 20.6304C216.615 20.0867 217.236 19.6513 217.933 19.93C217.518 20.4069 217.034 20.7962 216.508 21.1049L216.506 21.1072C215.94 21.2431 215.503 21.6555 215.315 22.2752C214.849 22.2222 214.495 21.6923 214.657 21.1763C215.164 21.045 215.765 21.1233 216.139 20.6304Z" fill="#EF153A"/>
<path d="M222.45 20.2388C222.505 20.1352 222.618 19.9255 222.675 19.8196C222.953 19.8472 223.231 19.8772 223.509 19.9117C223.548 20.3494 223.419 20.7503 223.174 21.0912C222.926 20.8148 222.685 20.5291 222.45 20.2388Z" fill="#E75F6D"/>
<path d="M269.26 22.1189C269.209 21.2527 269.789 20.5985 269.924 19.7807L270.059 19.7715C270.129 20.3267 270.184 20.8841 270.241 21.4416C270.159 21.513 269.998 21.6582 269.916 21.7319C269.287 22.4391 269.331 23.531 269.495 24.441C269.088 24.8073 268.487 24.5469 268.22 24.107C268.604 23.5748 269.013 23.0519 269.143 22.3585C269.049 22.294 268.863 22.165 268.769 22.1005C268.892 22.1051 269.137 22.1143 269.26 22.1189Z" fill="#F0163A"/>
<path d="M270.815 21.0977C270.854 20.6554 270.678 19.8676 271.199 19.7478C271.512 20.1648 272.084 20.8052 271.774 21.3788C271.673 21.5193 271.475 21.8027 271.377 21.9432C271.132 21.7128 270.75 21.5354 270.815 21.0977Z" fill="#C01140"/>
<path d="M274.193 19.5867C274.706 19.7571 275.123 20.1326 275.491 20.5588C275.597 20.4782 275.81 20.3123 275.914 20.2317C276.061 20.8237 276.433 21.2868 276.676 21.8258C276.789 22.6528 276.928 23.6941 276.341 24.3414C275.887 24.8735 275.293 25.2652 274.655 25.4241C273.801 25.4748 272.944 24.9795 272.436 24.2124C272.082 23.7609 271.773 23.2633 271.561 22.7104C271.491 22.457 271.43 22.2013 271.377 21.9433C271.475 21.8028 271.673 21.5194 271.773 21.3789C271.827 21.5609 271.933 21.9295 271.986 22.1115C272.029 22.5077 272.051 22.9062 272.078 23.3048C272.425 23.2771 272.793 23.2264 273.034 22.9016C272.951 22.4731 272.626 22.1875 272.395 21.8604C272.607 21.7291 272.822 21.5978 273.038 21.4641C273.343 22.0723 273.611 22.7058 273.856 23.3462C274.242 23.0491 274.579 22.6805 274.865 22.2635C274.148 21.9894 273.519 21.5194 273.004 20.8951C272.742 20.6855 272.464 20.4989 272.196 20.3008C272.399 20.4114 272.603 20.5058 272.812 20.6049C272.875 20.4505 273.004 20.1442 273.067 19.9898C273.124 20.0889 273.239 20.287 273.296 20.386C273.511 20.7661 273.729 21.1439 273.95 21.5194C274.081 21.5217 274.342 21.5263 274.473 21.5286C274.547 21.1739 274.618 20.8214 274.694 20.469C274.402 20.4482 274.109 20.4298 273.819 20.4137C273.942 20.1372 274.066 19.8608 274.193 19.5867Z" fill="#F69899"/>
<path d="M208.735 52.506C209.147 52.1282 209.626 51.6491 210.204 51.7643C210.376 51.8011 210.719 51.8748 210.893 51.9094C210.795 52.195 210.699 52.4807 210.6 52.7663C211.387 52.8355 212.145 53.3146 212.943 53.0981L213.304 53.0336C213.321 53.4597 213.088 53.7385 212.787 53.9412C212.701 54.4872 212.712 55.0654 212.505 55.5768C212.176 56.1297 211.686 56.5213 211.267 56.9797C210.533 56.982 209.709 57.1341 209.096 56.5674C207.852 55.7818 207.615 53.5289 208.735 52.506Z" fill="#F69899"/>
<path d="M267.468 21.0295C267.797 20.6264 268.054 19.9491 268.645 20.092C268.63 20.4329 268.532 20.7577 268.35 21.0318C267.878 21.3751 267.435 21.7713 267.079 22.2689C266.997 22.5476 267.069 22.9231 266.85 23.1282C266.297 23.2134 265.945 22.6191 265.886 22.0708C266.493 21.8957 267.128 21.6769 267.468 21.0295Z" fill="#ED1836"/>
<path d="M219.205 20.2991C219.534 20.716 219.808 21.1929 219.924 21.7458C219.867 21.8218 219.754 21.9784 219.699 22.0545C219.479 21.8517 219.258 21.6467 219.037 21.444C219.078 21.0593 219.141 20.6792 219.205 20.2991Z" fill="#BC1439"/>
<path d="M273.296 20.3862C273.427 20.3931 273.688 20.407 273.819 20.4139C274.109 20.43 274.402 20.4484 274.694 20.4692C274.618 20.8216 274.547 21.1741 274.473 21.5288C274.342 21.5265 274.081 21.5219 273.95 21.5196C273.729 21.1441 273.51 20.7663 273.296 20.3862Z" fill="#F34F65"/>
<path d="M222.264 20.7317C222.711 21.1348 223.255 21.2638 223.815 21.2892C223.968 21.8144 223.566 22.259 223.184 22.4709C222.908 21.9365 222.605 21.3675 222.039 21.1924C222.115 21.0381 222.19 20.8837 222.264 20.7317Z" fill="#F4224A"/>
<path d="M273.004 20.896C273.519 21.5203 274.148 21.9902 274.866 22.2644C274.58 22.6813 274.242 23.0499 273.856 23.3471C273.611 22.7067 273.343 22.0732 273.039 21.465C273.03 21.3245 273.012 21.0388 273.004 20.896Z" fill="#F22B47"/>
<path d="M216.506 21.1078L216.508 21.1055C216.631 21.3934 216.752 21.6906 216.976 21.8979C216.774 22.1421 216.592 22.4093 216.4 22.665C216.012 22.6167 215.889 22.1721 215.724 21.8449C216.042 21.6837 216.412 21.5386 216.506 21.1078Z" fill="#E95E6C"/>
<path d="M220.241 20.9507C220.488 21.0866 220.752 21.2041 220.975 21.393C220.963 22.2453 221.361 23.1576 222.146 23.3718C222.164 24.0238 221.604 24.3278 221.1 24.2127C221.085 23.6068 221.075 22.9779 220.813 22.4296C220.779 22.3444 220.711 22.1785 220.677 22.0956C220.519 21.7201 220.376 21.3354 220.241 20.9507Z" fill="#E91F3A"/>
<path d="M280.775 21.0293L280.794 21.1975C280.71 21.5269 281.158 22.0222 281.29 21.5269C281.258 21.4301 281.19 21.2389 281.158 21.1445L281.407 21.1007C281.403 21.2919 281.397 21.6766 281.393 21.8678C281.55 21.7227 281.709 21.5753 281.871 21.4301C281.94 21.4578 282.079 21.5131 282.149 21.5407C282.188 21.0546 282.566 21.004 282.921 21.0892C283.154 21.49 282.776 21.7826 282.574 22.0498C282.408 22.2456 282.239 22.4391 282.075 22.6372C282.049 22.4691 282 22.1327 281.973 21.9646C281.746 21.9623 281.517 21.9692 281.293 21.983C281.288 22.1857 281.28 22.5889 281.276 22.7916C281.072 22.5797 280.869 22.3654 280.667 22.1558C280.569 22.3286 280.375 22.6741 280.279 22.8469C280.226 22.7363 280.122 22.5128 280.068 22.4023C280.042 22.3447 279.987 22.2295 279.958 22.1719C280.183 22.0475 280.41 21.9231 280.637 21.7987C280.671 21.6052 280.741 21.2205 280.775 21.0293Z" fill="#EA6775"/>
<path d="M280.795 21.1968C280.884 21.183 281.068 21.1576 281.158 21.1438C281.191 21.2382 281.258 21.4295 281.291 21.5262C281.158 22.0215 280.711 21.5262 280.795 21.1968Z" fill="#EA283E"/>
<path d="M219.127 22.7313C219.098 22.3006 219.049 21.8744 219.037 21.4436C219.258 21.6463 219.478 21.8513 219.699 22.0541L219.599 22.1854C219.556 22.243 219.466 22.3558 219.421 22.4134C219.333 23.1437 219.452 23.8578 219.672 24.542C219.572 25.0949 218.855 24.7931 218.536 24.6226C218.685 24.3554 218.83 24.0836 218.971 23.8118C219.047 23.4547 219.094 23.093 219.127 22.7313Z" fill="#F61733"/>
<path d="M221.399 21.7639C221.471 21.787 221.616 21.833 221.688 21.8538C221.994 21.9344 222.297 22.0404 222.585 22.1901C222.337 22.4089 222.107 23.1461 221.716 22.796C221.573 22.4665 221.489 22.1141 221.399 21.7639Z" fill="#FD4A51"/>
<path d="M268.212 21.8142C268.253 21.8672 268.33 21.9755 268.371 22.0284C268.385 22.4201 268.349 22.8094 268.326 23.1987C267.844 23.1572 267.378 22.9292 267.312 22.3302C267.611 22.1575 267.911 21.987 268.212 21.8142Z" fill="#F95267"/>
<path d="M271.986 22.1119C272.089 22.0497 272.293 21.9253 272.395 21.8608C272.626 22.188 272.951 22.4736 273.035 22.9021C272.794 23.2269 272.426 23.2776 272.078 23.3052C272.052 22.9067 272.029 22.5082 271.986 22.1119Z" fill="#F05665"/>
<path d="M279.364 22.3496C279.501 22.1676 279.64 21.9856 279.783 21.8059L279.959 22.1722C279.987 22.2298 280.043 22.345 280.069 22.4026C280.122 22.5131 280.226 22.7366 280.28 22.8472C280.376 22.6744 280.57 22.3288 280.668 22.1561C280.87 22.3657 281.073 22.5799 281.277 22.7919C281.281 22.5891 281.289 22.186 281.293 21.9833C281.518 21.9695 281.747 21.9626 281.974 21.9649C282 22.133 282.049 22.4694 282.076 22.6375C282.239 22.4394 282.409 22.2459 282.575 22.0501C282.74 22.0777 283.071 22.1353 283.235 22.163C283.108 22.4786 282.979 22.7965 282.924 23.1374C283.194 22.9186 283.462 22.6905 283.723 22.4555C283.701 22.8402 283.807 23.172 284.048 23.4484C283.923 23.5014 283.674 23.6028 283.549 23.6534C283.349 23.741 283.149 23.8331 282.953 23.9253C282.916 24.2823 282.879 24.6394 282.844 24.9965C282.581 25.1301 282.319 25.2637 282.058 25.395C282.056 25.911 282.082 26.4247 282.147 26.9338C282.064 26.9223 281.896 26.9016 281.812 26.8901C281.788 26.4731 281.765 26.0538 281.743 25.6369C281.661 25.7636 281.581 25.8926 281.504 26.0193C281.279 26.3141 281.066 26.7242 280.666 26.6505L280.541 26.5169C280.803 26.1229 281.03 25.7014 281.236 25.266C280.85 25.547 280.502 25.8788 280.175 26.2404C280.112 26.1322 279.985 25.9202 279.922 25.812C280.186 25.4503 280.5 25.1439 280.809 24.8329C280.445 24.8652 280.083 24.8974 279.72 24.9274C279.707 24.7914 279.683 24.5219 279.671 24.386C280.018 24.356 280.367 24.3169 280.717 24.2754C280.419 24.0243 280.067 23.8815 279.701 23.8239C279.713 23.7064 279.734 23.4737 279.746 23.3563C279.646 23.2895 279.448 23.1535 279.348 23.0867C279.521 23.0775 279.865 23.0591 280.038 23.0499C279.957 22.6813 279.615 22.5362 279.364 22.3496ZM281.841 23.9368C281.465 24.0082 281.59 24.7431 281.972 24.568C282.301 24.4643 282.186 23.8377 281.841 23.9368Z" fill="#9F152B"/>
<path d="M270.854 22.3715C271.136 22.3462 271.407 22.4153 271.561 22.7102C271.773 23.263 272.082 23.7606 272.435 24.2121C272.045 24.4494 271.628 24.7811 271.168 24.5692C271.048 23.8436 271.638 22.8553 270.854 22.3715Z" fill="#E91B38"/>
<path d="M270.052 22.5635C270.157 22.5382 270.367 22.4875 270.473 22.4622C270.453 22.8929 270.598 23.2938 270.753 23.6785C270.398 23.7614 269.758 24.0356 269.64 23.4712C269.752 23.1556 269.907 22.863 270.052 22.5635Z" fill="#FB4E5C"/>
<path d="M218.13 22.743C218.463 22.7384 218.794 22.7337 219.127 22.7314C219.094 23.0931 219.047 23.4548 218.972 23.8119C218.992 23.2751 219.055 22.6462 218.379 22.7545C218.399 23.1208 218.418 23.487 218.438 23.8556C218.105 23.7842 217.672 23.8671 217.517 23.4317C217.568 23.0862 217.866 22.872 218.13 22.743Z" fill="#FE5264"/>
<path d="M219.894 22.8444L220.114 22.7292C220.323 23.0264 220.529 23.3259 220.736 23.6277C220.39 23.8028 220.031 23.941 219.648 23.941C219.72 23.5747 219.712 23.1692 219.894 22.8444Z" fill="#EF5969"/>
<path d="M283.574 24.0263C284.02 23.8605 284.457 23.6624 284.874 23.4136C284.929 23.6255 284.984 23.8351 285.041 24.0448C284.735 24.0333 284.43 24.0217 284.126 24.0102C284.152 24.3811 284.341 24.6829 284.52 24.9801C284.253 24.8925 283.983 24.8073 283.717 24.7243C283.595 24.8418 283.476 24.9593 283.355 25.0745C283.93 25.169 284.502 25.2772 285.078 25.3786C284.99 25.5491 284.898 25.7195 284.806 25.8854C284.42 25.6573 283.873 25.2312 283.705 25.9914C283.858 26.019 284.167 26.0743 284.32 26.1019C284.23 26.171 284.052 26.3116 283.964 26.3807C283.682 26.0374 283.327 25.8094 282.914 25.7518C283.325 26.2148 283.744 26.6986 284.306 26.9266C284.15 27.1248 283.997 27.3229 283.846 27.5256C283.64 27.1178 283.584 26.4014 283.016 26.5581C283.084 26.8737 283.174 27.1962 283.112 27.5256C282.918 27.1409 282.728 26.7562 282.53 26.3784C282.518 26.5396 282.489 26.8621 282.475 27.0211C282.315 27.0441 281.998 27.0856 281.841 27.1063L281.698 27.1777L281.661 26.9773C281.602 26.6594 281.549 26.3392 281.504 26.019C281.582 25.8923 281.661 25.7633 281.743 25.6366C281.765 26.0536 281.788 26.4728 281.812 26.8898C281.896 26.9013 282.064 26.922 282.148 26.9335C282.082 26.4244 282.056 25.9107 282.058 25.3947C282.319 25.2634 282.581 25.1298 282.845 24.9962C282.879 24.6391 282.916 24.2821 282.953 23.925C283.149 23.8328 283.349 23.7407 283.55 23.6532L283.574 24.0263Z" fill="#B11233"/>
<path d="M281.84 23.9361C282.186 23.8371 282.3 24.4636 281.971 24.5673C281.589 24.7424 281.464 24.0075 281.84 23.9361Z" fill="#600004"/>
<path d="M280.175 26.2398C280.502 25.8782 280.85 25.5464 281.236 25.2654C281.029 25.7008 280.803 26.1223 280.541 26.5163C280.153 26.7029 279.975 27.1382 279.768 27.5207C279.67 27.4055 279.472 27.1751 279.374 27.0599C279.45 26.6453 279.956 26.5646 280.175 26.2398Z" fill="#D63248"/>
<path d="M281.698 27.1779C281.34 27.5741 281.205 26.7517 281.661 26.9775L281.698 27.1779Z" fill="#FFA5AD"/>
<path d="M211.138 27.1357C211.381 27.1611 211.624 27.1887 211.869 27.2164C211.732 27.532 211.595 27.8476 211.467 28.1678C211.814 28.0756 212.16 27.972 212.507 27.8706C212.19 28.4004 212.292 29.0247 212.178 29.603C212.123 29.702 212.012 29.9047 211.957 30.0038C211.83 29.7066 211.706 29.4118 211.591 29.1077C211.534 28.8888 211.477 28.6677 211.422 28.4465C211.313 28.0134 211.224 27.5757 211.138 27.1357Z" fill="#9E1026"/>
<path d="M282.376 27.0461C282.621 27.3617 282.858 27.6912 283.054 28.0482C282.787 28.1381 282.517 28.2233 282.249 28.3062C282.284 27.8847 282.325 27.4654 282.376 27.0461Z" fill="#D74851"/>
<path d="M209.299 28.0642C209.43 27.6588 209.738 27.4676 210.112 27.4353C210.124 27.797 210.139 28.161 210.151 28.5226C210.312 28.3061 210.472 28.0872 210.629 27.8684C210.731 27.8592 210.934 27.8384 211.036 27.8292C211.036 28.1356 211.038 28.4443 211.04 28.753C211.134 28.677 211.326 28.5226 211.422 28.4466C211.477 28.6678 211.535 28.8889 211.592 29.1077C211.512 29.2298 211.351 29.4694 211.269 29.5915C211.126 29.1331 210.987 28.6724 210.85 28.2139C210.742 28.2738 210.529 28.3982 210.421 28.4604C210.519 28.9465 210.613 29.4349 210.699 29.9232C210.443 29.6629 210.19 29.398 209.938 29.1331C210.03 29.14 210.214 29.1538 210.306 29.1607C210.129 28.8636 209.951 28.5641 209.746 28.2877C209.634 28.2324 209.409 28.1195 209.299 28.0642Z" fill="#D83C50"/>
<path d="M274.483 28.9053C273.992 28.82 274.009 27.8893 274.467 27.7788C274.898 27.5231 275.08 28.1289 275.282 28.4238C275.043 28.6058 274.82 29.1448 274.483 28.9053Z" fill="#A32037"/>
<path d="M202.198 28.3093C202.721 28.2747 203.236 28.3531 203.409 28.9935C203.326 29.2353 203.244 29.4795 203.162 29.7237C202.706 29.7928 202.242 29.7951 201.817 29.5694C201.83 29.2538 201.842 28.9382 201.854 28.6226C201.94 28.5443 202.112 28.3876 202.198 28.3093Z" fill="#AB1A34"/>
<path d="M209.746 28.2883C209.951 28.5648 210.128 28.8642 210.306 29.1614C210.214 29.1545 210.03 29.1407 209.938 29.1338C209.863 29.0577 209.712 28.908 209.636 28.832C209.507 29.0462 209.378 29.2582 209.252 29.4724C209.205 29.2351 209.17 28.9955 209.147 28.7537C209.288 28.5233 209.548 28.4404 209.746 28.2883Z" fill="#EA6673"/>
<path d="M210.421 28.4601C210.529 28.3979 210.742 28.2735 210.85 28.2136C210.987 28.672 211.126 29.1328 211.269 29.5912C211.351 29.4691 211.512 29.2295 211.592 29.1074C211.706 29.4115 211.831 29.7064 211.958 30.0036C212.013 29.9045 212.123 29.7018 212.178 29.6027C212.358 29.2963 212.487 28.9554 212.618 28.6214C212.884 28.8402 213.145 29.0614 213.421 29.2618C213.294 29.3309 213.039 29.4714 212.91 29.5428C212.691 29.7363 212.489 29.9506 212.285 30.1602C212.622 30.2316 212.959 30.3007 213.296 30.3675C213.027 30.5081 212.757 30.6509 212.489 30.796C212.884 31.2245 213.448 31.2337 213.956 31.3305C213.928 31.5263 213.875 31.9156 213.848 32.1091C213.662 32.0792 213.29 32.0193 213.104 31.9916C213.274 32.1966 213.441 32.4017 213.607 32.6113C213.566 32.6366 213.484 32.6873 213.446 32.7127C213.356 32.8785 213.18 33.2102 213.09 33.3761C213.225 33.3899 213.495 33.4176 213.632 33.4314C213.274 34.164 212.851 33.0398 212.575 32.7656C212.44 32.556 212.303 32.3487 212.166 32.1437C212.221 32.6159 212.279 33.0905 212.338 33.5627C212.162 33.6548 211.988 33.747 211.813 33.8391L211.645 33.3922C211.643 33.0559 211.643 32.7196 211.625 32.3855C211.608 31.9824 211.594 31.5816 211.58 31.1784C211.796 31.2867 212.013 31.3973 212.23 31.5055C212.281 31.2913 212.332 31.0794 212.383 30.8651C212.176 30.9066 211.97 30.9458 211.764 30.9872C211.6 30.5841 211.449 30.174 211.316 29.7548C211.218 29.7248 211.02 29.6626 210.922 29.6327C210.969 29.9391 211.018 30.2454 211.067 30.5518C210.887 30.4896 210.709 30.4274 210.531 30.3652C210.454 30.4666 210.3 30.6693 210.225 30.773C210.537 30.8951 210.915 30.9204 211.157 31.2015C211.275 31.471 211.361 31.7566 211.457 32.0377C211.33 32.6274 211.259 33.231 211.273 33.8368C211.108 33.8207 210.772 33.7885 210.607 33.7723C210.693 33.2402 210.781 32.7104 210.858 32.1782C210.56 32.5422 210.272 32.9223 210.051 33.3531C209.873 33.3047 209.518 33.2056 209.34 33.1573C209.391 33.0306 209.493 32.7772 209.544 32.6505C209.914 32.3994 210.241 32.0815 210.539 31.7313C210.076 31.8488 209.616 32.0054 209.144 32.0861C209.086 31.9525 208.974 31.6875 208.917 31.5562C209.35 31.4249 209.783 31.289 210.202 31.107C209.814 30.9665 209.411 30.8467 209.001 30.8905C208.813 30.6693 208.625 30.4528 208.437 30.2339C208.614 30.1948 208.968 30.1187 209.146 30.0796C209.479 30.3099 209.871 30.3537 210.251 30.3975C210.004 29.9805 209.634 29.7064 209.252 29.4714C209.379 29.2572 209.507 29.0452 209.636 28.831C209.712 28.907 209.863 29.0568 209.939 29.1328C210.19 29.3977 210.443 29.6626 210.699 29.9229C210.613 29.4346 210.519 28.9462 210.421 28.4601Z" fill="#9F152C"/>
<path d="M208.284 28.9167C208.703 28.6242 208.909 29.3268 209.252 29.4719C209.635 29.7069 210.005 29.981 210.252 30.398C209.872 30.3542 209.479 30.3105 209.146 30.0801C209.089 29.9949 208.975 29.8244 208.915 29.7391C208.656 29.7069 208.398 29.6793 208.139 29.6516C208.175 29.4673 208.247 29.101 208.284 28.9167Z" fill="#DE354B"/>
<path d="M212.285 30.1611C212.49 29.9514 212.692 29.7372 212.911 29.5437C213.074 29.6474 213.24 29.751 213.405 29.8547C213.438 30.1081 213.485 30.3569 213.526 30.608C213.515 30.7093 213.495 30.9121 213.485 31.0134C213.791 31.0503 214.096 31.0894 214.402 31.1263C214.409 31.1954 214.419 31.3359 214.425 31.405C214.306 31.3866 214.073 31.3498 213.957 31.3313C213.448 31.2346 212.884 31.2254 212.49 30.7969C212.757 30.6518 213.027 30.5089 213.297 30.3684C212.96 30.3016 212.622 30.2325 212.285 30.1611Z" fill="#C2263F"/>
<path d="M210.921 29.6333C211.02 29.6632 211.218 29.7254 211.316 29.7554C211.449 30.1747 211.6 30.5847 211.763 30.9878C211.97 30.9464 212.176 30.9072 212.383 30.8658C212.332 31.08 212.281 31.2919 212.229 31.5062C212.013 31.3979 211.796 31.2873 211.58 31.179C211.594 31.5822 211.608 31.983 211.625 32.3862L211.457 32.0383C211.361 31.7573 211.275 31.4716 211.157 31.2021C210.915 30.921 210.537 30.8957 210.225 30.7736C210.3 30.6699 210.453 30.4672 210.531 30.3659C210.709 30.4281 210.887 30.4903 211.067 30.5525C211.018 30.2461 210.969 29.9397 210.921 29.6333Z" fill="#7C0516"/>
<path d="M213.404 29.8541C213.478 29.8172 213.627 29.7412 213.701 29.7043L213.78 29.8817C213.932 30.1121 213.903 30.8055 213.525 30.6074C213.484 30.3563 213.437 30.1075 213.404 29.8541Z" fill="#9E2028"/>
<path d="M207.75 30.7666C208.157 30.8933 208.578 30.9693 209.001 30.891C209.411 30.8472 209.814 30.967 210.202 31.1075C209.783 31.2895 209.35 31.4254 208.917 31.5568C208.974 31.6881 209.087 31.953 209.144 32.0866C209.616 32.006 210.076 31.8493 210.54 31.7318C210.241 32.082 209.914 32.3999 209.544 32.651C209.109 32.803 208.772 33.1348 208.527 33.5609C208.273 33.3766 208.157 33.0703 208.071 32.7547C208.406 32.7109 208.745 32.6694 209.076 32.5911C209.025 32.4966 208.921 32.3101 208.87 32.2156C208.78 32.2271 208.598 32.2479 208.506 32.2594C208.51 32.158 208.52 31.953 208.525 31.8516C208.711 31.6881 208.837 31.4807 208.907 31.2273C208.557 31.3241 208.222 31.4669 207.901 31.6443C207.836 31.354 207.787 31.0615 207.75 30.7666Z" fill="#E0203C"/>
<path d="M214.402 31.1265C214.517 30.721 215.208 30.6726 215.083 31.2301C215.193 31.7738 214.558 31.8682 214.425 31.4052C214.419 31.3361 214.408 31.1956 214.402 31.1265Z" fill="#E82F54"/>
<path d="M285.127 31.7736C285.609 31.4119 286.337 31.9902 286.255 32.6214C286.359 33.4576 285.186 33.8354 284.818 33.1443C284.516 32.7181 284.647 31.9533 285.127 31.7736Z" fill="#F3515B"/>
<path d="M272.103 32.2363C272.754 31.7387 273.723 32.4183 273.576 33.319C273.586 34.3948 272.229 34.6667 271.743 33.8443C271.581 33.2983 271.575 32.5312 272.103 32.2363Z" fill="#F2535D"/>
<path d="M213.445 32.7132C213.484 32.6878 213.566 32.6372 213.607 32.6118C213.979 32.6602 214.342 32.7592 214.708 32.8445C214.596 33.1555 214.447 33.448 214.273 33.7245C214.015 33.3674 213.744 33.0242 213.445 32.7132Z" fill="#D83A45"/>
<path d="M277.971 36.5766C278.226 36.4292 278.479 36.4315 278.733 36.5836C278.645 36.9038 278.524 37.2125 278.414 37.5258C278.723 37.5281 279.027 37.5327 279.338 37.5373C279.213 37.8275 279.095 38.1224 278.982 38.4196C279.232 38.3136 279.444 38.1293 279.646 37.9381C279.865 38.157 280.082 38.3781 280.309 38.59C280.09 38.8964 279.875 39.2074 279.657 39.5138C279.973 39.3295 280.294 39.1567 280.619 38.9886C280.672 39.341 280.727 39.6958 280.783 40.0506C280.386 40.0321 279.982 40.0506 279.62 40.2556C279.89 40.4353 280.253 40.9305 280.358 40.2694C280.454 40.3316 280.648 40.4537 280.744 40.5136L280.86 40.5896C280.858 40.7785 280.854 41.154 280.852 41.3406C280.934 41.3176 281.099 41.2669 281.181 41.2438C281.167 41.3959 281.136 41.7023 281.122 41.8543C280.84 41.6516 280.562 41.4397 280.298 41.2093C279.99 41.0803 279.667 40.995 279.35 40.9075C279.606 41.3014 279.896 41.6654 280.212 42.0017C280.118 42.186 280.024 42.3703 279.932 42.5546C279.8 42.497 279.536 42.3772 279.405 42.3173C279.471 42.5592 279.538 42.8011 279.603 43.043H279.477C279.35 43.0476 279.101 43.0568 278.976 43.0637C279.021 43.3379 279.07 43.612 279.121 43.8861C279.06 43.8884 278.935 43.8907 278.874 43.893C278.833 43.5728 278.786 43.2549 278.735 42.9393C278.674 42.5661 278.594 42.1976 278.514 41.829C278.357 42.057 278.199 42.2851 278.044 42.5155C278.116 42.656 278.263 42.937 278.334 43.0775L278.4 43.2042L278.249 43.2342C278.052 43.2595 277.66 43.3125 277.464 43.3379L277.49 42.8403C277.505 42.5385 277.521 42.2367 277.537 41.9372C277.351 42.216 277.167 42.4993 276.986 42.7827C276.867 42.7297 276.63 42.626 276.511 42.573C276.45 42.7804 276.354 42.9532 276.221 43.0937C276.099 42.9439 275.98 42.7896 275.866 42.6329C275.994 42.6306 276.254 42.626 276.385 42.6237C276.395 42.4717 276.413 42.1699 276.424 42.0179C276.691 41.8059 276.953 41.5894 277.21 41.3613C276.814 41.3613 276.426 41.4397 276.101 41.7092C275.774 41.4235 275.782 40.972 275.77 40.5528C275.416 40.6748 275.064 40.7992 274.711 40.9167C274.738 40.638 274.766 40.3592 274.799 40.0828C275.03 40.2049 275.267 40.3109 275.512 40.3961C276.133 40.6449 275.573 39.652 275.518 39.4055C275.671 39.4101 275.976 39.4194 276.129 39.424C275.986 38.8849 275.41 38.9955 275.034 38.8757C275.148 38.5993 275.295 38.3389 275.516 38.157C275.702 38.4334 275.823 38.7974 276.107 38.9701C276.252 38.7467 276.203 38.2076 276.538 38.2399C276.685 38.2422 276.981 38.2491 277.131 38.2514C276.9 37.8575 276.364 37.5995 276.372 37.0742C276.532 37.0213 276.849 36.9176 277.008 36.8646C276.994 37.0996 276.967 37.5718 276.955 37.8091C277.227 37.6962 277.501 37.5926 277.778 37.4958C277.922 37.7446 278.063 37.9957 278.199 38.2514C278.218 37.9174 278.236 37.5833 278.253 37.2493C278.15 37.0282 278.056 36.8047 277.971 36.5766ZM278.173 39.5967C278.05 39.9262 277.932 40.2579 277.815 40.5896C277.697 40.6472 277.462 40.7624 277.345 40.8223C277.427 40.9997 277.513 41.1747 277.605 41.3498C277.783 41.1932 277.883 40.9628 278.007 40.7555C278.22 40.6702 278.432 40.5804 278.643 40.4882C278.674 40.0897 278.398 39.8386 278.173 39.5967Z" fill="#A2142D"/>
<path d="M207.117 37.3361C207.386 37.2209 207.818 37.2923 207.801 37.7047C207.969 38.1792 207.439 38.6791 207.076 38.3221C206.683 38.1424 206.734 37.4904 207.117 37.3361Z" fill="#F25160"/>
<path d="M211.355 38.3965C212.103 37.9012 213.197 38.5255 213.101 39.5506C213.15 40.555 211.956 41.1516 211.296 40.5112C210.65 40.0136 210.744 38.8756 211.355 38.3965Z" fill="#9D1A2E"/>
<path d="M278.172 39.5972C278.397 39.8391 278.673 40.0901 278.642 40.4887C278.432 40.5808 278.219 40.6707 278.007 40.7559C277.882 40.9632 277.782 41.1936 277.604 41.3502C277.512 41.1752 277.426 41.0001 277.345 40.8227C277.461 40.7628 277.696 40.6476 277.815 40.59C277.931 40.2583 278.05 39.9266 278.172 39.5972Z" fill="#75030F"/>
<path d="M279.35 40.9075C279.666 40.995 279.989 41.0802 280.298 41.2092C280.061 42.0086 281.111 42.1814 281.612 42.2182C281.508 42.5223 281.377 42.8149 281.136 43.0107C280.909 42.7112 280.747 42.3127 280.423 42.133C280.312 42.239 280.089 42.4532 279.979 42.5592C280.136 42.6329 280.453 42.7803 280.613 42.8541C280.451 42.9854 280.29 43.1167 280.13 43.248C280.073 43.0913 279.959 42.7734 279.901 42.6168L279.932 42.5546C280.024 42.3703 280.118 42.186 280.212 42.0017C279.895 41.6654 279.605 41.3014 279.35 40.9075Z" fill="#D12030"/>
<path d="M276.1 41.7087C276.425 41.4392 276.813 41.3608 277.209 41.3608C276.952 41.5889 276.69 41.8054 276.423 42.0174C276.004 42.2708 275.632 42.6002 275.303 42.9872C275.199 42.69 275.094 42.3952 274.994 42.098C275.382 42.0496 275.779 41.9828 276.1 41.7087Z" fill="#DD3449"/>
<path d="M278.044 42.5151C278.199 42.2847 278.357 42.0567 278.514 41.8286C278.594 42.1972 278.673 42.5658 278.735 42.939C278.635 42.9735 278.434 43.0426 278.334 43.0772C278.263 42.9367 278.115 42.6556 278.044 42.5151Z" fill="#CB233F"/>
<path d="M276.985 42.7827C277.167 42.4993 277.351 42.216 277.537 41.9373C277.52 42.2367 277.504 42.5385 277.49 42.8403C277.034 43.1075 276.979 43.6719 276.887 44.1787C276.541 44.3492 276.331 44.0221 276.112 43.7894C276.443 43.5014 276.758 43.1835 276.985 42.7827Z" fill="#DE3749"/>
<path d="M202.7 43.0312C202.917 42.999 203.135 42.969 203.352 42.9368C203.276 43.257 203.199 43.5772 203.123 43.8974C203.323 43.8536 203.724 43.7684 203.924 43.7269C203.793 44.1554 203.691 44.5977 203.65 45.0515C203.969 44.5908 204.308 44.0932 204.302 43.4804L204.361 43.4943C204.517 43.5242 204.827 43.5864 204.983 43.6163C204.756 43.7937 204.531 43.9711 204.306 44.1508C204.445 44.3904 204.584 44.6323 204.723 44.8741C204.623 44.9548 204.423 45.116 204.325 45.1967C204.13 45.3395 203.932 45.4777 203.734 45.609C203.342 45.4731 202.947 45.3533 202.551 45.2381C202.663 45.9822 202.78 46.7286 202.896 47.4727C202.994 47.4934 203.19 47.5349 203.289 47.5556C203.317 47.422 203.378 47.1571 203.409 47.0234C203.615 46.9912 203.824 46.9566 204.03 46.9198C203.742 47.2907 203.587 47.7514 203.472 48.2213C203.638 48.3411 203.969 48.5807 204.133 48.7005C204.002 48.7374 203.736 48.8111 203.603 48.8479C203.634 49.1083 203.662 49.3686 203.695 49.6312C203.64 49.6381 203.53 49.6496 203.474 49.6565C203.436 49.44 203.358 49.0092 203.321 48.7926C203.231 48.5162 203.127 48.2467 203.027 47.9772C202.964 48.2858 202.906 48.5968 202.849 48.9078L202.829 49.0115L202.393 49.0691C202.35 48.6268 202.316 48.1845 202.283 47.7422C202.117 48.0347 201.95 48.325 201.774 48.613C201.639 48.5485 201.367 48.4218 201.231 48.3596C201.214 48.5277 201.177 48.8618 201.161 49.0299C201.081 48.8272 200.996 48.6314 200.906 48.4356C200.981 48.4125 201.128 48.3642 201.202 48.3411L201.32 47.9495C201.562 47.7353 201.799 47.5187 202.032 47.2953C201.627 47.3437 201.231 47.4496 200.893 47.7215C200.895 47.4082 200.893 47.0972 200.893 46.7885C201.092 46.8046 201.29 46.823 201.488 46.8415C201.547 46.7539 201.666 46.5765 201.725 46.489C201.437 46.4245 201.149 46.3623 200.861 46.2978L200.523 46.0052C200.656 45.9338 200.922 45.7887 201.055 45.7173C201.367 45.814 201.684 45.897 202.001 45.9753C201.754 45.6528 201.508 45.3233 201.216 45.0492L201.036 44.8741C201.141 44.8004 201.347 44.653 201.451 44.577C201.605 44.6737 201.909 44.8649 202.062 44.9594C201.979 44.7129 201.895 44.4664 201.809 44.2222C202.013 44.1185 202.218 44.0149 202.42 43.9112C202.618 44.3213 202.821 44.7313 203.033 45.1321C203.041 44.5148 203.117 43.849 202.835 43.2846L202.7 43.0312Z" fill="#9C112A"/>
<path d="M201.237 44.1116C201.01 43.637 201.299 43.0795 201.795 43.3076C201.84 43.4389 201.932 43.7038 201.979 43.8351C202.261 43.6485 202.547 43.4642 202.835 43.2845C203.117 43.8489 203.042 44.5147 203.034 45.1321C202.821 44.7312 202.619 44.3212 202.421 43.9111C202.218 44.0148 202.014 44.1185 201.81 44.2221C201.895 44.4663 201.979 44.7128 202.063 44.9593C201.91 44.8648 201.605 44.6736 201.452 44.5769C201.348 44.6529 201.141 44.8003 201.037 44.8741C201.015 44.7589 200.972 44.5239 200.951 44.4087C201.023 44.3327 201.166 44.1853 201.237 44.1116Z" fill="#E55D6E"/>
<path d="M279.94 45.2567C280.872 44.4067 282.021 43.6949 283.259 43.8216C284.845 43.6995 286.302 44.7338 287.254 46.0884C288.172 47.7032 288.264 49.9401 287.412 51.6125C286.343 54.1212 283.241 55.0933 281.136 53.6835C279.908 53.1145 278.839 51.8175 278.859 50.251C278.935 49.6774 278.945 49.0693 278.6 48.5993C278.79 47.3853 279.219 46.1897 279.94 45.2567Z" fill="#F59797"/>
<path d="M199.968 44.9827C200.148 44.7639 200.336 44.5566 200.538 44.3677C200.599 44.5105 200.718 44.7938 200.777 44.9367C200.887 44.9643 201.106 45.0219 201.216 45.0496C201.509 45.3237 201.754 45.6531 202.001 45.9756C201.684 45.8973 201.368 45.8144 201.055 45.7176C200.836 45.2454 200.381 45.1233 199.968 44.9827Z" fill="#DE3950"/>
<path d="M204.95 45.1755C205.161 44.9613 205.377 44.7494 205.621 44.5835C205.876 44.6365 205.913 45.0304 206.07 45.2239C205.739 45.3207 205.408 45.4197 205.075 45.5026C205.044 45.422 204.983 45.2562 204.95 45.1755Z" fill="#E52841"/>
<path d="M199.968 44.9824C200.381 45.1229 200.836 45.245 201.055 45.7173C200.922 45.7887 200.656 45.9338 200.524 46.0052C200.072 46.2356 200.362 45.5998 200.403 45.3648C200.293 45.2681 200.076 45.0769 199.968 44.9824Z" fill="#EA6571"/>
<path d="M202.551 45.2375C202.947 45.3527 203.342 45.4725 203.734 45.6084C203.838 46.1291 204.077 46.5783 204.507 46.834C204.347 46.8593 204.19 46.8893 204.03 46.9192C203.824 46.9561 203.616 46.9906 203.409 47.0229C203.378 47.1565 203.317 47.4214 203.289 47.555C203.19 47.5343 202.994 47.4928 202.896 47.4721C202.78 46.728 202.663 45.9816 202.551 45.2375Z" fill="#890623"/>
<path d="M203.734 45.6091C203.932 45.4778 204.131 45.3396 204.325 45.1968C204.374 45.3166 204.476 45.5515 204.527 45.6713C204.497 45.7381 204.439 45.8717 204.409 45.9385C204.687 45.9754 204.965 46.0146 205.242 46.0606L205.259 46.0975C205.163 46.1827 204.973 46.3509 204.879 46.4338L204.842 46.6204C204.797 46.9107 204.918 47.0766 205.202 47.1157C205.386 47.3023 205.514 47.5419 205.639 47.7792C205.322 47.5787 204.989 47.4221 204.638 47.3207C204.668 47.4313 204.732 47.6571 204.764 47.7676C204.584 47.7423 204.405 47.717 204.225 47.6916C204.235 47.8391 204.245 47.9888 204.257 48.1362C204.227 48.2791 204.165 48.5601 204.133 48.7006C203.969 48.5808 203.638 48.3413 203.473 48.2215C203.587 47.7515 203.742 47.2908 204.031 46.9199C204.19 46.89 204.347 46.86 204.507 46.8347C204.078 46.579 203.838 46.1298 203.734 45.6091Z" fill="#C5133E"/>
<path d="M204.527 45.6716C204.633 45.5472 204.844 45.2984 204.95 45.1763C204.982 45.2569 205.044 45.4228 205.074 45.5034C205.117 45.6439 205.201 45.9227 205.242 46.0609C204.964 46.0148 204.686 45.9756 204.408 45.9388C204.439 45.872 204.496 45.7384 204.527 45.6716Z" fill="#9F0D1B"/>
<path d="M204.879 46.4335C204.973 46.3506 205.163 46.1824 205.259 46.0972C205.279 46.1801 205.322 46.3483 205.345 46.4312C205.228 46.4312 204.995 46.4335 204.879 46.4335Z" fill="#FD97A0"/>
<path d="M205.876 46.9844C205.498 46.6711 205.794 46.1988 206.193 46.3417C206.188 46.4914 206.178 46.7886 206.172 46.9383C206.098 46.9498 205.949 46.9729 205.876 46.9844Z" fill="#E2223A"/>
<path d="M204.842 46.6204C204.948 46.6987 205.163 46.8576 205.271 46.936L205.202 47.1156C204.918 47.0765 204.797 46.9106 204.842 46.6204Z" fill="#880811"/>
<path d="M202.849 48.9077C202.906 48.5967 202.963 48.2857 203.026 47.9771C203.127 48.2466 203.231 48.5161 203.321 48.7925C203.153 49.3109 203.243 49.8614 203.266 50.3959C203.096 50.3775 202.755 50.3406 202.583 50.3199C202.681 49.8891 202.757 49.4491 202.828 49.0114L202.849 48.9077Z" fill="#E44256"/>
<path d="M204.792 48.5371C205.054 48.6961 205.048 48.8504 204.774 49.0048C204.512 48.8458 204.518 48.6892 204.792 48.5371Z" fill="#C95D60"/>
<path d="M276.826 49.6632C276.705 48.6013 277.876 48.0415 278.6 48.599C278.945 49.0689 278.935 49.6771 278.859 50.2507C278.289 51.1168 276.855 50.8151 276.826 49.6632Z" fill="#9B1B2E"/>
<path d="M204.141 49.6747C203.974 49.3291 204.243 49.078 204.38 48.8154C204.548 49.1241 204.717 49.4305 204.887 49.7392C204.666 49.7945 204.068 50.269 204.141 49.6747Z" fill="#D53E50"/>
<path d="M211.692 51.2619C211.997 50.8956 212.458 50.9808 212.855 50.9693C212.798 51.3863 212.965 51.9737 212.548 52.2087C212.064 52.7754 211.326 51.8171 211.692 51.2619Z" fill="#860B1D"/>
<path d="M275.362 52.3074C275.748 51.9111 276.376 52.1599 276.559 52.676C276.86 53.3509 276.081 54.1572 275.503 53.7932C274.994 53.549 274.894 52.6575 275.362 52.3074Z" fill="#F24F59"/>
<path d="M278.834 54.6641C278.413 54.3093 278.979 53.5238 279.378 53.7887C279.838 53.8946 279.658 54.4659 279.668 54.8391C279.388 54.8069 279.018 54.9935 278.834 54.6641Z" fill="#FF4E5C"/>
<path fill-rule="evenodd" clip-rule="evenodd" d="M242.355 52.6855C248.626 52.6855 253.709 50.854 253.709 48.5946C253.709 46.3352 248.626 44.5037 242.355 44.5037C236.084 44.5037 231 46.3352 231 48.5946C231 50.854 236.084 52.6855 242.355 52.6855Z" fill="#1B37A7"/>
<path fill-rule="evenodd" clip-rule="evenodd" d="M231 22.4756C232.494 19.3287 237.574 17.1259 237.574 17.1259L238.171 15.5525L245.641 15.5525L246.538 17.1259C246.538 17.1259 251.319 18.6994 253.709 23.4197C253.709 35.3778 253.709 48.5946 253.709 48.5946H231C231 48.5946 231 35.6925 231 22.4756Z" fill="#1B37A7"/>
<path d="M231.896 22.79C231.896 22.79 236.379 27.5103 247.434 25.3075" stroke="#5873E2" stroke-linecap="round" stroke-linejoin="round"/>
<path d="M237.574 18.0701C237.574 18.0701 240.562 19.6435 244.746 18.6994" stroke="#5873E2" stroke-linecap="round" stroke-linejoin="round"/>
<path fill-rule="evenodd" clip-rule="evenodd" d="M260.582 53.0002C262.562 53.0002 264.167 51.3096 264.167 49.224C264.167 47.1384 262.562 45.4478 260.582 45.4478C258.601 45.4478 256.996 47.1384 256.996 49.224C256.996 51.3096 258.601 53.0002 260.582 53.0002Z" fill="#4FCAD3"/>
<path fill-rule="evenodd" clip-rule="evenodd" d="M259.685 53.0002C261.666 53.0002 263.271 51.3096 263.271 49.224C263.271 47.1384 261.666 45.4478 259.685 45.4478C257.705 45.4478 256.1 47.1384 256.1 49.224C256.1 51.3096 257.705 53.0002 259.685 53.0002Z" fill="#72E1E9"/>
<path d="M259.088 45.7625L259.686 53.0003" stroke="#33C2CC" stroke-linecap="round" stroke-linejoin="round"/>
<path d="M259.984 45.7625L260.582 53.0003" stroke="#33C2CC" stroke-linecap="round" stroke-linejoin="round"/>
<path fill-rule="evenodd" clip-rule="evenodd" d="M233.689 27.4834C233.689 27.4834 242.644 31.1608 251.02 27.7898V47.0963C251.02 47.0963 239.755 51.0801 233.689 46.1769V27.4834Z" fill="#5873E2"/>
<path fill-rule="evenodd" clip-rule="evenodd" d="M253.41 59.2937V61.4965L253.396 61.4966C253.202 62.5526 251.075 63.3844 248.48 63.3844C245.885 63.3844 243.758 62.5526 243.564 61.4966L243.55 61.4965V59.2937H253.41Z" fill="#4FCAD3"/>
<path fill-rule="evenodd" clip-rule="evenodd" d="M248.48 61.1822C251.203 61.1822 253.41 60.2665 253.41 59.1368C253.41 58.0071 251.203 57.0913 248.48 57.0913C245.757 57.0913 243.55 58.0071 243.55 59.1368C243.55 60.2665 245.757 61.1822 248.48 61.1822Z" fill="#72E1E9"/>
<path d="M246.239 60.8676L249.825 57.0913" stroke="#33C2CC" stroke-linecap="round" stroke-linejoin="round"/>
<path d="M247.136 61.1823L250.721 57.406" stroke="#33C2CC" stroke-linecap="round" stroke-linejoin="round"/>
<path fill-rule="evenodd" clip-rule="evenodd" d="M266.45 56.2004L267 58.0963L266.988 58.1004C267.084 59.0631 265.462 60.3684 263.228 61.0875C260.995 61.8066 258.957 61.6801 258.526 60.825L258.513 60.8289L257.963 58.933L266.45 56.2004Z" fill="#4FCAD3"/>
<path fill-rule="evenodd" clip-rule="evenodd" d="M262.678 59.1922C265.022 58.4376 266.693 57.0377 266.41 56.0654C266.128 55.0931 264 54.9166 261.656 55.6712C259.312 56.4258 257.641 57.8257 257.924 58.798C258.206 59.7703 260.335 59.9467 262.678 59.1922Z" fill="#72E1E9"/>
<path d="M259.75 58.8661L263.088 55.5881" stroke="#33C2CC" stroke-linecap="round" stroke-linejoin="round"/>
<path d="M260.905 58.8014L264.243 55.5234" stroke="#33C2CC" stroke-linecap="round" stroke-linejoin="round"/>
<path fill-rule="evenodd" clip-rule="evenodd" d="M247.435 9.88818H236.08V14.7536C236.08 14.7576 236.08 14.7615 236.08 14.7655C236.08 14.7695 236.08 14.7734 236.08 14.7774V14.9232H236.103C236.365 15.8052 238.796 16.4963 241.757 16.4963C244.719 16.4963 247.15 15.8052 247.411 14.9232H247.435V9.88818Z" fill="#FFB0A3"/>
<path fill-rule="evenodd" clip-rule="evenodd" d="M241.757 11.4616C244.893 11.4616 247.435 10.6867 247.435 9.73078C247.435 8.7749 244.893 8 241.757 8C238.622 8 236.08 8.7749 236.08 9.73078C236.08 10.6867 238.622 11.4616 241.757 11.4616Z" fill="#FF806B"/>
<path d="M245.642 11.7763C245.642 11.7763 246.837 11.7763 247.434 11.147" stroke="#FF806B" stroke-linecap="round" stroke-linejoin="round"/>
<path d="M245.642 12.7204C245.642 12.7204 246.837 12.7204 247.434 12.0911" stroke="#FF806B" stroke-linecap="round" stroke-linejoin="round"/>
<path d="M245.94 13.6648C245.94 13.6648 246.837 13.6648 247.434 13.3501" stroke="#FF806B" stroke-linecap="round" stroke-linejoin="round"/>
<path d="M245.642 14.9228C245.642 14.9228 246.837 14.9228 247.434 14.2935" stroke="#FF806B" stroke-linecap="round" stroke-linejoin="round"/>
<path d="M247.733 19.3288C247.733 19.3288 248.63 19.0141 248.929 18.3848" stroke="#102475" stroke-linecap="round" stroke-linejoin="round"/>
<path d="M248.63 19.9582C248.63 19.9582 249.526 19.6435 249.825 19.0142" stroke="#102475" stroke-linecap="round" stroke-linejoin="round"/>
<path d="M249.526 20.5876C249.526 20.5876 250.423 20.2729 250.722 19.6436" stroke="#102475" stroke-linecap="round" stroke-linejoin="round"/>
<path d="M250.423 21.5312C250.423 21.5312 251.319 21.2165 251.618 20.5872" stroke="#102475" stroke-linecap="round" stroke-linejoin="round"/>
<path d="M251.318 22.4758C251.318 22.4758 252.215 22.1611 252.514 21.5317" stroke="#102475" stroke-linecap="round" stroke-linejoin="round"/>
<path d="M250.722 24.0493C250.722 24.0493 252.515 23.7346 253.411 23.1052" stroke="#102475" stroke-linecap="round" stroke-linejoin="round"/>
<path d="M251.617 24.9934C251.617 24.9934 253.709 24.6787 253.709 24.364" stroke="#102475" stroke-linecap="round" stroke-linejoin="round"/>
<path d="M251.617 26.5664C251.617 26.5664 253.709 26.2517 253.709 25.937" stroke="#102475" stroke-linecap="round" stroke-linejoin="round"/>
<path d="M252.215 27.8252C252.215 27.8252 253.41 27.8252 253.709 27.5105" stroke="#102475" stroke-linecap="round" stroke-linejoin="round"/>
<path d="M252.215 29.3989C252.215 29.3989 253.41 29.3989 253.709 29.0842" stroke="#102475" stroke-linecap="round" stroke-linejoin="round"/>
<path d="M252.215 30.9724C252.215 30.9724 253.41 30.9724 253.709 30.6577" stroke="#102475" stroke-linecap="round" stroke-linejoin="round"/>
<path d="M252.215 32.5454C252.215 32.5454 253.41 32.5454 253.709 32.2307" stroke="#102475" stroke-linecap="round" stroke-linejoin="round"/>
<path d="M252.514 34.1189C252.514 34.1189 253.47 34.1189 253.709 33.8042" stroke="#102475" stroke-linecap="round" stroke-linejoin="round"/>
<path d="M252.215 35.6924C252.215 35.6924 253.41 35.6924 253.709 35.3777" stroke="#102475" stroke-linecap="round" stroke-linejoin="round"/>
<path d="M252.215 37.2659C252.215 37.2659 253.41 37.2659 253.709 36.9512" stroke="#102475" stroke-linecap="round" stroke-linejoin="round"/>
<path d="M252.215 39.4687C252.215 39.4687 253.41 39.4687 253.709 39.1541" stroke="#102475" stroke-linecap="round" stroke-linejoin="round"/>
<path d="M252.215 41.6711C252.215 41.6711 253.41 41.6711 253.709 41.3564" stroke="#102475" stroke-linecap="round" stroke-linejoin="round"/>
<path d="M252.215 43.8747C252.215 43.8747 253.41 43.8747 253.709 43.5601" stroke="#102475" stroke-linecap="round" stroke-linejoin="round"/>
<path d="M252.215 45.7624C252.215 45.7624 253.41 45.7624 253.709 45.4478" stroke="#102475" stroke-linecap="round" stroke-linejoin="round"/>
<path d="M251.617 48.28C251.617 48.28 253.111 48.28 253.709 47.6506" stroke="#102475" stroke-linecap="round" stroke-linejoin="round"/>
<path d="M252.812 46.7065C252.812 46.7065 253.709 46.7065 253.709 46.3918" stroke="#102475" stroke-linecap="round" stroke-linejoin="round"/>
</svg>
