<svg width="308" height="235" viewBox="0 0 308 235" fill="none" xmlns="http://www.w3.org/2000/svg">
<rect width="308" height="235" rx="20" fill="#E85D52"/>
<g clip-path="url(#clip0)">
<path d="M188.2 188.017C188.2 189.563 189.454 190.817 191 190.817C195.142 190.966 199.242 189.953 202.839 187.894C206.825 185.254 209.635 181.174 210.679 176.509C210.944 175.524 210.652 174.472 209.917 173.764C209.183 173.057 208.121 172.805 207.147 173.106C206.172 173.408 205.439 174.216 205.233 175.215C204.527 178.458 202.597 181.304 199.845 183.159C197.138 184.636 194.079 185.347 190.997 185.217C189.452 185.218 188.2 186.471 188.2 188.017Z" fill="white"/>
<path d="M66.5119 177.64C62.5499 180.611 60.4172 185.427 60.8811 190.358C61.2516 194.666 63.9323 198.433 67.8811 200.194C70.9507 201.496 74.2675 202.112 77.5999 202H119.6C122.123 202.004 124.6 201.318 126.762 200.018C135.187 204.318 145.501 201.422 150.456 193.365C151.721 193.292 152.976 193.258 154.247 193.292C158.265 193.36 162.246 194.068 166.041 195.389C167.659 195.983 169.205 196.68 170.75 197.374C173.504 198.711 176.379 199.784 179.335 200.578C183.136 201.509 187.034 201.986 190.947 202C197.223 202.159 203.417 200.549 208.822 197.355C215.275 193.145 219.849 186.601 221.584 179.093C223.771 170.866 222.077 162.09 216.984 155.268C205.728 141.229 198.442 108.256 206.302 79.4692C211.44 60.6588 212.476 48.9044 212.448 42.3468C212.399 37.7367 208.658 34.0197 204.048 34H143.537C141.29 33.9931 139.134 34.8889 137.553 36.4864C135.988 38.0467 135.114 40.1702 135.129 42.3804C135.422 61.738 137.371 81.0349 140.953 100.06C141.289 101.911 141.667 103.765 142.045 105.621C143.662 111.978 144.384 118.53 144.192 125.087C143.66 131.805 141.208 138.229 137.128 143.592C132.628 142.616 127.925 143.533 124.122 146.128C120.318 148.722 117.749 152.767 117.015 157.312C116.48 157.238 115.94 157.201 115.4 157.2C108.444 157.208 102.808 162.844 102.8 169.8V169.867C96.6349 171.41 90.381 172.572 84.0735 173.348C83.0039 173.471 81.9119 173.563 80.8059 173.653C75.762 173.618 70.8096 175 66.5119 177.64ZM149.775 125.496C150.013 118.425 149.259 111.357 147.535 104.496C147.163 102.678 146.793 100.856 146.466 99.0552C142.944 80.353 141.025 61.384 140.731 42.3552C140.729 41.6366 141.014 40.9468 141.524 40.44C142.054 39.8994 142.78 39.5964 143.537 39.6H204.048C205.59 39.6092 206.839 40.8575 206.848 42.4C206.876 48.5964 205.868 59.8048 200.898 78.0216C192.464 108.9 200.24 143.337 212.616 158.782C216.63 164.254 217.926 171.259 216.135 177.805C214.748 183.898 211.054 189.217 205.829 192.645C196.944 198.245 185.263 196.266 180.651 195.148C178.03 194.432 175.482 193.471 173.041 192.278C171.419 191.55 169.742 190.797 167.95 190.139C163.592 188.615 159.02 187.795 154.404 187.709C153.863 187.689 153.315 187.709 152.769 187.709C154.207 181.24 151.993 174.502 146.998 170.147C149.843 166.388 150.974 161.605 150.113 156.969C149.253 152.334 146.481 148.275 142.476 145.787C146.704 139.81 149.227 132.796 149.775 125.496ZM115.4 162.8C116.443 162.803 117.471 163.046 118.404 163.511C119.344 163.979 120.466 163.882 121.311 163.26C122.157 162.639 122.583 161.596 122.417 160.56C122.396 160.374 122.391 160.187 122.4 160C122.396 154.833 125.927 150.334 130.947 149.11C135.967 147.886 141.173 150.255 143.547 154.844C145.922 159.433 144.849 165.051 140.95 168.442C140.264 169.037 139.909 169.928 139.998 170.831C140.087 171.735 140.609 172.539 141.398 172.989C145.252 175.222 147.618 179.346 147.6 183.8C147.607 188.419 145.083 192.67 141.024 194.875C136.965 197.079 132.024 196.882 128.154 194.362C127.143 193.703 125.824 193.767 124.881 194.518C122.558 196.581 119.287 197.194 116.376 196.112C113.464 195.03 111.388 192.429 110.976 189.351C110.565 186.272 111.886 183.217 114.411 181.409C115.237 180.76 115.631 179.703 115.43 178.672C115.229 177.641 114.469 176.809 113.459 176.517C110.124 175.539 108.011 172.261 108.498 168.82C108.985 165.378 111.924 162.814 115.4 162.8ZM84.7595 178.906C91.2742 178.105 96.4317 178.107 102.8 176.517C103.717 178.397 106.387 178.819 108.083 180.042C104.634 184.997 104.791 191.615 108.473 196.4H77.5999C75.0787 196.505 72.5643 196.067 70.2275 195.115C68.0855 194.172 66.6353 192.128 66.4531 189.795C66.17 186.833 67.4493 183.936 69.8299 182.151C73.3125 180.162 77.2693 179.154 81.2791 179.236C82.4439 179.138 83.6003 179.04 84.7595 178.906Z" fill="white"/>
<path d="M76 185.4C76 190.039 79.7608 193.8 84.4 193.8C89.0392 193.8 92.8 190.039 92.8 185.4C92.8 180.761 89.0392 177 84.4 177C79.7608 177 76 180.761 76 185.4ZM87.2 185.4C87.2 186.946 85.9464 188.2 84.4 188.2C82.8536 188.2 81.6 186.946 81.6 185.4C81.6 183.854 82.8536 182.6 84.4 182.6C85.9464 182.6 87.2 183.854 87.2 185.4Z" fill="white"/>
<path d="M168.6 176.8C175.559 176.8 181.2 171.159 181.2 164.2C181.2 157.241 175.559 151.6 168.6 151.6C161.641 151.6 156 157.241 156 164.2C156.008 171.156 161.644 176.792 168.6 176.8ZM168.6 157.2C172.466 157.2 175.6 160.334 175.6 164.2C175.6 168.066 172.466 171.2 168.6 171.2C164.734 171.2 161.6 168.066 161.6 164.2C161.6 160.334 164.734 157.2 168.6 157.2Z" fill="white"/>
<path d="M167.199 140.4C170.103 140.397 172.892 139.267 174.978 137.247C181.822 138.671 188.832 135.708 192.58 129.808C196.328 123.907 196.031 116.302 191.834 110.712C187.637 105.122 180.417 102.715 173.705 104.668C166.994 106.621 162.192 112.526 161.65 119.495C157.239 122.009 155.074 127.177 156.376 132.084C157.679 136.991 162.123 140.405 167.199 140.4ZM165.332 123.953C166.632 123.488 167.416 122.163 167.199 120.8C167.199 114.614 172.214 109.6 178.399 109.6C184.585 109.6 189.599 114.614 189.599 120.8C189.599 126.986 184.585 132 178.399 132C177.197 132 176.001 131.811 174.857 131.44C173.697 131.068 172.429 131.489 171.721 132.482C170.686 133.95 168.996 134.816 167.199 134.8C164.107 134.8 161.599 132.293 161.599 129.2C161.595 126.833 163.094 124.725 165.332 123.953Z" fill="white"/>
</g>
<defs>
<clipPath id="clip0">
<rect x="58" y="34" width="168" height="168" fill="white"/>
</clipPath>
</defs>
</svg>
