<svg width="25" height="31" viewBox="0 0 25 31" fill="none" xmlns="http://www.w3.org/2000/svg">
<path d="M12.5 0.636475C11.2844 0.636475 10.2899 1.44214 9.99178 2.51147H1.97368C0.891756 2.51147 0 3.35864 0 4.38647V28.7615C0 29.7893 0.891756 30.6365 1.97368 30.6365H23.0263C24.1082 30.6365 25 29.7893 25 28.7615V4.38647C25 3.35864 24.1082 2.51147 23.0263 2.51147H17.1464C17.1335 2.51147 17.1181 2.51147 17.1053 2.51147H15.0082C14.7101 1.44214 13.7156 0.636475 12.5 0.636475ZM12.5 1.88647C13.235 1.88647 13.8158 2.43823 13.8158 3.13647C13.8158 3.48071 14.1113 3.76147 14.4737 3.76147H16.4474V5.01147H8.55263V3.76147H10.5263C10.8887 3.76147 11.1842 3.48071 11.1842 3.13647C11.1842 2.43823 11.765 1.88647 12.5 1.88647ZM1.97368 3.76147H7.23684V5.63647C7.23684 5.98071 7.53238 6.26147 7.89474 6.26147H17.1053C17.4676 6.26147 17.7632 5.98071 17.7632 5.63647V3.76147H23.0263C23.399 3.76147 23.6842 4.03247 23.6842 4.38647V28.7615C23.6842 29.1155 23.399 29.3865 23.0263 29.3865H1.97368C1.60105 29.3865 1.31579 29.1155 1.31579 28.7615V4.38647C1.31579 4.03247 1.60105 3.76147 1.97368 3.76147ZM19.7368 11.2224C19.7009 11.2273 19.6675 11.2322 19.634 11.2419C19.6212 11.2468 19.6058 11.2542 19.5929 11.2615C19.4233 11.2981 19.2743 11.3958 19.1817 11.5349L17.0025 14.6404L15.6044 13.3123C15.4682 13.1731 15.2704 13.1023 15.0699 13.1169C15.0416 13.1218 15.0134 13.1292 14.9877 13.1365C14.741 13.178 14.5431 13.3489 14.4737 13.5759C14.4043 13.8054 14.4763 14.0496 14.6587 14.2107L16.5502 16.0076C16.563 16.0222 16.5759 16.0344 16.5913 16.0466L16.6324 16.0857C16.6401 16.093 16.6453 16.0979 16.653 16.1052C16.6607 16.1125 16.6658 16.1174 16.6735 16.1248C16.6812 16.1321 16.6864 16.137 16.6941 16.1443C16.7198 16.1589 16.748 16.1711 16.7763 16.1833C16.7892 16.1907 16.8046 16.198 16.8174 16.2029C16.8303 16.2102 16.8457 16.2175 16.8586 16.2224C16.8663 16.2224 16.8714 16.2224 16.8791 16.2224C16.892 16.2297 16.9074 16.2371 16.9202 16.2419C16.9279 16.2419 16.9331 16.2419 16.9408 16.2419C16.9536 16.2493 16.9691 16.2566 16.9819 16.2615C16.9896 16.2615 16.9948 16.2615 17.0025 16.2615C17.0153 16.2615 17.0307 16.2615 17.0436 16.2615C17.0513 16.2615 17.0564 16.2615 17.0641 16.2615C17.1053 16.2639 17.1464 16.2639 17.1875 16.2615C17.1952 16.2615 17.2003 16.2615 17.2081 16.2615C17.2569 16.2542 17.3057 16.2395 17.352 16.2224C17.3648 16.2175 17.3802 16.2102 17.3931 16.2029C17.4137 16.198 17.4342 16.1907 17.4548 16.1833C17.4702 16.1711 17.483 16.1589 17.4959 16.1443C17.5087 16.1394 17.5242 16.1321 17.537 16.1248C17.5601 16.1077 17.5807 16.0881 17.5987 16.0662C17.6141 16.0466 17.627 16.0271 17.6398 16.0076C17.6475 16.0002 17.6527 15.9954 17.6604 15.988L17.6809 15.9685C17.6886 15.949 17.6963 15.9294 17.7015 15.9099L20.2919 12.238C20.4564 12.0452 20.4847 11.7791 20.3639 11.5593C20.2431 11.3372 19.9964 11.2053 19.7368 11.2224ZM5.07812 13.1365C4.71577 13.1853 4.46135 13.5051 4.51275 13.8494C4.56414 14.1936 4.9008 14.4353 5.26316 14.3865H11.8421C12.0785 14.3889 12.2995 14.2717 12.4203 14.0764C12.5385 13.8811 12.5385 13.6418 12.4203 13.4465C12.2995 13.2512 12.0785 13.134 11.8421 13.1365H5.26316C5.2426 13.1365 5.22204 13.1365 5.20148 13.1365C5.18092 13.1365 5.16036 13.1365 5.1398 13.1365C5.11924 13.1365 5.09868 13.1365 5.07812 13.1365ZM15.0699 19.3669C15.0416 19.3718 15.0134 19.3792 14.9877 19.3865C14.741 19.428 14.5431 19.5989 14.4737 19.8259C14.4043 20.0554 14.4763 20.2996 14.6587 20.4607L16.1595 21.8865L14.6587 23.3123C14.3966 23.5613 14.3966 23.9617 14.6587 24.2107C14.9208 24.4597 15.3423 24.4597 15.6044 24.2107L17.1053 22.7849L18.6061 24.2107C18.8682 24.4597 19.2897 24.4597 19.5518 24.2107C19.8139 23.9617 19.8139 23.5613 19.5518 23.3123L18.051 21.8865L19.5518 20.4607C19.7651 20.2727 19.8216 19.9749 19.6932 19.7283C19.5672 19.4792 19.282 19.3425 18.9967 19.3865C18.8502 19.4011 18.7115 19.4646 18.6061 19.5623L17.1053 20.988L15.6044 19.5623C15.4682 19.4231 15.2704 19.3523 15.0699 19.3669ZM5.07812 21.2615C4.71577 21.3103 4.46135 21.6301 4.51275 21.9744C4.56414 22.3186 4.9008 22.5603 5.26316 22.5115H11.8421C12.0785 22.5139 12.2995 22.3967 12.4203 22.2014C12.5385 22.0061 12.5385 21.7668 12.4203 21.5715C12.2995 21.3762 12.0785 21.259 11.8421 21.2615H5.26316C5.2426 21.2615 5.22204 21.2615 5.20148 21.2615C5.18092 21.2615 5.16036 21.2615 5.1398 21.2615C5.11924 21.2615 5.09868 21.2615 5.07812 21.2615Z" fill="#E85D52"/>
</svg>
