<svg width="320" height="300" viewBox="0 0 320 300" fill="none" xmlns="http://www.w3.org/2000/svg">
<path d="M178.984 172.286C198.021 179.247 200.99 188.925 213.607 192.19C232.369 197.046 274.123 194.373 276.642 213.132C278.059 223.686 270.377 229.795 255.56 233.686C243.494 236.855 230.012 237.2 226.92 243.664C223.34 251.148 235.671 255.837 233.682 265.416C231.531 275.778 207.641 281.252 182.368 278.587C154.922 275.694 132.131 267.964 130.888 253.143C130.16 244.462 126.553 243.776 122.403 228.298C121.346 224.355 124.688 229.161 116.206 216.493C109.984 207.201 111.239 192.201 118.576 182.811C130.853 167.097 155.516 163.705 178.984 172.286Z" fill="url(#paint0_linear)"/>
<path d="M276.642 213.132C274.493 197.127 243.785 196.723 223.163 193.933L258.955 232.712C271.536 228.793 277.947 222.846 276.642 213.132Z" fill="url(#paint1_linear)"/>
<path d="M265.054 230.429L225.709 194.261C221.839 193.786 218.25 193.255 215.168 192.565H215.167L251.345 234.683C252.757 234.379 254.168 234.052 255.56 233.687C259.156 232.742 262.327 231.666 265.054 230.429Z" fill="#3369FF"/>
<path d="M247.274 213.332H235.516L245.185 224.041H258.968L247.274 213.332Z" fill="url(#paint2_linear)"/>
<path d="M234.796 212.533H246.402L236.557 203.517H226.656L234.796 212.533Z" fill="url(#paint3_linear)"/>
<path d="M246.266 225.239L254.201 234.029C254.656 233.918 255.109 233.805 255.559 233.687C259.418 232.673 262.787 231.508 265.644 230.154L260.276 225.239H246.266Z" fill="url(#paint4_linear)"/>
<path d="M225.935 202.72H235.685L226.561 194.364C223.171 193.958 219.981 193.517 217.136 192.972L225.935 202.72Z" fill="url(#paint5_linear)"/>
<path opacity="0.4" d="M218.765 241.669C206.11 244.437 188.354 243.351 181.971 242.867C175.587 242.382 154.623 239.973 153.132 248.255C151.963 254.747 161.087 260.528 175.805 260.827C193.365 261.184 215.337 253.677 231.389 256.171C228.582 251.858 224.704 248.296 226.919 243.665C227.581 242.281 228.722 241.179 230.221 240.268C227.082 240.269 223.309 240.675 218.765 241.669Z" fill="url(#paint6_radial)"/>
<path d="M184.059 55.2782C184.059 48.555 178.628 43.105 171.927 43.105C165.227 43.105 159.795 48.555 159.795 55.2782C159.795 62.0014 165.227 67.4514 171.927 67.4514C172.132 67.4514 172.334 67.4458 172.537 67.4358L177.431 73.0391V66.1259C181.364 64.1127 184.059 60.0126 184.059 55.2782Z" fill="url(#paint7_linear)"/>
<path fill-rule="evenodd" clip-rule="evenodd" d="M176.425 53.2225C176.608 52.708 176.699 52.1313 176.699 51.4919C176.699 50.876 176.602 50.2913 176.408 49.7394C176.213 49.1862 175.908 48.6949 175.493 48.2662C175.077 47.8379 174.543 47.4967 173.89 47.2432C173.238 46.9902 172.453 46.8633 171.536 46.8633C171.132 46.8633 170.744 46.8944 170.371 46.9567C169.998 47.0189 169.66 47.0952 169.357 47.1846C169.054 47.274 168.794 47.3718 168.576 47.4767C168.358 47.5817 168.211 47.6735 168.133 47.7513C168.056 47.8296 168.005 47.9309 167.982 48.0555C167.958 48.18 167.947 48.3787 167.947 48.6517C167.947 48.9168 167.956 49.1355 167.976 49.3067C167.995 49.4783 168.02 49.6108 168.051 49.7042C168.082 49.7976 168.121 49.8619 168.168 49.897C168.214 49.9321 168.265 49.9497 168.319 49.9497C168.397 49.9497 168.508 49.9106 168.652 49.8327C168.795 49.7549 168.976 49.6691 169.193 49.5753C169.411 49.4815 169.671 49.3957 169.974 49.3179C170.277 49.2401 170.627 49.2009 171.023 49.2009C171.458 49.2009 171.837 49.2612 172.159 49.3821C172.481 49.5035 172.75 49.6767 172.963 49.9026C173.177 50.1285 173.336 50.3975 173.441 50.7092C173.546 51.0209 173.598 51.3638 173.598 51.7382C173.598 52.0734 173.554 52.3891 173.464 52.6853C173.375 52.9818 173.233 53.2392 173.039 53.4572C172.845 53.6755 172.598 53.8507 172.299 53.9832C172 54.1157 171.645 54.182 171.233 54.182H171.07C170.899 54.182 170.751 54.1999 170.627 54.2347C170.503 54.2694 170.4 54.3336 170.318 54.4274C170.237 54.5212 170.18 54.6458 170.149 54.8018C170.118 54.9579 170.106 55.1602 170.114 55.4097L170.219 58.1692C170.227 58.255 170.254 58.3253 170.301 58.3795C170.348 58.4338 170.421 58.4769 170.522 58.5081C170.623 58.5392 170.761 58.5607 170.936 58.5723C171.111 58.5839 171.326 58.5899 171.583 58.5899C171.987 58.5899 172.296 58.5548 172.509 58.4845C172.723 58.4143 172.833 58.3093 172.841 58.1688L172.935 55.8886C173.494 55.8264 174.005 55.6823 174.467 55.456C174.929 55.2297 175.326 54.9299 175.656 54.5556C175.986 54.1812 176.242 53.737 176.425 53.2225ZM173.174 62.3193C173.224 62.1014 173.249 61.8324 173.249 61.5127C173.249 61.1854 173.224 60.9108 173.174 60.6885C173.123 60.4662 173.034 60.287 172.906 60.1505C172.778 60.0144 172.607 59.917 172.393 59.8584C172.179 59.7997 171.917 59.7706 171.606 59.7706C171.28 59.7706 171.012 59.8001 170.802 59.8584C170.593 59.9166 170.424 60.0144 170.296 60.1505C170.167 60.287 170.078 60.4666 170.027 60.6885C169.977 60.9104 169.952 61.1854 169.952 61.5127C169.952 61.8324 169.977 62.1014 170.027 62.3193C170.078 62.5377 170.167 62.7129 170.296 62.8454C170.424 62.9783 170.593 63.0733 170.802 63.132C171.012 63.1906 171.28 63.2198 171.606 63.2198C171.917 63.2198 172.179 63.1906 172.393 63.132C172.607 63.0733 172.778 62.9783 172.906 62.8454C173.034 62.7129 173.123 62.5377 173.174 62.3193Z" fill="#FDE1A7"/>
<path d="M160.359 106.965C158.171 102.309 157.508 101.843 155.585 99.9805C153.663 98.1178 152.263 96.6782 151.873 96.8542C151.355 97.0869 151.475 98.4507 151.906 99.6149C152.337 100.779 153.066 101.378 153.066 101.378C153.066 101.378 151.774 101.245 149.022 100.014C146.271 98.7831 144.017 96.8542 143.553 97.32C143.088 97.7857 144.016 99.3822 144.016 99.3822C144.016 99.3822 143.275 98.9081 143.088 99.4489C142.998 99.7099 143.423 100.612 143.785 101.178C144.114 101.695 145.011 102.608 145.011 102.608C145.011 102.608 144.812 103.007 145.343 103.872C145.873 104.737 148.359 107.265 150.945 108.487C152.882 109.403 154.889 109.56 154.889 109.56C154.889 109.56 154.726 111.749 154.8 115.35C156.61 115.103 159.602 114.455 162.32 112.915C161.683 110.521 161.004 108.337 160.359 106.965Z" fill="url(#paint8_linear)"/>
<path d="M144.098 99.3223C144.258 99.5254 144.468 99.707 144.672 99.8862C144.879 100.064 145.092 100.236 145.308 100.404C145.741 100.737 146.187 101.06 146.645 101.344C146.739 101.401 146.769 101.524 146.712 101.618C146.655 101.712 146.533 101.743 146.438 101.685C146.435 101.683 146.43 101.68 146.427 101.677C145.967 101.353 145.538 101.001 145.118 100.635C144.909 100.453 144.703 100.265 144.503 100.071C144.305 99.8747 144.104 99.6819 143.935 99.4412C143.903 99.3953 143.914 99.3327 143.959 99.3003C144.003 99.2696 144.064 99.2784 144.096 99.3199L144.098 99.3223Z" fill="#1AA9E8"/>
<path d="M144.952 102.525C145.006 102.481 145.103 102.413 145.197 102.39C145.289 102.362 145.387 102.353 145.48 102.363C145.666 102.379 145.831 102.443 145.986 102.513C146.294 102.662 146.573 102.82 146.858 103.01C147.133 103.201 147.387 103.41 147.646 103.598C147.901 103.782 148.177 103.967 148.427 104.008L148.436 104.009C148.544 104.027 148.618 104.129 148.6 104.238C148.582 104.347 148.48 104.421 148.372 104.403C148.367 104.402 148.362 104.402 148.357 104.4C147.961 104.305 147.698 104.08 147.434 103.876C147.174 103.667 146.933 103.448 146.681 103.253C146.432 103.068 146.149 102.889 145.876 102.74C145.601 102.596 145.301 102.5 145.07 102.691C145.027 102.726 144.962 102.72 144.927 102.677C144.891 102.633 144.897 102.569 144.941 102.533C144.941 102.533 144.941 102.533 144.941 102.533L144.952 102.525Z" fill="#1AA9E8"/>
<path d="M153.088 101.307C153.86 101.49 154.6 101.848 155.269 102.278L155.273 102.28C155.366 102.34 155.393 102.464 155.333 102.557C155.273 102.65 155.15 102.677 155.058 102.617C155.052 102.613 155.046 102.609 155.041 102.604C154.436 102.118 153.78 101.708 153.044 101.446C153.006 101.433 152.986 101.391 153 101.353C153.012 101.317 153.049 101.298 153.085 101.306L153.088 101.307Z" fill="#1AA9E8"/>
<path d="M176.57 114.24C176.071 112.553 174.115 112.353 174.115 112.353C173.154 113.551 165.132 125.591 165.132 125.591C165.132 125.591 163.846 118.644 162.32 112.914C159.603 114.454 156.61 115.102 154.801 115.349C154.861 118.247 155.074 122.06 155.652 126.389C156.862 135.452 158.602 138.539 160.691 138.962C163.077 139.444 168.58 136.966 173.155 133.84C177.729 130.713 177.068 115.926 176.57 114.24Z" fill="url(#paint9_linear)"/>
<path d="M162.18 135.105C161.866 135.105 161.608 135.025 161.418 134.851C158.209 131.914 157.388 115.506 157.355 114.809C157.349 114.699 157.434 114.606 157.544 114.6C157.665 114.594 157.747 114.68 157.752 114.79C157.76 114.959 158.597 131.73 161.686 134.556C163.236 135.978 171.89 128.693 177.325 123.451C177.404 123.375 177.53 123.376 177.606 123.457C177.682 123.536 177.68 123.663 177.601 123.739C176.305 124.988 165.705 135.105 162.18 135.105Z" fill="#3369FF"/>
<path d="M160.489 119.567L160.218 118.179C160.118 117.669 159.625 117.335 159.115 117.436C159.115 117.436 156.76 118.169 154.917 118.442C154.973 119.522 155.051 120.674 155.157 121.896C156.885 121.803 159.748 120.674 159.748 120.674C160.257 120.574 160.589 120.078 160.489 119.567Z" fill="url(#paint10_linear)"/>
<path fill-rule="evenodd" clip-rule="evenodd" d="M154.96 121.913C154.968 122.017 155.055 122.095 155.158 122.095H155.169C156.908 122.001 159.703 120.906 159.786 120.87C160.085 120.811 160.342 120.639 160.512 120.386C160.682 120.133 160.743 119.828 160.685 119.529L160.414 118.141C160.309 117.606 159.84 117.218 159.297 117.218C159.225 117.218 159.151 117.225 159.057 117.245C159.034 117.252 156.695 117.977 154.888 118.244C154.787 118.259 154.713 118.349 154.719 118.452C154.779 119.614 154.861 120.779 154.96 121.913ZM155.338 121.683C155.253 120.674 155.181 119.642 155.125 118.611C156.933 118.322 159.151 117.634 159.153 117.631C159.559 117.549 159.945 117.823 160.023 118.218L160.294 119.605C160.332 119.8 160.292 119.998 160.182 120.163C160.071 120.328 159.904 120.44 159.675 120.488C159.648 120.499 157.029 121.525 155.338 121.683Z" fill="#3369FF"/>
<path d="M203.329 105.291C201.96 103.921 199.673 102.374 195.347 101.127C191.021 99.8796 178.491 101.077 177.049 104.519C175.607 107.962 181.591 112.978 186.654 114.162C191.717 115.346 204.115 113.749 205.589 108.76C205.952 107.534 203.329 105.291 203.329 105.291Z" fill="url(#paint11_linear)"/>
<path d="M196.292 98.915C195.645 101.077 197.419 109.958 198.148 112.485C196.043 114.098 193.083 114.79 189.33 114.547C184.706 114.248 182.767 112.419 182.767 112.419C182.767 112.419 185.402 109.309 186.015 103.106C186.558 97.6103 196.292 98.915 196.292 98.915Z" fill="url(#paint12_linear)"/>
<path d="M198.104 95.8361C200.134 93.0694 202.399 88.464 198.811 83.4486C196.789 80.6216 192.71 79.3951 190.474 79.6238C185.011 80.1826 184.06 83.1161 184.06 83.1161C181.541 85.8768 177.696 98.5821 182.966 102.673C187.5 106.193 193.225 101.999 195.305 99.4598C195.699 99.7838 196.203 99.9782 196.752 99.9782C198.015 99.9782 199.039 98.9509 199.039 97.6837C199.038 96.9245 198.67 96.254 198.104 95.8361Z" fill="url(#paint13_radial)"/>
<path d="M197.021 85.7774C195.548 85.8097 191.161 87.7207 190.399 86.3845C189.645 85.0622 192.59 83.5399 192.04 82.5928C191.368 81.437 189.076 82.6758 187.192 83.5407C184.855 84.6136 183.203 84.5569 180.927 82.1685C178.764 79.8983 178.673 77.1296 179.883 76.2316C181.299 75.1811 182.899 75.5 183.836 76.0568C184.783 76.6204 186.034 78.23 187.117 77.4537C188.104 76.7469 186.906 74.8694 188.311 74.2109C189.711 73.5539 192.131 74.527 193.374 76.1981C194.617 77.8692 194.648 78.4687 196.614 78.7509C199.225 79.1252 204.361 80.5808 204.645 87.3735C204.877 92.9281 201.243 95.0841 199.921 95.9187C198.599 96.7533 200.123 90.9672 199.772 88.6706C199.598 87.5319 198.546 85.7439 197.021 85.7774Z" fill="url(#paint14_linear)"/>
<path d="M187.077 90.0012C186.687 89.8056 184.491 91.0656 183.033 92.2295C181.724 93.2744 180.179 93.8459 180.363 94.5511C180.546 95.2564 183.099 96.0546 183.099 96.0546C183.099 96.0546 183.603 94.6545 184.856 93.161C186.181 91.5809 187.474 90.2007 187.077 90.0012Z" fill="url(#paint15_linear)"/>
<path d="M183.969 100.219C183.846 100.219 183.713 100.206 183.57 100.175C182.232 99.8883 181.692 98.166 181.79 97.3614C181.803 97.2521 181.903 97.1722 182.012 97.1874C182.121 97.2006 182.199 97.3003 182.185 97.4097C182.112 98.0104 182.523 99.5426 183.653 99.7849C184.556 99.9769 184.773 99.3315 184.781 99.3039C184.815 99.199 184.925 99.1391 185.032 99.1746C185.136 99.2082 185.194 99.3203 185.16 99.4253C185.064 99.7274 184.7 100.219 183.969 100.219Z" fill="#9F36AD"/>
<path d="M189.552 94.3507C189.188 94.7737 188.551 94.8204 188.131 94.4552C187.709 94.0896 187.662 93.451 188.026 93.0284L189.642 91.1509C190.006 90.7278 190.643 90.6811 191.063 91.0463C191.485 91.4119 191.532 92.0505 191.168 92.4732L189.552 94.3507Z" fill="#212F66"/>
<path d="M188.929 93.6276C188.796 93.7833 188.561 93.8005 188.407 93.6664C188.252 93.5322 188.235 93.2976 188.368 93.1419L188.962 92.4518C189.096 92.2966 189.33 92.279 189.485 92.4135C189.64 92.5476 189.657 92.7827 189.523 92.938L188.929 93.6276Z" fill="#00E2EC"/>
<path d="M183.934 90.3258C183.578 90.7401 182.955 90.7856 182.542 90.4284C182.13 90.0708 182.084 89.4454 182.44 89.0315L184.023 87.1935C184.379 86.7792 185.002 86.7333 185.414 87.0909C185.827 87.4486 185.873 88.074 185.516 88.4879L183.934 90.3258Z" fill="#212F66"/>
<path d="M183.325 89.6183C183.194 89.7703 182.965 89.7871 182.813 89.6562C182.661 89.5245 182.644 89.295 182.775 89.1425L183.357 88.4668C183.488 88.3148 183.716 88.298 183.868 88.4293C184.02 88.561 184.037 88.7909 183.906 88.943L183.325 89.6183Z" fill="#00E2EC"/>
<path d="M203.319 90.3676C203.103 85.1375 197.021 85.7777 197.021 85.7777C197.021 85.7777 198.032 86.4845 198.38 88.7711C198.796 91.4991 198.011 94.2031 197.354 95.4732C197.981 95.6448 198.5 96.0766 198.79 96.6474C200.095 95.901 203.455 93.6544 203.319 90.3676Z" fill="url(#paint16_linear)"/>
<g filter="url(#filter0_d)">
<path fill-rule="evenodd" clip-rule="evenodd" d="M180.418 92.3268C181.138 91.1278 182.799 91.3145 183.573 91.5137C186.195 92.0858 187.364 94.6614 190.104 96.1046C190.379 96.252 191.202 96.6065 191.628 96.6859C193.749 97.1671 195.19 94.478 197.352 94.7915C197.586 95.0015 197.529 95.3627 197.352 95.3459C195.23 95.1467 192.715 97.7595 191.254 97.1017C190.228 99.1871 190.14 101.768 190.899 103.6C187.414 105.163 181.992 103.488 179.772 100.594C178.578 99.3695 179.273 94.2345 180.418 92.3268Z" fill="white"/>
</g>
<path d="M205.418 227.07C205.387 221.321 205.373 215.268 205.373 212.266C205.373 205.681 206.036 184.194 205.44 178.141C204.843 172.088 203.451 160.314 203.451 160.314C203.451 160.314 192.125 161.697 185.147 161.158C177.662 160.58 173.979 158.557 173.979 158.557C173.885 160.256 173.203 177.166 174.059 187.097C175.186 200.162 177.664 218.314 178.848 226.551C180.455 227.138 183.894 227.695 187.27 226.85C187.522 217.955 187.939 205.956 188.07 201.756C188.269 195.37 189.197 184.195 189.197 184.195C189.197 184.195 191.583 200.359 192.91 208.275C193.72 213.111 194.9 220.775 195.833 227.086C197.957 227.464 201.767 227.592 205.418 227.07Z" fill="url(#paint17_linear)"/>
<path d="M172.407 157.31C173.844 158.766 178.898 162.896 197.196 160.401C196.566 154.015 194.634 140.624 195.164 135.502C195.694 130.38 197.475 113.775 197.475 113.775C197.475 113.775 191.452 115.213 186.811 114.215C182.17 113.218 180.115 111.355 180.115 111.355C180.115 111.355 176.303 119.936 173.916 136.5C171.529 153.063 172.407 157.31 172.407 157.31Z" fill="url(#paint18_linear)"/>
<path d="M184.656 161.339C184.552 161.339 184.465 161.258 184.458 161.151C184.057 154.808 186.037 119.84 186.613 114.195C186.624 114.085 186.721 114.005 186.831 114.016C186.94 114.028 187.02 114.126 187.008 114.235C186.433 119.875 184.455 154.796 184.855 161.126C184.862 161.236 184.779 161.331 184.669 161.338C184.664 161.339 184.66 161.339 184.656 161.339Z" fill="#FFA2BA"/>
<path d="M189.428 185.956C189.332 185.956 189.247 185.885 189.232 185.786C189.051 184.571 188.803 182.757 188.563 181.003C188.223 178.503 187.836 175.67 187.751 175.434C187.629 175.116 185.497 173.174 184.58 172.426C184.495 172.357 184.481 172.232 184.551 172.146C184.62 172.06 184.745 172.047 184.831 172.117C185.28 172.483 187.931 174.781 188.123 175.295C188.217 175.545 188.501 177.607 188.958 180.949C189.197 182.702 189.444 184.514 189.625 185.727C189.641 185.836 189.567 185.938 189.458 185.954C189.448 185.955 189.438 185.956 189.428 185.956Z" fill="#212F66"/>
<path d="M173.108 156.61C174.449 157.923 176.364 158.682 178.324 159.17C180.3 159.653 182.372 159.862 184.451 159.934C188.62 160.062 192.834 159.647 197.008 159.017L197.383 161.785C193.079 162.296 188.723 162.592 184.334 162.32C182.142 162.175 179.938 161.888 177.769 161.285C176.686 160.982 175.612 160.597 174.578 160.076C173.549 159.558 172.538 158.883 171.706 158.011L173.108 156.61Z" fill="url(#paint19_linear)"/>
<path d="M182.646 111.264C182.653 111.275 182.817 111.404 182.972 111.499C183.134 111.601 183.313 111.701 183.499 111.796C183.871 111.987 184.269 112.157 184.675 112.307C185.489 112.607 186.341 112.826 187.203 112.968C188.929 113.252 190.698 113.215 192.402 112.873L192.885 115.624C190.844 115.945 188.749 115.897 186.735 115.477C185.729 115.268 184.741 114.969 183.786 114.571C183.308 114.37 182.838 114.146 182.373 113.883C182.141 113.751 181.91 113.609 181.675 113.447C181.439 113.273 181.209 113.126 180.903 112.777L182.646 111.264Z" fill="url(#paint20_linear)"/>
<path fill-rule="evenodd" clip-rule="evenodd" d="M184.322 162.52C185.43 162.588 186.586 162.623 187.757 162.623C190.661 162.623 193.728 162.42 197.407 161.984C197.46 161.978 197.508 161.95 197.541 161.908C197.573 161.866 197.588 161.812 197.58 161.759L197.206 158.991C197.199 158.938 197.171 158.89 197.129 158.858C197.086 158.826 197.032 158.812 196.98 158.82C192.738 159.46 189.244 159.759 185.986 159.759C185.476 159.759 184.966 159.751 184.459 159.735C182.123 159.655 180.132 159.407 178.372 158.977C176.061 158.403 174.385 157.581 173.247 156.468C173.169 156.391 173.045 156.392 172.968 156.469L171.567 157.87C171.489 157.947 171.488 158.071 171.563 158.149C172.334 158.957 173.318 159.666 174.489 160.255C175.449 160.738 176.505 161.138 177.717 161.478C179.668 162.02 181.766 162.35 184.322 162.52ZM174.667 159.898C173.605 159.363 172.705 158.73 171.986 158.012L173.111 156.888C174.295 157.984 175.988 158.794 178.277 159.364C180.063 159.801 182.081 160.052 184.445 160.133C184.958 160.149 185.471 160.157 185.985 160.157C189.213 160.157 192.666 159.867 196.838 159.244L197.159 161.611C193.585 162.029 190.592 162.224 187.756 162.224C186.594 162.224 185.447 162.189 184.348 162.121C181.821 161.954 179.747 161.627 177.824 161.093C176.636 160.76 175.604 160.37 174.667 159.898Z" fill="#FFA2BA"/>
<path fill-rule="evenodd" clip-rule="evenodd" d="M186.696 115.673C187.842 115.912 189.023 116.033 190.207 116.033C191.112 116.033 192.023 115.962 192.918 115.822C192.971 115.814 193.018 115.784 193.049 115.741C193.08 115.698 193.092 115.643 193.083 115.59L192.599 112.839C192.59 112.786 192.56 112.739 192.516 112.709C192.471 112.678 192.416 112.667 192.365 112.677C190.679 113.016 188.92 113.048 187.237 112.771C186.367 112.628 185.529 112.409 184.744 112.12C184.323 111.964 183.935 111.795 183.59 111.619C183.403 111.523 183.231 111.426 183.076 111.328C183.003 111.284 182.928 111.23 182.876 111.194C182.839 111.168 182.814 111.15 182.81 111.15L182.81 111.15C182.778 111.104 182.728 111.073 182.672 111.066C182.616 111.059 182.559 111.076 182.516 111.113L180.773 112.625C180.733 112.66 180.709 112.709 180.705 112.762C180.701 112.816 180.719 112.868 180.754 112.908C181.037 113.23 181.258 113.39 181.471 113.544L181.472 113.545L181.563 113.611C181.785 113.765 182.019 113.91 182.276 114.057C182.715 114.306 183.184 114.534 183.71 114.755C184.648 115.147 185.653 115.456 186.696 115.673ZM181.704 113.222C181.538 113.101 181.379 112.986 181.189 112.793L182.652 111.523C182.739 111.586 182.833 111.648 182.867 111.668C183.029 111.771 183.212 111.874 183.409 111.974C183.767 112.158 184.17 112.334 184.607 112.495C185.415 112.793 186.278 113.018 187.172 113.165C188.836 113.439 190.573 113.419 192.242 113.108L192.655 115.458C190.702 115.74 188.687 115.681 186.777 115.282C185.759 115.07 184.778 114.769 183.864 114.387C183.353 114.172 182.897 113.951 182.472 113.71C182.225 113.569 182.001 113.43 181.794 113.286L181.704 113.222Z" fill="#FFA2BA"/>
<path d="M178.849 226.552C178.935 227.154 179.015 227.708 179.087 228.198C179.946 234.071 180.34 236.658 180.049 237.544C178.217 243.115 169.531 244.363 169.242 245.327C168.994 246.159 169.415 247.067 169.889 247.406C171.529 248.578 183.164 247.782 184.69 247.522C186.546 247.206 187.639 246.458 187.673 245.859C187.699 245.394 187.143 240.804 187.076 236.679C187.054 235.268 187.139 231.479 187.27 226.85C183.894 227.695 180.455 227.138 178.849 226.552Z" fill="url(#paint21_linear)"/>
<path d="M198.479 244.861C198.942 246.325 199.838 246.458 201.429 247.223C203.02 247.988 209.882 251.147 212.567 250.914C215.252 250.682 215.318 249.917 215.285 249.252C215.252 248.586 213.628 246.824 211.307 245.061C208.987 243.298 205.771 241.136 205.606 240.637C205.515 240.366 205.455 233.936 205.418 227.07C201.767 227.592 197.956 227.464 195.833 227.086C196.427 231.104 196.92 234.575 197.152 236.413C197.75 241.136 198.015 243.398 198.479 244.861Z" fill="url(#paint22_linear)"/>
<path d="M201.429 247.223C203.021 247.987 209.883 251.147 212.568 250.914C215.253 250.681 215.319 249.917 215.286 249.251C215.279 249.114 215.201 248.928 215.067 248.708C214.486 249.128 213.336 249.652 211.374 249.385C206.908 248.778 199.005 244.813 198.188 243.718C198.279 244.152 198.374 244.529 198.479 244.861C198.943 246.325 199.838 246.458 201.429 247.223Z" fill="url(#paint23_linear)"/>
<path d="M169.889 247.406C171.529 248.579 183.164 247.782 184.69 247.522C186.546 247.206 187.639 246.458 187.673 245.859C187.68 245.728 187.641 245.269 187.58 244.585C186.525 245.067 184.374 245.85 180.778 246.308C174.712 247.082 169.913 246.159 169.242 245.327C168.994 246.159 169.415 247.067 169.889 247.406Z" fill="url(#paint24_linear)"/>
<path d="M205.464 233.719C205.457 232.923 205.45 232.085 205.443 231.216H202.532C201.113 231.216 199.954 232.321 199.855 233.719H205.464Z" fill="url(#paint25_linear)"/>
<path d="M205.502 237.078C205.492 236.377 205.483 235.595 205.474 234.75H199.846V237.078H205.502Z" fill="url(#paint26_linear)"/>
<path d="M205.518 238.109H199.846C199.852 239.594 201.051 240.795 202.532 240.795H205.711C205.659 240.734 205.619 240.678 205.605 240.637C205.573 240.537 205.543 239.598 205.518 238.109Z" fill="url(#paint27_linear)"/>
<path d="M183.138 233.636V232.724C183.138 231.504 182.152 230.515 180.937 230.515H179.426C179.603 231.734 179.749 232.762 179.863 233.636H183.138Z" fill="url(#paint28_linear)"/>
<path d="M179.992 234.684C180.166 236.206 180.196 237.097 180.049 237.544C179.955 237.83 179.839 238.102 179.711 238.365H180.936C182.152 238.365 183.137 237.376 183.137 236.156V234.684H179.992Z" fill="url(#paint29_linear)"/>
<path d="M180.181 113.284C178.916 117.206 176.904 127.26 175.938 137.897C174.905 149.274 174.314 155.291 174.214 170.358C174.08 190.722 176.422 204.146 176.203 204.616C175.855 205.364 168.248 203.153 165.264 201.556C162.281 199.96 160.093 197.964 160.093 197.964C160.093 197.964 164.071 171.223 166.657 155.657C169.242 140.092 173.22 125.324 173.518 121.233C173.817 117.142 174.115 112.353 174.115 112.353C174.115 112.353 175.308 110.956 177.496 111.255C179.684 111.555 180.181 113.284 180.181 113.284Z" fill="url(#paint30_linear)"/>
<path d="M171.931 139.297L171.859 140.677C171.832 141.338 171.911 141.905 172.938 142.62L175.293 144.337C175.437 142.988 175.584 141.592 175.729 140.108L173.172 138.15C172.408 137.797 171.958 138.637 171.931 139.297Z" fill="url(#paint31_linear)"/>
<path d="M174.972 125.943C174.015 125.574 173.758 126.43 173.731 127.091L173.659 128.471C173.632 129.131 173.925 129.548 174.802 130.13L176.656 131.418C176.832 130.068 177.019 128.749 177.214 127.473L174.972 125.943Z" fill="url(#paint32_linear)"/>
<path d="M177.048 104.52C176.949 108.411 182.717 108.761 183.363 109.626C184.302 110.881 180.844 117.874 179.783 117.741C178.722 117.608 176.877 114.48 176.054 113.6C175.283 112.777 174.513 111.904 174.562 111.405C174.612 110.906 176.19 105.634 177.048 104.52Z" fill="url(#paint33_linear)"/>
<path d="M178.849 117.342C178.801 117.342 178.753 117.324 178.715 117.289C178.634 117.214 178.629 117.088 178.703 117.007C180.465 115.084 182.466 111.566 182.022 110.737C181.904 110.516 181.297 110.204 180.654 109.872C178.899 108.968 176.247 107.602 176.475 104.96C176.484 104.85 176.585 104.769 176.69 104.778C176.799 104.787 176.88 104.884 176.871 104.994C176.667 107.369 179.176 108.662 180.836 109.517C181.625 109.924 182.196 110.218 182.372 110.547C183.01 111.74 180.549 115.582 178.996 117.277C178.957 117.32 178.903 117.342 178.849 117.342Z" fill="#3369FF"/>
<path d="M195.247 117.99C194.75 119.936 192.175 139.398 191.65 159.383C191.126 179.339 191.571 206.488 192.313 207.543C193.109 208.674 200.501 206.313 205.307 204.749C209.866 203.267 213.793 200.891 213.793 200.891C213.793 200.891 213.263 177.743 213.263 168.696C213.263 159.649 210.114 118.739 210.114 118.739C210.114 118.739 207.286 115.157 202.457 114.448C197.628 113.739 195.247 117.99 195.247 117.99Z" fill="url(#paint34_linear)"/>
<path d="M197.782 127.654L189.777 130.797C188.7 131.228 188.607 131.796 188.634 132.457L188.706 133.836C188.733 134.497 189.131 135.136 189.947 134.984L197.308 131.807C197.459 130.359 197.617 128.972 197.782 127.654Z" fill="url(#paint35_linear)"/>
<path d="M196.511 140.888L189.764 142.979C188.686 143.41 188.594 143.978 188.62 144.639L188.693 146.019C188.719 146.679 189.118 147.319 189.933 147.167L196.232 144.975C196.32 143.589 196.413 142.225 196.511 140.888Z" fill="url(#paint36_linear)"/>
<path d="M189.506 135.186C189.421 135.186 189.343 135.131 189.316 135.045C189.27 134.897 189.244 134.739 189.237 134.576L189.165 133.198C189.137 132.526 189.213 131.831 190.433 131.342L197.524 128.558C197.627 128.518 197.742 128.568 197.782 128.671C197.822 128.774 197.772 128.89 197.669 128.93L190.579 131.714C189.598 132.107 189.538 132.59 189.562 133.18L189.634 134.557C189.639 134.689 189.66 134.812 189.695 134.928C189.728 135.033 189.67 135.145 189.565 135.177C189.545 135.183 189.526 135.186 189.506 135.186Z" fill="#3369FF"/>
<path d="M189.492 147.369C189.407 147.369 189.328 147.314 189.302 147.228C189.256 147.08 189.229 146.922 189.223 146.758L189.151 145.381C189.123 144.708 189.199 144.014 190.419 143.525L196.451 141.656C196.556 141.623 196.667 141.682 196.699 141.787C196.732 141.893 196.673 142.004 196.568 142.037L190.551 143.901C189.583 144.289 189.524 144.772 189.548 145.362L189.62 146.739C189.626 146.871 189.646 146.994 189.682 147.11C189.714 147.215 189.656 147.327 189.551 147.359C189.531 147.366 189.511 147.369 189.492 147.369Z" fill="#3369FF"/>
<path d="M196.492 207.554C196.394 207.554 196.309 207.481 196.295 207.381C193.665 188.137 195.247 130.508 199.682 116.383C199.714 116.278 199.826 116.22 199.931 116.253C200.036 116.286 200.094 116.398 200.061 116.503C195.637 130.593 194.063 188.113 196.689 207.326C196.704 207.436 196.628 207.536 196.519 207.551C196.51 207.553 196.501 207.554 196.492 207.554Z" fill="#3369FF"/>
<path d="M208.149 203.89C208.056 203.89 207.973 203.823 207.954 203.728C205.307 189.961 207.368 152.186 208.046 139.773L208.159 137.686C208.165 137.576 208.262 137.491 208.367 137.497C208.477 137.503 208.561 137.597 208.556 137.707L208.443 139.794C207.766 152.196 205.707 189.933 208.345 203.652C208.365 203.76 208.295 203.865 208.187 203.886C208.174 203.889 208.162 203.89 208.149 203.89Z" fill="#9F36AD"/>
<path d="M213.029 161.846C209.158 163.027 203.188 164.904 200.75 165.968C199.987 166.301 199.473 166.887 199.473 167.548V173.751C199.473 174.412 199.958 174.766 200.617 174.766L213.264 169.218C213.263 169.04 213.263 168.865 213.263 168.696C213.263 167.187 213.175 164.789 213.029 161.846Z" fill="url(#paint37_linear)"/>
<path d="M200.801 174.888C200.734 174.888 200.667 174.853 200.63 174.79C200.526 174.614 200.471 174.408 200.467 174.177L200.356 167.976C200.343 167.253 200.853 166.585 201.721 166.188C203.671 165.294 207.93 163.826 211.159 162.753C211.263 162.718 211.377 162.775 211.411 162.879C211.445 162.984 211.389 163.097 211.285 163.132C206.668 164.667 203.418 165.85 201.886 166.551C201.168 166.88 200.745 167.41 200.754 167.969L200.865 174.17C200.868 174.331 200.904 174.471 200.973 174.587C201.029 174.682 200.998 174.804 200.903 174.861C200.871 174.879 200.836 174.888 200.801 174.888Z" fill="#9F36AD"/>
<path d="M203.485 173.708C203.375 173.708 203.286 173.618 203.286 173.508V169.095C203.286 168.316 203.933 167.721 204.574 167.478L204.925 167.343C205.727 167.03 206.938 166.559 207.793 166.485C208.162 166.454 208.481 166.55 208.715 166.767C208.955 166.987 209.086 167.321 209.086 167.709V171.138C209.086 171.248 208.997 171.337 208.888 171.337C208.778 171.337 208.689 171.248 208.689 171.138V167.709C208.689 167.431 208.605 167.206 208.447 167.061C208.296 166.921 208.08 166.862 207.827 166.883C207.029 166.952 205.849 167.411 205.069 167.715L204.715 167.851C204.201 168.046 203.683 168.506 203.683 169.095V173.508C203.683 173.618 203.594 173.708 203.485 173.708Z" fill="#3369FF"/>
<path d="M190.324 110.756C191.144 109.933 194.51 110.283 198.147 109.692C202.241 109.026 204.047 108.411 204.313 107.497C204.646 106.349 203.053 105.035 203.053 105.035C203.053 105.035 206.699 107.164 206.633 108.095C206.567 109.026 204.313 115.147 204.313 115.147C204.313 115.147 200.004 117.209 196.954 118.539C193.904 119.869 190.921 121.865 189.993 121.4C189.064 120.934 189.197 111.887 190.324 110.756Z" fill="url(#paint38_linear)"/>
<path d="M190.813 121.388C190.568 120.242 190.519 119.093 190.487 117.946C190.467 116.798 190.491 115.65 190.599 114.504C190.655 113.931 190.727 113.359 190.852 112.788C190.917 112.504 190.991 112.219 191.113 111.936C191.177 111.795 191.247 111.653 191.372 111.518C191.495 111.392 191.648 111.307 191.786 111.246C192.358 111.01 192.93 110.944 193.5 110.868C194.07 110.8 194.638 110.755 195.206 110.712C196.341 110.627 197.474 110.555 198.596 110.417C199.715 110.276 200.831 110.06 201.919 109.763C202.461 109.61 202.998 109.435 203.51 109.21C204.013 108.984 204.532 108.716 204.856 108.307C205.183 107.9 205.026 107.307 204.765 106.834C204.5 106.349 204.138 105.904 203.744 105.502C203.729 105.488 203.728 105.465 203.742 105.45C203.754 105.436 203.777 105.435 203.791 105.446C204.239 105.807 204.643 106.225 204.953 106.726C205.107 106.976 205.227 107.255 205.276 107.56C205.326 107.86 205.272 108.217 205.072 108.467C204.682 108.96 204.144 109.224 203.624 109.468C203.096 109.704 202.549 109.887 201.998 110.047C200.894 110.357 199.773 110.583 198.637 110.735C197.502 110.883 196.365 110.964 195.233 111.057C194.667 111.105 194.102 111.154 193.544 111.224C192.99 111.3 192.42 111.38 191.937 111.586C191.687 111.692 191.564 111.829 191.459 112.087C191.356 112.329 191.286 112.6 191.227 112.871C191.112 113.416 191.045 113.978 190.994 114.541C190.898 115.667 190.865 116.804 190.887 117.938C190.917 119.068 190.968 120.213 191.201 121.3L191.202 121.304C191.225 121.412 191.157 121.518 191.049 121.541C190.942 121.565 190.836 121.496 190.813 121.388Z" fill="#3369FF"/>
<path d="M199.572 117.676C199.552 117.676 199.531 117.673 199.511 117.666C199.406 117.632 199.349 117.52 199.383 117.415C199.951 115.66 201.584 110.03 201.6 109.974C201.63 109.868 201.74 109.806 201.847 109.838C201.953 109.869 202.013 109.979 201.982 110.085C201.966 110.142 200.331 115.778 199.762 117.538C199.734 117.623 199.656 117.676 199.572 117.676Z" fill="#3369FF"/>
<path d="M220.654 172.251C220.65 171.841 220.47 157.328 219.164 148.673C217.689 138.906 212.931 120.335 210.114 118.739C208.681 117.927 203.674 122.398 203.584 132.641C203.517 140.225 206.098 146.279 207.76 153.129C209.318 159.547 212.106 169.846 212.534 172.686C212.548 172.781 212.56 172.866 212.574 172.956C214.452 172.289 218.074 172.059 220.654 172.251Z" fill="url(#paint39_linear)"/>
<path d="M217.029 161.342L217.49 165.694L220.477 165.536L220.322 161.943C220.322 161.943 219.437 161.306 217.029 161.342Z" fill="url(#paint40_linear)"/>
<path fill-rule="evenodd" clip-rule="evenodd" d="M217.292 165.715C217.303 165.817 217.389 165.893 217.49 165.893C217.494 165.893 217.497 165.893 217.5 165.894L220.488 165.736C220.597 165.731 220.681 165.638 220.676 165.528L220.521 161.935C220.518 161.873 220.487 161.817 220.438 161.781C220.401 161.755 219.521 161.141 217.224 161.141L217.026 161.142C216.971 161.143 216.918 161.168 216.881 161.21C216.843 161.252 216.826 161.307 216.832 161.363L217.292 165.715ZM217.668 165.484L217.25 161.54C219.014 161.544 219.878 161.926 220.127 162.06L220.269 165.348L217.668 165.484Z" fill="#3369FF"/>
<path d="M215.981 184.494C216.809 184.228 216.528 180.652 216.528 180.652C216.528 180.652 217.1 180.952 217.945 182.698C218.791 184.444 220.218 187.453 221.003 187.138C221.5 186.938 221.401 185.508 221.401 185.508C221.401 185.508 222.097 185.442 222.246 184.095C222.412 182.594 222.445 178.357 221.749 175.663C221.052 172.969 220.655 172.271 220.655 172.271C220.655 172.271 220.655 172.257 220.654 172.251C218.074 172.059 214.452 172.289 212.574 172.957C213.031 176.009 213.083 176.685 213.356 178.258C213.755 180.56 215.213 184.74 215.981 184.494Z" fill="url(#paint41_linear)"/>
<path d="M220.354 181.752C220.725 182.318 220.972 182.935 221.164 183.564C221.352 184.195 221.469 184.844 221.512 185.499C221.517 185.56 221.47 185.614 221.408 185.619C221.348 185.623 221.295 185.578 221.288 185.518C221.218 184.884 221.076 184.26 220.867 183.661C220.656 183.064 220.389 182.48 220.027 181.98C219.962 181.891 219.982 181.766 220.07 181.701C220.159 181.636 220.283 181.656 220.348 181.744C220.35 181.746 220.353 181.75 220.354 181.752Z" fill="#B75334"/>
<path d="M216.698 178.559C216.638 178.689 216.621 178.881 216.606 179.063C216.593 179.248 216.59 179.438 216.591 179.627C216.593 180.006 216.614 180.388 216.642 180.77C216.647 180.828 216.603 180.879 216.545 180.884C216.49 180.888 216.441 180.848 216.432 180.794C216.373 180.412 216.321 180.029 216.287 179.64C216.27 179.446 216.258 179.251 216.255 179.052C216.258 178.853 216.25 178.651 216.325 178.42L216.327 178.414C216.362 178.308 216.474 178.251 216.579 178.285C216.683 178.319 216.741 178.432 216.707 178.537C216.704 178.545 216.701 178.552 216.698 178.559Z" fill="#B75334"/>
<path d="M217.848 172.398C217.846 172.398 217.845 172.398 217.844 172.398C217.735 172.396 217.647 172.305 217.649 172.194C217.779 164.41 213.2 129.204 206.349 121.441C206.276 121.359 206.284 121.233 206.367 121.16C206.448 121.087 206.574 121.094 206.647 121.177C213.556 129.006 218.177 164.384 218.047 172.201C218.045 172.311 217.956 172.398 217.848 172.398Z" fill="#3369FF"/>
<path d="M157.877 91.755C157.877 92.9123 156.951 93.8505 155.809 93.8505H143.35C142.207 93.8505 141.281 92.9123 141.281 91.755V87.0399C141.281 85.8825 142.207 84.9443 143.35 84.9443H155.809C156.951 84.9443 157.877 85.8825 157.877 87.0399V91.755Z" fill="url(#paint42_linear)"/>
<path d="M155.346 89.8678C155.346 91.0109 154.422 91.9376 153.283 91.9376H145.876C144.737 91.9376 143.813 91.0109 143.813 89.8678V88.9897C143.813 87.8466 144.737 86.9199 145.876 86.9199H153.283C154.422 86.9199 155.346 87.8466 155.346 88.9897V89.8678Z" fill="url(#paint43_linear)"/>
<path d="M153.283 86.9199H148.337C149.476 86.9199 150.4 87.8466 150.4 88.9897V89.8678C150.4 91.0109 149.476 91.9376 148.337 91.9376H153.283C154.422 91.9376 155.346 91.0109 155.346 89.8678V88.9897C155.346 87.8466 154.422 86.9199 153.283 86.9199Z" fill="url(#paint44_linear)"/>
<path d="M149.58 102.224C151.798 102.224 153.596 101.756 153.596 101.179C153.596 100.601 151.798 100.134 149.58 100.134C147.362 100.134 145.563 100.601 145.563 101.179C145.563 101.756 147.362 102.224 149.58 102.224Z" fill="url(#paint45_linear)"/>
<path d="M149.58 101.486C150.633 101.486 151.487 101.264 151.487 100.99C151.487 100.716 150.633 100.494 149.58 100.494C148.527 100.494 147.673 100.716 147.673 100.99C147.673 101.264 148.527 101.486 149.58 101.486Z" fill="#FDE1A7"/>
<path d="M144.336 94.1329H143.344C142.051 94.1329 141 93.0778 141 91.7809V91.4045H141.563V91.7809C141.563 92.7664 142.362 93.5684 143.344 93.5684H144.336V94.1329Z" fill="#FDE1A7"/>
<path d="M155.815 94.1326H154.744V93.5681H155.815C156.797 93.5681 157.596 92.7662 157.596 91.7806V91.4043H158.159V91.7806C158.159 93.0776 157.107 94.1326 155.815 94.1326Z" fill="#FDE1A7"/>
<path d="M141.563 87.4231H141V87.0153C141 85.7183 142.051 84.6633 143.344 84.6633H144.336V85.2278H143.344C142.362 85.2278 141.563 86.0297 141.563 87.0153V87.4231Z" fill="#FDE1A7"/>
<path d="M158.159 87.4219H157.596V87.0141C157.596 86.0285 156.797 85.2266 155.815 85.2266H154.744V84.6621H155.815C157.107 84.6621 158.159 85.7171 158.159 87.0141V87.4219Z" fill="#FDE1A7"/>
<path d="M156.292 93.8469H142.805L147.673 100.991H151.482L156.292 93.8469Z" fill="url(#paint46_linear)"/>
<defs>
<filter id="filter0_d" x="175.149" y="91.3672" width="26.3575" height="20.8311" filterUnits="userSpaceOnUse" color-interpolation-filters="sRGB">
<feFlood flood-opacity="0" result="BackgroundImageFix"/>
<feColorMatrix in="SourceAlpha" type="matrix" values="0 0 0 0 0 0 0 0 0 0 0 0 0 0 0 0 0 0 127 0"/>
<feOffset dy="4"/>
<feGaussianBlur stdDeviation="2"/>
<feColorMatrix type="matrix" values="0 0 0 0 0 0 0 0 0 0 0 0 0 0 0 0 0 0 0.25 0"/>
<feBlend mode="normal" in2="BackgroundImageFix" result="effect1_dropShadow"/>
<feBlend mode="normal" in="SourceGraphic" in2="effect1_dropShadow" result="shape"/>
</filter>
<linearGradient id="paint0_linear" x1="276.807" y1="279.25" x2="276.807" y2="163.627" gradientUnits="userSpaceOnUse">
<stop stop-color="#F77F89"/>
<stop offset="0.203125" stop-color="#F77F89"/>
<stop offset="0.6044" stop-color="#F27E75"/>
<stop offset="0.8545" stop-color="#EE6E64"/>
<stop offset="1" stop-color="#F77F89"/>
</linearGradient>
<linearGradient id="paint1_linear" x1="194.482" y1="201.935" x2="226.554" y2="263.519" gradientUnits="userSpaceOnUse">
<stop stop-color="#F77F89"/>
<stop offset="0.166667" stop-color="#F77F89"/>
<stop offset="0.4727" stop-color="#F77F89"/>
<stop offset="0.7916" stop-color="#F77F89"/>
<stop offset="1" stop-color="#F77F89"/>
</linearGradient>
<linearGradient id="paint2_linear" x1="235.516" y1="224.042" x2="258.968" y2="224.042" gradientUnits="userSpaceOnUse">
<stop stop-color="#3A64D3"/>
<stop offset="1" stop-color="#043753"/>
</linearGradient>
<linearGradient id="paint3_linear" x1="226.656" y1="212.533" x2="246.402" y2="212.533" gradientUnits="userSpaceOnUse">
<stop stop-color="#3A64D3"/>
<stop offset="1" stop-color="#043753"/>
</linearGradient>
<linearGradient id="paint4_linear" x1="246.266" y1="234.854" x2="269.283" y2="234.854" gradientUnits="userSpaceOnUse">
<stop stop-color="#3A64D3"/>
<stop offset="1" stop-color="#043753"/>
</linearGradient>
<linearGradient id="paint5_linear" x1="216.179" y1="202.971" x2="235.685" y2="202.971" gradientUnits="userSpaceOnUse">
<stop stop-color="#3A64D3"/>
<stop offset="1" stop-color="#043753"/>
</linearGradient>
<radialGradient id="paint6_radial" cx="0" cy="0" r="1" gradientUnits="userSpaceOnUse" gradientTransform="translate(193.271 247.627) scale(41.7414 10.9583)">
<stop stop-color="#231F20"/>
<stop offset="0.1225" stop-color="#242228"/>
<stop offset="0.3171" stop-color="#25293F"/>
<stop offset="0.5596" stop-color="#283665"/>
<stop offset="0.8377" stop-color="#2C4799"/>
<stop offset="1" stop-color="#2E52BA"/>
</radialGradient>
<linearGradient id="paint7_linear" x1="155.141" y1="59.1188" x2="178.514" y2="74.5278" gradientUnits="userSpaceOnUse">
<stop stop-color="#C91C91"/>
<stop offset="1" stop-color="#FE6A77"/>
</linearGradient>
<linearGradient id="paint8_linear" x1="135.279" y1="104.895" x2="151.741" y2="122.747" gradientUnits="userSpaceOnUse">
<stop stop-color="#00FFFF"/>
<stop offset="0.082" stop-color="#25ECED"/>
<stop offset="0.2106" stop-color="#58D1D4"/>
<stop offset="0.3417" stop-color="#84BBBF"/>
<stop offset="0.4729" stop-color="#A8A8AD"/>
<stop offset="0.6041" stop-color="#C49A9F"/>
<stop offset="0.7354" stop-color="#D88F96"/>
<stop offset="0.8672" stop-color="#E48990"/>
<stop offset="1" stop-color="#E8878E"/>
</linearGradient>
<linearGradient id="paint9_linear" x1="154.801" y1="139.022" x2="176.922" y2="139.022" gradientUnits="userSpaceOnUse">
<stop stop-color="#7D59D0"/>
<stop offset="1" stop-color="#7C18A1"/>
</linearGradient>
<linearGradient id="paint10_linear" x1="154.917" y1="121.896" x2="160.507" y2="121.896" gradientUnits="userSpaceOnUse">
<stop stop-color="#3369FF"/>
<stop offset="1" stop-color="#7C18A1"/>
</linearGradient>
<linearGradient id="paint11_linear" x1="176.831" y1="114.534" x2="205.624" y2="114.534" gradientUnits="userSpaceOnUse">
<stop stop-color="#042637"/>
<stop offset="1" stop-color="#2335E0"/>
</linearGradient>
<linearGradient id="paint12_linear" x1="182.767" y1="114.595" x2="198.148" y2="114.595" gradientUnits="userSpaceOnUse">
<stop stop-color="#00C4C8"/>
<stop offset="0.0173" stop-color="#07C2C6"/>
<stop offset="0.1706" stop-color="#42B3B8"/>
<stop offset="0.3234" stop-color="#75A5AB"/>
<stop offset="0.4725" stop-color="#9E9AA0"/>
<stop offset="0.617" stop-color="#BE9298"/>
<stop offset="0.7558" stop-color="#D58C93"/>
<stop offset="0.8863" stop-color="#E3888F"/>
<stop offset="1" stop-color="#E8878E"/>
</linearGradient>
<radialGradient id="paint13_radial" cx="0" cy="0" r="1" gradientUnits="userSpaceOnUse" gradientTransform="translate(193.842 93.1475) rotate(-67.9372) scale(21.449 18.9927)">
<stop stop-color="#E8878E"/>
<stop offset="0.1328" stop-color="#E48990"/>
<stop offset="0.2646" stop-color="#D88F96"/>
<stop offset="0.3959" stop-color="#C49A9F"/>
<stop offset="0.5271" stop-color="#A8A8AD"/>
<stop offset="0.6583" stop-color="#84BBBF"/>
<stop offset="0.7894" stop-color="#58D1D4"/>
<stop offset="0.918" stop-color="#25ECED"/>
<stop offset="1" stop-color="#00FFFF"/>
</radialGradient>
<linearGradient id="paint14_linear" x1="190.309" y1="96.3165" x2="205.437" y2="84.4906" gradientUnits="userSpaceOnUse">
<stop stop-color="#3369FF"/>
<stop offset="0.1191" stop-color="#305DDB"/>
<stop offset="0.3562" stop-color="#2C4799"/>
<stop offset="0.5713" stop-color="#283665"/>
<stop offset="0.7571" stop-color="#25293F"/>
<stop offset="0.9062" stop-color="#242228"/>
<stop offset="1" stop-color="#231F20"/>
</linearGradient>
<linearGradient id="paint15_linear" x1="180.348" y1="96.0546" x2="187.15" y2="96.0546" gradientUnits="userSpaceOnUse">
<stop stop-color="#FF57BD"/>
<stop offset="1" stop-color="#DD8A91"/>
</linearGradient>
<linearGradient id="paint16_linear" x1="197.021" y1="96.6473" x2="203.323" y2="96.6473" gradientUnits="userSpaceOnUse">
<stop stop-color="#994574"/>
<stop offset="1" stop-color="#43256F"/>
</linearGradient>
<linearGradient id="paint17_linear" x1="205.688" y1="227.417" x2="205.688" y2="158.557" gradientUnits="userSpaceOnUse">
<stop stop-color="#042637"/>
<stop offset="1" stop-color="#2335E0"/>
</linearGradient>
<linearGradient id="paint18_linear" x1="172.25" y1="161.185" x2="197.475" y2="161.185" gradientUnits="userSpaceOnUse">
<stop stop-color="#C91C91"/>
<stop offset="1" stop-color="#FE6A77"/>
</linearGradient>
<linearGradient id="paint19_linear" x1="171.706" y1="162.423" x2="197.383" y2="162.423" gradientUnits="userSpaceOnUse">
<stop stop-color="#FE6A77"/>
<stop offset="1" stop-color="#FF57BD"/>
</linearGradient>
<linearGradient id="paint20_linear" x1="180.903" y1="115.833" x2="192.886" y2="115.833" gradientUnits="userSpaceOnUse">
<stop stop-color="#FE6A77"/>
<stop offset="1" stop-color="#FF57BD"/>
</linearGradient>
<linearGradient id="paint21_linear" x1="167.317" y1="240.198" x2="183.231" y2="252.052" gradientUnits="userSpaceOnUse">
<stop stop-color="#05C5DA"/>
<stop offset="1" stop-color="#5860C4"/>
</linearGradient>
<linearGradient id="paint22_linear" x1="195.833" y1="250.926" x2="215.29" y2="250.926" gradientUnits="userSpaceOnUse">
<stop stop-color="#05C5DA"/>
<stop offset="1" stop-color="#5860C4"/>
</linearGradient>
<linearGradient id="paint23_linear" x1="198.188" y1="250.926" x2="215.29" y2="250.926" gradientUnits="userSpaceOnUse">
<stop stop-color="#A281FF"/>
<stop offset="1" stop-color="#FF57BD"/>
</linearGradient>
<linearGradient id="paint24_linear" x1="169.168" y1="248.029" x2="187.674" y2="248.029" gradientUnits="userSpaceOnUse">
<stop stop-color="#A281FF"/>
<stop offset="1" stop-color="#FF57BD"/>
</linearGradient>
<linearGradient id="paint25_linear" x1="199.855" y1="233.719" x2="205.464" y2="233.719" gradientUnits="userSpaceOnUse">
<stop stop-color="#8C6AE2"/>
<stop offset="1" stop-color="#5A55F8"/>
</linearGradient>
<linearGradient id="paint26_linear" x1="199.846" y1="237.079" x2="205.502" y2="237.079" gradientUnits="userSpaceOnUse">
<stop stop-color="#8C6AE2"/>
<stop offset="1" stop-color="#5A55F8"/>
</linearGradient>
<linearGradient id="paint27_linear" x1="199.846" y1="240.795" x2="205.712" y2="240.795" gradientUnits="userSpaceOnUse">
<stop stop-color="#8C6AE2"/>
<stop offset="1" stop-color="#5A55F8"/>
</linearGradient>
<linearGradient id="paint28_linear" x1="179.426" y1="233.636" x2="183.138" y2="233.636" gradientUnits="userSpaceOnUse">
<stop stop-color="#5A55F8"/>
<stop offset="1" stop-color="#8C6AE2"/>
</linearGradient>
<linearGradient id="paint29_linear" x1="179.711" y1="238.365" x2="183.138" y2="238.365" gradientUnits="userSpaceOnUse">
<stop stop-color="#5A55F8"/>
<stop offset="1" stop-color="#8C6AE2"/>
</linearGradient>
<linearGradient id="paint30_linear" x1="160.093" y1="204.766" x2="180.181" y2="204.766" gradientUnits="userSpaceOnUse">
<stop stop-color="#7C18A1"/>
<stop offset="1" stop-color="#042637"/>
</linearGradient>
<linearGradient id="paint31_linear" x1="171.855" y1="144.337" x2="175.729" y2="144.337" gradientUnits="userSpaceOnUse">
<stop stop-color="#7D59D0"/>
<stop offset="1" stop-color="#7C18A1"/>
</linearGradient>
<linearGradient id="paint32_linear" x1="173.658" y1="131.418" x2="177.215" y2="131.418" gradientUnits="userSpaceOnUse">
<stop stop-color="#7D59D0"/>
<stop offset="1" stop-color="#7C18A1"/>
</linearGradient>
<linearGradient id="paint33_linear" x1="174.56" y1="117.743" x2="183.523" y2="117.743" gradientUnits="userSpaceOnUse">
<stop stop-color="#7D59D0"/>
<stop offset="1" stop-color="#7C18A1"/>
</linearGradient>
<linearGradient id="paint34_linear" x1="191.422" y1="207.84" x2="213.793" y2="207.84" gradientUnits="userSpaceOnUse">
<stop stop-color="#7C18A1"/>
<stop offset="1" stop-color="#042637"/>
</linearGradient>
<linearGradient id="paint35_linear" x1="188.63" y1="135.007" x2="197.782" y2="135.007" gradientUnits="userSpaceOnUse">
<stop stop-color="#7D59D0"/>
<stop offset="1" stop-color="#7C18A1"/>
</linearGradient>
<linearGradient id="paint36_linear" x1="188.616" y1="147.189" x2="196.511" y2="147.189" gradientUnits="userSpaceOnUse">
<stop stop-color="#7D59D0"/>
<stop offset="1" stop-color="#7C18A1"/>
</linearGradient>
<linearGradient id="paint37_linear" x1="199.473" y1="174.765" x2="213.264" y2="174.765" gradientUnits="userSpaceOnUse">
<stop stop-color="#7C1DA5"/>
<stop offset="1" stop-color="#3C2068"/>
</linearGradient>
<linearGradient id="paint38_linear" x1="189.378" y1="121.468" x2="206.634" y2="121.468" gradientUnits="userSpaceOnUse">
<stop stop-color="#7C18A1"/>
<stop offset="1" stop-color="#042637"/>
</linearGradient>
<linearGradient id="paint39_linear" x1="203.583" y1="172.956" x2="220.654" y2="172.956" gradientUnits="userSpaceOnUse">
<stop stop-color="#7D59D0"/>
<stop offset="1" stop-color="#7C18A1"/>
</linearGradient>
<linearGradient id="paint40_linear" x1="217.029" y1="165.694" x2="220.477" y2="165.694" gradientUnits="userSpaceOnUse">
<stop stop-color="#3369FF"/>
<stop offset="1" stop-color="#7C18A1"/>
</linearGradient>
<linearGradient id="paint41_linear" x1="212.574" y1="187.161" x2="222.346" y2="187.161" gradientUnits="userSpaceOnUse">
<stop stop-color="#C16846"/>
<stop offset="0.2653" stop-color="#D27565"/>
<stop offset="0.5308" stop-color="#DE7F7B"/>
<stop offset="0.7814" stop-color="#E58589"/>
<stop offset="1" stop-color="#E8878E"/>
</linearGradient>
<linearGradient id="paint42_linear" x1="157.877" y1="93.8505" x2="157.877" y2="84.9443" gradientUnits="userSpaceOnUse">
<stop stop-color="#00FFFF" stop-opacity="0.25"/>
<stop offset="0.0854" stop-color="#09FEFC" stop-opacity="0.2713"/>
<stop offset="0.2247" stop-color="#21FBF3" stop-opacity="0.3062"/>
<stop offset="0.4008" stop-color="#49F6E6" stop-opacity="0.3502"/>
<stop offset="0.6066" stop-color="#80F0D2" stop-opacity="0.4016"/>
<stop offset="0.8345" stop-color="#C6E8BA" stop-opacity="0.4586"/>
<stop offset="1" stop-color="#FDE1A7" stop-opacity="0.5"/>
</linearGradient>
<linearGradient id="paint43_linear" x1="155.346" y1="91.9376" x2="155.346" y2="86.9199" gradientUnits="userSpaceOnUse">
<stop stop-color="#E9B3F2"/>
<stop offset="1" stop-color="#F9F7FF"/>
</linearGradient>
<linearGradient id="paint44_linear" x1="155.346" y1="91.9376" x2="155.346" y2="86.9199" gradientUnits="userSpaceOnUse">
<stop stop-color="#E367F2"/>
<stop offset="1" stop-color="#00E2EC"/>
</linearGradient>
<linearGradient id="paint45_linear" x1="153.596" y1="102.224" x2="153.596" y2="100.134" gradientUnits="userSpaceOnUse">
<stop stop-color="#FE6A77"/>
<stop offset="1" stop-color="#C91C91"/>
</linearGradient>
<linearGradient id="paint46_linear" x1="156.292" y1="100.991" x2="156.292" y2="93.8468" gradientUnits="userSpaceOnUse">
<stop stop-color="#00FFFF" stop-opacity="0.25"/>
<stop offset="0.0854" stop-color="#09FEFC" stop-opacity="0.2713"/>
<stop offset="0.2247" stop-color="#21FBF3" stop-opacity="0.3062"/>
<stop offset="0.4008" stop-color="#49F6E6" stop-opacity="0.3502"/>
<stop offset="0.6066" stop-color="#80F0D2" stop-opacity="0.4016"/>
<stop offset="0.8345" stop-color="#C6E8BA" stop-opacity="0.4586"/>
<stop offset="1" stop-color="#FDE1A7" stop-opacity="0.5"/>
</linearGradient>
</defs>
</svg>
