<svg width="375" height="495" viewBox="0 0 375 495" fill="none" xmlns="http://www.w3.org/2000/svg">
<path d="M166.813 284.897C198.292 296.408 203.201 312.412 224.065 317.811C255.091 325.841 324.136 321.421 328.302 352.441C330.646 369.894 317.942 379.996 293.44 386.431C273.487 391.671 251.193 392.241 246.08 402.931C240.16 415.306 260.551 423.061 257.262 438.901C253.705 456.035 214.2 465.087 172.408 460.681C127.022 455.896 89.3349 443.113 87.2793 418.604C86.0749 404.251 80.1103 403.116 73.2483 377.521C71.5 371 77.0259 378.947 63.0001 358C52.7105 342.633 54.7871 317.829 66.9191 302.301C87.2214 276.317 128.004 270.707 166.813 284.897Z" fill="url(#paint0_linear)"/>
<path d="M328.302 352.441C324.748 325.975 273.97 325.306 239.867 320.694L299.055 384.82C319.86 378.339 330.46 368.505 328.302 352.441Z" fill="url(#paint1_linear)"/>
<path d="M309.14 381.044L244.078 321.236C237.678 320.45 231.743 319.572 226.647 318.431H226.646L286.47 388.079C288.804 387.576 291.137 387.036 293.44 386.431C299.386 384.87 304.63 383.09 309.14 381.044Z" fill="#3369FF"/>
<path d="M279.738 352.772H260.295L276.284 370.482H299.076L279.738 352.772Z" fill="url(#paint2_linear)"/>
<path d="M259.104 351.451H278.297L262.016 336.542H245.645L259.104 351.451Z" fill="url(#paint3_linear)"/>
<path d="M278.071 372.462L291.194 386.998C291.945 386.814 292.694 386.627 293.44 386.431C299.82 384.755 305.392 382.828 310.116 380.59L301.239 372.462H278.071Z" fill="url(#paint4_linear)"/>
<path d="M244.453 335.223H260.574L245.487 321.407C239.882 320.735 234.606 320.006 229.901 319.104L244.453 335.223Z" fill="url(#paint5_linear)"/>
<path opacity="0.4" d="M232.595 399.631C211.668 404.208 182.306 402.413 171.751 401.611C161.195 400.81 126.528 396.826 124.062 410.521C122.128 421.258 137.217 430.816 161.555 431.311C190.593 431.902 226.927 419.488 253.47 423.611C248.829 416.48 242.416 410.59 246.079 402.931C247.174 400.643 249.06 398.821 251.538 397.315C246.348 397.315 240.109 397.988 232.595 399.631Z" fill="url(#paint6_radial)"/>
<path d="M175.205 91.4098C175.205 80.2921 166.223 71.2798 155.142 71.2798C144.062 71.2798 135.08 80.2921 135.08 91.4098C135.08 102.527 144.062 111.54 155.142 111.54C155.48 111.54 155.816 111.531 156.15 111.514L164.243 120.78V109.348C170.747 106.019 175.205 99.2387 175.205 91.4098Z" fill="url(#paint7_linear)"/>
<path fill-rule="evenodd" clip-rule="evenodd" d="M162.579 88.0104C162.881 87.1597 163.032 86.206 163.032 85.1486C163.032 84.1303 162.871 83.1634 162.551 82.2506C162.23 81.3358 161.725 80.5234 161.038 79.8145C160.35 79.1063 159.467 78.542 158.388 78.1229C157.309 77.7045 156.012 77.4946 154.495 77.4946C153.827 77.4946 153.185 77.5461 152.568 77.6491C151.951 77.752 151.393 77.8781 150.891 78.0259C150.39 78.1738 149.96 78.3355 149.6 78.509C149.24 78.6826 148.996 78.8344 148.868 78.9631C148.74 79.0925 148.656 79.2601 148.617 79.466C148.579 79.672 148.56 80.0006 148.56 80.4521C148.56 80.8903 148.575 81.252 148.608 81.5351C148.639 81.8189 148.681 82.0381 148.733 82.1925C148.784 82.3469 148.848 82.4532 148.925 82.5113C149.002 82.5694 149.086 82.5984 149.176 82.5984C149.304 82.5984 149.488 82.5337 149.725 82.405C149.963 82.2763 150.261 82.1344 150.621 81.9793C150.981 81.8242 151.411 81.6823 151.912 81.5536C152.413 81.4249 152.992 81.3602 153.647 81.3602C154.366 81.3602 154.992 81.4599 155.525 81.6599C156.058 81.8605 156.502 82.147 156.855 82.5205C157.208 82.8941 157.471 83.3389 157.645 83.8544C157.818 84.3698 157.905 84.9368 157.905 85.5559C157.905 86.1103 157.832 86.6323 157.684 87.122C157.536 87.6124 157.301 88.0381 156.98 88.3985C156.659 88.7595 156.252 89.0492 155.757 89.2684C155.262 89.4875 154.674 89.597 153.993 89.597H153.724C153.442 89.597 153.197 89.6267 152.992 89.6842C152.786 89.7416 152.616 89.8478 152.481 90.0029C152.346 90.158 152.253 90.364 152.202 90.622C152.15 90.8801 152.131 91.2147 152.144 91.6272L152.317 96.1904C152.33 96.3323 152.375 96.4485 152.452 96.5383C152.53 96.628 152.652 96.6993 152.819 96.7508C152.986 96.8023 153.214 96.8379 153.503 96.857C153.792 96.8762 154.148 96.8861 154.572 96.8861C155.241 96.8861 155.751 96.828 156.104 96.7118C156.458 96.5957 156.64 96.4221 156.654 96.1898L156.807 92.4192C157.733 92.3162 158.578 92.078 159.342 91.7038C160.106 91.3295 160.761 90.8339 161.307 90.2148C161.853 89.5957 162.278 88.8611 162.579 88.0104ZM157.203 103.053C157.286 102.693 157.328 102.248 157.328 101.719C157.328 101.178 157.286 100.724 157.203 100.356C157.119 99.9889 156.971 99.6925 156.76 99.4668C156.548 99.2417 156.266 99.0807 155.912 98.9837C155.558 98.8867 155.124 98.8385 154.611 98.8385C154.071 98.8385 153.628 98.8873 153.281 98.9837C152.935 99.08 152.655 99.2417 152.443 99.4668C152.231 99.6925 152.083 99.9895 152 100.356C151.916 100.723 151.875 101.178 151.875 101.719C151.875 102.248 151.916 102.693 152 103.053C152.083 103.414 152.231 103.704 152.443 103.923C152.655 104.143 152.935 104.3 153.281 104.397C153.628 104.494 154.071 104.542 154.611 104.542C155.125 104.542 155.559 104.494 155.912 104.397C156.265 104.3 156.548 104.143 156.76 103.923C156.971 103.704 157.119 103.414 157.203 103.053Z" fill="#FDE1A7"/>
<path d="M136.012 176.881C132.394 169.18 131.299 168.411 128.119 165.331C124.939 162.25 122.625 159.87 121.979 160.161C121.123 160.546 121.322 162.801 122.034 164.726C122.747 166.651 123.952 167.641 123.952 167.641C123.952 167.641 121.815 167.421 117.266 165.386C112.716 163.351 108.989 160.161 108.221 160.931C107.453 161.701 108.988 164.341 108.988 164.341C108.988 164.341 107.763 163.557 107.453 164.451C107.304 164.883 108.006 166.374 108.605 167.311C109.15 168.165 110.632 169.676 110.632 169.676C110.632 169.676 110.304 170.336 111.181 171.766C112.058 173.196 116.169 177.376 120.445 179.398C123.649 180.913 126.968 181.172 126.968 181.172C126.968 181.172 126.698 184.791 126.82 190.746C129.813 190.337 134.761 189.266 139.255 186.72C138.201 182.76 137.078 179.15 136.012 176.881Z" fill="url(#paint8_linear)"/>
<path d="M109.122 164.242C109.388 164.578 109.735 164.878 110.072 165.175C110.414 165.469 110.766 165.753 111.124 166.03C111.84 166.582 112.577 167.116 113.334 167.585C113.489 167.679 113.539 167.882 113.445 168.038C113.351 168.194 113.149 168.244 112.993 168.149C112.988 168.146 112.979 168.141 112.974 168.137C112.213 167.599 111.504 167.017 110.81 166.413C110.464 166.111 110.124 165.802 109.793 165.481C109.465 165.155 109.133 164.837 108.853 164.439C108.8 164.363 108.818 164.259 108.894 164.206C108.966 164.155 109.066 164.169 109.12 164.238L109.122 164.242Z" fill="#1AA9E8"/>
<path d="M110.535 169.538C110.625 169.465 110.786 169.353 110.94 169.315C111.093 169.269 111.255 169.254 111.408 169.27C111.716 169.296 111.989 169.402 112.245 169.518C112.754 169.764 113.216 170.025 113.687 170.34C114.142 170.656 114.562 171.002 114.99 171.313C115.411 171.617 115.868 171.922 116.281 171.99L116.296 171.992C116.476 172.022 116.597 172.192 116.568 172.372C116.539 172.551 116.369 172.674 116.19 172.644C116.182 172.643 116.174 172.642 116.166 172.64C115.511 172.482 115.076 172.109 114.64 171.773C114.21 171.427 113.811 171.064 113.394 170.743C112.983 170.436 112.514 170.14 112.063 169.894C111.608 169.656 111.112 169.497 110.73 169.812C110.659 169.871 110.552 169.861 110.494 169.789C110.435 169.717 110.445 169.611 110.517 169.552C110.517 169.552 110.517 169.552 110.517 169.552L110.535 169.538Z" fill="#1AA9E8"/>
<path d="M123.989 167.525C125.266 167.827 126.489 168.418 127.595 169.13L127.602 169.134C127.755 169.232 127.8 169.437 127.701 169.59C127.602 169.744 127.399 169.789 127.246 169.69C127.236 169.684 127.227 169.677 127.218 169.67C126.219 168.866 125.134 168.187 123.916 167.754C123.853 167.732 123.82 167.663 123.843 167.6C123.864 167.541 123.925 167.509 123.984 167.522L123.989 167.525Z" fill="#1AA9E8"/>
<path d="M162.819 188.91C161.995 186.121 158.76 185.791 158.76 185.791C157.17 187.771 143.906 207.681 143.906 207.681C143.906 207.681 141.778 196.193 139.256 186.718C134.762 189.264 129.814 190.336 126.821 190.744C126.921 195.537 127.274 201.842 128.23 209.001C130.23 223.988 133.106 229.092 136.561 229.791C140.508 230.588 149.607 226.491 157.172 221.321C164.736 216.151 163.643 191.698 162.819 188.91Z" fill="url(#paint9_linear)"/>
<path d="M139.024 223.414C138.505 223.414 138.078 223.281 137.764 222.993C132.458 218.138 131.1 191.004 131.045 189.852C131.036 189.67 131.176 189.515 131.357 189.507C131.559 189.496 131.693 189.639 131.701 189.821C131.715 190.1 133.1 217.833 138.207 222.506C140.771 224.858 155.08 212.811 164.069 204.142C164.198 204.016 164.408 204.019 164.534 204.151C164.659 204.283 164.656 204.492 164.524 204.618C162.381 206.685 144.852 223.414 139.024 223.414Z" fill="#3369FF"/>
<path d="M136.228 197.719L135.779 195.424C135.614 194.58 134.798 194.029 133.956 194.195C133.956 194.195 130.06 195.408 127.012 195.859C127.106 197.645 127.234 199.549 127.41 201.571C130.267 201.416 135.001 199.549 135.001 199.549C135.844 199.384 136.393 198.565 136.228 197.719Z" fill="url(#paint10_linear)"/>
<path fill-rule="evenodd" clip-rule="evenodd" d="M127.084 201.599C127.098 201.77 127.242 201.9 127.411 201.9H127.43C130.306 201.745 134.927 199.934 135.065 199.874C135.559 199.777 135.985 199.492 136.266 199.074C136.546 198.655 136.648 198.152 136.551 197.656L136.102 195.361C135.929 194.477 135.153 193.835 134.257 193.835C134.137 193.835 134.015 193.847 133.859 193.879C133.821 193.891 129.953 195.091 126.965 195.531C126.798 195.556 126.676 195.705 126.685 195.875C126.786 197.797 126.92 199.723 127.084 201.599ZM127.71 201.218C127.568 199.55 127.45 197.844 127.357 196.139C130.347 195.66 134.014 194.522 134.017 194.519C134.69 194.383 135.328 194.835 135.456 195.488L135.905 197.783C135.968 198.105 135.901 198.433 135.719 198.706C135.536 198.978 135.259 199.163 134.881 199.243C134.836 199.261 130.505 200.958 127.71 201.218Z" fill="#3369FF"/>
<path d="M207.07 174.111C204.805 171.846 201.023 169.289 193.869 167.226C186.716 165.164 165.996 167.144 163.612 172.836C161.227 178.529 171.122 186.824 179.494 188.781C187.866 190.739 208.368 188.099 210.807 179.849C211.406 177.821 207.07 174.111 207.07 174.111Z" fill="url(#paint11_linear)"/>
<path d="M195.432 163.569C194.363 167.144 197.296 181.829 198.502 186.009C195.021 188.677 190.127 189.82 183.921 189.419C176.274 188.924 173.067 185.899 173.067 185.899C173.067 185.899 177.425 180.757 178.439 170.499C179.337 161.411 195.432 163.569 195.432 163.569Z" fill="url(#paint12_linear)"/>
<path d="M198.429 158.477C201.786 153.902 205.531 146.286 199.598 137.993C196.254 133.318 189.508 131.29 185.812 131.668C176.777 132.592 175.206 137.443 175.206 137.443C171.039 142.008 164.681 163.018 173.396 169.783C180.894 175.604 190.361 168.668 193.8 164.469C194.452 165.005 195.285 165.327 196.193 165.327C198.282 165.327 199.974 163.628 199.974 161.532C199.974 160.277 199.365 159.168 198.429 158.477Z" fill="url(#paint13_radial)"/>
<path d="M196.638 141.844C194.203 141.897 186.949 145.058 185.689 142.848C184.441 140.661 189.312 138.144 188.402 136.578C187.292 134.667 183.501 136.715 180.385 138.145C176.52 139.919 173.788 139.826 170.025 135.876C166.448 132.122 166.297 127.544 168.298 126.059C170.64 124.322 173.286 124.849 174.835 125.77C176.401 126.702 178.471 129.363 180.262 128.08C181.892 126.911 179.913 123.806 182.235 122.717C184.551 121.631 188.552 123.24 190.608 126.003C192.664 128.767 192.714 129.758 195.966 130.225C200.283 130.844 208.777 133.251 209.246 144.483C209.629 153.669 203.62 157.234 201.434 158.614C199.249 159.994 201.768 150.426 201.188 146.628C200.9 144.745 199.16 141.789 196.638 141.844Z" fill="url(#paint14_linear)"/>
<path d="M180.194 148.829C179.549 148.505 175.918 150.589 173.506 152.513C171.342 154.241 168.787 155.186 169.091 156.353C169.395 157.519 173.616 158.839 173.616 158.839C173.616 158.839 174.449 156.524 176.521 154.054C178.713 151.441 180.852 149.159 180.194 148.829Z" fill="url(#paint15_linear)"/>
<path d="M175.055 165.725C174.852 165.725 174.633 165.703 174.396 165.652C172.182 165.178 171.29 162.33 171.452 161C171.474 160.819 171.639 160.687 171.819 160.712C171.999 160.734 172.128 160.899 172.105 161.079C171.984 162.073 172.665 164.606 174.533 165.007C176.026 165.325 176.384 164.257 176.399 164.212C176.454 164.038 176.636 163.939 176.812 163.998C176.985 164.053 177.081 164.239 177.026 164.412C176.866 164.912 176.265 165.725 175.055 165.725Z" fill="#9F36AD"/>
<path d="M184.287 156.021C183.686 156.721 182.633 156.798 181.937 156.194C181.239 155.589 181.162 154.533 181.764 153.835L184.436 150.73C185.038 150.03 186.091 149.953 186.787 150.557C187.485 151.162 187.561 152.218 186.96 152.916L184.287 156.021Z" fill="#212F66"/>
<path d="M183.257 154.825C183.036 155.083 182.649 155.111 182.393 154.889C182.137 154.668 182.109 154.28 182.33 154.022L183.312 152.881C183.533 152.624 183.919 152.595 184.175 152.818C184.432 153.039 184.46 153.428 184.238 153.685L183.257 154.825Z" fill="#00E2EC"/>
<path d="M174.997 149.365C174.408 150.051 173.377 150.126 172.696 149.535C172.013 148.944 171.937 147.91 172.527 147.225L175.143 144.186C175.732 143.501 176.763 143.425 177.444 144.016C178.127 144.608 178.203 145.642 177.613 146.326L174.997 149.365Z" fill="#212F66"/>
<path d="M173.989 148.195C173.772 148.447 173.393 148.475 173.142 148.258C172.892 148.04 172.864 147.661 173.08 147.409L174.042 146.291C174.259 146.04 174.637 146.012 174.888 146.229C175.139 146.447 175.167 146.827 174.95 147.079L173.989 148.195Z" fill="#00E2EC"/>
<path d="M207.052 149.434C206.696 140.786 196.638 141.844 196.638 141.844C196.638 141.844 198.309 143.013 198.885 146.794C199.573 151.306 198.274 155.777 197.188 157.877C198.226 158.161 199.084 158.875 199.562 159.819C201.72 158.585 207.277 154.87 207.052 149.434Z" fill="url(#paint16_linear)"/>
<g filter="url(#filter0_d)">
<path fill-rule="evenodd" clip-rule="evenodd" d="M169.184 152.674C170.374 150.692 173.121 151.001 174.401 151.33C178.737 152.276 180.669 156.535 185.2 158.922C185.656 159.165 187.016 159.752 187.72 159.883C191.227 160.679 193.611 156.232 197.185 156.75C197.573 157.097 197.479 157.695 197.185 157.667C193.677 157.338 189.518 161.658 187.102 160.57C185.405 164.019 185.26 168.286 186.516 171.317C180.752 173.902 171.786 171.131 168.114 166.346C166.141 164.321 167.29 155.829 169.184 152.674Z" fill="white"/>
</g>
<path d="M210.523 375.489C210.473 365.984 210.45 355.973 210.45 351.01C210.45 340.12 211.546 304.589 210.56 294.58C209.573 284.57 207.271 265.1 207.271 265.1C207.271 265.1 188.542 267.386 177.002 266.495C164.625 265.54 158.535 262.195 158.535 262.195C158.379 265.004 157.253 292.967 158.668 309.389C160.531 330.994 164.628 361.01 166.587 374.632C169.244 375.602 174.93 376.523 180.514 375.126C180.93 360.417 181.62 340.575 181.836 333.63C182.165 323.07 183.701 304.59 183.701 304.59C183.701 304.59 187.647 331.319 189.84 344.41C191.179 352.407 193.132 365.08 194.674 375.516C198.185 376.141 204.486 376.353 210.523 375.489Z" fill="url(#paint17_linear)"/>
<path d="M155.936 260.134C158.312 262.541 166.669 269.37 196.927 265.245C195.886 254.685 192.69 232.54 193.567 224.071C194.444 215.601 197.389 188.142 197.389 188.142C197.389 188.142 187.428 190.52 179.754 188.87C172.079 187.22 168.681 184.141 168.681 184.141C168.681 184.141 162.377 198.331 158.431 225.721C154.484 253.111 155.936 260.134 155.936 260.134Z" fill="url(#paint18_linear)"/>
<path d="M176.191 266.795C176.018 266.795 175.874 266.661 175.863 266.485C175.201 255.995 178.474 198.172 179.427 188.836C179.445 188.655 179.606 188.523 179.787 188.541C179.968 188.56 180.1 188.722 180.081 188.903C179.129 198.229 175.859 255.975 176.52 266.443C176.531 266.625 176.394 266.782 176.212 266.793C176.205 266.795 176.198 266.795 176.191 266.795Z" fill="#FFA2BA"/>
<path d="M184.082 307.503C183.923 307.503 183.782 307.386 183.758 307.222C183.458 305.212 183.048 302.212 182.652 299.312C182.089 295.179 181.449 290.494 181.309 290.104C181.107 289.578 177.581 286.366 176.065 285.13C175.924 285.015 175.902 284.808 176.017 284.666C176.132 284.524 176.338 284.502 176.48 284.618C177.222 285.223 181.607 289.023 181.924 289.873C182.079 290.288 182.549 293.696 183.304 299.223C183.7 302.122 184.109 305.119 184.408 307.125C184.435 307.305 184.311 307.473 184.132 307.5C184.115 307.502 184.099 307.503 184.082 307.503Z" fill="#212F66"/>
<path d="M157.095 258.975C159.314 261.147 162.479 262.402 165.72 263.209C168.988 264.007 172.415 264.354 175.853 264.472C182.746 264.684 189.715 263.997 196.618 262.955L197.237 267.533C190.12 268.377 182.917 268.868 175.659 268.418C172.034 268.178 168.39 267.702 164.804 266.707C163.012 266.204 161.236 265.568 159.526 264.707C157.825 263.851 156.153 262.735 154.776 261.291L157.095 258.975Z" fill="url(#paint19_linear)"/>
<path d="M172.867 183.99C172.879 184.007 173.15 184.222 173.406 184.378C173.673 184.547 173.97 184.713 174.277 184.87C174.892 185.185 175.55 185.466 176.221 185.715C177.568 186.21 178.978 186.573 180.403 186.807C183.257 187.276 186.182 187.216 189 186.65L189.799 191.2C186.423 191.731 182.958 191.651 179.629 190.957C177.965 190.61 176.332 190.117 174.752 189.458C173.961 189.126 173.184 188.756 172.416 188.32C172.031 188.102 171.65 187.868 171.262 187.6C170.87 187.313 170.491 187.068 169.984 186.491L172.867 183.99Z" fill="url(#paint20_linear)"/>
<path fill-rule="evenodd" clip-rule="evenodd" d="M175.639 268.748C177.471 268.861 179.382 268.919 181.318 268.919C186.121 268.919 191.192 268.583 197.276 267.861C197.363 267.851 197.444 267.806 197.498 267.737C197.551 267.667 197.576 267.577 197.563 267.49L196.944 262.912C196.933 262.824 196.886 262.746 196.816 262.692C196.746 262.64 196.657 262.616 196.57 262.63C189.556 263.689 183.778 264.182 178.39 264.182C177.547 264.182 176.704 264.169 175.865 264.143C172.002 264.011 168.709 263.6 165.8 262.889C161.978 261.94 159.206 260.581 157.325 258.74C157.195 258.613 156.99 258.615 156.863 258.742L154.546 261.059C154.418 261.185 154.416 261.391 154.54 261.521C155.814 262.856 157.443 264.028 159.379 265.003C160.966 265.801 162.712 266.463 164.717 267.025C167.943 267.921 171.413 268.468 175.639 268.748ZM159.674 264.412C157.917 263.528 156.428 262.481 155.24 261.294L157.1 259.435C159.059 261.247 161.857 262.587 165.642 263.529C168.596 264.251 171.933 264.668 175.842 264.802C176.69 264.827 177.539 264.841 178.389 264.841C183.726 264.841 189.437 264.361 196.336 263.331L196.866 267.244C190.956 267.936 186.006 268.259 181.318 268.259C179.395 268.259 177.499 268.201 175.681 268.089C171.502 267.812 168.074 267.272 164.893 266.389C162.93 265.839 161.222 265.192 159.674 264.412Z" fill="#FFA2BA"/>
<path fill-rule="evenodd" clip-rule="evenodd" d="M179.564 191.281C181.459 191.676 183.413 191.876 185.371 191.876C186.867 191.876 188.374 191.758 189.853 191.527C189.941 191.513 190.019 191.464 190.07 191.392C190.121 191.321 190.141 191.231 190.126 191.144L189.327 186.594C189.312 186.506 189.262 186.429 189.189 186.378C189.115 186.328 189.024 186.31 188.939 186.327C186.151 186.887 183.242 186.939 180.459 186.481C179.021 186.245 177.636 185.883 176.337 185.405C175.641 185.147 174.998 184.868 174.428 184.576C174.12 184.418 173.836 184.258 173.579 184.096C173.459 184.022 173.334 183.934 173.248 183.874C173.187 183.83 173.145 183.801 173.14 183.801L173.139 183.802C173.086 183.725 173.003 183.674 172.91 183.662C172.819 183.651 172.724 183.678 172.653 183.74L169.771 186.241C169.705 186.298 169.664 186.38 169.658 186.468C169.652 186.556 169.681 186.642 169.74 186.708C170.207 187.241 170.572 187.505 170.924 187.76L170.927 187.762L171.077 187.871C171.445 188.125 171.83 188.366 172.256 188.608C172.982 189.02 173.758 189.397 174.627 189.762C176.179 190.41 177.839 190.921 179.564 191.281ZM171.311 187.227C171.036 187.028 170.773 186.838 170.459 186.517L172.877 184.418C173.022 184.523 173.177 184.624 173.233 184.658C173.502 184.828 173.804 184.998 174.128 185.164C174.722 185.468 175.388 185.758 176.11 186.025C177.446 186.518 178.874 186.891 180.351 187.134C183.103 187.586 185.975 187.553 188.736 187.039L189.419 190.925C186.189 191.391 182.857 191.293 179.698 190.634C178.015 190.283 176.393 189.785 174.881 189.153C174.036 188.799 173.283 188.433 172.579 188.034C172.171 187.802 171.801 187.571 171.458 187.334L171.311 187.227Z" fill="#FFA2BA"/>
<path d="M166.588 374.633C166.731 375.629 166.863 376.544 166.983 377.356C168.403 387.067 169.054 391.346 168.572 392.811C165.544 402.023 151.179 404.086 150.703 405.681C150.291 407.056 150.988 408.558 151.771 409.118C154.485 411.057 173.723 409.74 176.247 409.311C179.316 408.788 181.125 407.551 181.18 406.561C181.223 405.792 180.303 398.2 180.193 391.381C180.156 389.046 180.298 382.781 180.514 375.127C174.931 376.524 169.245 375.603 166.588 374.633Z" fill="url(#paint21_linear)"/>
<path d="M199.049 404.91C199.816 407.33 201.296 407.551 203.927 408.815C206.559 410.08 217.906 415.304 222.346 414.92C226.786 414.535 226.895 413.27 226.84 412.17C226.786 411.07 224.1 408.155 220.263 405.24C216.425 402.325 211.108 398.75 210.834 397.925C210.685 397.476 210.585 386.843 210.524 375.489C204.486 376.354 198.185 376.141 194.674 375.516C195.656 382.161 196.472 387.901 196.856 390.94C197.843 398.75 198.282 402.49 199.049 404.91Z" fill="url(#paint22_linear)"/>
<path d="M203.928 408.815C206.559 410.08 217.906 415.304 222.346 414.92C226.786 414.535 226.895 413.27 226.841 412.17C226.829 411.943 226.701 411.635 226.479 411.271C225.518 411.967 223.617 412.832 220.372 412.39C212.987 411.387 199.919 404.831 198.567 403.019C198.718 403.737 198.875 404.36 199.049 404.91C199.816 407.33 201.297 407.551 203.928 408.815Z" fill="url(#paint23_linear)"/>
<path d="M151.771 409.118C154.485 411.057 173.723 409.741 176.247 409.311C179.316 408.788 181.125 407.551 181.18 406.561C181.193 406.344 181.127 405.585 181.027 404.453C179.282 405.251 175.724 406.546 169.778 407.303C159.747 408.582 151.812 407.056 150.703 405.681C150.291 407.056 150.988 408.558 151.771 409.118Z" fill="url(#paint24_linear)"/>
<path d="M210.599 386.485C210.587 385.169 210.576 383.783 210.566 382.346H205.751C203.405 382.346 201.488 384.173 201.325 386.485H210.599Z" fill="url(#paint25_linear)"/>
<path d="M210.663 392.04C210.647 390.881 210.631 389.587 210.617 388.19H201.311V392.04H210.663Z" fill="url(#paint26_linear)"/>
<path d="M210.689 393.745H201.311C201.32 396.199 203.304 398.186 205.753 398.186H211.009C210.923 398.084 210.857 397.992 210.834 397.925C210.78 397.76 210.731 396.207 210.689 393.745Z" fill="url(#paint27_linear)"/>
<path d="M173.68 386.348V384.84C173.68 382.822 172.05 381.187 170.041 381.187H167.542C167.835 383.202 168.077 384.903 168.265 386.348H173.68Z" fill="url(#paint28_linear)"/>
<path d="M168.478 388.081C168.767 390.598 168.816 392.07 168.572 392.811C168.417 393.283 168.225 393.732 168.014 394.167H170.04C172.05 394.167 173.68 392.532 173.68 390.515V388.081H168.478Z" fill="url(#paint29_linear)"/>
<path d="M168.792 187.33C166.699 193.815 163.372 210.442 161.775 228.03C160.067 246.844 159.089 256.795 158.925 281.71C158.703 315.384 162.576 337.581 162.214 338.36C161.638 339.597 149.058 335.94 144.125 333.3C139.192 330.66 135.574 327.36 135.574 327.36C135.574 327.36 142.152 283.14 146.427 257.4C150.703 231.66 157.28 207.24 157.774 200.475C158.267 193.71 158.76 185.79 158.76 185.79C158.76 185.79 160.734 183.48 164.352 183.975C167.969 184.47 168.792 187.33 168.792 187.33Z" fill="url(#paint30_linear)"/>
<path d="M155.15 230.346L155.03 232.628C154.986 233.721 155.116 234.658 156.815 235.84L160.708 238.68C160.947 236.449 161.19 234.14 161.43 231.687L157.201 228.448C155.938 227.865 155.194 229.253 155.15 230.346Z" fill="url(#paint31_linear)"/>
<path d="M160.177 208.263C158.596 207.653 158.17 209.069 158.126 210.161L158.006 212.443C157.962 213.536 158.447 214.224 159.897 215.188L162.962 217.317C163.253 215.085 163.562 212.903 163.885 210.793L160.177 208.263Z" fill="url(#paint32_linear)"/>
<path d="M163.611 172.837C163.447 179.272 172.985 179.85 174.054 181.28C175.605 183.356 169.888 194.92 168.134 194.7C166.379 194.48 163.329 189.307 161.967 187.852C160.692 186.491 159.418 185.047 159.5 184.222C159.583 183.397 162.193 174.679 163.611 172.837Z" fill="url(#paint33_linear)"/>
<path d="M166.589 194.04C166.51 194.04 166.43 194.011 166.366 193.953C166.233 193.829 166.224 193.621 166.347 193.486C169.261 190.307 172.57 184.49 171.836 183.117C171.64 182.753 170.637 182.236 169.574 181.689C166.672 180.193 162.287 177.934 162.662 173.565C162.678 173.383 162.845 173.249 163.018 173.264C163.199 173.28 163.333 173.44 163.317 173.621C162.98 177.548 167.129 179.686 169.875 181.101C171.18 181.774 172.123 182.259 172.414 182.805C173.47 184.777 169.399 191.13 166.831 193.932C166.767 194.004 166.678 194.04 166.589 194.04Z" fill="#3369FF"/>
<path d="M193.705 195.113C192.883 198.33 188.626 230.513 187.757 263.561C186.89 296.56 187.626 341.456 188.854 343.2C190.17 345.071 202.394 341.165 210.342 338.58C217.879 336.128 224.374 332.2 224.374 332.2C224.374 332.2 223.497 293.921 223.497 278.96C223.497 264 218.289 196.35 218.289 196.35C218.289 196.35 213.613 190.428 205.627 189.255C197.642 188.082 193.705 195.113 193.705 195.113Z" fill="url(#paint34_linear)"/>
<path d="M197.898 211.092L184.661 216.29C182.879 217.003 182.726 217.942 182.77 219.034L182.889 221.316C182.934 222.408 183.592 223.466 184.941 223.214L197.113 217.961C197.363 215.566 197.624 213.273 197.898 211.092Z" fill="url(#paint35_linear)"/>
<path d="M195.796 232.978L184.638 236.435C182.856 237.148 182.703 238.087 182.747 239.18L182.867 241.461C182.911 242.553 183.57 243.611 184.919 243.359L195.334 239.735C195.479 237.443 195.634 235.188 195.796 232.978Z" fill="url(#paint36_linear)"/>
<path d="M184.212 223.548C184.071 223.548 183.942 223.457 183.897 223.315C183.822 223.07 183.778 222.809 183.767 222.539L183.647 220.261C183.602 219.149 183.727 218 185.744 217.192L197.471 212.588C197.641 212.521 197.831 212.605 197.897 212.775C197.963 212.946 197.88 213.136 197.711 213.203L185.987 217.806C184.363 218.456 184.264 219.254 184.304 220.231L184.423 222.508C184.432 222.725 184.466 222.93 184.525 223.121C184.579 223.295 184.482 223.48 184.309 223.533C184.277 223.543 184.244 223.548 184.212 223.548Z" fill="#3369FF"/>
<path d="M184.188 243.694C184.048 243.694 183.918 243.603 183.874 243.461C183.798 243.216 183.754 242.954 183.743 242.684L183.624 240.407C183.579 239.295 183.704 238.146 185.721 237.338L195.696 234.246C195.869 234.193 196.053 234.29 196.107 234.464C196.161 234.638 196.063 234.823 195.89 234.877L185.94 237.959C184.34 238.6 184.241 239.399 184.281 240.375L184.4 242.653C184.409 242.87 184.443 243.075 184.502 243.265C184.556 243.44 184.459 243.624 184.286 243.678C184.254 243.689 184.221 243.694 184.188 243.694Z" fill="#3369FF"/>
<path d="M195.764 343.217C195.602 343.217 195.461 343.097 195.439 342.932C191.089 311.109 193.705 215.811 201.038 192.455C201.092 192.282 201.277 192.185 201.451 192.239C201.624 192.294 201.72 192.48 201.665 192.653C194.35 215.952 191.747 311.069 196.09 342.842C196.115 343.022 195.989 343.189 195.809 343.213C195.794 343.216 195.779 343.217 195.764 343.217Z" fill="#3369FF"/>
<path d="M215.04 337.159C214.887 337.159 214.749 337.049 214.718 336.891C210.341 314.125 213.749 251.66 214.869 231.134L215.056 227.682C215.066 227.501 215.227 227.359 215.402 227.37C215.583 227.38 215.722 227.535 215.713 227.717L215.526 231.169C214.407 251.675 211.002 314.08 215.364 336.766C215.398 336.945 215.282 337.118 215.104 337.153C215.082 337.157 215.062 337.159 215.04 337.159Z" fill="#9F36AD"/>
<path d="M223.111 267.634C216.71 269.587 206.838 272.69 202.805 274.45C201.544 275.001 200.694 275.97 200.694 277.063V287.32C200.694 288.414 201.496 288.998 202.586 288.998L223.499 279.825C223.498 279.53 223.498 279.24 223.498 278.961C223.498 276.466 223.352 272.501 223.111 267.634Z" fill="url(#paint37_linear)"/>
<path d="M202.89 289.201C202.778 289.201 202.668 289.143 202.606 289.039C202.434 288.747 202.344 288.406 202.337 288.025L202.154 277.77C202.133 276.575 202.976 275.471 204.41 274.814C207.636 273.336 214.678 270.909 220.018 269.133C220.19 269.075 220.377 269.17 220.434 269.343C220.491 269.515 220.397 269.702 220.225 269.76C212.591 272.299 207.217 274.255 204.684 275.415C203.496 275.958 202.796 276.835 202.812 277.759L202.996 288.014C203 288.279 203.06 288.511 203.174 288.703C203.267 288.859 203.215 289.062 203.058 289.156C203.005 289.185 202.947 289.201 202.89 289.201Z" fill="#9F36AD"/>
<path d="M207.327 287.248C207.145 287.248 206.998 287.101 206.998 286.918V279.621C206.998 278.332 208.068 277.349 209.129 276.947L209.709 276.723C211.035 276.207 213.038 275.427 214.451 275.305C215.061 275.254 215.589 275.413 215.977 275.77C216.373 276.135 216.59 276.688 216.59 277.328V282.999C216.59 283.181 216.443 283.329 216.262 283.329C216.08 283.329 215.933 283.181 215.933 282.999V277.328C215.933 276.869 215.794 276.498 215.533 276.257C215.283 276.026 214.926 275.927 214.508 275.962C213.188 276.077 211.237 276.836 209.947 277.338L209.361 277.564C208.512 277.886 207.655 278.647 207.655 279.621V286.918C207.656 287.101 207.508 287.248 207.327 287.248Z" fill="#3369FF"/>
<path d="M185.565 183.15C186.921 181.789 192.487 182.367 198.501 181.39C205.27 180.289 208.258 179.272 208.697 177.76C209.247 175.863 206.614 173.689 206.614 173.689C206.614 173.689 212.643 177.21 212.534 178.75C212.424 180.289 208.697 190.41 208.697 190.41C208.697 190.41 201.571 193.82 196.528 196.02C191.485 198.22 186.552 201.52 185.017 200.75C183.482 199.981 183.701 185.02 185.565 183.15Z" fill="url(#paint38_linear)"/>
<path d="M186.374 200.732C185.969 198.836 185.888 196.937 185.834 195.039C185.8 193.142 185.84 191.243 186.019 189.348C186.112 188.4 186.231 187.454 186.438 186.511C186.545 186.04 186.668 185.568 186.869 185.101C186.974 184.868 187.09 184.633 187.297 184.411C187.501 184.201 187.753 184.061 187.983 183.96C188.927 183.571 189.874 183.46 190.816 183.334C191.759 183.222 192.699 183.148 193.638 183.077C195.515 182.937 197.388 182.817 199.244 182.589C201.094 182.357 202.94 181.999 204.738 181.507C205.635 181.255 206.522 180.965 207.37 180.594C208.201 180.22 209.059 179.777 209.595 179.1C210.135 178.428 209.877 177.446 209.444 176.665C209.006 175.863 208.407 175.127 207.756 174.461C207.732 174.438 207.73 174.4 207.752 174.375C207.773 174.352 207.81 174.351 207.834 174.369C208.575 174.966 209.243 175.658 209.755 176.486C210.01 176.899 210.209 177.361 210.29 177.866C210.373 178.361 210.283 178.951 209.952 179.364C209.307 180.18 208.419 180.616 207.557 181.02C206.684 181.41 205.781 181.713 204.87 181.977C203.044 182.491 201.189 182.864 199.311 183.115C197.435 183.36 195.554 183.494 193.682 183.648C192.747 183.726 191.812 183.808 190.889 183.924C189.974 184.049 189.03 184.182 188.233 184.522C187.818 184.697 187.614 184.924 187.442 185.351C187.272 185.751 187.156 186.199 187.058 186.647C186.868 187.548 186.757 188.478 186.672 189.408C186.514 191.271 186.459 193.15 186.495 195.026C186.545 196.895 186.63 198.788 187.014 200.586L187.016 200.593C187.055 200.771 186.941 200.946 186.764 200.985C186.587 201.024 186.412 200.91 186.374 200.732Z" fill="#3369FF"/>
<path d="M200.858 194.593C200.824 194.593 200.79 194.587 200.757 194.577C200.584 194.521 200.49 194.335 200.545 194.161C201.484 191.259 204.184 181.95 204.211 181.856C204.261 181.68 204.442 181.579 204.619 181.632C204.794 181.682 204.894 181.865 204.843 182.041C204.816 182.135 202.112 191.454 201.171 194.365C201.126 194.504 200.997 194.593 200.858 194.593Z" fill="#3369FF"/>
<path d="M235.719 284.84C235.711 284.161 235.414 260.164 233.254 245.85C230.816 229.7 222.948 198.99 218.288 196.35C215.918 195.008 207.64 202.401 207.49 219.34C207.38 231.88 211.648 241.892 214.397 253.22C216.973 263.832 221.583 280.863 222.29 285.56C222.314 285.716 222.334 285.857 222.357 286.007C225.463 284.902 231.453 284.522 235.719 284.84Z" fill="url(#paint39_linear)"/>
<path d="M229.725 266.801L230.486 273.996L235.426 273.736L235.169 267.794C235.169 267.794 233.705 266.741 229.725 266.801Z" fill="url(#paint40_linear)"/>
<path fill-rule="evenodd" clip-rule="evenodd" d="M230.16 274.032C230.178 274.201 230.319 274.327 230.487 274.327C230.493 274.327 230.499 274.327 230.504 274.327L235.444 274.067C235.624 274.058 235.764 273.904 235.756 273.723L235.499 267.781C235.494 267.679 235.443 267.585 235.361 267.527C235.301 267.483 233.846 266.468 230.046 266.468L229.72 266.471C229.629 266.472 229.54 266.513 229.479 266.582C229.417 266.651 229.389 266.743 229.398 266.836L230.16 274.032ZM230.781 273.651L230.09 267.128C233.007 267.135 234.437 267.766 234.848 267.987L235.083 273.424L230.781 273.651Z" fill="#3369FF"/>
<path d="M227.991 305.085C229.361 304.645 228.895 298.733 228.895 298.733C228.895 298.733 229.842 299.228 231.239 302.116C232.637 305.003 234.997 309.978 236.295 309.458C237.117 309.128 236.953 306.763 236.953 306.763C236.953 306.763 238.104 306.653 238.351 304.425C238.626 301.944 238.68 294.938 237.528 290.483C236.377 286.028 235.72 284.873 235.72 284.873C235.72 284.873 235.72 284.85 235.719 284.84C231.453 284.522 225.463 284.902 222.357 286.007C223.113 291.055 223.199 292.172 223.651 294.774C224.31 298.58 226.72 305.493 227.991 305.085Z" fill="url(#paint41_linear)"/>
<path d="M235.223 300.552C235.836 301.488 236.244 302.508 236.561 303.548C236.872 304.59 237.067 305.665 237.138 306.746C237.145 306.849 237.067 306.938 236.965 306.945C236.865 306.952 236.779 306.877 236.767 306.779C236.65 305.731 236.415 304.698 236.07 303.707C235.722 302.721 235.28 301.755 234.682 300.928C234.574 300.781 234.607 300.575 234.753 300.467C234.9 300.36 235.105 300.392 235.212 300.538C235.216 300.542 235.22 300.548 235.223 300.552Z" fill="#B75334"/>
<path d="M229.176 295.271C229.078 295.487 229.048 295.803 229.024 296.105C229.003 296.411 228.998 296.724 228.999 297.037C229.003 297.664 229.038 298.296 229.084 298.927C229.092 299.023 229.019 299.107 228.923 299.115C228.832 299.123 228.751 299.057 228.737 298.967C228.639 298.336 228.552 297.702 228.496 297.059C228.469 296.739 228.448 296.415 228.444 296.087C228.448 295.757 228.436 295.424 228.559 295.042L228.563 295.031C228.62 294.856 228.805 294.761 228.979 294.817C229.152 294.874 229.247 295.06 229.191 295.235C229.186 295.248 229.181 295.259 229.176 295.271Z" fill="#B75334"/>
<path d="M231.077 285.082C231.075 285.082 231.073 285.082 231.071 285.082C230.89 285.079 230.745 284.929 230.748 284.747C230.963 271.873 223.391 213.655 212.063 200.82C211.942 200.683 211.956 200.474 212.092 200.354C212.227 200.234 212.434 200.245 212.555 200.382C223.981 213.328 231.622 271.83 231.406 284.758C231.403 284.939 231.257 285.082 231.077 285.082Z" fill="#3369FF"/>
<path d="M131.909 151.729C131.909 153.643 130.378 155.194 128.488 155.194H107.886C105.997 155.194 104.465 153.643 104.465 151.729V143.932C104.465 142.018 105.997 140.467 107.886 140.467H128.488C130.378 140.467 131.909 142.018 131.909 143.932V151.729Z" fill="url(#paint42_linear)"/>
<path d="M127.723 148.608C127.723 150.499 126.196 152.031 124.312 152.031H112.063C110.179 152.031 108.652 150.499 108.652 148.608V147.156C108.652 145.266 110.179 143.734 112.063 143.734H124.312C126.196 143.734 127.723 145.266 127.723 147.156V148.608Z" fill="url(#paint43_linear)"/>
<path d="M124.312 143.734H116.133C118.017 143.734 119.544 145.266 119.544 147.156V148.608C119.544 150.499 118.017 152.031 116.133 152.031H124.312C126.196 152.031 127.723 150.499 127.723 148.608V147.156C127.723 145.266 126.196 143.734 124.312 143.734Z" fill="url(#paint44_linear)"/>
<path d="M118.187 169.04C121.855 169.04 124.829 168.267 124.829 167.312C124.829 166.358 121.855 165.584 118.187 165.584C114.519 165.584 111.546 166.358 111.546 167.312C111.546 168.267 114.519 169.04 118.187 169.04Z" fill="url(#paint45_linear)"/>
<path d="M118.188 167.821C119.929 167.821 121.341 167.454 121.341 167.001C121.341 166.548 119.929 166.18 118.188 166.18C116.446 166.18 115.034 166.548 115.034 167.001C115.034 167.454 116.446 167.821 118.188 167.821Z" fill="#FDE1A7"/>
<path d="M109.517 155.661H107.876C105.739 155.661 104 153.916 104 151.772V151.149H104.93V151.772C104.93 153.401 106.252 154.728 107.876 154.728H109.517V155.661Z" fill="#FDE1A7"/>
<path d="M128.498 155.661H126.728V154.727H128.498C130.123 154.727 131.444 153.401 131.444 151.771V151.149H132.375V151.771C132.375 153.916 130.636 155.661 128.498 155.661Z" fill="#FDE1A7"/>
<path d="M104.93 144.565H104V143.891C104 141.746 105.739 140.001 107.876 140.001H109.517V140.935H107.876C106.252 140.935 104.93 142.261 104.93 143.891V144.565Z" fill="#FDE1A7"/>
<path d="M132.375 144.564H131.444V143.889C131.444 142.26 130.123 140.933 128.498 140.933H126.728V140H128.498C130.636 140 132.375 141.745 132.375 143.889V144.564Z" fill="#FDE1A7"/>
<path d="M129.286 155.188H106.985L115.034 167.001H121.333L129.286 155.188Z" fill="url(#paint46_linear)"/>
<defs>
<filter id="filter0_d" x="163.086" y="151.088" width="38.3565" height="29.2179" filterUnits="userSpaceOnUse" color-interpolation-filters="sRGB">
<feFlood flood-opacity="0" result="BackgroundImageFix"/>
<feColorMatrix in="SourceAlpha" type="matrix" values="0 0 0 0 0 0 0 0 0 0 0 0 0 0 0 0 0 0 127 0"/>
<feOffset dy="4"/>
<feGaussianBlur stdDeviation="2"/>
<feColorMatrix type="matrix" values="0 0 0 0 0 0 0 0 0 0 0 0 0 0 0 0 0 0 0.25 0"/>
<feBlend mode="normal" in2="BackgroundImageFix" result="effect1_dropShadow"/>
<feBlend mode="normal" in="SourceGraphic" in2="effect1_dropShadow" result="shape"/>
</filter>
<linearGradient id="paint0_linear" x1="328.574" y1="461.777" x2="328.574" y2="270.579" gradientUnits="userSpaceOnUse">
<stop stop-color="#F77F89"/>
<stop offset="0.203125" stop-color="#F77F89"/>
<stop offset="0.6044" stop-color="#F27E75"/>
<stop offset="0.8545" stop-color="#EE6E64"/>
<stop offset="1" stop-color="#F77F89"/>
</linearGradient>
<linearGradient id="paint1_linear" x1="192.44" y1="333.927" x2="245.475" y2="435.763" gradientUnits="userSpaceOnUse">
<stop stop-color="#F77F89"/>
<stop offset="0.166667" stop-color="#F77F89"/>
<stop offset="0.4727" stop-color="#F77F89"/>
<stop offset="0.7916" stop-color="#F77F89"/>
<stop offset="1" stop-color="#F77F89"/>
</linearGradient>
<linearGradient id="paint2_linear" x1="260.295" y1="370.482" x2="299.076" y2="370.482" gradientUnits="userSpaceOnUse">
<stop stop-color="#3A64D3"/>
<stop offset="1" stop-color="#043753"/>
</linearGradient>
<linearGradient id="paint3_linear" x1="245.644" y1="351.451" x2="278.296" y2="351.451" gradientUnits="userSpaceOnUse">
<stop stop-color="#3A64D3"/>
<stop offset="1" stop-color="#043753"/>
</linearGradient>
<linearGradient id="paint4_linear" x1="278.071" y1="388.362" x2="316.133" y2="388.362" gradientUnits="userSpaceOnUse">
<stop stop-color="#3A64D3"/>
<stop offset="1" stop-color="#043753"/>
</linearGradient>
<linearGradient id="paint5_linear" x1="228.32" y1="335.639" x2="260.574" y2="335.639" gradientUnits="userSpaceOnUse">
<stop stop-color="#3A64D3"/>
<stop offset="1" stop-color="#043753"/>
</linearGradient>
<radialGradient id="paint6_radial" cx="0" cy="0" r="1" gradientUnits="userSpaceOnUse" gradientTransform="translate(190.437 409.484) scale(69.025 18.121)">
<stop stop-color="#231F20"/>
<stop offset="0.1225" stop-color="#242228"/>
<stop offset="0.3171" stop-color="#25293F"/>
<stop offset="0.5596" stop-color="#283665"/>
<stop offset="0.8377" stop-color="#2C4799"/>
<stop offset="1" stop-color="#2E52BA"/>
</radialGradient>
<linearGradient id="paint7_linear" x1="127.385" y1="97.7607" x2="166.034" y2="123.242" gradientUnits="userSpaceOnUse">
<stop stop-color="#C91C91"/>
<stop offset="1" stop-color="#FE6A77"/>
</linearGradient>
<linearGradient id="paint8_linear" x1="94.5393" y1="173.457" x2="121.761" y2="202.978" gradientUnits="userSpaceOnUse">
<stop stop-color="#00FFFF"/>
<stop offset="0.082" stop-color="#25ECED"/>
<stop offset="0.2106" stop-color="#58D1D4"/>
<stop offset="0.3417" stop-color="#84BBBF"/>
<stop offset="0.4729" stop-color="#A8A8AD"/>
<stop offset="0.6041" stop-color="#C49A9F"/>
<stop offset="0.7354" stop-color="#D88F96"/>
<stop offset="0.8672" stop-color="#E48990"/>
<stop offset="1" stop-color="#E8878E"/>
</linearGradient>
<linearGradient id="paint9_linear" x1="126.821" y1="229.891" x2="163.402" y2="229.891" gradientUnits="userSpaceOnUse">
<stop stop-color="#7D59D0"/>
<stop offset="1" stop-color="#7C18A1"/>
</linearGradient>
<linearGradient id="paint10_linear" x1="127.012" y1="201.571" x2="136.257" y2="201.571" gradientUnits="userSpaceOnUse">
<stop stop-color="#3369FF"/>
<stop offset="1" stop-color="#7C18A1"/>
</linearGradient>
<linearGradient id="paint11_linear" x1="163.251" y1="189.397" x2="210.864" y2="189.397" gradientUnits="userSpaceOnUse">
<stop stop-color="#042637"/>
<stop offset="1" stop-color="#2335E0"/>
</linearGradient>
<linearGradient id="paint12_linear" x1="173.067" y1="189.497" x2="198.502" y2="189.497" gradientUnits="userSpaceOnUse">
<stop stop-color="#00C4C8"/>
<stop offset="0.0173" stop-color="#07C2C6"/>
<stop offset="0.1706" stop-color="#42B3B8"/>
<stop offset="0.3234" stop-color="#75A5AB"/>
<stop offset="0.4725" stop-color="#9E9AA0"/>
<stop offset="0.617" stop-color="#BE9298"/>
<stop offset="0.7558" stop-color="#D58C93"/>
<stop offset="0.8863" stop-color="#E3888F"/>
<stop offset="1" stop-color="#E8878E"/>
</linearGradient>
<radialGradient id="paint13_radial" cx="0" cy="0" r="1" gradientUnits="userSpaceOnUse" gradientTransform="translate(191.381 154.031) rotate(-67.9372) scale(35.4688 31.407)">
<stop stop-color="#E8878E"/>
<stop offset="0.1328" stop-color="#E48990"/>
<stop offset="0.2646" stop-color="#D88F96"/>
<stop offset="0.3959" stop-color="#C49A9F"/>
<stop offset="0.5271" stop-color="#A8A8AD"/>
<stop offset="0.6583" stop-color="#84BBBF"/>
<stop offset="0.7894" stop-color="#58D1D4"/>
<stop offset="0.918" stop-color="#25ECED"/>
<stop offset="1" stop-color="#00FFFF"/>
</radialGradient>
<linearGradient id="paint14_linear" x1="185.54" y1="159.272" x2="210.556" y2="139.716" gradientUnits="userSpaceOnUse">
<stop stop-color="#3369FF"/>
<stop offset="0.1191" stop-color="#305DDB"/>
<stop offset="0.3562" stop-color="#2C4799"/>
<stop offset="0.5713" stop-color="#283665"/>
<stop offset="0.7571" stop-color="#25293F"/>
<stop offset="0.9062" stop-color="#242228"/>
<stop offset="1" stop-color="#231F20"/>
</linearGradient>
<linearGradient id="paint15_linear" x1="169.066" y1="158.839" x2="180.315" y2="158.839" gradientUnits="userSpaceOnUse">
<stop stop-color="#FF57BD"/>
<stop offset="1" stop-color="#DD8A91"/>
</linearGradient>
<linearGradient id="paint16_linear" x1="196.638" y1="159.819" x2="207.059" y2="159.819" gradientUnits="userSpaceOnUse">
<stop stop-color="#994574"/>
<stop offset="1" stop-color="#43256F"/>
</linearGradient>
<linearGradient id="paint17_linear" x1="210.971" y1="376.063" x2="210.971" y2="262.195" gradientUnits="userSpaceOnUse">
<stop stop-color="#042637"/>
<stop offset="1" stop-color="#2335E0"/>
</linearGradient>
<linearGradient id="paint18_linear" x1="155.675" y1="266.54" x2="197.388" y2="266.54" gradientUnits="userSpaceOnUse">
<stop stop-color="#C91C91"/>
<stop offset="1" stop-color="#FE6A77"/>
</linearGradient>
<linearGradient id="paint19_linear" x1="154.777" y1="268.588" x2="197.237" y2="268.588" gradientUnits="userSpaceOnUse">
<stop stop-color="#FE6A77"/>
<stop offset="1" stop-color="#FF57BD"/>
</linearGradient>
<linearGradient id="paint20_linear" x1="169.985" y1="191.546" x2="189.8" y2="191.546" gradientUnits="userSpaceOnUse">
<stop stop-color="#FE6A77"/>
<stop offset="1" stop-color="#FF57BD"/>
</linearGradient>
<linearGradient id="paint21_linear" x1="147.519" y1="397.198" x2="173.834" y2="416.802" gradientUnits="userSpaceOnUse">
<stop stop-color="#05C5DA"/>
<stop offset="1" stop-color="#5860C4"/>
</linearGradient>
<linearGradient id="paint22_linear" x1="194.674" y1="414.939" x2="226.848" y2="414.939" gradientUnits="userSpaceOnUse">
<stop stop-color="#05C5DA"/>
<stop offset="1" stop-color="#5860C4"/>
</linearGradient>
<linearGradient id="paint23_linear" x1="198.567" y1="414.94" x2="226.848" y2="414.94" gradientUnits="userSpaceOnUse">
<stop stop-color="#A281FF"/>
<stop offset="1" stop-color="#FF57BD"/>
</linearGradient>
<linearGradient id="paint24_linear" x1="150.581" y1="410.148" x2="181.181" y2="410.148" gradientUnits="userSpaceOnUse">
<stop stop-color="#A281FF"/>
<stop offset="1" stop-color="#FF57BD"/>
</linearGradient>
<linearGradient id="paint25_linear" x1="201.324" y1="386.485" x2="210.599" y2="386.485" gradientUnits="userSpaceOnUse">
<stop stop-color="#8C6AE2"/>
<stop offset="1" stop-color="#5A55F8"/>
</linearGradient>
<linearGradient id="paint26_linear" x1="201.31" y1="392.04" x2="210.663" y2="392.04" gradientUnits="userSpaceOnUse">
<stop stop-color="#8C6AE2"/>
<stop offset="1" stop-color="#5A55F8"/>
</linearGradient>
<linearGradient id="paint27_linear" x1="201.311" y1="398.186" x2="211.01" y2="398.186" gradientUnits="userSpaceOnUse">
<stop stop-color="#8C6AE2"/>
<stop offset="1" stop-color="#5A55F8"/>
</linearGradient>
<linearGradient id="paint28_linear" x1="167.542" y1="386.347" x2="173.68" y2="386.347" gradientUnits="userSpaceOnUse">
<stop stop-color="#5A55F8"/>
<stop offset="1" stop-color="#8C6AE2"/>
</linearGradient>
<linearGradient id="paint29_linear" x1="168.014" y1="394.167" x2="173.68" y2="394.167" gradientUnits="userSpaceOnUse">
<stop stop-color="#5A55F8"/>
<stop offset="1" stop-color="#8C6AE2"/>
</linearGradient>
<linearGradient id="paint30_linear" x1="135.574" y1="338.608" x2="168.792" y2="338.608" gradientUnits="userSpaceOnUse">
<stop stop-color="#7C18A1"/>
<stop offset="1" stop-color="#042637"/>
</linearGradient>
<linearGradient id="paint31_linear" x1="155.024" y1="238.679" x2="161.429" y2="238.679" gradientUnits="userSpaceOnUse">
<stop stop-color="#7D59D0"/>
<stop offset="1" stop-color="#7C18A1"/>
</linearGradient>
<linearGradient id="paint32_linear" x1="158.004" y1="217.317" x2="163.886" y2="217.317" gradientUnits="userSpaceOnUse">
<stop stop-color="#7D59D0"/>
<stop offset="1" stop-color="#7C18A1"/>
</linearGradient>
<linearGradient id="paint33_linear" x1="159.496" y1="194.703" x2="174.318" y2="194.703" gradientUnits="userSpaceOnUse">
<stop stop-color="#7D59D0"/>
<stop offset="1" stop-color="#7C18A1"/>
</linearGradient>
<linearGradient id="paint34_linear" x1="187.38" y1="343.691" x2="224.374" y2="343.691" gradientUnits="userSpaceOnUse">
<stop stop-color="#7C18A1"/>
<stop offset="1" stop-color="#042637"/>
</linearGradient>
<linearGradient id="paint35_linear" x1="182.763" y1="223.252" x2="197.898" y2="223.252" gradientUnits="userSpaceOnUse">
<stop stop-color="#7D59D0"/>
<stop offset="1" stop-color="#7C18A1"/>
</linearGradient>
<linearGradient id="paint36_linear" x1="182.741" y1="243.397" x2="195.796" y2="243.397" gradientUnits="userSpaceOnUse">
<stop stop-color="#7D59D0"/>
<stop offset="1" stop-color="#7C18A1"/>
</linearGradient>
<linearGradient id="paint37_linear" x1="200.694" y1="288.998" x2="223.499" y2="288.998" gradientUnits="userSpaceOnUse">
<stop stop-color="#7C1DA5"/>
<stop offset="1" stop-color="#3C2068"/>
</linearGradient>
<linearGradient id="paint38_linear" x1="184" y1="200.864" x2="212.535" y2="200.864" gradientUnits="userSpaceOnUse">
<stop stop-color="#7C18A1"/>
<stop offset="1" stop-color="#042637"/>
</linearGradient>
<linearGradient id="paint39_linear" x1="207.488" y1="286.006" x2="235.719" y2="286.006" gradientUnits="userSpaceOnUse">
<stop stop-color="#7D59D0"/>
<stop offset="1" stop-color="#7C18A1"/>
</linearGradient>
<linearGradient id="paint40_linear" x1="229.724" y1="273.996" x2="235.426" y2="273.996" gradientUnits="userSpaceOnUse">
<stop stop-color="#3369FF"/>
<stop offset="1" stop-color="#7C18A1"/>
</linearGradient>
<linearGradient id="paint41_linear" x1="222.357" y1="309.496" x2="238.516" y2="309.496" gradientUnits="userSpaceOnUse">
<stop stop-color="#C16846"/>
<stop offset="0.2653" stop-color="#D27565"/>
<stop offset="0.5308" stop-color="#DE7F7B"/>
<stop offset="0.7814" stop-color="#E58589"/>
<stop offset="1" stop-color="#E8878E"/>
</linearGradient>
<linearGradient id="paint42_linear" x1="131.909" y1="155.194" x2="131.909" y2="140.467" gradientUnits="userSpaceOnUse">
<stop stop-color="#00FFFF" stop-opacity="0.25"/>
<stop offset="0.0854" stop-color="#09FEFC" stop-opacity="0.2713"/>
<stop offset="0.2247" stop-color="#21FBF3" stop-opacity="0.3062"/>
<stop offset="0.4008" stop-color="#49F6E6" stop-opacity="0.3502"/>
<stop offset="0.6066" stop-color="#80F0D2" stop-opacity="0.4016"/>
<stop offset="0.8345" stop-color="#C6E8BA" stop-opacity="0.4586"/>
<stop offset="1" stop-color="#FDE1A7" stop-opacity="0.5"/>
</linearGradient>
<linearGradient id="paint43_linear" x1="127.723" y1="152.031" x2="127.723" y2="143.734" gradientUnits="userSpaceOnUse">
<stop stop-color="#E9B3F2"/>
<stop offset="1" stop-color="#F9F7FF"/>
</linearGradient>
<linearGradient id="paint44_linear" x1="127.723" y1="152.031" x2="127.723" y2="143.734" gradientUnits="userSpaceOnUse">
<stop stop-color="#E367F2"/>
<stop offset="1" stop-color="#00E2EC"/>
</linearGradient>
<linearGradient id="paint45_linear" x1="124.829" y1="169.041" x2="124.829" y2="165.584" gradientUnits="userSpaceOnUse">
<stop stop-color="#FE6A77"/>
<stop offset="1" stop-color="#C91C91"/>
</linearGradient>
<linearGradient id="paint46_linear" x1="129.287" y1="167.001" x2="129.287" y2="155.188" gradientUnits="userSpaceOnUse">
<stop stop-color="#00FFFF" stop-opacity="0.25"/>
<stop offset="0.0854" stop-color="#09FEFC" stop-opacity="0.2713"/>
<stop offset="0.2247" stop-color="#21FBF3" stop-opacity="0.3062"/>
<stop offset="0.4008" stop-color="#49F6E6" stop-opacity="0.3502"/>
<stop offset="0.6066" stop-color="#80F0D2" stop-opacity="0.4016"/>
<stop offset="0.8345" stop-color="#C6E8BA" stop-opacity="0.4586"/>
<stop offset="1" stop-color="#FDE1A7" stop-opacity="0.5"/>
</linearGradient>
</defs>
</svg>
