<svg width="375" height="396" viewBox="0 0 375 396" fill="none" xmlns="http://www.w3.org/2000/svg">
<path d="M228.078 35.4209C256.205 35.8609 296.091 46.8609 306.928 74.1409C318.576 103.465 317.199 109.737 336.208 141.681C355.191 173.58 345.047 218.46 324.758 237.527C296.02 264.533 271.036 257.83 220.008 257.621C184.272 257.474 144.34 282.202 124.097 288.641C110.494 292.967 81.4443 297.661 62.9999 279.621C42.6321 259.7 47.1685 222.861 43.6332 208.781C39.93 194.032 15.4067 141.881 41.7888 101.201C73.6054 52.1409 144.607 34.115 228.078 35.4209Z" fill="url(#paint0_linear)"/>
<path d="M270.245 331.94C280.398 330.182 317.996 322.999 319.686 337.554C321.107 349.801 290.623 348.777 276.033 348.114C257.474 347.271 219.601 351.127 218.175 343.79C217.319 339.387 228.616 337.041 240.276 336.384C249.861 335.843 255.375 334.515 270.245 331.94Z" fill="url(#paint1_linear)"/>
<path d="M99.9532 343.001C90.6669 342.001 51.3913 336.242 53.3164 350.754C54.8533 362.341 83.8277 357.809 96.9685 358.821C115.528 360.251 147.214 358.369 147.836 350.953C148.209 346.504 137.84 345.002 127.298 345.21C118.632 345.381 113.554 344.466 99.9532 343.001Z" fill="url(#paint2_linear)"/>
<path d="M158.815 219.689C158.815 219.231 159.205 218.859 159.686 218.859H169.474C169.954 218.859 170.344 219.231 170.344 219.689V229.029C170.344 229.488 169.954 229.86 169.474 229.86H159.686C159.205 229.86 158.815 229.488 158.815 229.029V219.689Z" fill="url(#paint3_linear)"/>
<path d="M164.176 227.577C164.033 227.577 163.898 227.513 163.81 227.404L160.986 223.884C160.831 223.691 160.869 223.415 161.071 223.267C161.273 223.12 161.563 223.156 161.718 223.35L164.137 226.365L167.416 221.349C167.551 221.143 167.835 221.081 168.051 221.209C168.267 221.338 168.333 221.609 168.198 221.815L164.567 227.37C164.487 227.493 164.349 227.57 164.198 227.577C164.191 227.577 164.183 227.577 164.176 227.577Z" fill="#FDE1A7"/>
<path d="M158.815 235.907C158.815 235.448 159.205 235.077 159.686 235.077H169.474C169.954 235.077 170.344 235.448 170.344 235.907V245.247C170.344 245.705 169.954 246.077 169.474 246.077H159.686C159.205 246.077 158.815 245.705 158.815 245.247V235.907Z" fill="url(#paint4_linear)"/>
<path d="M164.176 243.794C164.033 243.794 163.898 243.731 163.81 243.622L160.986 240.102C160.831 239.909 160.869 239.633 161.071 239.485C161.273 239.338 161.563 239.373 161.718 239.567L164.137 242.583L167.416 237.567C167.551 237.361 167.835 237.298 168.051 237.427C168.267 237.555 168.333 237.827 168.198 238.033L164.567 243.588C164.487 243.71 164.349 243.788 164.198 243.795C164.191 243.794 164.183 243.794 164.176 243.794Z" fill="#FDE1A7"/>
<path d="M158.815 252.126C158.815 251.667 159.205 251.296 159.686 251.296H169.474C169.954 251.296 170.344 251.667 170.344 252.126V261.466C170.344 261.924 169.954 262.296 169.474 262.296H159.686C159.205 262.296 158.815 261.924 158.815 261.466V252.126Z" fill="url(#paint5_linear)"/>
<path d="M164.176 260.013C164.033 260.013 163.898 259.949 163.81 259.84L160.986 256.32C160.831 256.127 160.869 255.851 161.071 255.703C161.273 255.556 161.563 255.592 161.718 255.786L164.137 258.801L167.416 253.785C167.551 253.579 167.835 253.517 168.051 253.645C168.267 253.774 168.333 254.045 168.198 254.251L164.567 259.806C164.487 259.929 164.349 260.006 164.198 260.013C164.191 260.013 164.183 260.013 164.176 260.013Z" fill="#FDE1A7"/>
<rect x="140.381" y="157.905" width="65.1319" height="55.385" fill="url(#paint6_linear)"/>
<rect x="147.01" y="162.617" width="24.4006" height="2.2" fill="url(#paint7_linear)"/>
<path d="M198.885 165.44C198.885 164.954 198.472 164.56 197.962 164.56H192.429C191.92 164.56 191.507 164.954 191.507 165.44V207.24H198.885V165.44Z" fill="url(#paint8_linear)"/>
<path d="M198.885 181.353V165.44C198.885 164.954 198.472 164.56 197.962 164.56H192.429C191.92 164.56 191.507 164.954 191.507 165.44V181.353H198.885Z" fill="url(#paint9_linear)"/>
<path d="M176.636 174.79C176.636 174.304 176.222 173.91 175.713 173.91H170.18C169.671 173.91 169.258 174.304 169.258 174.79V207.24H176.636V174.79Z" fill="url(#paint10_linear)"/>
<path d="M176.636 193.526V174.79C176.636 174.304 176.222 173.91 175.713 173.91H170.18C169.671 173.91 169.258 174.304 169.258 174.79V193.526H176.636Z" fill="url(#paint11_linear)"/>
<path d="M187.76 180.95C187.76 180.464 187.346 180.07 186.837 180.07H181.304C180.795 180.07 180.382 180.464 180.382 180.95V207.24H187.76V180.95Z" fill="url(#paint12_linear)"/>
<path d="M187.76 193.526V180.95C187.76 180.464 187.346 180.07 186.837 180.07H181.304C180.795 180.07 180.382 180.464 180.382 180.95V193.526H187.76Z" fill="url(#paint13_linear)"/>
<path d="M165.512 168.85C165.512 168.364 165.098 167.97 164.589 167.97H159.056C158.547 167.97 158.134 168.364 158.134 168.85V207.24H165.512V168.85Z" fill="url(#paint14_linear)"/>
<path d="M165.512 182.453V168.85C165.512 168.364 165.098 167.97 164.589 167.97H159.056C158.547 167.97 158.134 168.364 158.134 168.85V182.453H165.512Z" fill="url(#paint15_linear)"/>
<path d="M154.387 188.21C154.387 187.724 153.973 187.33 153.464 187.33H147.931C147.422 187.33 147.009 187.724 147.009 188.21V207.24H154.387V188.21Z" fill="url(#paint16_linear)"/>
<path d="M154.387 199.32V188.21C154.387 187.724 153.973 187.33 153.464 187.33H147.931C147.422 187.33 147.009 187.724 147.009 188.21V199.32H154.387Z" fill="url(#paint17_linear)"/>
<path d="M198.884 207.68H147.124C146.87 207.68 146.663 207.484 146.663 207.24C146.663 206.997 146.87 206.8 147.124 206.8H198.884C199.139 206.8 199.345 206.997 199.345 207.24C199.345 207.484 199.138 207.68 198.884 207.68Z" fill="#1AA9E8"/>
<rect x="53.0859" y="74.8005" width="65.3625" height="37.07" fill="url(#paint18_linear)"/>
<path d="M61.9902 106.37H81.0604V83.2336L61.9902 106.37Z" fill="#00E2EC"/>
<path d="M98.7354 100.761V106.371H110.494V87.4141L98.7354 100.761Z" fill="#00E2EC"/>
<path d="M81.0596 83.2336V106.37H98.7353V100.76L81.0596 83.2336Z" fill="#0090B2"/>
<path d="M116.181 94.6556L110.494 87.4141V106.371H116.181V94.6556Z" fill="#0090B2"/>
<rect x="88.707" y="79.6406" width="25.0153" height="2.2" fill="url(#paint19_linear)"/>
<path d="M74.2446 100.471C74.0906 100.471 73.9398 100.398 73.8526 100.264L62.9427 83.523C62.8081 83.3166 62.8745 83.0451 63.0908 82.9171C63.307 82.7886 63.5911 82.852 63.7257 83.0583L74.6356 99.799C74.7702 100.005 74.7038 100.277 74.4876 100.405C74.412 100.45 74.3276 100.471 74.2446 100.471Z" fill="#1AA9E8"/>
<path d="M63.3339 85.6558C64.7028 85.6558 65.8124 84.5969 65.8124 83.2908C65.8124 81.9846 64.7028 80.9258 63.3339 80.9258C61.9651 80.9258 60.8555 81.9846 60.8555 83.2908C60.8555 84.5969 61.9651 85.6558 63.3339 85.6558Z" fill="#F95FC3"/>
<path d="M74.2433 101.539C75.116 101.539 75.8235 100.864 75.8235 100.031C75.8235 99.1983 75.116 98.5232 74.2433 98.5232C73.3706 98.5232 72.6631 99.1983 72.6631 100.031C72.6631 100.864 73.3706 101.539 74.2433 101.539Z" fill="white"/>
<path d="M126.647 120.059C124.546 115.056 123.88 109.439 125.052 103.758C126.775 95.4092 132.108 88.6156 139.197 84.5588L132.563 72.1187C121.621 78.0666 113.349 88.3503 110.725 101.066C108.918 109.824 110.049 118.483 113.463 126.118L126.647 120.059Z" fill="white"/>
<path d="M142.894 82.7586C148.293 80.5581 154.417 79.8277 160.612 80.9915C169.599 82.6802 176.861 88.0064 181.067 95.0478L194.252 88.9881C188.101 78.1359 177.109 69.8908 163.433 67.3207C153.901 65.5295 144.481 66.7615 136.26 70.3189L142.894 82.7586Z" fill="white"/>
<path d="M196.055 92.5554L182.871 98.6142C184.975 103.619 185.643 109.239 184.47 114.924C181.239 130.581 165.318 140.774 148.91 137.69C139.919 136.001 132.655 130.671 128.45 123.626L115.265 129.685C121.414 140.541 132.409 148.79 146.089 151.361C170.409 155.931 194.007 140.823 198.797 117.617C200.605 108.854 199.472 100.192 196.055 92.5554Z" fill="white"/>
<path d="M129.347 125.04C126.273 120.519 124.481 115.131 124.481 109.341C124.481 100.831 128.338 93.1825 134.472 87.895L125.444 76.9126C115.912 84.7662 109.879 96.3808 109.879 109.341C109.879 118.267 112.742 126.555 117.638 133.416L129.347 125.04Z" fill="url(#paint20_linear)"/>
<path d="M137.735 85.4473C142.587 82.293 148.448 80.4472 154.762 80.4472C163.922 80.4472 172.125 84.3337 177.678 90.4668L189.387 82.0901C181.155 72.5769 168.7 66.5137 154.762 66.5137C145.047 66.5137 136.054 69.4595 128.708 74.4654L137.735 85.4473Z" fill="url(#paint21_linear)"/>
<path d="M191.878 85.2578L180.17 93.6332C183.247 98.156 185.041 103.547 185.041 109.341C185.041 125.298 171.484 138.234 154.761 138.234C145.597 138.234 137.391 134.345 131.838 128.207L120.129 136.583C128.361 146.101 140.819 152.167 154.761 152.167C179.548 152.167 199.642 132.993 199.642 109.34C199.643 100.411 196.777 92.1201 191.878 85.2578Z" fill="url(#paint22_linear)"/>
<path d="M137.207 115.638C139.878 122.413 146.728 127.234 154.761 127.234C160.526 127.234 165.681 124.75 169.121 120.844L154.761 109.341L137.207 115.638Z" fill="url(#paint23_linear)"/>
<path d="M161.412 92.6099L154.761 109.341L169.121 120.844C171.86 117.733 173.513 113.722 173.513 109.341C173.513 101.694 168.484 95.1711 161.412 92.6099Z" fill="url(#paint24_linear)"/>
<path d="M161.411 92.6095C159.344 91.8606 157.103 91.447 154.761 91.447C144.405 91.447 136.009 99.4581 136.009 109.341C136.009 111.557 136.434 113.678 137.206 115.638L154.76 109.341L161.411 92.6095Z" fill="url(#paint25_linear)"/>
<rect x="209.224" y="55.8254" width="100.561" height="60.115" fill="url(#paint26_linear)"/>
<path d="M219.406 68.0418C220.775 68.0418 221.885 66.9829 221.885 65.6768C221.885 64.3706 220.775 63.3118 219.406 63.3118C218.037 63.3118 216.928 64.3706 216.928 65.6768C216.928 66.9829 218.037 68.0418 219.406 68.0418Z" fill="#FDE1A7"/>
<path d="M232.704 68.0413C234.073 68.0413 235.183 66.9824 235.183 65.6763C235.183 64.3701 234.073 63.3113 232.704 63.3113C231.335 63.3113 230.226 64.3701 230.226 65.6763C230.226 66.9824 231.335 68.0413 232.704 68.0413Z" fill="#00E2EC"/>
<path d="M246.003 68.0413C247.372 68.0413 248.481 66.9824 248.481 65.6763C248.481 64.3701 247.372 63.3113 246.003 63.3113C244.634 63.3113 243.524 64.3701 243.524 65.6763C243.524 66.9824 244.634 68.0413 246.003 68.0413Z" fill="#C7A0F6"/>
<rect x="216.928" y="72.0139" width="31.5548" height="2.2" fill="url(#paint27_linear)"/>
<path d="M302.08 70.666C300.552 67.7964 298.261 65.166 295.009 65.2672C287.939 65.4872 283.327 83.0872 278.409 83.3072C273.491 83.5272 275.181 65.5607 268.88 65.7072C260.964 65.8916 260.656 100.687 250.742 101.494C240.829 102.3 238.6 82.7938 234.142 83.0872C229.685 83.3807 227.769 98.3821 226.995 101.641C226.222 104.899 222.308 105.527 222.308 105.527H302.08V70.666Z" fill="url(#paint28_linear)"/>
<path d="M302.08 70.4739C291.167 70.9139 288.861 98.9274 277.641 98.2674C268.333 97.72 269.879 82.6474 261.733 82.2074C253.586 81.7674 249.744 100.027 239.907 100.614C235.124 100.899 231.3 98.0474 226.919 98.4139C222.539 98.7804 218.004 104.354 216.928 105.527H302.08V70.4739Z" fill="url(#paint29_linear)"/>
<rect x="154.451" y="48.1438" width="40.7313" height="12.32" fill="url(#paint30_linear)"/>
<path d="M191.448 56.4492C189.836 56.4492 189.026 55.453 188.311 54.5739C187.642 53.7502 187.063 53.0392 185.904 53.0392C184.744 53.0392 184.165 53.7502 183.496 54.5739C182.781 55.453 181.971 56.4492 180.359 56.4492C178.747 56.4492 177.938 55.453 177.223 54.5739C176.554 53.7502 175.975 53.0392 174.816 53.0392C173.656 53.0392 173.077 53.7502 172.408 54.5739C171.694 55.453 170.884 56.4492 169.272 56.4492C167.661 56.4492 166.851 55.453 166.137 54.5739C165.468 53.7502 164.89 53.0392 163.731 53.0392C162.571 53.0392 161.993 53.7502 161.324 54.5739C160.609 55.453 159.8 56.4492 158.188 56.4492C157.933 56.4492 157.727 56.2521 157.727 56.0092C157.727 55.7663 157.933 55.5692 158.188 55.5692C159.348 55.5692 159.926 54.8581 160.595 54.0345C161.309 53.1553 162.119 52.1592 163.731 52.1592C165.342 52.1592 166.152 53.1558 166.866 54.0345C167.535 54.8581 168.113 55.5692 169.272 55.5692C170.432 55.5692 171.01 54.8581 171.68 54.0345C172.394 53.1553 173.204 52.1592 174.816 52.1592C176.427 52.1592 177.238 53.1553 177.952 54.0345C178.621 54.8581 179.2 55.5692 180.359 55.5692C181.519 55.5692 182.098 54.8581 182.767 54.0345C183.482 53.1553 184.292 52.1592 185.904 52.1592C187.516 52.1592 188.325 53.1553 189.04 54.0345C189.709 54.8581 190.287 55.5692 191.448 55.5692C191.703 55.5692 191.909 55.7663 191.909 56.0092C191.909 56.2521 191.702 56.4492 191.448 56.4492Z" fill="#05C5DA"/>
<path d="M160.175 74.059C160.054 74.059 159.934 74.0137 159.843 73.9244C159.666 73.7493 159.672 73.4708 159.855 73.3022L174.152 60.1471C174.335 59.9786 174.627 59.983 174.804 60.1581C174.981 60.3332 174.976 60.6118 174.793 60.7803L160.495 73.9354C160.406 74.0181 160.29 74.059 160.175 74.059Z" fill="#1AA9E8"/>
<path d="M160.176 75.3607C161.184 75.3607 162.001 74.581 162.001 73.6192C162.001 72.6574 161.184 71.8777 160.176 71.8777C159.168 71.8777 158.351 72.6574 158.351 73.6192C158.351 74.581 159.168 75.3607 160.176 75.3607Z" fill="#FDE1A7"/>
<path d="M234.298 186.115C234.661 186.706 235.456 186.904 236.075 186.559L257.246 177.438C257.866 177.093 258.073 176.334 257.712 175.742L248.093 160.465C247.731 159.874 246.936 159.676 246.316 160.021L222.764 166.25C222.145 166.595 221.936 167.354 222.298 167.946L234.298 186.115Z" fill="url(#paint31_linear)"/>
<path fill-rule="evenodd" clip-rule="evenodd" d="M248.62 159.726L258.863 175.996C259.25 176.626 259.027 177.434 258.368 177.802L235.82 187.516C235.161 187.884 234.313 187.672 233.927 187.043L221.146 167.692C220.761 167.063 220.983 166.254 221.642 165.886L246.727 159.253C247.386 158.885 248.233 159.096 248.62 159.726ZM224.85 167.586L235.681 184.293L256.263 175.946L246.868 161.261L224.85 167.586Z" fill="url(#paint32_linear)"/>
<path d="M250.644 170.886L233.916 177.185L232.561 175.331L249.541 169.267L250.644 170.886Z" fill="#FDE1A7"/>
<path d="M239.221 171.091C240.247 171.091 241.08 170.297 241.08 169.317C241.08 168.337 240.247 167.543 239.221 167.543C238.194 167.543 237.361 168.337 237.361 169.317C237.361 170.297 238.194 171.091 239.221 171.091Z" fill="#F95FC3"/>
<path d="M232.888 173.415C233.914 173.415 234.747 172.621 234.747 171.641C234.747 170.661 233.914 169.867 232.888 169.867C231.861 169.867 231.028 170.661 231.028 171.641C231.028 172.621 231.861 173.415 232.888 173.415Z" fill="#FE687E"/>
<path d="M245.167 168.842C246.091 168.842 246.84 168.127 246.84 167.245C246.84 166.364 246.091 165.649 245.167 165.649C244.243 165.649 243.494 166.364 243.494 167.245C243.494 168.127 244.243 168.842 245.167 168.842Z" fill="#00E2EC"/>
<path d="M273.19 290.693C272.649 281.905 274.719 271.129 274.643 267.756L259.588 266.933C259.588 266.933 259.298 277.212 259.434 286.11C259.588 296.157 261.778 324.977 261.125 329.487C260.718 332.297 258.312 334.111 256.085 335.45C257.155 335.973 259.05 336.333 261.76 335.053C264.825 333.605 268.279 331.988 270.714 331.907C270.615 330.389 270.516 328.969 270.5 328.021C270.424 323.437 273.843 301.29 273.19 290.693Z" fill="url(#paint33_linear)"/>
<path d="M261.76 335.052C259.05 336.332 257.155 335.972 256.085 335.449C255.505 335.798 254.937 336.116 254.42 336.409C252.45 337.526 249.294 337.964 249.636 339.13C249.904 340.046 257.348 340.463 261.337 339.379C263.22 338.867 266.447 337.215 266.447 337.215L266.572 339.461C266.572 339.461 270.15 339.716 270.535 339.312C271.118 338.699 270.918 335.087 270.714 331.906C268.279 331.987 264.825 333.605 261.76 335.052Z" fill="url(#paint34_linear)"/>
<path d="M291.135 335.354C294.336 333.842 297.961 332.145 300.406 332.208C300.305 330.692 300.188 329.269 300.126 328.314C299.934 325.381 299.857 320.321 300.242 309.687C300.626 299.054 298.628 291.574 297.936 285.267C297.245 278.96 297.245 272.287 297.167 268.914L282.834 270.6C282.834 270.6 283.937 280.671 284.909 289.52C285.828 297.881 291.403 324.684 290.75 329.193C290.349 331.965 287.472 334.235 285.337 335.69C286.381 336.244 288.32 336.683 291.135 335.354Z" fill="url(#paint35_linear)"/>
<path d="M279.261 339.901C279.261 340.524 286.723 340.765 290.712 339.681C292.595 339.169 295.822 337.517 295.822 337.517L295.947 339.763C295.947 339.763 299.78 339.901 300.164 339.497C300.745 338.887 300.613 335.348 300.405 332.208C297.96 332.146 294.336 333.842 291.135 335.354C288.32 336.683 286.381 336.245 285.337 335.691C284.743 336.095 284.204 336.44 283.795 336.711C281.912 337.957 279.261 338.691 279.261 339.901Z" fill="url(#paint36_linear)"/>
<path d="M292.633 216.334C294.247 218.68 298.628 226.161 300.241 233.97C301.73 241.174 301.625 245.3 302.432 250.91C303.239 256.52 307.389 268.84 307.158 269.61C306.927 270.38 305.083 271.535 301.472 271.627C298.772 271.696 296.784 271.481 291.942 273.021C287.101 274.561 281.644 275.441 275.034 274.781C268.426 274.121 263.199 271.481 259.895 271.407C256.59 271.334 252.209 271.334 251.748 270.454C251.287 269.574 254.288 262.768 254.937 258.5C255.671 253.683 257.281 244.493 260.816 235.4C264.13 226.877 268.809 217.067 268.809 217.067C268.809 217.067 275.687 217.03 280.644 216.92C285.601 216.81 292.633 216.334 292.633 216.334Z" fill="url(#paint37_linear)"/>
<path d="M279.452 272.147C277.989 272.147 276.504 272.071 274.985 271.918C271.338 271.555 268.051 270.578 265.41 269.794C263.216 269.143 261.322 268.579 259.883 268.548L258.972 268.529C256.407 268.479 253.5 268.422 252.182 267.96C251.943 267.877 251.821 267.624 251.908 267.396C251.995 267.168 252.26 267.05 252.5 267.134C253.672 267.545 256.621 267.603 258.99 267.649L259.904 267.668C261.472 267.702 263.424 268.282 265.683 268.953C268.421 269.767 271.524 270.688 275.08 271.044C280.917 271.626 286.23 271.073 291.794 269.304C296.036 267.955 298.145 267.931 300.377 267.905C300.73 267.901 301.087 267.897 301.457 267.888C304.692 267.805 306.04 266.886 306.376 266.606C306.567 266.447 306.858 266.465 307.026 266.649C307.193 266.832 307.173 267.11 306.981 267.269C306.476 267.691 304.927 268.68 301.481 268.768C301.106 268.777 300.745 268.781 300.388 268.785C298.229 268.81 296.191 268.833 292.086 270.138C287.841 271.489 283.74 272.147 279.452 272.147Z" fill="#CFAEFF"/>
<path d="M280.924 269.215C279.088 269.215 277.163 269.114 275.14 268.911C271.317 268.53 267.916 267.528 264.915 266.646C262.746 266.007 260.873 265.456 259.388 265.319C258.162 265.206 257.048 265.3 256.066 265.383C254.903 265.482 253.897 265.567 253.059 265.273C252.82 265.19 252.698 264.937 252.785 264.709C252.873 264.481 253.137 264.363 253.377 264.447C254.02 264.674 254.932 264.596 255.984 264.506C257.006 264.42 258.165 264.322 259.477 264.443C261.055 264.588 262.97 265.151 265.187 265.804C268.148 266.676 271.503 267.663 275.236 268.036C281.769 268.687 287.245 268.273 291.976 266.769C296.179 265.433 297.352 265.468 299.12 265.519C299.42 265.528 299.737 265.537 300.092 265.54C303.456 265.57 304.855 264.726 305.618 264.09C305.809 263.93 306.1 263.949 306.269 264.133C306.435 264.316 306.416 264.594 306.224 264.754C305.361 265.473 303.805 266.421 300.252 266.421C300.197 266.421 300.141 266.421 300.084 266.42C299.722 266.417 299.398 266.408 299.092 266.399C297.359 266.348 296.314 266.316 292.268 267.603C288.884 268.681 285.139 269.214 280.924 269.215Z" fill="#CFAEFF"/>
<path d="M249.327 169.566C248.627 169.788 247.444 170.391 247.675 171.491C247.905 172.591 249.982 174.522 250.674 174.815C251.366 175.108 250.904 173.361 250.288 172.591C249.673 171.821 251.389 173.573 251.94 173.397C252.344 173.269 252.479 172.536 252.036 171.381C251.643 170.353 253.401 169.401 252.632 169.254C251.864 169.107 250.25 169.272 249.327 169.566Z" fill="url(#paint38_linear)"/>
<path d="M260.14 182.293C260.339 182.044 265.945 178.336 266.361 178.191C266.946 177.987 276.033 189.31 277.301 190.575C278.569 191.84 275.625 198.153 273.204 198.593C270.783 199.033 259.616 182.949 260.14 182.293Z" fill="url(#paint39_linear)"/>
<path d="M244.101 169.071C244.917 168.293 248.982 168.741 249.519 168.887C250.058 169.034 251.403 167.971 252.209 167.934C253.016 167.897 255.485 168.328 256.936 169.107C258.543 169.971 266.58 178.421 266.58 178.421C266.58 178.421 266.466 180.621 264.448 181.941C262.425 183.264 261.127 182.659 261.127 182.659C261.127 182.659 258.28 177.706 257.301 177.101C256.321 176.496 253.9 177.514 251.907 177.047C250.027 176.608 247.416 174.296 248.137 173.691C248.902 173.048 250.733 174.531 251.557 174.791C252.776 175.176 255.063 174.714 255.11 173.828C255.168 172.755 251.525 171.761 248.77 170.968C246.822 170.408 243.439 169.703 244.101 169.071Z" fill="url(#paint40_linear)"/>
<path d="M261.827 183.234C260.593 183.234 259.884 182.664 259.838 182.625C259.645 182.466 259.625 182.188 259.792 182.004C259.958 181.821 260.251 181.802 260.442 181.961C260.495 182.003 261.837 183.032 264.197 181.571C266.012 180.447 266.118 178.425 266.119 178.404C266.129 178.162 266.344 177.97 266.597 177.982C266.851 177.991 267.049 178.194 267.041 178.436C267.037 178.537 266.927 180.93 264.698 182.31C263.562 183.013 262.593 183.234 261.827 183.234Z" fill="#1AA9E8"/>
<path d="M289.559 172.26C290.788 174.68 295.399 183.113 295.092 189.64C294.785 196.167 292.94 202.914 292.709 207.974C292.479 213.034 292.633 216.334 292.633 216.334C292.633 216.334 287.562 219.34 279.876 219.12C272.424 218.907 268.809 217.067 268.809 217.067C268.809 217.067 268.588 209.305 267.656 204.014C266.926 199.87 265.139 197.45 265.12 192.794C265.095 186.835 274.707 179.135 277.57 174.974C279.924 171.553 289.559 172.26 289.559 172.26Z" fill="url(#paint41_linear)"/>
<path d="M280.69 219.572C280.417 219.572 280.142 219.568 279.861 219.56C272.388 219.346 268.743 217.532 268.592 217.455C268.368 217.341 268.282 217.075 268.402 216.86C268.521 216.646 268.801 216.564 269.026 216.678C269.061 216.696 272.657 218.473 279.89 218.68C287.334 218.899 292.34 215.989 292.39 215.96C292.606 215.832 292.89 215.895 293.025 216.102C293.159 216.308 293.092 216.579 292.876 216.707C292.671 216.829 287.956 219.572 280.69 219.572Z" fill="#1AA9E8"/>
<path d="M296.898 148.116C298.051 148.171 301.58 147.298 304.219 146.741C309.426 145.641 314.543 145.706 315.862 149.161C316.995 152.131 315.109 154.597 315.42 156.677C315.843 159.501 324.681 161.884 324.853 167.531C325.019 172.945 320.357 174.901 319.089 177.266C317.821 179.631 315.297 186.808 306.524 186.231C301.51 185.901 300.127 183.077 300.126 181.116C300.126 178.597 302.662 176.661 301.452 174.846C300.241 173.031 296.362 174.233 295.515 172.096C294.594 169.767 296.668 167.861 298.224 166.706C299.78 165.551 302.086 164.341 301.567 162.636C301.048 160.931 297.878 160.501 297.994 158.786C298.129 156.787 301.974 155.304 301.337 153.286C300.857 151.764 298.109 152.076 295.746 151.636C293.382 151.196 296.898 148.116 296.898 148.116Z" fill="url(#paint42_linear)"/>
<path d="M288.406 162.287C288.109 164.836 289.559 172.261 289.559 172.261C289.559 172.261 285.947 175.836 280.644 176.074C278.042 176.191 277.57 174.974 277.57 174.974L278.647 164.781C278.647 164.781 280.267 161.88 283.565 160.674C286.862 159.468 288.099 160.601 288.099 160.601L288.406 162.287Z" fill="url(#paint43_linear)"/>
<path d="M286.946 143.807C282.258 141.9 278.765 141.983 278.765 141.983C275.111 143.88 265.394 161.222 271.499 165.44C275.267 168.044 281.732 165.387 286.028 161.848C286.291 161.926 286.571 161.97 286.862 161.97C288.359 161.97 289.571 160.849 289.571 159.467C289.571 159.072 289.469 158.7 289.293 158.368C289.69 157.773 289.994 157.19 290.174 156.639C291.232 153.397 291.634 145.714 286.946 143.807Z" fill="url(#paint44_linear)"/>
<path d="M279.665 154.303C279.596 154.303 279.525 154.294 279.456 154.273C279.092 154.163 278.89 153.792 279.005 153.445C279.218 152.802 279.993 151.605 280.485 151.157C280.761 150.907 281.199 150.917 281.463 151.181C281.726 151.445 281.715 151.862 281.438 152.114C281.119 152.403 280.463 153.421 280.324 153.842C280.231 154.124 279.959 154.303 279.665 154.303Z" fill="#0090B2"/>
<path d="M273.123 150.82C273.066 150.82 273.008 150.811 272.95 150.794C272.646 150.702 272.478 150.393 272.574 150.104C272.779 149.483 273.403 148.522 273.882 148.087C274.111 147.878 274.477 147.886 274.697 148.107C274.917 148.327 274.907 148.675 274.676 148.885C274.342 149.187 273.818 149.999 273.673 150.435C273.595 150.67 273.369 150.82 273.123 150.82Z" fill="#0090B2"/>
<path fill-rule="evenodd" clip-rule="evenodd" d="M278.367 156.591C278.773 156.799 279.223 156.904 279.703 156.904C281.22 156.904 282.784 155.863 283.686 154.253C284.9 152.086 284.488 149.61 282.769 148.733C282.363 148.526 281.913 148.421 281.433 148.421C279.916 148.421 278.353 149.461 277.451 151.072C276.872 152.106 276.639 153.24 276.796 154.268C276.958 155.332 277.516 156.157 278.367 156.591ZM278.06 151.382C278.832 150.006 280.188 149.08 281.433 149.08C281.798 149.08 282.138 149.159 282.443 149.314C283.825 150.02 284.109 152.095 283.076 153.941C282.305 155.317 280.949 156.243 279.703 156.243C279.338 156.243 278.998 156.163 278.693 156.008C278.041 155.675 277.61 155.023 277.48 154.172C277.344 153.283 277.551 152.292 278.06 151.382Z" fill="#9F36AD"/>
<path fill-rule="evenodd" clip-rule="evenodd" d="M271.021 152.532C271.308 152.678 271.628 152.752 271.97 152.752C273.225 152.752 274.637 151.737 275.482 150.227C276.002 149.3 276.252 148.3 276.185 147.413C276.114 146.47 275.698 145.758 275.012 145.409C274.725 145.262 274.406 145.188 274.063 145.188C272.809 145.188 271.398 146.203 270.552 147.713C269.433 149.71 269.64 151.827 271.021 152.532ZM271.161 148.024C271.88 146.743 273.073 145.848 274.064 145.848C274.291 145.848 274.5 145.896 274.686 145.99C275.155 146.229 275.442 146.75 275.495 147.459C275.553 148.224 275.331 149.096 274.872 149.916C274.155 151.197 272.961 152.092 271.97 152.092C271.742 152.092 271.533 152.044 271.347 151.949C270.343 151.436 270.257 149.639 271.161 148.024Z" fill="#9F36AD"/>
<path d="M276.149 149.454C274.333 150.893 269.292 153.268 269.155 154.11C268.973 155.238 271.673 155.866 272.289 155.866C272.904 155.866 273.353 154.275 274.997 152.093C275.923 150.865 277.115 148.689 276.149 149.454Z" fill="url(#paint45_linear)"/>
<path d="M277.984 151.183C277.847 151.183 277.717 151.105 277.663 150.976C277.189 149.844 276.581 149.506 275.561 149.809C275.378 149.864 275.185 149.766 275.129 149.592C275.072 149.418 275.174 149.233 275.356 149.179C276.732 148.77 277.696 149.278 278.306 150.731C278.377 150.9 278.29 151.092 278.113 151.16C278.071 151.176 278.027 151.183 277.984 151.183Z" fill="#9F36AD"/>
<path d="M269.994 158.353C270.059 158.612 270.227 158.878 270.419 159.098C270.616 159.32 270.854 159.501 271.118 159.613C271.646 159.848 272.26 159.758 272.807 159.502C272.979 159.421 273.186 159.488 273.271 159.652C273.356 159.815 273.285 160.013 273.114 160.094C273.107 160.097 273.099 160.101 273.091 160.103C272.75 160.237 272.381 160.339 271.993 160.348C271.606 160.364 271.207 160.284 270.863 160.112C270.518 159.942 270.231 159.693 270.007 159.411C269.787 159.125 269.607 158.816 269.533 158.442C269.508 158.32 269.592 158.202 269.72 158.178C269.844 158.156 269.965 158.231 269.994 158.347L269.994 158.353Z" fill="#954374"/>
<path d="M280.305 176.522C277.71 176.522 277.161 175.186 277.138 175.127C277.05 174.899 277.171 174.646 277.411 174.562C277.65 174.479 277.915 174.594 278.003 174.822C278.016 174.849 278.444 175.733 280.623 175.635C285.684 175.407 289.193 171.99 289.228 171.956C289.405 171.781 289.696 171.775 289.88 171.945C290.063 172.113 290.068 172.392 289.891 172.567C289.739 172.718 286.089 176.27 280.666 176.514C280.541 176.519 280.421 176.522 280.305 176.522Z" fill="#1AA9E8"/>
<path d="M286.125 157.061C285.636 157.175 284.936 156.97 284.987 156.017C285.082 154.221 288.314 151.466 288.235 148.922C288.137 145.833 282.057 145.145 277.878 143.587C273.378 141.909 273.439 136.95 274.563 135.328C275.803 133.54 277.993 134.127 278.915 135.007C279.837 135.887 280.26 136.864 281.068 136.841C281.999 136.813 281.653 135.081 283.065 135.081C284.495 135.081 285.734 137.598 286.716 138.637C288.397 140.416 297.218 143.191 297.667 149.234C298.283 157.52 289.637 163.974 288.676 163.974C287.039 163.974 287.126 162.167 287.825 161.805C288.525 161.444 289.842 160.68 289.509 158.935C289.175 157.191 287.215 156.806 286.125 157.061Z" fill="url(#paint46_linear)"/>
<path d="M287.84 157.135C288.611 157.411 289.211 158.001 289.454 158.738C289.512 158.66 289.539 158.561 289.509 158.461C288.956 156.569 286.067 154.889 284.516 153.986C284.189 153.796 283.906 153.631 283.739 153.519C283.583 153.414 283.367 153.449 283.257 153.598C283.146 153.747 283.183 153.953 283.34 154.058C283.526 154.183 283.804 154.345 284.156 154.55C285.167 155.138 286.776 156.074 287.84 157.135Z" fill="#9F36AD"/>
<path d="M233.436 178.051C234.369 177.878 235.426 180.786 235.887 182.436C236.348 184.086 236.683 186.879 238.375 188.724C239.922 190.411 244.87 191.951 244.87 191.951C244.87 191.951 245.407 194.701 244.1 196.241C242.795 197.781 240.866 197.703 240.866 197.703C240.866 197.703 235.186 192.317 232.803 190.741C230.421 189.164 228.961 187.037 228.596 185.516C228.205 183.888 227.924 183.077 228.116 181.281C228.219 180.306 228.621 179.011 228.621 179.011C228.621 179.011 232.159 184.367 233.072 185.754C234.033 185.571 233.572 183.041 233.457 182.014C233.342 180.988 232.487 178.228 233.436 178.051Z" fill="url(#paint47_linear)"/>
<path d="M283.412 179.417C287.446 178.75 289.814 180.484 291.077 183.095C292.46 185.955 292.172 189.494 290.02 191.547C287.869 193.6 274.013 209.312 266.714 209.112C258.568 208.89 240.556 199.078 240.374 198.073C240.192 197.068 243.554 191.504 244.025 191.666C244.496 191.828 263.121 198.542 265.889 197.831C268.655 197.12 280.608 179.881 283.412 179.417Z" fill="url(#paint48_linear)"/>
<path d="M240.37 198.505C240.15 198.505 239.959 198.362 239.92 198.149C239.708 196.982 242.692 192.093 243.551 191.405C243.765 191.233 243.976 191.182 244.182 191.253C244.421 191.335 244.545 191.587 244.46 191.815C244.403 191.965 244.27 192.068 244.118 192.098C243.406 192.668 240.727 197.233 240.829 198C240.861 198.237 240.689 198.465 240.441 198.5C240.417 198.504 240.393 198.505 240.37 198.505Z" fill="#1AA9E8"/>
<path d="M108.465 277.016C108.465 277.698 109.044 278.25 109.758 278.25H138.423C139.137 278.25 139.717 277.698 139.717 277.016V258.918C139.717 258.236 139.137 257.684 138.423 257.684H109.758C109.044 257.684 108.465 258.236 108.465 258.918V277.016Z" fill="url(#paint49_linear)"/>
<path fill-rule="evenodd" clip-rule="evenodd" d="M108.758 256.967H139.422C140.186 256.967 140.806 257.558 140.806 258.287V277.647C140.806 278.376 140.186 278.967 139.422 278.967H108.758C107.994 278.967 107.375 278.376 107.375 277.647V258.287C107.375 257.558 107.994 256.967 108.758 256.967ZM109.681 276.767H138.5V259.167H109.681V276.767Z" fill="url(#paint50_linear)"/>
<rect x="108.736" y="269.317" width="24.4011" height="2.2" fill="#FDE1A7"/>
<path d="M129.97 264.119L133.137 267.651L126.821 267.668L129.97 264.119Z" fill="#00E2EC"/>
<path d="M121.56 267.668C122.587 267.668 123.42 266.873 123.42 265.893C123.42 264.914 122.587 264.119 121.56 264.119C120.534 264.119 119.701 264.914 119.701 265.893C119.701 266.873 120.534 267.668 121.56 267.668Z" fill="#F95FC3"/>
<path d="M81.4795 343.04C82.3293 345.07 85.9647 345.921 89.0149 346.61C92.3022 347.353 94.6437 347.782 94.51 349.03C94.3565 350.46 87.2092 350.937 82.0217 350.79C76.8342 350.644 73.0762 350.06 72.308 349.51C71.4964 348.93 71.5319 343.677 71.7237 342.504C71.9156 341.331 81.4795 343.04 81.4795 343.04Z" fill="url(#paint51_linear)"/>
<path d="M76.0657 223.814C75.3741 226.234 73.6066 231.807 72.9915 242.367C72.3764 252.927 73.145 285.341 73.145 293.261C73.145 301.181 71.1471 315.26 70.993 324.794C70.839 334.327 70.6412 343.292 71.2236 343.64C72.511 344.41 79.8888 344.96 82.3673 343.64C82.7998 343.41 86.8248 310.127 89.5915 296.194C91.4166 287.001 98.5062 237.087 98.9673 229.753C99.4284 222.42 76.0657 223.814 76.0657 223.814Z" fill="url(#paint52_linear)"/>
<path d="M77.6732 341.411C74.2527 341.411 71.6096 340.759 70.644 340.294C70.4167 340.184 70.3254 339.92 70.4402 339.703C70.5546 339.486 70.8317 339.398 71.0595 339.508C72.3976 340.152 77.2241 341.172 82.8492 340.005C83.0986 339.953 83.3435 340.105 83.3974 340.342C83.4514 340.58 83.2937 340.814 83.0447 340.866C81.1417 341.26 79.3175 341.411 77.6732 341.411Z" fill="#CD218F"/>
<path d="M118.909 345.584C119.639 346.831 122.89 348.378 125.941 349.067C129.228 349.81 131.57 350.239 131.436 351.487C131.282 352.917 124.135 353.394 118.948 353.247C113.76 353.101 110.264 352.917 109.495 352.367C108.683 351.786 108.265 347.637 108.457 346.464C108.65 345.291 118.909 345.584 118.909 345.584Z" fill="url(#paint53_linear)"/>
<path d="M112.685 229.02C113.031 233.42 116.143 286.77 116.835 295.57C117.526 304.37 120.561 344.991 120.178 345.767C119.544 347.05 109.745 348.48 108.247 347.215C107.288 346.406 104.192 325.821 101.733 312.327C99.2742 298.834 93.8944 274.927 91.1278 265.541C88.3611 256.154 83.2889 240.79 86.1708 227.15C88.8222 224.29 94.7037 224.354 101.157 225.5C107.802 226.68 112.685 229.02 112.685 229.02Z" fill="url(#paint54_linear)"/>
<path d="M93.2517 274.417C92.7168 272.348 92.1695 270.282 91.5903 268.225C91.0176 266.168 90.3679 264.132 89.7422 262.083C88.4838 257.988 87.3006 253.86 86.3992 249.662C86.348 249.424 86.5084 249.192 86.7584 249.143C87.0078 249.094 87.2513 249.247 87.3029 249.485C87.3029 249.487 87.3039 249.491 87.3043 249.493C88.1205 253.668 89.2216 257.795 90.4025 261.904C90.9886 263.959 91.6037 266.014 92.1405 268.089C92.6832 270.161 93.1927 272.238 93.6898 274.318C93.7175 274.434 93.6418 274.549 93.5201 274.575C93.4007 274.601 93.2812 274.531 93.2517 274.417Z" fill="#CD218F"/>
<path d="M86.8466 249.989C86.7866 249.989 86.7258 249.978 86.6672 249.955C85.3184 249.412 82.2613 247.308 81.5101 246.113C81.3792 245.905 81.4497 245.635 81.6683 245.51C81.8864 245.385 82.1695 245.452 82.3009 245.661C82.905 246.621 85.7164 248.617 87.0264 249.145C87.2611 249.239 87.3709 249.497 87.2717 249.721C87.197 249.889 87.0264 249.989 86.8466 249.989Z" fill="#CD218F"/>
<path d="M111.014 344.642C109.203 344.642 107.739 344.455 107.112 344.231C106.873 344.146 106.753 343.892 106.842 343.664C106.931 343.437 107.198 343.323 107.435 343.406C108.913 343.934 115.863 344.216 119.857 341.83C120.073 341.701 120.357 341.764 120.492 341.969C120.627 342.175 120.562 342.447 120.346 342.576C117.692 344.162 113.91 344.642 111.014 344.642Z" fill="#CD218F"/>
<path d="M95.7194 151.606C98.4861 146.326 109.649 123.494 110.802 122.1C111.955 120.707 112.859 120.433 113.184 118.324C113.454 116.573 113.309 115.363 113.646 113.997C114.107 112.127 116.888 107.134 116.182 105.674C115.721 104.72 113.876 107.251 113.184 108.057C112.493 108.864 110.439 112.014 109.948 111.722C109.817 110.496 109.986 106.371 109.986 106.371C109.111 107.361 107.901 109.891 107.209 112.531C106.518 115.171 106.729 116.087 105.192 119.094C103.655 122.101 91.0129 135.301 84.5573 149.051C84.1838 149.846 83.8214 150.658 83.4668 151.482C86.1952 153.307 89.8417 155.149 94.2342 155.88C94.6939 154.103 95.1952 152.606 95.7194 151.606Z" fill="url(#paint55_linear)"/>
<path d="M100.311 178.531C92.119 176.337 92.926 177.525 92.0319 177.143C91.0511 176.207 92.2647 163.48 94.2327 155.88C89.8402 155.149 86.1942 153.308 83.4653 151.482C77.6738 164.949 74.3981 182.105 74.1809 195.581C73.9503 209.881 74.5267 224.181 74.642 224.841C74.7573 225.501 85.2429 231.66 96.8906 231.771C108.495 231.881 112.684 229.021 112.684 229.021C112.684 229.021 115.009 189.818 114.634 188.721C114.259 187.624 108.502 180.725 100.311 178.531Z" fill="url(#paint56_linear)"/>
<path d="M98.5244 229.105C98.168 229.105 97.8055 229.101 97.4334 229.095C83.6702 228.869 75.1341 223.077 74.1362 222.021C73.9656 221.841 73.9809 221.562 74.1699 221.399C74.359 221.237 74.6504 221.251 74.821 221.431C75.6279 222.285 84.0455 227.995 97.4491 228.215C108.761 228.402 112.54 225.606 112.577 225.578C112.776 225.426 113.066 225.456 113.226 225.645C113.385 225.835 113.353 226.112 113.155 226.264C112.999 226.384 109.315 229.105 98.5244 229.105Z" fill="#05C5DA"/>
<path d="M107.294 187.187C107.128 187.187 106.967 187.101 106.885 186.951C105.444 184.332 100.517 180.675 98.305 179.854C98.0675 179.766 97.95 179.51 98.0422 179.284C98.1344 179.058 98.4018 178.945 98.6389 179.033C101.029 179.92 106.147 183.717 107.702 186.542C107.82 186.757 107.733 187.023 107.508 187.136C107.439 187.171 107.366 187.187 107.294 187.187Z" fill="#05C5DA"/>
<path d="M84.3905 173.818C84.17 173.818 83.9759 173.668 83.9367 173.454C82.9942 168.286 86.0126 159.997 87.4633 156.014C87.7769 155.153 88.0249 154.473 88.1227 154.121C88.1877 153.886 88.4404 153.746 88.6866 153.809C88.9329 153.871 89.0795 154.112 89.0136 154.347C88.907 154.731 88.6668 155.39 88.3339 156.303C86.9086 160.217 83.9432 168.36 84.8447 173.303C84.8885 173.543 84.7202 173.77 84.4693 173.812C84.443 173.816 84.4163 173.818 84.3905 173.818Z" fill="#05C5DA"/>
<path d="M78.7925 175.67C78.6643 175.67 78.5366 175.619 78.4453 175.52C78.2774 175.337 78.2968 175.059 78.4886 174.899C79.4122 174.128 84.3922 171.515 90.1534 173.835C90.3881 173.93 90.4983 174.187 90.3991 174.411C90.3004 174.635 90.0302 174.74 89.7951 174.646C84.443 172.491 79.7903 174.982 79.0959 175.562C79.0083 175.634 78.8999 175.67 78.7925 175.67Z" fill="#05C5DA"/>
<path d="M104.207 147.895C105.963 150.67 109.457 151.195 109.745 152.13C110.033 153.065 108.131 154.935 107.555 155.265C106.978 155.595 104.212 150.205 103.981 149.6C103.75 148.995 104.207 147.895 104.207 147.895Z" fill="url(#paint57_linear)"/>
<path d="M99.3419 142.093C99.3419 142.093 91.3587 144.32 87.4392 149.527C85.2752 152.402 87.9617 157.466 90.8016 161.427C89.8504 162.202 89.3607 163.093 89.3607 163.093L88.9955 164.065C88.7843 166.283 86.2542 173.921 85.3319 176.195C84.9889 177.04 87.3913 180.15 92.6267 180.4C97.2378 180.62 100.312 178.53 100.312 178.53L100.754 168.877C100.754 168.877 100.909 168.273 101.076 167.451C103.306 167.18 105.841 166.345 107.959 164.266C113.261 159.06 102.31 144.375 99.3419 142.093Z" fill="url(#paint58_linear)"/>
<path d="M97.7377 155.467C98.3219 155.09 98.1605 153.927 96.7772 152.607C95.3938 151.287 93.9335 150.113 94.2028 148.72C94.4698 147.338 99.2386 145.865 101.477 144.281C105.154 141.68 106.345 135.373 104.117 134.97C101.059 134.417 100.083 138.417 99.275 138.417C98.3145 138.417 98.806 136.279 97.4282 136.433C95.4321 136.657 94.6634 139.37 93.5111 140.213C91.7838 141.477 82.598 144.173 82.0216 150.7C81.5522 156.013 85.0396 159.034 86.5751 160.93C88.2083 162.946 88.7123 163.983 88.9959 164.065C89.505 164.211 91.7464 163.892 93.6647 163.13C95.7397 162.305 97.0077 161.26 96.6042 160.765C96.2008 160.27 93.1842 159.717 92.973 157.3C92.8194 155.54 94.0681 154.77 95.048 154.935C96.0279 155.1 97.0843 155.889 97.7377 155.467Z" fill="url(#paint59_linear)"/>
<path d="M99.1395 157.245C99.5006 157.256 99.7736 159.592 101.186 159.913C102.127 160.126 105.153 158.125 106.518 157.548C107.346 157.197 108.824 156.957 108.919 157.319C109.014 157.68 109.227 159.006 109.746 160.188C110.184 161.186 111.187 162.104 110.697 164.148C109.977 167.15 104.5 169.401 100.754 168.878C100.667 168.025 100.542 166.703 99.9179 164.313C99.1972 161.554 98.0753 159.042 98.102 158.538C98.1408 157.814 98.5249 157.227 99.1395 157.245Z" fill="url(#paint60_linear)"/>
<path d="M103.155 152.314C102.852 152.314 102.574 152.122 102.489 151.83C102.331 151.284 101.605 150.083 101.46 149.899C101.233 149.611 101.285 149.196 101.584 148.975C101.883 148.754 102.307 148.796 102.543 149.078C102.729 149.299 103.599 150.708 103.822 151.477C103.925 151.828 103.709 152.192 103.341 152.29C103.279 152.306 103.216 152.314 103.155 152.314Z" fill="#0090B2"/>
<path d="M106.763 159.499C106.844 159.63 107.095 159.79 107.319 159.876C107.552 159.967 107.804 160.011 108.045 159.986C108.536 159.945 108.948 159.565 109.202 159.093C109.248 159.006 109.359 158.972 109.45 159.016C109.536 159.058 109.573 159.157 109.536 159.241C109.414 159.514 109.255 159.785 109.021 160.013C108.792 160.243 108.475 160.417 108.133 160.484C107.791 160.552 107.439 160.52 107.116 160.426C106.792 160.318 106.492 160.206 106.207 159.892L106.202 159.886C106.076 159.748 106.092 159.538 106.237 159.418C106.382 159.299 106.602 159.314 106.727 159.452C106.74 159.466 106.752 159.483 106.763 159.499Z" fill="#F1D2F8"/>
<path d="M92.6263 180.4C97.2374 180.62 100.312 178.53 100.312 178.53L100.473 175.013C99.3114 175.609 96.8053 176.634 93.5033 176.476C89.4953 176.285 87.1538 174.42 86.4271 173.176C85.9918 174.453 85.5957 175.544 85.3319 176.195C84.9889 177.041 87.3908 180.15 92.6263 180.4Z" fill="url(#paint61_linear)"/>
<path d="M93.3137 180.856C93.0808 180.856 92.8443 180.851 92.6031 180.839C88.7339 180.655 86.237 178.936 85.2742 177.521C84.88 176.942 84.7476 176.414 84.9012 176.036C84.9934 175.809 85.2604 175.696 85.4974 175.784C85.734 175.871 85.852 176.124 85.7621 176.351C85.7487 176.405 85.7778 176.7 86.1637 177.202C87.109 178.43 89.3094 179.801 92.6488 179.96C97.0492 180.166 100.014 178.191 100.044 178.171C100.251 178.03 100.538 178.076 100.687 178.274C100.834 178.472 100.786 178.746 100.579 178.888C100.455 178.973 97.6315 180.856 93.3137 180.856Z" fill="#05C5DA"/>
<path d="M123.377 250.498C122.07 246.682 120.693 221.903 118.358 204.67C111.879 204.834 106.608 206.383 103.812 207.658C104.471 210.558 105.418 214.352 106.921 219.34C111.033 232.99 116.547 248.545 116.642 251.9C116.699 253.88 114.934 256.203 114.709 259.126C114.558 261.085 115.393 264.275 116.181 264.22C117.181 264.151 117.097 261.247 117.497 259.875C118.131 257.703 119.486 256.96 119.486 256.96C119.486 256.96 122.368 256.967 127.227 256.967C126.545 254.63 123.946 252.161 123.377 250.498Z" fill="url(#paint62_linear)"/>
<path d="M114.259 188.246C109.648 183.553 100.81 188.466 99.9648 194.626C99.784 195.943 101.041 197.487 101.963 199.76C102.51 201.108 102.853 203.433 103.811 207.658C106.607 206.383 111.878 204.834 118.357 204.67C117.242 196.438 115.909 189.925 114.259 188.246Z" fill="url(#paint63_linear)"/>
<path d="M103.812 208.098C103.64 208.098 103.475 208.005 103.396 207.848C103.286 207.628 103.383 207.366 103.613 207.261C105.06 206.601 110.4 204.431 118.345 204.23C118.601 204.231 118.812 204.415 118.818 204.658C118.825 204.901 118.624 205.104 118.37 205.11C112.201 205.265 106.908 206.733 104.011 208.055C103.947 208.084 103.879 208.098 103.812 208.098Z" fill="#05C5DA"/>
<path d="M99.9658 195.067C99.9459 195.067 99.9256 195.065 99.9054 195.063C99.6531 195.032 99.4747 194.811 99.5079 194.57C99.9976 191.002 103.172 187.548 107.057 186.354C109.974 185.458 112.722 186.038 114.596 187.946C114.771 188.124 114.761 188.402 114.576 188.568C114.39 188.735 114.098 188.726 113.924 188.549C111.705 186.29 108.846 186.729 107.339 187.192C103.777 188.287 100.868 191.438 100.423 194.684C100.392 194.905 100.194 195.067 99.9658 195.067Z" fill="#05C5DA"/>
<path d="M253.376 144.312L248.522 143.909L253.018 139.676L253.376 144.312Z" fill="#F95FC3"/>
<path d="M236.225 158.473C236.031 158.473 235.85 158.355 235.787 158.17C233.421 151.271 238.093 146.996 245.832 139.911C247.431 138.449 249.242 136.791 251.114 134.99C262.134 124.39 259.983 113.626 259.061 110.58C258.99 110.347 259.131 110.102 259.376 110.035C259.622 109.969 259.876 110.102 259.947 110.336C260.904 113.499 263.143 124.669 251.769 135.609C249.889 137.418 248.073 139.08 246.471 140.546C238.992 147.391 234.477 151.523 236.663 157.896C236.742 158.127 236.611 158.376 236.368 158.451C236.321 158.466 236.273 158.473 236.225 158.473Z" fill="#1AA9E8"/>
<path d="M258.11 137.886L256.474 136.336C260.661 132.308 263.35 127.822 264.465 123.003L266.716 123.477C265.506 128.709 262.611 133.557 258.11 137.886Z" fill="#00E2EC"/>
<path d="M259.505 112.201C260.513 112.201 261.33 111.421 261.33 110.459C261.33 109.497 260.513 108.718 259.505 108.718C258.497 108.718 257.68 109.497 257.68 110.459C257.68 111.421 258.497 112.201 259.505 112.201Z" fill="#FDE1A7"/>
<path d="M232.073 160.234C232.001 160.234 231.928 160.218 231.86 160.184C231.725 160.116 228.557 158.466 229.312 153.425C229.74 150.569 231.69 148.166 233.756 145.622C236.442 142.315 239.22 138.894 238.838 134.161C238.691 132.328 237.704 130.717 235.907 129.371C226.28 122.166 196.558 124.106 189.006 125.298C188.751 125.335 188.517 125.175 188.476 124.935C188.434 124.695 188.604 124.469 188.856 124.429C196.496 123.224 226.606 121.292 236.476 128.679C238.485 130.182 239.589 132.004 239.758 134.094C240.167 139.165 237.148 142.882 234.485 146.161C232.496 148.61 230.617 150.924 230.225 153.55C229.566 157.948 232.179 159.349 232.29 159.406C232.514 159.522 232.599 159.787 232.479 160.001C232.397 160.149 232.237 160.234 232.073 160.234Z" fill="#1AA9E8"/>
<path d="M224.039 130.437C219.629 129.745 214.369 129.39 208.402 129.382L208.406 127.182C214.496 127.19 219.881 127.555 224.413 128.266L224.039 130.437Z" fill="#C7A0F6"/>
<path d="M188.931 126.604C189.939 126.604 190.756 125.824 190.756 124.862C190.756 123.901 189.939 123.121 188.931 123.121C187.923 123.121 187.105 123.901 187.105 124.862C187.105 125.824 187.923 126.604 188.931 126.604Z" fill="#FDE1A7"/>
<path d="M56.866 165.426L55.1968 169.794L52.0811 164.552L56.866 165.426Z" fill="#F95FC3"/>
<path d="M104.636 201.933C104.272 201.933 103.908 201.931 103.544 201.926C85.1171 201.66 68.7153 194.82 57.36 182.667C44.0039 168.372 37.6641 150.253 40.4003 134.2C42.4551 122.147 49.4243 112.319 60.0248 106.525C60.2456 106.404 60.5274 106.477 60.6542 106.688C60.781 106.9 60.704 107.168 60.4831 107.289C50.1284 112.948 43.3196 122.556 41.3106 134.342C38.6181 150.136 44.875 167.982 58.0484 182.082C81.7758 207.477 124.936 207.526 156.308 182.192C161.734 177.809 166.361 173.289 170.836 168.919C181.48 158.522 190.672 149.542 204.618 149.208C217.646 148.897 224.116 155.315 227.252 160.755C227.375 160.968 227.293 161.236 227.07 161.353C226.846 161.471 226.566 161.392 226.444 161.179C223.431 155.953 217.21 149.79 204.642 150.088C191.07 150.413 181.999 159.274 171.496 169.533C167.006 173.919 162.363 178.453 156.903 182.863C141.647 195.184 123.126 201.933 104.636 201.933Z" fill="#1AA9E8"/>
<path d="M50.3474 160.567C48.1867 154.703 47.0367 148.776 46.9297 142.95L49.2348 142.911C49.3376 148.501 50.4438 154.196 52.5225 159.837L50.3474 160.567Z" fill="#C7A0F6"/>
<path d="M121.13 196.658L120.626 194.511C126.016 193.36 131.349 191.629 136.478 189.365L137.445 191.361C132.169 193.691 126.679 195.473 121.13 196.658Z" fill="#00E2EC"/>
<path d="M60.2548 108.649C61.2627 108.649 62.0798 107.869 62.0798 106.907C62.0798 105.945 61.2627 105.166 60.2548 105.166C59.2468 105.166 58.4297 105.945 58.4297 106.907C58.4297 107.869 59.2468 108.649 60.2548 108.649Z" fill="#FDE1A7"/>
<path d="M214.075 230.89L209.287 231.752L212.418 226.518L214.075 230.89Z" fill="#00E2EC"/>
<path d="M178.84 241.063C178.203 241.063 177.59 241.047 177.003 241.015C176.749 241.002 176.555 240.794 176.569 240.551C176.584 240.308 176.807 240.125 177.056 240.137C185.948 240.618 201.239 237.526 206.919 227.058C209.46 222.374 210.173 215.656 210.927 208.544C212.177 196.758 213.47 184.571 223.072 178.926C223.288 178.798 223.572 178.863 223.706 179.07C223.839 179.277 223.773 179.548 223.555 179.676C214.342 185.092 213.073 197.06 211.845 208.633C211.081 215.831 210.36 222.63 207.737 227.464C202.234 237.606 188.114 241.063 178.84 241.063Z" fill="#1AA9E8"/>
<path d="M215.645 222.375L213.401 221.867C214.342 218.085 214.802 213.75 215.289 209.161C215.426 207.87 215.564 206.57 215.714 205.271L218.006 205.512C217.857 206.805 217.719 208.099 217.583 209.383C217.088 214.047 216.621 218.451 215.645 222.375Z" fill="#F95FC3"/>
<path d="M177.029 242.318C178.037 242.318 178.854 241.538 178.854 240.576C178.854 239.614 178.037 238.834 177.029 238.834C176.021 238.834 175.204 239.614 175.204 240.576C175.204 241.538 176.021 242.318 177.029 242.318Z" fill="#C7A0F6"/>
<defs>
<linearGradient id="paint0_linear" x1="-53.1819" y1="154.796" x2="112.423" y2="394.102" gradientUnits="userSpaceOnUse">
<stop stop-color="#F77F89"/>
<stop offset="1" stop-color="#F7EBFF"/>
</linearGradient>
<linearGradient id="paint1_linear" x1="319.734" y1="348.466" x2="319.734" y2="328.615" gradientUnits="userSpaceOnUse">
<stop stop-color="#F7A3B0"/>
<stop offset="1" stop-color="#FFD8EC"/>
</linearGradient>
<linearGradient id="paint2_linear" x1="147.846" y1="359.264" x2="147.846" y2="341.035" gradientUnits="userSpaceOnUse">
<stop stop-color="#F78E9A"/>
<stop offset="1" stop-color="#F7E5F8"/>
</linearGradient>
<linearGradient id="paint3_linear" x1="153.562" y1="224.36" x2="164.064" y2="235.365" gradientUnits="userSpaceOnUse">
<stop stop-color="#FF57BD"/>
<stop offset="1" stop-color="#FE6A77"/>
</linearGradient>
<linearGradient id="paint4_linear" x1="153.561" y1="240.577" x2="164.063" y2="251.583" gradientUnits="userSpaceOnUse">
<stop stop-color="#FF57BD"/>
<stop offset="1" stop-color="#FE6A77"/>
</linearGradient>
<linearGradient id="paint5_linear" x1="153.562" y1="256.796" x2="164.064" y2="267.802" gradientUnits="userSpaceOnUse">
<stop stop-color="#FF57BD"/>
<stop offset="1" stop-color="#FE6A77"/>
</linearGradient>
<linearGradient id="paint6_linear" x1="107.599" y1="182.4" x2="158.353" y2="249.376" gradientUnits="userSpaceOnUse">
<stop stop-color="#706AED"/>
<stop offset="1" stop-color="#271068"/>
</linearGradient>
<linearGradient id="paint7_linear" x1="147.01" y1="164.817" x2="171.411" y2="164.817" gradientUnits="userSpaceOnUse">
<stop stop-color="white"/>
<stop offset="1" stop-color="#F1D1F8"/>
</linearGradient>
<linearGradient id="paint8_linear" x1="198.884" y1="207.24" x2="198.884" y2="164.56" gradientUnits="userSpaceOnUse">
<stop stop-color="#FDE1A7"/>
<stop offset="1" stop-color="#F9A144"/>
</linearGradient>
<linearGradient id="paint9_linear" x1="191.507" y1="181.353" x2="198.884" y2="181.353" gradientUnits="userSpaceOnUse">
<stop stop-color="#00E2EC"/>
<stop offset="1" stop-color="#0090B2"/>
</linearGradient>
<linearGradient id="paint10_linear" x1="176.636" y1="207.24" x2="176.636" y2="173.91" gradientUnits="userSpaceOnUse">
<stop stop-color="#1AA9E8"/>
<stop offset="0.4223" stop-color="#3D80EF"/>
<stop offset="0.7909" stop-color="#5662F4"/>
<stop offset="1" stop-color="#5F57F6"/>
</linearGradient>
<linearGradient id="paint11_linear" x1="169.258" y1="193.526" x2="176.636" y2="193.526" gradientUnits="userSpaceOnUse">
<stop stop-color="#00E2EC"/>
<stop offset="1" stop-color="#0090B2"/>
</linearGradient>
<linearGradient id="paint12_linear" x1="187.76" y1="207.24" x2="187.76" y2="180.07" gradientUnits="userSpaceOnUse">
<stop stop-color="#FF57BD"/>
<stop offset="1" stop-color="#FE6A77"/>
</linearGradient>
<linearGradient id="paint13_linear" x1="180.382" y1="193.526" x2="187.76" y2="193.526" gradientUnits="userSpaceOnUse">
<stop stop-color="#00E2EC"/>
<stop offset="1" stop-color="#0090B2"/>
</linearGradient>
<linearGradient id="paint14_linear" x1="165.512" y1="207.24" x2="165.512" y2="167.97" gradientUnits="userSpaceOnUse">
<stop stop-color="#C7A0F6"/>
<stop offset="1" stop-color="#FF57BD"/>
</linearGradient>
<linearGradient id="paint15_linear" x1="158.134" y1="182.453" x2="165.512" y2="182.453" gradientUnits="userSpaceOnUse">
<stop stop-color="#00E2EC"/>
<stop offset="1" stop-color="#0090B2"/>
</linearGradient>
<linearGradient id="paint16_linear" x1="154.387" y1="207.24" x2="154.387" y2="187.33" gradientUnits="userSpaceOnUse">
<stop stop-color="#FDE1A7"/>
<stop offset="1" stop-color="#F9A144"/>
</linearGradient>
<linearGradient id="paint17_linear" x1="147.009" y1="199.32" x2="154.387" y2="199.32" gradientUnits="userSpaceOnUse">
<stop stop-color="#00E2EC"/>
<stop offset="1" stop-color="#0090B2"/>
</linearGradient>
<linearGradient id="paint18_linear" x1="15.8814" y1="83.2514" x2="36.2477" y2="143.67" gradientUnits="userSpaceOnUse">
<stop stop-color="#00E2EC"/>
<stop offset="1" stop-color="#0090B2"/>
</linearGradient>
<linearGradient id="paint19_linear" x1="88.7073" y1="81.8406" x2="113.723" y2="81.8406" gradientUnits="userSpaceOnUse">
<stop stop-color="white"/>
<stop offset="1" stop-color="#F1D1F8"/>
</linearGradient>
<linearGradient id="paint20_linear" x1="109.88" y1="133.415" x2="134.473" y2="133.415" gradientUnits="userSpaceOnUse">
<stop stop-color="#FDE1A7"/>
<stop offset="1" stop-color="#F9A144"/>
</linearGradient>
<linearGradient id="paint21_linear" x1="128.708" y1="90.467" x2="189.387" y2="90.467" gradientUnits="userSpaceOnUse">
<stop stop-color="#5A55F8"/>
<stop offset="1" stop-color="#8C6AE2"/>
</linearGradient>
<linearGradient id="paint22_linear" x1="120.129" y1="152.168" x2="199.643" y2="152.168" gradientUnits="userSpaceOnUse">
<stop stop-color="#FF57BD"/>
<stop offset="1" stop-color="#FE6A77"/>
</linearGradient>
<linearGradient id="paint23_linear" x1="137.207" y1="127.234" x2="169.121" y2="127.234" gradientUnits="userSpaceOnUse">
<stop stop-color="#C7A0F6"/>
<stop offset="1" stop-color="#FF57BD"/>
</linearGradient>
<linearGradient id="paint24_linear" x1="154.761" y1="120.844" x2="173.513" y2="120.844" gradientUnits="userSpaceOnUse">
<stop stop-color="#994574"/>
<stop offset="1" stop-color="#43256F"/>
</linearGradient>
<linearGradient id="paint25_linear" x1="134.866" y1="102.994" x2="147.477" y2="116.263" gradientUnits="userSpaceOnUse">
<stop stop-color="#1AA9E8"/>
<stop offset="0.4223" stop-color="#3D80EF"/>
<stop offset="0.7909" stop-color="#5662F4"/>
<stop offset="1" stop-color="#5F57F6"/>
</linearGradient>
<linearGradient id="paint26_linear" x1="153.345" y1="71.3089" x2="189.034" y2="166.606" gradientUnits="userSpaceOnUse">
<stop stop-color="#C91C91"/>
<stop offset="1" stop-color="#FE6A77"/>
</linearGradient>
<linearGradient id="paint27_linear" x1="216.928" y1="74.2141" x2="248.482" y2="74.2141" gradientUnits="userSpaceOnUse">
<stop stop-color="white"/>
<stop offset="1" stop-color="#F1D1F8"/>
</linearGradient>
<linearGradient id="paint28_linear" x1="302.08" y1="105.527" x2="302.08" y2="65.2646" gradientUnits="userSpaceOnUse">
<stop stop-color="#994574"/>
<stop offset="1" stop-color="#9F36AD"/>
</linearGradient>
<linearGradient id="paint29_linear" x1="216.928" y1="105.528" x2="302.08" y2="105.528" gradientUnits="userSpaceOnUse">
<stop stop-color="#FE6A77"/>
<stop offset="1" stop-color="#FF57BD"/>
</linearGradient>
<linearGradient id="paint30_linear" x1="154.451" y1="60.4638" x2="195.183" y2="60.4638" gradientUnits="userSpaceOnUse">
<stop stop-color="#FDE1A7"/>
<stop offset="1" stop-color="#F9A144"/>
</linearGradient>
<linearGradient id="paint31_linear" x1="222.12" y1="186.729" x2="257.89" y2="186.729" gradientUnits="userSpaceOnUse">
<stop stop-color="#00E2EC"/>
<stop offset="1" stop-color="#0090B2"/>
</linearGradient>
<linearGradient id="paint32_linear" x1="211.831" y1="169.507" x2="228.545" y2="197.757" gradientUnits="userSpaceOnUse">
<stop stop-color="#994574"/>
<stop offset="1" stop-color="#43256F"/>
</linearGradient>
<linearGradient id="paint33_linear" x1="256.085" y1="335.928" x2="274.645" y2="335.928" gradientUnits="userSpaceOnUse">
<stop stop-color="#F4BEA3"/>
<stop offset="1" stop-color="#E8878E"/>
</linearGradient>
<linearGradient id="paint34_linear" x1="249.61" y1="340.025" x2="270.92" y2="340.025" gradientUnits="userSpaceOnUse">
<stop stop-color="#706AED"/>
<stop offset="1" stop-color="#271068"/>
</linearGradient>
<linearGradient id="paint35_linear" x1="282.834" y1="336.229" x2="300.406" y2="336.229" gradientUnits="userSpaceOnUse">
<stop stop-color="#F4BEA3"/>
<stop offset="1" stop-color="#E8878E"/>
</linearGradient>
<linearGradient id="paint36_linear" x1="279.261" y1="340.431" x2="300.582" y2="340.431" gradientUnits="userSpaceOnUse">
<stop stop-color="#706AED"/>
<stop offset="1" stop-color="#271068"/>
</linearGradient>
<linearGradient id="paint37_linear" x1="235.586" y1="253.376" x2="284.727" y2="295.289" gradientUnits="userSpaceOnUse">
<stop stop-color="#FF57BD"/>
<stop offset="1" stop-color="#FE6A77"/>
</linearGradient>
<linearGradient id="paint38_linear" x1="247.646" y1="174.848" x2="252.829" y2="174.848" gradientUnits="userSpaceOnUse">
<stop stop-color="#C16846"/>
<stop offset="0.2653" stop-color="#D27565"/>
<stop offset="0.5308" stop-color="#DE7F7B"/>
<stop offset="0.7814" stop-color="#E58589"/>
<stop offset="1" stop-color="#E8878E"/>
</linearGradient>
<linearGradient id="paint39_linear" x1="260.122" y1="198.602" x2="277.606" y2="198.602" gradientUnits="userSpaceOnUse">
<stop stop-color="#FDE1A7"/>
<stop offset="1" stop-color="#F9A144"/>
</linearGradient>
<linearGradient id="paint40_linear" x1="244.017" y1="182.797" x2="266.58" y2="182.797" gradientUnits="userSpaceOnUse">
<stop stop-color="#F4BEA3"/>
<stop offset="1" stop-color="#E8878E"/>
</linearGradient>
<linearGradient id="paint41_linear" x1="265.12" y1="219.132" x2="295.107" y2="219.132" gradientUnits="userSpaceOnUse">
<stop stop-color="#FDE1A7"/>
<stop offset="1" stop-color="#F9A144"/>
</linearGradient>
<linearGradient id="paint42_linear" x1="283.355" y1="170.175" x2="315.776" y2="187.362" gradientUnits="userSpaceOnUse">
<stop stop-color="#5A55F8"/>
<stop offset="1" stop-color="#8C6AE2"/>
</linearGradient>
<linearGradient id="paint43_linear" x1="277.57" y1="176.082" x2="289.559" y2="176.082" gradientUnits="userSpaceOnUse">
<stop stop-color="#F4BEA3"/>
<stop offset="1" stop-color="#E8878E"/>
</linearGradient>
<linearGradient id="paint44_linear" x1="269.531" y1="166.487" x2="290.855" y2="166.487" gradientUnits="userSpaceOnUse">
<stop stop-color="#F4BEA3"/>
<stop offset="1" stop-color="#E8878E"/>
</linearGradient>
<linearGradient id="paint45_linear" x1="269.146" y1="155.867" x2="276.507" y2="155.867" gradientUnits="userSpaceOnUse">
<stop stop-color="#FF57BD"/>
<stop offset="1" stop-color="#EC9895"/>
</linearGradient>
<linearGradient id="paint46_linear" x1="273.923" y1="163.974" x2="297.698" y2="163.974" gradientUnits="userSpaceOnUse">
<stop stop-color="#5A55F8"/>
<stop offset="1" stop-color="#8C6AE2"/>
</linearGradient>
<linearGradient id="paint47_linear" x1="228.054" y1="197.703" x2="244.979" y2="197.703" gradientUnits="userSpaceOnUse">
<stop stop-color="#F4BEA3"/>
<stop offset="1" stop-color="#E8878E"/>
</linearGradient>
<linearGradient id="paint48_linear" x1="240.367" y1="209.114" x2="291.922" y2="209.114" gradientUnits="userSpaceOnUse">
<stop stop-color="#FDE1A7"/>
<stop offset="1" stop-color="#F9A144"/>
</linearGradient>
<linearGradient id="paint49_linear" x1="92.6757" y1="264.17" x2="106.265" y2="294.112" gradientUnits="userSpaceOnUse">
<stop stop-color="#00E2EC"/>
<stop offset="1" stop-color="#0090B2"/>
</linearGradient>
<linearGradient id="paint50_linear" x1="90.4851" y1="263.905" x2="105.022" y2="295.935" gradientUnits="userSpaceOnUse">
<stop stop-color="#706AED"/>
<stop offset="1" stop-color="#271068"/>
</linearGradient>
<linearGradient id="paint51_linear" x1="55.4007" y1="343.006" x2="57.8548" y2="359.153" gradientUnits="userSpaceOnUse">
<stop stop-color="#706AED"/>
<stop offset="1" stop-color="#271068"/>
</linearGradient>
<linearGradient id="paint52_linear" x1="40.7068" y1="391.996" x2="109.723" y2="395.574" gradientUnits="userSpaceOnUse">
<stop stop-color="#994574"/>
<stop offset="1" stop-color="#43256F"/>
</linearGradient>
<linearGradient id="paint53_linear" x1="91.4136" y1="345.703" x2="93.188" y2="360.765" gradientUnits="userSpaceOnUse">
<stop stop-color="#706AED"/>
<stop offset="1" stop-color="#271068"/>
</linearGradient>
<linearGradient id="paint54_linear" x1="55.6407" y1="385.518" x2="140.137" y2="392.014" gradientUnits="userSpaceOnUse">
<stop stop-color="#994574"/>
<stop offset="1" stop-color="#43256F"/>
</linearGradient>
<linearGradient id="paint55_linear" x1="83.4667" y1="155.88" x2="116.296" y2="155.88" gradientUnits="userSpaceOnUse">
<stop stop-color="#F4BEA3"/>
<stop offset="1" stop-color="#E8878E"/>
</linearGradient>
<linearGradient id="paint56_linear" x1="50.2573" y1="225.161" x2="114.518" y2="240.799" gradientUnits="userSpaceOnUse">
<stop stop-color="#1AA9E8"/>
<stop offset="0.4223" stop-color="#3D80EF"/>
<stop offset="0.7909" stop-color="#5662F4"/>
<stop offset="1" stop-color="#5F57F6"/>
</linearGradient>
<linearGradient id="paint57_linear" x1="103.916" y1="155.28" x2="109.775" y2="155.28" gradientUnits="userSpaceOnUse">
<stop stop-color="#EC9895"/>
<stop offset="1" stop-color="#FF57BD"/>
</linearGradient>
<linearGradient id="paint58_linear" x1="77.9649" y1="169.402" x2="103.878" y2="179.17" gradientUnits="userSpaceOnUse">
<stop stop-color="#F4BEA3"/>
<stop offset="1" stop-color="#E8878E"/>
</linearGradient>
<linearGradient id="paint59_linear" x1="81.9784" y1="164.099" x2="105.24" y2="164.099" gradientUnits="userSpaceOnUse">
<stop stop-color="#CB2090"/>
<stop offset="1" stop-color="#43256F"/>
</linearGradient>
<linearGradient id="paint60_linear" x1="93.6022" y1="161.914" x2="102.845" y2="172.149" gradientUnits="userSpaceOnUse">
<stop stop-color="#CB2090"/>
<stop offset="1" stop-color="#43256F"/>
</linearGradient>
<linearGradient id="paint61_linear" x1="85.2996" y1="180.417" x2="100.473" y2="180.417" gradientUnits="userSpaceOnUse">
<stop stop-color="#1AA9E8"/>
<stop offset="0.4223" stop-color="#3D80EF"/>
<stop offset="0.7909" stop-color="#5662F4"/>
<stop offset="1" stop-color="#5F57F6"/>
</linearGradient>
<linearGradient id="paint62_linear" x1="103.812" y1="264.221" x2="127.227" y2="264.221" gradientUnits="userSpaceOnUse">
<stop stop-color="#F4BEA3"/>
<stop offset="1" stop-color="#E8878E"/>
</linearGradient>
<linearGradient id="paint63_linear" x1="99.9472" y1="207.658" x2="118.357" y2="207.658" gradientUnits="userSpaceOnUse">
<stop stop-color="#1AA9E8"/>
<stop offset="0.4223" stop-color="#3D80EF"/>
<stop offset="0.7909" stop-color="#5662F4"/>
<stop offset="1" stop-color="#5F57F6"/>
</linearGradient>
</defs>
</svg>
