<svg width="362" height="359" viewBox="0 0 362 359" fill="none" xmlns="http://www.w3.org/2000/svg">
<path d="M46 13C46 5.82029 51.8203 0 59 0H254C261.18 0 267 5.8203 267 13V208.999C267 216.179 261.18 221.999 254 221.999H59C51.8203 221.999 46 216.179 46 208.999V13Z" fill="#F0F0F0"/>
<path d="M159.662 110.489C161.327 109.6 176.034 103.673 185.978 99.6922C191.387 97.5269 197.61 99.2234 200.582 104.234C203.47 109.105 206.493 115.279 206.833 120.238C207.158 124.965 204.648 132.857 201.977 139.731C199.152 147.001 190.378 149.433 183.869 145.138C171.813 137.181 154.849 125.825 152.302 123.266C148.287 119.227 148.956 116.205 159.662 110.489Z" fill="#C5E1A5"/>
<path d="M46 81.135C46 86.9534 49.8136 92.0083 55.2809 93.9988C108.942 113.535 206.89 179.822 248.211 208.071C256.51 213.745 267 208.127 267 198.074V196.182C267 191.713 264.701 187.552 260.911 185.185C194.237 143.54 156.023 124.637 155.677 118.77C155.165 110.052 242.114 91.0165 263.06 80.3085C265.836 78.889 267 75.9168 267 72.7983V70.1549C267 60.9336 257.674 54.6007 249.05 57.8639C221.487 68.2926 170.261 86.308 147.998 85.1866C130.452 84.3026 87.8961 70.4694 63.4584 62.0729C54.9338 59.1439 46 65.4505 46 74.4642V81.135Z" fill="#64B5F6"/>
<path d="M46 118.516C46 111.916 52.7429 107.502 58.7516 110.233C75.1368 117.679 103.248 130.915 118.218 140.607C146.639 159.008 185.065 185.942 209.66 203.802C218.883 210.499 214.905 222 203.507 222H192.686C189.241 222 185.959 220.654 183.505 218.234C171.552 206.444 135.007 170.84 126.505 167.814C116.303 164.176 103.73 157.491 96.4924 152.86C89.2546 148.235 81.2495 139.657 75.7491 136.685C71.4863 134.374 59.4917 129.885 52.0999 127.195C48.4461 125.866 46 122.404 46 118.516Z" fill="#C5E1A5"/>
<path d="M150.183 188.181C144.615 185.012 139.814 182.28 135.72 180.159C132.215 178.346 127.518 176.039 122.509 173.579C110.937 167.893 96.5415 160.82 93.6255 158.119C89.6005 154.363 67.0271 173.165 46.5022 191.843C46.1818 192.135 46 192.548 46 192.981C46 194.319 47.5906 195.021 48.5835 194.124C64.2029 180.016 80.1954 166.8 87.6437 162.145C90.0294 160.654 92.6822 161.405 95.084 162.87C100.709 166.301 111.068 171.39 121.158 176.348C126.143 178.796 130.821 181.096 134.308 182.897C138.347 184.987 143.136 187.713 148.667 190.864C152.182 192.866 156 195.032 160.078 197.293C164.41 199.694 165.442 205.492 162.126 209.171C159.258 212.353 156.045 215.901 152.849 219.426C151.952 220.415 152.654 221.999 153.989 221.999C154.423 221.999 154.837 221.816 155.129 221.495C158.401 217.889 161.691 214.255 164.611 211.013C168.622 206.561 175.136 205.392 180.502 208.058C190.189 212.871 200.806 217.66 212.185 221.905C212.352 221.967 212.529 221.999 212.706 221.999C214.401 221.999 214.818 219.531 213.23 218.94C187.733 209.45 166.025 197.198 150.183 188.181ZM65.4369 31.3448C65.853 32.0869 66.7925 32.3501 67.5335 31.9322L110.666 7.60929C116.019 4.59035 122.756 5.73307 126.814 10.3486L134.631 19.239C137.726 22.758 136.393 28.2809 132.034 30.0015L127.185 31.9158C126.395 32.2275 126.007 33.1193 126.317 33.9096C126.627 34.703 127.523 35.093 128.316 34.7801L191.355 9.88338C197.579 7.4251 204.653 10.094 207.702 16.0512L210.897 22.2924C211.161 22.8166 211.695 23.1311 212.26 23.1311C212.382 23.1311 212.511 23.1188 212.634 23.0879L243.417 15.3548C246.801 14.5048 250.237 16.5417 251.115 19.9181L252.333 24.6015C252.547 25.4233 253.388 25.9149 254.209 25.698C255.026 25.4823 255.514 24.6469 255.302 23.8295L249.404 1.14919C249.228 0.472419 248.617 0 247.918 0C246.913 0 246.178 0.949631 246.432 1.92238L247.515 6.08494C248.195 8.69837 246.614 11.3651 243.995 12.0233L220.094 18.0298C215.982 19.0631 211.701 17.1224 209.769 13.3489L206.144 6.27037C205.635 5.27633 206.093 4.05996 207.132 3.64969L208.851 2.97065C210.431 2.34673 209.984 0 208.286 0C208.092 0 207.901 0.0365087 207.721 0.107611L152.528 21.9065C147.427 23.9212 141.611 22.518 137.99 18.3991L122.879 1.21219C122.73 1.04208 122.775 0.777414 122.972 0.666576C123.292 0.48718 123.165 0 122.798 0H117.777C117.754 0 117.742 0.0260073 117.756 0.0433779C117.766 0.0561579 117.763 0.0752309 117.748 0.083327L66.0229 29.2534C65.2844 29.6699 65.0223 30.6054 65.4369 31.3448ZM96.0943 42.9711C95.7649 42.1886 94.8668 41.8141 94.0821 42.1383C93.3004 42.4612 92.9267 43.3555 93.254 44.1354C95.4756 49.4285 100.614 61.008 103.632 62.5236C105.744 63.5825 115.272 64.1688 122.724 64.4717C127.867 64.6806 132.233 67.9388 134.942 72.3147C136.145 74.2586 137.407 75.8179 138.709 76.7747C141.079 78.5199 144.977 79.1489 149.367 79.1489C159.895 79.1489 173.278 75.5353 175.328 74.9618C175.347 74.9569 175.359 74.9365 175.372 74.9252C175.378 74.9207 175.385 74.9243 175.386 74.931C175.388 74.9376 175.395 74.9414 175.401 74.9393L230.13 56.9551C230.824 56.727 231.266 56.0363 231.173 55.3025L229.313 39.8718C229.212 39.0289 228.445 38.4288 227.602 38.5329C226.763 38.6365 226.166 39.3995 226.267 40.2388L227.122 47.3368C227.618 51.4559 225.138 55.3528 221.197 56.6479L190.952 66.5853C183.254 69.1147 175.143 64.0614 174.02 56.0364L172.041 41.8988C171.924 41.0596 171.148 40.4745 170.309 40.592C169.47 40.7095 168.885 41.4849 169.003 42.3239L169.489 45.7977C169.907 48.7906 167.617 51.477 164.596 51.5376L135.355 52.1244C132.196 52.1878 129.367 50.1497 128.527 47.1041C127.972 45.0938 127.501 43.2632 127.133 41.7418C126.934 40.9188 126.112 40.403 125.287 40.592C124.461 40.7809 123.945 41.5984 124.145 42.4209C124.508 43.9113 125.133 46.3844 125.973 49.3516C127.651 55.2832 123.216 61.4512 117.062 61.0969C110.873 60.7407 106.01 60.268 105.001 59.761C103.497 58.971 99.3468 50.6961 96.0943 42.9711ZM161.716 54.6872C166.848 54.5844 171.247 58.3337 171.959 63.4173C172.673 68.5093 169.466 73.3583 164.416 74.3261C155.491 76.0368 144.502 77.2303 140.527 74.2958C139.661 73.6582 138.793 72.6487 137.937 71.3648C133.093 64.1024 139.806 55.126 148.533 54.9512L161.716 54.6872ZM267 161.281C267 160.687 266.658 160.146 266.121 159.891L217.737 136.961C214.724 135.533 213.052 132.814 213.831 129.572C214.629 126.255 217.621 122.951 221.033 122.951H224.712C228.676 122.951 232.134 125.387 235.194 127.907C237.031 129.42 239.49 130.715 242.678 131.035C246.297 131.4 257.875 132.627 265.297 133.419C266.209 133.516 267 132.801 267 131.885C267 131.097 266.406 130.435 265.622 130.352C258.191 129.56 246.601 128.329 242.979 127.964C241.457 127.812 240.143 127.369 239.019 126.775C234.904 124.598 235.014 118.524 238.936 116.016C239.947 115.37 241.035 114.924 242.156 114.848C245.672 114.613 257.068 112.865 265.696 111.496C266.445 111.377 266.994 110.731 266.994 109.973C266.994 109.023 266.145 108.299 265.208 108.448C256.628 109.81 245.323 111.54 241.953 111.764C239.178 111.952 236.767 113.527 234.899 115.302C232.248 117.82 228.992 119.855 225.335 119.855H220.969C217.693 119.855 214.89 116.54 213.982 113.392C212.936 109.767 214.964 106.362 218.586 105.306L265.89 91.5161C266.548 91.3243 267 90.7211 267 90.0357C267 89.0077 266.013 88.2675 265.026 88.5554L209.018 104.895C208.57 105.024 208.202 105.363 208.024 105.795C207.852 106.233 207.883 106.726 208.116 107.139C208.159 107.219 212.493 114.909 212.137 121.323C211.824 126.922 209.178 134.698 209.147 134.778C208.889 135.524 209.233 136.338 209.945 136.678L264.803 162.671C265.824 163.155 267 162.411 267 161.281Z" fill="white"/>
<path d="M266.532 177.907C266.441 175.642 265.185 173.585 263.212 172.469L202.536 138.17C198.386 135.827 195.998 131.257 196.44 126.497C197.25 117.728 198.373 104.352 197.993 101.503C197.33 96.5207 192.861 69.1716 192.419 64.4973C191.59 55.6851 198.508 51.0231 204.402 49.0868C209.194 47.5089 247.504 37.8382 261.717 34.2632C264.823 33.4822 267 30.6908 267 27.489C267 22.9326 262.706 19.5975 258.291 20.7255L197.806 36.1805C196.369 36.5475 194.898 36.6676 193.422 36.5332C185.219 35.786 155.988 33.1294 135.671 31.3639C115.713 29.631 100.931 33.1399 86.9648 31.7832C79.171 31.0301 64.0853 25.5954 54.5561 21.9152C50.4682 20.3364 46 23.3342 46 27.7164C46 29.6754 46.9373 31.5083 48.6866 32.3901C56.0709 36.1123 73.5506 42.2823 85.3257 43.7835C98.9663 45.5225 125.916 42.4083 135.075 43.1915C141.407 43.7344 156.115 45.483 167.641 46.8924C174.142 47.6873 179.178 57.4545 180.442 63.8806C182.787 73.8151 186.851 100.103 187.563 104.402C187.999 107.022 186.574 119.368 185.654 126.731C185.212 130.289 183.327 133.477 180.442 135.593L77.2098 211.295C72.5911 214.682 74.9868 222 80.7143 222C81.9526 222 83.1597 221.612 84.1663 220.89L186.617 147.469C188.097 146.409 190.055 146.304 191.645 147.192L256.777 183.873C261.243 186.388 266.736 183.029 266.532 177.907Z" fill="#FFB74D"/>
<path d="M196.433 126.496C196.702 123.594 197.004 120.19 197.274 116.829C197.506 113.945 195.305 111.453 192.416 111.293C189.606 111.136 187.182 113.247 186.891 116.047C186.506 119.767 186.039 123.68 185.659 126.736C185.594 127.284 185.944 127.777 186.496 127.77L195.357 127.646C195.988 127.638 196.373 127.124 196.433 126.496Z" fill="#FFE082"/>
<path d="M244.641 305.118C242.798 303.541 240.782 302.12 238.639 300.869C235.3 298.92 231.659 297.376 227.859 296.241C220.247 293.978 212.032 293.348 204.022 294.322C196.019 295.306 188.166 297.963 181.603 302.391C178.329 304.602 175.388 307.257 173.024 310.319C171.842 311.848 170.809 313.478 169.953 315.187C169.502 316.086 169.104 317.019 168.757 317.963L175.074 319.364C175.778 317.226 176.827 315.18 178.185 313.253C180.025 310.641 182.41 308.285 185.155 306.269C190.655 302.226 197.55 299.56 204.771 298.409C212.001 297.26 219.606 297.556 226.713 299.392C232.375 300.853 237.756 303.321 242.207 306.733L244.641 305.118Z" fill="url(#paint0_linear)"/>
<path d="M202.038 293.549C200.195 291.972 198.178 290.55 196.035 289.3C192.697 287.351 189.055 285.807 185.255 284.672C177.643 282.409 169.428 281.779 161.419 282.753C153.416 283.737 145.563 286.394 138.999 290.822C135.725 293.033 132.784 295.688 130.421 298.75C129.239 300.279 128.205 301.909 127.35 303.618C126.899 304.517 126.5 305.449 126.153 306.394L131.264 307.091C131.968 304.953 133.016 302.906 134.375 300.979C136.215 298.367 138.6 296.012 141.345 293.996C146.845 289.952 153.74 287.286 160.961 286.135C168.191 284.986 175.796 285.283 182.902 287.118C188.565 288.579 193.946 291.048 198.397 294.46L202.038 293.549Z" fill="url(#paint1_linear)"/>
<path d="M286.651 212.241L219.614 198.475C219.614 198.475 212.294 238.894 188.106 248.285C159.682 259.321 133.136 259.321 133.136 259.321L146.859 287.247C146.859 287.247 170.14 301.588 205.804 298.301C263.363 292.995 279.645 247.17 286.651 212.241Z" fill="url(#paint2_linear)"/>
<path d="M71.7969 296.305C70.0738 297.327 53.7733 301.91 50.5966 302.059C47.1861 302.218 36.0361 286.319 36.4013 283.404C36.6262 281.607 38.7608 282.413 40.0716 283.14C41.3825 283.867 48.9205 288.555 52.6411 288.863C57.3559 289.254 63.8236 285.17 63.8236 285.17L71.7969 296.305Z" fill="url(#paint3_linear)"/>
<path d="M48.0453 285.815C48.4399 286.8 46.08 292.694 40.8258 295.71C31.9037 285.783 33.2648 281.045 33.2648 281.045C33.2648 281.045 33.9225 280.529 35.3174 280.739C37.0381 280.999 48.0453 285.815 48.0453 285.815Z" fill="url(#paint4_linear)"/>
<path d="M33.7739 280.812C33.9738 284.44 37.2616 289.686 40.8896 294.767C43.9932 299.114 46.721 302.544 46.7922 302.732C46.8634 302.92 45.2139 303.596 44.5201 303.189C43.8258 302.783 40.6861 298.772 37.0383 292.694C33.2506 286.383 32.3544 283.613 32.4787 282.26C32.6034 280.908 33.7739 280.812 33.7739 280.812Z" fill="url(#paint5_linear)"/>
<path d="M172.803 237.231C172.803 237.231 124.119 258.794 104.444 266.835C86.3442 274.232 59.487 285.894 59.3953 286.677C59.3036 287.459 67.5813 297.651 70.5236 297.831C76.2886 298.183 116.645 281.981 128.712 279.045C138.353 276.7 184.554 265.852 191.291 264.876C187.654 259.437 172.803 237.231 172.803 237.231Z" fill="url(#paint6_linear)"/>
<path d="M66.3309 295.402C66.1616 295.402 66.0043 295.308 65.9488 295.16C65.8796 294.975 65.9947 294.776 66.2058 294.715C68.5355 294.046 107.112 281.529 117.677 277.084C117.878 276.999 118.118 277.073 118.214 277.249C118.31 277.424 118.226 277.634 118.026 277.719C107.436 282.174 68.7897 294.714 66.4564 295.384C66.4146 295.397 66.3724 295.402 66.3309 295.402Z" fill="#00E2EC"/>
<path d="M229.105 203.073C223.373 202.055 216.003 200.757 210.727 201.849C197.961 204.492 190.723 222.535 179.458 225.038C172.803 226.517 158.149 223.502 146.909 221.481L144.86 231.527C156.58 235.506 169.753 239.509 176.676 240.036C188.24 240.917 233.314 203.82 229.105 203.073Z" fill="url(#paint7_linear)"/>
<path d="M136.856 219.96C126.8 219.08 123.278 221.829 121.672 223.13C121.672 223.13 132.451 227.315 144.86 231.528L146.909 221.481C142.978 220.775 139.461 220.188 136.856 219.96Z" fill="url(#paint8_linear)"/>
<path d="M131.346 223.535C131.305 223.535 131.264 223.524 131.229 223.502C131.139 223.445 131.119 223.334 131.184 223.256C132.225 221.997 135.534 222.23 138.195 222.417C139.185 222.487 140.039 222.547 140.597 222.514C140.706 222.507 140.804 222.581 140.811 222.679C140.819 222.776 140.735 222.86 140.624 222.866C140.037 222.9 139.169 222.838 138.163 222.768C135.739 222.598 132.418 222.363 131.51 223.462C131.47 223.51 131.409 223.535 131.346 223.535Z" fill="#C66C50"/>
<path d="M144.861 231.88C144.838 231.88 144.814 231.879 144.79 231.875C144.571 231.841 144.425 231.658 144.464 231.466L146.513 221.42C146.552 221.228 146.761 221.101 146.98 221.135C147.199 221.169 147.344 221.352 147.305 221.543L145.256 231.59C145.222 231.761 145.052 231.88 144.861 231.88Z" fill="#FDE1A7"/>
<path d="M155.207 291.682C155.932 293.183 163.553 303.217 163.151 305.683C162.719 308.33 142.527 318.18 139.671 317.394C137.912 316.91 139.269 315.193 140.224 314.312C141.18 313.432 148.52 306.871 147.766 302.909C147.36 300.774 143.945 296.129 143.945 296.129L155.207 291.682Z" fill="url(#paint9_linear)"/>
<path d="M143.392 307.62C144.448 307.488 150.582 309.689 152.693 313.784C141.205 318.913 136.051 318.143 136.051 318.143C136.051 318.143 135.649 317.548 136.102 316.513C136.66 315.237 143.392 307.62 143.392 307.62Z" fill="url(#paint10_linear)"/>
<path d="M135.888 317.439C137.183 317.438 145.222 315.28 150.981 313.475C156.74 311.67 164.735 308.148 164.936 308.126C165.137 308.103 165.565 309.226 165.037 309.689C164.508 310.151 154.688 314.591 148.093 316.667C141.869 318.627 138.465 319.287 137.132 318.957C135.8 318.626 135.888 317.439 135.888 317.439Z" fill="url(#paint11_linear)"/>
<path d="M118.119 221.751C105.08 223.219 104.377 236.103 107.259 243.824C112.32 257.384 141.047 296.495 142.118 297.597C143.685 299.209 157.001 293.135 157.537 292.078C158.073 291.022 149.659 274.54 145.47 267.423C140.51 258.995 130.856 244.293 130.856 244.293C130.856 244.293 165.112 286.002 200.441 280.22C200.774 280.166 201.105 280.106 201.437 280.049L172.802 237.231C165.356 236.379 132.005 220.188 118.119 221.751Z" fill="url(#paint12_linear)"/>
<path d="M194.767 272.481C181.967 272.481 161.982 262.171 136.802 242.55C136.17 242.058 135.725 241.711 135.492 241.54C135.321 241.415 135.299 241.192 135.442 241.043C135.584 240.894 135.837 240.875 136.008 241C136.245 241.174 136.696 241.525 137.337 242.024C170.1 267.553 187.364 272.271 196.085 271.737C196.311 271.719 196.499 271.869 196.514 272.063C196.53 272.257 196.363 272.426 196.141 272.439C195.693 272.467 195.234 272.481 194.767 272.481Z" fill="#00E2EC"/>
<path d="M122.879 245.144C122.728 245.144 122.584 245.07 122.515 244.943C121.923 243.849 120.121 240.518 121.7 238.184C122.591 236.866 124.4 236.127 127.078 235.987C127.301 235.976 127.491 236.124 127.504 236.318C127.517 236.512 127.348 236.679 127.126 236.691C124.732 236.815 123.139 237.439 122.392 238.543C121.49 239.878 121.776 241.93 123.243 244.642C123.338 244.817 123.252 245.027 123.051 245.11C122.995 245.133 122.937 245.144 122.879 245.144Z" fill="#00FFFF"/>
<path d="M153.038 294.973C152.879 294.973 152.728 294.889 152.665 294.751C148.871 286.449 130.626 255.166 128.271 251.938C128.152 251.774 128.207 251.557 128.394 251.452C128.581 251.347 128.83 251.395 128.949 251.559C131.312 254.797 149.608 286.166 153.411 294.49C153.494 294.67 153.394 294.875 153.187 294.948C153.139 294.964 153.088 294.973 153.038 294.973Z" fill="#00FFFF"/>
<path d="M180.375 269.315C180.362 269.315 180.349 269.314 180.335 269.313C180.115 269.294 179.953 269.122 179.975 268.928C180.231 266.644 182.776 261.956 187.424 259.147C187.608 259.037 187.857 259.077 187.984 259.237C188.11 259.397 188.064 259.617 187.881 259.727C183.283 262.505 180.985 267.135 180.775 268.997C180.755 269.179 180.58 269.315 180.375 269.315Z" fill="#00E2EC"/>
<path d="M259.97 228.795C260.138 214.589 242.742 206.928 234.228 204.257C232.87 203.831 225.838 202.166 219.805 201.813C213.771 201.461 207.389 208.14 201.245 217.407C194.475 227.621 183.349 238.189 172.956 237.249C172.908 237.244 172.853 237.236 172.803 237.231L201.437 280.048C237.293 273.814 259.719 250.054 259.97 228.795Z" fill="url(#paint13_linear)"/>
<path d="M201.438 280.4C201.299 280.4 201.165 280.338 201.09 280.226L172.456 237.409C172.343 237.241 172.408 237.025 172.599 236.927C172.791 236.828 173.037 236.885 173.149 237.053L201.784 279.87C201.896 280.038 201.832 280.254 201.64 280.352C201.576 280.385 201.506 280.4 201.438 280.4Z" fill="white"/>
<path d="M226.93 171.067C226.204 170.963 226.988 173.465 225.849 173.701C224.541 173.973 222.857 173.422 222.698 175.903C222.592 177.568 223.235 180.247 223.503 180.746C223.771 181.245 232.083 177.4 232.083 176.607C232.083 176.255 227.354 171.128 226.93 171.067Z" fill="url(#paint14_linear)"/>
<path d="M226.653 199.15C226.188 200.167 222.966 207.603 222.966 208.072C222.966 208.542 224.39 212.343 230.248 212.387C235.779 212.429 238.183 209.658 238.384 209.012C238.585 208.366 239.508 193.811 239.508 193.811C239.508 193.811 233.557 194.746 231.278 195.803C228.999 196.86 226.653 199.15 226.653 199.15Z" fill="url(#paint15_linear)"/>
<path d="M240.859 191.925C241.116 191.477 241.328 191.031 241.484 190.594C242.027 189.079 246.361 183.946 241.484 179.103C236.608 174.26 230.277 174.567 230.277 174.567C219.413 178.178 216.761 193.731 220.569 197.638C224.885 202.067 231.846 200.1 236.616 196.505C237.292 197.034 238.232 197.363 239.274 197.363C241.33 197.363 242.996 196.084 242.996 194.507C242.997 193.365 242.121 192.382 240.859 191.925Z" fill="url(#paint16_linear)"/>
<path d="M229.237 182.311C228.217 182.804 221.251 186.963 221.357 188.318C221.462 189.674 224.101 189.458 225.578 189.273C227.056 189.089 229.87 183.038 229.87 182.619C229.87 182.141 229.237 182.311 229.237 182.311Z" fill="url(#paint17_linear)"/>
<path d="M222.178 191.672C222.806 192.729 226.301 193.5 227.633 193.544C227.356 194.072 225.56 196.046 223.41 195.437C220.921 194.732 222.178 191.672 222.178 191.672Z" fill="white"/>
<path d="M231.83 187.732C231.701 187.732 231.569 187.707 231.444 187.655C230.992 187.468 230.799 186.995 231.013 186.6C231.558 185.593 232.848 184.518 233.463 184.249C233.909 184.054 234.453 184.212 234.677 184.603C234.901 184.995 234.719 185.47 234.273 185.667C234.025 185.779 233.024 186.585 232.649 187.278C232.494 187.564 232.169 187.732 231.83 187.732Z" fill="#0090B2"/>
<path d="M224.419 183.771C224.304 183.771 224.186 183.749 224.075 183.703C223.674 183.536 223.503 183.116 223.693 182.764C224.104 182.004 225.13 181.088 225.704 180.836C226.102 180.662 226.585 180.804 226.784 181.151C226.982 181.499 226.822 181.922 226.425 182.096C226.221 182.191 225.444 182.819 225.147 183.367C225.009 183.622 224.72 183.771 224.419 183.771Z" fill="#0090B2"/>
<path d="M242.289 173.555C241.283 172.762 241.477 170.347 239.825 169.724C238.149 169.093 235.898 170.339 234.797 169.856C233.926 169.475 233.792 167.787 233.44 166.686C233.088 165.586 232.317 164.28 230.775 164.397C226.086 164.754 225.05 170.776 228.671 175.214C232.418 179.807 241.334 180.482 241.233 186.088C241.178 189.17 236.775 190.373 237.651 191.938C238.512 193.474 240.773 191.982 240.852 191.928C240.854 191.926 240.856 191.922 240.857 191.921C241.806 192.263 242.536 192.904 242.841 193.686C245.252 192.53 250.182 189.565 250.384 184.562C250.655 177.841 243.294 174.347 242.289 173.555Z" fill="url(#paint18_linear)"/>
<path d="M172.905 200.368C172.905 199.796 172.754 193.368 173.358 193.103C173.961 192.839 182.641 195.283 183.313 197.33C184.042 199.554 183.67 214.658 182.508 215.367C180.849 216.379 173.342 212.289 173.041 210.836C172.739 209.383 172.905 200.368 172.905 200.368Z" fill="url(#paint19_linear)"/>
<path d="M170.255 190.612L168.85 189.925C170.182 187.835 172.419 186.588 174.833 186.588C176.035 186.588 177.225 186.902 178.272 187.496L177.397 188.678C176.6 188.226 175.737 187.996 174.833 187.996C173.01 187.997 171.298 188.974 170.255 190.612Z" fill="#FF9BBB"/>
<path d="M167.835 186.449L166.164 185.84C167.29 183.474 169.529 181.863 172.307 181.422C174.81 181.025 177.247 181.667 178.826 183.141L177.506 184.225C176.366 183.161 174.499 182.685 172.63 182.982C170.468 183.325 168.72 184.589 167.835 186.449Z" fill="#FF9BBB"/>
<path d="M164.311 181.03L162.316 179.839C165.05 176.328 169.104 174.314 173.441 174.314C175.406 174.314 177.31 174.721 179.1 175.524L178 177.405C176.554 176.756 175.02 176.428 173.441 176.428C169.915 176.428 166.588 178.105 164.311 181.03Z" fill="#FF9BBB"/>
<path d="M187.862 220.247C187.862 220.247 187.862 220.246 187.861 220.245C186.414 217.42 185.524 210.332 185.39 207.485C185.256 204.638 184.821 204.127 184.15 204.11C183.287 204.088 182.91 204.682 182.483 206.443C182.085 208.083 182.307 211.947 181.351 212.211C180.396 212.475 176.474 205.883 175.469 203.625C174.312 201.028 174.211 198.774 173.076 198.725C172.368 198.694 172.239 199.534 172.201 200.786C172.166 201.931 172.553 203.934 172.553 203.934C172.553 203.934 171.765 204.081 171.597 205.167C171.347 206.788 171.849 208.381 171.849 208.381C171.849 208.381 171.336 209.19 171.622 211.022C172.05 213.752 173.547 216.607 175.502 219.344C175.956 219.979 176.791 222.389 177.794 225.39C179.842 225.178 183.357 224.205 187.862 220.247Z" fill="url(#paint20_linear)"/>
<path d="M175.117 208.909C175.055 208.909 174.994 208.884 174.954 208.837C174.122 207.834 172.565 204.39 172.307 203.687C172.273 203.594 172.331 203.495 172.436 203.466C172.543 203.436 172.655 203.487 172.689 203.579C172.935 204.248 174.485 207.674 175.279 208.63C175.345 208.709 175.325 208.819 175.235 208.876C175.2 208.899 175.159 208.909 175.117 208.909Z" fill="#C66C50"/>
<path d="M173.306 211.374C173.256 211.374 173.205 211.357 173.166 211.323C172.921 211.109 171.853 209.295 171.652 208.415C171.631 208.319 171.701 208.227 171.81 208.208C171.919 208.187 172.025 208.25 172.047 208.346C172.246 209.221 173.287 210.928 173.45 211.074C173.527 211.143 173.527 211.255 173.448 211.323C173.408 211.357 173.357 211.374 173.306 211.374Z" fill="#C66C50"/>
<path d="M247.366 222.514C229.669 221.809 213.564 244.88 208.418 244.528C205.837 244.352 191.46 227.272 187.863 220.248C183.358 224.205 179.843 225.178 177.795 225.39C179.05 229.146 180.569 233.828 181.939 237.131C186.832 248.93 192.664 259.908 203.021 262.931C216.029 266.728 231.479 258.793 241.936 250.163C252.394 241.534 265.064 223.218 247.366 222.514Z" fill="url(#paint21_linear)"/>
<path d="M210.152 264.272C207.727 264.272 205.294 263.966 202.894 263.266C192.35 260.188 186.41 248.944 181.56 237.252C180.358 234.354 179.049 230.418 177.893 226.946L177.408 225.49C177.374 225.39 177.393 225.283 177.459 225.196C177.524 225.11 177.629 225.053 177.747 225.041C179.863 224.822 183.286 223.769 187.577 220C187.671 219.918 187.804 219.881 187.934 219.902C188.065 219.923 188.175 219.998 188.229 220.104C192.021 227.507 206.294 244.03 208.449 244.178C210.071 244.295 213.426 241.351 217.295 237.948C225.093 231.091 235.772 221.707 247.384 222.163C250.786 222.298 253.286 223.09 254.814 224.515C254.967 224.657 254.958 224.88 254.797 225.013C254.635 225.147 254.38 225.139 254.228 224.997C252.848 223.71 250.533 222.994 247.348 222.867C236.093 222.409 225.557 231.681 217.866 238.445C213.528 242.261 210.394 245.008 208.387 244.88C205.565 244.687 191.583 227.901 187.738 220.851C183.767 224.227 180.497 225.36 178.31 225.683L178.666 226.75C179.818 230.211 181.123 234.135 182.316 237.012C187.097 248.538 192.929 259.615 203.148 262.599C219.007 267.228 236.635 254.055 241.66 249.908C243.66 248.258 245.708 246.279 247.581 244.184C247.718 244.031 247.971 244.004 248.145 244.124C248.321 244.244 248.351 244.465 248.214 244.618C246.316 246.74 244.241 248.747 242.212 250.421C237.857 254.014 224.179 264.271 210.152 264.272Z" fill="white"/>
<path d="M219.401 282.456C220.762 279.653 222.658 277.066 224.941 274.802C227.223 272.534 229.89 270.59 232.782 268.997C235.676 267.402 238.796 266.154 242.013 265.231C244.889 264.404 247.852 263.828 250.845 263.496C250.808 262.88 250.639 262.304 250.319 261.784C247.658 257.454 235.679 258.725 225.477 263.517C215.1 268.39 210.226 275.295 212.887 279.625C213.993 281.424 216.277 282.445 219.296 282.684C219.333 282.608 219.364 282.531 219.401 282.456Z" fill="url(#paint22_linear)"/>
<path d="M250.308 262.594C246.952 262.9 243.629 263.513 240.411 264.439C237.194 265.362 234.075 266.609 231.181 268.204C228.289 269.798 225.622 271.742 223.339 274.009C221.056 276.273 219.161 278.86 217.8 281.664C216.435 284.465 215.61 287.481 215.397 290.538C215.246 292.657 215.402 294.802 215.829 296.895C217.165 296.64 218.471 296.359 219.756 296.057C219.37 294.297 219.209 292.508 219.292 290.714C219.415 288.047 220.073 285.396 221.219 282.905C222.361 280.412 223.987 278.082 225.988 276.015C227.986 273.945 230.357 272.14 232.967 270.636C238.197 267.628 244.356 265.814 250.637 265.12C255.624 264.581 260.749 264.75 265.639 265.749C266.12 265.083 266.592 264.412 267.053 263.735C261.616 262.42 255.902 262.093 250.308 262.594Z" fill="url(#paint23_linear)"/>
<path d="M327.967 293.733H292.1L297.695 321.855C303.886 318.836 309.712 315.07 314.94 310.393C320.804 305.146 325.024 299.525 327.967 293.733Z" fill="url(#paint24_linear)"/>
<path d="M310.832 284.974C300.461 284.974 292.054 289.178 292.054 294.362C292.054 299.548 300.461 303.751 310.832 303.751C315.562 303.751 319.881 302.874 323.182 301.431C325.521 298.291 327.401 295.068 328.895 291.798C326.663 287.86 319.424 284.974 310.832 284.974Z" fill="#FF9BBB"/>
<path d="M310.832 301.305C319.227 301.305 326.033 298.005 326.033 293.934C326.033 289.863 319.227 286.563 310.832 286.563C302.437 286.563 295.631 289.863 295.631 293.934C295.631 298.005 302.437 301.305 310.832 301.305Z" fill="url(#paint25_linear)"/>
<path d="M318.812 221.967C319.383 223.041 318.532 224.094 316.927 224.67C315.104 225.324 313.717 225.213 313.098 226.653C312.478 228.093 312.923 229.748 311.832 229.738C310.742 229.728 308.925 225.787 310.938 222.9C312.969 219.988 317.508 219.517 318.812 221.967Z" fill="url(#paint26_linear)"/>
<path d="M308.349 279.53C307.467 277.406 298.48 266.301 282.711 265.239C268.467 264.279 262.84 270.002 264.241 272.529C265.178 274.219 268.541 273.736 269.92 273.398C271.298 273.06 273.716 271.85 275.323 272.577C276.923 273.302 276.732 275.155 278.356 275.86C281.267 277.124 284.264 275.013 286.736 274.17C289.713 273.157 294.731 272.239 298.314 275.136C302.702 278.683 303.619 281.749 304.992 287.133C306.364 292.517 307.013 295.181 307.302 295.51C307.66 295.921 308.239 296.38 309.783 295.849C311.326 295.317 309.341 288.414 309.507 285.613C309.672 282.812 308.349 279.53 308.349 279.53Z" fill="url(#paint27_linear)"/>
<path d="M304.709 295.607C304.696 295.112 302.724 291.873 302.339 288.8C301.836 284.793 299.553 280.572 297.487 278.95C295.005 277.003 291.807 276.066 290.429 277.55C289.234 278.838 290.411 281.187 291.808 282.378C293.596 283.902 301.795 288.111 300.372 290.425C299.6 291.68 298.191 289.826 297.542 288.945C296.402 287.399 294.48 285.882 293.278 286.563C292.029 287.271 292.432 289.46 295.153 290.843C297.815 292.198 300.182 293.319 301.328 294.448C302.411 295.516 301.364 295.478 301.953 296.09C302.63 296.794 304.747 296.927 304.709 295.607Z" fill="url(#paint28_linear)"/>
<path d="M316.289 295.559C315.567 295.183 316.234 291.793 317.612 290.103C318.991 288.413 321.582 287.592 321.582 286.385C321.582 285.178 320.899 284.114 321.692 282.619C322.409 281.267 325.22 281.799 325.331 279.626C325.441 277.453 324.18 274.775 323.215 270.046C322.353 265.818 323.138 264.36 324.394 263.693C325.937 262.873 326.268 260.893 325.11 258.093C324.304 256.144 324.762 243.872 329.686 243.56C333.876 243.295 335.604 249.832 335.641 253.168C335.696 258.069 333.537 259.288 334.373 261.81C335.365 264.804 336.726 265.222 337.019 268.522C337.262 271.24 337.24 274.943 330.734 281.896C324.577 288.475 320.524 291.299 319.431 292.662C318.09 294.336 317.557 296.219 316.289 295.559Z" fill="url(#paint29_linear)"/>
<path d="M310.886 295.317C310.886 292.903 309.672 285.081 312.209 280.929C314.745 276.777 316.178 272.528 314.966 267.893C313.753 263.258 307.799 254.326 308.239 251.236C308.68 248.146 310.5 242.932 307.247 232.841C304.783 225.2 299.193 220.013 295.338 222.122C292.691 223.571 293.905 228.978 295.228 231.006C296.551 233.034 298.85 236.573 298.409 238.6C297.968 240.628 296.517 240.849 296.64 243.602C296.882 249.015 305.538 257.319 307.578 264.707C309.271 270.836 309.894 278.225 308.129 278.515C306.365 278.804 308.249 293.346 309.071 294.838C309.893 296.331 310.886 295.317 310.886 295.317Z" fill="url(#paint30_linear)"/>
<path d="M316.215 230.686C314.561 231.651 314.377 233.968 315.038 235.578C315.7 237.187 316.309 237.93 316.141 238.99C315.957 240.148 313.421 240.535 312.613 242.916C311.804 245.299 313.127 250.062 314.524 253.474C315.921 256.886 315.553 259.397 314.156 259.59C312.76 259.783 311.51 258.109 311.068 256.049C310.628 253.989 310.839 244.915 304.6 246.521C302.101 247.165 302.284 250.866 303.865 253.474C305.083 255.484 309.194 259.879 311.289 265.833C313.228 271.342 314.752 275.714 310.922 276.391C307.65 276.97 305.85 273.752 305.408 271.692C304.967 269.632 303.469 262.546 296.219 263.774C292.801 264.353 294.936 271.622 299.968 275.426C303.4 278.019 307.758 281.249 309.01 285.726C310.37 290.585 308.422 295.575 309.231 296.54C310.04 297.506 313.201 296.927 313.127 296.283C313.053 295.64 312.245 294.352 313.79 293.257C315.333 292.163 318.923 290.65 321.361 289.137C323.798 287.626 323.566 285.275 322.316 284.438C321.067 283.601 319.624 284.654 319.082 285.211C318.016 286.305 315.553 292.952 312.613 291.197C310.741 290.081 313.738 284.611 315.847 282.12C319.008 278.386 326.102 276.97 330.109 272.271C332.933 268.959 331.274 265.243 329.374 264.61C326.764 263.741 324.372 265.811 323.851 267.902C323.152 270.701 321.743 275.15 317.979 272.657C313.605 269.76 320.19 264.304 323.419 261.199C329.41 255.437 332.277 246.392 327.095 244.977C324.787 244.346 322.868 247.165 322.316 250.384C321.684 254.078 318.581 265.9 315.847 264.546C314.156 263.709 317.906 260.877 318.053 258.495C318.199 256.113 317.832 252.701 319.155 249.676C320.478 246.65 323.953 238.643 322.095 233.904C320.405 229.59 316.951 230.256 316.215 230.686Z" fill="url(#paint31_linear)"/>
<path d="M279.761 278.636C278.245 279.264 278.769 281.268 281.546 283.047C284.172 284.73 287.939 284.795 288.032 283.912C288.125 283.028 286.011 282.975 284.283 281.533C282.554 280.091 281.78 277.801 279.761 278.636Z" fill="url(#paint32_linear)"/>
<ellipse cx="149.5" cy="60.5" rx="21.5" ry="19.5" fill="#F77F89" fill-opacity="0.44"/>
<path d="M149 19C140.163 19 133 26.163 133 35C133 47 149 61 149 61C149 61 165 47 165 35C165 26.163 157.837 19 149 19Z" fill="#F1636F"/>
<path d="M149 24C146.083 24 143.285 25.1589 141.222 27.2218C139.159 29.2847 138 32.0826 138 35C138 37.9174 139.159 40.7153 141.222 42.7782C143.285 44.8411 146.083 46 149 46C151.917 46 154.715 44.8411 156.778 42.7782C158.841 40.7153 160 37.9174 160 35C160 32.0826 158.841 29.2847 156.778 27.2218C154.715 25.1589 151.917 24 149 24Z" fill="#F5F5F5"/>
<path d="M154 32.286V29H152V30.571L149 28L142 34H143V41H147V36H151V41H155V34H156L154 32.286Z" fill="#1976D2"/>
<defs>
<linearGradient id="paint0_linear" x1="168.757" y1="319.364" x2="244.641" y2="319.364" gradientUnits="userSpaceOnUse">
<stop stop-color="#FFE2A8"/>
<stop offset="0.4181" stop-color="#97E2C4"/>
<stop offset="1" stop-color="#00E2EC"/>
</linearGradient>
<linearGradient id="paint1_linear" x1="126.154" y1="307.09" x2="202.038" y2="307.09" gradientUnits="userSpaceOnUse">
<stop stop-color="#FFE2A8"/>
<stop offset="0.4181" stop-color="#97E2C4"/>
<stop offset="1" stop-color="#00E2EC"/>
</linearGradient>
<linearGradient id="paint2_linear" x1="133.136" y1="298.791" x2="286.651" y2="298.791" gradientUnits="userSpaceOnUse">
<stop stop-color="#994574"/>
<stop offset="1" stop-color="#43256F"/>
</linearGradient>
<linearGradient id="paint3_linear" x1="36.3925" y1="302.06" x2="71.7969" y2="302.06" gradientUnits="userSpaceOnUse">
<stop stop-color="#F4BEA3"/>
<stop offset="1" stop-color="#E8878E"/>
</linearGradient>
<linearGradient id="paint4_linear" x1="33.1904" y1="295.71" x2="48.0876" y2="295.71" gradientUnits="userSpaceOnUse">
<stop stop-color="#FE6A77"/>
<stop offset="1" stop-color="#C91C91"/>
</linearGradient>
<linearGradient id="paint5_linear" x1="32.4676" y1="303.317" x2="46.7942" y2="303.317" gradientUnits="userSpaceOnUse">
<stop stop-color="#994574"/>
<stop offset="1" stop-color="#43256F"/>
</linearGradient>
<linearGradient id="paint6_linear" x1="59.3943" y1="297.836" x2="191.291" y2="297.836" gradientUnits="userSpaceOnUse">
<stop stop-color="#05C5DA"/>
<stop offset="1" stop-color="#5860C4"/>
</linearGradient>
<linearGradient id="paint7_linear" x1="138.892" y1="209.086" x2="146.881" y2="242.598" gradientUnits="userSpaceOnUse">
<stop stop-color="#F9A144"/>
<stop offset="1" stop-color="#FDE1A7"/>
</linearGradient>
<linearGradient id="paint8_linear" x1="121.672" y1="231.528" x2="146.909" y2="231.528" gradientUnits="userSpaceOnUse">
<stop stop-color="#F4BEA3"/>
<stop offset="1" stop-color="#E8878E"/>
</linearGradient>
<linearGradient id="paint9_linear" x1="138.818" y1="317.438" x2="163.166" y2="317.438" gradientUnits="userSpaceOnUse">
<stop stop-color="#F4BEA3"/>
<stop offset="1" stop-color="#E8878E"/>
</linearGradient>
<linearGradient id="paint10_linear" x1="135.887" y1="318.184" x2="152.693" y2="318.184" gradientUnits="userSpaceOnUse">
<stop stop-color="#FE6A77"/>
<stop offset="1" stop-color="#C91C91"/>
</linearGradient>
<linearGradient id="paint11_linear" x1="135.887" y1="319.038" x2="165.291" y2="319.038" gradientUnits="userSpaceOnUse">
<stop stop-color="#994574"/>
<stop offset="1" stop-color="#43256F"/>
</linearGradient>
<linearGradient id="paint12_linear" x1="105.869" y1="297.867" x2="201.437" y2="297.867" gradientUnits="userSpaceOnUse">
<stop stop-color="#00E2EC"/>
<stop offset="1" stop-color="#0090B2"/>
</linearGradient>
<linearGradient id="paint13_linear" x1="170.569" y1="240.243" x2="214.129" y2="287.581" gradientUnits="userSpaceOnUse">
<stop stop-color="#FDE1A7"/>
<stop offset="1" stop-color="#F9A144"/>
</linearGradient>
<linearGradient id="paint14_linear" x1="222.687" y1="180.79" x2="232.083" y2="180.79" gradientUnits="userSpaceOnUse">
<stop stop-color="#C5188E"/>
<stop offset="1" stop-color="#9F36AD"/>
</linearGradient>
<linearGradient id="paint15_linear" x1="222.966" y1="212.388" x2="239.508" y2="212.388" gradientUnits="userSpaceOnUse">
<stop stop-color="#E8878E"/>
<stop offset="1" stop-color="#E8878E"/>
</linearGradient>
<linearGradient id="paint16_linear" x1="218.928" y1="200.189" x2="243.778" y2="200.189" gradientUnits="userSpaceOnUse">
<stop stop-color="#F4BEA3"/>
<stop offset="1" stop-color="#E8878E"/>
</linearGradient>
<linearGradient id="paint17_linear" x1="221.355" y1="189.41" x2="229.87" y2="189.41" gradientUnits="userSpaceOnUse">
<stop stop-color="#FF57BD"/>
<stop offset="1" stop-color="#EFA69A"/>
</linearGradient>
<linearGradient id="paint18_linear" x1="226.496" y1="193.686" x2="250.391" y2="193.686" gradientUnits="userSpaceOnUse">
<stop stop-color="#CB2090"/>
<stop offset="1" stop-color="#43256F"/>
</linearGradient>
<linearGradient id="paint19_linear" x1="172.859" y1="215.526" x2="183.687" y2="215.526" gradientUnits="userSpaceOnUse">
<stop stop-color="#994574"/>
<stop offset="1" stop-color="#43256F"/>
</linearGradient>
<linearGradient id="paint20_linear" x1="171.528" y1="225.39" x2="187.862" y2="225.39" gradientUnits="userSpaceOnUse">
<stop stop-color="#F4BEA3"/>
<stop offset="1" stop-color="#E8878E"/>
</linearGradient>
<linearGradient id="paint21_linear" x1="177.795" y1="263.906" x2="256.193" y2="263.906" gradientUnits="userSpaceOnUse">
<stop stop-color="#FDE1A7"/>
<stop offset="1" stop-color="#F9A144"/>
</linearGradient>
<linearGradient id="paint22_linear" x1="212.171" y1="282.683" x2="250.845" y2="282.683" gradientUnits="userSpaceOnUse">
<stop stop-color="#FF57BD"/>
<stop offset="1" stop-color="#FE6A77"/>
</linearGradient>
<linearGradient id="paint23_linear" x1="215.34" y1="296.895" x2="267.052" y2="296.895" gradientUnits="userSpaceOnUse">
<stop stop-color="#FFE2A8"/>
<stop offset="0.1048" stop-color="#FAE2A9"/>
<stop offset="0.2284" stop-color="#ECE2AD"/>
<stop offset="0.3617" stop-color="#D4E2B3"/>
<stop offset="0.5017" stop-color="#B3E2BC"/>
<stop offset="0.6471" stop-color="#88E2C8"/>
<stop offset="0.7969" stop-color="#54E2D6"/>
<stop offset="0.9476" stop-color="#17E2E6"/>
<stop offset="1" stop-color="#00E2EC"/>
</linearGradient>
<linearGradient id="paint24_linear" x1="277.904" y1="299.26" x2="296.473" y2="325.711" gradientUnits="userSpaceOnUse">
<stop stop-color="#5A55F8"/>
<stop offset="1" stop-color="#8C6AE2"/>
</linearGradient>
<linearGradient id="paint25_linear" x1="303.829" y1="282.111" x2="298.849" y2="300.659" gradientUnits="userSpaceOnUse">
<stop stop-color="#994574"/>
<stop offset="1" stop-color="#43256F"/>
</linearGradient>
<linearGradient id="paint26_linear" x1="318.99" y1="220.389" x2="310.032" y2="220.389" gradientUnits="userSpaceOnUse">
<stop stop-color="#F9A144"/>
<stop offset="1" stop-color="#FDE1A7"/>
</linearGradient>
<linearGradient id="paint27_linear" x1="310.374" y1="265.131" x2="264.033" y2="265.131" gradientUnits="userSpaceOnUse">
<stop stop-color="#0090B2"/>
<stop offset="1" stop-color="#00E2EC"/>
</linearGradient>
<linearGradient id="paint28_linear" x1="304.71" y1="276.82" x2="289.936" y2="276.82" gradientUnits="userSpaceOnUse">
<stop stop-color="#F9A144"/>
<stop offset="1" stop-color="#FDE1A7"/>
</linearGradient>
<linearGradient id="paint29_linear" x1="337.09" y1="243.553" x2="315.994" y2="243.553" gradientUnits="userSpaceOnUse">
<stop stop-color="#0090B2"/>
<stop offset="1" stop-color="#00E2EC"/>
</linearGradient>
<linearGradient id="paint30_linear" x1="315.403" y1="221.649" x2="293.766" y2="221.649" gradientUnits="userSpaceOnUse">
<stop stop-color="#F9A144"/>
<stop offset="1" stop-color="#FDE1A7"/>
</linearGradient>
<linearGradient id="paint31_linear" x1="331.619" y1="230.37" x2="294.554" y2="230.37" gradientUnits="userSpaceOnUse">
<stop stop-color="#FE6A77"/>
<stop offset="1" stop-color="#FF57BD"/>
</linearGradient>
<linearGradient id="paint32_linear" x1="288.035" y1="278.458" x2="278.927" y2="278.458" gradientUnits="userSpaceOnUse">
<stop stop-color="#0090B2"/>
<stop offset="1" stop-color="#00E2EC"/>
</linearGradient>
</defs>
</svg>
