<svg width="30" height="31" viewBox="0 0 30 31" fill="none" xmlns="http://www.w3.org/2000/svg">
<path d="M9.60242 0.636475C7.47525 0.636475 6.02746 1.90444 4.7296 2.98022C3.43175 4.05601 2.3096 4.93726 0.662678 4.78022C0.463549 4.75913 0.266762 4.83882 0.137913 4.99351C0.0114074 5.14819 -0.033104 5.35679 0.0254636 5.54897C0.114486 5.86304 0.351099 6.39976 0.906319 6.89897C1.41468 7.35835 2.24166 7.70757 3.30524 7.74272C3.37787 7.80601 3.41769 7.92319 3.49266 7.96772C3.70116 8.0896 3.93309 8.17397 4.16736 8.23023C4.52813 8.3146 4.91468 8.2771 5.29185 8.23023C5.35745 8.26772 5.42304 8.32866 5.49801 8.36147C5.662 8.43179 5.84942 8.5021 6.06026 8.54897C6.39526 8.62163 6.79821 8.55835 7.2035 8.45522C7.46119 8.57476 7.7142 8.70601 7.9719 8.69897C8.1312 8.69429 8.26942 8.60523 8.4217 8.56772C8.56226 8.82788 8.66066 9.07397 8.90898 9.39272C9.19948 9.76772 9.54151 10.1755 10.0335 10.3677C10.1881 11.0755 10.5934 11.6568 11.1017 12.074C11.4204 12.3365 11.7811 12.5427 12.1513 12.7302C11.6242 13.2248 11.0455 14.0029 11.0455 15.0927C11.0455 16.1123 11.3946 16.9466 11.9076 17.5865C12.1068 17.8349 12.334 18.0412 12.5636 18.2427C12.0412 18.7443 11.4016 19.5857 11.4016 20.6802C11.4016 21.7419 11.835 22.5412 12.3949 23.0615C12.4488 23.1107 12.5097 23.1482 12.5636 23.1927C12.2942 23.5865 12.0013 24.1959 12.0013 24.9927C12.0013 25.7873 12.4933 26.3966 13.0321 26.8115C13.1071 26.8677 13.1797 26.9263 13.257 26.9802C12.9783 27.3552 12.8049 27.7115 12.7323 28.0677C12.6339 28.5529 12.7416 29.0123 12.9197 29.3427C13.2781 30.0037 13.8942 30.2802 13.8942 30.2802C14.0559 30.3552 14.2386 30.3552 14.4003 30.2802V30.6365H15.5997V30.3177C15.8621 30.4466 16.1784 30.3669 16.3494 30.1302C16.6469 29.781 16.8531 29.4341 16.9304 29.0615C16.9983 28.7404 16.9398 28.4193 16.8179 28.1427C16.9444 27.9576 17.1178 27.7068 17.2865 27.4115C17.6262 26.8209 17.9987 26.0662 17.9987 25.2365C17.9987 24.4771 17.7995 23.8537 17.5114 23.3427C18.0713 22.9091 18.8983 22.0443 18.8983 20.6802C18.8983 19.8716 18.5023 19.1873 17.9987 18.6365C17.8464 18.4701 17.6824 18.3177 17.5114 18.1677C18.1954 17.5513 19.1981 16.3607 19.1981 14.6802C19.1981 13.8693 18.8631 13.1662 18.3735 12.6177C18.6382 12.463 18.91 12.2826 19.1606 12.0365C19.5636 11.6427 19.8728 11.0662 19.9853 10.3302C20.4374 10.1263 20.7584 9.74897 21.0348 9.39272C21.2784 9.07866 21.3815 8.84429 21.5221 8.58647C21.6697 8.62163 21.7985 8.69429 21.9531 8.69897C22.2132 8.70601 22.4802 8.5771 22.7403 8.45522C23.1385 8.55132 23.5509 8.62163 23.8835 8.54897C24.0944 8.5021 24.2818 8.43179 24.4458 8.36147C24.516 8.33101 24.5723 8.26304 24.6332 8.23023C25.0268 8.29819 25.4414 8.35444 25.8139 8.26772C26.1606 8.18569 26.4769 8.01694 26.7322 7.74272C27.7747 7.70054 28.59 7.35132 29.0937 6.89897C29.6489 6.39976 29.8855 5.86304 29.9745 5.54897C30.0331 5.35679 29.9886 5.14819 29.8621 4.99351C29.7332 4.83882 29.5365 4.75913 29.3373 4.78022C27.6904 4.93726 26.5683 4.05601 25.2704 2.98022C23.9725 1.90444 22.5248 0.636475 20.3976 0.636475C19.676 0.636475 19.081 1.01382 18.6734 1.48022C18.2657 1.94663 17.9987 2.5021 17.9987 3.09272C17.9987 3.76304 18.1134 4.24819 18.2423 4.57397C18.247 4.58335 18.2564 4.58335 18.261 4.59272C18.2212 4.60913 18.2329 4.61616 18.1861 4.63022C17.9541 4.70054 17.6379 4.74976 17.3427 4.78022C17.0967 4.80601 16.8788 4.82944 16.6867 4.83647V4.72397C17.1225 4.28804 17.3989 3.69507 17.3989 3.03647C17.3989 1.71694 16.3189 0.636475 15 0.636475C13.6811 0.636475 12.6011 1.71694 12.6011 3.03647C12.6011 3.69507 12.8775 4.28804 13.3133 4.72397V4.83647C13.1212 4.82944 12.9033 4.80601 12.6573 4.78022C12.3621 4.74976 12.0459 4.70054 11.8139 4.63022C11.7671 4.61616 11.7788 4.60913 11.739 4.59272C11.7436 4.58335 11.753 4.58335 11.7577 4.57397C11.8866 4.24819 12.0013 3.76304 12.0013 3.09272C12.0013 2.5021 11.7343 1.94663 11.3266 1.48022C10.919 1.01382 10.324 0.636475 9.60242 0.636475ZM9.60242 1.83647C9.89994 1.83647 10.1904 1.99819 10.4271 2.26772C10.6637 2.53726 10.8019 2.90288 10.8019 3.09272C10.8019 3.62241 10.7129 3.92476 10.6332 4.12397C10.5934 4.22476 10.5653 4.29976 10.5208 4.38647C10.4762 4.47319 10.3896 4.55757 10.3896 4.83647C10.3896 4.97241 10.4364 5.10601 10.5208 5.21147C10.7902 5.5396 11.1299 5.67085 11.4766 5.77397C11.8233 5.8771 12.1841 5.94507 12.5261 5.98022C12.84 6.01304 13.1212 6.02944 13.3507 6.03647L13.3882 7.44272C13.1399 7.35601 12.8635 7.29273 12.5449 7.29273C11.5305 7.29273 10.4833 7.91851 10.1084 8.94273C10.0264 8.86304 9.94445 8.7646 9.8648 8.66148C9.56962 8.27944 9.3049 7.80366 9.24633 7.66773C9.18073 7.50835 9.05189 7.38647 8.89258 7.32788C8.73094 7.27163 8.55289 7.28569 8.40296 7.36772C8.29285 7.43101 8.09372 7.49429 7.93442 7.49897C7.77511 7.50366 7.67906 7.46382 7.65329 7.44272C7.47759 7.29038 7.22927 7.25288 7.01608 7.34897C6.86849 7.41694 6.56862 7.42632 6.3039 7.36772C6.17037 7.3396 6.05323 7.29273 5.96655 7.25522C5.92204 7.23647 5.88924 7.20835 5.87284 7.19898C5.71588 7.06772 5.50504 7.02554 5.31059 7.08647C5.13021 7.13569 4.74366 7.11929 4.44848 7.04897C4.30089 7.01382 4.17204 6.97163 4.11113 6.93647C4.0104 6.70913 3.77847 6.56616 3.53014 6.58022C2.58603 6.60601 2.05658 6.3271 1.71221 6.01772C1.66301 5.97319 1.67941 5.94976 1.63724 5.90522C3.19982 5.69429 4.40866 4.78491 5.47927 3.89897C6.78884 2.81382 7.95082 1.83647 9.60242 1.83647ZM15 1.83647C15.67 1.83647 16.1995 2.36616 16.1995 3.03647C16.1995 3.41616 16.0191 3.73726 15.7497 3.95522C15.7075 3.98101 15.67 4.01382 15.6372 4.04897C15.4521 4.16382 15.2366 4.23647 15 4.23647C14.7493 4.23647 14.5174 4.15913 14.3253 4.03022C14.2972 4.0021 14.2644 3.97632 14.2316 3.95522C13.9692 3.73726 13.8005 3.41147 13.8005 3.03647C13.8005 2.36616 14.33 1.83647 15 1.83647ZM20.3976 1.83647C22.0492 1.83647 23.2112 2.81382 24.5207 3.89897C25.5913 4.78491 26.8002 5.69429 28.3628 5.90522C28.3206 5.94976 28.337 5.97319 28.2878 6.01772C27.9434 6.3271 27.414 6.60601 26.4699 6.58022C26.2122 6.57319 25.9779 6.73023 25.8889 6.97397C25.9264 6.87554 25.8139 7.0396 25.5328 7.10523C25.2517 7.17085 24.8885 7.15913 24.6707 7.08647C24.4645 7.01148 24.2349 7.05601 24.0709 7.19898C24.0545 7.20835 24.0217 7.23647 23.9772 7.25522C23.8905 7.29273 23.7547 7.3396 23.6211 7.36772C23.3564 7.42632 23.0753 7.41694 22.9277 7.34897C22.7145 7.25288 22.4662 7.29038 22.2905 7.44272C22.2647 7.46382 22.1499 7.50366 21.9906 7.49897C21.8313 7.49429 21.6509 7.43101 21.5408 7.36772C21.3885 7.27866 21.2058 7.25991 21.0395 7.31851C20.8755 7.3771 20.742 7.50366 20.6787 7.66773C20.6201 7.80366 20.3742 8.27944 20.079 8.66148C20.011 8.75054 19.9454 8.83491 19.8728 8.90522C19.4863 7.90444 18.4555 7.29273 17.4551 7.29273C17.1412 7.29273 16.8578 7.3396 16.6118 7.42397L16.6493 6.03647C16.8788 6.02944 17.16 6.01304 17.4739 5.98022C17.8159 5.94507 18.1767 5.8771 18.5234 5.77397C18.8701 5.67085 19.2098 5.5396 19.4792 5.21147C19.5636 5.10601 19.6104 4.97241 19.6104 4.83647C19.6104 4.55757 19.5238 4.47319 19.4792 4.38647C19.4347 4.29976 19.4066 4.22476 19.3668 4.12397C19.2871 3.92476 19.1981 3.62241 19.1981 3.09272C19.1981 2.90288 19.3363 2.53726 19.573 2.26772C19.8096 1.99819 20.1001 1.83647 20.3976 1.83647ZM14.5315 5.38022C14.6814 5.41069 14.8407 5.43647 15 5.43647C15.1593 5.43647 15.3186 5.41069 15.4685 5.38022L15.3186 10.7802C15.1078 10.6959 14.8993 10.6138 14.7001 10.5365L14.5315 5.38022ZM12.5449 8.49272C13.3531 8.49272 13.3133 8.83257 13.3133 8.79272C13.3133 8.8396 13.3437 8.80444 13.3133 8.83022C13.2828 8.85601 13.1774 8.90757 13.0321 8.94273C12.7416 9.01304 12.3012 9.00132 12.1325 8.98022C11.9615 8.95913 11.7882 9.01304 11.6593 9.12788C11.5305 9.24272 11.4555 9.40679 11.4578 9.58022C11.4578 9.98804 11.6945 10.3185 11.9451 10.5365C12.1958 10.7544 12.4957 10.9068 12.826 11.0615C13.4866 11.3732 14.2995 11.6474 15.0937 11.9802C15.1593 12.0341 15.2366 12.0716 15.3186 12.0927C15.8059 12.3037 16.2861 12.5333 16.6867 12.7865C16.7711 12.9974 16.9679 13.1427 17.1928 13.1615C17.7128 13.6068 17.9987 14.0568 17.9987 14.6802C17.9987 15.9857 17.0616 16.9794 16.5556 17.4177C16.4618 17.3498 16.3681 17.2771 16.2744 17.2115C16.162 17.1341 16.0659 17.0615 15.9558 16.9865C16.0074 16.9419 16.0542 16.9044 16.1058 16.8552C16.5696 16.4263 17.0991 15.7935 17.0991 14.924C17.0991 14.0943 16.5181 13.4732 15.8809 13.0865C15.2436 12.6998 14.4916 12.4443 13.7631 12.149C13.0345 11.8537 12.334 11.5185 11.8702 11.1365C11.4321 10.7755 11.1837 10.4099 11.158 9.84272C11.1603 9.81226 11.1603 9.77944 11.158 9.74897C11.158 8.96616 11.8842 8.49272 12.5449 8.49272ZM17.4551 8.49272C18.0807 8.49272 18.7553 8.92397 18.8233 9.63647C18.7553 9.79116 18.7553 9.96929 18.8233 10.124C18.7647 10.6373 18.5843 10.9279 18.336 11.174C18.1041 11.4013 17.7644 11.5888 17.3989 11.7927C17.2748 11.7107 17.1365 11.6427 17.0054 11.5677C17.2162 11.4412 17.4153 11.3052 17.5863 11.1552C17.8534 10.9232 18.0783 10.6748 18.2423 10.424C18.4063 10.1732 18.5422 9.9271 18.5422 9.58022C18.5445 9.40679 18.4695 9.24272 18.3407 9.12788C18.2118 9.01304 18.0385 8.95913 17.8675 8.98022C17.6988 9.00132 17.2584 9.01304 16.9679 8.94273C16.8226 8.90757 16.7172 8.85601 16.6867 8.83022C16.6563 8.80444 16.6867 8.8396 16.6867 8.79272C16.6867 8.83257 16.6469 8.49272 17.4551 8.49272ZM16.5368 10.049C16.586 10.0654 16.6375 10.0935 16.6867 10.1052C16.7758 10.1263 16.825 10.1099 16.9116 10.124C16.8695 10.1662 16.846 10.1943 16.7992 10.2365C16.7172 10.3091 16.6118 10.3771 16.5181 10.4427L16.5368 10.049ZM13.3882 13.2927C13.5616 13.363 13.7279 13.4123 13.8942 13.4802C13.8872 13.4873 13.8825 13.4919 13.8755 13.499C13.4562 13.8834 12.9572 14.474 12.9572 15.2802C12.9572 15.988 13.3976 16.5084 13.8942 16.949C14.0395 17.0779 14.2035 17.1998 14.3628 17.324C14.4354 17.4459 14.5479 17.5396 14.6814 17.5865C14.6861 17.5888 14.6954 17.5841 14.7001 17.5865C14.7118 17.5935 14.7259 17.6005 14.7376 17.6052C15.0141 17.8044 15.2999 18.0107 15.581 18.2052C15.7309 18.3083 15.8668 18.4185 16.012 18.524C16.0964 18.6576 16.2323 18.7513 16.3869 18.7865C16.6657 19.0021 16.9163 19.2224 17.1178 19.4427C17.502 19.8646 17.6988 20.2584 17.6988 20.6802C17.6988 21.5685 17.1272 22.1169 16.7617 22.3865C16.6118 22.2458 16.4665 22.1263 16.3119 22.0115C16.6375 21.749 16.9866 21.3716 16.9866 20.7927C16.9866 20.0732 16.5181 19.5341 16.012 19.1427C15.9113 19.063 15.8035 18.9904 15.6934 18.9177C15.6864 18.9107 15.6817 18.906 15.6747 18.899C15.6677 18.8943 15.663 18.8849 15.656 18.8802C15.5693 18.7654 15.4428 18.6857 15.2999 18.6552C14.9789 18.4584 14.6463 18.2779 14.3253 18.074C14.248 18.0248 14.1754 17.9755 14.1004 17.924C14.0184 17.7599 13.8661 17.6427 13.6881 17.6052C13.3742 17.3638 13.072 17.1201 12.8447 16.8365C12.4699 16.3677 12.245 15.8427 12.245 15.0927C12.245 14.188 13.0438 13.5388 13.3882 13.2927ZM15.1312 14.0427C15.1757 14.0662 15.2226 14.0943 15.2624 14.1177C15.738 14.406 15.8996 14.6146 15.8996 14.924C15.8996 15.2544 15.6278 15.6529 15.2811 15.974C15.1546 16.0912 15.0539 16.1732 14.9438 16.2552C14.8665 16.1943 14.7681 16.1287 14.7001 16.0677C14.3066 15.7185 14.1566 15.4419 14.1566 15.2802C14.1566 15.006 14.3815 14.6544 14.6814 14.3802C14.8594 14.2162 15.0164 14.1154 15.1312 14.0427ZM13.5569 19.0115C13.5991 19.0396 13.6459 19.0607 13.6881 19.0865C13.8568 19.1943 14.0137 19.288 14.1754 19.3865C14.1613 19.4005 14.1519 19.4099 14.1379 19.424C13.9739 19.6068 13.7935 19.7966 13.6506 20.024C13.5077 20.2513 13.3882 20.4998 13.3882 20.849C13.3882 21.1419 13.496 21.4185 13.6506 21.6177C13.8052 21.8169 13.988 21.9576 14.1754 22.0865C14.3628 22.2154 14.5713 22.3419 14.7751 22.4615C14.8149 22.4919 14.8594 22.5177 14.9063 22.5365C15.0656 22.6302 15.2202 22.7193 15.3748 22.8177C16.1596 23.3216 16.7992 23.8607 16.7992 25.2365C16.7992 25.6654 16.5462 26.3076 16.2557 26.8115C16.1643 26.9708 16.094 27.081 16.012 27.2052C15.8879 27.1162 15.7497 27.0388 15.6185 26.9615C16.1268 26.0029 16.3002 25.2248 16.087 24.5615C15.8504 23.8232 15.2319 23.413 14.6814 23.099C14.1309 22.7849 13.5944 22.5271 13.2195 22.1802C12.8447 21.8334 12.6011 21.4466 12.6011 20.6802C12.6011 20.0498 13.175 19.3841 13.5569 19.0115ZM15.1874 20.0615C15.2085 20.0755 15.2436 20.0849 15.2624 20.099C15.6466 20.3966 15.7871 20.5818 15.7871 20.7927C15.7871 20.8185 15.6653 21.0037 15.4311 21.1677C15.3397 21.231 15.2647 21.2755 15.1874 21.3177C15.0843 21.2568 14.9274 21.163 14.8501 21.1115C14.7189 21.0224 14.6392 20.9287 14.6064 20.8865C14.5736 20.8443 14.5877 20.856 14.5877 20.849C14.5877 20.8982 14.5994 20.7927 14.6814 20.6615C14.7634 20.5302 14.8829 20.3779 15.0187 20.2302C15.1031 20.1388 15.1101 20.1388 15.1874 20.0615ZM13.5569 23.849C13.7068 23.931 13.8521 24.0177 13.988 24.0927C13.6412 24.681 13.6061 25.3068 13.7256 25.8177C13.3601 25.5271 13.2008 25.2951 13.2008 24.9927C13.2008 24.4349 13.3953 24.074 13.5569 23.849ZM14.9063 24.8427C14.918 24.8685 14.9344 24.8919 14.9438 24.9177C14.9883 25.0607 14.9953 25.2904 14.9063 25.6115C14.8126 25.3654 14.7634 25.131 14.9063 24.8427ZM14.3066 27.599C14.3394 27.6154 14.3698 27.6388 14.4003 27.6552V29.174C14.3651 29.1529 14.0981 28.9982 13.9692 28.7615C13.9013 28.6349 13.8708 28.5177 13.913 28.3115C13.9481 28.1404 14.0606 27.9037 14.3066 27.599ZM15.5997 28.4615C15.6466 28.5107 15.6911 28.5552 15.7122 28.5927C15.759 28.6794 15.7707 28.7146 15.7497 28.8177C15.7356 28.888 15.6864 29.0029 15.5997 29.1365V28.4615Z" fill="#C9C9C9"/>
</svg>
