<svg width="375" height="311" viewBox="0 0 375 311" fill="none" xmlns="http://www.w3.org/2000/svg">
<path d="M184.375 38.5638C206.139 39.3065 216.519 42.2158 238.334 61.7851C254.905 76.6517 258.542 83.1405 272.5 89.3605C282.582 93.853 334.167 102.837 347.292 144.511C361.228 188.759 346.733 228.194 312.292 245.897C274.375 265.386 244.56 248.794 226.875 241.336C202.292 230.969 192.281 226.51 150.625 247.348C111.667 266.838 68.5419 255.434 43.3335 223.92C19.5406 194.175 10.7923 139.009 38.3335 105.118C61.5281 76.575 88.1252 85.2138 110 74.2251C127.281 65.5445 147.917 37.3198 184.375 38.5638Z" fill="url(#paint0_linear)"/>
<path d="M247.787 224.231C233.776 224.231 220.661 228.04 209.42 234.665C214.786 236.222 220.311 238.568 226.875 241.336C243.291 248.258 270.16 263.046 304.256 249.547C290.44 234.022 270.265 224.231 247.787 224.231Z" fill="url(#paint1_radial)"/>
<path d="M319.458 157.707C327.435 157.707 333.902 151.271 333.902 143.332C333.902 135.394 327.435 128.958 319.458 128.958C311.481 128.958 305.014 135.394 305.014 143.332C305.014 151.271 311.481 157.707 319.458 157.707Z" fill="url(#paint2_radial)"/>
<path d="M44.7219 149.28C52.6226 149.28 59.0273 142.906 59.0273 135.043C59.0273 127.181 52.6226 120.807 44.7219 120.807C36.8213 120.807 30.4165 127.181 30.4165 135.043C30.4165 142.906 36.8213 149.28 44.7219 149.28Z" fill="url(#paint3_radial)"/>
<path d="M44.7214 144.304C49.8607 144.304 54.0268 140.158 54.0268 135.043C54.0268 129.929 49.8607 125.782 44.7214 125.782C39.5822 125.782 35.416 129.929 35.416 135.043C35.416 140.158 39.5822 144.304 44.7214 144.304Z" fill="url(#paint4_linear)"/>
<path d="M44.7214 144.304C49.8607 144.304 54.0268 140.158 54.0268 135.043C54.0268 129.929 49.8607 125.782 44.7214 125.782C39.5822 125.782 35.416 129.929 35.416 135.043C35.416 140.158 39.5822 144.304 44.7214 144.304Z" fill="url(#paint5_linear)"/>
<path fill-rule="evenodd" clip-rule="evenodd" d="M39.2354 133.453C39.2354 134.749 40.2945 135.803 41.5966 135.803C42.8987 135.803 43.9579 134.749 43.9579 133.453C43.9579 132.158 42.8987 131.104 41.5966 131.104C40.2945 131.104 39.2354 132.158 39.2354 133.453ZM39.6527 133.454C39.6527 132.386 40.5252 131.519 41.5972 131.519C42.6697 131.519 43.5418 132.386 43.5418 133.454C43.5418 134.521 42.6697 135.389 41.5972 135.389C40.5247 135.389 39.6527 134.521 39.6527 133.454Z" fill="#FDE1A7"/>
<path fill-rule="evenodd" clip-rule="evenodd" d="M46.3499 140.318C46.7766 140.978 47.5303 141.356 48.4166 141.356C49.0453 141.356 49.6749 141.165 50.2378 140.804C51.6299 139.912 52.1508 138.241 51.3991 137.08C50.9724 136.42 50.2187 136.042 49.3324 136.042C48.7037 136.042 48.0741 136.233 47.5112 136.594C46.1195 137.487 45.5983 139.157 46.3499 140.318ZM47.7374 136.942C48.2328 136.624 48.7845 136.457 49.3328 136.457C50.0753 136.457 50.7007 136.765 51.0495 137.304C51.677 138.273 51.2115 139.686 50.0128 140.455C49.5174 140.772 48.9657 140.94 48.4174 140.94C47.6749 140.94 47.0495 140.631 46.7007 140.093C46.0732 139.124 46.5386 137.71 47.7374 136.942Z" fill="#DABACC"/>
<path d="M38.5781 142.056L38.3323 141.721C38.8427 141.35 39.1356 140.782 39.1356 140.162C39.1356 139.095 38.2635 138.226 37.191 138.226C36.8235 138.226 36.4623 138.333 36.1465 138.535L35.9219 138.185C36.3048 137.941 36.744 137.812 37.191 137.812C38.4931 137.812 39.5523 138.866 39.5523 140.162C39.5523 140.916 39.1973 141.606 38.5781 142.056Z" fill="#FDE1A7"/>
<path d="M49.7367 129.9C48.5879 129.9 47.6533 128.97 47.6533 127.827C47.6533 127.289 47.8621 126.777 48.2417 126.387L48.5412 126.675C48.2375 126.987 48.0704 127.397 48.0704 127.827C48.0704 128.741 48.8179 129.485 49.7371 129.485C50.3825 129.485 50.9579 129.121 51.2379 128.535L51.6142 128.713C51.2692 129.434 50.5325 129.9 49.7367 129.9Z" fill="#FDE1A7"/>
<path d="M319.459 153.284C324.982 153.284 329.459 148.829 329.459 143.332C329.459 137.836 324.982 133.38 319.459 133.38C313.936 133.38 309.459 137.836 309.459 143.332C309.459 148.829 313.936 153.284 319.459 153.284Z" fill="url(#paint6_linear)"/>
<path d="M328.71 147.32C328.685 147.32 328.661 147.316 328.636 147.306C327.013 146.691 324.103 144.441 321.223 141.575C318.343 138.709 316.083 135.813 315.465 134.197C315.424 134.09 315.478 133.971 315.585 133.93C315.693 133.889 315.813 133.943 315.854 134.05C316.453 135.616 318.676 138.454 321.518 141.282C324.359 144.11 327.212 146.322 328.785 146.919C328.893 146.959 328.946 147.079 328.905 147.187C328.874 147.269 328.794 147.32 328.71 147.32Z" fill="#0090B2"/>
<path d="M329.451 143.912C329.42 143.912 329.388 143.905 329.358 143.89C327.81 143.121 325.608 141.392 323.469 139.263C321.376 137.18 319.654 135.02 318.863 133.486C318.81 133.384 318.85 133.259 318.953 133.207C319.055 133.155 319.181 133.195 319.233 133.296C320.005 134.794 321.7 136.915 323.764 138.97C325.873 141.069 328.034 142.769 329.544 143.52C329.647 143.571 329.689 143.695 329.638 143.797C329.601 143.87 329.528 143.912 329.451 143.912Z" fill="#8A69E3"/>
<path d="M250.67 231.765C240.47 231.765 230.949 234.657 222.886 239.659C224.176 240.198 225.502 240.757 226.874 241.336C241.445 247.48 264.249 259.821 293.034 253.08C283.456 240.153 268.048 231.765 250.67 231.765Z" fill="url(#paint7_linear)"/>
<path d="M293.034 253.08C285.442 242.832 274.184 235.443 261.188 232.817C259.155 233.222 257.286 234.174 257.396 236.256C257.604 240.195 263.632 240.567 266.667 241.232C270.139 241.992 275 243.547 275.104 246.104C275.18 247.97 272.744 248.246 271.494 248.246C270.244 248.246 268.37 247.659 268.055 248.731C267.639 250.147 270.68 250.663 270.486 251.702C270.199 253.243 266.225 252.948 265.432 254.275C273.857 255.46 283.089 255.409 293.034 253.08Z" fill="url(#paint8_linear)"/>
<path d="M243.541 245.275C244.791 243.547 254.027 243.34 253.333 240.023C252.735 237.167 241.805 239.332 241.319 236.083C241.031 234.158 243.426 232.84 245.742 231.999C237.407 232.771 229.634 235.472 222.886 239.659C224.176 240.198 225.502 240.757 226.874 241.336C231.609 243.333 237.214 245.983 243.611 248.421C243.124 247.315 242.916 246.139 243.541 245.275Z" fill="url(#paint9_linear)"/>
<path d="M144.059 235.289C142.901 235.289 141.732 235.198 140.547 235.009C133.515 233.888 128.691 229.806 126.208 222.876C122.314 212.014 125.604 196.739 128.734 193.236C128.81 193.15 128.942 193.143 129.028 193.218C129.114 193.294 129.122 193.425 129.045 193.511C126.386 196.488 122.526 211.368 126.6 222.737C129.029 229.513 133.743 233.504 140.613 234.599C141.771 234.784 142.917 234.872 144.05 234.873C155.687 234.873 166.074 225.56 177.017 215.751C186.14 207.573 195.574 199.117 207.003 194.288C223.393 187.362 237.948 188.236 248.576 188.874C254.151 189.21 258.965 189.498 262.59 188.609C268.777 187.093 274.061 183.73 279.171 180.477C281.95 178.708 284.824 176.88 287.823 175.357C298.554 169.908 307.219 169.013 309.897 173.078C313.124 177.975 307.402 182.596 301.869 187.065C297.387 190.684 292.753 194.428 292.57 198.358C292.299 204.225 300.79 206.283 300.875 206.3C300.988 206.322 301.061 206.431 301.039 206.543C301.016 206.656 300.905 206.729 300.794 206.706C300.705 206.689 291.867 204.541 292.155 198.338C292.345 194.222 297.054 190.42 301.607 186.743C307.245 182.19 312.57 177.888 309.55 173.305C306.996 169.43 298.542 170.38 288.013 175.726C285.033 177.239 282.167 179.063 279.396 180.827C274.258 184.097 268.944 187.479 262.69 189.012C259.005 189.916 254.16 189.625 248.552 189.287C237.967 188.653 223.467 187.781 207.166 194.669C195.801 199.471 186.394 207.904 177.296 216.059C166.292 225.923 155.844 235.288 144.059 235.289Z" fill="#4578BA"/>
<path d="M275.743 183.794C276.252 183.794 276.664 183.383 276.664 182.877C276.664 182.37 276.252 181.96 275.743 181.96C275.234 181.96 274.822 182.37 274.822 182.877C274.822 183.383 275.234 183.794 275.743 183.794Z" fill="#4578BA"/>
<path d="M268.638 184.203C260.504 184.203 249.727 180.576 243.911 169.209C235.578 152.922 248.949 139.47 250.729 138.457C250.828 138.4 250.956 138.434 251.014 138.534C251.071 138.634 251.036 138.76 250.936 138.817C249.191 139.81 236.09 153.01 244.282 169.021C251.991 184.086 268.528 185.353 275.669 182.683C275.776 182.641 275.897 182.697 275.937 182.804C275.978 182.911 275.923 183.031 275.816 183.071C273.949 183.769 271.451 184.203 268.638 184.203Z" fill="#4578BA"/>
<path d="M312.552 179.292C312.495 179.292 312.439 179.269 312.398 179.224C312.32 179.139 312.327 179.008 312.412 178.931C314.09 177.408 314.488 173.859 314.128 172.884C314.088 172.777 314.143 172.657 314.251 172.618C314.357 172.577 314.478 172.633 314.518 172.741C314.919 173.821 314.523 177.577 312.693 179.237C312.653 179.274 312.602 179.292 312.552 179.292Z" fill="#4578BA"/>
<path d="M331.995 153.295C331.769 152.515 331.438 151.8 331.077 151.11C330.363 149.763 329.512 148.516 328.62 147.306C328.505 147.568 328.382 147.826 328.244 148.08C329.014 149.177 329.729 150.311 330.324 151.492C330.655 152.157 330.949 152.841 331.132 153.529C331.221 153.871 331.28 154.217 331.274 154.532C331.269 154.85 331.183 155.112 331.032 155.254C330.883 155.399 330.623 155.474 330.306 155.47C329.993 155.468 329.65 155.402 329.311 155.305C328.63 155.11 327.954 154.803 327.298 154.461C325.983 153.771 324.733 152.924 323.519 152.034C321.093 150.244 318.83 148.222 316.698 146.08C315.625 145.014 314.586 143.916 313.59 142.781C312.59 141.65 311.622 140.491 310.723 139.285C309.822 138.083 308.975 136.836 308.279 135.529C307.935 134.876 307.627 134.204 307.43 133.526C307.332 133.189 307.265 132.848 307.263 132.536C307.259 132.224 307.333 131.968 307.475 131.819C307.8 131.479 308.546 131.538 309.213 131.713C309.905 131.894 310.593 132.187 311.261 132.515C312.45 133.106 313.59 133.821 314.696 134.584C314.945 134.45 315.2 134.33 315.458 134.218C314.248 133.325 312.994 132.482 311.643 131.771C310.949 131.411 310.232 131.081 309.448 130.856C309.055 130.745 308.644 130.66 308.196 130.657C307.972 130.657 307.736 130.681 307.495 130.752C307.374 130.79 307.253 130.837 307.137 130.905C307.081 130.935 307.018 130.976 306.954 131.026C306.881 131.08 306.873 131.095 306.828 131.132L306.823 131.136L306.81 131.148C306.405 131.549 306.296 132.09 306.291 132.527C306.285 132.977 306.363 133.391 306.465 133.787C306.676 134.578 306.994 135.303 307.342 136.005C308.046 137.405 308.89 138.707 309.786 139.965C311.588 142.475 313.635 144.786 315.814 146.959C318.011 149.114 320.337 151.144 322.848 152.951C324.107 153.849 325.417 154.686 326.823 155.388C327.528 155.735 328.256 156.051 329.05 156.261C329.448 156.364 329.864 156.442 330.316 156.436C330.756 156.43 331.299 156.322 331.701 155.919C332.1 155.512 332.198 154.974 332.195 154.54C332.192 154.095 332.106 153.686 331.995 153.295Z" fill="url(#paint10_linear)"/>
<path d="M316.633 209.925L321.493 207.61C321.493 207.61 322.431 209.752 322.431 212.793C322.431 215.903 321.216 218.218 321.216 218.218L316.598 215.903L316.633 209.925Z" fill="url(#paint11_radial)"/>
<path d="M270.619 216.777C270.243 215.045 278.056 206.711 284.097 205.26C290.139 203.809 316.033 205.579 316.589 206.478C317.144 207.377 317.226 210.733 317.292 213C317.334 214.451 317.361 218.529 316.597 218.737C315.834 218.944 297.441 222.343 291.806 222.399C284.896 222.468 271.14 219.179 270.619 216.777Z" fill="url(#paint12_linear)"/>
<path d="M315.277 196.413V206.919H306.423C306.423 206.919 305.64 206.677 305.625 206.02C305.607 205.295 310.625 197.07 311.953 196.552C313.01 196.139 315.277 196.413 315.277 196.413Z" fill="url(#paint13_linear)"/>
<path d="M296.528 220.361C296.528 220.361 302.952 217.873 305.348 217.044C307.743 216.215 315.123 214.062 315.123 214.062C315.123 214.062 324.262 217.815 325.035 218.46C325.521 218.866 325.691 219.711 325.348 220.119C324.896 220.654 320.86 222.831 319.971 223.062C319.143 223.278 314.636 223.246 307.674 222.676C302.677 222.267 295.938 221.778 296.528 220.361Z" fill="url(#paint14_linear)"/>
<path d="M312.37 223.211C312.304 223.211 312.238 223.179 312.198 223.12C312.134 223.025 312.158 222.897 312.254 222.832C314.601 221.249 320.653 218.389 323.866 217.521C323.979 217.492 324.091 217.557 324.121 217.667C324.151 217.778 324.086 217.892 323.974 217.921C320.797 218.779 314.809 221.609 312.487 223.176C312.452 223.2 312.411 223.211 312.37 223.211Z" fill="#C0EAFB"/>
<path d="M274.457 211.385C272.063 213.707 270.443 215.967 270.619 216.778C270.854 217.861 273.784 219.124 277.561 220.179C278.103 214.791 275.982 212.441 274.457 211.385Z" fill="url(#paint15_linear)"/>
<path d="M288.82 209.476C289.838 208.768 290.212 206.255 290.346 204.729C287.64 204.784 285.404 204.946 284.098 205.26C282.096 205.741 279.901 206.979 277.873 208.481C280.25 209.234 287.218 210.588 288.82 209.476Z" fill="url(#paint16_linear)"/>
<path d="M293.507 214.175C294.428 214.175 295.174 213.433 295.174 212.517C295.174 211.601 294.428 210.858 293.507 210.858C292.587 210.858 291.841 211.601 291.841 212.517C291.841 213.433 292.587 214.175 293.507 214.175Z" fill="url(#paint17_radial)"/>
<path d="M299.097 213.623C299.96 213.623 300.66 212.926 300.66 212.068C300.66 211.209 299.96 210.513 299.097 210.513C298.234 210.513 297.535 211.209 297.535 212.068C297.535 212.926 298.234 213.623 299.097 213.623Z" fill="url(#paint18_radial)"/>
<path d="M304.271 213.174C305.057 213.174 305.695 212.539 305.695 211.757C305.695 210.974 305.057 210.34 304.271 210.34C303.485 210.34 302.847 210.974 302.847 211.757C302.847 212.539 303.485 213.174 304.271 213.174Z" fill="url(#paint19_radial)"/>
<path d="M313.281 206.21C313.166 206.21 313.073 206.117 313.073 206.003V196.326C313.073 196.211 313.166 196.118 313.281 196.118C313.396 196.118 313.489 196.211 313.489 196.326V206.003C313.489 206.117 313.396 206.21 313.281 206.21Z" fill="#C0EAFB"/>
<path d="M273.438 125.437C274.957 125.423 279.582 125.247 282.917 121.809C287.24 117.351 285.729 108.85 285.729 108.85C285.729 108.85 287.295 108.788 287.917 110.146C288.724 111.908 287.656 115.122 288.333 115.485C289.462 116.09 289.74 113.463 290.625 113.878C291.51 114.293 291.391 116.313 291.198 118.128C291.015 119.842 289.817 121.457 290.234 121.99C290.781 122.69 292.083 120.927 292.5 121.757C292.917 122.586 291.406 124.193 290.078 125.048C288.923 125.792 286.927 126.474 286.979 126.889C287.031 127.303 288.906 127.303 288.593 128.133C288.281 128.962 285.937 128.651 284.531 128.651C283.125 128.651 280.989 128.599 279.843 129.532C278.697 130.465 273.438 125.437 273.438 125.437Z" fill="url(#paint20_linear)"/>
<path d="M278.889 117.42C278.824 117.42 278.759 117.39 278.719 117.333C278.652 117.239 278.675 117.11 278.768 117.044C278.795 117.025 281.445 115.129 281.32 113.148C281.24 111.871 280.538 111.221 279.726 110.468C279.198 109.978 278.653 109.473 278.224 108.748C276.526 105.883 278.341 103.688 279.184 103.084C279.277 103.017 279.407 103.038 279.475 103.131C279.542 103.224 279.521 103.354 279.427 103.421C278.671 103.963 277.043 105.94 278.583 108.538C278.982 109.21 279.505 109.695 280.01 110.164C280.852 110.944 281.646 111.68 281.737 113.122C281.876 115.334 279.127 117.299 279.01 117.382C278.972 117.408 278.931 117.42 278.889 117.42Z" fill="#E8878E"/>
<path d="M275.695 112.099C275.653 112.099 275.611 112.086 275.574 112.06C274.155 111.057 273.76 109.703 273.679 108.744C273.565 107.39 274.02 106.146 274.506 105.663C274.587 105.582 274.719 105.582 274.8 105.663C274.881 105.744 274.881 105.875 274.8 105.956C274.375 106.379 273.994 107.525 274.094 108.709C274.168 109.581 274.526 110.811 275.816 111.722C275.909 111.789 275.931 111.918 275.864 112.011C275.824 112.068 275.76 112.099 275.695 112.099Z" fill="#E8878E"/>
<path d="M291.876 127.717C291.869 127.717 291.864 127.717 291.858 127.717C291.744 127.707 291.658 127.607 291.668 127.493C291.731 126.736 292.673 126.365 294.382 125.692C294.903 125.487 295.499 125.252 296.169 124.97C297.113 124.57 297.716 124.014 297.962 123.317C298.308 122.338 297.869 121.352 297.664 120.974C297.609 120.873 297.647 120.747 297.749 120.693C297.849 120.639 297.976 120.676 298.031 120.777C298.262 121.203 298.756 122.319 298.356 123.454C298.069 124.266 297.389 124.904 296.332 125.351C295.659 125.636 295.059 125.872 294.535 126.078C293.032 126.669 292.125 127.026 292.083 127.527C292.074 127.636 291.983 127.717 291.876 127.717Z" fill="#E8878E"/>
<path d="M254.274 101.373L254.606 101.397C254.754 101.416 254.924 101.434 255.055 101.458C255.325 101.504 255.594 101.56 255.855 101.635C256.379 101.78 256.881 101.977 257.355 102.215C258.305 102.692 259.143 103.329 259.861 104.06C261.295 105.526 262.266 107.367 262.747 109.307C263.217 111.207 263.312 113.168 263.009 115.125C262.696 117.07 261.998 119.04 260.596 120.762L257.217 117.879C258.015 117.021 258.607 115.747 258.893 114.388C259.185 113.027 259.196 111.553 258.93 110.163C258.676 108.817 258.077 107.539 257.2 106.538C256.762 106.039 256.255 105.613 255.708 105.299C255.435 105.143 255.153 105.013 254.866 104.916C254.723 104.865 254.578 104.827 254.434 104.794L254.255 104.755C254.18 104.742 254.053 104.73 253.955 104.717L254.274 101.373Z" fill="url(#paint21_linear)"/>
<path d="M257.507 107.188C257.404 107.188 257.314 107.111 257.301 107.007C257.287 106.893 257.368 106.789 257.482 106.775C258.201 106.685 259.492 106.261 260.059 104.427C260.093 104.317 260.21 104.256 260.319 104.29C260.43 104.323 260.491 104.439 260.457 104.549C259.822 106.606 258.353 107.084 257.534 107.186C257.525 107.188 257.516 107.188 257.507 107.188Z" fill="#FFA2BA"/>
<path d="M260.453 111.676C259.901 111.676 259.387 111.587 259.021 111.479C258.911 111.447 258.848 111.332 258.881 111.222C258.913 111.112 259.028 111.048 259.139 111.082C260.048 111.348 261.98 111.507 262.781 110.202C262.841 110.104 262.969 110.073 263.068 110.133C263.166 110.193 263.197 110.321 263.137 110.418C262.54 111.392 261.436 111.676 260.453 111.676Z" fill="#FFA2BA"/>
<path d="M261.517 116.482C259.795 116.482 258.862 115.596 258.502 115.148C258.429 115.058 258.444 114.928 258.534 114.857C258.623 114.786 258.754 114.799 258.826 114.888C259.223 115.381 260.401 116.465 262.768 115.915C262.884 115.889 262.992 115.959 263.019 116.07C263.045 116.181 262.975 116.293 262.863 116.319C262.369 116.434 261.921 116.482 261.517 116.482Z" fill="#FFA2BA"/>
<path d="M271.238 150.666C271.039 150.283 270.863 149.88 270.73 149.453C269.865 146.687 270.174 144.028 270.174 144.028C270.174 144.028 266.458 142.853 263.507 142.231C260.556 141.609 256.605 140.771 256.605 140.771C256.702 143.441 258.403 148.9 262.014 152.321C263.551 153.778 264.943 154.737 266.168 155.397C267.71 155.395 270.209 153.452 271.238 150.666Z" fill="url(#paint22_linear)"/>
<path d="M274.409 159.716C275.546 159.44 274.93 155.811 274.583 154.982C274.288 154.278 272.356 152.823 271.237 150.666C270.208 153.452 267.709 155.396 266.167 155.397C268.77 156.798 270.619 156.838 271.492 157.366C272.294 157.852 273.19 160.013 274.409 159.716Z" fill="url(#paint23_linear)"/>
<path d="M235.764 121.739C234.131 122.684 233.046 123.21 230.313 123.294C230.166 123.299 230.015 123.3 229.861 123.301C230.287 124.703 230.347 127.093 229.624 128.873C232.111 129.898 234.701 130.307 237.187 130.008C238.614 128.437 237.318 123.519 235.764 121.739Z" fill="url(#paint24_linear)"/>
<path d="M229.861 123.3C227.678 123.3 224.927 122.875 223.785 122.914C221.979 122.974 220.911 123.674 220.13 124.477C219.462 125.164 219.288 126.533 220.052 127.017C221.008 127.623 223.402 126.749 224.722 126.576C226.041 126.403 227.083 127.82 229.583 128.857C229.596 128.862 229.609 128.867 229.623 128.872C230.347 127.093 230.287 124.703 229.861 123.3Z" fill="url(#paint25_linear)"/>
<path d="M270.99 131.19C274.435 127.245 279.444 128.474 280.406 129.421C280.351 129.36 280.299 129.297 280.243 129.237C276.147 124.919 270.347 123.743 264.514 120.806C259.518 118.291 254.236 114.793 252.708 113.152C252.708 113.152 250.07 116.832 243.831 119.51C239.595 121.327 234.062 120.72 234.062 120.72C234.062 120.72 234.555 125.343 236.458 128.858C239.323 134.145 249.062 139.639 257.552 142.334C263.487 144.219 267.504 144.748 271.719 145.185C270.781 143.475 267.487 135.2 270.99 131.19Z" fill="url(#paint26_linear)"/>
<path d="M270.768 131.675C270.76 131.675 270.751 131.674 270.743 131.673C256.735 129.966 249.212 119.363 248.311 117.346C248.265 117.241 248.312 117.118 248.417 117.072C248.523 117.026 248.646 117.072 248.692 117.177C249.577 119.159 256.979 129.578 270.793 131.262C270.907 131.276 270.989 131.379 270.975 131.493C270.962 131.598 270.872 131.675 270.768 131.675Z" fill="#00E2EC"/>
<path d="M285.761 147.205C284.676 143.976 284.823 134.317 280.406 129.421C279.444 128.474 274.435 127.245 270.989 131.19C267.487 135.2 270.781 143.475 271.719 145.185C273.971 148.72 276.469 151.009 278.741 152.572C280.487 152.251 284.716 149.76 285.761 147.205Z" fill="url(#paint27_linear)"/>
<path d="M287.344 158.714C289.099 158.638 288.845 154.306 288.542 152.442C288.229 150.524 286.563 149.293 285.833 147.414C285.808 147.349 285.785 147.276 285.76 147.205C284.715 149.76 280.487 152.251 278.741 152.572C281.146 154.227 283.297 155.069 284.635 155.708C285.308 156.028 285.729 158.783 287.344 158.714Z" fill="url(#paint28_linear)"/>
<path d="M283.282 150.356C283.229 150.356 283.176 150.336 283.135 150.296C274.539 141.833 275.329 133.973 275.627 131.014C275.638 130.9 275.742 130.819 275.855 130.828C275.969 130.839 276.053 130.941 276.041 131.055C275.749 133.96 274.973 141.677 283.428 150.001C283.51 150.081 283.511 150.213 283.43 150.294C283.39 150.336 283.336 150.356 283.282 150.356Z" fill="#00E2EC"/>
<path d="M258.073 121.757C256.65 120.315 253.49 119.32 250.625 120.513C246.785 122.111 243.384 127.109 240.961 129.906C242.341 130.215 244.231 131.097 245.052 132.615C245.623 133.67 245.829 134.792 245.897 135.628C250.023 134.868 254.721 133.038 257.396 130.465C260.936 127.059 259.531 123.234 258.073 121.757Z" fill="url(#paint29_linear)"/>
<path d="M240.961 129.906C240.415 130.535 239.919 131.054 239.479 131.397C236.859 133.438 234.387 134.88 233.333 135.959C232.421 136.892 231.562 138.343 232.448 139.172C233.657 140.305 235.391 139.302 237.344 137.617C238.906 136.27 239.724 136.342 243.876 135.922C244.525 135.857 245.204 135.755 245.897 135.628C245.829 134.792 245.623 133.67 245.052 132.616C244.23 131.096 242.341 130.215 240.961 129.906Z" fill="url(#paint30_linear)"/>
<path d="M245.052 132.823C244.966 132.823 244.886 132.77 244.855 132.684C244.818 132.576 244.875 132.457 244.984 132.42C250.563 130.493 257.001 123.543 257.884 121.669C257.934 121.565 258.058 121.52 258.161 121.569C258.266 121.618 258.311 121.741 258.262 121.845C257.332 123.819 250.903 130.815 245.121 132.812C245.098 132.819 245.075 132.823 245.052 132.823Z" fill="#00E2EC"/>
<path d="M226.773 109.986C227.656 109.965 231.614 108.824 232.291 107.658C232.968 106.492 234.583 107.58 234.583 107.58C234.583 107.58 234.766 110.768 231.276 110.872C227.786 110.975 226.773 109.986 226.773 109.986Z" fill="url(#paint31_linear)"/>
<path d="M229.17 110.245C229.265 109.96 229.818 109.485 230.808 109.135C231.876 108.757 232.761 108.642 234.193 108.617C232.904 109.489 233.49 110.79 232.431 110.872C229.966 111.062 229.17 110.245 229.17 110.245Z" fill="#D039A3"/>
<path d="M236.181 97.5847C236.042 96.4788 236.285 91.1229 236.736 90.9844C237.188 90.8459 240.416 94.371 240.451 97.0663C238.958 97.8613 236.181 97.5847 236.181 97.5847Z" fill="url(#paint32_linear)"/>
<path d="M221.146 99.6755C221.462 99.2426 221.927 99.2609 222.396 99.2609C222.865 99.2609 231.823 99.3645 231.823 99.3645C231.823 99.3645 235.208 97.032 237.813 96.721C240.417 96.41 243.906 96.7729 243.906 96.7729C243.906 96.7729 245.417 95.2179 246.719 94.0775C248.021 92.9372 249.531 91.434 250.104 91.5895C250.677 91.745 250.259 95.7694 249.583 97.7577C248.958 99.598 247.448 101.438 247.448 101.438C247.448 101.438 248.021 104.911 249.375 107.865C250.554 110.438 252.708 113.152 252.708 113.152C252.708 113.152 250.055 117.302 244.688 119.217C237.786 121.679 234.063 120.72 234.063 120.72C234.063 120.72 233.98 118.906 234.01 117.351C234.047 115.461 234.115 113.878 234.115 113.878C234.115 113.878 231.791 113.571 230 112.841C227.838 111.96 226.823 111.156 226.774 109.985C227.21 110.118 228.44 110.443 230.469 110.042C233.88 109.368 234.063 107.865 234.063 107.865C234.063 107.865 231.604 108.596 227.708 107.036C223.438 105.325 219.896 101.386 221.146 99.6755Z" fill="url(#paint33_linear)"/>
<path d="M225.279 99.29C223.775 99.2735 222.561 99.2606 222.396 99.2606C221.927 99.2606 221.462 99.2424 221.146 99.6753C220.524 100.527 221.09 101.931 222.341 103.337C223.432 102.796 225.128 101.435 225.279 99.29Z" fill="url(#paint34_linear)"/>
<path d="M235.452 100.592C235.893 100.592 236.25 100.236 236.25 99.7969C236.25 99.3578 235.893 99.002 235.452 99.002C235.01 99.002 234.653 99.3578 234.653 99.7969C234.653 100.236 235.01 100.592 235.452 100.592Z" fill="#212F66"/>
<path d="M235.231 99.7706C235.398 99.7706 235.534 99.6353 235.534 99.4683C235.534 99.3014 235.398 99.166 235.231 99.166C235.063 99.166 234.927 99.3014 234.927 99.4683C234.927 99.6353 235.063 99.7706 235.231 99.7706Z" fill="#0090B2"/>
<path d="M240.591 102.25C241.109 102.25 241.528 101.832 241.528 101.317C241.528 100.802 241.109 100.384 240.591 100.384C240.073 100.384 239.653 100.802 239.653 101.317C239.653 101.832 240.073 102.25 240.591 102.25Z" fill="#212F66"/>
<path d="M240.208 101.369C240.391 101.369 240.538 101.222 240.538 101.041C240.538 100.859 240.391 100.712 240.208 100.712C240.026 100.712 239.878 100.859 239.878 101.041C239.878 101.222 240.026 101.369 240.208 101.369Z" fill="#0090B2"/>
<path fill-rule="evenodd" clip-rule="evenodd" d="M221.158 91.631C226.564 82.9761 237.997 80.3214 246.694 85.7017C255.391 91.082 258.058 102.46 252.652 111.115C247.246 119.77 235.813 122.425 227.116 117.045C218.419 111.664 215.752 100.286 221.158 91.631ZM229.802 114.535C236.76 118.84 245.908 116.716 250.233 109.791C254.559 102.865 252.425 93.7613 245.467 89.4566C238.508 85.1515 229.36 87.2759 225.035 94.2008C220.709 101.126 222.843 110.23 229.802 114.535Z" fill="url(#paint35_radial)"/>
<g opacity="0.5">
<path d="M235.636 87.4584L235.176 87.5604L234.752 87.6727C234.465 87.7544 234.181 87.8436 233.9 87.9394C233.462 88.0895 232.985 87.8577 232.834 87.4219C232.683 86.9861 232.916 86.5113 233.354 86.3612C233.413 86.3408 233.478 86.3272 233.538 86.3205C233.868 86.2849 234.197 86.2579 234.526 86.2401L235.029 86.2227L235.501 86.2243C235.847 86.2251 236.128 86.5063 236.126 86.8513C236.126 87.1482 235.916 87.3962 235.636 87.4584Z" fill="white"/>
</g>
<g opacity="0.5">
<path d="M231.326 88.779L230.855 88.9868L230.43 89.1924C230.141 89.3401 229.856 89.496 229.577 89.661C229.019 89.9936 228.485 90.3655 227.979 90.774C226.967 91.59 226.07 92.5521 225.321 93.6223C225.1 93.9404 224.661 94.0196 224.342 93.799C224.028 93.5829 223.947 93.1575 224.153 92.8411C224.938 91.6394 225.896 90.5434 226.991 89.6013C227.539 89.1302 228.121 88.6973 228.731 88.3071C229.037 88.1131 229.349 87.929 229.667 87.754L230.162 87.496L230.628 87.2729C231.042 87.0743 231.54 87.2477 231.74 87.6602C231.94 88.0728 231.766 88.5688 231.351 88.7674C231.344 88.7707 231.332 88.7757 231.326 88.779Z" fill="white"/>
</g>
<path d="M253.782 114.125C253.334 113.759 252.964 113.428 252.708 113.152C252.708 113.152 252.401 112.764 251.954 112.144C247.784 117.927 240.769 120.659 234.025 119.607C234.042 120.26 234.062 120.72 234.062 120.72C234.062 120.72 234.129 121.343 234.307 122.304C241.627 123.2 249.128 120.24 253.782 114.125Z" fill="url(#paint36_linear)"/>
<path d="M254.88 96.8443C254.328 94.7452 253.404 92.747 252.163 90.9701C250.92 89.1958 249.363 87.6416 247.582 86.4113C245.806 85.1689 243.822 84.2334 241.728 83.6761C239.636 83.1138 237.446 82.9326 235.291 83.1275C230.978 83.5111 226.826 85.4567 223.814 88.5447C220.789 91.6149 218.897 95.7674 218.617 100.054C218.287 104.334 219.538 108.719 222.093 112.189C224.63 115.671 228.454 118.201 232.665 119.199C236.875 120.216 241.439 119.67 245.305 117.712C247.243 116.745 249.013 115.437 250.495 113.854C251.982 112.275 253.184 110.428 254.039 108.433C253.215 110.442 252.04 112.312 250.571 113.923C249.105 115.538 247.342 116.886 245.398 117.893C241.502 119.9 236.88 120.476 232.601 119.468C228.321 118.477 224.419 115.929 221.813 112.394C219.191 108.872 217.885 104.404 218.202 100.024C218.513 95.6413 220.468 91.4151 223.567 88.3034C226.653 85.1727 230.888 83.2192 235.267 82.8534C239.646 82.4616 244.139 83.694 247.699 86.2462C249.48 87.5176 251.024 89.1095 252.247 90.9129C253.467 92.7192 254.36 94.7374 254.88 96.8443Z" fill="white"/>
<path d="M254.875 96.8452C254.189 97.0729 253.53 97.4191 252.932 97.8947C250.205 100.065 249.761 104.026 251.942 106.742C252.529 107.473 253.247 108.037 254.035 108.431C255.602 104.679 255.833 100.615 254.875 96.8452Z" fill="url(#paint37_linear)"/>
<path d="M87.7866 123.836C87.5379 124.078 87.2416 124.475 86.9712 124.898C86.6991 125.324 86.445 125.787 86.2125 126.263C85.7475 127.218 85.3687 128.233 85.0783 129.266C84.4983 131.332 84.2762 133.477 84.46 135.541C84.6404 137.608 85.23 139.591 86.1829 141.392C87.1325 143.197 88.4383 144.822 89.9787 146.254L85.5429 150.543C83.7408 148.554 82.1887 146.257 81.125 143.72C80.0541 141.19 79.5 138.438 79.5025 135.732C79.4991 133.021 80.0233 130.37 80.9495 127.904C81.4158 126.67 81.98 125.479 82.6625 124.337C83.005 123.766 83.3762 123.207 83.7979 122.658C84.225 122.113 84.6791 121.565 85.3395 121.025L87.7866 123.836Z" fill="url(#paint38_linear)"/>
<path d="M84.8347 129.204C82.7847 129.204 81.4147 127.646 81.0284 127.147C80.9584 127.056 80.9755 126.926 81.0668 126.857C81.158 126.787 81.2884 126.804 81.3588 126.895C81.733 127.379 83.1122 128.949 85.1426 128.777C85.2572 128.766 85.358 128.852 85.3676 128.966C85.3772 129.08 85.2922 129.181 85.1776 129.19C85.0613 129.2 84.9468 129.204 84.8347 129.204Z" fill="#00E2EC"/>
<path d="M82.0568 135.718C80.893 135.718 79.9713 135.281 79.4118 134.924C79.3151 134.862 79.2868 134.734 79.3488 134.637C79.4109 134.541 79.5397 134.513 79.6368 134.575C80.4713 135.108 82.1888 135.834 84.3172 134.703C84.418 134.649 84.5447 134.687 84.5988 134.789C84.653 134.89 84.6147 135.015 84.513 135.069C83.6188 135.544 82.7897 135.718 82.0568 135.718Z" fill="#00E2EC"/>
<path d="M81.3443 143.379C81.1801 143.379 81.0263 143.374 80.8847 143.366C80.7697 143.36 80.6822 143.262 80.6888 143.147C80.6955 143.033 80.7943 142.944 80.9088 142.952C82.1559 143.025 84.4497 142.845 85.7867 140.839C85.8501 140.743 85.9792 140.717 86.0755 140.781C86.1713 140.844 86.1976 140.973 86.1338 141.068C84.8351 143.017 82.7309 143.379 81.3443 143.379Z" fill="#00E2EC"/>
<path d="M251.805 216.594C251.389 215.212 242.777 215.212 241.666 215.073C241.054 214.997 238.925 208.11 235.051 200.189C228.472 201.251 223.541 206.78 222.214 208.941L222.215 208.943C229.89 215.522 235.206 221.875 237.847 222.606C240.282 223.281 252.222 217.977 251.805 216.594Z" fill="url(#paint39_linear)"/>
<path d="M235.052 200.189C231.891 193.727 227.568 186.578 221.957 181.879C214.587 175.707 206.945 172.916 200.972 172.363C200.972 172.363 192.884 175.788 188.82 179.62C184.861 183.352 184.584 186.324 183.819 191.507C191.666 191.991 198.613 193.999 208.611 199.385C213.739 202.148 218.286 205.575 222.216 208.944L222.215 208.942C223.542 206.78 228.473 201.251 235.052 200.189Z" fill="url(#paint40_linear)"/>
<path d="M220.625 200.491C220.494 200.491 220.365 200.43 220.284 200.314C212.019 188.544 192.254 181.552 187.949 180.828C187.722 180.789 187.569 180.576 187.607 180.35C187.646 180.124 187.857 179.974 188.088 180.01C192.463 180.746 212.554 187.859 220.966 199.839C221.098 200.027 221.052 200.285 220.864 200.417C220.791 200.467 220.707 200.491 220.625 200.491Z" fill="#9F36AD"/>
<path d="M150.52 116.314C150.52 116.314 144.427 115.174 133.697 115.692C130.367 115.853 127.433 116.163 124.946 116.519C124.305 118.98 123.314 121.3 122.027 123.423C123.958 123.882 125.624 124.089 133.749 127.976C141.874 131.864 153.908 139.824 158.281 139.017C163.333 138.084 175.989 133.471 176.51 126.525C177.057 119.236 150.52 116.314 150.52 116.314Z" fill="url(#paint41_linear)"/>
<path d="M176.51 126.525C176.634 124.867 175.356 123.436 173.31 122.214C171.462 123.486 169.188 125.723 168.472 128.857C167.835 131.647 168.207 134.069 168.511 135.339C172.618 133.174 176.237 130.171 176.51 126.525Z" fill="url(#paint42_linear)"/>
<path d="M152.43 121.393C152.398 121.393 152.365 121.388 152.333 121.378C141.597 117.884 124.452 118.89 123.165 119.369C123.004 119.43 122.824 119.348 122.763 119.187C122.702 119.026 122.784 118.847 122.946 118.787C124.305 118.28 141.421 117.172 152.527 120.787C152.692 120.841 152.781 121.016 152.727 121.179C152.684 121.31 152.562 121.393 152.43 121.393Z" fill="#9F36AD"/>
<path d="M176.198 123.83C174.61 119.709 167.828 116.375 163.604 114.292C162.381 113.689 161.047 113.118 159.684 112.566C159.505 113.906 158.923 116.048 157.083 117.835C154.871 119.984 152.018 120.371 150.208 120.398C151.495 121.979 152.823 123.449 154.167 124.556C157.554 127.348 164.468 131.624 169.691 132.094C171.936 132.296 173.915 131.827 175.074 130.17C175.905 128.981 177.411 126.975 176.198 123.83Z" fill="url(#paint43_linear)"/>
<path d="M175.074 130.169C175.905 128.98 177.411 126.975 176.199 123.83C175.875 122.99 175.333 122.184 174.644 121.413C172.766 122.373 169.377 124.898 168.473 128.858C168.23 129.921 168.136 130.93 168.126 131.844C168.66 131.956 169.186 132.047 169.691 132.093C171.936 132.295 173.915 131.827 175.074 130.169Z" fill="url(#paint44_linear)"/>
<path d="M159.684 112.565C154.606 110.505 149.12 108.691 147.396 106.362C145.679 104.043 146.328 100.064 145.573 97.2391C145.01 95.1322 143.255 92.5999 141.51 92.8851C139.387 93.2318 139.062 96.0988 139.479 98.3795C139.896 100.66 140.417 102.526 139.115 102.837C137.999 103.104 136.552 102.211 135.885 101.956C135.434 101.783 133.658 101.74 134.271 103.822C135.07 106.535 139.826 108.721 142.552 111.027C144.705 112.848 147.355 116.893 150.208 120.397C152.018 120.37 154.87 119.984 157.083 117.834C158.922 116.047 159.505 113.905 159.684 112.565Z" fill="url(#paint45_linear)"/>
<path d="M184.791 160.58C184.791 160.58 177.778 149.833 162.656 138.706C146.273 126.651 123.236 121.191 121.041 121.29C121.041 121.29 116.771 126.784 112.083 129.687C107.396 132.59 97.708 132.901 97.708 132.901C97.708 132.901 99.2705 146.118 106.041 162.083C108.223 167.226 110.571 170.981 113.397 175.909C121.666 190.332 134.791 205.26 152.396 206.193C149.861 192.129 160.625 170.843 184.791 160.58Z" fill="url(#paint46_linear)"/>
<path d="M171.723 168.46C171.601 168.46 171.481 168.407 171.399 168.305C153.581 146.294 131.884 131.547 118.716 125.607C118.507 125.512 118.414 125.267 118.509 125.058C118.604 124.85 118.851 124.757 119.061 124.851C132.311 130.829 154.138 145.66 172.047 167.785C172.191 167.963 172.164 168.225 171.984 168.368C171.907 168.43 171.815 168.46 171.723 168.46Z" fill="#FFA2BA"/>
<path d="M152.43 197.704C152.414 197.704 152.397 197.703 152.381 197.701C131.468 195.246 117.856 174.171 117.286 173.275C117.163 173.082 117.221 172.826 117.416 172.703C117.61 172.58 117.867 172.639 117.991 172.832C122.739 180.306 136.058 194.95 152.479 196.877C152.707 196.904 152.87 197.11 152.844 197.338C152.819 197.549 152.639 197.704 152.43 197.704Z" fill="#FFA2BA"/>
<path d="M122.986 146.93C122.222 150.662 136.181 163.327 140.208 163.327C144.116 163.327 158.432 147.247 162.754 138.779C162.721 138.754 162.69 138.73 162.656 138.706C156.656 134.291 149.764 130.761 143.33 128.065C137.415 131.633 123.824 142.839 122.986 146.93Z" fill="url(#paint47_linear)"/>
<path d="M139.269 151.642C141.283 151.642 142.916 150.017 142.916 148.013C142.916 146.008 141.283 144.383 139.269 144.383C137.255 144.383 135.622 146.008 135.622 148.013C135.622 150.017 137.255 151.642 139.269 151.642Z" fill="#1AA9E8"/>
<path d="M144.647 144.245C145.526 144.245 146.239 143.536 146.239 142.661C146.239 141.786 145.526 141.077 144.647 141.077C143.768 141.077 143.055 141.786 143.055 142.661C143.055 143.536 143.768 144.245 144.647 144.245Z" fill="#1AA9E8"/>
<path fill-rule="evenodd" clip-rule="evenodd" d="M131.248 148.013C131.248 152.414 134.846 155.995 139.269 155.995C143.691 155.995 147.29 152.414 147.29 148.013C147.29 143.612 143.691 140.031 139.269 140.031C134.846 140.031 131.248 143.612 131.248 148.013ZM132.082 148.013C132.082 144.069 135.306 140.86 139.269 140.86C143.232 140.86 146.457 144.069 146.457 148.013C146.457 151.958 143.232 155.166 139.269 155.166C135.306 155.166 132.082 151.958 132.082 148.013Z" fill="#1AA9E8"/>
<path d="M148.423 140.314C148.214 140.314 148.005 140.236 147.843 140.08C147.512 139.762 147.504 139.237 147.824 138.908L153.752 132.82C154.073 132.491 154.601 132.483 154.931 132.802C155.261 133.121 155.269 133.646 154.949 133.975L149.021 140.062C148.858 140.23 148.64 140.314 148.423 140.314Z" fill="#9F36AD"/>
<path d="M144.694 136.982C144.483 136.982 144.271 136.902 144.109 136.744C143.781 136.423 143.777 135.897 144.1 135.571L149.192 130.419C149.514 130.092 150.043 130.088 150.37 130.409C150.699 130.73 150.703 131.255 150.38 131.582L145.288 136.734C145.124 136.899 144.909 136.982 144.694 136.982Z" fill="#9F36AD"/>
<path d="M152.824 143.426C152.627 143.426 152.43 143.357 152.271 143.217C151.927 142.913 151.895 142.389 152.201 142.046L158.084 135.449C158.39 135.106 158.917 135.076 159.26 135.379C159.605 135.683 159.636 136.208 159.33 136.55L153.447 143.148C153.282 143.332 153.054 143.426 152.824 143.426Z" fill="#9F36AD"/>
<path d="M233.39 167.703C221.659 163.621 207.048 157.93 197.084 158.299C188.751 158.607 184.792 160.579 184.792 160.579C160.626 170.842 149.862 192.128 152.396 206.193C183.301 207.831 192.371 189.733 208.751 184.112C215.214 181.893 223.194 181.638 230.486 181.784C230.486 181.784 230.485 181.783 230.485 181.783C228.748 174.201 232.362 169.253 233.39 167.703Z" fill="url(#paint48_linear)"/>
<path d="M196.979 169.529C205.714 168.773 207.994 162.349 207.865 159.565C203.959 158.688 200.282 158.18 197.084 158.299C188.75 158.607 184.792 160.579 184.792 160.579C185.174 164.968 188.755 170.241 196.979 169.529Z" fill="url(#paint49_linear)"/>
<path d="M196.062 166.073C195.719 166.073 195.439 165.797 195.437 165.455L195.399 158.253C195.397 157.91 195.676 157.63 196.021 157.628C196.022 157.628 196.023 157.628 196.024 157.628C196.368 157.628 196.647 157.904 196.649 158.247L196.687 165.448C196.689 165.791 196.411 166.071 196.066 166.073C196.064 166.073 196.064 166.073 196.062 166.073Z" fill="#9F36AD"/>
<path d="M200.801 166.066C200.457 166.066 200.178 165.79 200.176 165.448L200.14 158.424C200.138 158.08 200.417 157.8 200.762 157.799C200.763 157.799 200.764 157.799 200.765 157.799C201.109 157.799 201.388 158.075 201.39 158.418L201.426 165.441C201.428 165.785 201.149 166.065 200.804 166.066C200.803 166.066 200.802 166.066 200.801 166.066Z" fill="#9F36AD"/>
<path d="M191.429 166.1C191.094 166.1 190.816 165.835 190.804 165.5L190.567 158.878C190.555 158.534 190.825 158.246 191.169 158.234C191.511 158.218 191.804 158.49 191.816 158.833L192.054 165.455C192.066 165.799 191.796 166.087 191.451 166.099C191.444 166.1 191.436 166.1 191.429 166.1Z" fill="#9F36AD"/>
<path d="M157.05 197.971C155.506 197.971 153.949 197.885 152.382 197.701C152.153 197.674 151.99 197.468 152.017 197.241C152.044 197.013 152.251 196.851 152.479 196.877C169.083 198.828 184.634 189.545 194.923 183.404C198.637 181.187 201.571 179.437 203.814 178.609C211.132 175.909 222.134 176.542 230.074 177.547C230.302 177.576 230.464 177.784 230.435 178.011C230.406 178.238 230.2 178.397 229.969 178.37C222.12 177.376 211.262 176.745 204.103 179.386C201.933 180.187 198.883 182.007 195.352 184.115C185.929 189.739 172.137 197.971 157.05 197.971Z" fill="#FFA2BA"/>
<path d="M249.792 181.416C251.605 180.659 254.029 179.191 256.771 174.678C258.576 171.706 259.966 166.145 258.854 166.177C256.424 166.246 253.536 171.341 249.584 171.671C246.211 171.953 240.3 170.107 233.389 167.703C232.361 169.252 228.747 174.201 230.485 181.782C230.485 181.783 230.485 181.783 230.485 181.784C239.096 181.956 246.746 182.688 249.792 181.416Z" fill="url(#paint50_linear)"/>
<path d="M238.333 179.135C239.714 179.135 240.833 178.022 240.833 176.647C240.833 175.273 239.714 174.159 238.333 174.159C236.952 174.159 235.833 175.273 235.833 176.647C235.833 178.022 236.952 179.135 238.333 179.135Z" fill="#9F36AD"/>
<path d="M111.042 187.222C111.979 178.41 114.792 173.59 115.104 166.696C115.445 159.173 112.977 137.322 98.854 134.248C96.354 133.704 93.5415 134.274 93.5415 134.274C87.8469 142.23 82.3611 153.841 82.8469 168.769C83.3828 185.224 92.9749 196.078 98.6803 201.735C98.7286 201.783 98.774 201.828 98.8219 201.876C100.607 200.203 104.877 197.359 111.131 197.242C110.805 193.91 110.705 190.38 111.042 187.222Z" fill="url(#paint51_linear)"/>
<path d="M91.1456 175.767C89.3822 170.219 85.021 168.757 82.8447 168.65C82.846 168.69 82.846 168.729 82.8472 168.769C83.0972 176.442 85.3168 182.897 88.1931 188.175C90.5939 186.424 92.9164 181.337 91.1456 175.767Z" fill="url(#paint52_linear)"/>
<path d="M84.3828 179.001C84.1124 179.001 83.8632 178.826 83.7832 178.555C83.6861 178.225 83.8757 177.879 84.207 177.783L88.3386 176.576C88.6695 176.48 89.017 176.668 89.1145 176.997C89.2116 177.327 89.022 177.673 88.6907 177.769L84.5591 178.976C84.5003 178.993 84.4407 179.001 84.3828 179.001Z" fill="#9F36AD"/>
<path d="M83.6396 175.674C83.3692 175.674 83.1201 175.498 83.0401 175.228C82.943 174.898 83.1326 174.552 83.4638 174.455L87.3971 173.306C87.7284 173.211 88.0755 173.399 88.173 173.728C88.2701 174.058 88.0805 174.404 87.7492 174.5L83.8159 175.649C83.7571 175.666 83.698 175.674 83.6396 175.674Z" fill="#9F36AD"/>
<path d="M85.3941 182.506C85.1341 182.506 84.8916 182.344 84.8028 182.085C84.6912 181.76 84.8653 181.406 85.192 181.296L89.1632 179.944C89.4907 179.832 89.8453 180.006 89.957 180.332C90.0687 180.657 89.8945 181.01 89.5678 181.121L85.5966 182.472C85.5295 182.496 85.4607 182.506 85.3941 182.506Z" fill="#9F36AD"/>
<path d="M101.251 195.585C101.109 195.585 100.971 195.513 100.893 195.383C100.821 195.265 100.727 195.112 100.612 194.926C92.9043 182.487 90.9651 171.665 90.6951 164.777C90.0814 149.116 94.7043 137.972 97.533 133.856C97.6626 133.667 97.9226 133.618 98.1122 133.748C98.3022 133.877 98.3509 134.135 98.2209 134.324C95.4505 138.356 90.9226 149.3 91.528 164.745C91.7943 171.533 93.7093 182.205 101.321 194.491C101.438 194.68 101.535 194.836 101.608 194.956C101.726 195.153 101.663 195.407 101.465 195.525C101.398 195.565 101.323 195.585 101.251 195.585Z" fill="#FFA2BA"/>
<path d="M108.62 213.398C109.497 216.174 107.188 219.014 107.031 221.484C106.855 224.277 110.176 228.107 111.927 228.015C113.576 227.929 114.427 225.994 114.375 224.646C114.323 223.298 113.698 220.085 114.896 219.825C116.094 219.566 115.743 221.955 116.302 222.78C116.771 223.471 117.951 223.436 118.281 222.469C118.618 221.481 118.75 218.703 117.917 216.975C116.899 214.863 115 212.569 113.646 209.511C112.806 207.613 111.665 202.693 111.131 197.243C104.878 197.36 100.608 200.204 98.8223 201.876C105.634 208.629 107.766 210.696 108.62 213.398Z" fill="url(#paint53_linear)"/>
<path d="M109.844 116.365C110.44 117.298 113.854 121.082 115.781 122.119C115.208 123.881 112.865 126.68 109.167 128.391C106.14 129.791 102.37 130.36 102.37 130.36C102.37 130.36 100.937 126.888 100.052 122.767C99.4503 119.968 99.2183 117.35 99.2183 117.35C99.2183 117.35 101.64 118.672 104.687 118.594C107.689 118.518 109.844 116.365 109.844 116.365Z" fill="url(#paint54_linear)"/>
<path d="M110.242 110.335C109.027 105.497 105.312 100.591 104.305 99.2773H101.423L91.249 105.497L90.9365 110.819C90.9365 110.819 92.3353 112.591 94.5749 114.946C93.7011 115.302 93.0894 116.128 93.0894 117.09C93.0894 118.379 94.1853 119.423 95.5374 119.423C96.5269 119.423 97.3769 118.862 97.7628 118.058C101.429 121.074 106.302 121.032 108.61 119.457C111.034 117.804 111.458 115.173 110.242 110.335Z" fill="url(#paint55_linear)"/>
<path d="M101.041 110.82C101.501 110.82 101.874 110.448 101.874 109.99C101.874 109.532 101.501 109.161 101.041 109.161C100.581 109.161 100.208 109.532 100.208 109.99C100.208 110.448 100.581 110.82 101.041 110.82Z" fill="#212F66"/>
<path d="M106.909 106.776C107.331 106.776 107.673 106.436 107.673 106.016C107.673 105.596 107.331 105.256 106.909 105.256C106.487 105.256 106.146 105.596 106.146 106.016C106.146 106.436 106.487 106.776 106.909 106.776Z" fill="#212F66"/>
<path d="M103.977 106.272C104.57 105.608 108.878 109.117 108.767 109.856C108.655 110.595 107.552 111.105 106.797 111.234C105.973 109.757 103.68 106.605 103.977 106.272Z" fill="url(#paint56_linear)"/>
<path d="M106.966 115.312C106.48 115.312 106.02 115.153 105.639 114.853C105.548 114.782 105.533 114.651 105.605 114.562C105.676 114.472 105.807 114.457 105.897 114.528C106.205 114.769 106.574 114.897 106.965 114.897C107.92 114.897 108.697 114.119 108.697 113.161C108.697 113.043 108.685 112.925 108.662 112.81C108.639 112.698 108.712 112.589 108.825 112.566C108.938 112.543 109.047 112.616 109.07 112.728C109.099 112.87 109.114 113.015 109.114 113.161C109.114 114.347 108.151 115.312 106.966 115.312Z" fill="#954374"/>
<path d="M106.596 93.6108C105.52 92.6085 103.923 93.7837 102.95 94.8548C101.978 95.9259 101.211 97.1736 100.312 97.101C99.0271 96.9974 99.4709 93.9429 97.8813 94.1291C95.52 94.4057 94.3396 99.8652 93.5759 100.28C92.8121 100.695 92.1717 98.977 90.9717 99.7271C89.4788 100.66 89.94 105.078 89.7563 106.154C89.6325 106.879 87.4925 108.198 87.7075 110.819C87.9667 113.977 91.0925 116.322 93.09 117.101C93.09 117.097 93.0896 117.094 93.0896 117.091C93.0896 115.986 93.8971 115.062 94.98 114.822C94.9709 113.691 94.7542 112.396 94.4784 111.442C93.8188 109.161 92.3088 107.39 92.3088 107.39C93.2809 107.286 99.305 105.498 103.506 101.836C107.096 98.7058 107.73 94.6657 106.596 93.6108Z" fill="url(#paint57_linear)"/>
<path d="M99.5341 90.4622C92.4266 90.4622 86.2041 94.2306 82.772 99.8693C86.0061 96.955 90.2957 95.179 95.0028 95.179C105.071 95.179 113.232 103.301 113.232 113.321C113.232 119.877 109.737 125.619 104.501 128.807C112.911 126.619 119.117 119.007 119.117 109.951C119.117 99.188 110.349 90.4622 99.5341 90.4622Z" fill="url(#paint58_radial)"/>
<path d="M104.543 126.618C98.2665 126.618 91.4794 124.39 88.0557 119.701C81.8753 111.234 85.7815 95.6324 92.509 91.759C85.1653 94.5696 79.9507 101.652 79.9507 109.951C79.9507 120.715 88.7182 129.441 99.534 129.441C104.073 129.441 108.248 127.9 111.569 125.32C109.387 126.155 107.02 126.618 104.543 126.618Z" fill="url(#paint59_linear)"/>
<path d="M85.0089 117.071C83.7943 117.071 82.666 117.433 81.7227 118.052C83.4043 121.708 86.1864 124.756 89.6502 126.775C90.4868 125.751 90.9902 124.446 90.9902 123.023C90.9906 119.735 88.3127 117.071 85.0089 117.071Z" fill="url(#paint60_linear)"/>
<g opacity="0.5">
<path d="M109.219 97.2193L109.637 97.4859L110.07 97.7845C110.349 97.9856 110.624 98.1946 110.894 98.4119C111.216 98.671 111.266 99.1413 111.005 99.4622C110.745 99.7828 110.272 99.8325 109.95 99.5729C109.914 99.5439 109.878 99.5078 109.848 99.4738C109.645 99.2342 109.434 98.999 109.217 98.7689L108.89 98.4363L108.53 98.0963C108.304 97.884 108.295 97.5299 108.509 97.306C108.697 97.1077 108.997 97.0775 109.219 97.2193Z" fill="white"/>
</g>
<g opacity="0.5">
<path d="M113.022 100.807C113.437 101.431 113.82 102.103 114.147 102.787C114.475 103.473 114.755 104.182 114.982 104.907C115.437 106.356 115.682 107.866 115.714 109.376C115.722 109.763 115.414 110.083 115.025 110.092C114.644 110.1 114.327 109.802 114.307 109.426C114.237 108.047 113.972 106.682 113.521 105.384C113.296 104.735 113.025 104.103 112.71 103.493C112.394 102.88 112.042 102.302 111.638 101.731C111.373 101.357 111.463 100.839 111.839 100.575C112.215 100.311 112.735 100.401 113 100.775C113.005 100.78 113.008 100.786 113.012 100.792L113.022 100.807Z" fill="white"/>
</g>
<path d="M124.947 116.519C121.509 117.012 118.933 117.593 117.37 117.997C114.292 124.745 107.466 129.441 99.5338 129.441C98.8213 129.441 98.1183 129.401 97.425 129.327C95.7288 131.171 93.8938 133.746 92.8779 135.227C95.0038 135.779 97.2338 136.076 99.5333 136.076C111.752 136.075 122.02 127.768 124.947 116.519Z" fill="url(#paint61_linear)"/>
<path d="M92.5073 91.7542C94.6386 90.8876 96.9382 90.4298 99.2486 90.3642C101.56 90.3091 103.886 90.6611 106.08 91.4105C110.479 92.8983 114.279 96.0323 116.631 100.025C118.984 104.018 119.827 108.868 118.973 113.404C118.549 115.674 117.718 117.863 116.532 119.84C115.333 121.807 113.795 123.567 111.991 124.991C115.492 122.017 117.907 117.834 118.658 113.348C119.033 111.108 119.035 108.806 118.632 106.576C118.23 104.343 117.427 102.186 116.271 100.234C115.131 98.2736 113.633 96.52 111.883 95.0686C110.131 93.6181 108.119 92.4832 105.974 91.7107C101.679 90.1665 96.8307 90.1843 92.5073 91.7542Z" fill="white"/>
<path d="M144.87 104.209C144.924 104.422 144.795 104.638 144.581 104.692L137.661 106.601C137.447 106.655 137.23 106.526 137.175 106.313L132.842 91.1814C132.788 90.9691 132.917 90.7526 133.13 90.6983L140.467 88.3753C140.681 88.3214 140.898 88.45 140.952 88.6623L144.87 104.209Z" fill="url(#paint62_linear)"/>
<path d="M143.244 103.117L137.744 104.666L133.933 91.4863L139.82 89.5303L143.244 103.117Z" fill="url(#paint63_linear)"/>
<path d="M153.56 73.1868C153.751 73.847 153.368 74.5362 152.704 74.7261L124.686 83.1625C124.023 83.3524 123.33 82.9709 123.14 82.3107L120.664 73.3278C120.473 72.6677 120.857 71.9785 121.52 71.7886L149.538 63.5595C150.201 63.3696 150.894 63.7511 151.085 64.4117L153.56 73.1868Z" fill="#C7A0F6"/>
<path fill-rule="evenodd" clip-rule="evenodd" d="M149.538 63.5594C149.654 63.5263 149.77 63.5105 149.884 63.5105C150.427 63.5105 150.927 63.8659 151.085 64.4112L153.56 73.1867C153.751 73.8469 153.368 74.5361 152.705 74.726L124.687 83.1624C124.571 83.1956 124.455 83.2113 124.34 83.2113C123.797 83.2113 123.297 82.8559 123.14 82.3107L120.665 73.3277C120.474 72.6676 120.857 71.9784 121.521 71.7885L149.538 63.5594ZM150.283 64.636C150.233 64.4639 150.068 64.3403 149.884 64.3403C149.845 64.3407 149.806 64.3461 149.768 64.3565L121.756 72.5839C121.606 72.627 121.533 72.7274 121.501 72.7834C121.47 72.8398 121.424 72.955 121.465 73.0989L123.943 82.0918C123.992 82.2589 124.156 82.3825 124.34 82.3825C124.379 82.3825 124.418 82.3767 124.456 82.3659L152.463 73.9328C152.695 73.8665 152.823 73.6363 152.759 73.4166L150.283 64.636Z" fill="#FDE1A7"/>
<path d="M137.709 95.9955C138.553 95.9955 139.237 95.3147 139.237 94.4749C139.237 93.6351 138.553 92.9543 137.709 92.9543C136.865 92.9543 136.181 93.6351 136.181 94.4749C136.181 95.3147 136.865 95.9955 137.709 95.9955Z" fill="#FE697A"/>
<path d="M137.709 94.7863C137.7 94.7863 137.692 94.7859 137.682 94.7854C137.51 94.7709 137.383 94.6204 137.397 94.4492L138.721 78.8166C138.735 78.6454 138.888 78.5222 139.059 78.5326C139.231 78.5471 139.358 78.6976 139.344 78.8689L138.02 94.5014C138.006 94.664 137.87 94.7863 137.709 94.7863Z" fill="#FDE1A7"/>
<path d="M138.586 72.4414L144.658 74.7275L138.586 72.4414Z" fill="url(#paint64_linear)"/>
<path d="M132.313 78.5117L135.932 73.2874L132.313 78.5117Z" fill="url(#paint65_linear)"/>
<path d="M142.317 68.2207L139.094 72.3006L144.171 74.2122L142.317 68.2207Z" fill="white"/>
<path d="M141.577 68.1521L131.119 71.3579L137.395 73.4461L141.577 68.1521Z" fill="white"/>
<path d="M132.422 77.8069L135.438 73.4517L130.573 71.8333L132.422 77.8069Z" fill="white"/>
<path d="M138.689 72.8135L137.75 74.0027C137.689 74.0795 137.598 74.1217 137.504 74.1217C137.471 74.1217 137.437 74.1164 137.405 74.1056L136.056 73.6565L133.082 77.9508L143.694 74.6973L138.689 72.8135Z" fill="white"/>
<path d="M153.536 172.103C153.629 173.331 152.986 173.849 152.182 174.112L130.965 181.206C130.034 181.388 129.131 180.786 128.947 179.86L126.358 166.781C126.174 165.855 126.753 164.934 127.685 164.639C127.685 164.639 134.14 162.731 138.385 161.875C142.524 161.041 150.152 159.41 150.152 159.41C151.083 159.228 151.771 159.768 152.005 160.839L153.536 172.103Z" fill="url(#paint66_linear)"/>
<path d="M141.597 172.121C141.562 172.121 141.527 172.115 141.493 172.103L126.22 166.727C126.057 166.669 125.972 166.492 126.03 166.33C126.087 166.168 126.266 166.083 126.428 166.14L141.496 171.444L151.302 159.651C151.411 159.52 151.609 159.501 151.742 159.61C151.875 159.72 151.893 159.916 151.783 160.048L141.838 172.009C141.777 172.081 141.688 172.121 141.597 172.121Z" fill="#C44B5F"/>
<path d="M129.774 181.318C129.71 181.318 129.647 181.299 129.591 181.26C129.451 181.159 129.42 180.965 129.52 180.825L135.927 171.974C136.028 171.835 136.223 171.803 136.363 171.903C136.503 172.003 136.535 172.198 136.434 172.337L130.027 181.189C129.966 181.273 129.871 181.318 129.774 181.318Z" fill="#C44B5F"/>
<path d="M153.25 173.702C153.209 173.702 153.166 173.694 153.126 173.676L145.291 170.299C145.133 170.23 145.06 170.047 145.129 169.89C145.198 169.732 145.381 169.659 145.54 169.728L153.374 173.105C153.533 173.174 153.606 173.357 153.537 173.514C153.486 173.632 153.371 173.702 153.25 173.702Z" fill="#C44B5F"/>
<path d="M216.985 88.9336C217.129 89.9222 216.637 90.3762 216.002 90.6329L199.229 96.289C198.486 96.4876 197.722 96.0493 197.522 95.3099L194.705 84.8711C194.505 84.1318 194.922 83.3547 195.66 83.0653C195.66 83.0653 200.777 81.169 204.163 80.2447C207.466 79.3436 212.713 78.0208 212.713 78.0208C213.457 77.8222 214.042 78.2219 214.292 79.0757L216.985 88.9336Z" fill="url(#paint67_linear)"/>
<path d="M207.31 88.3135C207.291 88.3135 207.273 88.311 207.254 88.3056L194.601 84.7913C194.49 84.7606 194.426 84.6462 194.456 84.5359C194.487 84.4256 194.601 84.3596 194.713 84.392L207.221 87.8656L213.689 78.1857C213.752 78.0899 213.881 78.0646 213.977 78.1276C214.073 78.1911 214.099 78.3196 214.035 78.415L207.483 88.2202C207.444 88.2799 207.379 88.3135 207.31 88.3135Z" fill="#D66976"/>
<path d="M198.253 96.4005C198.215 96.4005 198.177 96.3906 198.143 96.3694C198.045 96.3089 198.015 96.1808 198.076 96.0837L202.77 88.572C202.831 88.475 202.96 88.446 203.057 88.5053C203.155 88.5658 203.185 88.694 203.124 88.791L198.43 96.3027C198.39 96.3657 198.323 96.4005 198.253 96.4005Z" fill="#D66976"/>
<path d="M216.826 90.1982C216.792 90.1982 216.757 90.1899 216.726 90.1729L210.201 86.625C210.1 86.5699 210.063 86.4438 210.118 86.3434C210.173 86.2431 210.301 86.2062 210.401 86.2609L216.926 89.8088C217.027 89.864 217.064 89.99 217.008 90.0904C216.97 90.1592 216.899 90.1982 216.826 90.1982Z" fill="#D66976"/>
<path d="M201.326 135.512C201.717 136.391 201.381 136.94 200.86 137.342L187.75 147.678C187.113 148.055 186.29 147.847 185.911 147.214L179.731 138.894C179.351 138.26 179.535 137.432 180.142 136.972C180.142 136.972 184.387 133.886 187.283 132.149C190.108 130.456 194.246 127.682 194.246 127.682C194.882 127.305 195.53 127.523 195.984 128.25L201.326 135.512Z" fill="url(#paint68_linear)"/>
<path d="M179.614 138.854C179.499 138.854 179.405 138.761 179.405 138.647C179.405 138.532 179.498 138.439 179.613 138.439L192.104 138.41L195.183 127.586C195.214 127.476 195.332 127.411 195.44 127.443C195.552 127.474 195.616 127.589 195.584 127.699L192.462 138.674C192.436 138.763 192.355 138.824 192.262 138.825L179.614 138.854C179.614 138.854 179.614 138.854 179.614 138.854Z" fill="#D66976"/>
<path d="M186.821 148.05C186.807 148.05 186.794 148.048 186.78 148.045C186.667 148.023 186.594 147.913 186.617 147.801L188.164 140.243C188.187 140.131 188.299 140.059 188.41 140.081C188.523 140.104 188.595 140.214 188.573 140.326L187.025 147.884C187.005 147.982 186.918 148.05 186.821 148.05Z" fill="#D66976"/>
<path d="M201.455 136.74C201.453 136.74 201.45 136.74 201.448 136.74L194.589 136.507C194.474 136.503 194.384 136.407 194.388 136.292C194.392 136.178 194.506 136.083 194.603 136.093L201.463 136.326C201.577 136.33 201.667 136.426 201.664 136.54C201.659 136.652 201.567 136.74 201.455 136.74Z" fill="#D66976"/>
<path d="M67.6976 175.67C68.5201 176.449 68.403 177.196 68.0192 177.868L59.9159 194.141C59.3951 194.836 58.4067 194.979 57.7088 194.46L48.063 187.365C47.3642 186.846 47.1884 185.864 47.64 185.093C47.64 185.093 50.0205 180.667 52.3809 177.483C54.6821 174.379 57.9213 169.51 57.9213 169.51C58.4421 168.815 59.2446 168.761 60.0667 169.347L67.6976 175.67Z" fill="url(#paint69_linear)"/>
<path d="M47.8237 187.459C47.6979 187.459 47.5791 187.382 47.5316 187.259C47.4704 187.098 47.5516 186.919 47.7129 186.857L60.3762 182.072L58.83 168.994C58.8096 168.823 58.9325 168.668 59.1037 168.648C59.2733 168.629 59.4304 168.75 59.4508 168.921L61.0258 182.24C61.0429 182.381 60.9604 182.516 60.8262 182.567L47.935 187.439C47.8983 187.453 47.8608 187.459 47.8237 187.459Z" fill="#D66976"/>
<path d="M58.9813 194.942C58.8838 194.942 58.7963 194.874 58.7771 194.775L57.0371 185.871C57.015 185.759 57.0888 185.65 57.2017 185.628C57.3138 185.607 57.4238 185.68 57.4459 185.792L59.1859 194.696C59.2079 194.808 59.1342 194.917 59.0213 194.939C59.0079 194.941 58.9946 194.942 58.9813 194.942Z" fill="#D66976"/>
<path d="M62.2044 178.92C62.1169 178.92 62.0353 178.864 62.0065 178.777C61.9707 178.668 62.0303 178.551 62.1394 178.515L68.2365 176.524C68.3465 176.487 68.4636 176.547 68.4994 176.656C68.5353 176.765 68.4757 176.882 68.3665 176.917L62.2694 178.909C62.2478 178.917 62.2257 178.92 62.2044 178.92Z" fill="#D66976"/>
<path d="M52.3958 199.144C53.2012 199.144 53.8542 198.494 53.8542 197.692C53.8542 196.891 53.2012 196.241 52.3958 196.241C51.5904 196.241 50.9375 196.891 50.9375 197.692C50.9375 198.494 51.5904 199.144 52.3958 199.144Z" fill="#FE697A"/>
<path d="M121.81 174.006C122.616 174.006 123.269 173.356 123.269 172.555C123.269 171.753 122.616 171.103 121.81 171.103C121.005 171.103 120.352 171.753 120.352 172.555C120.352 173.356 121.005 174.006 121.81 174.006Z" fill="#FE697A"/>
<path d="M177.965 145.349C178.77 145.349 179.423 144.699 179.423 143.898C179.423 143.096 178.77 142.446 177.965 142.446C177.159 142.446 176.506 143.096 176.506 143.898C176.506 144.699 177.159 145.349 177.965 145.349Z" fill="#FE697A"/>
<path d="M208.714 99.0011C209.519 99.0011 210.172 98.3513 210.172 97.5497C210.172 96.7482 209.519 96.0984 208.714 96.0984C207.908 96.0984 207.255 96.7482 207.255 97.5497C207.255 98.3513 207.908 99.0011 208.714 99.0011Z" fill="#FE697A"/>
<path d="M203.402 77.1277C203.177 77.1277 202.992 76.9486 202.986 76.723C202.948 75.1887 202.558 74.0936 201.792 73.3745C200.191 71.871 196.969 71.9788 192.893 72.116L191.818 72.1517C190.232 72.1981 189.226 71.9141 188.634 71.2514C187.829 70.35 188.033 68.9948 188.249 67.5601C188.445 66.2659 188.646 64.9274 188.159 63.8173C186.718 60.5319 178.222 60.6264 171.176 62.599C163.875 64.6425 158.218 66.863 158.162 66.885C157.948 66.9688 157.705 66.8651 157.621 66.652C157.536 66.4392 157.641 66.1983 157.855 66.1137C157.912 66.0913 163.606 63.8563 170.951 61.8004C176.885 60.1392 187.012 59.1278 188.923 63.4852C189.506 64.8142 189.277 66.3381 189.074 67.6828C188.879 68.9741 188.711 70.0891 189.257 70.7004C189.666 71.159 190.497 71.3617 191.792 71.3228L192.864 71.2879C197.135 71.144 200.509 71.0308 202.364 72.772C203.3 73.6507 203.775 74.9366 203.819 76.7031C203.824 76.932 203.642 77.1223 203.412 77.1277C203.409 77.1277 203.406 77.1277 203.402 77.1277Z" fill="#FDE1A7"/>
<path d="M205.765 73.6662C205.596 73.6662 205.457 73.5318 205.453 73.3626C205.384 70.5475 204.223 69.2172 201.446 68.7706C201.275 68.7433 201.159 68.5836 201.187 68.414C201.214 68.2444 201.378 68.1296 201.545 68.1565C204.604 68.6483 206.002 70.2489 206.078 73.3473C206.082 73.519 205.946 73.6616 205.773 73.6658C205.77 73.6662 205.768 73.6662 205.765 73.6662Z" fill="#FDE1A7"/>
<path d="M160.252 62.4926C160.153 62.4926 160.056 62.4465 159.996 62.3599C159.896 62.2193 159.931 62.0252 160.072 61.927C160.975 61.2979 165.798 58.8033 171.201 59.0202C171.374 59.0272 171.508 59.1719 171.501 59.3432C171.495 59.5149 171.346 59.6521 171.177 59.6417C165.939 59.4311 161.299 61.8316 160.431 62.4366C160.376 62.4743 160.314 62.4926 160.252 62.4926Z" fill="#FDE1A7"/>
<path d="M171.137 69.905C171.098 69.905 171.058 69.8976 171.019 69.8818C169.938 69.4419 166.879 69.4896 165.893 69.5418C165.711 69.5464 165.574 69.4186 165.564 69.2478C165.556 69.0761 165.688 68.9298 165.86 68.9206C165.9 68.919 169.841 68.7307 171.255 69.3063C171.415 69.3714 171.491 69.553 171.426 69.7122C171.377 69.8321 171.26 69.905 171.137 69.905Z" fill="#FDE1A7"/>
<path d="M199.965 127.303C199.948 127.303 199.931 127.302 199.913 127.299C199.685 127.271 199.523 127.064 199.552 126.837C199.857 124.402 202.427 123.277 204.913 122.189C207.717 120.961 210.366 119.801 210.416 116.998C210.452 115.026 208.802 114.014 206.892 112.843C205.008 111.688 202.872 110.379 202.572 107.862C202.217 104.881 204.42 102.395 206.189 100.398C207.157 99.306 208.071 98.2739 208.313 97.4354C208.376 97.2156 208.607 97.0883 208.828 97.151C209.049 97.214 209.177 97.4437 209.114 97.6639C208.82 98.6823 207.89 99.7314 206.814 100.947C205.068 102.917 203.089 105.151 203.4 107.764C203.652 109.882 205.438 110.978 207.33 112.137C209.279 113.332 211.294 114.567 211.25 117.012C211.19 120.346 208.033 121.728 205.249 122.947C202.872 123.988 200.626 124.972 200.379 126.939C200.352 127.149 200.172 127.303 199.965 127.303Z" fill="#FDE1A7"/>
<path d="M197.708 111.908C197.61 111.908 197.512 111.862 197.452 111.775C195.17 108.517 196.325 105.43 197.254 104.252C197.361 104.117 197.557 104.093 197.692 104.2C197.828 104.306 197.852 104.502 197.745 104.637C197.721 104.667 195.374 107.721 197.964 111.42C198.063 111.561 198.028 111.754 197.886 111.853C197.832 111.89 197.77 111.908 197.708 111.908Z" fill="#FDE1A7"/>
<path d="M156.562 166.851C156.424 166.851 156.289 166.783 156.21 166.658C156.087 166.465 156.144 166.209 156.338 166.086C157.543 165.326 159.661 165.12 162.113 164.882C164.175 164.682 166.513 164.454 168.402 163.836C171.486 162.827 174.876 160.649 175.141 157.564C175.315 155.55 174.364 154.588 173.358 153.569C172.509 152.711 171.631 151.823 171.562 150.336C171.381 146.477 177.529 143.639 177.791 143.52C177.999 143.425 178.247 143.517 178.343 143.725C178.438 143.933 178.346 144.179 178.137 144.275C176.097 145.201 172.271 147.653 172.394 150.297C172.449 151.467 173.145 152.172 173.951 152.988C174.995 154.044 176.177 155.24 175.972 157.635C175.672 161.123 171.999 163.533 168.662 164.624C166.686 165.271 164.299 165.503 162.194 165.707C159.946 165.926 157.821 166.132 156.785 166.787C156.716 166.83 156.638 166.851 156.562 166.851Z" fill="#FDE1A7"/>
<path d="M168.542 149.85C168.526 149.85 168.51 149.849 168.495 149.848C168.266 149.822 168.102 149.617 168.127 149.389C168.659 144.677 172.064 142.784 173.331 142.452C173.553 142.393 173.782 142.526 173.84 142.748C173.898 142.969 173.765 143.196 173.543 143.254C172.505 143.526 169.433 145.254 168.955 149.483C168.932 149.694 168.751 149.85 168.542 149.85Z" fill="#FDE1A7"/>
<path d="M121.309 173.025C120.129 173.025 117.172 172.487 110.73 168.818C109.884 168.336 109.026 167.839 108.155 167.335C99.5527 162.357 89.804 156.717 78.6119 157.675C70.3219 158.387 66.3861 163.247 65.0927 164.845C64.9661 165.001 64.8661 165.125 64.7902 165.209C64.6373 165.38 64.374 165.396 64.2019 165.243C64.0298 165.091 64.0144 164.829 64.1673 164.658C64.2365 164.58 64.3281 164.467 64.444 164.324C65.7923 162.659 69.8965 157.592 78.5406 156.849C89.9927 155.86 99.8648 161.578 108.574 166.619C109.444 167.122 110.3 167.617 111.144 168.098C119.356 172.775 121.654 172.168 121.676 172.162C121.891 172.097 122.125 172.211 122.198 172.423C122.27 172.634 122.169 172.862 121.96 172.941C121.899 172.965 121.703 173.025 121.309 173.025Z" fill="#FDE1A7"/>
<path d="M62.9503 159.232C62.8815 159.232 62.8128 159.21 62.7553 159.164C62.6207 159.057 62.599 158.861 62.7065 158.727C63.8469 157.308 67.1523 154.059 73.2194 154.568C73.3915 154.582 73.519 154.733 73.5048 154.904C73.4903 155.075 73.3361 155.202 73.1673 155.188C67.4044 154.707 64.2728 157.774 63.1944 159.115C63.1328 159.192 63.0419 159.232 62.9503 159.232Z" fill="#FDE1A7"/>
<path d="M51.3533 214.901C51.1362 214.901 50.9533 214.734 50.9379 214.515C50.4008 206.821 51.3008 200.045 51.9941 197.58C52.0562 197.36 52.2866 197.231 52.5075 197.293C52.7291 197.354 52.8583 197.584 52.7962 197.804C52.1183 200.214 51.2396 206.867 51.7691 214.457C51.785 214.686 51.6121 214.884 51.3825 214.9C51.3729 214.901 51.3629 214.901 51.3533 214.901Z" fill="#FDE1A7"/>
<path d="M70.6895 241.778C70.6357 241.778 70.5807 241.768 70.5278 241.746C70.3911 241.688 67.1782 240.315 66.817 238.013C66.5799 236.503 67.2482 235.538 67.8945 234.604C68.2782 234.049 68.6753 233.476 68.909 232.763C69.8007 230.043 67.8982 228.549 67.0899 228.203C66.8786 228.112 66.7811 227.868 66.872 227.658C66.9624 227.448 67.2078 227.352 67.4195 227.441C68.422 227.871 70.7865 229.71 69.7015 233.021C69.4303 233.848 68.979 234.5 68.5811 235.075C67.9515 235.984 67.4545 236.702 67.6403 237.885C67.9303 239.73 70.8232 240.969 70.852 240.982C71.0636 241.071 71.1632 241.314 71.0736 241.525C71.0061 241.683 70.8515 241.778 70.6895 241.778Z" fill="#FDE1A7"/>
<path d="M72.6541 235.793C72.5791 235.793 72.5041 235.766 72.4445 235.712C72.3166 235.597 72.3066 235.4 72.4224 235.273C73.4561 234.136 73.5374 232.89 73.4232 232.045C73.2524 230.78 72.5957 229.842 72.1841 229.581C72.0386 229.488 71.9957 229.296 72.0886 229.152C72.1816 229.007 72.3749 228.964 72.5203 229.057C73.1195 229.437 73.857 230.585 74.0428 231.962C74.1745 232.938 74.0807 234.376 72.8861 235.69C72.8241 235.758 72.7391 235.793 72.6541 235.793Z" fill="#FDE1A7"/>
<path d="M154.407 67.8009L157.006 63.5564L159.063 69.5981L154.407 67.8009Z" fill="#FE697A"/>
<path d="M59.5111 218.743L45.3498 216.177C43.9686 216.039 43.0498 216.648 42.9065 217.83C42.9065 217.83 42.6881 219.936 42.3936 222.717C42.7048 223.122 43.0173 223.524 43.3336 223.919C48.6836 230.608 54.8436 236.387 61.5965 241.16L61.4023 221.139C61.3994 220.079 61.0261 219.111 59.5111 218.743Z" fill="url(#paint70_linear)"/>
<path d="M53.8295 228.026C53.7316 228.026 53.6333 227.992 53.5541 227.923C53.3816 227.771 53.3649 227.509 53.5174 227.337L60.6391 219.309C60.7912 219.138 61.0545 219.122 61.227 219.273C61.3995 219.425 61.4162 219.687 61.2637 219.858L54.142 227.886C54.0599 227.979 53.9449 228.026 53.8295 228.026Z" fill="#D66976"/>
<path d="M54.8562 232.645L44.3308 216.12C44.2075 215.927 43.9504 215.869 43.7558 215.992C43.5612 216.114 43.5037 216.371 43.6266 216.564L53.9962 232.844L52.9533 234.197C53.1587 234.385 53.3621 234.576 53.5691 234.761L54.835 233.119C54.9412 232.982 54.9496 232.792 54.8562 232.645Z" fill="#D66976"/>
<defs>
<linearGradient id="paint0_linear" x1="-79.8361" y1="133.408" x2="30.7261" y2="386.571" gradientUnits="userSpaceOnUse">
<stop stop-color="#F77F89"/>
<stop offset="1" stop-color="#E9E9E9"/>
</linearGradient>
<radialGradient id="paint1_radial" cx="0" cy="0" r="1" gradientUnits="userSpaceOnUse" gradientTransform="translate(251.998 253.135) rotate(5.21919) scale(57.0613 19.8357)">
<stop stop-color="white" stop-opacity="0.3"/>
<stop offset="0.292" stop-color="#FDFDFE" stop-opacity="0.2124"/>
<stop offset="0.4342" stop-color="#F5F8FB" stop-opacity="0.1697"/>
<stop offset="0.5439" stop-color="#E8EEF6" stop-opacity="0.1368"/>
<stop offset="0.6372" stop-color="#D6DFEF" stop-opacity="0.1089"/>
<stop offset="0.7198" stop-color="#BDCDE6" stop-opacity="0.0841"/>
<stop offset="0.7951" stop-color="#A0B6DB" stop-opacity="0.0615"/>
<stop offset="0.8647" stop-color="#7C9BCE" stop-opacity="0.0406"/>
<stop offset="0.9299" stop-color="#537CBE" stop-opacity="0.021"/>
<stop offset="0.9892" stop-color="#265AAD" stop-opacity="0.01"/>
<stop offset="1" stop-color="#1D53AA" stop-opacity="0.01"/>
</radialGradient>
<radialGradient id="paint2_radial" cx="0" cy="0" r="1" gradientUnits="userSpaceOnUse" gradientTransform="translate(319.458 143.333) scale(14.4437 14.3744)">
<stop stop-color="white" stop-opacity="0.25"/>
<stop offset="0.2938" stop-color="#FDFDFE" stop-opacity="0.1766"/>
<stop offset="0.4368" stop-color="#F6F5FA" stop-opacity="0.1408"/>
<stop offset="0.5472" stop-color="#EAE8F2" stop-opacity="0.1132"/>
<stop offset="0.6409" stop-color="#D9D6E8" stop-opacity="0.0898"/>
<stop offset="0.7241" stop-color="#C3BDDA" stop-opacity="0.069"/>
<stop offset="0.7998" stop-color="#A8A0CA" stop-opacity="0.0501"/>
<stop offset="0.8697" stop-color="#887CB6" stop-opacity="0.0326"/>
<stop offset="0.9348" stop-color="#63549F" stop-opacity="0.0163"/>
<stop offset="0.9946" stop-color="#3A2685" stop-opacity="0.01"/>
<stop offset="1" stop-color="#362283" stop-opacity="0.01"/>
</radialGradient>
<radialGradient id="paint3_radial" cx="0" cy="0" r="1" gradientUnits="userSpaceOnUse" gradientTransform="translate(44.7221 135.043) scale(14.3056 14.237)">
<stop stop-color="white" stop-opacity="0.25"/>
<stop offset="0.3207" stop-color="#FDFDFF" stop-opacity="0.1698"/>
<stop offset="0.4767" stop-color="#F6F5FD" stop-opacity="0.1308"/>
<stop offset="0.5972" stop-color="#E9E8FA" stop-opacity="0.1007"/>
<stop offset="0.6995" stop-color="#D8D6F6" stop-opacity="0.0751"/>
<stop offset="0.7902" stop-color="#C1BDF1" stop-opacity="0.0524"/>
<stop offset="0.8728" stop-color="#A5A0EB" stop-opacity="0.0318"/>
<stop offset="0.9475" stop-color="#847DE4" stop-opacity="0.0131"/>
<stop offset="1" stop-color="#6860DE" stop-opacity="0.01"/>
</radialGradient>
<linearGradient id="paint4_linear" x1="31.5616" y1="135.043" x2="44.6584" y2="148.203" gradientUnits="userSpaceOnUse">
<stop stop-color="#FFE2A8"/>
<stop offset="1" stop-color="#271068"/>
</linearGradient>
<linearGradient id="paint5_linear" x1="31.5616" y1="135.043" x2="44.6584" y2="148.203" gradientUnits="userSpaceOnUse">
<stop stop-color="#FFE2A8"/>
<stop offset="1" stop-color="#A482FF"/>
</linearGradient>
<linearGradient id="paint6_linear" x1="305.317" y1="143.333" x2="319.391" y2="157.475" gradientUnits="userSpaceOnUse">
<stop stop-color="#8C6AE2"/>
<stop offset="1" stop-color="#5A55F8"/>
</linearGradient>
<linearGradient id="paint7_linear" x1="222.886" y1="255.038" x2="293.034" y2="255.038" gradientUnits="userSpaceOnUse">
<stop stop-color="#005092"/>
<stop offset="1" stop-color="#8C6AE2"/>
</linearGradient>
<linearGradient id="paint8_linear" x1="257.392" y1="255.037" x2="293.035" y2="255.037" gradientUnits="userSpaceOnUse">
<stop stop-color="#1AA9E8"/>
<stop offset="1" stop-color="#005092"/>
</linearGradient>
<linearGradient id="paint9_linear" x1="222.886" y1="248.421" x2="253.37" y2="248.421" gradientUnits="userSpaceOnUse">
<stop stop-color="#005092"/>
<stop offset="1" stop-color="#1AA9E8"/>
</linearGradient>
<linearGradient id="paint10_linear" x1="318.928" y1="150.06" x2="325.127" y2="143.829" gradientUnits="userSpaceOnUse">
<stop stop-color="#FFE2A8"/>
<stop offset="1" stop-color="#745B7F"/>
</linearGradient>
<radialGradient id="paint11_radial" cx="0" cy="0" r="1" gradientUnits="userSpaceOnUse" gradientTransform="translate(317.158 212.923) rotate(89.5797) scale(6.01482 3.30783)">
<stop stop-color="#231F20"/>
<stop offset="0.1018" stop-color="#262228"/>
<stop offset="0.2637" stop-color="#2F2A3F"/>
<stop offset="0.4653" stop-color="#3D3865"/>
<stop offset="0.6989" stop-color="#504A99"/>
<stop offset="0.9564" stop-color="#6962DB"/>
<stop offset="1" stop-color="#6D66E7"/>
</radialGradient>
<linearGradient id="paint12_linear" x1="317.31" y1="222.401" x2="317.31" y2="204.709" gradientUnits="userSpaceOnUse">
<stop stop-color="#1AA9E8"/>
<stop offset="1" stop-color="#B0E1FF"/>
</linearGradient>
<linearGradient id="paint13_linear" x1="305.571" y1="203.452" x2="313.081" y2="209.657" gradientUnits="userSpaceOnUse">
<stop stop-color="#B0E1FF"/>
<stop offset="1" stop-color="#1AA9E8"/>
</linearGradient>
<linearGradient id="paint14_linear" x1="281.407" y1="215.134" x2="282.943" y2="230.619" gradientUnits="userSpaceOnUse">
<stop stop-color="#B0E1FF"/>
<stop offset="1" stop-color="#1AA9E8"/>
</linearGradient>
<linearGradient id="paint15_linear" x1="277.648" y1="220.179" x2="277.648" y2="211.385" gradientUnits="userSpaceOnUse">
<stop stop-color="#6D66E7"/>
<stop offset="0.0436" stop-color="#6962DB"/>
<stop offset="0.3011" stop-color="#504A99"/>
<stop offset="0.5347" stop-color="#3D3865"/>
<stop offset="0.7363" stop-color="#2F2A3F"/>
<stop offset="0.8982" stop-color="#262228"/>
<stop offset="1" stop-color="#231F20"/>
</linearGradient>
<linearGradient id="paint16_linear" x1="274.162" y1="206.204" x2="276.265" y2="213.242" gradientUnits="userSpaceOnUse">
<stop stop-color="#6D66E7"/>
<stop offset="0.0436" stop-color="#6962DB"/>
<stop offset="0.3011" stop-color="#504A99"/>
<stop offset="0.5347" stop-color="#3D3865"/>
<stop offset="0.7363" stop-color="#2F2A3F"/>
<stop offset="0.8982" stop-color="#262228"/>
<stop offset="1" stop-color="#231F20"/>
</linearGradient>
<radialGradient id="paint17_radial" cx="0" cy="0" r="1" gradientUnits="userSpaceOnUse" gradientTransform="translate(292.136 211.773) scale(2.92896 2.9149)">
<stop stop-color="#231F20"/>
<stop offset="0.1018" stop-color="#262228"/>
<stop offset="0.2637" stop-color="#2F2A3F"/>
<stop offset="0.4653" stop-color="#3D3865"/>
<stop offset="0.6989" stop-color="#504A99"/>
<stop offset="0.9564" stop-color="#6962DB"/>
<stop offset="1" stop-color="#6D66E7"/>
</radialGradient>
<radialGradient id="paint18_radial" cx="0" cy="0" r="1" gradientUnits="userSpaceOnUse" gradientTransform="translate(297.717 211.549) scale(2.96 2.94579)">
<stop stop-color="#231F20"/>
<stop offset="0.1018" stop-color="#262228"/>
<stop offset="0.2637" stop-color="#2F2A3F"/>
<stop offset="0.4653" stop-color="#3D3865"/>
<stop offset="0.6989" stop-color="#504A99"/>
<stop offset="0.9564" stop-color="#6962DB"/>
<stop offset="1" stop-color="#6D66E7"/>
</radialGradient>
<radialGradient id="paint19_radial" cx="0" cy="0" r="1" gradientUnits="userSpaceOnUse" gradientTransform="translate(302.943 211.342) scale(2.92675 2.9127)">
<stop stop-color="#231F20"/>
<stop offset="0.1018" stop-color="#262228"/>
<stop offset="0.2637" stop-color="#2F2A3F"/>
<stop offset="0.4653" stop-color="#3D3865"/>
<stop offset="0.6989" stop-color="#504A99"/>
<stop offset="0.9564" stop-color="#6962DB"/>
<stop offset="1" stop-color="#6D66E7"/>
</radialGradient>
<linearGradient id="paint20_linear" x1="273.438" y1="129.647" x2="292.57" y2="129.647" gradientUnits="userSpaceOnUse">
<stop stop-color="#FFE2A8"/>
<stop offset="1" stop-color="#728390"/>
</linearGradient>
<linearGradient id="paint21_linear" x1="253.954" y1="120.762" x2="263.183" y2="120.762" gradientUnits="userSpaceOnUse">
<stop stop-color="#A281FF"/>
<stop offset="1" stop-color="#FF57BD"/>
</linearGradient>
<linearGradient id="paint22_linear" x1="256.605" y1="155.396" x2="271.238" y2="155.396" gradientUnits="userSpaceOnUse">
<stop stop-color="#FF57BD"/>
<stop offset="1" stop-color="#FE6A77"/>
</linearGradient>
<linearGradient id="paint23_linear" x1="266.167" y1="159.744" x2="275.064" y2="159.744" gradientUnits="userSpaceOnUse">
<stop stop-color="#C5188E"/>
<stop offset="1" stop-color="#9F36AD"/>
</linearGradient>
<linearGradient id="paint24_linear" x1="229.623" y1="130.104" x2="237.803" y2="130.104" gradientUnits="userSpaceOnUse">
<stop stop-color="#FF57BD"/>
<stop offset="1" stop-color="#FE6A77"/>
</linearGradient>
<linearGradient id="paint25_linear" x1="219.55" y1="128.872" x2="230.176" y2="128.872" gradientUnits="userSpaceOnUse">
<stop stop-color="#C5188E"/>
<stop offset="1" stop-color="#9F36AD"/>
</linearGradient>
<linearGradient id="paint26_linear" x1="249.577" y1="150.83" x2="280.965" y2="127.032" gradientUnits="userSpaceOnUse">
<stop stop-color="#05C5DA"/>
<stop offset="1" stop-color="#5860C4"/>
</linearGradient>
<linearGradient id="paint27_linear" x1="269.414" y1="152.572" x2="285.761" y2="152.572" gradientUnits="userSpaceOnUse">
<stop stop-color="#00E2EC"/>
<stop offset="1" stop-color="#0090B2"/>
</linearGradient>
<linearGradient id="paint28_linear" x1="278.741" y1="158.715" x2="288.759" y2="158.715" gradientUnits="userSpaceOnUse">
<stop stop-color="#A281FF"/>
<stop offset="1" stop-color="#FF57BD"/>
</linearGradient>
<linearGradient id="paint29_linear" x1="241.298" y1="127.109" x2="248.488" y2="137.285" gradientUnits="userSpaceOnUse">
<stop stop-color="#00E2EC"/>
<stop offset="1" stop-color="#0090B2"/>
</linearGradient>
<linearGradient id="paint30_linear" x1="232.076" y1="139.655" x2="245.897" y2="139.655" gradientUnits="userSpaceOnUse">
<stop stop-color="#A281FF"/>
<stop offset="1" stop-color="#FF57BD"/>
</linearGradient>
<linearGradient id="paint31_linear" x1="226.773" y1="110.88" x2="234.585" y2="110.88" gradientUnits="userSpaceOnUse">
<stop stop-color="#9F36AD"/>
<stop offset="0.1071" stop-color="#8D3399"/>
<stop offset="0.4036" stop-color="#602A65"/>
<stop offset="0.662" stop-color="#3F243F"/>
<stop offset="0.8695" stop-color="#2A2028"/>
<stop offset="1" stop-color="#231F20"/>
</linearGradient>
<linearGradient id="paint32_linear" x1="233.409" y1="96.4999" x2="239.34" y2="98.9783" gradientUnits="userSpaceOnUse">
<stop stop-color="#FFE2A8"/>
<stop offset="1" stop-color="#728390"/>
</linearGradient>
<linearGradient id="paint33_linear" x1="216.087" y1="102.955" x2="236.836" y2="127.262" gradientUnits="userSpaceOnUse">
<stop stop-color="#FFE2A8"/>
<stop offset="1" stop-color="#728390"/>
</linearGradient>
<linearGradient id="paint34_linear" x1="220.891" y1="103.337" x2="225.279" y2="103.337" gradientUnits="userSpaceOnUse">
<stop stop-color="#653271"/>
<stop offset="0.1129" stop-color="#5B2F65"/>
<stop offset="0.496" stop-color="#3D263F"/>
<stop offset="0.8053" stop-color="#2A2128"/>
<stop offset="1" stop-color="#231F20"/>
</linearGradient>
<radialGradient id="paint35_radial" cx="0" cy="0" r="1" gradientUnits="userSpaceOnUse" gradientTransform="translate(236.905 101.373) scale(18.5442 18.4553)">
<stop stop-color="#4E40AF" stop-opacity="0.01"/>
<stop offset="0.1096" stop-color="#5446B2" stop-opacity="0.0438"/>
<stop offset="0.2617" stop-color="#6558B9" stop-opacity="0.1047"/>
<stop offset="0.4387" stop-color="#8076C6" stop-opacity="0.1755"/>
<stop offset="0.6345" stop-color="#A69FD7" stop-opacity="0.2538"/>
<stop offset="0.8432" stop-color="#D6D3ED" stop-opacity="0.3373"/>
<stop offset="1" stop-color="white" stop-opacity="0.4"/>
</radialGradient>
<linearGradient id="paint36_linear" x1="234.025" y1="122.461" x2="253.782" y2="122.461" gradientUnits="userSpaceOnUse">
<stop stop-color="#FF57BD"/>
<stop offset="1" stop-color="#FE6A77"/>
</linearGradient>
<linearGradient id="paint37_linear" x1="250.557" y1="108.432" x2="255.445" y2="108.432" gradientUnits="userSpaceOnUse">
<stop stop-color="#05C5DA"/>
<stop offset="1" stop-color="#0090B2"/>
</linearGradient>
<linearGradient id="paint38_linear" x1="79.5025" y1="150.543" x2="89.9788" y2="150.543" gradientUnits="userSpaceOnUse">
<stop stop-color="#05C5DA"/>
<stop offset="1" stop-color="#5860C4"/>
</linearGradient>
<linearGradient id="paint39_linear" x1="222.215" y1="222.666" x2="251.816" y2="222.666" gradientUnits="userSpaceOnUse">
<stop stop-color="#05C5DA"/>
<stop offset="1" stop-color="#5860C4"/>
</linearGradient>
<linearGradient id="paint40_linear" x1="183.819" y1="208.944" x2="235.052" y2="208.944" gradientUnits="userSpaceOnUse">
<stop stop-color="#FF57BD"/>
<stop offset="1" stop-color="#FE6A77"/>
</linearGradient>
<linearGradient id="paint41_linear" x1="122.027" y1="115.557" x2="122.027" y2="139.074" gradientUnits="userSpaceOnUse">
<stop stop-color="#FE6A77"/>
<stop offset="1" stop-color="#C91C91"/>
</linearGradient>
<linearGradient id="paint42_linear" x1="168.123" y1="135.339" x2="176.519" y2="135.339" gradientUnits="userSpaceOnUse">
<stop stop-color="#05C5DA"/>
<stop offset="1" stop-color="#5860C4"/>
</linearGradient>
<linearGradient id="paint43_linear" x1="150.208" y1="132.137" x2="176.653" y2="132.137" gradientUnits="userSpaceOnUse">
<stop stop-color="#FF57BD"/>
<stop offset="1" stop-color="#FE6A77"/>
</linearGradient>
<linearGradient id="paint44_linear" x1="168.126" y1="132.137" x2="176.653" y2="132.137" gradientUnits="userSpaceOnUse">
<stop stop-color="#05C5DA"/>
<stop offset="1" stop-color="#0090B2"/>
</linearGradient>
<linearGradient id="paint45_linear" x1="134.143" y1="120.397" x2="159.684" y2="120.397" gradientUnits="userSpaceOnUse">
<stop stop-color="#00E2EC"/>
<stop offset="1" stop-color="#0090B2"/>
</linearGradient>
<linearGradient id="paint46_linear" x1="135.677" y1="203.653" x2="185.438" y2="159.939" gradientUnits="userSpaceOnUse">
<stop stop-color="#FE6A77"/>
<stop offset="1" stop-color="#FF57BD"/>
</linearGradient>
<linearGradient id="paint47_linear" x1="142.553" y1="168.928" x2="167.713" y2="142.165" gradientUnits="userSpaceOnUse">
<stop stop-color="#C5188E"/>
<stop offset="1" stop-color="#FF57BD"/>
</linearGradient>
<linearGradient id="paint48_linear" x1="152.034" y1="206.297" x2="233.39" y2="206.297" gradientUnits="userSpaceOnUse">
<stop stop-color="#C91C91"/>
<stop offset="1" stop-color="#FE6A77"/>
</linearGradient>
<linearGradient id="paint49_linear" x1="184.792" y1="169.594" x2="207.87" y2="169.594" gradientUnits="userSpaceOnUse">
<stop stop-color="#00E2EC"/>
<stop offset="1" stop-color="#0090B2"/>
</linearGradient>
<linearGradient id="paint50_linear" x1="230.02" y1="182.15" x2="259.251" y2="182.15" gradientUnits="userSpaceOnUse">
<stop stop-color="#00E2EC"/>
<stop offset="1" stop-color="#0090B2"/>
</linearGradient>
<linearGradient id="paint51_linear" x1="82.817" y1="201.876" x2="115.133" y2="201.876" gradientUnits="userSpaceOnUse">
<stop stop-color="#FE6A77"/>
<stop offset="1" stop-color="#C91C91"/>
</linearGradient>
<linearGradient id="paint52_linear" x1="82.8446" y1="188.175" x2="91.7689" y2="188.175" gradientUnits="userSpaceOnUse">
<stop stop-color="#00E2EC"/>
<stop offset="1" stop-color="#0090B2"/>
</linearGradient>
<linearGradient id="paint53_linear" x1="98.8224" y1="228.016" x2="118.542" y2="228.016" gradientUnits="userSpaceOnUse">
<stop stop-color="#00E2EC"/>
<stop offset="1" stop-color="#0090B2"/>
</linearGradient>
<linearGradient id="paint54_linear" x1="98.9807" y1="117.011" x2="100.655" y2="130.251" gradientUnits="userSpaceOnUse">
<stop stop-color="#C16846"/>
<stop offset="0.2653" stop-color="#D27565"/>
<stop offset="0.5308" stop-color="#DE7F7B"/>
<stop offset="0.7814" stop-color="#E58589"/>
<stop offset="1" stop-color="#E8878E"/>
</linearGradient>
<linearGradient id="paint55_linear" x1="99.4382" y1="126.492" x2="115.974" y2="114.293" gradientUnits="userSpaceOnUse">
<stop stop-color="#E8878E"/>
<stop offset="1" stop-color="#F4BEA3"/>
</linearGradient>
<linearGradient id="paint56_linear" x1="103.951" y1="111.234" x2="108.769" y2="111.234" gradientUnits="userSpaceOnUse">
<stop stop-color="#FF57BD"/>
<stop offset="1" stop-color="#FE6A77"/>
</linearGradient>
<linearGradient id="paint57_linear" x1="87.6923" y1="117.101" x2="107.108" y2="117.101" gradientUnits="userSpaceOnUse">
<stop stop-color="#994574"/>
<stop offset="1" stop-color="#43256F"/>
</linearGradient>
<radialGradient id="paint58_radial" cx="0" cy="0" r="1" gradientUnits="userSpaceOnUse" gradientTransform="translate(99.4864 109.842) scale(19.5919 20.6695)">
<stop stop-color="#635AD5" stop-opacity="0.01"/>
<stop offset="0.1205" stop-color="#6960D7" stop-opacity="0.0482"/>
<stop offset="0.2878" stop-color="#7A72DB" stop-opacity="0.1151"/>
<stop offset="0.4824" stop-color="#9690E3" stop-opacity="0.193"/>
<stop offset="0.6977" stop-color="#BDB9ED" stop-opacity="0.2791"/>
<stop offset="0.9273" stop-color="#EEEDFA" stop-opacity="0.3709"/>
<stop offset="1" stop-color="white" stop-opacity="0.4"/>
</radialGradient>
<linearGradient id="paint59_linear" x1="79.9502" y1="129.441" x2="111.568" y2="129.441" gradientUnits="userSpaceOnUse">
<stop stop-color="#00E2EC"/>
<stop offset="1" stop-color="#0090B2"/>
</linearGradient>
<linearGradient id="paint60_linear" x1="86.8101" y1="125.406" x2="91.562" y2="121.787" gradientUnits="userSpaceOnUse">
<stop stop-color="#A281FF"/>
<stop offset="0.0945" stop-color="#B17AF5"/>
<stop offset="0.3504" stop-color="#D36BDD"/>
<stop offset="0.5934" stop-color="#EB60CB"/>
<stop offset="0.8163" stop-color="#FA59C1"/>
<stop offset="1" stop-color="#FF57BD"/>
</linearGradient>
<linearGradient id="paint61_linear" x1="92.8786" y1="136.075" x2="124.947" y2="136.075" gradientUnits="userSpaceOnUse">
<stop stop-color="#00E2EC"/>
<stop offset="1" stop-color="#0090B2"/>
</linearGradient>
<linearGradient id="paint62_linear" x1="132.83" y1="106.613" x2="144.882" y2="106.613" gradientUnits="userSpaceOnUse">
<stop stop-color="#653271"/>
<stop offset="0.1129" stop-color="#5B2F65"/>
<stop offset="0.496" stop-color="#3D263F"/>
<stop offset="0.8053" stop-color="#2A2128"/>
<stop offset="1" stop-color="#231F20"/>
</linearGradient>
<linearGradient id="paint63_linear" x1="130.325" y1="100.413" x2="142.966" y2="105.174" gradientUnits="userSpaceOnUse">
<stop stop-color="#84DBF1"/>
<stop offset="1" stop-color="#FFE2A8"/>
</linearGradient>
<linearGradient id="paint64_linear" x1="138.586" y1="74.7277" x2="144.658" y2="74.7277" gradientUnits="userSpaceOnUse">
<stop stop-color="#67B4D8"/>
<stop offset="1" stop-color="#C7DFF2"/>
</linearGradient>
<linearGradient id="paint65_linear" x1="132.314" y1="78.5115" x2="135.932" y2="78.5115" gradientUnits="userSpaceOnUse">
<stop stop-color="#67B4D8"/>
<stop offset="1" stop-color="#C7DFF2"/>
</linearGradient>
<linearGradient id="paint66_linear" x1="126.324" y1="181.239" x2="153.545" y2="181.239" gradientUnits="userSpaceOnUse">
<stop stop-color="#FDE1A7"/>
<stop offset="1" stop-color="#F9A144"/>
</linearGradient>
<linearGradient id="paint67_linear" x1="194.655" y1="96.3362" x2="217.01" y2="96.3362" gradientUnits="userSpaceOnUse">
<stop stop-color="#FDE1A7"/>
<stop offset="1" stop-color="#F9A144"/>
</linearGradient>
<linearGradient id="paint68_linear" x1="179.533" y1="147.866" x2="201.496" y2="147.866" gradientUnits="userSpaceOnUse">
<stop stop-color="#FDE1A7"/>
<stop offset="1" stop-color="#F9A144"/>
</linearGradient>
<linearGradient id="paint69_linear" x1="47.391" y1="194.772" x2="68.3143" y2="194.772" gradientUnits="userSpaceOnUse">
<stop stop-color="#FDE1A7"/>
<stop offset="1" stop-color="#F9A144"/>
</linearGradient>
<linearGradient id="paint70_linear" x1="40.4446" y1="242.48" x2="61.6742" y2="242.48" gradientUnits="userSpaceOnUse">
<stop stop-color="#FDE1A7"/>
<stop offset="1" stop-color="#F9A144"/>
</linearGradient>
</defs>
</svg>
