<svg width="67" height="95" viewBox="0 0 67 95" fill="none" xmlns="http://www.w3.org/2000/svg">
<path fill-rule="evenodd" clip-rule="evenodd" d="M40.1051 34.9399C42.455 37.2898 45.8253 37.7294 47.6329 35.9218C49.4405 34.1141 49.0009 30.7438 46.651 28.3939C44.3012 26.0441 40.9308 25.6045 39.1232 27.4121C37.3156 29.2197 37.7552 32.59 40.1051 34.9399Z" fill="#0E2580"/>
<path d="M16.7246 59.247C16.7246 59.247 17.1875 91.1848 39.4051 91.1848C61.6227 91.1848 75.5086 65.2643 46.8109 35.178" stroke="#1B37A7" stroke-width="6" stroke-linecap="round" stroke-linejoin="round"/>
<path fill-rule="evenodd" clip-rule="evenodd" d="M43.7056 31.3394C45.3325 32.9662 47.6038 33.3326 48.7787 32.1576C49.9537 30.9827 49.5873 28.7114 47.9605 27.0845C46.3336 25.4577 44.0623 25.0914 42.8874 26.2663C41.7125 27.4412 42.0788 29.7125 43.7056 31.3394Z" fill="#1B37A7" stroke="#60C5BF" stroke-linecap="round" stroke-linejoin="round"/>
<path d="M13.0212 2.77748C13.0212 2.77748 3.76389 1.38888 2.37529 6.01754C0.986696 10.6462 3.76389 23.1436 5.61536 27.3094" stroke="#60C5BF" stroke-width="3" stroke-linecap="round" stroke-linejoin="round"/>
<path d="M19.9641 2.77748C19.9641 2.77748 29.2215 1.38888 30.6101 6.01754C31.9987 10.6462 29.2215 23.1436 27.37 27.3094" stroke="#60C5BF" stroke-width="3" stroke-linecap="round" stroke-linejoin="round"/>
<path fill-rule="evenodd" clip-rule="evenodd" d="M28.2722 24.6031C27.5447 24.3606 26.7583 24.7538 26.5158 25.4814L23.1475 35.5859C23.129 35.6045 23.1109 35.6237 23.0932 35.6435C20.861 38.1503 18.7347 39.3442 16.7111 39.3442C14.7208 39.3442 12.4957 38.1939 10.0526 35.7986L6.46442 25.465L6.43543 25.3887C6.15644 24.7139 5.39577 24.3661 4.69717 24.6087C3.9727 24.8603 3.58932 25.6515 3.84088 26.3759L15.4125 59.7023L15.4435 59.784C15.9256 60.9536 17.6317 60.9157 18.0417 59.686L29.1504 26.3596L29.174 26.2814C29.3645 25.5766 28.9738 24.837 28.2722 24.6031ZM11.7311 40.6326L14.7695 49.3828C15.3958 51.1866 17.9524 51.1707 18.5562 49.3593L21.4417 40.703C19.8963 41.642 18.3193 42.1214 16.7111 42.1214C15.0659 42.1214 13.407 41.6188 11.7311 40.6326Z" fill="#1B37A7"/>
<path fill-rule="evenodd" clip-rule="evenodd" d="M9.78118 3.70293C9.01428 3.70293 8.39258 3.08123 8.39258 2.31433C8.39258 1.54743 9.01428 0.925733 9.78118 0.925733H11.1698L11.1987 0.887796C11.6224 0.347301 12.2812 0 13.0212 0C14.2994 0 15.3356 1.03616 15.3356 2.31433C15.3356 3.5925 14.2994 4.62866 13.0212 4.62866C12.2643 4.62866 11.5923 4.2653 11.17 3.70349L9.78118 3.70293Z" fill="#FFB0A3"/>
<path fill-rule="evenodd" clip-rule="evenodd" d="M23.6677 0.925733C24.4346 0.925733 25.0563 1.54743 25.0563 2.31433C25.0563 3.08123 24.4346 3.70293 23.6677 3.70293L22.2788 3.70349C21.8566 4.2653 21.1845 4.62866 20.4276 4.62866C19.1494 4.62866 18.1133 3.5925 18.1133 2.31433C18.1133 1.03616 19.1494 0 20.4276 0C21.1847 0 21.8569 0.363568 22.2792 0.925643L23.6677 0.925733Z" fill="#FFB0A3"/>
<path d="M19.9639 77.7615C19.9639 77.7615 20.581 77.7615 20.8896 77.2986" stroke="#5873E2" stroke-linecap="round" stroke-linejoin="round"/>
<path d="M20.9022 80.0999C20.9022 80.0999 21.5185 80.0676 21.8024 79.5892" stroke="#5873E2" stroke-linecap="round" stroke-linejoin="round"/>
<path d="M22.3154 82.4527C22.3154 82.4527 22.9265 82.3669 23.1677 81.8655" stroke="#5873E2" stroke-linecap="round" stroke-linejoin="round"/>
<path d="M23.7251 84.3326C23.7251 84.3326 24.3288 84.2043 24.5344 83.6874" stroke="#5873E2" stroke-linecap="round" stroke-linejoin="round"/>
<path d="M25.1373 85.7491C25.1373 85.7491 25.7306 85.579 25.8996 85.049" stroke="#5873E2" stroke-linecap="round" stroke-linejoin="round"/>
<path d="M26.5385 87.1509C26.5385 87.1509 27.1255 86.9602 27.2759 86.4246" stroke="#5873E2" stroke-linecap="round" stroke-linejoin="round"/>
<path d="M28.853 88.5393C28.853 88.5393 29.4399 88.3486 29.5904 87.8131" stroke="#5873E2" stroke-linecap="round" stroke-linejoin="round"/>
<path d="M30.7169 89.4774C30.7169 89.4774 31.2968 89.2664 31.4285 88.7259" stroke="#5873E2" stroke-linecap="round" stroke-linejoin="round"/>
<path d="M51.4395 40.2695L52.3652 39.3438" stroke="#5873E2" stroke-linecap="round" stroke-linejoin="round"/>
<path d="M52.3652 41.6579L53.291 40.7322" stroke="#5873E2" stroke-linecap="round" stroke-linejoin="round"/>
<path d="M53.291 43.5095L54.2167 42.5837" stroke="#5873E2" stroke-linecap="round" stroke-linejoin="round"/>
<path d="M54.6797 44.8984L55.6054 43.9727" stroke="#5873E2" stroke-linecap="round" stroke-linejoin="round"/>
<path d="M55.6055 46.7492L56.5312 45.8235" stroke="#5873E2" stroke-linecap="round" stroke-linejoin="round"/>
<path d="M56.9932 48.6008L57.9189 47.675" stroke="#5873E2" stroke-linecap="round" stroke-linejoin="round"/>
<path d="M57.9189 49.9897L58.8447 49.064" stroke="#5873E2" stroke-linecap="round" stroke-linejoin="round"/>
<path d="M58.8447 51.8413L59.7705 50.9155" stroke="#5873E2" stroke-linecap="round" stroke-linejoin="round"/>
</svg>
