<svg width="316" height="243" viewBox="0 0 316 243" fill="none" xmlns="http://www.w3.org/2000/svg">
<g filter="url(#filter0_d)">
<rect x="4" width="308" height="235" rx="20" fill="#E85D52"/>
<path d="M149.746 85.4313C150.197 85.2053 150.588 84.8754 150.887 84.469C151.185 84.0625 151.383 83.5909 151.464 83.0931C151.545 82.5952 151.507 82.0853 151.352 81.6052C151.198 81.1251 150.931 80.6885 150.575 80.3313L144.2 73.9563C143.599 73.3757 142.794 73.0544 141.958 73.0616C141.122 73.0689 140.323 73.4041 139.732 73.9951C139.141 74.5861 138.806 75.3856 138.798 76.2213C138.791 77.0571 139.112 77.8623 139.693 78.4634L142.941 81.7115L140.522 82.9195C139.765 83.2974 139.19 83.9604 138.922 84.7626C138.654 85.5648 138.716 86.4406 139.094 87.1972C139.472 87.9538 140.135 88.5293 140.937 88.7971C141.739 89.0649 142.615 89.0031 143.371 88.6252L149.746 85.4313Z" fill="white"/>
<path d="M166.023 85.4313L172.398 88.6188C172.772 88.8059 173.18 88.9174 173.598 88.9469C174.016 88.9764 174.435 88.9233 174.832 88.7907C175.229 88.6581 175.597 88.4486 175.913 88.1741C176.229 87.8996 176.488 87.5655 176.675 87.1908C176.862 86.8162 176.974 86.4084 177.003 85.9906C177.033 85.5729 176.98 85.1535 176.847 84.7563C176.715 84.359 176.505 83.9918 176.231 83.6756C175.956 83.3594 175.622 83.1003 175.247 82.9132L172.828 81.7051L176.076 78.4571C176.657 77.8559 176.978 77.0507 176.971 76.215C176.963 75.3792 176.628 74.5798 176.037 73.9888C175.446 73.3978 174.647 73.0626 173.811 73.0553C172.975 73.048 172.17 73.3693 171.569 73.9499L165.194 80.3249C164.838 80.6821 164.572 81.1187 164.417 81.5988C164.262 82.079 164.224 82.5889 164.305 83.0867C164.386 83.5846 164.584 84.0561 164.882 84.4626C165.181 84.8691 165.572 85.1989 166.023 85.4249V85.4313Z" fill="white"/>
<path d="M163.622 109.975L168.722 113.8C169.399 114.307 170.249 114.525 171.086 114.405C171.922 114.286 172.678 113.839 173.185 113.162C173.692 112.486 173.91 111.636 173.79 110.799C173.671 109.962 173.224 109.207 172.547 108.7L167.447 104.875C164.682 102.821 161.329 101.711 157.885 101.711C154.44 101.711 151.087 102.821 148.322 104.875L143.222 108.7C142.546 109.207 142.099 109.962 141.979 110.799C141.86 111.636 142.078 112.486 142.585 113.162C143.092 113.839 143.847 114.286 144.684 114.405C145.521 114.525 146.371 114.307 147.047 113.8L152.147 109.975C153.806 108.742 155.818 108.077 157.885 108.077C159.952 108.077 161.963 108.742 163.622 109.975Z" fill="white"/>
<path d="M256.697 159.891V92.125C256.697 88.7435 255.354 85.5005 252.963 83.1094C250.572 80.7183 247.329 79.375 243.947 79.375C240.566 79.375 237.323 80.7183 234.932 83.1094C232.541 85.5005 231.197 88.7435 231.197 92.125V159.891L231.102 159.987C227.616 154.801 222.91 150.55 217.396 147.61C211.882 144.67 205.73 143.13 199.482 143.125H180.197C179.352 143.125 178.541 142.789 177.943 142.191C177.346 141.594 177.01 140.783 177.01 139.938V131.586C181.39 129.033 185.225 125.641 188.293 121.605C191.361 117.568 193.604 112.966 194.892 108.062H199.322C201.856 108.055 204.284 107.045 206.076 105.253C207.867 103.462 208.877 101.034 208.885 98.5V88.9375C208.881 87.6003 208.594 86.279 208.045 85.0597C207.496 83.8405 206.696 82.7506 205.697 81.8613V50.6875C205.686 43.0827 202.659 35.7928 197.282 30.4154C191.905 25.038 184.615 22.0118 177.01 22H151.51C148.709 21.9997 145.957 22.7395 143.533 24.1444C141.11 25.5493 139.1 27.5695 137.708 30.0006C136.135 28.9419 134.281 28.3759 132.385 28.375H126.01C121.783 28.375 117.729 30.0541 114.74 33.043C111.752 36.0318 110.072 40.0856 110.072 44.3125V81.8613C109.074 82.7506 108.274 83.8405 107.725 85.0597C107.175 86.279 106.889 87.6003 106.885 88.9375V98.5C106.892 101.034 107.902 103.462 109.694 105.253C111.486 107.045 113.914 108.055 116.447 108.062H120.878C122.166 112.966 124.408 117.568 127.477 121.605C130.545 125.641 134.379 129.033 138.76 131.586V139.938C138.76 140.783 138.424 141.594 137.826 142.191C137.229 142.789 136.418 143.125 135.572 143.125H116.288C106.795 143.104 97.6342 146.623 90.5965 152.995C83.5588 159.367 79.1493 168.133 78.2293 177.582L75.0099 209.744C74.9755 210.188 75.0311 210.634 75.1735 211.056C75.316 211.477 75.5422 211.866 75.8386 212.198C76.1367 212.528 76.5005 212.792 76.9067 212.974C77.3129 213.155 77.7526 213.249 78.1974 213.25H237.572C238.017 213.249 238.457 213.155 238.863 212.974C239.269 212.792 239.633 212.528 239.931 212.198C240.228 211.866 240.454 211.477 240.596 211.056C240.739 210.634 240.794 210.188 240.76 209.744L239.772 200.086C241.148 200.353 242.546 200.491 243.947 200.5C248.694 200.496 253.315 198.978 257.139 196.167C260.964 193.357 263.793 189.4 265.214 184.871C266.636 180.343 266.577 175.479 265.045 170.987C263.514 166.495 260.589 162.608 256.697 159.891ZM202.51 88.9375V98.5C202.51 99.3454 202.174 100.156 201.576 100.754C200.979 101.352 200.168 101.688 199.322 101.688H195.976C196.071 100.636 196.135 99.5837 196.135 98.5V85.75H199.322C200.168 85.75 200.979 86.0858 201.576 86.6836C202.174 87.2814 202.51 88.0921 202.51 88.9375ZM116.447 101.688C115.602 101.688 114.791 101.352 114.193 100.754C113.596 100.156 113.26 99.3454 113.26 98.5V88.9375C113.26 88.0921 113.596 87.2814 114.193 86.6836C114.791 86.0858 115.602 85.75 116.447 85.75H119.635V98.5C119.635 99.5837 119.699 100.636 119.794 101.688H116.447ZM119.635 69.8125V79.375H116.447V44.3125C116.455 41.7787 117.465 39.3508 119.257 37.5592C121.048 35.7675 123.476 34.7576 126.01 34.75H132.385C133.23 34.75 134.041 35.0858 134.639 35.6836C135.237 36.2814 135.572 37.0921 135.572 37.9375C135.572 38.7829 135.908 39.5936 136.506 40.1914C137.104 40.7892 137.915 41.125 138.76 41.125C139.605 41.125 140.416 40.7892 141.014 40.1914C141.612 39.5936 141.947 38.7829 141.947 37.9375C141.955 35.4037 142.965 32.9758 144.757 31.1842C146.548 29.3925 148.976 28.3826 151.51 28.375H177.01C182.925 28.3817 188.597 30.7347 192.78 34.9176C196.963 39.1006 199.316 44.7719 199.322 50.6875V79.375H196.135V69.8125C196.135 65.5856 194.456 61.5318 191.467 58.543C188.478 55.5541 184.424 53.875 180.197 53.875H135.572C131.346 53.875 127.292 55.5541 124.303 58.543C121.314 61.5318 119.635 65.5856 119.635 69.8125ZM126.01 98.5V69.8125C126.017 67.2787 127.027 64.8508 128.819 63.0592C130.611 61.2675 133.039 60.2576 135.572 60.25H180.197C182.731 60.2576 185.159 61.2675 186.951 63.0592C188.742 64.8508 189.752 67.2787 189.76 69.8125V98.5C189.76 106.954 186.402 115.061 180.424 121.039C174.446 127.017 166.339 130.375 157.885 130.375C149.431 130.375 141.324 127.017 135.346 121.039C129.368 115.061 126.01 106.954 126.01 98.5ZM176.149 148.576C174.99 152.522 172.585 155.986 169.292 158.451C166 160.915 161.998 162.247 157.885 162.247C153.772 162.247 149.77 160.915 146.478 158.451C143.185 155.986 140.779 152.522 139.621 148.576C141.265 147.807 142.656 146.587 143.633 145.058C144.609 143.528 145.13 141.752 145.135 139.938V134.519C153.375 137.494 162.395 137.494 170.635 134.519V139.938C170.64 141.752 171.161 143.528 172.137 145.058C173.114 146.587 174.505 147.807 176.149 148.576ZM113.26 206.875H81.7355L82.373 200.5H113.26V206.875ZM199.322 181.375C198.477 181.375 197.666 181.711 197.068 182.309C196.471 182.906 196.135 183.717 196.135 184.562V206.875H119.635V184.562C119.635 183.717 119.299 182.906 118.701 182.309C118.104 181.711 117.293 181.375 116.447 181.375C115.602 181.375 114.791 181.711 114.193 182.309C113.596 182.906 113.26 183.717 113.26 184.562V194.125H83.0105L84.5724 178.219C85.3357 170.344 89.0092 163.036 94.8745 157.724C100.74 152.413 108.375 149.481 116.288 149.5H133.246C134.645 154.972 137.827 159.822 142.288 163.285C146.75 166.749 152.237 168.629 157.885 168.629C163.533 168.629 169.02 166.749 173.481 163.285C177.943 159.822 181.124 154.972 182.524 149.5H199.482C204.874 149.503 210.177 150.88 214.89 153.501C219.602 156.123 223.569 159.901 226.416 164.481C223.01 168.785 221.323 174.2 221.682 179.677C222.041 185.154 224.421 190.303 228.361 194.125H202.51V184.562C202.51 183.717 202.174 182.906 201.576 182.309C200.979 181.711 200.168 181.375 199.322 181.375ZM202.51 206.875V200.5H233.429L234.066 206.875H202.51ZM243.947 194.125C240.441 194.128 237.032 192.974 234.249 190.842C231.466 188.709 229.465 185.717 228.557 182.331C227.649 178.944 227.884 175.353 229.226 172.114C230.568 168.875 232.942 166.169 235.979 164.417C236.465 164.137 236.869 163.732 237.149 163.245C237.428 162.758 237.575 162.206 237.572 161.644V92.125C237.577 90.4358 238.251 88.8172 239.445 87.6228C240.64 86.4283 242.258 85.755 243.947 85.75C245.634 85.7625 247.249 86.4382 248.441 87.631C249.634 88.8239 250.31 90.4381 250.322 92.125V161.644C250.32 162.206 250.466 162.758 250.746 163.245C251.026 163.732 251.43 164.137 251.916 164.417C254.953 166.169 257.327 168.875 258.669 172.114C260.011 175.353 260.246 178.944 259.338 182.331C258.429 185.717 256.428 188.709 253.646 190.842C250.863 192.974 247.453 194.128 243.947 194.125Z" fill="white"/>
<path d="M247.135 169.211V95.3125C247.135 94.4671 246.799 93.6564 246.201 93.0586C245.603 92.4608 244.793 92.125 243.947 92.125C243.102 92.125 242.291 92.4608 241.693 93.0586C241.096 93.6564 240.76 94.4671 240.76 95.3125V169.211C238.633 169.963 236.841 171.443 235.699 173.389C234.558 175.334 234.141 177.621 234.522 179.844C234.904 182.067 236.059 184.084 237.784 185.538C239.508 186.992 241.692 187.79 243.947 187.79C246.203 187.79 248.386 186.992 250.111 185.538C251.835 184.084 252.991 182.067 253.372 179.844C253.754 177.621 253.337 175.334 252.195 173.389C251.054 171.443 249.262 169.963 247.135 169.211ZM243.947 181.375C243.317 181.375 242.701 181.188 242.176 180.838C241.652 180.488 241.244 179.99 241.002 179.407C240.761 178.825 240.698 178.184 240.821 177.566C240.944 176.947 241.248 176.379 241.693 175.934C242.139 175.488 242.707 175.184 243.325 175.061C243.944 174.938 244.585 175.001 245.167 175.243C245.75 175.484 246.247 175.892 246.598 176.417C246.948 176.941 247.135 177.557 247.135 178.188C247.135 179.033 246.799 179.844 246.201 180.441C245.603 181.039 244.793 181.375 243.947 181.375Z" fill="white"/>
<path d="M100.51 95.3125C100.51 94.4671 100.174 93.6564 99.5764 93.0586C98.9786 92.4608 98.1679 92.125 97.3225 92.125C96.4771 92.125 95.6664 92.4608 95.0686 93.0586C94.4708 93.6564 94.135 94.4671 94.135 95.3125C94.135 97.1007 93.4433 97.8625 91.8814 99.4276C90.5944 100.467 89.5563 101.781 88.8431 103.274C88.1299 104.767 87.7598 106.4 87.7598 108.055C87.7598 109.709 88.1299 111.342 88.8431 112.835C89.5563 114.328 90.5944 115.642 91.8814 116.682C93.4433 118.243 94.135 119.012 94.135 120.806C94.135 122.601 93.4433 123.356 91.8814 124.931C90.6083 125.983 89.58 127.301 88.8682 128.792C88.1564 130.283 87.7782 131.911 87.76 133.562C87.76 134.408 88.0958 135.219 88.6936 135.816C89.2914 136.414 90.1021 136.75 90.9475 136.75C91.7929 136.75 92.6036 136.414 93.2014 135.816C93.7992 135.219 94.135 134.408 94.135 133.562C94.135 131.771 94.8267 131.013 96.3885 129.438C97.6757 128.397 98.7139 127.082 99.4271 125.589C100.14 124.095 100.51 122.461 100.51 120.806C100.51 119.151 100.14 117.517 99.4271 116.023C98.7139 114.53 97.6757 113.215 96.3885 112.174C94.8267 110.613 94.135 109.841 94.135 108.062C94.135 106.284 94.8267 105.512 96.3885 103.951C97.663 102.898 98.6921 101.579 99.4039 100.087C100.116 98.595 100.493 96.9656 100.51 95.3125Z" fill="white"/>
<path d="M75.01 98.5C75.01 99.3454 75.3458 100.156 75.9436 100.754C76.5414 101.352 77.3521 101.688 78.1975 101.688C79.0429 101.688 79.8536 101.352 80.4514 100.754C81.0492 100.156 81.385 99.3454 81.385 98.5C81.385 96.7086 82.0767 95.95 83.6385 94.3754C84.9257 93.335 85.9639 92.0199 86.6771 90.5263C87.3903 89.0328 87.7605 87.3987 87.7605 85.7436C87.7605 84.0886 87.3903 82.4544 86.6771 80.9609C85.9639 79.4674 84.9257 78.1523 83.6385 77.1119C82.0767 75.55 81.385 74.7786 81.385 73C81.385 71.2214 82.0767 70.45 83.6385 68.8881C84.913 67.8351 85.9421 66.5166 86.6539 65.0246C87.3658 63.5325 87.7433 61.9031 87.76 60.25C87.76 59.4046 87.4242 58.5939 86.8264 57.9961C86.2286 57.3983 85.4179 57.0625 84.5725 57.0625C83.7271 57.0625 82.9164 57.3983 82.3186 57.9961C81.7208 58.5939 81.385 59.4046 81.385 60.25C81.385 62.0382 80.6933 62.8 79.1314 64.3651C77.8444 65.4045 76.8063 66.7188 76.0931 68.2115C75.3799 69.7043 75.0098 71.3377 75.0098 72.992C75.0098 74.6464 75.3799 76.2798 76.0931 77.7725C76.8063 79.2653 77.8444 80.5795 79.1314 81.619C80.6933 83.1809 81.385 83.9491 81.385 85.7436C81.385 87.5382 80.6933 88.2936 79.1314 89.8682C77.8583 90.921 76.83 92.2386 76.1182 93.7294C75.4064 95.2201 75.0282 96.8481 75.01 98.5Z" fill="white"/>
<path d="M212.072 79.375C212.091 81.0269 212.469 82.6549 213.181 84.1456C213.892 85.6364 214.921 86.954 216.194 88.0068C217.756 89.5718 218.447 90.34 218.447 92.1314C218.447 92.9768 218.783 93.7875 219.381 94.3853C219.979 94.983 220.789 95.3189 221.635 95.3189C222.48 95.3189 223.291 94.983 223.889 94.3853C224.486 93.7875 224.822 92.9768 224.822 92.1314C224.804 90.4795 224.426 88.8515 223.714 87.3607C223.002 85.87 221.974 84.5523 220.701 83.4996C219.139 81.925 218.447 81.1632 218.447 79.375C218.447 77.5868 219.139 76.825 220.701 75.2504C221.988 74.2109 223.026 72.8966 223.739 71.4039C224.452 69.9112 224.822 68.2778 224.822 66.6234C224.822 64.969 224.452 63.3356 223.739 61.8429C223.026 60.3502 221.988 59.0359 220.701 57.9964C219.139 56.425 218.447 55.6632 218.447 53.875C218.447 53.0296 218.111 52.2189 217.514 51.6211C216.916 51.0233 216.105 50.6875 215.26 50.6875C214.414 50.6875 213.604 51.0233 213.006 51.6211C212.408 52.2189 212.072 53.0296 212.072 53.875C212.091 55.5259 212.469 57.1529 213.181 58.6426C213.893 60.1323 214.921 61.4488 216.194 62.5004C217.756 64.0591 218.447 64.8241 218.447 66.6123C218.447 68.4004 217.756 69.1623 216.194 70.7369C214.919 71.79 213.89 73.1086 213.179 74.6006C212.467 76.0926 212.089 77.722 212.072 79.375Z" fill="white"/>
<path d="M231.197 50.6875C231.216 52.3394 231.594 53.9674 232.306 55.4581C233.017 56.9489 234.046 58.2665 235.319 59.3193C236.881 60.8843 237.572 61.6525 237.572 63.4439C237.572 64.2893 237.908 65.1 238.506 65.6978C239.104 66.2955 239.914 66.6314 240.76 66.6314C241.605 66.6314 242.416 66.2955 243.014 65.6978C243.611 65.1 243.947 64.2893 243.947 63.4439C243.929 61.792 243.551 60.164 242.839 58.6732C242.127 57.1825 241.099 55.8648 239.826 54.8121C238.264 53.2375 237.572 52.4757 237.572 50.6875C237.572 48.8993 238.264 48.1375 239.826 46.5629C241.098 45.5106 242.125 44.1939 242.837 42.7044C243.549 41.2149 243.928 39.5882 243.947 37.9375C243.926 36.2898 243.547 34.6663 242.835 33.1801C242.123 31.6939 241.096 30.3805 239.826 29.3313C238.264 27.7375 237.572 26.9757 237.572 25.1875C237.572 24.3421 237.236 23.5314 236.639 22.9336C236.041 22.3358 235.23 22 234.385 22C233.539 22 232.729 22.3358 232.131 22.9336C231.533 23.5314 231.197 24.3421 231.197 25.1875C231.216 26.8384 231.594 28.4654 232.306 29.9551C233.018 31.4448 234.046 32.7613 235.319 33.8129C236.881 35.3875 237.572 36.1366 237.572 37.9375C237.572 39.7384 236.881 40.4875 235.319 42.0621C234.046 43.1139 233.018 44.4304 232.306 45.9201C231.594 47.4097 231.216 49.0366 231.197 50.6875Z" fill="white"/>
<path d="M212.636 106.252C210.549 109.271 205.697 116.739 205.697 120.813C205.697 123.349 206.705 125.781 208.498 127.574C210.291 129.368 212.724 130.375 215.26 130.375C217.796 130.375 220.228 129.368 222.021 127.574C223.815 125.781 224.822 123.349 224.822 120.813C224.822 116.739 219.971 109.271 217.883 106.252C217.574 105.85 217.177 105.524 216.722 105.3C216.267 105.076 215.767 104.96 215.26 104.96C214.753 104.96 214.252 105.076 213.798 105.3C213.343 105.524 212.945 105.85 212.636 106.252ZM215.26 124C214.414 124 213.604 123.664 213.006 123.067C212.408 122.469 212.072 121.658 212.072 120.813C212.763 118.376 213.839 116.066 215.26 113.969C216.68 116.066 217.756 118.376 218.447 120.813C218.447 121.658 218.111 122.469 217.514 123.067C216.916 123.664 216.105 124 215.26 124Z" fill="white"/>
<path d="M96.7486 47.449C97.2561 47.5416 97.7784 47.5096 98.2707 47.3558C98.763 47.202 99.2107 46.931 99.5753 46.5662C99.9398 46.2013 100.21 45.7534 100.364 45.2609C100.517 44.7685 100.549 44.2461 100.456 43.7388C99.7959 40.1273 97.9599 31.4191 95.0688 28.5344C93.2473 26.7959 90.8261 25.8259 88.3081 25.8259C85.7902 25.8259 83.369 26.7959 81.5475 28.5344C80.6593 29.4224 79.9548 30.4766 79.4742 31.6369C78.9935 32.7972 78.7461 34.0408 78.7461 35.2967C78.7461 36.5526 78.9935 37.7962 79.4742 38.9565C79.9548 40.1168 80.6593 41.171 81.5475 42.059C84.4258 44.95 93.1372 46.786 96.7486 47.449ZM86.0578 33.0415C86.6553 32.4459 87.4645 32.1115 88.3081 32.1115C89.1518 32.1115 89.961 32.4459 90.5585 33.0415C91.7923 35.2529 92.665 37.6471 93.1436 40.1337C90.6588 39.6537 88.266 38.7823 86.0546 37.5518C85.7584 37.2556 85.5236 36.9039 85.3634 36.5168C85.2033 36.1298 85.121 35.7149 85.1213 35.296C85.1216 34.8771 85.2045 34.4624 85.3652 34.0756C85.5258 33.6887 85.7612 33.3374 86.0578 33.0415Z" fill="white"/>
</g>
<defs>
<filter id="filter0_d" x="0" y="0" width="316" height="243" filterUnits="userSpaceOnUse" color-interpolation-filters="sRGB">
<feFlood flood-opacity="0" result="BackgroundImageFix"/>
<feColorMatrix in="SourceAlpha" type="matrix" values="0 0 0 0 0 0 0 0 0 0 0 0 0 0 0 0 0 0 127 0"/>
<feOffset dy="4"/>
<feGaussianBlur stdDeviation="2"/>
<feColorMatrix type="matrix" values="0 0 0 0 0 0 0 0 0 0 0 0 0 0 0 0 0 0 0.25 0"/>
<feBlend mode="normal" in2="BackgroundImageFix" result="effect1_dropShadow"/>
<feBlend mode="normal" in="SourceGraphic" in2="effect1_dropShadow" result="shape"/>
</filter>
</defs>
</svg>
