<svg width="308" height="235" viewBox="0 0 308 235" fill="none" xmlns="http://www.w3.org/2000/svg">
<rect width="308" height="235" rx="20" fill="#E85D52"/>
<path d="M240.124 110.202C231.293 119.629 221.439 127.603 210.836 133.904C209.378 134.77 207.435 134.386 206.529 132.953C205.59 131.468 206.067 129.512 207.568 128.622C217.704 122.611 227.132 114.986 235.589 105.959C241.743 99.3908 241.168 88.6744 233.687 83.0189C217.462 70.7531 198.298 62.2515 178.264 58.4329C174.035 57.6278 169.74 59.0367 166.772 62.2026C160.222 69.189 149.635 70.0069 142.14 64.6545C140.55 63.5188 140.407 61.205 141.833 59.869C142.906 58.8644 144.543 58.7352 145.729 59.5877C150.754 63.1979 157.838 62.6515 162.238 57.958C166.671 53.2295 173.096 51.1276 179.427 52.3344C200.394 56.3306 220.452 65.2288 237.434 78.0677C247.701 85.8298 248.913 100.82 240.124 110.202ZM210.013 110.215C213.203 108.073 216.288 105.754 219.184 103.324C224.632 98.7518 223.172 90.0003 216.511 87.4808C176.627 72.3925 131.595 71.6157 89.6313 87.4711C82.954 89.9937 81.4701 98.7432 86.929 103.324C93.5088 108.847 100.726 113.558 108.407 117.353V134.021C91.0325 125.984 78.2189 114.489 70.3287 105.953C64.2681 99.397 64.8625 88.7489 72.317 83.1016C88.1058 71.1396 105.963 63.0054 125.392 58.9249C127.071 58.5722 128.146 56.9266 127.793 55.2484C127.44 53.5702 125.793 52.4985 124.115 52.8489C103.78 57.1199 85.0898 65.6339 68.5641 78.1543C58.3642 85.881 57.0795 100.77 65.7656 110.166C74.4357 119.546 88.7787 132.338 108.407 140.827V150.377C108.407 174.982 128.436 195 153.056 195C177.676 195 197.706 174.982 197.706 150.377V116.222C197.706 107.034 191.468 99.0882 182.538 96.8997C177.758 95.7283 172.859 94.8339 167.976 94.2402C166.272 94.0311 164.724 95.2452 164.517 96.9471C164.31 98.6489 165.523 100.196 167.226 100.403C171.865 100.967 176.519 101.817 181.058 102.929C187.202 104.435 191.493 109.901 191.493 116.222V150.377C191.493 171.559 174.251 188.792 153.056 188.792C131.862 188.792 114.619 171.559 114.619 150.377C114.619 142.172 114.619 117.526 114.619 116.221C114.619 109.904 118.887 104.444 124.998 102.943C133.173 100.936 141.552 99.8126 149.95 99.5891V116.231C149.95 117.945 151.341 119.335 153.056 119.335C154.771 119.335 156.162 117.945 156.162 116.231V96.4418C156.162 94.7244 154.769 93.3369 153.056 93.3369C143.122 93.3373 133.184 94.5409 123.516 96.9141C116.443 98.6505 111.07 104.027 109.163 110.772C102.672 107.384 96.55 103.292 90.9238 98.5705C89.0967 97.0367 89.5959 94.1215 91.8276 93.2787C130.505 78.6649 173.976 78.0282 214.312 93.2872C216.526 94.1246 217.009 97.0417 215.189 98.5698C212.462 100.858 209.555 103.043 206.548 105.062C205.125 106.018 204.746 107.947 205.703 109.37C206.66 110.794 208.59 111.172 210.013 110.215ZM171.304 133.692C168.093 133.692 165.48 131.081 165.48 127.872C165.48 126.158 164.09 124.768 162.374 124.768C160.659 124.768 159.268 126.158 159.268 127.872C159.268 134.505 164.668 139.901 171.304 139.901C177.941 139.901 183.34 134.505 183.34 127.872C183.34 121.239 177.941 115.843 171.304 115.843C169.589 115.843 168.198 117.233 168.198 118.947C168.198 120.662 169.589 122.051 171.304 122.051C174.515 122.051 177.128 124.662 177.128 127.872C177.128 131.082 174.515 133.692 171.304 133.692ZM161.792 160.078C164.896 160.078 167.422 162.602 167.422 165.704C167.422 168.806 164.896 171.331 161.792 171.331C158.688 171.331 156.162 168.806 156.162 165.704C156.162 162.602 158.688 160.078 161.792 160.078ZM134.808 138.736C141.231 138.736 146.456 143.959 146.456 150.377C146.456 156.796 141.231 162.018 134.808 162.018C128.385 162.018 123.16 156.796 123.16 150.377C123.16 143.959 128.385 138.736 134.808 138.736ZM134.808 144.945C131.811 144.945 129.372 147.382 129.372 150.377C129.372 153.373 131.811 155.81 134.808 155.81C137.805 155.81 140.244 153.373 140.244 150.377C140.244 147.382 137.805 144.945 134.808 144.945Z" fill="white"/>
</svg>
