<svg width="308" height="235" viewBox="0 0 308 235" fill="none" xmlns="http://www.w3.org/2000/svg">
<rect width="308" height="235" rx="20" fill="#E85D52"/>
<path d="M157.768 79.2157C159.163 80.5999 160.732 81.7957 162.437 82.7729V85.7501C162.437 86.5954 162.773 87.4062 163.371 88.004C163.969 88.6017 164.779 88.9376 165.625 88.9376C166.47 88.9376 167.281 88.6017 167.879 88.004C168.477 87.4062 168.812 86.5954 168.812 85.7501V85.2337C170.367 85.5731 171.954 85.7462 173.546 85.7501H175.187C176.033 85.7501 176.843 85.4142 177.441 84.8165C178.039 84.2187 178.375 83.4079 178.375 82.5626C178.375 81.7172 178.039 80.9064 177.441 80.3087C176.843 79.7109 176.033 79.3751 175.187 79.3751H173.546C171.452 79.3804 169.379 78.9708 167.445 78.1698C165.511 77.3689 163.755 76.1924 162.278 74.7086L161.507 73.934C160.909 73.3355 160.098 72.9989 159.252 72.9983C158.406 72.9977 157.595 73.3331 156.996 73.9308C156.398 74.5285 156.061 75.3395 156.061 76.1853C156.06 77.0312 156.395 77.8426 156.993 78.4411L157.768 79.2157Z" fill="white"/>
<path d="M235.75 209.744L232.531 177.582C231.611 168.133 227.201 159.367 220.163 152.995C213.126 146.623 203.965 143.104 194.472 143.125H175.188C174.342 143.125 173.531 142.789 172.934 142.191C172.336 141.594 172 140.783 172 139.938V131.586C176.381 129.033 180.215 125.641 183.283 121.605C186.351 117.568 188.594 112.966 189.882 108.062H194.312C196.846 108.055 199.274 107.045 201.066 105.253C202.858 103.462 203.867 101.034 203.875 98.5V88.9375C203.871 87.6003 203.584 86.279 203.035 85.0597C202.486 83.8405 201.686 82.7506 200.688 81.8613V50.6875C200.676 43.0827 197.649 35.7928 192.272 30.4154C186.895 25.038 179.605 22.0118 172 22H146.5C143.699 21.9997 140.947 22.7395 138.523 24.1444C136.1 25.5493 134.09 27.5695 132.698 30.0006C131.125 28.9419 129.271 28.3759 127.375 28.375H121C116.773 28.375 112.719 30.0541 109.73 33.043C106.742 36.0318 105.062 40.0856 105.062 44.3125V81.8613C104.064 82.7506 103.264 83.8405 102.715 85.0597C102.166 86.279 101.879 87.6003 101.875 88.9375V98.5C101.883 101.034 102.892 103.462 104.684 105.253C106.476 107.045 108.904 108.055 111.438 108.062H115.868C117.156 112.966 119.399 117.568 122.467 121.605C125.535 125.641 129.369 129.033 133.75 131.586V139.938C133.75 140.783 133.414 141.594 132.816 142.191C132.219 142.789 131.408 143.125 130.562 143.125H111.278C101.785 143.104 92.6243 146.623 85.5866 152.995C78.5489 159.367 74.1394 168.133 73.2194 177.582L70 209.744H70.0637C70.0637 209.871 70 209.967 70 210.062C70 210.908 70.3358 211.719 70.9336 212.316C71.5314 212.914 72.3421 213.25 73.1875 213.25H232.562C233.408 213.25 234.219 212.914 234.816 212.316C235.414 211.719 235.75 210.908 235.75 210.062C235.75 209.967 235.686 209.871 235.686 209.744H235.75ZM197.5 88.9375V98.5C197.5 99.3454 197.164 100.156 196.566 100.754C195.969 101.352 195.158 101.688 194.312 101.688H190.966C191.061 100.636 191.125 99.5837 191.125 98.5V85.75H194.312C195.158 85.75 195.969 86.0858 196.566 86.6836C197.164 87.2814 197.5 88.0921 197.5 88.9375ZM111.438 101.688C110.592 101.688 109.781 101.352 109.184 100.754C108.586 100.156 108.25 99.3454 108.25 98.5V88.9375C108.25 88.0921 108.586 87.2814 109.184 86.6836C109.781 86.0858 110.592 85.75 111.438 85.75H114.625V98.5C114.625 99.5837 114.689 100.636 114.784 101.688H111.438ZM114.625 69.8125V79.375H111.438V44.3125C111.445 41.7787 112.455 39.3508 114.247 37.5592C116.038 35.7675 118.466 34.7576 121 34.75H127.375C128.22 34.75 129.031 35.0858 129.629 35.6836C130.227 36.2814 130.562 37.0921 130.562 37.9375C130.562 38.7829 130.898 39.5936 131.496 40.1914C132.094 40.7892 132.905 41.125 133.75 41.125C134.595 41.125 135.406 40.7892 136.004 40.1914C136.602 39.5936 136.938 38.7829 136.938 37.9375C136.945 35.4037 137.955 32.9758 139.747 31.1842C141.538 29.3925 143.966 28.3826 146.5 28.375H172C177.916 28.3817 183.587 30.7347 187.77 34.9176C191.953 39.1006 194.306 44.7719 194.312 50.6875V79.375H191.125V69.8125C191.125 65.5856 189.446 61.5318 186.457 58.543C183.468 55.5541 179.414 53.875 175.188 53.875H174.518C172.878 49.8491 170.77 46.0298 168.239 42.4956C167.931 42.0944 167.536 41.7693 167.082 41.5456C166.629 41.3218 166.13 41.2055 165.625 41.2055C165.12 41.2055 164.621 41.3218 164.168 41.5456C163.714 41.7693 163.319 42.0944 163.011 42.4956C160.48 46.0298 158.372 49.8491 156.732 53.875H130.562C126.336 53.875 122.282 55.5541 119.293 58.543C116.304 61.5318 114.625 65.5856 114.625 69.8125ZM168.812 57.0625C168.812 57.9079 168.477 58.7186 167.879 59.3164C167.281 59.9142 166.47 60.25 165.625 60.25C164.78 60.25 163.969 59.9142 163.371 59.3164C162.773 58.7186 162.438 57.9079 162.438 57.0625C163.129 54.6231 164.205 52.3096 165.625 50.2094C167.051 52.3064 168.128 54.6208 168.812 57.0625ZM121 98.5V69.8125C121.008 67.2787 122.017 64.8508 123.809 63.0592C125.601 61.2675 128.029 60.2576 130.562 60.25H156.636C157.289 62.1133 158.505 63.7277 160.115 64.8699C161.725 66.0121 163.651 66.6256 165.625 66.6256C167.599 66.6256 169.525 66.0121 171.135 64.8699C172.745 63.7277 173.961 62.1133 174.614 60.25H175.188C177.721 60.2576 180.149 61.2675 181.941 63.0592C183.733 64.8508 184.742 67.2787 184.75 69.8125V98.5C184.75 106.954 181.392 115.061 175.414 121.039C169.436 127.017 161.329 130.375 152.875 130.375C144.421 130.375 136.314 127.017 130.336 121.039C124.358 115.061 121 106.954 121 98.5ZM171.139 148.576C169.98 152.522 167.575 155.986 164.282 158.451C160.99 160.915 156.988 162.247 152.875 162.247C148.762 162.247 144.76 160.915 141.468 158.451C138.175 155.986 135.77 152.522 134.611 148.576C136.255 147.807 137.646 146.587 138.623 145.058C139.599 143.528 140.12 141.752 140.125 139.938V134.519C148.365 137.494 157.385 137.494 165.625 134.519V139.938C165.63 141.752 166.151 143.528 167.127 145.058C168.104 146.587 169.495 147.807 171.139 148.576ZM108.25 206.875H76.7256L77.3631 200.5H108.25V206.875ZM194.312 181.375C193.467 181.375 192.656 181.711 192.059 182.309C191.461 182.906 191.125 183.717 191.125 184.562V206.875H114.625V184.562C114.625 183.717 114.289 182.906 113.691 182.309C113.094 181.711 112.283 181.375 111.438 181.375C110.592 181.375 109.781 181.711 109.184 182.309C108.586 182.906 108.25 183.717 108.25 184.562V194.125H78.0006L79.5625 178.219C80.3258 170.344 83.9993 163.036 89.8646 157.724C95.7299 152.413 103.365 149.481 111.278 149.5H128.236C129.636 154.972 132.817 159.822 137.278 163.285C141.74 166.749 147.227 168.629 152.875 168.629C158.523 168.629 164.01 166.749 168.472 163.285C172.933 159.822 176.114 154.972 177.514 149.5H194.472C202.385 149.481 210.02 152.413 215.885 157.724C221.751 163.036 225.424 170.344 226.188 178.219L227.749 194.125H197.5V184.562C197.5 183.717 197.164 182.906 196.566 182.309C195.969 181.711 195.158 181.375 194.312 181.375ZM197.5 206.875V200.5H228.387L229.024 206.875H197.5Z" fill="white"/>
<path d="M156.062 127.188C158.237 127.185 160.345 126.441 162.04 125.079C163.735 123.716 164.915 121.817 165.386 119.694C165.554 119.758 165.704 119.805 165.886 119.875L167.607 120.577C168.39 120.896 169.268 120.892 170.047 120.564C170.827 120.237 171.444 119.613 171.764 118.83C172.083 118.047 172.079 117.169 171.751 116.39C171.424 115.61 170.8 114.993 170.017 114.673L168.273 113.963C167.129 113.507 166.007 113.134 164.895 112.806C164.182 109.123 162.384 105.738 159.731 103.087C159.93 102.918 160.117 102.735 160.292 102.542C160.891 101.813 161.321 100.959 161.549 100.044C161.777 99.1277 161.799 98.1725 161.612 97.2474L159.186 85.1349C159.116 84.7127 158.963 84.3089 158.734 83.9474C158.505 83.5859 158.206 83.2742 157.854 83.0308C157.502 82.7874 157.105 82.6173 156.686 82.5306C156.267 82.444 155.835 82.4426 155.415 82.5265C154.996 82.6104 154.598 82.7779 154.244 83.019C153.891 83.2601 153.59 83.5699 153.358 83.9299C153.127 84.2899 152.971 84.6927 152.899 85.1144C152.827 85.5361 152.84 85.968 152.938 86.3844L155.361 98.4969H150.58L152.779 89.709C152.978 88.8913 152.845 88.0283 152.41 87.3081C151.975 86.5879 151.272 86.069 150.456 85.8645C149.64 85.6601 148.776 85.7866 148.053 86.2166C147.329 86.6466 146.806 87.3451 146.595 88.1598L144.396 96.9542C144.161 97.8942 144.143 98.8754 144.344 99.8233C144.546 100.771 144.96 101.661 145.557 102.424C146.153 103.188 146.916 103.806 147.787 104.23C148.658 104.655 149.614 104.875 150.583 104.875H150.694C149.314 106.848 148.276 109.04 147.625 111.358C144.138 111.802 140.721 112.68 137.453 113.972L135.732 114.673C135.345 114.832 134.992 115.065 134.694 115.359C134.397 115.654 134.16 116.004 133.998 116.39C133.836 116.776 133.751 117.19 133.749 117.609C133.747 118.027 133.827 118.442 133.985 118.83C134.144 119.218 134.377 119.57 134.671 119.868C134.966 120.165 135.316 120.402 135.702 120.564C136.481 120.892 137.359 120.896 138.142 120.577L139.831 119.885C141.996 119.033 144.237 118.392 146.525 117.973C146.615 120.444 147.658 122.784 149.437 124.502C151.215 126.22 153.589 127.183 156.062 127.188ZM156.062 120.813C155.217 120.813 154.406 120.477 153.808 119.879C153.21 119.281 152.875 118.47 152.875 117.625C152.895 116.853 152.994 116.085 153.168 115.333C153.184 115.285 153.187 115.231 153.2 115.183C153.688 112.725 154.663 110.39 156.068 108.314C157.579 110.579 158.594 113.137 159.049 115.821C159.049 115.882 159.068 115.939 159.081 115.999C159.181 116.536 159.237 117.08 159.25 117.625C159.25 118.47 158.914 119.281 158.316 119.879C157.718 120.477 156.907 120.813 156.062 120.813Z" fill="white"/>
<path d="M136.938 85.7501C136.938 86.5954 137.273 87.4062 137.871 88.004C138.469 88.6017 139.28 88.9376 140.125 88.9376C140.97 88.9376 141.781 88.6017 142.379 88.004C142.977 87.4062 143.313 86.5954 143.313 85.7501V82.7698C145.02 81.7947 146.591 80.5986 147.985 79.2125L148.757 78.4411C149.354 77.8426 149.69 77.0312 149.689 76.1853C149.689 75.3395 149.352 74.5285 148.754 73.9308C148.155 73.3331 147.344 72.9977 146.498 72.9983C145.652 72.9989 144.841 73.3355 144.243 73.934L143.475 74.7054C141.998 76.19 140.242 77.3672 138.307 78.1687C136.372 78.9703 134.298 79.3803 132.204 79.3751H130.563C129.717 79.3751 128.906 79.7109 128.309 80.3087C127.711 80.9064 127.375 81.7172 127.375 82.5626C127.375 83.4079 127.711 84.2187 128.309 84.8165C128.906 85.4142 129.717 85.7501 130.563 85.7501H132.204C133.796 85.7462 135.382 85.5731 136.938 85.2337V85.7501Z" fill="white"/>
<path d="M210.814 103.065C208.726 106.083 203.875 113.551 203.875 117.625C203.875 120.161 204.882 122.593 206.676 124.387C208.469 126.18 210.901 127.188 213.438 127.188C215.974 127.188 218.406 126.18 220.199 124.387C221.993 122.593 223 120.161 223 117.625C223 113.551 218.149 106.083 216.061 103.065C215.752 102.663 215.355 102.337 214.9 102.113C214.445 101.889 213.945 101.772 213.438 101.772C212.93 101.772 212.43 101.889 211.975 102.113C211.52 102.337 211.123 102.663 210.814 103.065ZM213.438 120.813C212.592 120.813 211.781 120.477 211.184 119.879C210.586 119.281 210.25 118.47 210.25 117.625C210.941 115.189 212.017 112.878 213.438 110.782C214.858 112.878 215.934 115.189 216.625 117.625C216.625 118.47 216.289 119.281 215.691 119.879C215.094 120.477 214.283 120.813 213.438 120.813Z" fill="white"/>
<path d="M223 101.688C223.845 101.688 224.656 101.352 225.254 100.754C225.852 100.156 226.188 99.3454 226.188 98.5V73C226.188 72.1546 225.852 71.3439 225.254 70.7461C224.656 70.1483 223.845 69.8125 223 69.8125C222.155 69.8125 221.344 70.1483 220.746 70.7461C220.148 71.3439 219.812 72.1546 219.812 73V98.5C219.812 99.3454 220.148 100.156 220.746 100.754C221.344 101.352 222.155 101.688 223 101.688Z" fill="white"/>
<path d="M213.438 92.125C214.283 92.125 215.094 91.7892 215.691 91.1914C216.289 90.5936 216.625 89.7829 216.625 88.9375V63.4375C216.625 62.5921 216.289 61.7814 215.691 61.1836C215.094 60.5858 214.283 60.25 213.438 60.25C212.592 60.25 211.781 60.5858 211.184 61.1836C210.586 61.7814 210.25 62.5921 210.25 63.4375V88.9375C210.25 89.7829 210.586 90.5936 211.184 91.1914C211.781 91.7892 212.592 92.125 213.438 92.125Z" fill="white"/>
<path d="M98.6875 53.875C99.5329 53.875 100.344 53.5392 100.941 52.9414C101.539 52.3436 101.875 51.5329 101.875 50.6875V25.1875C101.875 24.3421 101.539 23.5314 100.941 22.9336C100.344 22.3358 99.5329 22 98.6875 22C97.8421 22 97.0314 22.3358 96.4336 22.9336C95.8358 23.5314 95.5 24.3421 95.5 25.1875V50.6875C95.5 51.5329 95.8358 52.3436 96.4336 52.9414C97.0314 53.5392 97.8421 53.875 98.6875 53.875Z" fill="white"/>
<path d="M89.125 66.625C89.9704 66.625 90.7811 66.2892 91.3789 65.6914C91.9767 65.0936 92.3125 64.2829 92.3125 63.4375V37.9375C92.3125 37.0921 91.9767 36.2814 91.3789 35.6836C90.7811 35.0858 89.9704 34.75 89.125 34.75C88.2796 34.75 87.4689 35.0858 86.8711 35.6836C86.2733 36.2814 85.9375 37.0921 85.9375 37.9375V63.4375C85.9375 64.2829 86.2733 65.0936 86.8711 65.6914C87.4689 66.2892 88.2796 66.625 89.125 66.625Z" fill="white"/>
<path d="M79.5625 79.375C80.4079 79.375 81.2186 79.0392 81.8164 78.4414C82.4142 77.8436 82.75 77.0329 82.75 76.1875V50.6875C82.75 49.8421 82.4142 49.0314 81.8164 48.4336C81.2186 47.8358 80.4079 47.5 79.5625 47.5C78.7171 47.5 77.9064 47.8358 77.3086 48.4336C76.7108 49.0314 76.375 49.8421 76.375 50.6875V76.1875C76.375 77.0329 76.7108 77.8436 77.3086 78.4414C77.9064 79.0392 78.7171 79.375 79.5625 79.375Z" fill="white"/>
<path d="M98.6875 66.625C99.5329 66.625 100.344 66.2892 100.941 65.6914C101.539 65.0936 101.875 64.2829 101.875 63.4375V60.25C101.875 59.4046 101.539 58.5939 100.941 57.9961C100.344 57.3983 99.5329 57.0625 98.6875 57.0625C97.8421 57.0625 97.0314 57.3983 96.4336 57.9961C95.8358 58.5939 95.5 59.4046 95.5 60.25V63.4375C95.5 64.2829 95.8358 65.0936 96.4336 65.6914C97.0314 66.2892 97.8421 66.625 98.6875 66.625Z" fill="white"/>
<path d="M89.125 79.375C89.9704 79.375 90.7811 79.0392 91.3789 78.4414C91.9767 77.8436 92.3125 77.0329 92.3125 76.1875V73C92.3125 72.1546 91.9767 71.3439 91.3789 70.7461C90.7811 70.1483 89.9704 69.8125 89.125 69.8125C88.2796 69.8125 87.4689 70.1483 86.8711 70.7461C86.2733 71.3439 85.9375 72.1546 85.9375 73V76.1875C85.9375 77.0329 86.2733 77.8436 86.8711 78.4414C87.4689 79.0392 88.2796 79.375 89.125 79.375Z" fill="white"/>
</svg>
