<svg width="323" height="167" viewBox="0 0 323 167" fill="none" xmlns="http://www.w3.org/2000/svg">
<path d="M234.609 0.412717C237.406 -1.24011 241.184 2.40989 239.376 5.3712C238.416 8.13357 234.147 8.10296 233.042 5.50129C232.148 3.71838 232.859 1.27739 234.609 0.412717Z" fill="#F4515E"/>
<path d="M52.3314 7.31553C56.3221 6.24425 60.2323 10.6288 59.2584 14.7227C58.4823 19.0843 52.7708 21.158 49.6587 18.036C45.9243 15.067 47.7256 8.06542 52.3314 7.31553Z" fill="#F2515C"/>
<path d="M27.4942 8.09493C29.6836 7.06191 32.1439 9.21977 31.4263 11.6455C31.0162 14.3466 26.8864 14.6068 26.0077 12.1658C25.5025 10.6966 25.8686 8.58465 27.4942 8.09493Z" fill="#F3505D"/>
<path d="M110.164 8.0796C111.482 7.58222 113.064 8.43159 112.595 10.0538C112.654 11.8291 110.157 12.0816 109.395 10.7808C108.568 10.0309 109.212 8.29386 110.164 8.0796Z" fill="#F14E5B"/>
<path d="M94.1575 11.1798C96.508 9.7412 99.8251 11.9373 99.5834 14.7686C99.7884 17.6381 96.4714 19.7347 94.0989 18.342C91.3091 17.1407 91.375 12.3429 94.1575 11.1798Z" fill="#971B30"/>
<path d="M213.286 13.7124C213.769 13.7813 214.743 13.919 215.234 13.9879C215.688 14.952 214.853 15.9315 214.706 16.888C215.417 16.7655 216.837 16.536 217.548 16.4136C217.379 17.2094 217.05 18.801 216.881 19.5891C217.54 18.977 218.199 18.3572 218.858 17.7373L218.924 18.0893C218.997 18.5102 219.151 19.3519 219.224 19.7728C219.649 19.9182 220.506 20.1936 220.938 20.339C219.883 20.5303 219.363 21.0966 219.378 22.0378C220.308 22.2903 221.07 21.9765 221.67 21.0889L221.868 21.7929C221.97 22.2214 222.183 23.0708 222.292 23.4916C222.717 23.484 223.574 23.4763 223.999 23.4763C224.043 23.6676 224.123 24.0502 224.167 24.2492C222.878 24.4634 221.589 24.7083 220.308 24.9838C222.007 26.3152 224.064 25.6572 225.939 25.1827C225.924 25.8025 225.888 27.0575 225.866 27.6849C224.811 27.3176 223.816 26.5754 222.666 26.6366C221.45 27.7079 223.237 28.9322 223.691 29.9193C222.483 29.1924 221.187 28.6261 219.781 28.5496C221.114 30.0953 222.834 31.2355 224.899 31.2355C224.467 31.9394 224.035 32.6358 223.61 33.3321C222.666 32.5592 222.029 30.7228 220.645 30.937C219.071 31.7175 221.092 32.9725 221.275 33.9749C220.037 33.1408 218.902 32.1613 217.672 31.3273C218.419 33.1025 219.561 34.6329 220.623 36.2092C220.037 36.6837 219.429 37.1198 218.829 37.5636C218.924 35.8726 218.192 31.6027 216.244 34.5564C216.53 34.8931 217.101 35.5588 217.386 35.8955C216.881 35.9261 216.383 35.9644 215.885 36.0026C215.856 34.763 215.651 33.554 214.582 32.8271C214.414 34.7248 214.75 36.5842 215.3 38.3824C214.472 38.26 213.652 38.1299 212.832 37.9998C213.293 36.8291 213.674 35.62 213.974 34.3881C212.825 34.1279 211.719 33.707 210.694 33.1178C210.071 34.3575 209.647 35.6889 209.339 37.051C208.636 36.6454 207.941 36.2475 207.245 35.8343C208.27 34.9084 209.281 33.9749 210.276 33.0107C209.691 32.8041 208.519 32.3986 207.933 32.192C207.853 32.6587 207.692 33.5923 207.611 34.059C206.205 32.9648 207.823 31.4497 208.277 30.3325C209.039 29.6668 209.793 28.9934 210.533 28.2894C209.361 28.6261 208.189 28.9705 207.113 29.5673C205.561 28.7256 205.297 27.6849 206.33 26.453C205.092 26.5218 203.869 26.7131 202.69 27.0881C202.602 26.3305 202.522 25.5806 202.441 24.8231C203.781 25.1827 205.173 25.4735 206.549 25.1139C207.714 25.1751 208.973 25.022 210.049 25.6036C211.316 26.958 212.041 29.0776 213.916 29.6668C215.658 28.9092 217.189 27.7232 218.763 26.6519C218.06 25.2822 217.379 23.9048 216.735 22.5045C215.79 22.1449 214.853 21.7776 213.916 21.418L213.923 20.89C214.245 18.4643 213.798 16.0692 213.286 13.7124Z" fill="#B21431"/>
<path d="M208.021 15.3857C208.651 15.2327 209.281 15.0873 209.918 14.9419C209.969 15.8984 210.027 16.8625 210.086 17.8267L209.683 17.9874C208.966 17.5818 208.255 17.1533 207.567 16.7019C207.677 16.3728 207.904 15.7147 208.021 15.3857Z" fill="#DF293D"/>
<path d="M218.711 14.9717C219.817 15.1859 220.857 15.6374 221.267 16.8082C220.776 17.0683 219.788 17.581 219.297 17.8412C220.088 18.3156 220.901 18.7441 221.728 19.1497C221.75 19.5246 221.801 20.2669 221.823 20.6418C222.519 20.0296 223.295 19.5935 224.159 19.341C224.474 20.0756 224.782 20.8255 225.067 21.5907C223.998 21.6901 222.929 21.759 221.867 21.7896L221.67 21.0856L221.523 20.5347L220.937 20.3357C220.505 20.1903 219.649 19.9149 219.224 19.7695C219.151 19.3486 218.997 18.5069 218.924 18.086C218.873 17.3055 218.763 15.7445 218.711 14.9717Z" fill="#DF293D"/>
<path d="M83.393 22.7562C85.0333 22.2742 86.2707 23.6515 87.3105 24.7458C86.0657 25.7482 84.8795 26.9113 83.4077 27.5387C83.1441 27.5923 82.6315 27.6994 82.3752 27.753C82.6242 27.0031 82.8805 26.2609 83.1368 25.511C83.0343 24.5545 83.1221 23.6362 83.393 22.7562Z" fill="#DF293D"/>
<path d="M296.19 65.269C297.625 65.5139 298.387 64.1518 299.192 63.1724C299.353 64.236 299.544 65.2996 299.756 66.3556C298.123 65.6057 298.606 68.3375 299.888 67.0213L300.4 66.7841C300.605 67.4728 300.818 68.1691 301.03 68.8578C300.371 68.7507 299.053 68.5364 298.394 68.4293C298.453 68.9802 298.555 70.0745 298.614 70.6178C297.764 70.3729 296.922 70.1204 296.087 69.8755C296.805 68.6894 297.567 67.5187 297.977 66.1643C297.713 66.1796 297.179 66.2026 296.908 66.2102C296.725 66.4551 296.358 66.9448 296.183 67.1897C295.751 67.2126 294.901 67.2662 294.477 67.2891C295.062 66.6617 295.231 65.3838 296.19 65.269Z" fill="#DF293D"/>
<path d="M53.1734 68.1318C54.2571 68.369 55.2237 68.8664 55.7582 69.9301C54.8209 70.6034 53.8983 71.3151 53.2539 72.3175C54.3376 72.3787 55.414 72.4323 56.4904 72.4705C56.2122 73.1515 56.3293 74.636 55.253 73.9473C54.2644 73.2816 53.3272 72.547 52.3752 71.8201C52.6389 70.5881 52.9025 69.3638 53.1734 68.1318Z" fill="#DF293D"/>
<path d="M50.7575 83.519C51.2481 84.2001 51.7387 84.8887 52.222 85.5851C52.405 88.0643 53.6718 90.161 55.7147 91.4388C54.7994 91.9898 53.8549 92.5025 52.8956 92.9616C52.5954 91.4695 52.8956 89.61 51.6069 88.5541C51.2334 88.7607 50.4792 89.1815 50.1058 89.3881C50.5305 90.1074 50.9552 90.8267 51.3799 91.5536C50.8893 91.6148 49.9081 91.7526 49.4175 91.8138C49.4468 90.9262 49.4761 90.0385 49.4907 89.1509C50.1204 88.8448 50.7428 88.5387 51.3726 88.2327C51.1602 86.664 50.9552 85.0877 50.7575 83.519Z" fill="#DF293D"/>
<path d="M296.468 111.32C297.933 110.976 299.419 110.662 300.905 110.395C300.752 111.397 300.605 112.407 300.444 113.417C299.251 112.82 298.042 112.239 296.885 111.573L296.468 111.32Z" fill="#DF293D"/>
<path d="M6.05371 130.288C6.98366 130.495 7.9136 130.709 8.84355 130.908C9.19502 130.816 9.89798 130.632 10.2495 130.533C11.2819 130.747 12.3144 130.954 13.3468 131.168C13.1345 131.459 12.7098 132.048 12.4974 132.339C11.7872 132.278 11.0769 132.216 10.3666 132.163C10.3666 133.188 10.3739 134.221 10.3666 135.262C11.5748 134.359 12.9954 134.007 14.4452 133.846C13.6104 134.589 12.761 135.308 11.897 136.019C10.535 136.7 9.32683 137.626 8.21382 138.69C7.7818 137.917 7.38639 137.121 7.04224 136.303C7.84038 136.188 9.45131 135.958 10.2568 135.843C9.6124 135.239 8.94606 134.657 8.27972 134.091C8.80694 133.326 9.34147 132.561 9.87601 131.796C8.72639 132.125 7.58409 132.484 6.45644 132.867C6.31732 132.01 6.18551 131.145 6.05371 130.288Z" fill="#DF293D"/>
<path d="M13.5228 138.223C14.1525 137.266 14.753 136.302 15.3461 135.33C15.4633 136.799 15.5877 138.268 15.7415 139.738C15.7928 140.204 15.888 141.13 15.9392 141.589C15.5072 141.559 14.6358 141.498 14.2038 141.467C14.5406 140.449 14.9946 139.432 14.9507 138.33C13.6327 139.401 13.5228 141.138 13.2665 142.722C12.483 142.423 11.7288 142.064 11.0039 141.643C11.7874 140.457 12.7393 139.401 13.5228 138.223Z" fill="#DF293D"/>
<path d="M25.0114 135.522C26.2269 135.989 27.4571 136.433 28.6799 136.885C28.2333 137.55 27.8012 138.231 27.2447 138.813C26.205 138.078 25.4288 137.038 24.7185 135.982L25.0114 135.522Z" fill="#DF293D"/>
<path d="M251.531 17.6762C252.681 16.4672 254.094 15.5413 255.807 15.9468C256.891 17.6303 255.58 19.681 255.793 21.5328L256.064 22.1143C257.653 24.2263 257.697 26.8892 257.47 29.4526C257.147 29.5368 256.503 29.7051 256.181 29.7893C255.705 28.4884 255.229 27.1952 254.738 25.9097C255.104 22.7112 253.991 19.6427 251.531 17.6762Z" fill="#F21B42"/>
<path d="M262.024 16.0005C263.503 16.0923 265.422 15.8015 266.439 17.2325C266.593 19.2067 264.448 20.232 263.525 21.7242C263.401 21.8772 263.144 22.1833 263.02 22.3363C262.807 24.3718 262.595 26.4148 262.207 28.4197C261.709 28.2896 260.721 28.0218 260.23 27.884C260.589 26.8127 260.955 25.7491 261.336 24.6855C262.668 21.9461 263.012 18.9312 262.024 16.0005Z" fill="#F21837"/>
<path d="M210.086 17.8286C211.045 17.3618 211.99 16.8491 212.912 16.2905C212.927 16.8415 212.956 17.951 212.971 18.502L213.776 19.1983C213.813 19.6191 213.886 20.4609 213.923 20.8894L213.915 21.4174C214.853 21.777 215.79 22.1443 216.734 22.5039C217.379 23.9043 218.06 25.2816 218.763 26.6513C217.188 27.7226 215.658 28.9087 213.915 29.6662C212.041 29.077 211.316 26.9574 210.049 25.603C208.973 25.0214 207.713 25.1745 206.549 25.1133L205.348 23.5599C205.714 23.491 206.461 23.3533 206.835 23.2844C208.087 23.3916 209.324 23.6135 210.569 23.8201C209.69 22.6493 208.819 21.4709 208.035 20.2236C208.167 19.864 208.431 19.1447 208.563 18.7851C209.017 19.0988 209.925 19.7339 210.379 20.0477C210.144 19.359 209.91 18.6779 209.683 17.9893L210.086 17.8286ZM213.417 24.1338C212.363 24.899 213.535 26.8579 214.618 25.9856C215.673 25.228 214.494 23.2691 213.417 24.1338Z" fill="#911428"/>
<path d="M207.018 18.5561C207.465 18.4413 208.373 18.2271 208.82 18.1123L208.563 18.7857C208.431 19.1453 208.168 19.8646 208.036 20.2243C208.82 21.4715 209.691 22.6499 210.57 23.8207C209.325 23.6141 208.087 23.3922 206.835 23.285C206.462 23.3539 205.715 23.4917 205.349 23.5605C205.07 23.6064 204.514 23.7059 204.236 23.7595C204.909 22.8565 205.869 22.2903 206.806 21.7317C205.737 21.5634 204.675 21.3874 203.613 21.1961C203.965 20.2931 204.404 19.4284 204.931 18.625C205.737 19.5432 206.557 20.4615 207.421 21.3414C207.289 20.4079 207.15 19.482 207.018 18.5561Z" fill="#E62F44"/>
<path d="M43.1792 87.5392C43.97 86.1083 45.0025 84.8457 46.0715 83.6367C45.7933 85.4043 45.4784 87.1643 45.1709 88.9319C45.764 88.9854 46.9649 89.0926 47.558 89.1461C47.5067 87.1336 47.763 85.1288 48.217 83.1699L48.8175 84.3254C48.8834 85.4349 48.8834 86.5521 48.8907 87.6693C48.4513 89.7583 48.6564 91.8702 49.2129 93.921C48.239 93.8827 47.2651 93.8597 46.2912 93.8674C46.8111 92.4212 47.4042 90.9673 47.4701 89.4063C47.0381 89.3833 46.1594 89.3298 45.7274 89.2992C45.764 90.2557 46.3205 91.6101 44.8853 91.7325C43.5966 90.9367 44.9073 89.1767 44.7974 87.983C43.2597 89.1232 42.857 90.8984 42.9156 92.7885C41.8319 92.4441 40.8214 91.9008 40.199 90.8755C41.4877 90.072 42.5788 89.0007 43.1792 87.5392Z" fill="#E62F44"/>
<path d="M292.903 99.1328C293.972 99.4312 294.887 100.043 295.619 100.908C294.785 101.65 293.95 102.385 293.115 103.104C294.418 103.211 295.839 103.219 296.842 104.275C296.359 104.443 295.392 104.772 294.909 104.933C294.096 104.229 293.32 103.494 292.537 102.768C292.646 101.551 292.764 100.342 292.903 99.1328Z" fill="#E62F44"/>
<path d="M258.048 20.6677C256.642 18.4487 260.083 18.1349 261.438 18.793C261.76 19.673 261.453 20.5453 261.174 21.3794C260.127 21.1345 259.088 20.8973 258.048 20.6677Z" fill="#FF5863"/>
<path d="M29.8085 112.889C35.8861 110.257 43.355 115.789 43.0255 122.622C43.1353 126.861 40.5359 130.932 36.7721 132.478C34.3704 133.427 31.7563 133.037 29.2813 132.662C29.3033 132.164 29.3399 131.177 29.3545 130.68C27.9267 130.205 26.8649 131.774 28.2196 132.815C27.6777 132.769 26.594 132.692 26.0521 132.654C25.664 132.394 24.8952 131.866 24.5144 131.606L24.6462 130.986C25.0636 130.986 25.8984 130.978 26.3157 130.978C26.2352 130.703 26.0814 130.144 26.0082 129.869L25.9496 129.746C25.8032 129.287 25.5029 128.361 25.3492 127.894C26.5427 127.619 27.729 127.29 28.9152 126.969C28.3514 126.326 28.2196 125.017 27.3043 124.841C26.4329 125.392 25.6567 126.096 24.9025 126.808C24.5217 127.213 23.7675 128.04 23.3868 128.453C23.2037 128.055 22.8376 127.275 22.6618 126.877C23.0133 126.609 23.7309 126.073 24.0897 125.805C23.5918 125.002 23.0939 124.198 22.5959 123.403C23.4014 122.806 24.2069 122.217 25.0197 121.627C24.4632 121.528 23.3502 121.321 22.7936 121.222C24.0751 117.679 26.0887 114.014 29.8085 112.889Z" fill="#F2525F"/>
<path d="M105.844 19.6407C108.114 18.6842 110.457 21.6302 109.088 23.7728C108.304 26.2444 104.255 25.6552 103.969 23.1147C103.545 21.6991 104.467 19.9927 105.844 19.6407Z" fill="#F1545C"/>
<path d="M249.143 22.3439C249.978 21.0967 251.179 20.3391 252.599 20.0713C252.856 20.8747 253.126 21.6782 253.383 22.4817C252.453 22.8872 251.523 23.2775 250.622 23.7289C250.249 23.3846 249.517 22.6883 249.143 22.3439Z" fill="#FF4B62"/>
<path d="M74.2773 20.9954C75.1634 20.4904 76.1079 20.3144 77.1038 20.4751C79.7032 21.1561 76.928 23.8573 76.7596 25.4642C76.3642 27.5608 78.0118 31.0425 75.4929 31.8536C75.0169 30.9507 74.6215 30.0018 74.3066 29.0224C76.7596 26.964 75.0315 23.5053 74.2773 20.9954Z" fill="#EF1D32"/>
<path d="M243.564 24.6004C243.212 22.4732 244.941 21.2565 246.317 20.1011C247.665 21.7233 247.445 24.4091 249.283 25.5799C249.656 25.7329 250.388 26.0467 250.755 26.2074C249.444 27.4852 252.175 28.128 251.362 26.3987C252.556 27.9903 253.61 29.7043 254.504 31.5025C254.064 31.602 253.178 31.801 252.739 31.9004C251.758 31.0893 250.769 30.2782 249.905 29.337C248.521 26.896 246.559 24.4627 243.564 24.6004Z" fill="#EE1C40"/>
<path d="M255.793 21.5331C256.532 21.2194 257.286 20.9286 258.048 20.6685C259.088 20.898 260.127 21.1352 261.175 21.3801C260.786 22.2601 260.406 23.1324 260.032 24.0124C260.354 24.1807 261.013 24.5174 261.336 24.6858C260.955 25.7494 260.589 26.813 260.23 27.8843C260.721 28.022 261.709 28.2898 262.207 28.4199C262.595 26.4151 262.807 24.372 263.02 22.3366C263.144 22.1836 263.401 21.8775 263.525 21.7244C264.352 21.778 265.151 21.9693 265.927 22.2983C266.652 23.0253 267.34 23.7905 268.036 24.5557C267.186 25.0454 266.337 25.5351 265.495 26.0325C266.117 26.5375 266.74 27.0426 267.377 27.5476C267.787 27.1114 268.6 26.2391 269.002 25.8029C269.5 25.9636 270.496 26.2697 270.987 26.4304C271.192 26.8895 271.602 27.8078 271.807 28.2669C271.982 29.1545 272.085 30.0498 272.209 30.9527L271.419 30.7767C269.178 29.7437 267.23 31.6414 265.693 33.0953C265.517 32.8581 265.158 32.3913 264.975 32.1541C262.712 31.3583 260.691 30.0345 258.956 28.3281C258.077 29.6519 258.099 31.144 258.553 32.6285C258.377 32.9652 258.041 33.6462 257.865 33.9829C257.389 33.0188 256.92 32.047 256.459 31.0828C255.968 31.1899 254.987 31.3965 254.504 31.5037C253.61 29.7055 252.556 27.9914 251.363 26.3998L250.755 26.2085C250.389 26.0478 249.656 25.7341 249.283 25.581C249.62 25.1143 250.286 24.196 250.623 23.7293C251.524 23.2778 252.454 22.8875 253.383 22.482C253.779 23.6451 254.204 24.8082 254.738 25.9101C255.229 27.1956 255.705 28.4888 256.181 29.7896C256.503 29.7055 257.147 29.5371 257.469 29.4529C257.696 26.8895 257.652 24.2266 256.064 22.1147L255.793 21.5331Z" fill="#A21832"/>
<path d="M265.926 22.2967C266.095 21.8529 266.446 20.9653 266.622 20.5215C267.859 21.1489 269.683 21.3555 269.968 23.0696C269.536 23.8348 268.701 24.1026 268.035 24.5541C267.339 23.7889 266.651 23.0237 265.926 22.2967Z" fill="#E85D64"/>
<path d="M271.441 20.7515C273.154 20.9734 274.882 21.9222 275.116 23.9041C274.289 25.2508 272.458 25.182 271.228 25.8936C270.826 25.4727 270.437 25.0519 270.049 24.6157C270.774 23.445 271.104 22.0829 271.441 20.7515Z" fill="#F02134"/>
<path d="M1.31635 31.1355C4.29658 26.5519 8.17745 21.3562 14.0647 21.494C20.8452 20.2926 27.8308 23.736 31.4261 29.804C29.8518 31.916 29.6907 34.8467 30.6499 37.28C31.3895 38.8334 32.9931 39.5986 34.421 40.3025C33.6594 40.7311 33.2055 41.3891 33.0517 42.2844C31.8581 46.34 30.1227 50.6327 26.5421 52.9895C20.8086 57.2517 12.4464 57.4507 6.74226 53.0125C3.42521 50.7169 1.56532 46.7991 0.335151 42.9654C-0.375123 39.0476 0.0861888 34.8926 1.31635 31.1355ZM23.2982 47.3653C22.1999 49.2171 24.8799 51.2985 26.3517 49.7757C27.45 48.8575 26.5128 47.3653 26.3004 46.2558C25.246 46.4547 23.7449 45.9956 23.2982 47.3653Z" fill="#F69898"/>
<path d="M65.395 24.5935C66.3762 23.2315 67.7089 22.3668 69.3784 22.4663C69.5395 23.9967 69.1002 25.7949 70.1766 27.0421C71.2822 28.9704 74.1453 31.5109 71.9925 33.6841C71.3042 32.8959 70.6672 32.0619 70.0448 31.2201C69.8178 30.409 69.5688 29.6056 69.3052 28.8174C68.7999 26.7667 66.8741 25.7719 65.395 24.5935Z" fill="#E11834"/>
<path d="M291.928 119.722H292.382C293.414 120.533 294.308 121.52 295.252 122.439C294.959 122.752 294.373 123.372 294.081 123.686C293.751 123.717 293.085 123.778 292.748 123.808C292.499 122.439 292.228 121.077 291.928 119.722Z" fill="#E11834"/>
<path d="M79.8931 24.0952C80.6253 24.4013 81.7969 24.2636 81.936 25.3348C81.1159 26.6892 80.1054 27.9212 79.4391 29.3674C78.9558 30.63 78.5897 31.9385 78.2162 33.2393C80.3031 32.543 82.3241 31.1886 82.2216 28.6099L82.3754 27.7529C82.6316 27.6993 83.1442 27.5922 83.4078 27.5386C83.6934 27.8523 84.2572 28.4645 84.5428 28.7706C85.1725 29.5052 85.7656 30.2627 86.388 31.005C85.4508 31.3493 84.4988 31.6477 83.525 31.8926C82.3387 32.6654 81.3868 33.752 80.4129 34.785C79.5123 33.9816 78.2968 34.0811 77.1984 33.9433C76.0488 33.5225 74.4964 31.7396 73.4713 33.27C72.3363 34.3412 74.3427 35.512 75.0676 36.1395L74.5623 37.1495C73.5372 36.5144 72.5414 35.8257 71.5382 35.1523C71.0622 36.2925 69.7003 37.578 70.8572 38.7488C71.8897 38.7564 72.9148 38.5881 73.9326 38.4733C74.6136 39.2232 75.2873 39.9731 75.9609 40.7306C75.69 41.7407 75.4191 42.7584 75.1555 43.7761C76.2392 43.7379 77.3229 43.7073 78.4139 43.6767C77.938 42.6819 77.4693 41.6871 77.0446 40.6694L77.0373 39.7359C77.7988 40.2409 78.5677 40.7459 79.3658 41.1974C79.6002 41.3122 80.0542 41.5494 80.2885 41.6718C82.0166 43.0415 83.3273 45.3448 85.7437 45.3831L86.9372 45.6126C86.6736 46.1176 86.4027 46.6303 86.1317 47.143C85.8169 47.6863 85.1872 48.7882 84.8723 49.3391C84.616 49.2703 84.0961 49.1172 83.8398 49.0407C83.4591 48.7346 82.6975 48.1148 82.3168 47.8087C81.5186 47.1813 80.574 46.791 79.688 46.3396C80.1713 47.6174 80.6839 48.8953 81.2477 50.1426C81.3722 50.4181 81.6138 50.969 81.7383 51.2521C80.8962 51.5582 80.0615 51.8872 79.234 52.2469L78.4432 52.6295C78.1796 52.0785 77.6524 50.9843 77.3888 50.441L77.7476 50.0049C77.9453 49.7523 78.348 49.232 78.5531 48.9795C78.1357 47.143 77.1545 45.559 75.9756 44.174C75.7486 45.4366 75.5216 46.6992 75.3751 47.9771C75.4191 49.408 75.5948 50.8236 75.6973 52.2545C74.5038 52.2622 73.3175 52.2775 72.124 52.2928C71.9336 51.8413 71.5455 50.9384 71.3551 50.4793L72.2045 49.5228C74.0278 48.2066 73.6617 45.7427 73.8521 43.7379C71.897 45.6279 70.081 47.7475 69.1438 50.4028L67.9941 49.4845C67.1887 48.7958 66.7567 47.8087 66.3173 46.8522C68.1992 45.8269 69.9346 44.5337 71.421 42.9497C68.9241 42.0238 66.6981 43.4701 64.992 45.2759C64.6698 44.8474 64.0108 43.9827 63.6813 43.5542C63.6886 42.5059 63.7252 41.4576 63.7764 40.4169C66.0684 40.8378 68.4042 40.6465 70.6741 40.1874C69.3488 38.8865 67.5914 38.1366 65.7535 38.3968C65.0066 38.435 64.2744 38.5192 63.5421 38.6493C63.425 38.1902 63.2053 37.2566 63.0955 36.7975C63.3225 36.0935 63.5934 35.4049 63.8863 34.7315L64.6625 33.9357C66.0391 35.8563 68.2358 36.2007 70.3666 35.7415C68.9973 33.8974 67.1887 32.5124 65.0359 31.8467L65.607 30.9514C66.1562 30.1097 66.764 29.3062 67.5036 28.6482C68.4115 29.4363 69.2316 30.3239 70.0444 31.2192C70.6668 32.0609 71.3039 32.895 71.9922 33.6832C74.145 31.51 71.2819 28.9695 70.1762 27.0412C71.3551 25.97 72.5487 24.7227 74.2548 24.9063C74.2109 26.276 74.2255 27.6534 74.3061 29.0231C74.6209 30.0026 75.0163 30.9514 75.4923 31.8543C78.0112 31.0432 76.3637 27.5616 76.7591 25.4649C77.9014 25.243 79.3585 25.4726 79.8931 24.0952ZM70.7913 40.7689C71.3771 42.1922 72.3803 43.2482 73.9326 43.3476C74.0278 42.1233 74.123 40.8913 74.2182 39.667C73.0759 40.0343 71.9336 40.4016 70.7913 40.7689Z" fill="#9C172E"/>
<path d="M213.417 24.1321C214.493 23.2675 215.672 25.2264 214.618 25.9839C213.534 26.8562 212.362 24.8973 213.417 24.1321Z" fill="#5F0003"/>
<path d="M243.359 29.4825C243.513 27.6613 244.428 26.108 246.303 25.8784C246.413 26.4447 246.625 27.5848 246.727 28.1587C246.442 28.9469 246.156 29.7427 245.922 30.5538C245.065 30.1941 244.209 29.8421 243.359 29.4825Z" fill="#FF4E5B"/>
<path d="M250.754 26.207L251.362 26.3983C252.175 28.1277 249.444 27.4849 250.754 26.207Z" fill="#F0586D"/>
<path d="M64.2305 29.0623C64.9334 28.2741 65.4094 26.8279 66.6615 26.9197C67.6281 27.4018 68.5141 28.0598 69.3049 28.8174C69.5685 29.6055 69.8175 30.409 70.0445 31.2201C69.2317 30.3248 68.4116 29.4372 67.5036 28.649C66.764 29.3071 66.1563 30.1106 65.6071 30.9523C65.2629 30.4779 64.5746 29.5367 64.2305 29.0623Z" fill="#E7666F"/>
<path d="M271.806 28.2662C272.194 27.8913 272.971 27.149 273.359 26.7817C274.918 27.5622 275.387 29.2074 275.285 30.9062C274.252 30.9291 273.227 30.9444 272.209 30.9521C272.085 30.0491 271.982 29.1539 271.806 28.2662Z" fill="#EC5962"/>
<path d="M31.4263 29.8032C34.6848 25.8012 41.7656 27.7142 42.2562 33.0936C43.274 37.6388 38.5876 41.901 34.4212 40.3017C32.9933 39.5978 31.3897 38.8326 30.6502 37.2792C29.6909 34.8459 29.852 31.9152 31.4263 29.8032Z" fill="#F2515F"/>
<path d="M84.5427 28.7723C85.2603 28.3744 85.9706 27.9689 86.6882 27.5557C87.684 28.4127 89.002 29.3921 88.3137 30.9531C87.8378 30.9684 86.8712 30.9914 86.388 31.0067C85.7656 30.2645 85.1724 29.5069 84.5427 28.7723Z" fill="#EC5A6B"/>
<path d="M246.727 28.1573C247.086 27.9736 247.804 27.614 248.163 27.438C248.726 28.0884 249.305 28.7235 249.905 29.3357C250.769 30.2769 251.758 31.088 252.739 31.8991C253.178 31.7996 254.064 31.6007 254.504 31.5012C254.987 31.3941 255.968 31.1875 256.459 31.0803C256.92 32.0445 257.389 33.0163 257.865 33.9804C257.63 34.2559 257.162 34.8145 256.927 35.0976C253.786 35.2583 251.055 33.6055 248.243 32.4347C247.452 32.144 246.639 32.121 245.805 32.3506C245.834 31.9068 245.893 31.0038 245.922 30.5524C246.156 29.7412 246.442 28.9454 246.727 28.1573Z" fill="#8C1122"/>
<path d="M59.808 32.5965C59.4565 30.6911 60.3278 28.9924 62.0999 28.3496C62.9493 29.6045 63.4325 31.4487 65.0362 31.8466C67.1889 32.5123 68.9976 33.8973 70.3669 35.7414C68.2361 36.2006 66.0393 35.8562 64.6627 33.9356C63.5131 32.2674 61.5434 32.497 59.808 32.5965Z" fill="#EA2447"/>
<path d="M79.4392 29.3674C80.3618 29.1149 81.2917 28.8624 82.2217 28.6099C82.3242 31.1886 80.3032 32.543 78.2163 33.2393C78.5898 31.9385 78.9559 30.63 79.4392 29.3674Z" fill="#CE203F"/>
<path d="M207.113 29.5665C208.189 28.9696 209.361 28.6253 210.532 28.2886C209.793 28.9926 209.039 29.6659 208.277 30.3317C206.988 31.1963 205.802 32.1987 204.513 33.0558C203.876 32.4436 204.001 31.4488 203.766 30.6607C204.953 30.5536 206.102 30.2628 207.113 29.5665Z" fill="#E0213F"/>
<path d="M69.1433 50.4032C70.0805 47.7479 71.8965 45.6283 73.8516 43.7383C73.6612 45.7431 74.0273 48.207 72.204 49.5232C71.9917 49.638 71.5816 49.8599 71.3766 49.9747C69.7803 52.0101 68.7186 54.4358 69.0408 57.1293C67.3566 57.0527 65.8482 56.3411 65.0208 54.7571C66.6683 53.6247 68.5868 52.5534 69.1433 50.4032Z" fill="#E0213F"/>
<path d="M288.742 56.5016C289.035 55.7211 289.072 54.6957 289.936 54.3208C290.602 54.7799 291.276 55.2467 291.935 55.7288L292.733 55.8818C294.044 56.0731 295.303 56.5475 296.372 57.3816C295.12 57.5193 293.868 57.6494 292.623 57.7489C292.667 58.2004 292.755 59.0956 292.799 59.5471C294.102 59.4476 295.398 59.3405 296.702 59.2334C295.596 60.2664 294.468 61.2841 293.524 62.4855C293.011 63.1282 292.528 63.7863 292.037 64.4444C291.942 64.0235 291.752 63.1895 291.649 62.7762C292.089 62.3936 292.967 61.6437 293.399 61.2688C292.037 61.6591 290.763 62.2789 289.46 62.8298C289.306 62.2406 288.991 61.0699 288.83 60.4806C290.229 60.4271 291.635 60.3735 293.04 60.2511C292.345 59.3175 291.437 58.7436 290.309 58.5294C290.485 58.0091 290.661 57.4811 290.844 56.9607C290.317 56.846 289.269 56.6164 288.742 56.5016Z" fill="#E0213F"/>
<path d="M58.2109 72.5938C58.8919 73.1294 59.4704 73.7645 59.9463 74.4914C59.3093 75.8229 57.6691 75.5321 56.5414 76.0065L56.2559 75.4173C56.849 74.4302 57.5373 73.5196 58.2109 72.5938Z" fill="#E0213F"/>
<path d="M298.064 103.561C298.862 104.28 299.375 105.229 299.661 106.293C298.591 106.698 295.245 106.147 296.578 108.275C297.112 108.344 298.189 108.474 298.723 108.535C298.657 108.917 298.54 109.683 298.474 110.073C297.852 109.973 297.229 109.882 296.607 109.782C296.409 108.604 296.212 107.425 296.021 106.255C296.71 105.359 297.383 104.456 298.064 103.561Z" fill="#E0213F"/>
<path d="M287.528 120.357L288.069 120.258C288.201 121.689 288.509 123.089 288.831 124.482C288.516 125.622 286.473 125.66 286.334 124.398C286.627 123.02 287.037 121.673 287.528 120.357Z" fill="#E0213F"/>
<path d="M258.552 32.6271C258.098 31.1426 258.076 29.6505 258.955 28.3267C260.691 30.0331 262.712 31.3569 264.974 32.1527C265.157 32.3899 265.516 32.8566 265.692 33.0939C265.545 33.4229 265.252 34.0886 265.106 34.4177C263.751 35.1063 262.338 35.6649 260.947 36.2465C262.096 36.346 263.253 36.4454 264.403 36.5526C264.652 37.4784 264.894 38.4043 265.143 39.3302C264.198 39.4603 263.041 40.5469 262.265 39.5368C261.555 38.8635 260.925 38.1136 260.273 37.379C260.573 36.4378 260.888 35.4966 261.123 34.5324C260.398 33.7213 259.438 33.201 258.552 32.6271Z" fill="#800C1E"/>
<path d="M22.3022 135.165C22.9466 135.249 23.591 135.333 24.2354 135.417L25.0115 135.524L24.7186 135.983C24.1548 136.802 23.3933 137.437 22.6903 138.111L22.4194 136.641C22.3755 136.152 22.3389 135.654 22.3022 135.165Z" fill="#800C1E"/>
<path d="M86.7177 32.8267C88.5776 32.0003 89.3391 29.8654 90.9501 28.8247C92.4731 29.5593 92.9637 31.3039 92.6635 32.9185C90.8622 33.0716 87.2742 32.49 88.4751 35.6426C89.2293 35.3519 89.9908 35.084 90.767 34.8545C91.7189 35.5661 91.5798 37.0353 91.3821 38.0989C89.7712 37.9382 88.1602 37.7087 86.542 37.6245C86.6811 38.0836 86.952 38.9942 87.0912 39.4533C86.2198 39.5834 85.3557 39.7594 84.4917 39.9277C85.4363 38.7723 86.3589 37.6015 87.3548 36.492L88.4605 36.4614C88.292 35.3136 88.1236 34.1658 87.9332 33.0333C87.6257 32.9797 87.0179 32.8726 86.7177 32.8267Z" fill="#F03456"/>
<path d="M239.265 34.4178C239.009 32.7803 238.46 30.3928 240.29 29.4976C241.55 29.6276 242.238 30.9438 243.241 31.6172C244.618 32.8797 246.566 32.6272 248.242 32.4359C251.054 33.6067 253.786 35.2595 256.927 35.0988L257.337 35.5962C253.346 35.6115 248.916 36.9123 245.335 34.456C243.476 32.9563 241.249 33.622 239.265 34.4178Z" fill="#E41A3C"/>
<path d="M265.692 33.0951C267.23 31.6412 269.177 29.7436 271.418 30.7766C271.059 30.899 270.334 31.1592 269.976 31.2893C269.998 31.6566 270.049 32.3988 270.071 32.7737C270.532 32.835 271.462 32.9574 271.923 33.0186C270.452 35.5667 267.427 34.4113 265.106 34.4189C265.253 34.0899 265.546 33.4242 265.692 33.0951Z" fill="#CA0537"/>
<path d="M273.893 32.8342C275.269 31.7323 276.573 30.531 277.825 29.2837C279.275 30.6764 279.861 32.6353 279.04 34.5789C278.111 34.2804 277.181 33.9591 276.265 33.6224C275.474 33.3469 274.691 33.0714 273.893 32.8342Z" fill="#E81D36"/>
<path d="M80.4131 34.7855C81.387 33.7525 82.3389 32.6659 83.5251 31.8931C84.2354 32.5817 84.9237 33.2857 85.6193 33.9897C84.6821 35.566 82.9833 35.9869 81.3284 35.4512L80.4131 34.7855Z" fill="#CA072E"/>
<path d="M73.4715 33.2707C74.4967 31.7403 76.049 33.5232 77.1987 33.944C78.297 34.0818 79.5125 33.9823 80.4132 34.7858L81.3285 35.4515C82.9834 35.9871 84.6822 35.5663 85.6194 33.9899C85.8977 33.6992 86.4395 33.1176 86.7178 32.8268C87.018 32.8728 87.6258 32.9799 87.9333 33.0334C88.1237 34.1659 88.2921 35.3137 88.4605 36.4615L87.3548 36.4921C85.246 36.4003 83.203 36.9895 81.2333 37.7088C81.5189 38.6806 81.8045 39.6524 82.0974 40.6242C81.6434 40.8844 80.7354 41.4047 80.2887 41.6725C80.0544 41.5501 79.6004 41.3129 79.3661 41.1981C78.5679 40.7466 77.7991 40.2416 77.0376 39.7366C77.0815 38.803 77.1401 37.8618 77.2133 36.936C76.4957 36.6758 75.7781 36.408 75.0678 36.1402C74.3429 35.5127 72.3366 34.3419 73.4715 33.2707Z" fill="#880F25"/>
<path d="M272.348 32.5356C272.737 32.6122 273.505 32.7576 273.893 32.8341C274.692 33.0713 275.475 33.3468 276.266 33.6222C275.665 33.6146 274.457 33.5916 273.85 33.5763C273.886 34.7165 273.915 35.8566 273.952 36.9968C273.63 37.2034 272.985 37.6319 272.663 37.8461C272.151 37.5324 271.126 36.9049 270.62 36.5989C268.76 36.1397 266.864 36.5223 265.041 36.9585C266.652 38.4583 268.27 40.7921 270.716 40.3483L271.858 40.2718C272.334 40.2718 273.293 40.2795 273.769 40.2795L273.549 40.7156C273.359 41.0753 273.176 41.4426 273 41.8099C272.546 42.7204 272.099 43.6387 271.66 44.5569C271.191 44.534 270.254 44.4881 269.786 44.4651C269.581 44.1361 269.17 43.478 268.965 43.149C268.021 41.4885 266.337 40.0499 264.367 40.6621C264.411 41.9552 264.616 43.5239 265.846 44.182C266.805 44.84 267.801 45.4599 268.738 46.1562C268.768 46.6306 268.834 47.5795 268.863 48.0462C268.087 48.49 267.318 48.9262 266.556 49.3624C266.19 49.5766 265.458 49.9898 265.092 50.1964C264.902 49.5919 264.521 48.3676 264.33 47.7631C265.443 45.8578 263.393 43.7305 262.273 42.3455C260.406 42.7434 261.035 45.3604 260.896 46.8296C260.662 48.2834 262.031 48.8726 262.91 49.6378C263.1 50.4949 263.32 51.3442 263.569 52.1859C263.02 51.2065 262.046 50.9769 261.035 51.0611L259.673 51.3595C259.293 51.4437 258.538 51.612 258.165 51.6962C258.04 51.0075 257.799 49.6225 257.674 48.9339C257.967 48.689 258.546 48.2069 258.839 47.9697C258.634 46.1179 258.436 44.2661 258.187 42.422C258.846 42.3684 260.171 42.2537 260.83 42.1925C260.515 40.9375 260.186 39.6903 259.959 38.4124C260.039 38.1522 260.201 37.6395 260.274 37.3794C260.925 38.1139 261.555 38.8638 262.265 39.5372C263.042 40.5473 264.199 39.4607 265.143 39.3306C264.894 38.4047 264.653 37.4788 264.404 36.5529C263.254 36.4458 262.097 36.3463 260.947 36.2469C262.339 35.6653 263.752 35.1067 265.107 34.418C267.428 34.4104 270.452 35.5658 271.924 33.0177L272.348 32.5356Z" fill="#9B1B2F"/>
<path d="M258.553 32.627C259.439 33.2009 260.398 33.7212 261.123 34.5323C260.888 35.4964 260.574 36.4376 260.273 37.3788C260.2 37.639 260.039 38.1517 259.958 38.4119C260.185 39.6897 260.515 40.937 260.83 42.1919C260.171 42.2532 258.845 42.3679 258.186 42.4215L257.703 42.4521C257.579 41.6486 257.447 40.8452 257.308 40.0417C257.754 39.4219 258.208 38.8021 258.662 38.1899C258.479 37.8073 258.106 37.0498 257.916 36.6672C257.769 36.3994 257.484 35.8637 257.337 35.5959L256.927 35.0985C257.161 34.8154 257.63 34.2568 257.864 33.9814C258.04 33.6447 258.377 32.9636 258.553 32.627Z" fill="#78091B"/>
<path d="M60.6646 36.9731C60.7378 35.4963 61.0893 34.096 62.2315 33.1318C62.6489 33.5297 63.4764 34.3255 63.8864 34.7311C63.5935 35.4045 63.3226 36.0931 63.0956 36.7971C62.4878 36.8354 61.2723 36.9272 60.6646 36.9731Z" fill="#E85C63"/>
<path d="M211.038 34.8989C212.077 34.6082 212.436 34.9908 212.107 36.0391C211.06 36.3299 210.701 35.9473 211.038 34.8989Z" fill="#DB5865"/>
<path d="M241.66 34.3027C242.736 34.7542 243.813 35.2057 244.889 35.6648C244.816 36.1622 244.677 37.1493 244.603 37.6466C243.549 38.0675 242.399 39.2842 241.374 38.144C241.169 36.8585 241.484 35.573 241.66 34.3027Z" fill="#F5566A"/>
<path d="M245.336 34.4565C248.917 36.9128 253.347 35.612 257.338 35.5967C257.484 35.8645 257.77 36.4001 257.916 36.668C256.986 37.9382 256.056 39.2084 255.126 40.4863C254.738 40.1114 253.947 39.3691 253.552 39.0018C253.266 38.7264 252.703 38.1754 252.417 37.9076C249.993 37.8693 247.43 37.9305 245.549 39.7594C245.314 39.2314 244.838 38.1754 244.604 37.6474C244.677 37.15 244.816 36.1629 244.89 35.6656C244.999 35.3671 245.226 34.7626 245.336 34.4565Z" fill="#831522"/>
<path d="M70.8578 38.7488C69.7008 37.578 71.0628 36.2925 71.5388 35.1523C72.5419 35.8257 73.5378 36.5144 74.5629 37.1495C74.4091 37.4785 74.0943 38.1443 73.9332 38.4733C72.9154 38.5881 71.8902 38.7564 70.8578 38.7488Z" fill="#85081B"/>
<path d="M75.0681 36.1392C75.7783 36.407 76.4959 36.6748 77.2135 36.935C77.1403 37.8609 77.0817 38.8021 77.0378 39.7356L77.0451 40.6691C77.4698 41.6869 77.9384 42.6816 78.4144 43.6764C77.3234 43.707 76.2397 43.7376 75.1559 43.7758C75.4195 42.7581 75.6905 41.7404 75.9614 40.7304C75.2877 39.9728 74.6141 39.2229 73.9331 38.473C74.0942 38.144 74.4091 37.4783 74.5628 37.1492L75.0681 36.1392Z" fill="#620510"/>
<path d="M81.2334 37.7085C83.2031 36.9893 85.2461 36.4001 87.3549 36.4919C86.3591 37.6014 85.4364 38.7722 84.4919 39.9276C85.3559 39.7593 86.2199 39.5833 87.0913 39.4532C87.538 39.3996 88.4386 39.3078 88.8926 39.2619C88.9512 39.5527 89.0684 40.1419 89.1269 40.4403C88.9512 40.9759 88.5851 42.0472 88.4093 42.5829C88.2043 42.9349 87.8016 43.6312 87.6039 43.9755L87.4501 44.2357C87.2085 43.9755 86.7105 43.4552 86.4616 43.195C85.3193 41.833 83.745 41.0678 82.0974 40.6239C81.8045 39.6521 81.519 38.6803 81.2334 37.7085Z" fill="#A31235"/>
<path d="M265.04 36.9583C266.863 36.5221 268.76 36.1395 270.62 36.5986C270.59 37.8459 270.598 39.1008 270.715 40.3481C268.269 40.7919 266.651 38.4581 265.04 36.9583Z" fill="#C40E3B"/>
<path d="M273.952 36.9975C274.75 36.4695 275.556 35.9569 276.376 35.4595C276.837 36.8521 277.481 38.8876 276.068 39.9129C274.399 39.163 272.751 38.3213 270.92 38.0994C271.155 38.6427 271.623 39.7293 271.858 40.2726L270.715 40.3491C270.598 39.1018 270.591 37.8469 270.62 36.5996C271.125 36.9057 272.151 37.5332 272.663 37.8469C272.985 37.6326 273.63 37.2041 273.952 36.9975Z" fill="#FB505C"/>
<path d="M255.126 40.4863C256.056 39.2084 256.986 37.9382 257.916 36.668C258.106 37.0506 258.479 37.8081 258.663 38.1907C258.209 38.8029 257.755 39.4227 257.308 40.0425C257.447 40.846 257.579 41.6494 257.703 42.4529C257.22 45.1693 255.14 47.3425 255.324 50.2196C254.884 50.2043 254.005 50.1737 253.566 50.1584C253.207 50.0972 252.49 49.9824 252.138 49.9212C251.992 49.7452 251.714 49.3856 251.567 49.2096L250.937 48.3985C251.216 47.9547 251.787 47.0517 252.065 46.6079C252.717 45.6973 253.068 44.6184 253.119 43.4859C251.003 43.0115 250.081 45.2612 248.902 46.6003C248.514 46.1871 247.737 45.3683 247.349 44.9551C247.152 44.672 246.749 44.0981 246.551 43.8149C246.603 43.264 246.72 42.1774 246.778 41.6341C249.224 41.3969 251.443 40.2415 253.551 39.0018C253.947 39.3691 254.738 40.1114 255.126 40.4863Z" fill="#9E1631"/>
<path d="M57.6549 40.7225C57.3108 39.5823 57.6549 36.5521 59.3684 37.7764C61.2502 39.3451 63.5934 39.062 65.7535 38.3962C67.5914 38.1361 69.3488 38.886 70.6742 40.1868C68.4042 40.6459 66.0684 40.8372 63.7765 40.4164C62.6415 40.2633 61.4553 40.1179 60.3642 40.5924C59.4416 41.3729 58.2114 42.6661 57.6549 40.7225Z" fill="#F41640"/>
<path d="M88.8926 39.2613C90.6353 39.2919 92.2243 38.5726 93.7986 37.8916C94.9922 38.9323 95.3363 41.2814 93.8059 42.1691C92.2316 41.6487 90.6792 41.0442 89.1269 40.4397C89.0683 40.1413 88.9512 39.5521 88.8926 39.2613Z" fill="#F71946"/>
<path d="M245.548 39.759C247.43 37.9302 249.993 37.869 252.416 37.9072C252.702 38.175 253.266 38.726 253.551 39.0015C251.442 40.2411 249.224 41.3965 246.778 41.6337C246.053 41.7485 245.335 41.871 244.618 41.9934C242.868 42.3607 241.894 44.1053 240.407 44.9624C238.775 43.9523 238.694 41.8633 238.95 40.1186C241.11 40.3329 243.659 41.4195 245.548 39.759Z" fill="#ED173D"/>
<path d="M60.3645 40.592C61.4555 40.1176 62.6418 40.263 63.7767 40.416C63.7255 41.4567 63.6889 42.505 63.6816 43.5533C63.0372 44.1655 62.4001 44.7776 61.7558 45.3898C60.8112 44.3032 60.4304 42.9718 60.5476 41.5179C61.5434 41.3113 63.4399 42.5968 63.623 40.7144C62.5393 40.6685 61.4482 40.6226 60.3645 40.592Z" fill="#EC5865"/>
<path d="M70.7913 40.7689C71.9336 40.4016 73.0759 40.0343 74.2181 39.667C74.123 40.8913 74.0278 42.1233 73.9326 43.3476C72.3802 43.2481 71.3771 42.1921 70.7913 40.7689Z" fill="#81091B"/>
<path d="M80.2886 41.6724C80.7352 41.4045 81.6432 40.8842 82.0972 40.624C83.7448 41.0678 85.3191 41.833 86.4614 43.1951C86.1831 43.4017 85.6413 43.8073 85.363 44.0139C85.4582 44.3582 85.6486 45.0469 85.7438 45.3836C83.3274 45.3453 82.0167 43.0421 80.2886 41.6724Z" fill="#C20B33"/>
<path d="M264.367 40.6619C266.336 40.0497 268.021 41.4883 268.965 43.1488C268.738 43.6615 268.277 44.6792 268.05 45.1919C267.303 44.8628 266.571 44.5491 265.846 44.1818C264.616 43.5237 264.411 41.9551 264.367 40.6619Z" fill="#C00E3C"/>
<path d="M273 41.8101C273.176 41.4428 273.359 41.0755 273.549 40.7158C275.475 41.2362 277.35 40.2414 279.253 40.4863C279.4 41.6417 279.371 42.7972 279.165 43.9526C278.792 44.2204 278.031 44.7714 277.65 45.0392C276.332 43.6236 274.838 42.3763 273 41.8101Z" fill="#F11337"/>
<path d="M244.618 41.9944C245.336 41.872 246.053 41.7495 246.778 41.6348C246.72 42.1781 246.602 43.2646 246.551 43.8156C246.749 44.0987 247.152 44.6726 247.349 44.9557C246.244 45.7668 244.94 48.4833 243.666 46.5091C242.773 45.8663 242.37 43.4865 244.018 43.6932C244.684 43.3871 246.99 43.8385 246.236 42.4076C245.834 42.3081 245.021 42.1015 244.618 41.9944Z" fill="#FF4A60"/>
<path d="M64.9917 45.2775C66.6978 43.4717 68.9238 42.0254 71.4207 42.9513C69.9343 44.5353 68.1989 45.8285 66.317 46.8539L66.3097 46.8615C64.2814 47.313 62.7144 48.6827 62.0407 50.7411C60.3712 50.5651 59.1044 48.8051 59.6829 47.0911C61.4989 46.6549 63.6517 46.9151 64.9917 45.2775Z" fill="#EF153A"/>
<path d="M87.604 43.9747C87.8017 43.6304 88.2044 42.934 88.4095 42.582C89.4053 42.6739 90.4012 42.7733 91.397 42.8881C91.5361 44.342 91.0748 45.6734 90.1961 46.8059C89.3101 45.8877 88.4461 44.9388 87.604 43.9747Z" fill="#E75F6D"/>
<path d="M255.324 50.2197C255.141 47.3426 257.22 45.1694 257.704 42.453L258.187 42.4224C258.436 44.2665 258.634 46.1183 258.839 47.9701C258.546 48.2073 257.967 48.6893 257.674 48.9342C255.419 51.2834 255.58 54.9104 256.166 57.9329C254.709 59.1496 252.556 58.2849 251.597 56.8234C252.973 55.0558 254.438 53.3188 254.906 51.0155C254.57 50.8013 253.903 50.3728 253.566 50.1585C254.006 50.1738 254.884 50.2044 255.324 50.2197Z" fill="#F0163A"/>
<path d="M260.896 46.8288C261.035 45.3596 260.405 42.7426 262.272 42.3447C263.393 43.7297 265.443 45.857 264.33 47.7623C263.971 48.2291 263.261 49.1703 262.909 49.6371C262.031 48.8719 260.661 48.2827 260.896 46.8288Z" fill="#C01140"/>
<path d="M272.999 41.8096C274.837 42.3758 276.331 43.6231 277.649 45.0387C278.03 44.7709 278.792 44.2199 279.165 43.9521C279.692 45.9187 281.025 47.4567 281.896 49.2473C282.299 51.9944 282.797 55.4531 280.695 57.6033C279.07 59.3709 276.939 60.6717 274.654 61.1997C271.594 61.368 268.525 59.7229 266.702 57.1748C265.435 55.675 264.33 54.0221 263.568 52.1857C263.319 51.3439 263.1 50.4946 262.909 49.6375C263.261 49.1708 263.971 48.2296 264.33 47.7628C264.52 48.3673 264.901 49.5916 265.091 50.1961C265.245 51.5123 265.326 52.8361 265.421 54.1599C266.666 54.0681 267.984 53.8997 268.848 52.8208C268.547 51.3975 267.383 50.4487 266.556 49.3621C267.317 48.9259 268.086 48.4898 268.862 48.0459C269.953 50.0661 270.913 52.1704 271.791 54.2976C273.175 53.3105 274.383 52.0862 275.409 50.7012C272.838 49.7906 270.583 48.2296 268.738 46.1559C267.801 45.4596 266.805 44.8398 265.845 44.1817C266.57 44.549 267.303 44.8627 268.05 45.1917C268.277 44.6791 268.738 43.6614 268.965 43.1487C269.17 43.4777 269.58 44.1358 269.785 44.4648C270.554 45.7274 271.337 46.9823 272.128 48.2296C272.597 48.2372 273.534 48.2525 274.003 48.2602C274.266 47.0818 274.523 45.911 274.793 44.7403C273.746 44.6714 272.699 44.6102 271.659 44.5566C272.099 43.6384 272.545 42.7202 272.999 41.8096Z" fill="#F69899"/>
<path d="M38.4627 151.157C39.9418 149.902 41.6552 148.31 43.7275 148.693C44.3426 148.815 45.5727 149.06 46.1951 149.175C45.8437 150.124 45.4995 151.072 45.148 152.021C47.9672 152.251 50.6838 153.842 53.5395 153.123L54.8356 152.909C54.8942 154.325 54.0594 155.25 52.983 155.924C52.6755 157.737 52.7121 159.658 51.9725 161.357C50.7936 163.193 49.0362 164.494 47.5351 166.017C44.9064 166.024 41.9555 166.529 39.7587 164.647C35.2994 162.038 34.45 154.554 38.4627 151.157Z" fill="#F69899"/>
<path d="M248.902 46.6013C250.081 45.2622 251.003 43.0125 253.12 43.487C253.068 44.6195 252.717 45.6984 252.065 46.609C250.374 47.7491 248.785 49.0653 247.511 50.7181C247.218 51.644 247.474 52.8913 246.691 53.5723C244.706 53.8554 243.447 51.8812 243.234 50.06C245.409 49.4785 247.686 48.7515 248.902 46.6013Z" fill="#ED1836"/>
<path d="M75.9764 44.1738C77.1553 45.5588 78.1365 47.1428 78.5539 48.9793C78.3489 49.2318 77.9461 49.7521 77.7484 50.0046C76.9576 49.3313 76.1668 48.6502 75.376 47.9769C75.5224 46.699 75.7494 45.4364 75.9764 44.1738Z" fill="#BC1439"/>
<path d="M269.785 44.4653C270.254 44.4883 271.191 44.5342 271.66 44.5572C272.699 44.6107 273.747 44.6719 274.794 44.7408C274.523 45.9116 274.266 47.0823 274.003 48.2607C273.534 48.2531 272.597 48.2378 272.128 48.2301C271.337 46.9828 270.554 45.7279 269.785 44.4653Z" fill="#F34F65"/>
<path d="M86.9376 45.6123C88.5412 46.9514 90.4889 47.3799 92.4953 47.4641C93.0444 49.2087 91.6019 50.6856 90.2326 51.3895C89.2441 49.6143 88.1604 47.7243 86.1321 47.1427C86.403 46.63 86.6739 46.1173 86.9376 45.6123Z" fill="#F4224A"/>
<path d="M268.738 46.1572C270.584 48.2309 272.839 49.7919 275.409 50.7025C274.384 52.0875 273.176 53.3118 271.792 54.2989C270.913 52.1717 269.954 50.0674 268.863 48.0473C268.833 47.5805 268.768 46.6316 268.738 46.1572Z" fill="#F22B47"/>
<path d="M66.3101 46.8602L66.3174 46.8525C66.7568 47.809 67.1888 48.7961 67.9943 49.4848C67.2693 50.2959 66.6176 51.1836 65.9293 52.0329C64.5381 51.8723 64.0987 50.3954 63.5056 49.3088C64.6479 48.7732 65.9733 48.2911 66.3101 46.8602Z" fill="#E95E6C"/>
<path d="M79.6882 46.3389C80.5742 46.7903 81.5188 47.1806 82.317 47.808C82.273 50.6393 83.7009 53.6695 86.5127 54.3811C86.5786 56.5466 84.5723 57.5567 82.7636 57.1741C82.7124 55.1616 82.6758 53.0726 81.7385 51.2514C81.614 50.9683 81.3724 50.4174 81.2479 50.1419C80.6841 48.8946 80.1715 47.6167 79.6882 46.3389Z" fill="#E91F3A"/>
<path d="M296.586 46.5996L296.652 47.1582C296.351 48.2524 297.955 49.8976 298.431 48.2524C298.314 47.9311 298.072 47.2959 297.955 46.9822L298.848 46.8368C298.834 47.4719 298.812 48.7498 298.797 49.3849C299.361 48.9029 299.932 48.4131 300.511 47.9311C300.759 48.0229 301.257 48.2065 301.506 48.2983C301.645 46.6838 303 46.5154 304.274 46.7986C305.109 48.13 303.754 49.1018 303.029 49.9894C302.436 50.6399 301.829 51.2826 301.243 51.9407C301.148 51.3821 300.972 50.2649 300.877 49.7063C300.064 49.6987 299.244 49.7216 298.438 49.7675C298.424 50.4409 298.394 51.78 298.38 52.4534C297.647 51.7494 296.923 51.0378 296.198 50.3414C295.846 50.9153 295.151 52.0631 294.806 52.637C294.616 52.2697 294.243 51.5275 294.052 51.1602C293.957 50.9689 293.759 50.5863 293.657 50.395C294.462 49.9818 295.275 49.5686 296.088 49.1554C296.212 48.5126 296.461 47.2347 296.586 46.5996Z" fill="#EA6775"/>
<path d="M296.651 47.1574C296.973 47.1115 297.632 47.0274 297.954 46.9814C298.071 47.2952 298.313 47.9303 298.43 48.2517C297.954 49.8969 296.351 48.2517 296.651 47.1574Z" fill="#EA283E"/>
<path d="M75.6975 52.2545C75.595 50.8236 75.4192 49.408 75.3753 47.9771C76.1661 48.6504 76.9569 49.3315 77.7477 50.0048L77.389 50.441C77.2352 50.6323 76.913 51.0072 76.7519 51.1985C76.437 53.6242 76.8617 55.9963 77.6526 58.269C77.2938 60.1055 74.7236 59.103 73.5813 58.5368C74.1158 57.6492 74.6357 56.7462 75.141 55.8433C75.4119 54.6572 75.5803 53.4559 75.6975 52.2545Z" fill="#F61733"/>
<path d="M83.8401 49.041C84.0964 49.1175 84.6163 49.2706 84.8725 49.3394C85.9709 49.6073 87.0546 49.9593 88.0871 50.4566C87.2011 51.1836 86.3736 53.6322 84.9751 52.4691C84.4625 51.3749 84.1623 50.2041 83.8401 49.041Z" fill="#FD4A51"/>
<path d="M251.567 49.209C251.714 49.385 251.992 49.7446 252.138 49.9206C252.19 51.2215 252.058 52.5146 251.977 53.8078C250.249 53.6701 248.58 52.9125 248.345 50.923C249.415 50.3491 250.491 49.7829 251.567 49.209Z" fill="#F95267"/>
<path d="M265.092 50.1964C265.458 49.9898 266.19 49.5766 266.556 49.3623C267.384 50.4489 268.548 51.3977 268.848 52.821C267.984 53.8999 266.666 54.0683 265.421 54.1601C265.326 52.8363 265.246 51.5125 265.092 50.1964Z" fill="#F05665"/>
<path d="M291.526 50.9851C292.016 50.3806 292.514 49.7761 293.027 49.1792L293.657 50.3959C293.759 50.5872 293.957 50.9698 294.052 51.1611C294.242 51.5284 294.616 52.2706 294.806 52.6379C295.15 52.064 295.846 50.9162 296.198 50.3423C296.922 51.0386 297.647 51.7503 298.38 52.4542C298.394 51.7809 298.424 50.4418 298.438 49.7684C299.244 49.7225 300.064 49.6995 300.877 49.7072C300.972 50.2658 301.148 51.383 301.243 51.9416C301.829 51.2835 302.436 50.6407 303.029 49.9903C303.623 50.0821 304.809 50.2734 305.395 50.3653C304.941 51.4136 304.479 52.4696 304.282 53.602C305.248 52.8751 306.207 52.1176 307.145 51.3371C307.064 52.6149 307.445 53.7168 308.309 54.6351C307.862 54.8111 306.969 55.1477 306.522 55.3161C305.805 55.6069 305.087 55.9129 304.384 56.219C304.252 57.4051 304.12 58.5911 303.996 59.7772C303.051 60.221 302.114 60.6648 301.177 61.101C301.17 62.815 301.265 64.5214 301.499 66.2125C301.199 66.1743 300.598 66.1054 300.298 66.0671C300.21 64.6821 300.13 63.2895 300.049 61.9044C299.756 62.3253 299.471 62.7538 299.192 63.1747C298.387 64.1541 297.625 65.5162 296.19 65.2713L295.744 64.8275C296.681 63.519 297.494 62.1187 298.233 60.6725C296.849 61.606 295.604 62.7079 294.433 63.9093C294.206 63.5496 293.752 62.8456 293.525 62.486C294.469 61.2846 295.597 60.2669 296.703 59.2339C295.399 59.341 294.103 59.4482 292.8 59.5476C292.756 59.0962 292.668 58.2009 292.624 57.7494C293.869 57.6499 295.121 57.5199 296.373 57.3821C295.304 56.5481 294.045 56.0736 292.734 55.8823C292.778 55.4921 292.851 54.7192 292.895 54.329C292.536 54.1071 291.826 53.6556 291.467 53.4337C292.09 53.4031 293.32 53.3419 293.942 53.3113C293.649 52.087 292.427 51.6049 291.526 50.9851ZM300.401 56.2573C299.053 56.4945 299.5 58.9355 300.869 58.3539C302.048 58.0096 301.638 55.9282 300.401 56.2573Z" fill="#9F152B"/>
<path d="M261.035 51.0609C262.045 50.9768 263.019 51.2063 263.568 52.1858C264.33 54.0222 265.436 55.6751 266.702 57.1749C265.304 57.963 263.81 59.0649 262.163 58.3609C261.731 55.9505 263.847 52.6678 261.035 51.0609Z" fill="#E91B38"/>
<path d="M258.165 51.6966C258.538 51.6124 259.292 51.444 259.673 51.3599C259.6 52.7908 260.12 54.1222 260.676 55.4001C259.402 55.6756 257.11 56.5862 256.686 54.7114C257.088 53.6631 257.645 52.6913 258.165 51.6966Z" fill="#FB4E5C"/>
<path d="M72.1237 52.2936C73.3173 52.2783 74.5035 52.263 75.6971 52.2554C75.5799 53.4567 75.4115 54.6581 75.1406 55.8441C75.2138 54.0612 75.4408 51.9722 73.0171 52.3319C73.0903 53.5485 73.1562 54.7652 73.2294 55.9895C72.0359 55.7523 70.4835 56.0278 69.927 54.5816C70.1101 53.4338 71.1791 52.7221 72.1237 52.2936Z" fill="#FE5264"/>
<path d="M78.4431 52.6302L79.234 52.2476C79.9808 53.2347 80.7204 54.2294 81.46 55.2318C80.2225 55.8134 78.9337 56.2725 77.5645 56.2725C77.8207 55.0558 77.7914 53.7091 78.4431 52.6302Z" fill="#EF5969"/>
<path d="M306.609 56.555C308.206 56.004 309.773 55.3459 311.267 54.5195C311.464 55.2235 311.662 55.9198 311.867 56.6162C310.769 56.5779 309.678 56.5397 308.587 56.5014C308.682 57.7334 309.355 58.7358 310 59.7229C309.041 59.4321 308.074 59.149 307.122 58.8735C306.683 59.2638 306.258 59.654 305.826 60.0366C307.884 60.3503 309.934 60.71 311.999 61.0467C311.684 61.6129 311.354 62.1792 311.025 62.7301C309.641 61.9726 307.679 60.5569 307.078 63.0821C307.627 63.1739 308.733 63.3576 309.282 63.4494C308.96 63.679 308.323 64.1457 308.008 64.3753C306.998 63.2351 305.723 62.4776 304.244 62.2863C305.716 63.8243 307.217 65.4313 309.231 66.1888C308.674 66.8469 308.125 67.505 307.583 68.1783C306.844 66.8239 306.646 64.4442 304.61 64.9645C304.852 66.0128 305.174 67.0841 304.955 68.1783C304.259 66.9004 303.578 65.6226 302.868 64.3676C302.824 64.9033 302.721 65.9746 302.67 66.5025C302.099 66.5791 300.964 66.7168 300.4 66.7857L299.888 67.0229L299.756 66.3572C299.543 65.3012 299.353 64.2376 299.192 63.1739C299.47 62.7531 299.756 62.3246 300.049 61.9037C300.129 63.2887 300.21 64.6814 300.298 66.0664C300.598 66.1046 301.198 66.1735 301.498 66.2118C301.264 64.5207 301.169 62.8143 301.176 61.1002C302.114 60.6641 303.051 60.2203 303.995 59.7764C304.12 58.5904 304.252 57.4043 304.383 56.2183C305.086 55.9122 305.804 55.6061 306.522 55.3153L306.609 56.555Z" fill="#B11233"/>
<path d="M300.4 56.2568C301.638 55.9278 302.048 58.0091 300.869 58.3534C299.5 58.935 299.053 56.494 300.4 56.2568Z" fill="#600004"/>
<path d="M294.432 63.9087C295.604 62.7073 296.849 61.6054 298.233 60.6719C297.493 62.1181 296.68 63.5184 295.743 64.8269C294.352 65.4467 293.715 66.8929 292.975 68.1632C292.624 67.7806 291.913 67.0154 291.562 66.6328C291.833 65.2554 293.649 64.9876 294.432 63.9087Z" fill="#D63248"/>
<path d="M299.888 67.0235C298.606 68.3397 298.123 65.6079 299.756 66.3578L299.888 67.0235Z" fill="#FFA5AD"/>
<path d="M47.0745 66.8853C47.9458 66.9694 48.8172 67.0612 49.6959 67.1531C49.2053 68.2014 48.7147 69.2497 48.2534 70.3133C49.4982 70.0073 50.7357 69.6629 51.9805 69.3262C50.8455 71.0862 51.2116 73.1599 50.8016 75.0805C50.6039 75.4096 50.2085 76.083 50.0108 76.412C49.5568 75.4249 49.1101 74.4454 48.7 73.4354C48.495 72.7084 48.29 71.9738 48.0923 71.2392C47.7042 69.8007 47.382 68.3468 47.0745 66.8853Z" fill="#9E1026"/>
<path d="M302.319 66.5869C303.198 67.6352 304.047 68.7295 304.75 69.9155C303.791 70.214 302.824 70.4971 301.865 70.7726C301.99 69.3722 302.136 67.9796 302.319 66.5869Z" fill="#D74851"/>
<path d="M40.4841 69.9689C40.9528 68.6221 42.0584 67.987 43.3984 67.8799C43.4424 69.0812 43.4936 70.2903 43.5376 71.4916C44.116 70.7723 44.6872 70.0454 45.251 69.3185C45.6171 69.2878 46.3421 69.219 46.7082 69.1884C46.7082 70.2061 46.7155 71.2314 46.7228 72.2568C47.0597 72.0043 47.748 71.4916 48.0921 71.2391C48.2898 71.9737 48.4948 72.7083 48.6999 73.4352C48.4143 73.8408 47.8358 74.6366 47.5429 75.0421C47.0304 73.5194 46.5324 71.989 46.0418 70.4662C45.6537 70.6652 44.8922 71.0784 44.5041 71.285C44.8556 72.8996 45.1924 74.5218 45.5 76.144C44.5847 75.2793 43.6767 74.3994 42.776 73.5194C43.1056 73.5423 43.7646 73.5883 44.0941 73.6112C43.457 72.6241 42.82 71.6293 42.0877 70.7111C41.685 70.5275 40.8795 70.1525 40.4841 69.9689Z" fill="#D83C50"/>
<path d="M274.039 72.7615C272.282 72.4784 272.34 69.387 273.981 69.0197C275.526 68.1703 276.177 70.1828 276.902 71.1622C276.046 71.7667 275.247 73.5573 274.039 72.7615Z" fill="#A32037"/>
<path d="M15.0387 70.7818C16.9133 70.6671 18.7585 70.9272 19.3809 73.0545C19.0807 73.8579 18.7878 74.669 18.4949 75.4802C16.862 75.7097 15.1998 75.7174 13.6768 74.9675C13.7207 73.9192 13.7646 72.8708 13.8086 71.8225C14.1161 71.5623 14.7312 71.042 15.0387 70.7818Z" fill="#AB1A34"/>
<path d="M42.0874 70.7129C42.8196 71.6311 43.4567 72.6259 44.0937 73.613C43.7642 73.59 43.1052 73.5441 42.7757 73.5212C42.5047 73.2686 41.9629 72.7713 41.692 72.5188C41.2306 73.2304 40.7693 73.9344 40.3153 74.646C40.1469 73.8578 40.0224 73.062 39.9419 72.2586C40.4471 71.4934 41.3771 71.2179 42.0874 70.7129Z" fill="#EA6673"/>
<path d="M44.5039 71.2836C44.8919 71.077 45.6535 70.6638 46.0416 70.4648C46.5322 71.9876 47.0301 73.518 47.5427 75.0407C47.8356 74.6352 48.414 73.8394 48.6996 73.4338C49.1097 74.4439 49.5563 75.4233 50.0103 76.4104C50.208 76.0814 50.6034 75.408 50.8011 75.079C51.4455 74.0613 51.9068 72.9288 52.3755 71.8192C53.3274 72.5462 54.2646 73.2808 55.2532 73.9465C54.7992 74.1761 53.8839 74.6428 53.4226 74.88C52.6391 75.5228 51.9141 76.2344 51.1819 76.9308C52.3901 77.168 53.5983 77.3975 54.8065 77.6195C53.8399 78.0862 52.8734 78.5607 51.9141 79.0427C53.3274 80.466 55.3484 80.4966 57.1716 80.818C57.0691 81.4684 56.8787 82.7616 56.7835 83.4044C56.1172 83.3049 54.7845 83.1059 54.1182 83.0141C54.7259 83.6951 55.3264 84.3762 55.9195 85.0725C55.7731 85.1567 55.4802 85.325 55.341 85.4092C55.0188 85.9601 54.3891 87.062 54.0669 87.613C54.5502 87.6589 55.5168 87.7507 56.0074 87.7966C54.7259 90.2299 53.2102 86.4958 52.2217 85.5852C51.7384 84.8889 51.2478 84.2002 50.7572 83.5191C50.9549 85.0878 51.1599 86.6641 51.3723 88.2328C50.7426 88.5389 50.1201 88.8449 49.4904 89.151L48.89 87.6665C48.8827 86.5493 48.8827 85.4321 48.8168 84.3226C48.7582 82.9835 48.7069 81.6521 48.6557 80.313C49.4318 80.6726 50.208 81.0399 50.9842 81.3995C51.1673 80.6879 51.3503 79.9839 51.5334 79.2723C50.7938 79.41 50.0542 79.5401 49.3147 79.6778C48.7289 78.3387 48.187 76.9767 47.7111 75.584C47.3596 75.4846 46.6493 75.2779 46.2978 75.1785C46.4663 76.1962 46.642 77.2139 46.8177 78.2316C46.1734 78.025 45.5363 77.8184 44.8993 77.6118C44.621 77.9485 44.0718 78.6219 43.8009 78.9662C44.9212 79.3718 46.2759 79.4559 47.1399 80.3895C47.5646 81.2848 47.8722 82.2336 48.2163 83.1672C47.7623 85.1261 47.506 87.1309 47.5573 89.1434C46.9642 89.0898 45.7633 88.9827 45.1702 88.9291C45.4777 87.1615 45.7926 85.4015 46.0709 83.6339C45.0018 84.8429 43.9693 86.1055 43.1785 87.5364C42.5415 87.3758 41.2674 87.0467 40.6303 86.886C40.8134 86.4652 41.1795 85.6234 41.3625 85.2026C42.6879 84.3685 43.8595 83.3125 44.9286 82.1494C43.2664 82.5397 41.6188 83.06 39.9274 83.3278C39.7223 82.884 39.3196 82.0041 39.1146 81.5679C40.6669 81.1317 42.2193 80.6803 43.7204 80.0758C42.3291 79.609 40.8866 79.2111 39.4148 79.3565C38.7411 78.6219 38.0675 77.9026 37.3938 77.1756C38.0308 77.0456 39.2976 76.793 39.9347 76.663C41.1282 77.4282 42.5341 77.5735 43.8961 77.7189C43.0101 76.3339 41.6847 75.4233 40.3154 74.6428C40.7694 73.9312 41.2307 73.2272 41.6921 72.5156C41.963 72.7681 42.5048 73.2655 42.7758 73.518C43.6764 74.398 44.5844 75.2779 45.4997 76.1426C45.1922 74.5204 44.8553 72.8982 44.5039 71.2836Z" fill="#9F152C"/>
<path d="M36.8446 72.8008C38.3457 71.829 39.0853 74.1628 40.3154 74.6449C41.6847 75.4254 43.0101 76.336 43.8961 77.721C42.5341 77.5756 41.1282 77.4302 39.9347 76.665C39.7296 76.3819 39.3196 75.8157 39.1072 75.5325C38.1773 75.4254 37.2547 75.3336 36.3247 75.2417C36.4565 74.6296 36.7128 73.4129 36.8446 72.8008Z" fill="#DE354B"/>
<path d="M51.1819 76.934C51.9141 76.2377 52.639 75.5261 53.4225 74.8833C54.0083 75.2276 54.6014 75.572 55.1946 75.9163C55.3117 76.758 55.4801 77.5844 55.6266 78.4185C55.59 78.7552 55.5168 79.4286 55.4801 79.7653C56.5785 79.8877 57.6695 80.0178 58.7679 80.1402C58.7899 80.3698 58.8265 80.8365 58.8485 81.0661C58.4238 81.0049 57.589 80.8824 57.1716 80.8212C55.3483 80.4999 53.3274 80.4692 51.9141 79.046C52.8734 78.5639 53.8399 78.0895 54.8065 77.6227C53.5983 77.4008 52.3901 77.1712 51.1819 76.934Z" fill="#C2263F"/>
<path d="M46.2977 75.1807C46.6492 75.2801 47.3595 75.4867 47.711 75.5862C48.1869 76.9789 48.7288 78.3409 49.3146 79.68C50.0541 79.5423 50.7937 79.4122 51.5333 79.2745C51.3502 79.9861 51.1671 80.6901 50.9841 81.4017C50.2079 81.0421 49.4317 80.6748 48.6555 80.3151C48.7068 81.6542 48.7581 82.9857 48.8166 84.3248L48.2162 83.1693C47.872 82.2358 47.5645 81.2869 47.1398 80.3917C46.2758 79.4581 44.9211 79.3739 43.8008 78.9684C44.0717 78.6241 44.6209 77.9507 44.8991 77.614C45.5362 77.8206 46.1732 78.0272 46.8176 78.2338C46.6419 77.2161 46.4661 76.1984 46.2977 75.1807Z" fill="#7C0516"/>
<path d="M55.1943 75.9149C55.4579 75.7924 55.9925 75.5399 56.2561 75.4175L56.5417 76.0067C57.0835 76.7719 56.981 79.0751 55.6264 78.417C55.4799 77.583 55.3115 76.7566 55.1943 75.9149Z" fill="#9E2028"/>
<path d="M34.9338 78.9448C36.391 79.3657 37.8994 79.6182 39.4152 79.358C40.887 79.2126 42.3295 79.6106 43.7207 80.0773C42.2196 80.6818 40.6673 81.1333 39.1149 81.5695C39.32 82.0056 39.7227 82.8856 39.9277 83.3294C41.6192 83.0616 43.2668 82.5413 44.9289 82.151C43.8599 83.3141 42.6883 84.3701 41.3629 85.2042C39.8032 85.7092 38.595 86.8111 37.7164 88.2267C36.8084 87.6145 36.391 86.5968 36.0835 85.5485C37.2843 85.4031 38.4999 85.2654 39.6861 85.0052C39.503 84.6915 39.1296 84.0717 38.9465 83.7579C38.6243 83.7962 37.9726 83.8651 37.6431 83.9033C37.6578 83.5666 37.6944 82.8856 37.709 82.5489C38.3754 82.0056 38.8294 81.3169 39.0783 80.4752C37.8262 80.7966 36.6253 81.271 35.4757 81.8602C35.2414 80.8961 35.0656 79.9243 34.9338 78.9448Z" fill="#E0203C"/>
<path d="M58.7681 80.1396C59.1781 78.7928 61.6531 78.6322 61.2064 80.4839C61.6018 82.2898 59.3246 82.6035 58.8486 81.0655C58.8266 80.8359 58.79 80.3692 58.7681 80.1396Z" fill="#E82F54"/>
<path d="M312.175 82.2887C313.903 81.0873 316.509 83.008 316.217 85.1046C316.59 87.8823 312.387 89.1372 311.069 86.8416C309.985 85.426 310.454 82.8856 312.175 82.2887Z" fill="#F3515B"/>
<path d="M265.509 83.8272C267.845 82.1744 271.315 84.4317 270.788 87.4237C270.825 90.9971 265.963 91.9001 264.22 89.1683C263.641 87.3548 263.62 84.8067 265.509 83.8272Z" fill="#F2535D"/>
<path d="M55.3411 85.4099C55.4802 85.3258 55.7731 85.1574 55.9195 85.0732C57.2522 85.2339 58.5556 85.563 59.8663 85.8461C59.4636 86.8791 58.929 87.8509 58.3066 88.7692C57.384 87.5831 56.4101 86.4429 55.3411 85.4099Z" fill="#D83A45"/>
<path d="M286.532 98.2435C287.448 97.7538 288.356 97.7614 289.264 98.2664C288.949 99.3301 288.517 100.355 288.121 101.396C289.227 101.404 290.318 101.419 291.431 101.434C290.984 102.399 290.56 103.378 290.157 104.365C291.05 104.013 291.812 103.401 292.537 102.766C293.32 103.493 294.096 104.227 294.909 104.931C294.126 105.949 293.357 106.982 292.573 108C293.708 107.388 294.858 106.814 296.022 106.255C296.213 107.426 296.41 108.604 296.608 109.783C295.187 109.721 293.738 109.783 292.441 110.464C293.408 111.061 294.711 112.706 295.085 110.51C295.429 110.716 296.125 111.122 296.469 111.321L296.886 111.573C296.879 112.201 296.864 113.448 296.857 114.068C297.15 113.991 297.743 113.823 298.036 113.746C297.985 114.251 297.875 115.269 297.823 115.774C296.813 115.101 295.817 114.397 294.873 113.632C293.767 113.203 292.61 112.92 291.475 112.629C292.39 113.938 293.43 115.147 294.565 116.264C294.228 116.876 293.891 117.488 293.562 118.1C293.086 117.909 292.141 117.511 291.673 117.312C291.907 118.116 292.149 118.919 292.383 119.723H291.929C291.475 119.738 290.582 119.769 290.135 119.791C290.296 120.702 290.472 121.613 290.655 122.523C290.435 122.531 289.988 122.539 289.769 122.546C289.622 121.483 289.454 120.427 289.271 119.378C289.051 118.139 288.766 116.914 288.48 115.69C287.916 116.448 287.352 117.205 286.796 117.97C287.052 118.437 287.579 119.371 287.836 119.837L288.07 120.258L287.528 120.358C286.825 120.442 285.419 120.618 284.716 120.702L284.812 119.049C284.863 118.047 284.921 117.044 284.98 116.05C284.314 116.976 283.655 117.917 283.003 118.858C282.578 118.682 281.729 118.338 281.304 118.162C281.084 118.85 280.74 119.424 280.264 119.891C279.825 119.394 279.4 118.881 278.99 118.361C279.451 118.353 280.381 118.338 280.85 118.33C280.887 117.825 280.953 116.823 280.989 116.317C281.948 115.614 282.886 114.894 283.808 114.137C282.388 114.137 280.997 114.397 279.832 115.292C278.661 114.343 278.69 112.843 278.646 111.451C277.379 111.856 276.12 112.27 274.853 112.66C274.948 111.734 275.051 110.808 275.168 109.89C275.995 110.295 276.845 110.647 277.723 110.93C279.949 111.757 277.943 108.459 277.745 107.64C278.295 107.655 279.386 107.686 279.935 107.701C279.422 105.911 277.357 106.278 276.01 105.88C276.42 104.962 276.947 104.097 277.738 103.493C278.404 104.411 278.836 105.62 279.854 106.194C280.374 105.452 280.198 103.661 281.399 103.768C281.926 103.776 282.988 103.799 283.523 103.806C282.695 102.498 280.777 101.641 280.806 99.8963C281.377 99.7203 282.512 99.376 283.083 99.2C283.032 99.9805 282.937 101.549 282.893 102.337C283.867 101.962 284.848 101.618 285.844 101.297C286.357 102.123 286.862 102.957 287.352 103.806C287.418 102.697 287.484 101.587 287.543 100.478C287.177 99.7433 286.84 99.001 286.532 98.2435ZM287.257 108.275C286.818 109.369 286.393 110.471 285.976 111.573C285.551 111.765 284.709 112.147 284.292 112.346C284.585 112.935 284.892 113.517 285.222 114.098C285.859 113.578 286.217 112.813 286.664 112.124C287.426 111.841 288.187 111.543 288.941 111.237C289.051 109.913 288.063 109.079 287.257 108.275Z" fill="#A2142D"/>
<path d="M32.6637 100.768C33.6303 100.385 35.1753 100.623 35.1167 101.992C35.7172 103.569 33.8207 105.229 32.5173 104.043C31.1114 103.446 31.2944 101.281 32.6637 100.768Z" fill="#F25160"/>
<path d="M47.851 104.289C50.531 102.644 54.4485 104.717 54.1043 108.122C54.28 111.459 50.0038 113.441 47.6386 111.313C45.3247 109.66 45.6616 105.88 47.851 104.289Z" fill="#9D1A2E"/>
<path d="M287.257 108.276C288.062 109.08 289.051 109.914 288.941 111.238C288.187 111.544 287.425 111.842 286.664 112.125C286.217 112.814 285.858 113.579 285.221 114.1C284.892 113.518 284.584 112.936 284.291 112.347C284.709 112.148 285.551 111.766 285.975 111.574C286.393 110.472 286.817 109.371 287.257 108.276Z" fill="#75030F"/>
<path d="M291.474 112.629C292.609 112.92 293.766 113.203 294.872 113.631C294.022 116.287 297.786 116.86 299.58 116.983C299.207 117.993 298.738 118.965 297.874 119.615C297.061 118.62 296.483 117.297 295.318 116.7C294.923 117.052 294.125 117.763 293.729 118.115C294.293 118.36 295.428 118.85 295.999 119.095C295.421 119.531 294.842 119.967 294.271 120.403C294.066 119.883 293.656 118.827 293.451 118.307L293.561 118.1C293.891 117.488 294.227 116.876 294.564 116.264C293.429 115.146 292.389 113.937 291.474 112.629Z" fill="#D12030"/>
<path d="M279.831 115.292C280.996 114.397 282.387 114.137 283.807 114.137C282.885 114.894 281.947 115.614 280.988 116.318C279.487 117.159 278.154 118.253 276.976 119.539C276.602 118.552 276.229 117.572 275.87 116.585C277.261 116.425 278.682 116.203 279.831 115.292Z" fill="#DD3449"/>
<path d="M286.796 117.97C287.352 117.205 287.916 116.447 288.48 115.69C288.765 116.914 289.051 118.139 289.271 119.378C288.912 119.493 288.194 119.723 287.835 119.837C287.579 119.371 287.052 118.437 286.796 117.97Z" fill="#CB233F"/>
<path d="M283.002 118.859C283.654 117.917 284.313 116.976 284.979 116.05C284.921 117.045 284.862 118.047 284.811 119.05C283.178 119.937 282.98 121.812 282.651 123.496C281.413 124.062 280.659 122.975 279.875 122.202C281.062 121.246 282.189 120.19 283.002 118.859Z" fill="#DE3749"/>
<path d="M16.8401 119.685C17.6163 119.578 18.3998 119.478 19.176 119.371C18.905 120.435 18.6268 121.498 18.3559 122.562C19.0735 122.417 20.5086 122.133 21.2262 121.996C20.7576 123.419 20.3915 124.888 20.245 126.396C21.3873 124.865 22.6029 123.212 22.5809 121.177L22.7932 121.223C23.3497 121.322 24.4627 121.529 25.0192 121.628C24.2065 122.218 23.401 122.807 22.5955 123.404C23.0935 124.2 23.5914 125.003 24.0893 125.806C23.7305 126.074 23.0129 126.61 22.6614 126.878C21.9658 127.352 21.2555 127.811 20.5453 128.247C19.1394 127.796 17.7261 127.398 16.3056 127.015C16.7083 129.487 17.1257 131.966 17.5431 134.438C17.8945 134.507 18.5975 134.644 18.949 134.713C19.0515 134.27 19.2712 133.39 19.381 132.946C20.1206 132.839 20.8674 132.724 21.607 132.601C20.5745 133.833 20.018 135.364 19.608 136.925C20.2011 137.323 21.3873 138.118 21.9731 138.516C21.5045 138.639 20.5526 138.884 20.0766 139.006C20.1865 139.871 20.289 140.735 20.4061 141.608C20.2084 141.631 19.813 141.669 19.6153 141.692C19.4762 140.973 19.1979 139.542 19.0661 138.822C18.7439 137.904 18.3705 137.009 18.0117 136.114C17.7847 137.139 17.5797 138.172 17.3747 139.205L17.3014 139.549L15.7418 139.741C15.588 138.272 15.4635 136.802 15.3463 135.333C14.7532 136.305 14.1528 137.269 13.5231 138.226C13.0398 138.011 12.0659 137.59 11.5753 137.384C11.5167 137.942 11.3849 139.052 11.3263 139.611C11.0408 138.937 10.7332 138.287 10.411 137.636C10.682 137.56 11.2092 137.399 11.4728 137.323L11.8975 136.022C12.7615 135.31 13.6109 134.591 14.4457 133.849C12.9959 134.009 11.5753 134.361 10.3671 135.264C10.3744 134.224 10.3671 133.191 10.3671 132.165C11.0774 132.219 11.7877 132.28 12.4979 132.341C12.7103 132.05 13.135 131.461 13.3473 131.17C12.3149 130.956 11.2824 130.75 10.2499 130.535L9.04175 129.564C9.5177 129.326 10.4696 128.844 10.9456 128.607C12.0659 128.928 13.2009 129.204 14.3359 129.464C13.4498 128.393 12.5712 127.299 11.524 126.388L10.8797 125.806C11.2531 125.562 11.9927 125.072 12.3661 124.819C12.9153 125.141 14.0063 125.776 14.5555 126.09C14.2553 125.271 13.9551 124.452 13.6475 123.641C14.3798 123.297 15.112 122.952 15.8369 122.608C16.5472 123.97 17.2721 125.332 18.0337 126.663C18.063 124.613 18.3339 122.401 17.3234 120.527L16.8401 119.685Z" fill="#9C112A"/>
<path d="M11.5976 123.273C10.7849 121.697 11.8173 119.845 13.5967 120.602C13.7578 121.038 14.0873 121.918 14.2557 122.355C15.2662 121.735 16.2913 121.123 17.3238 120.526C18.3343 122.401 18.0633 124.612 18.034 126.663C17.2725 125.331 16.5476 123.969 15.8373 122.607C15.1124 122.951 14.3802 123.296 13.6479 123.64C13.9555 124.451 14.2557 125.27 14.5559 126.089C14.0067 125.775 12.9157 125.14 12.3665 124.819C11.9931 125.071 11.2535 125.561 10.8801 125.806C10.7995 125.423 10.6457 124.643 10.5725 124.26C10.8288 124.007 11.3414 123.518 11.5976 123.273Z" fill="#E55D6E"/>
<path d="M293.591 127.075C296.93 124.251 301.045 121.887 305.482 122.308C311.165 121.902 316.385 125.338 319.798 129.837C323.085 135.201 323.415 142.631 320.362 148.187C316.532 156.52 305.417 159.749 297.874 155.066C293.474 153.176 289.644 148.868 289.717 143.664C289.988 141.759 290.025 139.739 288.787 138.178C289.468 134.145 291.006 130.174 293.591 127.075Z" fill="#F59797"/>
<path d="M7.0498 126.165C7.69418 125.438 8.36784 124.749 9.09276 124.122C9.31243 124.596 9.73713 125.537 9.94948 126.012C10.3449 126.103 11.1284 126.295 11.5238 126.387C12.5709 127.297 13.4496 128.391 14.3356 129.463C13.2006 129.202 12.0657 128.927 10.9453 128.606C10.1618 127.037 8.52893 126.631 7.0498 126.165Z" fill="#DE3950"/>
<path d="M24.9016 126.808C25.6558 126.096 26.432 125.392 27.3034 124.841C28.2187 125.017 28.3505 126.326 28.9143 126.969C27.7281 127.29 26.5418 127.619 25.3483 127.894C25.2384 127.627 25.0188 127.076 24.9016 126.808Z" fill="#E52841"/>
<path d="M7.0498 126.165C8.52893 126.631 10.1618 127.037 10.9453 128.606C10.4694 128.843 9.51746 129.325 9.0415 129.562C7.42325 130.327 8.46303 128.215 8.60948 127.435C8.21407 127.113 7.43789 126.478 7.0498 126.165Z" fill="#EA6571"/>
<path d="M16.3052 127.014C17.7257 127.397 19.1389 127.795 20.5448 128.246C20.9183 129.975 21.775 131.468 23.3127 132.317C22.7416 132.401 22.1777 132.501 21.6066 132.6C20.867 132.723 20.1201 132.837 19.3806 132.944C19.2707 133.388 19.0511 134.268 18.9486 134.712C18.5971 134.643 17.8941 134.505 17.5427 134.437C17.1253 131.965 16.7079 129.486 16.3052 127.014Z" fill="#890623"/>
<path d="M20.5449 128.248C21.2552 127.811 21.9655 127.352 22.6611 126.878C22.8369 127.276 23.203 128.056 23.386 128.454C23.2762 128.676 23.0712 129.12 22.9613 129.342C23.9572 129.464 24.953 129.594 25.9489 129.747L26.0075 129.87C25.6633 130.153 24.9823 130.712 24.6455 130.987L24.5137 131.607C24.3526 132.571 24.7846 133.122 25.8024 133.252C26.4614 133.872 26.9228 134.668 27.3694 135.456C26.2344 134.79 25.0409 134.27 23.7814 133.933C23.8913 134.3 24.1183 135.05 24.2354 135.418C23.5911 135.333 22.9467 135.249 22.3023 135.165C22.3389 135.655 22.3755 136.152 22.4195 136.642C22.3096 137.116 22.09 138.05 21.9728 138.517C21.387 138.119 20.2008 137.323 19.6077 136.925C20.0177 135.364 20.5742 133.834 21.6067 132.602C22.1778 132.502 22.7417 132.403 23.3128 132.318C21.7751 131.469 20.9184 129.977 20.5449 128.248Z" fill="#C5133E"/>
<path d="M23.3866 128.453C23.7674 128.04 24.5216 127.213 24.9023 126.808C25.0195 127.075 25.2392 127.626 25.349 127.894C25.5028 128.361 25.803 129.287 25.9495 129.746C24.9536 129.593 23.9578 129.463 22.9619 129.34C23.0718 129.119 23.2768 128.675 23.3866 128.453Z" fill="#9F0D1B"/>
<path d="M24.6455 130.986C24.9823 130.71 25.6633 130.152 26.0075 129.869C26.0807 130.144 26.2345 130.703 26.315 130.978C25.8976 130.978 25.0629 130.986 24.6455 130.986Z" fill="#FD97A0"/>
<path d="M28.2192 132.814C26.8646 131.773 27.9263 130.205 29.3542 130.679C29.3395 131.176 29.3029 132.163 29.281 132.661C29.0174 132.699 28.4828 132.776 28.2192 132.814Z" fill="#E2223A"/>
<path d="M24.5143 131.606C24.895 131.866 25.6639 132.394 26.052 132.654L25.803 133.251C24.7852 133.121 24.3532 132.57 24.5143 131.606Z" fill="#880811"/>
<path d="M17.374 139.203C17.5791 138.17 17.7841 137.137 18.0111 136.112C18.3699 137.007 18.7433 137.902 19.0655 138.821C18.4651 140.542 18.7873 142.371 18.8678 144.146C18.26 144.085 17.0372 143.963 16.4221 143.894C16.7736 142.463 17.0445 141.001 17.3008 139.548L17.374 139.203Z" fill="#E44256"/>
<path d="M24.338 137.972C25.2752 138.5 25.2533 139.012 24.2721 139.525C23.3348 138.997 23.3568 138.477 24.338 137.972Z" fill="#C95D60"/>
<path d="M282.431 141.712C281.999 138.185 286.195 136.325 288.787 138.177C290.024 139.738 289.988 141.758 289.717 143.664C287.674 146.541 282.533 145.538 282.431 141.712Z" fill="#9B1B2E"/>
<path d="M22.0019 141.752C21.4014 140.604 22.368 139.77 22.8586 138.898C23.459 139.923 24.0668 140.941 24.6745 141.966C23.8837 142.15 21.7383 143.726 22.0019 141.752Z" fill="#D53E50"/>
<path d="M49.0588 147.025C50.1499 145.808 51.8047 146.091 53.2253 146.053C53.0203 147.438 53.6207 149.389 52.1269 150.17C50.3915 152.052 47.7481 148.869 49.0588 147.025Z" fill="#860B1D"/>
<path d="M277.188 150.498C278.572 149.182 280.82 150.008 281.479 151.722C282.556 153.964 279.766 156.642 277.693 155.433C275.87 154.622 275.511 151.661 277.188 150.498Z" fill="#F24F59"/>
<path d="M289.629 158.326C288.121 157.147 290.149 154.538 291.577 155.418C293.224 155.77 292.58 157.668 292.617 158.907C291.613 158.8 290.288 159.42 289.629 158.326Z" fill="#FF4E5C"/>
</svg>
