<svg width="260" height="47" viewBox="0 0 260 47" fill="none" xmlns="http://www.w3.org/2000/svg">
<path d="M249.725 0H10.2754C4.60046 0 0 4.47715 0 10V36.479C0 42.0018 4.60046 46.479 10.2754 46.479H249.725C255.4 46.479 260 42.0018 260 36.479V10C260 4.47715 255.4 0 249.725 0Z" fill="#3B5998"/>
<path d="M137.078 9.35799L133.378 9.35199C129.221 9.35199 126.534 12.035 126.534 16.187V19.338H122.813C122.736 19.338 122.661 19.3527 122.59 19.3812C122.519 19.4097 122.455 19.4515 122.401 19.5041C122.347 19.5568 122.304 19.6193 122.275 19.6881C122.246 19.7569 122.231 19.8306 122.231 19.905V24.471C122.231 24.6211 122.292 24.7651 122.402 24.8712C122.511 24.9774 122.659 25.037 122.813 25.037H126.534V36.552C126.534 36.7021 126.595 36.8461 126.704 36.9522C126.813 37.0584 126.961 37.118 127.115 37.118H131.969C132.123 37.118 132.271 37.0584 132.38 36.9522C132.49 36.8461 132.551 36.7021 132.551 36.552V25.036H136.901C137.056 25.036 137.204 24.9764 137.313 24.8702C137.422 24.7641 137.483 24.6201 137.483 24.47V19.904C137.483 19.7536 137.422 19.6094 137.312 19.5031C137.203 19.3967 137.055 19.337 136.9 19.337H132.552V16.666C132.552 15.382 132.866 14.73 134.584 14.73H137.077C137.231 14.73 137.379 14.6704 137.488 14.5642C137.597 14.4581 137.659 14.3141 137.659 14.164V9.92399C137.659 9.77405 137.598 9.63024 137.489 9.52412C137.38 9.418 137.232 9.35825 137.078 9.35799Z" fill="white"/>
</svg>
