<svg width="259" height="50" viewBox="0 0 259 50" fill="none" xmlns="http://www.w3.org/2000/svg">
<path d="M10.2624 0H248.765C251.48 0 254.083 1.13338 256.002 3.15081C257.922 5.16824 259 7.90447 259 10.7575V39.2425C259 42.0955 257.922 44.8318 256.002 46.8492C254.083 48.8666 251.48 50 248.765 50H10.2624C7.54795 50 4.94469 48.8666 3.02529 46.8492C1.10589 44.8318 0.0275879 42.0955 0.0275879 39.2425L0.0275879 10.7575C0.0275879 7.90447 1.10589 5.16824 3.02529 3.15081C4.94469 1.13338 7.54795 0 10.2624 0V0Z" fill="#FF3D58"/>
<path d="M144.69 19.7842H136.688C136.67 19.7819 136.652 19.784 136.635 19.7902C136.618 19.7965 136.602 19.8067 136.589 19.8202C136.576 19.8336 136.567 19.85 136.561 19.868C136.555 19.8859 136.553 19.9051 136.555 19.924C136.339 23.7242 135.713 27.4863 134.688 31.1377V31.2775C134.706 31.2951 134.727 31.3083 134.75 31.3163C134.773 31.3243 134.797 31.3268 134.821 31.3238H137.578C137.622 31.3238 137.711 31.2775 137.711 31.2302C138.524 28.3669 139.06 25.4245 139.31 22.4477H141.933V31.185C141.931 31.2039 141.933 31.2231 141.939 31.2411C141.945 31.2591 141.955 31.2754 141.968 31.2889C141.98 31.3024 141.996 31.3126 142.013 31.3188C142.03 31.3251 142.049 31.3271 142.067 31.3249H144.69C144.708 31.3271 144.726 31.3251 144.743 31.3188C144.76 31.3126 144.776 31.3024 144.788 31.2889C144.801 31.2754 144.811 31.2591 144.817 31.2411C144.823 31.2231 144.825 31.2039 144.823 31.185V19.9714C144.823 19.8778 144.779 19.7842 144.69 19.7842ZM178.52 19.7842H175.897C175.879 19.7819 175.86 19.784 175.843 19.7902C175.826 19.7965 175.811 19.8067 175.798 19.8202C175.785 19.8336 175.775 19.85 175.769 19.868C175.763 19.8859 175.761 19.9051 175.764 19.924V28.615C175.186 28.7873 174.586 28.866 173.986 28.8485C172.252 28.8485 171.852 28.288 171.852 25.8579V19.9714C171.854 19.9525 171.852 19.9333 171.846 19.9153C171.84 19.8973 171.83 19.881 171.818 19.8675C171.805 19.854 171.789 19.8438 171.772 19.8376C171.755 19.8313 171.737 19.8293 171.719 19.8315H169.096C169.078 19.8293 169.059 19.8313 169.042 19.8376C169.025 19.8438 169.01 19.854 168.997 19.8675C168.984 19.881 168.974 19.8973 168.968 19.9153C168.962 19.9333 168.96 19.9525 168.963 19.9714V26.2323C168.963 30.1577 170.207 31.6992 173.453 31.6992C175.197 31.6604 176.925 31.3292 178.57 30.7181C178.614 30.7181 178.659 30.6246 178.659 30.5783V19.9714C178.659 19.8778 178.615 19.7842 178.526 19.7842H178.52ZM123.173 19.8304H120.506C120.417 19.8304 120.373 19.8767 120.373 19.924C119.732 22.5306 118.93 25.0902 117.972 27.5866L115.305 19.8778C115.305 19.8315 115.215 19.7842 115.171 19.7842H112.504C112.46 19.7842 112.415 19.8304 112.371 19.8304C112.361 19.8388 112.353 19.8494 112.348 19.8615C112.342 19.8736 112.339 19.8869 112.339 19.9004C112.339 19.9138 112.342 19.9271 112.348 19.9392C112.353 19.9513 112.361 19.9619 112.371 19.9703L116.372 31.4658C115.972 32.3533 115.572 33.1009 115.217 33.8023C114.949 34.3165 114.683 34.8308 114.416 35.3912C114.372 35.4375 114.416 35.4848 114.416 35.5311C114.416 35.5773 114.505 35.6247 114.549 35.6247H117.438C117.482 35.6247 117.528 35.5784 117.572 35.5311C118.061 34.55 118.683 33.1483 119.261 31.7466C120.826 27.9184 122.193 24.0041 123.355 20.0208C123.359 19.9953 123.357 19.9692 123.35 19.9447C123.342 19.9201 123.329 19.8978 123.312 19.8795C123.294 19.8613 123.273 19.8476 123.25 19.8396C123.226 19.8316 123.201 19.8296 123.177 19.8337L123.173 19.8304ZM132.696 28.6645C132.693 28.6407 132.682 28.6186 132.666 28.6016C132.65 28.5847 132.629 28.5739 132.606 28.5709H132.473C131.61 28.8587 130.712 29.0159 129.806 29.0378C127.983 29.0378 127.139 28.5236 127.139 25.5803C127.139 23.2438 127.406 22.1229 129.806 22.1229C130.532 22.1209 131.254 22.2471 131.94 22.4962C132.029 22.4962 132.073 22.4962 132.118 22.4026C132.425 21.7948 132.786 21.0944 133.185 20.1596V20.0176C133.182 19.9925 133.17 19.9693 133.152 19.9522C133.135 19.935 133.112 19.9251 133.088 19.924C131.965 19.5521 130.796 19.3631 129.619 19.3636C125.796 19.3636 124.106 21.2321 124.106 25.4846C124.106 29.7371 125.796 31.6992 129.619 31.6992C130.885 31.6833 132.143 31.4779 133.354 31.0893C133.443 31.043 133.443 30.9957 133.443 30.9021L132.696 28.6645ZM157.537 19.8304H154.87C154.826 19.8304 154.737 19.8767 154.737 19.924C154.097 22.5306 153.295 25.0902 152.336 27.5866L149.668 19.8778C149.668 19.8315 149.579 19.7842 149.535 19.7842H146.868C146.824 19.7842 146.779 19.8304 146.735 19.8304C146.725 19.8388 146.716 19.8494 146.711 19.8615C146.705 19.8736 146.702 19.8869 146.702 19.9004C146.702 19.9138 146.705 19.9271 146.711 19.9392C146.716 19.9513 146.725 19.9619 146.735 19.9703L150.735 31.4647C150.335 32.3522 149.935 33.0536 149.58 33.8013C149.313 34.3155 149.047 34.8297 148.78 35.3902C148.736 35.4364 148.78 35.4837 148.78 35.53C148.78 35.5763 148.869 35.6236 148.913 35.6236H151.802C151.846 35.6236 151.891 35.5773 151.935 35.53C152.424 34.5489 153.046 33.1472 153.625 31.7455C155.194 27.9251 156.545 24.0096 157.67 20.0198C157.673 19.9945 157.671 19.9689 157.663 19.9447C157.656 19.9205 157.643 19.8984 157.626 19.8799C157.626 19.8337 157.582 19.8337 157.537 19.8337V19.8304ZM167.318 19.7874H159.582C159.564 19.7852 159.546 19.7872 159.529 19.7935C159.512 19.7997 159.496 19.8099 159.484 19.8234C159.471 19.8369 159.461 19.8532 159.455 19.8712C159.449 19.8892 159.447 19.9083 159.449 19.9273V31.185C159.447 31.2039 159.449 31.2231 159.455 31.2411C159.461 31.2591 159.471 31.2754 159.484 31.2889C159.496 31.3024 159.512 31.3126 159.529 31.3188C159.546 31.3251 159.564 31.3271 159.582 31.3249H162.206C162.224 31.3271 162.242 31.3251 162.259 31.3188C162.276 31.3126 162.292 31.3024 162.304 31.2889C162.317 31.2754 162.327 31.2591 162.333 31.2411C162.339 31.2231 162.341 31.2039 162.339 31.185V22.494H166.384C166.428 22.494 166.517 22.4477 166.517 22.4004C166.825 21.6528 167.14 20.8115 167.451 20.0176V19.8778C167.407 19.8315 167.362 19.7842 167.318 19.7842" fill="white"/>
<path d="M94.7661 29.1302C93.0323 29.1302 92.4991 28.616 92.4991 25.5802C92.4991 22.3099 93.0773 22.0302 94.7661 22.0302C96.4548 22.0302 97.0781 22.311 97.0781 25.5802C97.0781 28.6644 96.4999 29.1302 94.7661 29.1302ZM94.7661 19.4581C90.9853 19.457 89.5207 21.1395 89.5207 25.5318C89.5207 29.9241 90.9874 31.6991 94.7661 31.6991C98.5448 31.6991 100.056 29.9703 100.056 25.5318C100.056 21.1868 98.5448 19.457 94.7661 19.457V19.4581ZM110.459 28.6622C110.456 28.6384 110.446 28.6163 110.43 28.5993C110.414 28.5824 110.393 28.5716 110.37 28.5686H110.237C109.374 28.8564 108.475 29.0136 107.57 29.0355C105.747 29.0355 104.903 28.5213 104.903 25.578C104.903 23.2415 105.17 22.1206 107.57 22.1206C108.296 22.1186 109.017 22.2448 109.704 22.4938C109.739 22.4987 109.775 22.4923 109.806 22.4757C109.838 22.459 109.864 22.4327 109.882 22.4003C110.189 21.7925 110.549 21.0921 110.948 20.1573V20.0185C110.946 19.9947 110.935 19.9726 110.919 19.9556C110.903 19.9387 110.882 19.9279 110.859 19.9249C109.746 19.5875 108.594 19.4144 107.436 19.4107C103.613 19.4107 101.923 21.2793 101.923 25.5318C101.923 29.7842 103.613 31.7464 107.436 31.7464C108.702 31.7305 109.959 31.5251 111.17 31.1365C111.259 31.0902 111.259 31.0429 111.259 30.9493L110.459 28.6622ZM88.7204 19.784H80.9849C80.8959 19.784 80.8529 19.8776 80.8529 19.9712V31.2322C80.8507 31.2511 80.8527 31.2703 80.8586 31.2883C80.8646 31.3063 80.8743 31.3226 80.8871 31.3361C80.8999 31.3495 80.9155 31.3598 80.9326 31.366C80.9497 31.3722 80.968 31.3743 80.9859 31.3721H83.6081C83.6261 31.3743 83.6443 31.3722 83.6614 31.366C83.6786 31.3598 83.6941 31.3495 83.7069 31.3361C83.7197 31.3226 83.7295 31.3063 83.7354 31.2883C83.7413 31.2703 83.7433 31.2511 83.7412 31.2322V22.4949H87.787C87.831 22.4949 87.876 22.4487 87.92 22.4013C88.2271 21.6537 88.5423 20.8124 88.8534 20.0185V19.8776C88.8094 19.8314 88.7644 19.784 88.7204 19.784Z" fill="white"/>
</svg>
