<svg width="74" height="111" viewBox="0 0 74 111" fill="none" xmlns="http://www.w3.org/2000/svg">
<path d="M0 49C0 41.8203 5.8203 36 13 36H61C68.1797 36 74 41.8203 74 49V97.3346C74 104.514 68.1797 110.335 61 110.335H13C5.8203 110.335 0 104.514 0 97.3346V49Z" fill="#E9E8E6"/>
<path d="M38.0586 72.9961C38.3409 72.8454 39.7429 72.2623 41.4906 71.5501C46.4722 69.5202 53.4852 70.894 53.8535 76.2607C54.2789 82.4552 45.6696 84.3248 40.5329 80.8365C38.1199 79.1979 36.0785 77.7612 35.594 77.2745C34.2497 75.922 34.4737 74.9103 38.0586 72.9961Z" fill="#C5E1A5"/>
<path d="M0 62.3931C0 64.7995 1.59254 66.8953 3.84274 67.7481C21.7884 74.5492 53.4637 95.9369 67.3232 105.408C70.2783 107.427 74 105.421 74 101.842C74 100.251 73.1833 98.7708 71.8338 97.9283C49.5873 84.0394 36.8401 77.7301 36.7246 75.7694C36.5543 72.8728 65.2199 66.5744 72.5145 62.9743C73.5534 62.4615 74 61.3573 74 60.1987C74 56.7728 70.5327 54.42 67.3259 55.6257C57.9594 59.1474 41.4324 64.8909 34.1531 64.5242C28.5973 64.2443 15.5525 60.0869 7.2312 57.2583C3.70164 56.0585 0 58.6652 0 62.3931Z" fill="#64B5F6"/>
<path d="M0 75.6838C0 73.4738 2.25779 71.9959 4.26975 72.9103C9.75621 75.4037 19.1688 79.8355 24.1816 83.0807C32.7847 88.6507 44.1255 96.5557 52.3077 102.44C56.3504 105.348 54.6456 110.335 49.6659 110.335C48.1604 110.335 46.721 109.741 45.648 108.685C41.292 104.398 29.7151 93.1729 26.9566 92.1908C23.5402 90.9726 19.3304 88.7343 16.9069 87.1836C14.4834 85.6349 11.803 82.7627 9.96122 81.7675C8.53388 80.9936 4.51758 79.4906 2.0425 78.59C0.81907 78.1448 0 76.9857 0 75.6838Z" fill="#C5E1A5"/>
<path d="M34.8848 99.011C33.0204 97.9496 31.413 97.0349 30.0419 96.3246C28.8682 95.7175 27.2957 94.9453 25.6184 94.1214C21.7437 92.2176 16.9234 89.8492 15.947 88.9448C14.5993 87.6873 7.04075 93.983 0.168149 100.237C0.0608731 100.335 0 100.473 0 100.618C0 101.066 0.532607 101.301 0.865079 101.001C5.54452 96.7742 10.324 92.7866 13.0648 90.8774C14.3994 89.9477 15.9278 90.2692 17.3456 91.0663C19.3189 92.1758 22.2753 93.6282 25.1662 95.0485C26.8353 95.8683 28.4016 96.6384 29.5692 97.2414C30.9217 97.9414 32.5251 98.854 34.3771 99.9092C35.5543 100.58 36.8325 101.305 38.1981 102.062C39.6486 102.866 39.9943 104.807 38.8839 106.039C37.9236 107.105 36.8477 108.293 35.7775 109.473C35.4771 109.804 35.7121 110.335 36.1593 110.335C36.3046 110.335 36.4431 110.273 36.5408 110.166C37.1723 109.47 37.8058 108.771 38.4163 108.096C40.5257 105.763 43.9435 105.16 46.7804 106.517C49.5415 107.838 52.5071 109.132 55.6457 110.303C55.7015 110.324 55.7607 110.335 55.8203 110.335C56.3875 110.335 56.5272 109.508 55.9956 109.31C47.458 106.133 40.1895 102.03 34.8848 99.011ZM6.5083 46.4956C6.64761 46.744 6.96219 46.8322 7.21031 46.6922L21.3379 38.7255C23.314 37.6111 25.8005 38.0329 27.2986 39.7366L29.6774 42.442C30.7135 43.6203 30.2673 45.4696 28.8079 46.0457L27.1841 46.6867C26.9197 46.7911 26.7897 47.0897 26.8934 47.3544C26.9974 47.62 27.2974 47.7506 27.5628 47.6458L46.4872 40.1718C49.8101 38.8594 53.5864 40.2842 55.2143 43.4644C55.3027 43.6399 55.4815 43.7453 55.6706 43.7453C55.7117 43.7453 55.7549 43.7411 55.796 43.7308L66.1034 41.1414C67.2364 40.8568 68.387 41.5388 68.6811 42.6694L69.089 44.2376C69.1606 44.5128 69.4422 44.6774 69.7171 44.6048C69.9905 44.5325 70.1541 44.2528 70.0829 43.9791L68.1081 36.3848C68.0492 36.1582 67.8446 36 67.6105 36C67.2739 36 67.0281 36.318 67.1128 36.6437L67.4755 38.0375C67.7032 38.9126 67.174 39.8055 66.2971 40.0259L58.2938 42.0371C56.917 42.3831 55.4837 41.7333 54.8366 40.4698L53.6228 38.0996C53.4523 37.7667 53.6059 37.3594 53.9537 37.2221L54.5294 36.9947C55.0584 36.7858 54.9088 36 54.3401 36C54.2753 36 54.2111 36.0122 54.1508 36.036L36.4908 43.0111C34.2905 43.8801 31.7814 43.2749 30.2194 41.4982L25.7424 36.4059C25.6923 36.3489 25.7074 36.2603 25.7736 36.2232C25.8806 36.1631 25.838 36 25.7152 36H24.0338C24.0263 36 24.0221 36.0087 24.0269 36.0145C24.0304 36.0188 24.0292 36.0252 24.0244 36.0279L6.70449 45.7953C6.45723 45.9347 6.36947 46.248 6.5083 46.4956ZM16.7737 50.3885C16.6634 50.1265 16.3626 50.0011 16.0999 50.1096C15.8381 50.2178 15.713 50.5172 15.8226 50.7784C16.5665 52.5507 18.2871 56.428 19.2976 56.9355C19.8269 57.2009 21.7468 57.3776 23.7254 57.4922C26.6391 57.661 28.6911 59.9791 31.043 61.7074C31.8364 62.2917 33.1417 62.5023 34.6114 62.5023C38.1367 62.5023 42.6178 61.2923 43.3044 61.1003C43.3109 61.0987 43.3148 61.0919 43.3193 61.0881C43.321 61.0866 43.3234 61.0878 43.3239 61.09C43.3245 61.0922 43.3268 61.0935 43.329 61.0928L61.6543 55.071C61.8866 54.9946 62.0346 54.7633 62.0038 54.5176L61.3809 49.3507C61.3469 49.0685 61.0901 48.8675 60.808 48.9024C60.527 48.9371 60.3271 49.1926 60.361 49.4736L60.6472 51.8503C60.8133 53.2296 59.9829 54.5344 58.6631 54.9681L49.0227 58.1356C46.1914 59.0659 43.2083 57.2074 42.7953 54.256L42.2039 50.0294C42.1646 49.7484 41.9049 49.5525 41.6239 49.5919C41.343 49.6312 41.1471 49.8909 41.1864 50.1718L41.3491 51.335C41.4893 52.3371 40.7226 53.2366 39.7109 53.2569L29.9199 53.4534C28.8622 53.4746 27.9148 52.7922 27.6334 51.7724C27.4476 51.0993 27.2899 50.4863 27.1666 49.9769C27.1 49.7013 26.8248 49.5286 26.5485 49.5919C26.2721 49.6552 26.0992 49.9289 26.1663 50.2043C26.2878 50.7033 26.4971 51.5314 26.7783 52.525C27.3403 54.5111 25.8551 56.5764 23.7944 56.4578C21.7222 56.3385 20.094 56.1802 19.7559 56.0105C19.2525 55.7459 17.8627 52.9752 16.7737 50.3885ZM38.7465 54.3115C40.465 54.2771 41.9381 55.5325 42.1765 57.2348C42.4152 58.9398 41.3416 60.5634 39.6507 60.8875C36.6622 61.4603 32.9825 61.8599 31.6514 60.8773C28.7703 58.756 32.0712 54.4452 35.6483 54.3736L38.7465 54.3115ZM74 90.0037C74 89.8047 73.8854 89.6235 73.7055 89.5383L57.5047 81.8603C56.4959 81.3822 55.9361 80.4717 56.197 79.3862C56.4639 78.2754 57.466 77.169 58.6084 77.169H59.84C61.1675 77.169 62.3253 77.9847 63.35 78.8286C63.965 79.3351 64.7885 79.769 65.8559 79.876C67.0679 79.9983 70.9445 80.409 73.4299 80.6741C73.7351 80.7067 74 80.4674 74 80.1605C74 79.8966 73.8012 79.6752 73.5387 79.6472C71.0504 79.382 67.1696 78.9699 65.9566 78.8477C65.8776 78.8398 65.8002 78.8295 65.7244 78.8171C63.4787 78.4488 63.4106 74.6099 65.6812 74.4558C66.8585 74.3772 70.6744 73.7921 73.5632 73.3335C73.8141 73.2937 73.9979 73.0774 73.9979 72.8234C73.9979 72.5055 73.7139 72.2629 73.3999 72.3128C70.527 72.7691 66.7417 73.3482 65.6133 73.4233C64.6841 73.4861 63.8769 74.0135 63.2512 74.6078C62.3635 75.451 61.2732 76.1324 60.0489 76.1324H58.587C57.4899 76.1324 56.5514 75.0224 56.2473 73.9683C55.8971 72.7547 56.5763 71.6145 57.789 71.261L73.6282 66.6434C73.8485 66.5792 74 66.3772 74 66.1477C74 65.8035 73.6695 65.5556 73.3391 65.652L54.5853 71.1231C54.4352 71.1665 54.3119 71.28 54.2523 71.4246C54.1947 71.5712 54.205 71.7364 54.2831 71.8747C54.2975 71.9015 55.7487 74.4764 55.6295 76.6239C55.5247 78.4987 54.6387 81.1025 54.6284 81.1294C54.5421 81.3792 54.6572 81.6518 54.8957 81.7653L73.2645 90.4691C73.6061 90.631 74 90.3818 74 90.0037Z" fill="white"/>
<path d="M73.8432 95.5709C73.8129 94.8124 73.3923 94.1236 72.7315 93.75L52.4146 82.2653C51.0251 81.4807 50.2254 79.9506 50.3734 78.3565C50.6448 75.4203 51.0209 70.9417 50.8935 69.9877C50.6715 68.3193 49.1751 59.1617 49.0271 57.5965C48.7496 54.6459 51.0662 53.0848 53.0395 52.4365C54.6441 51.9081 67.4718 48.67 72.2312 47.4729C73.2709 47.2114 74 46.2767 74 45.2046C74 43.679 72.5621 42.5622 71.0839 42.9399L52.2743 47.7461C50.8381 48.113 49.3554 48.2322 47.8791 48.098C44.0125 47.7467 35.9044 47.013 30.0255 46.5021C23.3429 45.9219 18.3931 47.0968 13.7167 46.6425C11.107 46.3903 6.05572 44.5706 2.86495 43.3383C1.49613 42.8096 0 43.8134 0 45.2808C0 45.9367 0.313852 46.5504 0.899592 46.8457C3.37216 48.0921 9.22509 50.1581 13.1679 50.6607C17.7353 51.243 26.7592 50.2002 29.8261 50.4625C31.9464 50.6443 36.8712 51.2298 40.7306 51.7017C42.9073 51.9679 44.5936 55.2383 45.0167 57.3901C45.8019 60.7165 47.1627 69.519 47.4011 70.9582C47.5471 71.8357 47.0702 75.9696 46.7618 78.435C46.6138 79.6264 45.9828 80.694 45.0167 81.4022L10.4503 106.75C8.90383 107.884 9.706 110.335 11.6238 110.335C12.0384 110.335 12.4426 110.205 12.7797 109.963L47.0846 85.3791C47.5799 85.0239 48.2357 84.9888 48.7681 85.2862L70.5769 97.5686C72.0723 98.4108 73.9117 97.2858 73.8432 95.5709Z" fill="#FFB74D"/>
<path d="M50.3713 78.3562C50.4612 77.3844 50.5624 76.2446 50.6528 75.1194C50.7304 74.1536 49.9936 73.3194 49.0262 73.2655C48.0852 73.2131 47.2735 73.92 47.1763 74.8574C47.0472 76.1031 46.8908 77.4132 46.7638 78.4367C46.7417 78.6202 46.8591 78.7853 47.0439 78.7828L50.0108 78.7415C50.2221 78.7385 50.351 78.5665 50.3713 78.3562Z" fill="#FFE082"/>
<ellipse cx="34.6561" cy="56.2579" rx="7.19909" ry="6.52941" fill="#F77F89" fill-opacity="0.44"/>
<path d="M35.4953 0C23.6232 0 14 9.62318 14 21.4953C14 37.6168 35.4953 56.4252 35.4953 56.4252C35.4953 56.4252 56.9906 37.6168 56.9906 21.4953C56.9906 9.62318 47.3674 0 35.4953 0Z" fill="#F1636F"/>
<path d="M35.4948 6.71777C31.5754 6.71777 27.8166 8.27474 25.0452 11.0462C22.2738 13.8176 20.7168 17.5764 20.7168 21.4958C20.7168 25.4152 22.2738 29.174 25.0452 31.9454C27.8166 34.7169 31.5754 36.2738 35.4948 36.2738C39.4142 36.2738 43.173 34.7169 45.9445 31.9454C48.7159 29.174 50.2728 25.4152 50.2728 21.4958C50.2728 17.5764 48.7159 13.8176 45.9445 11.0462C43.173 8.27474 39.4142 6.71777 35.4948 6.71777Z" fill="#F5F5F5"/>
<path d="M42.2121 17.8494V13.4348H39.5251V15.5453L35.4948 12.0913L26.0906 20.152H27.434V29.5562H32.8079V22.839H38.1817V29.5562H43.5555V20.152H44.899L42.2121 17.8494Z" fill="#1976D2"/>
</svg>
