<svg width="260" height="47" viewBox="0 0 260 47" fill="none" xmlns="http://www.w3.org/2000/svg">
<path d="M249.725 0H10.2754C4.60046 0 0 4.47715 0 10V36.479C0 42.0018 4.60046 46.479 10.2754 46.479H249.725C255.4 46.479 260 42.0018 260 36.479V10C260 4.47715 255.4 0 249.725 0Z" fill="#45688E"/>
<path fill-rule="evenodd" clip-rule="evenodd" d="M140.422 26.074C141.684 27.1892 142.887 28.3664 144.026 29.601C144.522 30.1577 144.955 30.7649 145.317 31.412C145.813 32.348 145.364 33.378 144.501 33.434H139.142C138.504 33.4807 137.865 33.3832 137.273 33.1489C136.68 32.9147 136.152 32.5502 135.729 32.084C134.987 31.348 134.3 30.565 133.587 29.805C133.303 29.4882 132.979 29.2079 132.622 28.971C132.487 28.8549 132.325 28.7723 132.15 28.7301C131.975 28.688 131.792 28.6877 131.616 28.7291C131.441 28.7705 131.279 28.8525 131.143 28.9681C131.007 29.0837 130.902 29.2295 130.837 29.393C130.459 30.1513 130.266 30.9842 130.273 31.827C130.215 33.055 129.834 33.378 128.566 33.434C125.904 33.6392 123.238 33.0831 120.897 31.834C118.856 30.6377 117.098 29.0362 115.736 27.134C113.046 23.4505 110.769 19.4973 108.944 15.342C108.516 14.413 108.829 13.915 109.882 13.897C111.629 13.864 113.376 13.866 115.13 13.897C115.457 13.9006 115.774 14.0052 116.036 14.1958C116.297 14.3863 116.49 14.6529 116.586 14.957C117.514 17.2211 118.707 19.3734 120.142 21.371C120.498 21.9241 120.953 22.4108 121.485 22.808C121.59 22.9103 121.721 22.9832 121.865 23.0188C122.008 23.0545 122.159 23.0517 122.302 23.0107C122.444 22.9697 122.572 22.8921 122.672 22.7859C122.773 22.6798 122.842 22.5492 122.873 22.408C123.046 21.978 123.15 21.5242 123.181 21.063C123.343 19.4935 123.314 17.9109 123.094 16.348C123.061 15.9023 122.872 15.4812 122.559 15.1539C122.247 14.8267 121.829 14.613 121.374 14.548C120.861 14.454 120.939 14.268 121.186 13.983C121.37 13.7269 121.617 13.5196 121.904 13.3799C122.191 13.2402 122.51 13.1725 122.83 13.183H128.893C129.846 13.366 130.058 13.783 130.189 14.717L130.194 21.265C130.183 21.627 130.38 22.699 131.049 22.939C131.584 23.109 131.938 22.692 132.258 22.362C133.652 20.8384 134.801 19.1191 135.669 17.262C136.08 16.456 136.432 15.619 136.774 14.782C136.857 14.4979 137.039 14.251 137.289 14.0842C137.539 13.9174 137.842 13.8413 138.144 13.869L143.974 13.874C144.146 13.87 144.318 13.8801 144.488 13.904C145.47 14.067 145.739 14.478 145.436 15.412C144.883 16.8314 144.098 18.1549 143.113 19.332C142.141 20.641 141.101 21.906 140.133 23.223C139.247 24.423 139.317 25.032 140.418 26.076L140.422 26.074Z" fill="white"/>
</svg>
